<?xml version="1.0" standalone="no"?>
<!DOCTYPE svg PUBLIC "-//W3C//DTD SVG 1.1//EN" "http://www.w3.org/Graphics/SVG/1.1/DTD/svg11.dtd" >
<svg>
<metadata>
Created by FontForge 20090622 at Thu Dec 20 17:38:51 2018
 By deploy user
Copyright &#194;&#169; 2015 by Radomir Tinkov. All rights reserved.
</metadata>
<defs>
<font id="Qanelas-ThinItalic" horiz-adv-x="500" >
  <font-face 
    font-family="Qanelas Thin Italic"
    font-weight="250"
    font-style="italic"
    font-stretch="normal"
    units-per-em="1000"
    panose-1="0 0 3 0 0 0 0 0 0 0"
    ascent="800"
    descent="-200"
    x-height="500"
    cap-height="700"
    bbox="-275 -240 1051.52 960"
    underline-thickness="50"
    underline-position="-50"
    slope="-10"
    unicode-range="U+0020-U+FB02"
  />
<missing-glyph 
d="M410 800v-1000h-317v1000h317zM333 733h-165v-33h65v-37h-66v-33h166v33h-66v37h66v33zM267 604h-100v-104h166v34h-66v70zM233 570v-36h-33v36h33zM333 473h-166v-33h66v-37h-66v-33h100v70h66v33zM333 413h-33v-66h-133v-34h166v100zM333 291h-100v-56h34v23h33v-47
h-100v80h-33v-113h166v113zM333 118h-166v-113h166v113zM300 85v-47h-100v47h100zM333 -18h-166v-33h70l-70 -47v-33h166v33h-102l70 47h32v33z" />
    <glyph glyph-name="fi" unicode="fi" horiz-adv-x="489" 
d="M367 692q-83 0 -127.5 -37.5t-58.5 -114.5l-7 -40h259h10l-88 -500h-20l85 482h-249l-85 -482h-20l85 482h-90l3 18h90l7 40q15 86 66 128t143 42q51 0 98 -10l-3 -18q-47 10 -98 10z" />
    <glyph glyph-name="fl" unicode="fl" horiz-adv-x="489" 
d="M370 710q51 0 108 -10l-123 -700h-20l120 685q-35 7 -88 7q-83 0 -127.5 -37.5t-58.5 -114.5l-7 -40h129l-3 -18h-129l-85 -482h-20l85 482h-90l3 18h90l7 40q15 86 66 128t143 42z" />
    <glyph glyph-name="f_f" unicode="ff" horiz-adv-x="558" 
d="M432 550q15 87 67.5 132t141.5 38l-3 -18q-156 13 -186 -152l-9 -50h159l-3 -18h-159l-85 -482h-20l85 482h-249l-85 -482h-20l85 482h-90l3 18h90l7 40q33 184 209 170l-3 -18q-156 13 -186 -152l-7 -40h249z" />
    <glyph glyph-name="f_f_i" unicode="ffi" horiz-adv-x="758" 
d="M638 702q-83 0 -127.5 -37.5t-58.5 -114.5l-9 -50h259h10l-88 -500h-20l85 482h-249l-85 -482h-20l85 482h-249l-85 -482h-20l85 482h-90l3 18h90l7 40q15 88 67.5 132.5t141.5 37.5l-3 -18q-156 13 -186 -152l-7 -40h249l9 50q28 170 209 170q51 0 98 -10l-3 -18
q-47 10 -98 10z" />
    <glyph glyph-name="f_f_l" unicode="ffl" horiz-adv-x="758" 
d="M641 720q51 0 108 -10l-125 -710h-20l122 695q-35 7 -88 7q-83 0 -127.5 -37.5t-58.5 -114.5l-9 -50h129l-3 -18h-129l-85 -482h-20l85 482h-249l-85 -482h-20l85 482h-90l3 18h90l7 40q15 88 67.5 132.5t141.5 37.5l-3 -18q-156 13 -186 -152l-7 -40h249l9 50
q28 170 209 170z" />
    <glyph glyph-name=".notdef" 
d="M410 800v-1000h-317v1000h317zM333 733h-165v-33h65v-37h-66v-33h166v33h-66v37h66v33zM267 604h-100v-104h166v34h-66v70zM233 570v-36h-33v36h33zM333 473h-166v-33h66v-37h-66v-33h100v70h66v33zM333 413h-33v-66h-133v-34h166v100zM333 291h-100v-56h34v23h33v-47
h-100v80h-33v-113h166v113zM333 118h-166v-113h166v113zM300 85v-47h-100v47h100zM333 -18h-166v-33h70l-70 -47v-33h166v33h-102l70 47h32v33z" />
    <glyph glyph-name=".null" horiz-adv-x="0" 
 />
    <glyph glyph-name="nonmarkingreturn" horiz-adv-x="333" 
 />
    <glyph glyph-name="space" unicode=" " horiz-adv-x="300" 
 />
    <glyph glyph-name="exclam" unicode="!" horiz-adv-x="200" 
d="M74 160l60 340l35 200h20l-35 -200l-60 -340h-20zM46 0l11 60h20l-11 -60h-20z" />
    <glyph glyph-name="quotedbl" unicode="&#x22;" horiz-adv-x="260" 
d="M111 540l28 160h20l-28 -160h-20zM231 540l28 160h20l-28 -160h-20z" />
    <glyph glyph-name="numbersign" unicode="#" horiz-adv-x="612" 
d="M591 430h-119l-54 -160h119l-8 -20h-118l-68 -200h-22l68 200h-198l-68 -200h-22l68 200h-119l7 20h119l54 160h-119l6 20h120l68 200h22l-68 -200h198l68 200h22l-68 -200h118zM396 270l54 160h-198l-54 -160h198z" />
    <glyph glyph-name="dollar" unicode="$" horiz-adv-x="550" 
d="M366 710q78 -5 126 -54.5t36 -120.5h-20q11 62 -29.5 107.5t-115.5 49.5l-58 -328q2 0 6 -2q39 -16 58.5 -25t49 -28t43 -38t21 -48t1.5 -65q-13 -78 -78.5 -123t-159.5 -45h-7l-16 -90h-20l16 91q-96 6 -146.5 53t-36.5 126h20q-12 -70 31.5 -113t134.5 -48l61 344
q-18 7 -30.5 12.5t-29 14t-28 15.5t-25 17.5t-21 20.5t-16.5 23.5t-10.5 27.5t-4.5 31.5t3 36.5q13 71 73.5 114t151.5 44l16 90h20zM141 550q-12 -68 27 -107t118 -71l57 320q-83 -2 -137 -42.5t-65 -99.5zM302 345l-60 -337h5q88 0 147 42.5t70 109.5q6 32 -1.5 59
t-19.5 43.5t-39.5 34t-46 25.5z" />
    <glyph glyph-name="percent" unicode="%" horiz-adv-x="769" 
d="M253 414q-65 0 -102 44t-26 106q11 63 61 104.5t117 41.5q65 0 102 -44t26 -106q-11 -63 -61 -104.5t-117 -41.5zM84 0l612 700h24l-613 -700h-23zM255 432q58 0 102 37t54 93t-21.5 93t-88.5 37t-101.5 -37t-54.5 -93t21.5 -93t88.5 -37zM501 -10q-65 0 -102 44t-26 106
q11 63 61 104.5t117 41.5q65 0 102 -44t26 -106q-11 -63 -61 -104.5t-117 -41.5zM503 8q58 0 102 37t54 93t-21.5 93t-88.5 37t-101.5 -37t-54.5 -93t21.5 -93t88.5 -37z" />
    <glyph glyph-name="ampersand" unicode="&#x26;" horiz-adv-x="660" 
d="M588 294q-20 -113 -91 -192l89 -102h-23l-77 89q-96 -99 -246 -99q-97 0 -152 55.5t-39 141.5q12 68 59.5 121t114.5 84q-53 73 -39 148t75.5 122.5t147.5 47.5q83 0 131 -50t35 -125h-20q12 65 -27.5 111t-119.5 46t-135 -44t-67 -108q-9 -52 7.5 -90.5t58.5 -86.5
l216 -248q63 72 82 179h20zM241 8q139 0 233 94l-217 249q-16 18 -23 28q-67 -32 -111 -83t-54 -111q-15 -81 35.5 -129t136.5 -48z" />
    <glyph glyph-name="quotesingle" unicode="'" horiz-adv-x="130" 
d="M111 540l28 160h20l-28 -160h-20z" />
    <glyph glyph-name="parenleft" unicode="(" horiz-adv-x="220" 
d="M108 -100q-70 224 -30 452q43 248 189 448h20q-149 -219 -189 -450t30 -450h-20z" />
    <glyph glyph-name="parenright" unicode=")" horiz-adv-x="220" 
d="M147 800q70 -224 30 -452q-43 -248 -189 -448h-20q149 219 189 450t-30 450h20z" />
    <glyph glyph-name="asterisk" unicode="*" horiz-adv-x="376" 
d="M370 614l-3 -18l-103 1l40 -88l-17 -9l-39 89l-67 -89l-17 10l70 87l-103 -1l3 18l103 -1l-40 88l17 9l39 -89l67 89l17 -10l-70 -87z" />
    <glyph glyph-name="plus" unicode="+" horiz-adv-x="520" 
d="M469 359l-3 -18h-180l-32 -181h-20l32 181h-180l3 18h180l32 181h20l-32 -181h180z" />
    <glyph glyph-name="comma" unicode="," horiz-adv-x="201" 
d="M67 60h20l-18 -100q-12 -68 -54 -78l3 18q21 10 31 60z" />
    <glyph glyph-name="hyphen" unicode="-" horiz-adv-x="560" 
d="M109 300l3 18h360l-3 -18h-360z" />
    <glyph glyph-name="period" unicode="." horiz-adv-x="181" 
d="M36 0l11 60h20l-11 -60h-20z" />
    <glyph glyph-name="slash" unicode="/" horiz-adv-x="520" 
d="M9 -100h-21l558 900h21z" />
    <glyph glyph-name="zero" unicode="0" horiz-adv-x="630" 
d="M271 -10q-119 0 -170.5 99t-22.5 263t113 261t203 97t170.5 -99t22.5 -263t-113 -261t-203 -97zM272 8q108 0 187.5 91.5t107.5 250.5t-19 250.5t-155 91.5t-187.5 -91.5t-107.5 -250.5t19 -250.5t155 -91.5z" />
    <glyph glyph-name="one" unicode="1" horiz-adv-x="315" 
d="M274 700h20l-123 -700h-20l119 676l-191 -93l4 23z" />
    <glyph glyph-name="two" unicode="2" horiz-adv-x="530" 
d="M6 0l3 18l311 275q150 131 166 218q15 83 -26 132t-127 49q-82 0 -142 -49.5t-74 -127.5h-20q15 88 82.5 141.5t153.5 53.5q91 0 140 -55t32 -147q-16 -91 -172 -228l-296 -262h402l-3 -18h-430z" />
    <glyph glyph-name="three" unicode="3" horiz-adv-x="560" 
d="M539 700l-3 -18l-224 -272q92 -5 143.5 -64t35.5 -148q-16 -94 -90.5 -151t-176.5 -57q-97 0 -153 58.5t-40 151.5h20q-15 -83 33 -137.5t143 -54.5q96 0 163 54.5t82 137.5t-33 137.5t-144 54.5h-14l2 12l230 278h-367l3 18h390z" />
    <glyph glyph-name="four" unicode="4" horiz-adv-x="560" 
d="M522 178l-3 -18h-90l-28 -160h-20l28 160h-390l3 18l368 522h22l-367 -522h367l41 232h20l-41 -232h90z" />
    <glyph glyph-name="five" unicode="5" horiz-adv-x="550" 
d="M551 682h-352l-66 -272h170q99 0 154 -59.5t39 -153.5q-16 -93 -90.5 -150t-176.5 -57q-97 0 -152.5 58.5t-40.5 151.5h20q-15 -83 33 -137.5t143 -54.5q96 0 163 54t82 137t-32.5 138t-144.5 55h-191l75 308h370z" />
    <glyph glyph-name="six" unicode="6" horiz-adv-x="550" 
d="M310 449q101 0 156.5 -65.5t37.5 -166.5t-95 -164t-180 -63q-100 0 -156 66t-38 167q15 83 69 140l302 337h23l-254 -283q61 32 135 32zM485 220q16 91 -31.5 151t-146.5 60t-168 -60t-85 -151t31.5 -151.5t146.5 -60.5t168 60.5t85 151.5z" />
    <glyph glyph-name="seven" unicode="7" horiz-adv-x="490" 
d="M109 700h410l-3 -18l-406 -682h-21l407 682h-390z" />
    <glyph glyph-name="eight" unicode="8" horiz-adv-x="554" 
d="M532 529q-11 -62 -54.5 -106.5t-107.5 -61.5q69 -17 101 -66t20 -118q-16 -87 -85 -137t-175 -50q-103 0 -156 53t-37 140q12 70 61 117t124 63q-57 18 -84.5 63.5t-16.5 106.5q13 79 78 128t156 49q90 0 139.5 -51t36.5 -130zM298 370q87 0 144 46t70 115q12 69 -29 115
t-128 46t-144 -46t-69 -115q-13 -69 28 -115t128 -46zM471 180q13 77 -32 124.5t-144 47.5t-161.5 -48t-75.5 -124q-14 -76 31.5 -124t144.5 -48t161 47.5t76 124.5z" />
    <glyph glyph-name="nine" unicode="9" horiz-adv-x="550" 
d="M356 710q100 0 156 -66t38 -167q-15 -83 -69 -140l-302 -337h-23l254 283q-61 -32 -135 -32q-101 0 -156.5 65.5t-37.5 166.5t95 164t180 63zM531 480q16 91 -31.5 151.5t-146.5 60.5t-168 -60.5t-85 -151.5t31.5 -151t146.5 -60t168 60t85 151z" />
    <glyph glyph-name="colon" unicode=":" horiz-adv-x="181" 
d="M114 440l11 60h20l-11 -60h-20zM36 0l11 60h20l-11 -60h-20z" />
    <glyph glyph-name="semicolon" unicode=";" horiz-adv-x="201" 
d="M145 500h20l-11 -60h-20zM49 -40l18 100h20l-18 -100q-12 -68 -54 -78l3 18q21 10 31 60z" />
    <glyph glyph-name="less" unicode="&#x3c;" horiz-adv-x="540" 
d="M521 542l-4 -21l-407 -172l346 -172l-3 -19l-367 183l2 9l1 9z" />
    <glyph glyph-name="equal" unicode="=" horiz-adv-x="530" 
d="M104 441l3 18h390l-3 -18h-390zM68 241l4 18h390l-4 -18h-390z" />
    <glyph glyph-name="greater" unicode="&#x3e;" horiz-adv-x="540" 
d="M122 542l367 -183l-1 -9l-2 -9l-432 -183l3 21l409 172l-348 172z" />
    <glyph glyph-name="question" unicode="?" horiz-adv-x="525" 
d="M213 160q9 49 38 93.5t65 78l72 65t63.5 68.5t34.5 75q12 69 -25 110.5t-123 41.5q-81 0 -143.5 -46.5t-74.5 -110.5h-20q13 75 83.5 125t158.5 50q87 0 132.5 -46.5t31.5 -125.5q-7 -40 -35 -78t-64 -70l-72 -65t-65 -76t-37 -89h-20zM185 0l11 60h20l-11 -60h-20z" />
    <glyph glyph-name="at" unicode="@" horiz-adv-x="835" 
d="M488 612q106 0 178.5 -52t99.5 -129.5t12 -162.5q-19 -106 -65 -153t-101 -47q-46 0 -62.5 29t-9.5 70l2 9q-55 -86 -157 -86q-68 0 -107 47t-27 115t65 113t124 45q48 0 81.5 -25.5t45.5 -67.5l15 86h20l-42 -236q-14 -81 55 -81q52 0 89.5 48.5t53.5 135.5
q24 137 -54 230.5t-219 93.5q-145 0 -262 -99.5t-143 -244.5q-26 -148 59.5 -246t241.5 -98q98 0 172 26l4 -17q-79 -27 -179 -27q-164 0 -255 103.5t-63 260.5q26 151 149 255.5t279 104.5zM388 108q58 0 104.5 37.5t60.5 95.5l3 17q8 58 -26 96t-92 38q-61 0 -109 -40.5
t-58 -101.5q-11 -61 22.5 -101.5t94.5 -40.5z" />
    <glyph glyph-name="A" unicode="A" horiz-adv-x="628" 
d="M539 0l-42 191h-385l-109 -191h-22l400 700h25l153 -700h-20zM122 209h371l-102 470z" />
    <glyph glyph-name="B" unicode="B" horiz-adv-x="680" 
d="M517 451q66 -22 99 -84t20 -140q-18 -96 -91 -161.5t-170 -65.5h-309h-10l123 700h20h240q69 0 107 -45.5t27 -108.5q-10 -56 -56 -95zM196 682l-39 -222h300q23 0 39 -4q48 38 57 94q10 56 -23 94t-94 38h-240zM617 230q15 89 -31 150.5t-132 61.5h-300l-75 -424h299
q86 0 154.5 62t84.5 150z" />
    <glyph glyph-name="C" unicode="C" horiz-adv-x="778" 
d="M374 -10q-154 0 -238.5 105.5t-57.5 256.5q27 152 146 255t277 103q106 0 184 -58.5t96 -151.5h-21q-19 86 -90.5 139t-171.5 53q-147 0 -261 -99t-139 -243q-26 -143 53 -242.5t226 -99.5q101 0 191 53t139 139h22q-52 -94 -148.5 -152t-206.5 -58z" />
    <glyph glyph-name="D" unicode="D" horiz-adv-x="760" 
d="M449 700q140 0 217 -104t51 -250q-26 -148 -135 -247t-256 -99h-260h-10l123 700h20h250zM697 349q24 140 -46 236.5t-205 96.5h-250l-117 -664h250q135 0 239 95.5t129 235.5z" />
    <glyph glyph-name="E" unicode="E" horiz-adv-x="520" 
d="M541 682h-345l-56 -320h320l-3 -18h-321l-57 -326h350l-3 -18h-360h-10l123 700h20h345z" />
    <glyph glyph-name="F" unicode="F" horiz-adv-x="515" 
d="M541 682h-345l-61 -344h341l-4 -18h-340l-56 -320h-20l123 700h20h345z" />
    <glyph glyph-name="G" unicode="G" horiz-adv-x="818" 
d="M498 692q-148 0 -261 -95.5t-138 -238.5q-26 -146 53.5 -248t234.5 -102q107 0 200 57t126 160l15 86h-289l3 18h310l-3 -18h-1l-54 -311h-20l27 155q-48 -79 -134.5 -122t-182.5 -43q-162 0 -247 108t-58 261q27 151 145 251t277 100q106 0 184 -60t96 -150h-19
q-20 86 -92 139t-172 53z" />
    <glyph glyph-name="H" unicode="H" horiz-adv-x="640" 
d="M599 700h20l-123 -700h-20l62 351h-400l-62 -351h-20l123 700h20l-58 -331h400z" />
    <glyph glyph-name="I" unicode="I" horiz-adv-x="220" 
d="M179 700h20l-123 -700h-20z" />
    <glyph glyph-name="J" unicode="J" horiz-adv-x="540" 
d="M202 -10q-90 0 -139.5 52.5t-34.5 137.5l1 5h20l-1 -5q-14 -75 27.5 -123.5t126.5 -48.5q83 0 142.5 48.5t73.5 123.5l91 520h20l-91 -520q-16 -86 -82 -138t-154 -52z" />
    <glyph glyph-name="K" unicode="K" horiz-adv-x="556" 
d="M615 700l-454 -343l341 -357h-25l-339 354l-62 -354h-20l123 700h20l-59 -335l445 335h30z" />
    <glyph glyph-name="L" unicode="L" 
d="M79 18h350l-3 -18h-370l3 18l120 682h20z" />
    <glyph glyph-name="M" unicode="M" horiz-adv-x="820" 
d="M799 700l-123 -700h-20l118 669l-376 -538h-18l-186 538l-118 -669h-20l123 700h20h4l189 -544l379 544h28z" />
    <glyph glyph-name="N" unicode="N" horiz-adv-x="630" 
d="M589 700h20l-123 -700h-20l-273 664l-117 -664h-20l123 700h20l273 -664z" />
    <glyph glyph-name="O" unicode="O" horiz-adv-x="840" 
d="M375 -10q-149 0 -236 107t-61 256t149.5 253t272.5 104q148 0 235.5 -107t61.5 -256t-149.5 -253t-272.5 -104zM377 8q141 0 257.5 100t142.5 242q25 142 -56.5 242t-222.5 100t-258 -100t-142 -242t56.5 -242t222.5 -100z" />
    <glyph glyph-name="P" unicode="P" horiz-adv-x="570" 
d="M399 700q80 0 130 -60.5t35 -142.5q-14 -83 -82 -140t-153 -57h-200l-53 -300h-20l123 700h20h200zM544 500q14 75 -29.5 128.5t-118.5 53.5h-200l-64 -364h200q75 0 137 53.5t75 128.5z" />
    <glyph glyph-name="Q" unicode="Q" horiz-adv-x="845" 
d="M797 347q-29 -163 -169 -269l67 -96l-15 -11l-68 96q-111 -77 -237 -77q-149 0 -236 107t-61 256t149.5 253t272.5 104q148 0 235.5 -107t61.5 -256zM617 93q62 48 104.5 115t55.5 142q25 142 -56.5 242t-222.5 100t-258 -100t-142 -242t56.5 -242t222.5 -100
q119 0 225 74l-76 108l15 11z" />
    <glyph glyph-name="R" unicode="R" horiz-adv-x="620" 
d="M563 497q-13 -76 -73.5 -131.5t-136.5 -64.5l213 -301h-22l-212 300h-3h-200l-53 -300h-20l123 700h20h200q81 0 130 -60.5t34 -142.5zM196 682l-64 -364h200q74 0 136.5 53.5t75.5 128.5t-30.5 128.5t-117.5 53.5h-200z" />
    <glyph glyph-name="S" unicode="S" horiz-adv-x="550" 
d="M242 -10q-106 0 -163 49.5t-42 135.5h20q-14 -76 35.5 -121.5t152.5 -45.5q88 0 148 44.5t72 112.5q7 39 -2.5 67.5t-35 48.5t-51 32.5t-64.5 28.5q-7 3 -11 4q-93 38 -117 53q-81 51 -65 143q13 73 78.5 120.5t156.5 47.5q83 0 135 -50.5t39 -124.5h-20
q12 66 -31.5 111.5t-125.5 45.5q-86 0 -143.5 -45t-68.5 -107q-6 -37 3 -65t36 -48t50 -31t66 -28q12 -5 18 -7q94 -39 123 -62q65 -50 50 -136q-14 -79 -82 -126t-161 -47z" />
    <glyph glyph-name="T" unicode="T" 
d="M549 700l-3 -18h-210l-120 -682h-20l120 682h-210l3 18h230h210z" />
    <glyph glyph-name="U" unicode="U" horiz-adv-x="630" 
d="M271 -10q-100 0 -153.5 54t-37.5 146l89 510h20l-89 -510q-14 -84 31.5 -133t140.5 -49q96 0 159.5 50t77.5 132l89 510h20l-89 -510q-16 -94 -87 -147t-171 -53z" />
    <glyph glyph-name="V" unicode="V" horiz-adv-x="598" 
d="M243 0l-144 700h20l139 -678l377 678h22l-390 -700h-24z" />
    <glyph glyph-name="W" unicode="W" horiz-adv-x="860" 
d="M888 700h21l-352 -700h-26l-67 442l-223 -442h-26l-106 700h19l103 -678l228 452l-34 226h19l103 -678z" />
    <glyph glyph-name="X" unicode="X" horiz-adv-x="560" 
d="M600 700l-291 -345l177 -355h-20l-169 340l-287 -340h-24l302 358l-170 342h20l162 -327l276 327h24z" />
    <glyph glyph-name="Y" unicode="Y" horiz-adv-x="560" 
d="M619 700l-315 -371l-58 -329h-20l58 330l-185 370h21l176 -354l300 354h23z" />
    <glyph glyph-name="Z" unicode="Z" horiz-adv-x="510" 
d="M539 700l-3 -18l-503 -664h396l-3 -18h-420l3 18l504 664h-377l3 18h400z" />
    <glyph glyph-name="bracketleft" unicode="[" horiz-adv-x="260" 
d="M344 781h-160l-153 -862h161l-4 -19h-170h-10l159 900h20h160z" />
    <glyph glyph-name="backslash" unicode="\" horiz-adv-x="520" 
d="M390 -100l-243 900h18l243 -900h-18z" />
    <glyph glyph-name="bracketright" unicode="]" horiz-adv-x="260" 
d="M287 800l-159 -900h-20h-160l4 19h159l153 862h-160l3 19h180z" />
    <glyph glyph-name="asciicircum" unicode="^" horiz-adv-x="506" 
d="M339 700l123 -300h-20l-113 276l-209 -276h-24l227 300h16z" />
    <glyph glyph-name="underscore" unicode="_" horiz-adv-x="480" 
d="M-25 -118l3 18h400l-3 -18h-400z" />
    <glyph glyph-name="grave" unicode="`" horiz-adv-x="142" 
d="M178 570l-60 120h-20l64 -120h16z" />
    <glyph glyph-name="a" unicode="a" 
d="M296 510q73 0 116 -46t28 -129l-59 -335h-20l12 67q-51 -77 -185 -77q-75 0 -119.5 41t-32.5 112q12 70 70.5 109.5t134.5 39.5q59 0 100.5 -21.5t56.5 -61.5l22 126q13 74 -22 115.5t-105 41.5q-69 0 -118.5 -37t-60.5 -100h-20q12 69 67 112t135 43zM191 8q73 0 126 30
t68 96l2 14q8 65 -35.5 95.5t-113.5 30.5q-72 0 -121.5 -36.5t-60.5 -96.5t26 -96.5t109 -36.5z" />
    <glyph glyph-name="b" unicode="b" horiz-adv-x="662" 
d="M387 510q107 0 174.5 -81.5t48.5 -191.5t-101.5 -178.5t-193.5 -68.5q-83 0 -143.5 51.5t-75.5 130.5l-30 -172h-20l123 700h20l-60 -341q39 70 107 110.5t151 40.5zM590 240q18 102 -43.5 177t-162.5 75t-177.5 -65t-94.5 -167t43.5 -177t162.5 -75t177.5 65t94.5 167z
" />
    <glyph glyph-name="c" unicode="c" horiz-adv-x="581" 
d="M522 140q-35 -69 -103.5 -109.5t-153.5 -40.5q-111 0 -172.5 76t-41.5 187q20 110 107 183.5t199 73.5q80 0 136 -42t67 -108h-20q-11 60 -60.5 96t-125.5 36q-104 0 -184.5 -69.5t-98.5 -172.5t37.5 -172.5t159.5 -69.5q74 0 137.5 36t96.5 96h20z" />
    <glyph glyph-name="d" unicode="d" horiz-adv-x="662" 
d="M631 700h20l-123 -700h-20l25 141q-39 -70 -107 -110.5t-151 -40.5q-108 0 -175 81.5t-48 191.5t101.5 178.5t193.5 68.5q83 0 143.5 -51t75.5 -130zM278 8q101 0 177.5 65t94.5 167t-43.5 177t-162.5 75t-177.5 -65t-94.5 -167t43.5 -177t162.5 -75z" />
    <glyph glyph-name="e" unicode="e" horiz-adv-x="579" 
d="M343 510q108 0 161.5 -77.5t34.5 -184.5q-2 -6 -2 -10h-18h-451q-13 -102 40 -166t151 -64q72 0 131.5 33t89.5 88h21q-33 -65 -98.5 -102t-146.5 -37q-109 0 -167.5 74.5t-38.5 187.5q20 112 101 185t192 73zM71 256h451q13 106 -37 171t-144 65q-98 0 -174 -66
t-96 -170z" />
    <glyph glyph-name="f" unicode="f" horiz-adv-x="289" 
d="M161 540q15 88 67.5 132.5t141.5 37.5l-3 -18q-156 13 -186 -152l-7 -40h159l-3 -18h-159l-85 -482h-20l85 482h-90l3 18h90z" />
    <glyph glyph-name="g" unicode="g" horiz-adv-x="672" 
d="M606 500h20l-83 -469q-19 -111 -94 -176t-192 -65q-100 0 -159.5 53.5t-48.5 118.5h20q-10 -58 43 -106t146 -48q107 0 177 60t88 163l19 109q-38 -70 -106 -110t-151 -40q-108 0 -175 81.5t-48 191.5t101.5 178.5t193.5 68.5q83 0 143.5 -51t75.5 -130zM288 8
q100 0 176 64t95 165l1 5q17 101 -44 175.5t-162 74.5t-177.5 -65t-94.5 -167t43.5 -177t162.5 -75z" />
    <glyph glyph-name="h" unicode="h" horiz-adv-x="535" 
d="M341 510q69 0 109 -45.5t25 -127.5l-59 -337h-20l59 337q13 72 -19 113.5t-98 41.5q-75 0 -139 -54.5t-82 -146.5l-51 -291h-20l123 700h20l-56 -321q32 65 90 98t118 33z" />
    <glyph glyph-name="i" unicode="i" horiz-adv-x="200" 
d="M152 600l17 100h20l-17 -100h-20zM46 0l88 500h20l-88 -500h-20z" />
    <glyph glyph-name="j" unicode="j" horiz-adv-x="209" 
d="M178 700h20l-17 -100h-20zM39 -90l104 590h20l-104 -590q-11 -63 -51 -95.5t-109 -24.5l3 18q117 -13 137 102z" />
    <glyph glyph-name="k" unicode="k" horiz-adv-x="461" 
d="M470 500l-337 -242l254 -258h-26l-250 254l-45 -254h-20l123 700h20l-76 -435l326 235h31z" />
    <glyph glyph-name="l" unicode="l" horiz-adv-x="200" 
d="M46 0l57 321l70 399h20l-70 -399l-57 -321h-20z" />
    <glyph glyph-name="m" unicode="m" horiz-adv-x="795" 
d="M615 510q64 0 100 -41t22 -122l-61 -347h-20l61 347q12 71 -16.5 108t-87.5 37q-61 0 -115.5 -48t-72.5 -134l-54 -310h-20l61 347q12 71 -16.5 108t-87.5 37q-61 0 -115 -47.5t-72 -132.5l-55 -312h-20l88 500h20l-18 -102q30 57 77.5 84.5t96.5 27.5q55 0 90.5 -31
t35.5 -92q29 63 78.5 93t100.5 30z" />
    <glyph glyph-name="n" unicode="n" horiz-adv-x="535" 
d="M341 510q69 0 109 -45.5t25 -127.5l-59 -337h-20l59 337q13 72 -19 113.5t-98 41.5q-75 0 -138 -53.5t-82 -144.5l-52 -294h-20l88 500h20l-21 -121q33 65 90.5 98t117.5 33z" />
    <glyph glyph-name="o" unicode="o" horiz-adv-x="622" 
d="M266 -10q-108 0 -171 77t-44 187t107 183t198 73q108 0 171 -77t44 -187t-107 -183t-198 -73zM268 8q101 0 183 70t100 172t-39.5 172t-157.5 70q-101 0 -183 -70t-100 -172t39.5 -172t157.5 -70z" />
    <glyph glyph-name="p" unicode="p" horiz-adv-x="662" 
d="M387 510q107 0 174.5 -81.5t48.5 -191.5t-101.5 -178.5t-193.5 -68.5q-83 0 -143.5 51t-75.5 130l-65 -371h-20l123 700h20l-25 -140q39 70 107 110t151 40zM590 240q18 102 -43.5 177t-162.5 75t-177.5 -65t-94.5 -167t43.5 -177t162.5 -75t177.5 65t94.5 167z" />
    <glyph glyph-name="q" unicode="q" horiz-adv-x="662" 
d="M596 500h20l-123 -700h-20l60 341q-38 -70 -106.5 -110.5t-151.5 -40.5q-108 0 -175 81.5t-48 191.5t101.5 178.5t193.5 68.5q83 0 143.5 -51t75.5 -131zM278 8q101 0 177.5 65t94.5 167t-43.5 177t-162.5 75t-177.5 -65t-94.5 -167t43.5 -177t162.5 -75z" />
    <glyph glyph-name="r" unicode="r" horiz-adv-x="325" 
d="M132 377q33 65 90 98t118 31l-3 -18q-78 0 -141.5 -56t-80.5 -154l-49 -278h-20l88 500h20z" />
    <glyph glyph-name="s" unicode="s" horiz-adv-x="471" 
d="M280 510q74 0 114 -38.5t29 -96.5h-20q10 53 -25 85t-100 32q-68 0 -114 -29.5t-56 -82.5q-6 -34 8.5 -57t41.5 -35t60.5 -21l67 -18.5t60 -24t40 -41.5t6.5 -67q-10 -58 -64.5 -92t-137.5 -34q-80 0 -124 38.5t-33 96.5h20q-9 -53 29.5 -85t109.5 -32q73 0 122 30t58 82
q7 41 -12.5 67t-54.5 36.5l-76 22.5t-75.5 24t-54 41t-11.5 73q11 58 62.5 92t129.5 34z" />
    <glyph glyph-name="t" unicode="t" horiz-adv-x="320" 
d="M334 500l-3 -18h-120l-85 -482h-20l85 482h-120l3 18h120l28 160h20l-28 -160h120z" />
    <glyph glyph-name="u" unicode="u" horiz-adv-x="535" 
d="M469 500h20l-88 -500h-20l20 115q-33 -62 -90 -93.5t-117 -31.5q-71 0 -110 46t-24 127l59 337h20l-59 -337q-13 -72 19 -113.5t98 -41.5q77 0 141 56t81 152z" />
    <glyph glyph-name="v" unicode="v" horiz-adv-x="492" 
d="M494 500h22l-303 -500h-22l-127 500h19l121 -478z" />
    <glyph glyph-name="w" unicode="w" horiz-adv-x="670" 
d="M672 500h22l-272 -500h-22l-57 296l-161 -296h-22l-96 500h20l91 -473l163 298l-34 175h19l91 -474z" />
    <glyph glyph-name="x" unicode="x" horiz-adv-x="450" 
d="M454 500l-217 -244l139 -256h-20l-131 242l-215 -242h-24l229 258l-131 242h20l124 -228l202 228h24z" />
    <glyph glyph-name="y" unicode="y" horiz-adv-x="470" 
d="M472 500h22l-395 -700h-22l114 200l-127 500h19l121 -477z" />
    <glyph glyph-name="z" unicode="z" horiz-adv-x="470" 
d="M454 500l-2 -11l-404 -471h331l-3 -18h-360l2 11l404 471h-311l3 18h340z" />
    <glyph glyph-name="braceleft" unicode="{" horiz-adv-x="348" 
d="M255 -109q-70 -7 -99.5 25.5t-18.5 94.5l40 229q10 53 -14.5 77.5t-86.5 24.5l3 18q120 0 137 102l41 228q11 64 51.5 95.5t108.5 24.5l-3 -18q-117 13 -137 -102l-41 -228q-17 -99 -102 -112q38 -7 54.5 -37t8.5 -73l-40 -229q-10 -57 14.5 -83t86.5 -19z" />
    <glyph glyph-name="bar" unicode="|" horiz-adv-x="220" 
d="M21 -200l162 920h20l-162 -920h-20z" />
    <glyph glyph-name="braceright" unicode="}" horiz-adv-x="349" 
d="M129 811q70 7 99.5 -25.5t18.5 -94.5l-40 -229q-10 -53 14.5 -77.5t86.5 -24.5l-3 -18q-120 0 -137 -102l-41 -228q-11 -64 -51.5 -95.5t-108.5 -24.5l3 18q117 -13 137 102l41 228q17 99 102 112q-38 7 -54.5 37t-8.5 73l40 229q10 57 -14.5 83t-86.5 19z" />
    <glyph glyph-name="asciitilde" unicode="~" horiz-adv-x="573" 
d="M98 296l-18 8q6 13 14 26t22.5 30.5t33.5 27.5t42 14.5t53.5 -6.5t63.5 -38q35 -28 66.5 -36.5t52.5 -1.5t39.5 23.5t27.5 31t16 29.5l18 -8q-7 -16 -17 -32t-31 -35.5t-45 -27.5t-60 1t-76 40q-35 28 -67 36t-53 1.5t-39.5 -23.5t-27 -31t-15.5 -29z" />
    <glyph glyph-name="exclamdown" unicode="&#xa1;" horiz-adv-x="200" 
d="M134 500h20l-10 -60h-20zM106 340h20l-60 -340l-35 -200h-20l35 200z" />
    <glyph glyph-name="cent" unicode="&#xa2;" horiz-adv-x="581" 
d="M557 460q-8 44 -37 75.5t-74 45.5l-236 -461q34 -12 75 -12q74 0 137.5 36t96.5 96h20q-35 -69 -103.5 -109.5t-153.5 -40.5q-45 0 -80 13l-53 -103h-21l56 110q-67 30 -99 95.5t-17 147.5q20 110 107 183.5t199 73.5q29 0 62 -7l50 97h21l-53 -103q50 -17 83 -53t40 -84
h-20zM193 126l235 460q-27 6 -57 6q-104 0 -184.5 -69.5t-98.5 -172.5q-13 -76 15.5 -136t89.5 -88z" />
    <glyph glyph-name="sterling" unicode="&#xa3;" horiz-adv-x="570" 
d="M413 710q85 0 132.5 -51.5t33.5 -133.5l-5 -25h-20l5 25q12 72 -26.5 119.5t-119.5 47.5q-80 0 -136 -47.5t-68 -119.5l-36 -206h259l-3 -18h-260l-50 -283h400l-3 -18h-530l3 18h110l50 283h-90l3 18h91l36 206q14 83 76 134t148 51z" />
    <glyph glyph-name="currency" unicode="&#xa4;" horiz-adv-x="554" 
d="M559 563l-83 -71q45 -61 30 -144t-80 -142l58 -71l-15 -11l-58 69q-71 -53 -152 -53q-82 0 -133 54l-82 -70l-12 13l83 70q-46 62 -31 145t81 143l-59 70l15 11l58 -70q68 54 152 54q82 0 133 -54l83 70zM486 350q14 81 -31.5 136.5t-125.5 55.5t-145.5 -55.5
t-79.5 -136.5t31.5 -136.5t125.5 -55.5t145.5 55.5t79.5 136.5z" />
    <glyph glyph-name="yen" unicode="&#xa5;" horiz-adv-x="560" 
d="M619 700l-308 -363h190l-3 -18h-196l-19 -110h196l-3 -18h-196l-34 -191h-20l34 191h-194l3 18h194l19 110h-194l3 18h190l-182 363h21l176 -354l300 354h23z" />
    <glyph glyph-name="brokenbar" unicode="&#xa6;" horiz-adv-x="220" 
d="M118 350l65 370h20l-65 -370h-20zM21 -200l65 370h20l-65 -370h-20z" />
    <glyph glyph-name="section" unicode="&#xa7;" horiz-adv-x="540" 
d="M340 710q76 0 121 -42.5t33 -112.5h-19q11 61 -26.5 99t-109.5 38q-67 0 -115 -34.5t-58 -88.5q-5 -31 4 -55.5t32 -43t46.5 -31.5t59.5 -30q3 -1 5 -2q5 -2 15 -7q29 -13 44 -21t39 -23.5t35.5 -29.5t19 -35t3.5 -45q-12 -72 -92 -113q45 -43 34 -104q-11 -63 -65 -102
t-138 -39q-83 0 -130 43t-34 114h20q-11 -62 28 -100.5t117 -38.5q72 0 122 34.5t60 90.5q5 30 -4 54.5t-33.5 44t-48 32.5t-60.5 29q-86 40 -112 60q-56 43 -45 101q13 74 92 112q-45 45 -34 107t64 100.5t130 38.5zM449 248q4 25 -3.5 45t-32 38t-40.5 26.5t-53 25.5
q-11 5 -17 8q-80 37 -109 61q-35 -16 -58 -43t-28 -59q-5 -26 5 -47.5t32 -37.5t45.5 -28.5t54.5 -25.5q7 -3 10 -4q75 -33 109 -61q72 33 85 102z" />
    <glyph glyph-name="dieresis" unicode="&#xa8;" horiz-adv-x="240" 
d="M78 580l11 60h20l-11 -60h-20zM258 580l11 60h20l-11 -60h-20z" />
    <glyph glyph-name="copyright" unicode="&#xa9;" horiz-adv-x="845" 
d="M376 -10q-149 0 -237 107t-61 257q26 150 149 253t276 103q149 0 237 -107t62 -257q-27 -150 -150 -253t-276 -103zM379 8q142 0 260 100t143 242t-57.5 242t-224.5 100t-259.5 -100t-142.5 -242t57 -242t224 -100zM410 158q-83 0 -129 56.5t-32 137.5t78 135.5t149 54.5
q62 0 104.5 -34.5t49.5 -89.5h-20q-8 48 -44.5 77t-92.5 29q-75 0 -133 -50t-71 -124t27.5 -124t115.5 -50q56 0 102 28.5t71 77.5h21q-27 -56 -79 -90t-117 -34z" />
    <glyph glyph-name="ordfeminine" unicode="&#xaa;" horiz-adv-x="275" 
d="M219 710q36 0 57.5 -23t14.5 -64l-30 -168h-18l4 24q-24 -29 -82 -29q-38 0 -60.5 21.5t-15.5 56.5q6 35 35 54t68 19q52 0 71 -33l10 55q6 33 -9.5 52t-47.5 19t-53.5 -16.5t-26.5 -44.5h-18q6 35 33.5 56t67.5 21zM168 466q72 0 86 52l3 15q2 27 -17.5 39.5t-50.5 12.5
q-33 0 -55.5 -16t-26.5 -43q-5 -28 11.5 -44t49.5 -16z" />
    <glyph glyph-name="guillemotleft" unicode="&#xab;" horiz-adv-x="426" 
d="M263 469l-131 -162l71 -158h-21l-72 160l129 160h24zM365 469l-131 -162l71 -158h-21l-72 160l129 160h24z" />
    <glyph glyph-name="logicalnot" unicode="&#xac;" horiz-adv-x="520" 
d="M473 382l-2 -15l-26 -145h-20l25 142h-360l3 18h380z" />
    <glyph glyph-name="registered" unicode="&#xae;" horiz-adv-x="845" 
d="M503 710q149 0 237 -107t62 -257q-27 -150 -150 -253t-276 -103q-149 0 -237 107t-61 257q26 150 149 253t276 103zM782 350q25 142 -57.5 242t-224.5 100t-259.5 -100t-142.5 -242t57 -242t224 -100t260 100t143 242zM476 535q63 0 91 -33.5t20 -77.5q-15 -84 -103 -103
l94 -156h-21l-92 153q-8 -1 -27 -1h-84l-27 -152h-20l65 370h20h84zM567 426q7 39 -17 65t-77 26h-84l-32 -182h84q110 0 126 91z" />
    <glyph glyph-name="macron" unicode="&#xaf;" horiz-adv-x="280" 
d="M82 601l3 16h240l-3 -16h-240z" />
    <glyph glyph-name="degree" unicode="&#xb0;" horiz-adv-x="386" 
d="M242 530q-59 0 -93.5 42t-24.5 100q11 58 58.5 98t109.5 40q60 0 94.5 -42t23.5 -100q-10 -59 -56.5 -98.5t-111.5 -39.5zM246 548q53 0 94 35t50 87t-20 87t-81 35t-94 -35t-51 -87t20.5 -87t81.5 -35z" />
    <glyph glyph-name="plusminus" unicode="&#xb1;" horiz-adv-x="520" 
d="M300 419h180l-3 -18h-180l-32 -181h-20l32 181h-180l3 18h180l32 181h20zM44 100l3 18h380l-3 -18h-380z" />
    <glyph glyph-name="acute" unicode="&#xb4;" horiz-adv-x="140" 
d="M76 570h19l103 120h-22z" />
    <glyph glyph-name="uni00B5" unicode="&#xb5;" horiz-adv-x="570" 
d="M428 70q-9 -52 41 -52h20l-3 -18h-20q-31 0 -47 19t-11 51l8 44q-34 -62 -90.5 -93t-116.5 -31q-49 0 -83.5 23.5t-45.5 66.5l-49 -280h-20l123 700h20l-59 -337q-13 -72 19 -113.5t98 -41.5q75 0 138 53t82 145l52 294h20z" />
    <glyph glyph-name="paragraph" unicode="&#xb6;" horiz-adv-x="550" 
d="M579 700l-3 -18h-60l-155 -882h-20l155 882h-170l-155 -882h-20l95 540q-75 0 -118.5 54.5t-29.5 129.5q13 75 74 125.5t137 50.5h20h190h60z" />
    <glyph glyph-name="periodcentered" unicode="&#xb7;" horiz-adv-x="180" 
d="M92 320l11 60h20l-11 -60h-20z" />
    <glyph glyph-name="cedilla" unicode="&#xb8;" horiz-adv-x="215" 
d="M49 -79q34 2 58.5 -14.5t18.5 -48.5q-6 -38 -53.5 -54.5t-132.5 -5.5l3 16q154 -19 165 46q5 24 -15 36.5t-65 8.5l17 95h18z" />
    <glyph glyph-name="ordmasculine" unicode="&#xba;" horiz-adv-x="341" 
d="M206 450q-53 0 -85 38.5t-22 93.5t53.5 91.5t99.5 36.5q53 0 85 -38.5t22 -93.5t-54 -91.5t-99 -36.5zM209 466q47 0 85.5 33t46.5 81q9 48 -18 81t-74 33t-85 -33t-47 -81q-8 -48 18.5 -81t73.5 -33z" />
    <glyph glyph-name="guillemotright" unicode="&#xbb;" horiz-adv-x="427" 
d="M163 469l72 -160l-129 -160h-24l131 162l-71 158h21zM265 469l72 -160l-129 -160h-24l131 162l-71 158h21z" />
    <glyph glyph-name="onequarter" unicode="&#xbc;" horiz-adv-x="844" 
d="M164 300l66 378l-136 -67l4 22l136 67h20l-70 -400h-20zM641 700h23l-540 -700h-23zM789 108l-3 -18h-62l-16 -90h-20l16 90h-227l3 18l205 292h21l-204 -292h205l21 121h20l-21 -121h62z" />
    <glyph glyph-name="onehalf" unicode="&#xbd;" horiz-adv-x="832" 
d="M164 300l66 378l-136 -67l4 22l136 67h20l-70 -400h-20zM641 700h23l-540 -700h-23zM792 298q-11 -59 -77 -114l-199 -166h235l-3 -18h-266l2 15l217 181q62 52 72 103q6 37 -18 66t-68 29q-50 0 -84.5 -28t-42.5 -71h-20q9 52 49 84.5t99 32.5q53 0 82.5 -34.5
t21.5 -79.5z" />
    <glyph glyph-name="threequarters" unicode="&#xbe;" horiz-adv-x="942" 
d="M331 410q-10 -53 -49.5 -87.5t-103.5 -34.5q-63 0 -93 36t-21 88h20q-8 -45 16 -75.5t79 -30.5t90 30.5t43 75.5q7 45 -17 75.5t-79 30.5h-10l3 15l132 149h-215l3 18h238l-3 -18l-131 -147q54 -4 80 -40t18 -85zM739 700h23l-540 -700h-23zM887 108l-3 -18h-62l-16 -90
h-20l16 90h-227l3 18l205 292h21l-204 -292h205l21 121h20l-21 -121h62z" />
    <glyph glyph-name="questiondown" unicode="&#xbf;" horiz-adv-x="525" 
d="M340 500l-11 -60h-20l11 60h20zM312 340q-9 -49 -38 -93.5t-65 -78l-72 -65t-63.5 -68.5t-34.5 -75q-12 -69 25 -110.5t123 -41.5q81 0 143.5 46.5t74.5 110.5h20q-13 -75 -83.5 -125t-158.5 -50q-87 0 -132.5 46.5t-31.5 125.5q7 40 35 78t64 70l72 65t65 76t37 89h20z
" />
    <glyph glyph-name="Agrave" unicode="&#xc0;" horiz-adv-x="628" 
d="M431 770h-16l-64 120h20zM539 0l-42 191h-385l-109 -191h-22l400 700h25l153 -700h-20zM122 209h371l-102 470z" />
    <glyph glyph-name="Aacute" unicode="&#xc1;" horiz-adv-x="628" 
d="M503 890l-103 -120h-19l100 120h22zM539 0l-42 191h-385l-109 -191h-22l400 700h25l153 -700h-20zM122 209h371l-102 470z" />
    <glyph glyph-name="Acircumflex" unicode="&#xc2;" horiz-adv-x="628" 
d="M425 878l-120 -108h-24l133 120h22l91 -120h-20zM539 0l-42 191h-385l-109 -191h-22l400 700h25l153 -700h-20zM122 209h371l-102 470z" />
    <glyph glyph-name="Atilde" unicode="&#xc3;" horiz-adv-x="628" 
d="M411 826q-39 47 -71 34.5t-42 -70.5h-17q12 71 54.5 87t85.5 -39q38 -46 71 -33t43 69h17q-12 -69 -55 -85.5t-86 37.5zM539 0l-42 191h-385l-109 -191h-22l400 700h25l153 -700h-20zM122 209h371l-102 470z" />
    <glyph glyph-name="Adieresis" unicode="&#xc4;" horiz-adv-x="628" 
d="M338 840l-11 -60h-20l11 60h20zM518 840l-11 -60h-20l11 60h20zM539 0l-42 191h-385l-109 -191h-22l400 700h25l153 -700h-20zM122 209h371l-102 470z" />
    <glyph glyph-name="Aring" unicode="&#xc5;" horiz-adv-x="628" 
d="M404 760q-42 0 -64 25.5t-15 64.5t37.5 64.5t72.5 25.5q43 0 65 -25.5t15 -64.5t-37.5 -64.5t-73.5 -25.5zM343 850q-6 -33 11.5 -53.5t52.5 -20.5q34 0 59 20.5t31 53.5q5 33 -12.5 53.5t-51.5 20.5q-35 0 -60 -20.5t-30 -53.5zM539 0l-42 191h-385l-109 -191h-22
l400 700h25l153 -700h-20zM122 209h371l-102 470z" />
    <glyph glyph-name="AE" unicode="&#xc6;" horiz-adv-x="858" 
d="M879 682h-335l-56 -320h310l-3 -18h-311l-57 -326h340l-3 -18h-350h-10l36 204h-289l-160 -204h-25l551 700h20h10h335zM165 222h278l80 455z" />
    <glyph glyph-name="Ccedilla" unicode="&#xc7;" horiz-adv-x="778" 
d="M498 692q-147 0 -261 -99t-139 -243q-26 -143 53 -242.5t226 -99.5q101 0 191 53t139 139h22q-51 -91 -143.5 -148.5t-198.5 -61.5l-12 -69q34 2 58.5 -14.5t18.5 -48.5q-6 -38 -53.5 -54.5t-132.5 -5.5l3 16q154 -19 165 46q5 24 -15 36.5t-65 8.5l15 85
q-100 1 -173 50.5t-104 131.5t-14 180q27 152 146 255t277 103q106 0 184 -58.5t96 -151.5h-21q-19 86 -90.5 139t-171.5 53z" />
    <glyph glyph-name="Egrave" unicode="&#xc8;" horiz-adv-x="520" 
d="M394 770h-16l-64 120h20zM541 682h-345l-56 -320h320l-3 -18h-321l-57 -326h350l-3 -18h-360h-10l123 700h20h345z" />
    <glyph glyph-name="Eacute" unicode="&#xc9;" horiz-adv-x="520" 
d="M466 890l-103 -120h-19l100 120h22zM541 682h-345l-56 -320h320l-3 -18h-321l-57 -326h350l-3 -18h-360h-10l123 700h20h345z" />
    <glyph glyph-name="Ecircumflex" unicode="&#xca;" horiz-adv-x="520" 
d="M388 878l-120 -108h-24l133 120h22l91 -120h-20zM541 682h-345l-56 -320h320l-3 -18h-321l-57 -326h350l-3 -18h-360h-10l123 700h20h345z" />
    <glyph glyph-name="Edieresis" unicode="&#xcb;" horiz-adv-x="520" 
d="M301 840l-11 -60h-20l11 60h20zM481 840l-11 -60h-20l11 60h20zM541 682h-345l-56 -320h320l-3 -18h-321l-57 -326h350l-3 -18h-360h-10l123 700h20h345z" />
    <glyph glyph-name="Igrave" unicode="&#xcc;" horiz-adv-x="220" 
d="M227 770l-60 120h-20l64 -120h16zM179 700h20l-123 -700h-20z" />
    <glyph glyph-name="Iacute" unicode="&#xcd;" horiz-adv-x="220" 
d="M177 770h19l103 120h-22zM179 700h20l-123 -700h-20z" />
    <glyph glyph-name="Icircumflex" unicode="&#xce;" horiz-adv-x="220" 
d="M323 770h-20l-82 108l-120 -108h-24l133 120h22zM56 0l123 700h20l-123 -700h-20z" />
    <glyph glyph-name="Idieresis" unicode="&#xcf;" horiz-adv-x="220" 
d="M103 780l11 60h20l-11 -60h-20zM283 780l11 60h20l-11 -60h-20zM179 700h20l-123 -700h-20z" />
    <glyph glyph-name="Eth" unicode="&#xd0;" horiz-adv-x="780" 
d="M469 700q140 0 217 -104t51 -250q-26 -148 -135 -247t-256 -99h-260h-10l60 341h-60l3 18h60l60 341h20h250zM717 349q24 140 -46 236.5t-205 96.5h-250l-57 -323h280l-3 -18h-280l-57 -323h250q135 0 239 95.5t129 235.5z" />
    <glyph glyph-name="Ntilde" unicode="&#xd1;" horiz-adv-x="630" 
d="M282 790q12 71 54.5 87t85.5 -39q38 -46 71 -33t43 69h17q-12 -69 -55 -85.5t-86 37.5q-39 47 -71 34.5t-42 -70.5h-17zM589 700h20l-123 -700h-20l-273 664l-117 -664h-20l123 700h20l273 -664z" />
    <glyph glyph-name="Ograve" unicode="&#xd2;" horiz-adv-x="840" 
d="M537 770l-60 120h-20l64 -120h16zM375 -10q-149 0 -236 107t-61 256t149.5 253t272.5 104q148 0 235.5 -107t61.5 -256t-149.5 -253t-272.5 -104zM377 8q141 0 257.5 100t142.5 242q25 142 -56.5 242t-222.5 100t-258 -100t-142 -242t56.5 -242t222.5 -100z" />
    <glyph glyph-name="Oacute" unicode="&#xd3;" horiz-adv-x="840" 
d="M487 770h19l103 120h-22zM375 -10q-149 0 -236 107t-61 256t149.5 253t272.5 104q148 0 235.5 -107t61.5 -256t-149.5 -253t-272.5 -104zM377 8q141 0 257.5 100t142.5 242q25 142 -56.5 242t-222.5 100t-258 -100t-142 -242t56.5 -242t222.5 -100z" />
    <glyph glyph-name="Ocircumflex" unicode="&#xd4;" horiz-adv-x="840" 
d="M531 878l-120 -108h-24l133 120h22l91 -120h-20zM500 710q148 0 235.5 -107t61.5 -256t-149.5 -253t-272.5 -104t-236 107t-61 256t149.5 253t272.5 104zM777 350q25 142 -56.5 242t-222.5 100t-258 -100t-142 -242t56.5 -242t222.5 -100t257.5 100t142.5 242z" />
    <glyph glyph-name="Otilde" unicode="&#xd5;" horiz-adv-x="840" 
d="M387 790q12 71 54.5 87t85.5 -39q38 -46 71 -33t43 69h17q-12 -69 -55 -85.5t-86 37.5q-39 47 -71 34.5t-42 -70.5h-17zM375 -10q-149 0 -236 107t-61 256t149.5 253t272.5 104q148 0 235.5 -107t61.5 -256t-149.5 -253t-272.5 -104zM377 8q141 0 257.5 100t142.5 242
q25 142 -56.5 242t-222.5 100t-258 -100t-142 -242t56.5 -242t222.5 -100z" />
    <glyph glyph-name="Odieresis" unicode="&#xd6;" horiz-adv-x="840" 
d="M413 780l11 60h20l-11 -60h-20zM593 780l11 60h20l-11 -60h-20zM375 -10q-149 0 -236 107t-61 256t149.5 253t272.5 104q148 0 235.5 -107t61.5 -256t-149.5 -253t-272.5 -104zM377 8q141 0 257.5 100t142.5 242q25 142 -56.5 242t-222.5 100t-258 -100t-142 -242
t56.5 -242t222.5 -100z" />
    <glyph glyph-name="multiply" unicode="&#xd7;" horiz-adv-x="464" 
d="M438 499l-176 -150l123 -148l-14 -12l-123 148l-173 -148l-14 12l176 150l-123 148l14 12l123 -148l173 148z" />
    <glyph glyph-name="Oslash" unicode="&#xd8;" horiz-adv-x="850" 
d="M821 700l-87 -84q48 -51 67.5 -121t5.5 -148q-26 -149 -149.5 -253t-272.5 -104q-128 0 -212 81l-73 -71h-26l86 84q-47 51 -66.5 121t-5.5 148q26 149 149.5 253t272.5 104q125 0 212 -81l73 71h26zM108 350q-27 -150 66 -253l534 519q-81 76 -200 76q-141 0 -258 -100
t-142 -242zM787 350q26 152 -66 253l-534 -519q79 -76 200 -76q141 0 257.5 100t142.5 242z" />
    <glyph glyph-name="Ugrave" unicode="&#xd9;" horiz-adv-x="630" 
d="M427 770l-60 120h-20l64 -120h16zM271 -10q-100 0 -153.5 54t-37.5 146l89 510h20l-89 -510q-14 -84 31.5 -133t140.5 -49q96 0 159.5 50t77.5 132l89 510h20l-89 -510q-16 -94 -87 -147t-171 -53z" />
    <glyph glyph-name="Uacute" unicode="&#xda;" horiz-adv-x="630" 
d="M377 770h19l103 120h-22zM271 -10q-100 0 -153.5 54t-37.5 146l89 510h20l-89 -510q-14 -84 31.5 -133t140.5 -49q96 0 159.5 50t77.5 132l89 510h20l-89 -510q-16 -94 -87 -147t-171 -53z" />
    <glyph glyph-name="Ucircumflex" unicode="&#xdb;" horiz-adv-x="630" 
d="M421 878l-120 -108h-24l133 120h22l91 -120h-20zM598 700h20l-89 -510q-16 -94 -87 -147t-171 -53t-153.5 54t-37.5 146l89 510h20l-89 -510q-14 -84 31.5 -133t140.5 -49q96 0 159.5 50t77.5 132z" />
    <glyph glyph-name="Udieresis" unicode="&#xdc;" horiz-adv-x="630" 
d="M303 780l11 60h20l-11 -60h-20zM483 780l11 60h20l-11 -60h-20zM271 -10q-100 0 -153.5 54t-37.5 146l89 510h20l-89 -510q-14 -84 31.5 -133t140.5 -49q96 0 159.5 50t77.5 132l89 510h20l-89 -510q-16 -94 -87 -147t-171 -53z" />
    <glyph glyph-name="Yacute" unicode="&#xdd;" horiz-adv-x="560" 
d="M469 890l-103 -120h-19l100 120h22zM619 700l-315 -371l-58 -329h-20l58 330l-185 370h21l176 -354l300 354h23z" />
    <glyph glyph-name="Thorn" unicode="&#xde;" horiz-adv-x="570" 
d="M373 550q80 0 129 -60.5t35 -142.5q-15 -83 -82.5 -140t-152.5 -57h-200l-26 -150h-20l123 700h20l-26 -150h200zM517 350q13 75 -30 128.5t-117 53.5h-201l-63 -364h200q74 0 135.5 53.5t75.5 128.5z" />
    <glyph glyph-name="germandbls" unicode="&#xdf;" horiz-adv-x="496" 
d="M236 -5l4 20q73 -6 124 29.5t62 96.5q6 36 -11 72.5t-40.5 62t-42 56.5t-13.5 57q4 21 23 44.5t40 42t40.5 45.5t24.5 54q10 52 -19.5 84.5t-86.5 32.5q-72 0 -120 -44.5t-62 -122.5l-93 -525h-20l93 525q15 89 70.5 137t134.5 48q65 0 99.5 -40.5t23.5 -98.5
q-6 -35 -37 -70.5t-59.5 -65t-31.5 -48.5t9 -41.5t30 -44t36 -45.5t28 -55.5t4 -63.5q-12 -70 -69.5 -109.5t-140.5 -32.5z" />
    <glyph glyph-name="agrave" unicode="&#xe0;" 
d="M332 570h-16l-64 120h20zM296 510q73 0 116 -46t28 -129l-59 -335h-20l12 67q-51 -77 -185 -77q-75 0 -119.5 41t-32.5 112q12 70 70.5 109.5t134.5 39.5q59 0 100.5 -21.5t56.5 -61.5l22 126q13 74 -22 115.5t-105 41.5q-69 0 -118.5 -37t-60.5 -100h-20q12 69 67 112
t135 43zM191 8q73 0 126 30t68 96l2 14q8 65 -35.5 95.5t-113.5 30.5q-72 0 -121.5 -36.5t-60.5 -96.5t26 -96.5t109 -36.5z" />
    <glyph glyph-name="aacute" unicode="&#xe1;" 
d="M404 690l-103 -120h-19l100 120h22zM296 510q73 0 116 -46t28 -129l-59 -335h-20l12 67q-51 -77 -185 -77q-75 0 -119.5 41t-32.5 112q12 70 70.5 109.5t134.5 39.5q59 0 100.5 -21.5t56.5 -61.5l22 126q13 74 -22 115.5t-105 41.5q-69 0 -118.5 -37t-60.5 -100h-20
q12 69 67 112t135 43zM191 8q73 0 126 30t68 96l2 14q8 65 -35.5 95.5t-113.5 30.5q-72 0 -121.5 -36.5t-60.5 -96.5t26 -96.5t109 -36.5z" />
    <glyph glyph-name="acircumflex" unicode="&#xe2;" 
d="M326 678l-120 -108h-24l133 120h22l91 -120h-20zM296 510q73 0 116 -46t28 -129l-59 -335h-20l12 67q-51 -77 -185 -77q-75 0 -119.5 41t-32.5 112q12 70 70.5 109.5t134.5 39.5q59 0 100.5 -21.5t56.5 -61.5l22 126q13 74 -22 115.5t-105 41.5q-69 0 -118.5 -37
t-60.5 -100h-20q12 69 67 112t135 43zM191 8q73 0 126 30t68 96l2 14q8 65 -35.5 95.5t-113.5 30.5q-72 0 -121.5 -36.5t-60.5 -96.5t26 -96.5t109 -36.5z" />
    <glyph glyph-name="atilde" unicode="&#xe3;" 
d="M312 626q-39 47 -71 34.5t-42 -70.5h-17q12 71 54.5 87t85.5 -39q38 -46 71 -33t43 69h17q-12 -69 -55 -85.5t-86 37.5zM296 510q73 0 116 -46t28 -129l-59 -335h-20l12 67q-51 -77 -185 -77q-75 0 -119.5 41t-32.5 112q12 70 70.5 109.5t134.5 39.5q59 0 100.5 -21.5
t56.5 -61.5l22 126q13 74 -22 115.5t-105 41.5q-69 0 -118.5 -37t-60.5 -100h-20q12 69 67 112t135 43zM191 8q73 0 126 30t68 96l2 14q8 65 -35.5 95.5t-113.5 30.5q-72 0 -121.5 -36.5t-60.5 -96.5t26 -96.5t109 -36.5z" />
    <glyph glyph-name="adieresis" unicode="&#xe4;" 
d="M239 640l-11 -60h-20l11 60h20zM419 640l-11 -60h-20l11 60h20zM296 510q73 0 116 -46t28 -129l-59 -335h-20l12 67q-51 -77 -185 -77q-75 0 -119.5 41t-32.5 112q12 70 70.5 109.5t134.5 39.5q59 0 100.5 -21.5t56.5 -61.5l22 126q13 74 -22 115.5t-105 41.5
q-69 0 -118.5 -37t-60.5 -100h-20q12 69 67 112t135 43zM191 8q73 0 126 30t68 96l2 14q8 65 -35.5 95.5t-113.5 30.5q-72 0 -121.5 -36.5t-60.5 -96.5t26 -96.5t109 -36.5z" />
    <glyph glyph-name="aring" unicode="&#xe5;" 
d="M305 560q-42 0 -64 25.5t-15 64.5t37.5 64.5t72.5 25.5q43 0 65 -25.5t15 -64.5t-37.5 -64.5t-73.5 -25.5zM244 650q-6 -33 11.5 -53.5t52.5 -20.5q34 0 59 20.5t31 53.5q5 33 -12.5 53.5t-51.5 20.5q-35 0 -60 -20.5t-30 -53.5zM296 510q73 0 116 -46t28 -129l-59 -335
h-20l12 67q-51 -77 -185 -77q-75 0 -119.5 41t-32.5 112q12 70 70.5 109.5t134.5 39.5q59 0 100.5 -21.5t56.5 -61.5l22 126q13 74 -22 115.5t-105 41.5q-69 0 -118.5 -37t-60.5 -100h-20q12 69 67 112t135 43zM191 8q73 0 126 30t68 96l2 14q8 65 -35.5 95.5t-113.5 30.5
q-72 0 -121.5 -36.5t-60.5 -96.5t26 -96.5t109 -36.5z" />
    <glyph glyph-name="ae" unicode="&#xe6;" horiz-adv-x="854" 
d="M657 510q93 0 134.5 -76.5t22.5 -185.5q-2 -6 -2 -10h-17h-374v-2q-15 -103 24.5 -165.5t126.5 -62.5q59 0 109 32t77 89h20q-30 -65 -86 -102t-123 -37q-70 0 -112 38.5t-53 106.5q-17 -68 -76 -106.5t-134 -38.5q-80 0 -125 42t-33 113q12 70 70.5 108.5t134.5 38.5
q58 0 100.5 -21.5t56.5 -60.5l22 125q13 73 -22.5 115t-104.5 42t-118.5 -37t-60.5 -100h-20q12 69 67 112t135 43q67 0 108.5 -40t35.5 -112q33 71 88 111.5t129 40.5zM424 256h374q14 106 -24.5 171t-117.5 65q-87 0 -148.5 -62.5t-82.5 -166.5zM197 8q72 0 125.5 37
t63.5 96q12 69 -32 101t-116 32t-121.5 -36.5t-60.5 -96.5q-11 -61 26.5 -97t114.5 -36z" />
    <glyph glyph-name="ccedilla" unicode="&#xe7;" horiz-adv-x="581" 
d="M354 492q-104 0 -184.5 -69.5t-98.5 -172.5t37.5 -172.5t159.5 -69.5q74 0 137.5 36t96.5 96h20q-33 -66 -97 -105.5t-144 -44.5l-12 -69q34 2 58.5 -14.5t18.5 -48.5q-6 -38 -53.5 -54.5t-132.5 -5.5l3 16q154 -19 165 46q5 24 -15 36.5t-65 8.5l15 85q-110 1 -171 77
t-41 186t107 183.5t199 73.5q80 0 136 -42t67 -108h-20q-11 60 -60.5 96t-125.5 36z" />
    <glyph glyph-name="egrave" unicode="&#xe8;" horiz-adv-x="579" 
d="M379 570h-16l-64 120h20zM343 510q108 0 161.5 -77.5t34.5 -184.5q-2 -6 -2 -10h-18h-451q-13 -102 40 -166t151 -64q72 0 131.5 33t89.5 88h21q-33 -65 -98.5 -102t-146.5 -37q-109 0 -167.5 74.5t-38.5 187.5q20 112 101 185t192 73zM71 256h451q13 106 -37 171
t-144 65q-98 0 -174 -66t-96 -170z" />
    <glyph glyph-name="eacute" unicode="&#xe9;" horiz-adv-x="579" 
d="M451 690l-103 -120h-19l100 120h22zM343 510q108 0 161.5 -77.5t34.5 -184.5q-2 -6 -2 -10h-18h-451q-13 -102 40 -166t151 -64q72 0 131.5 33t89.5 88h21q-33 -65 -98.5 -102t-146.5 -37q-109 0 -167.5 74.5t-38.5 187.5q20 112 101 185t192 73zM71 256h451
q13 106 -37 171t-144 65q-98 0 -174 -66t-96 -170z" />
    <glyph glyph-name="ecircumflex" unicode="&#xea;" horiz-adv-x="579" 
d="M373 678l-120 -108h-24l133 120h22l91 -120h-20zM343 510q108 0 161.5 -77.5t34.5 -184.5q-2 -6 -2 -10h-18h-451q-13 -102 40 -166t151 -64q72 0 131.5 33t89.5 88h21q-33 -65 -98.5 -102t-146.5 -37q-109 0 -167.5 74.5t-38.5 187.5q20 112 101 185t192 73zM71 256h451
q13 106 -37 171t-144 65q-98 0 -174 -66t-96 -170z" />
    <glyph glyph-name="edieresis" unicode="&#xeb;" horiz-adv-x="579" 
d="M286 640l-11 -60h-20l11 60h20zM466 640l-11 -60h-20l11 60h20zM343 510q108 0 161.5 -77.5t34.5 -184.5q-2 -6 -2 -10h-18h-451q-13 -102 40 -166t151 -64q72 0 131.5 33t89.5 88h21q-33 -65 -98.5 -102t-146.5 -37q-109 0 -167.5 74.5t-38.5 187.5q20 112 101 185
t192 73zM71 256h451q13 106 -37 171t-144 65q-98 0 -174 -66t-96 -170z" />
    <glyph glyph-name="igrave" unicode="&#xec;" horiz-adv-x="200" 
d="M173 570l-44 120h-21l47 -120h18zM66 0h-20l88 500h20z" />
    <glyph glyph-name="iacute" unicode="&#xed;" horiz-adv-x="200" 
d="M137 570h18l89 120h-21zM46 0l88 500h20l-88 -500h-20z" />
    <glyph glyph-name="icircumflex" unicode="&#xee;" horiz-adv-x="200" 
d="M250 570h-22l-53 104l-89 -104h-22l103 120h22zM46 0l88 500h20l-88 -500h-20z" />
    <glyph glyph-name="idieresis" unicode="&#xef;" horiz-adv-x="200" 
d="M88 580l11 60h20l-11 -60h-20zM208 580l11 60h20l-11 -60h-20zM46 0l88 500h20l-88 -500h-20z" />
    <glyph glyph-name="eth" unicode="&#xf0;" horiz-adv-x="590" 
d="M515 363q33 -58 19 -146q-20 -107 -96 -167t-177 -60q-105 0 -168.5 72t-43.5 180q17 101 94.5 160.5t174.5 59.5q88 0 147 -45l-103 183l-148 -82l3 22l136 76l-47 84h19l43 -76l123 68l-4 -22l-110 -61zM514 220q14 85 -14 134q-53 90 -185 90q-93 0 -161.5 -57
t-84.5 -147q-18 -97 37 -164.5t158 -67.5q95 0 164 58.5t86 153.5z" />
    <glyph glyph-name="ntilde" unicode="&#xf1;" horiz-adv-x="535" 
d="M337 626q-39 47 -71 34.5t-42 -70.5h-17q12 71 54.5 87t85.5 -39q38 -46 71 -33t43 69h17q-12 -69 -55 -85.5t-86 37.5zM341 510q69 0 109 -45.5t25 -127.5l-59 -337h-20l59 337q13 72 -19 113.5t-98 41.5q-75 0 -138 -53.5t-82 -144.5l-52 -294h-20l88 500h20l-21 -121
q33 65 90.5 98t117.5 33z" />
    <glyph glyph-name="ograve" unicode="&#xf2;" horiz-adv-x="622" 
d="M385 570l-60 120h-20l64 -120h16zM266 -10q-108 0 -171 77t-44 187t107 183t198 73q108 0 171 -77t44 -187t-107 -183t-198 -73zM268 8q101 0 183 70t100 172t-39.5 172t-157.5 70q-101 0 -183 -70t-100 -172t39.5 -172t157.5 -70z" />
    <glyph glyph-name="oacute" unicode="&#xf3;" horiz-adv-x="622" 
d="M335 570h19l103 120h-22zM266 -10q-108 0 -171 77t-44 187t107 183t198 73q108 0 171 -77t44 -187t-107 -183t-198 -73zM268 8q101 0 183 70t100 172t-39.5 172t-157.5 70q-101 0 -183 -70t-100 -172t39.5 -172t157.5 -70z" />
    <glyph glyph-name="ocircumflex" unicode="&#xf4;" horiz-adv-x="622" 
d="M379 678l-120 -108h-24l133 120h22l91 -120h-20zM356 510q108 0 171 -77t44 -187t-107 -183t-198 -73q-108 0 -171 77t-44 187t107 183t198 73zM551 250q18 102 -39.5 172t-157.5 70q-101 0 -183 -70t-100 -172t39.5 -172t157.5 -70q101 0 183 70t100 172z" />
    <glyph glyph-name="otilde" unicode="&#xf5;" horiz-adv-x="622" 
d="M235 590q12 71 54.5 87t85.5 -39q38 -46 71 -33t43 69h17q-12 -69 -55 -85.5t-86 37.5q-39 47 -71 34.5t-42 -70.5h-17zM266 -10q-108 0 -171 77t-44 187t107 183t198 73q108 0 171 -77t44 -187t-107 -183t-198 -73zM268 8q101 0 183 70t100 172t-39.5 172t-157.5 70
q-101 0 -183 -70t-100 -172t39.5 -172t157.5 -70z" />
    <glyph glyph-name="odieresis" unicode="&#xf6;" horiz-adv-x="622" 
d="M261 580l11 60h20l-11 -60h-20zM441 580l11 60h20l-11 -60h-20zM266 -10q-108 0 -171 77t-44 187t107 183t198 73q108 0 171 -77t44 -187t-107 -183t-198 -73zM268 8q101 0 183 70t100 172t-39.5 172t-157.5 70q-101 0 -183 -70t-100 -172t39.5 -172t157.5 -70z" />
    <glyph glyph-name="divide" unicode="&#xf7;" horiz-adv-x="580" 
d="M336 512q-10 0 -16 7.5t-4 18.5q1 10 9.5 17t19.5 7q10 0 16.5 -7.5t4.5 -18.5q-2 -10 -10.5 -17t-19.5 -7zM86 341l3 18h440l-3 -18h-440zM270 138q-10 0 -16 7.5t-4 18.5q1 10 9.5 17t19.5 7q10 0 16.5 -7.5t4.5 -18.5q-2 -10 -10.5 -17t-19.5 -7z" />
    <glyph glyph-name="oslash" unicode="&#xf8;" horiz-adv-x="622" 
d="M597 500l-71 -65q65 -78 45 -189q-19 -110 -107 -183t-198 -73q-96 0 -158 62l-57 -52h-26l71 65q-65 78 -45 189q19 110 107 183t198 73q96 0 158 -62l57 52h26zM71 250q-18 -101 39 -172l390 357q-57 57 -146 57q-101 0 -183 -70t-100 -172zM551 250q18 101 -39 172
l-390 -357q57 -57 146 -57q101 0 183 70t100 172z" />
    <glyph glyph-name="ugrave" unicode="&#xf9;" horiz-adv-x="535" 
d="M344 570h-16l-64 120h20zM469 500h20l-88 -500h-20l20 115q-33 -62 -90 -93.5t-117 -31.5q-71 0 -110 46t-24 127l59 337h20l-59 -337q-13 -72 19 -113.5t98 -41.5q77 0 141 56t81 152z" />
    <glyph glyph-name="uacute" unicode="&#xfa;" horiz-adv-x="535" 
d="M416 690l-103 -120h-19l100 120h22zM469 500h20l-88 -500h-20l20 115q-33 -62 -90 -93.5t-117 -31.5q-71 0 -110 46t-24 127l59 337h20l-59 -337q-13 -72 19 -113.5t98 -41.5q77 0 141 56t81 152z" />
    <glyph glyph-name="ucircumflex" unicode="&#xfb;" horiz-adv-x="535" 
d="M338 678l-120 -108h-24l133 120h22l91 -120h-20zM469 500h20l-88 -500h-20l20 115q-33 -62 -90 -93.5t-117 -31.5q-71 0 -110 46t-24 127l59 337h20l-59 -337q-13 -72 19 -113.5t98 -41.5q77 0 141 56t81 152z" />
    <glyph glyph-name="udieresis" unicode="&#xfc;" horiz-adv-x="535" 
d="M251 640l-11 -60h-20l11 60h20zM431 640l-11 -60h-20l11 60h20zM469 500h20l-88 -500h-20l20 115q-33 -62 -90 -93.5t-117 -31.5q-71 0 -110 46t-24 127l59 337h20l-59 -337q-13 -72 19 -113.5t98 -41.5q77 0 141 56t81 152z" />
    <glyph glyph-name="yacute" unicode="&#xfd;" horiz-adv-x="470" 
d="M267 570h19l103 120h-22zM472 500h22l-395 -700h-22l114 200l-127 500h19l121 -477z" />
    <glyph glyph-name="thorn" unicode="&#xfe;" horiz-adv-x="662" 
d="M387 510q107 0 174.5 -81.5t48.5 -191.5t-101.5 -178.5t-193.5 -68.5q-83 0 -143.5 51t-75.5 130l-65 -371h-20l158 900h20l-60 -341q39 70 107 110.5t151 40.5zM590 240q18 102 -43.5 177t-162.5 75t-177.5 -65t-94.5 -167t43.5 -177t162.5 -75t177.5 65t94.5 167z" />
    <glyph glyph-name="ydieresis" unicode="&#xff;" horiz-adv-x="470" 
d="M193 580l11 60h20l-11 -60h-20zM373 580l11 60h20l-11 -60h-20zM472 500h22l-395 -700h-22l114 200l-127 500h19l121 -477z" />
    <glyph glyph-name="Amacron" unicode="&#x100;" horiz-adv-x="628" 
d="M534 817l-3 -16h-240l3 16h240zM539 0l-42 191h-385l-109 -191h-22l400 700h25l153 -700h-20zM122 209h371l-102 470z" />
    <glyph glyph-name="amacron" unicode="&#x101;" 
d="M435 617l-3 -16h-240l3 16h240zM296 510q73 0 116 -46t28 -129l-59 -335h-20l12 67q-51 -77 -185 -77q-75 0 -119.5 41t-32.5 112q12 70 70.5 109.5t134.5 39.5q59 0 100.5 -21.5t56.5 -61.5l22 126q13 74 -22 115.5t-105 41.5q-69 0 -118.5 -37t-60.5 -100h-20
q12 69 67 112t135 43zM191 8q73 0 126 30t68 96l2 14q8 65 -35.5 95.5t-113.5 30.5q-72 0 -121.5 -36.5t-60.5 -96.5t26 -96.5t109 -36.5z" />
    <glyph glyph-name="Abreve" unicode="&#x102;" horiz-adv-x="628" 
d="M409 772q-54 0 -83.5 29t-21.5 76h18q-7 -40 17 -64.5t70 -24.5t78 24.5t39 64.5h18q-8 -48 -44.5 -76.5t-90.5 -28.5zM539 0l-42 191h-385l-109 -191h-22l400 700h25l153 -700h-20zM122 209h371l-102 470z" />
    <glyph glyph-name="abreve" unicode="&#x103;" 
d="M310 572q-54 0 -83.5 29t-21.5 76h18q-7 -40 17 -64.5t70 -24.5t78 24.5t39 64.5h18q-8 -48 -44.5 -76.5t-90.5 -28.5zM296 510q73 0 116 -46t28 -129l-59 -335h-20l12 67q-51 -77 -185 -77q-75 0 -119.5 41t-32.5 112q12 70 70.5 109.5t134.5 39.5q59 0 100.5 -21.5
t56.5 -61.5l22 126q13 74 -22 115.5t-105 41.5q-69 0 -118.5 -37t-60.5 -100h-20q12 69 67 112t135 43zM191 8q73 0 126 30t68 96l2 14q8 65 -35.5 95.5t-113.5 30.5q-72 0 -121.5 -36.5t-60.5 -96.5t26 -96.5t109 -36.5z" />
    <glyph glyph-name="Aogonek" unicode="&#x104;" horiz-adv-x="628" 
d="M437 -143q-4 -23 8 -37t35 -14q27 0 46 10l-3 -18q-16 -8 -46 -8q-32 0 -48 18.5t-10 49.5q11 65 118 146l-41 187h-385l-109 -191h-21l400 700h24l154 -700q-57 -42 -86.5 -75.5t-35.5 -67.5zM121 209h371l-102 470z" />
    <glyph glyph-name="aogonek" unicode="&#x105;" 
d="M296 510q73 0 116 -46t28 -129l-59 -335q-112 -83 -122 -144q-4 -23 8 -36.5t35 -13.5q27 0 46 9l-3 -17q-19 -8 -46 -8q-32 0 -48 19t-10 50q11 66 121 149l11 59q-51 -77 -185 -77q-75 0 -119.5 41t-32.5 112q12 70 70.5 109.5t134.5 39.5q59 0 100.5 -21.5t56.5 -61.5
l22 126q13 74 -22 115.5t-105 41.5q-69 0 -118.5 -37t-60.5 -100h-20q12 69 67 112t135 43zM191 8q73 0 126 30t68 96l2 14q8 65 -35.5 95.5t-113.5 30.5q-72 0 -121.5 -36.5t-60.5 -96.5t26 -96.5t109 -36.5z" />
    <glyph glyph-name="Cacute" unicode="&#x106;" horiz-adv-x="778" 
d="M487 770h19l103 120h-22zM374 -10q-154 0 -238.5 105.5t-57.5 256.5q27 152 146 255t277 103q106 0 184 -58.5t96 -151.5h-21q-19 86 -90.5 139t-171.5 53q-147 0 -261 -99t-139 -243q-26 -143 53 -242.5t226 -99.5q101 0 191 53t139 139h22q-52 -94 -148.5 -152
t-206.5 -58z" />
    <glyph glyph-name="cacute" unicode="&#x107;" horiz-adv-x="581" 
d="M344 570h19l103 120h-22zM522 140q-35 -69 -103.5 -109.5t-153.5 -40.5q-111 0 -172.5 76t-41.5 187q20 110 107 183.5t199 73.5q80 0 136 -42t67 -108h-20q-11 60 -60.5 96t-125.5 36q-104 0 -184.5 -69.5t-98.5 -172.5t37.5 -172.5t159.5 -69.5q74 0 137.5 36t96.5 96
h20z" />
    <glyph glyph-name="Cdotaccent" unicode="&#x10a;" horiz-adv-x="778" 
d="M503 780l13 70h20l-13 -70h-20zM374 -10q-154 0 -238.5 105.5t-57.5 256.5q27 152 146 255t277 103q106 0 184 -58.5t96 -151.5h-21q-19 86 -90.5 139t-171.5 53q-147 0 -261 -99t-139 -243q-26 -143 53 -242.5t226 -99.5q101 0 191 53t139 139h22q-52 -94 -148.5 -152
t-206.5 -58z" />
    <glyph glyph-name="cdotaccent" unicode="&#x10b;" horiz-adv-x="581" 
d="M360 580l13 70h20l-13 -70h-20zM522 140q-35 -69 -103.5 -109.5t-153.5 -40.5q-111 0 -172.5 76t-41.5 187q20 110 107 183.5t199 73.5q80 0 136 -42t67 -108h-20q-11 60 -60.5 96t-125.5 36q-104 0 -184.5 -69.5t-98.5 -172.5t37.5 -172.5t159.5 -69.5q74 0 137.5 36
t96.5 96h20z" />
    <glyph glyph-name="Ccaron" unicode="&#x10c;" horiz-adv-x="778" 
d="M499 770l-91 120h21l82 -108l119 108h24l-133 -120h-22zM498 692q-147 0 -261 -99t-139 -243q-26 -143 53 -242.5t226 -99.5q101 0 191 53t139 139h22q-52 -94 -148.5 -152t-206.5 -58q-154 0 -238.5 105.5t-57.5 256.5q27 152 146 255t277 103q106 0 184 -58.5
t96 -151.5h-21q-19 86 -90.5 139t-171.5 53z" />
    <glyph glyph-name="ccaron" unicode="&#x10d;" horiz-adv-x="581" 
d="M356 570l-91 120h21l82 -108l119 108h24l-133 -120h-22zM354 492q-104 0 -184.5 -69.5t-98.5 -172.5t37.5 -172.5t159.5 -69.5q74 0 137.5 36t96.5 96h20q-35 -69 -103.5 -109.5t-153.5 -40.5q-111 0 -172.5 76t-41.5 187q20 110 107 183.5t199 73.5q80 0 136 -42
t67 -108h-20q-11 60 -60.5 96t-125.5 36z" />
    <glyph glyph-name="Dcaron" unicode="&#x10e;" horiz-adv-x="760" 
d="M429 770l-91 120h21l82 -108l119 108h24l-133 -120h-22zM449 700q140 0 217 -104t51 -250q-26 -148 -135 -247t-256 -99h-260h-10l123 700h20h250zM697 349q24 140 -46 236.5t-205 96.5h-250l-117 -664h250q135 0 239 95.5t129 235.5z" />
    <glyph glyph-name="dcaron" unicode="&#x10f;" horiz-adv-x="686" 
d="M566 329l65 371h20l-123 -700h-20l25 141q-39 -70 -107 -110.5t-151 -40.5q-108 0 -175 81.5t-48 191.5t101.5 178.5t193.5 68.5q83 0 143.5 -51t75.5 -130zM745 700h20l-44 -170h-16zM278 8q101 0 177.5 65t94.5 167t-43.5 177t-162.5 75t-177.5 -65t-94.5 -167
t43.5 -177t162.5 -75z" />
    <glyph glyph-name="Dcroat" unicode="&#x110;" horiz-adv-x="780" 
d="M469 700q140 0 217 -104t51 -250q-26 -148 -135 -247t-256 -99h-260h-10l60 341h-60l3 18h60l60 341h20h250zM717 349q24 140 -46 236.5t-205 96.5h-250l-57 -323h280l-3 -18h-280l-57 -323h250q135 0 239 95.5t129 235.5z" />
    <glyph glyph-name="dcroat" unicode="&#x111;" horiz-adv-x="666" 
d="M700 612l-3 -17h-64l-105 -595h-20l25 141q-39 -70 -107 -110.5t-151 -40.5q-108 0 -175 81.5t-48 191.5t101.5 178.5t193.5 68.5q83 0 143.5 -51t75.5 -130l47 266h-236l3 17h236l15 88h20l-15 -88h64zM278 8q101 0 177.5 65t94.5 167t-43.5 177t-162.5 75t-177.5 -65
t-94.5 -167t43.5 -177t162.5 -75z" />
    <glyph glyph-name="Emacron" unicode="&#x112;" horiz-adv-x="520" 
d="M497 817l-3 -16h-240l3 16h240zM541 682h-345l-56 -320h320l-3 -18h-321l-57 -326h350l-3 -18h-360h-10l123 700h20h345z" />
    <glyph glyph-name="emacron" unicode="&#x113;" horiz-adv-x="579" 
d="M482 617l-3 -16h-240l3 16h240zM343 510q108 0 161.5 -77.5t34.5 -184.5q-2 -6 -2 -10h-18h-451q-13 -102 40 -166t151 -64q72 0 131.5 33t89.5 88h21q-33 -65 -98.5 -102t-146.5 -37q-109 0 -167.5 74.5t-38.5 187.5q20 112 101 185t192 73zM71 256h451q13 106 -37 171
t-144 65q-98 0 -174 -66t-96 -170z" />
    <glyph glyph-name="Edotaccent" unicode="&#x116;" horiz-adv-x="520" 
d="M393 850l-13 -70h-20l13 70h20zM541 682h-345l-56 -320h320l-3 -18h-321l-57 -326h350l-3 -18h-360h-10l123 700h20h345z" />
    <glyph glyph-name="edotaccent" unicode="&#x117;" horiz-adv-x="579" 
d="M378 650l-13 -70h-20l13 70h20zM343 510q108 0 161.5 -77.5t34.5 -184.5q-2 -6 -2 -10h-18h-451q-13 -102 40 -166t151 -64q72 0 131.5 33t89.5 88h21q-33 -65 -98.5 -102t-146.5 -37q-109 0 -167.5 74.5t-38.5 187.5q20 112 101 185t192 73zM71 256h451q13 106 -37 171
t-144 65q-98 0 -174 -66t-96 -170z" />
    <glyph glyph-name="Eogonek" unicode="&#x118;" horiz-adv-x="522" 
d="M541 682h-345l-56 -320h320l-3 -18h-321l-57 -326h350l-3 -18q-111 -78 -122 -142q-4 -23 8.5 -37.5t36.5 -14.5q23 0 46 9l-3 -17q-19 -8 -46 -8q-33 0 -49.5 19.5t-10.5 50.5q11 68 115 140h-335h-10l123 700h20h345z" />
    <glyph glyph-name="eogonek" unicode="&#x119;" horiz-adv-x="579" 
d="M343 510q108 0 161.5 -77.5t34.5 -184.5q-2 -6 -2 -10h-18h-451q-13 -102 40 -166t151 -64q72 0 131.5 33t89.5 88h21q-22 -42 -55 -71q-101 -93 -136 -131t-41 -71q-4 -23 8.5 -36.5t36.5 -13.5q26 0 46 8l-3 -16q-19 -8 -46 -8q-33 0 -49.5 18.5t-10.5 49.5
q9 56 124 155q-55 -23 -119 -23q-109 0 -167.5 74.5t-38.5 187.5q20 112 101 185t192 73zM71 256h451q13 106 -37 171t-144 65q-98 0 -174 -66t-96 -170z" />
    <glyph glyph-name="Ecaron" unicode="&#x11a;" horiz-adv-x="520" 
d="M356 770l-91 120h21l82 -108l119 108h24l-133 -120h-22zM541 682h-345l-56 -320h320l-3 -18h-321l-57 -326h350l-3 -18h-360h-10l123 700h20h345z" />
    <glyph glyph-name="ecaron" unicode="&#x11b;" horiz-adv-x="579" 
d="M341 570l-91 120h21l82 -108l119 108h24l-133 -120h-22zM343 510q108 0 161.5 -77.5t34.5 -184.5q-2 -6 -2 -10h-18h-451q-13 -102 40 -166t151 -64q72 0 131.5 33t89.5 88h21q-33 -65 -98.5 -102t-146.5 -37q-109 0 -167.5 74.5t-38.5 187.5q20 112 101 185t192 73z
M71 256h451q13 106 -37 171t-144 65q-98 0 -174 -66t-96 -170z" />
    <glyph glyph-name="Gbreve" unicode="&#x11e;" horiz-adv-x="818" 
d="M515 772q-54 0 -83.5 29t-21.5 76h18q-7 -40 17 -64.5t70 -24.5t78 24.5t39 64.5h18q-8 -48 -44.5 -76.5t-90.5 -28.5zM498 692q-148 0 -261 -95.5t-138 -238.5q-26 -146 53.5 -248t234.5 -102q107 0 200 57t126 160l15 86h-289l3 18h310l-3 -18h-1l-54 -311h-20l27 155
q-48 -79 -134.5 -122t-182.5 -43q-162 0 -247 108t-58 261q27 151 145 251t277 100q106 0 184 -60t96 -150h-19q-20 86 -92 139t-172 53z" />
    <glyph glyph-name="gbreve" unicode="&#x11f;" horiz-adv-x="672" 
d="M388 572q-54 0 -83.5 29t-21.5 76h18q-7 -40 17 -64.5t70 -24.5t78 24.5t39 64.5h18q-8 -48 -44.5 -76.5t-90.5 -28.5zM606 500h20l-83 -469q-19 -111 -94 -176t-192 -65q-100 0 -159.5 53.5t-48.5 118.5h20q-10 -58 43 -106t146 -48q107 0 177 60t88 163l19 109
q-38 -70 -106 -110t-151 -40q-108 0 -175 81.5t-48 191.5t101.5 178.5t193.5 68.5q83 0 143.5 -51t75.5 -130zM288 8q100 0 176 64t95 165l1 5q17 101 -44 175.5t-162 74.5t-177.5 -65t-94.5 -167t43.5 -177t162.5 -75z" />
    <glyph glyph-name="Gdotaccent" unicode="&#x120;" horiz-adv-x="818" 
d="M536 850l-13 -70h-20l13 70h20zM498 692q-148 0 -261 -95.5t-138 -238.5q-26 -146 53.5 -248t234.5 -102q107 0 200 57t126 160l15 86h-289l3 18h310l-3 -18h-1l-54 -311h-20l27 155q-48 -79 -134.5 -122t-182.5 -43q-162 0 -247 108t-58 261q27 151 145 251t277 100
q106 0 184 -60t96 -150h-19q-20 86 -92 139t-172 53z" />
    <glyph glyph-name="gdotaccent" unicode="&#x121;" horiz-adv-x="672" 
d="M409 650l-13 -70h-20l13 70h20zM606 500h20l-83 -469q-19 -111 -94 -176t-192 -65q-100 0 -159.5 53.5t-48.5 118.5h20q-10 -58 43 -106t146 -48q107 0 177 60t88 163l19 109q-38 -70 -106 -110t-151 -40q-108 0 -175 81.5t-48 191.5t101.5 178.5t193.5 68.5
q83 0 143.5 -51t75.5 -130zM288 8q100 0 176 64t95 165l1 5q17 101 -44 175.5t-162 74.5t-177.5 -65t-94.5 -167t43.5 -177t162.5 -75z" />
    <glyph glyph-name="Gcommaaccent" unicode="&#x122;" horiz-adv-x="818" 
d="M498 692q-148 0 -261 -95.5t-138 -238.5q-26 -146 53.5 -248t234.5 -102q107 0 200 57t126 160l15 86h-289l3 18h310l-3 -18h-1l-54 -311h-20l27 155q-48 -79 -134.5 -122t-182.5 -43q-162 0 -247 108t-58 261q27 151 145 251t277 100q106 0 184 -60t96 -150h-19
q-20 86 -92 139t-172 53zM326 -240l40 170h20l-44 -170h-16z" />
    <glyph glyph-name="gcommaaccent" unicode="&#x123;" horiz-adv-x="672" 
d="M429 760l-40 -170h-20l44 170h16zM606 500h20l-83 -469q-19 -111 -94 -176t-192 -65q-100 0 -159.5 53.5t-48.5 118.5h20q-10 -58 43 -106t146 -48q107 0 177 60t88 163l19 109q-38 -70 -106 -110t-151 -40q-108 0 -175 81.5t-48 191.5t101.5 178.5t193.5 68.5
q83 0 143.5 -51t75.5 -130zM288 8q100 0 176 64t95 165l1 5q17 101 -44 175.5t-162 74.5t-177.5 -65t-94.5 -167t43.5 -177t162.5 -75z" />
    <glyph glyph-name="Hbar" unicode="&#x126;" horiz-adv-x="700" 
d="M693 549l-3 -18h-71l-93 -531h-20l62 351h-400l-62 -351h-20l93 531h-69l3 18h69l27 151h20l-27 -151h400l27 151h20l-27 -151h71zM571 369l28 162h-400l-28 -162h400z" />
    <glyph glyph-name="hbar" unicode="&#x127;" horiz-adv-x="555" 
d="M361 510q69 0 109 -45.5t25 -127.5l-59 -337h-20l59 337q13 72 -19 113.5t-98 41.5q-75 0 -139 -54.5t-82 -146.5l-51 -291h-20l105 595h-80l3 17h80l15 88h20l-15 -88h180l-3 -17h-180l-38 -216q32 65 90 98t118 33z" />
    <glyph glyph-name="Imacron" unicode="&#x12a;" horiz-adv-x="220" 
d="M87 801l3 16h240l-3 -16h-240zM179 700h20l-123 -700h-20z" />
    <glyph glyph-name="imacron" unicode="&#x12b;" horiz-adv-x="200" 
d="M82 601l3 16h160l-3 -16h-160zM46 0l88 500h20l-88 -500h-20z" />
    <glyph glyph-name="Iogonek" unicode="&#x12e;" horiz-adv-x="220" 
d="M-1 -142q-4 -23 8.5 -37.5t36.5 -14.5q27 0 46 9l-3 -17q-19 -8 -46 -8q-33 0 -49 18.5t-11 49.5q9 59 76 146l122 696h20l-123 -700q-69 -95 -77 -142z" />
    <glyph glyph-name="iogonek" unicode="&#x12f;" horiz-adv-x="200" 
d="M169 700h20l-17 -100h-20zM66 0l-38.5 -54.5t-22 -38.5t-16.5 -47q-4 -23 8.5 -38.5t36.5 -15.5q26 0 46 8l-3 -16q-19 -8 -46 -8q-33 0 -49 19.5t-11 50.5q11 55 76 145l87 495h20z" />
    <glyph glyph-name="Idotaccent" unicode="&#x130;" horiz-adv-x="220" 
d="M193 780l13 70h20l-13 -70h-20zM179 700h20l-123 -700h-20z" />
    <glyph glyph-name="dotlessi" unicode="&#x131;" horiz-adv-x="200" 
d="M46 0l88 500h20l-88 -500h-20z" />
    <glyph glyph-name="Kcommaaccent" unicode="&#x136;" horiz-adv-x="556" 
d="M615 700l-454 -343l341 -357h-25l-339 354l-62 -354h-20l123 700h20l-59 -335l445 335h30zM213 -240l40 170h20l-44 -170h-16z" />
    <glyph glyph-name="kcommaaccent" unicode="&#x137;" horiz-adv-x="461" 
d="M470 500l-337 -242l254 -258h-26l-250 254l-45 -254h-20l123 700h20l-76 -435l326 235h31zM151 -240l40 170h20l-44 -170h-16z" />
    <glyph glyph-name="Lacute" unicode="&#x139;" 
d="M311 890l-103 -120h-19l100 120h22zM79 18h350l-3 -18h-370l3 18l120 682h20z" />
    <glyph glyph-name="lacute" unicode="&#x13a;" horiz-adv-x="200" 
d="M182 770h19l103 120h-22zM46 0l57 321l70 399h20l-70 -399l-57 -321h-20z" />
    <glyph glyph-name="Lcommaaccent" unicode="&#x13b;" 
d="M79 18h350l-3 -18h-370l3 18l120 682h20zM181 -240l40 170h20l-44 -170h-16z" />
    <glyph glyph-name="lcommaaccent" unicode="&#x13c;" horiz-adv-x="200" 
d="M46 0l57 321l70 399h20l-70 -399l-57 -321h-20zM11 -240l44 170h-20l-40 -170h16z" />
    <glyph glyph-name="Lcaron" unicode="&#x13d;" 
d="M79 18h350l-3 -18h-370l3 18l120 682h20zM389 700l-44 -170h-16l40 170h20z" />
    <glyph glyph-name="lcaron" unicode="&#x13e;" horiz-adv-x="216" 
d="M46 0l57 321l70 399h20l-70 -399l-57 -321h-20zM255 550l44 170h-20l-40 -170h16z" />
    <glyph glyph-name="Lslash" unicode="&#x141;" horiz-adv-x="510" 
d="M89 18h350l-3 -18h-370l3 18l43 246l-66 -39l4 23l66 39l73 413h20l-70 -399l234 138l-3 -23l-235 -139z" />
    <glyph glyph-name="lslash" unicode="&#x142;" horiz-adv-x="240" 
d="M254 440l-4 -21l-101 -62l-6 -36l-57 -321h-20l57 321l4 23l-101 -62l3 21l102 62l62 355h20l-60 -341z" />
    <glyph glyph-name="Nacute" unicode="&#x143;" horiz-adv-x="630" 
d="M382 770h19l103 120h-22zM589 700h20l-123 -700h-20l-273 664l-117 -664h-20l123 700h20l273 -664z" />
    <glyph glyph-name="nacute" unicode="&#x144;" horiz-adv-x="535" 
d="M429 690l-103 -120h-19l100 120h22zM341 510q69 0 109 -45.5t25 -127.5l-59 -337h-20l59 337q13 72 -19 113.5t-98 41.5q-75 0 -138 -53.5t-82 -144.5l-52 -294h-20l88 500h20l-21 -121q33 65 90.5 98t117.5 33z" />
    <glyph glyph-name="Ncommaaccent" unicode="&#x145;" horiz-adv-x="630" 
d="M589 700h20l-123 -700h-20l-273 664l-117 -664h-20l123 700h20l273 -664zM227 -240l44 170h-20l-40 -170h16z" />
    <glyph glyph-name="ncommaaccent" unicode="&#x146;" horiz-adv-x="535" 
d="M341 510q69 0 109 -45.5t25 -127.5l-59 -337h-20l59 337q13 72 -19 113.5t-98 41.5q-75 0 -138 -53.5t-82 -144.5l-52 -294h-20l88 500h20l-21 -121q33 65 90.5 98t117.5 33zM174 -240l40 170h20l-44 -170h-16z" />
    <glyph glyph-name="Ncaron" unicode="&#x147;" horiz-adv-x="630" 
d="M394 770l-91 120h21l82 -108l119 108h24l-133 -120h-22zM589 700h20l-123 -700h-20l-273 664l-117 -664h-20l123 700h20l273 -664z" />
    <glyph glyph-name="ncaron" unicode="&#x148;" horiz-adv-x="535" 
d="M319 570l-91 120h21l82 -108l119 108h24l-133 -120h-22zM341 510q69 0 109 -45.5t25 -127.5l-59 -337h-20l59 337q13 72 -19 113.5t-98 41.5q-75 0 -138 -53.5t-82 -144.5l-52 -294h-20l88 500h20l-21 -121q33 65 90.5 98t117.5 33z" />
    <glyph glyph-name="Eng" unicode="&#x14a;" horiz-adv-x="630" 
d="M589 700h20l-123 -700q-19 -108 -75.5 -154t-154.5 -46l3 18q90 0 140 43.5t67 138.5l-273 664l-117 -664h-20l123 700h20l273 -664z" />
    <glyph glyph-name="eng" unicode="&#x14b;" horiz-adv-x="535" 
d="M341 510q69 0 109 -45.5t25 -127.5l-75 -427q-11 -62 -52 -94.5t-108 -25.5l3 18q117 -13 137 102l75 427q13 72 -19 113.5t-98 41.5q-75 0 -138 -53.5t-82 -144.5l-52 -294h-20l88 500h20l-21 -121q33 65 90.5 98t117.5 33z" />
    <glyph glyph-name="Omacron" unicode="&#x14c;" horiz-adv-x="840" 
d="M397 801l3 16h240l-3 -16h-240zM375 -10q-149 0 -236 107t-61 256t149.5 253t272.5 104q148 0 235.5 -107t61.5 -256t-149.5 -253t-272.5 -104zM377 8q141 0 257.5 100t142.5 242q25 142 -56.5 242t-222.5 100t-258 -100t-142 -242t56.5 -242t222.5 -100z" />
    <glyph glyph-name="omacron" unicode="&#x14d;" horiz-adv-x="622" 
d="M245 601l3 16h240l-3 -16h-240zM266 -10q-108 0 -171 77t-44 187t107 183t198 73q108 0 171 -77t44 -187t-107 -183t-198 -73zM268 8q101 0 183 70t100 172t-39.5 172t-157.5 70q-101 0 -183 -70t-100 -172t39.5 -172t157.5 -70z" />
    <glyph glyph-name="Ohungarumlaut" unicode="&#x150;" horiz-adv-x="840" 
d="M411 770h18l96 130h-22zM551 770h19l104 130h-22zM375 -10q-149 0 -236 107t-61 256t149.5 253t272.5 104q148 0 235.5 -107t61.5 -256t-149.5 -253t-272.5 -104zM377 8q141 0 257.5 100t142.5 242q25 142 -56.5 242t-222.5 100t-258 -100t-142 -242t56.5 -242
t222.5 -100z" />
    <glyph glyph-name="ohungarumlaut" unicode="&#x151;" horiz-adv-x="622" 
d="M259 570h18l96 130h-22zM399 570h19l104 130h-22zM266 -10q-108 0 -171 77t-44 187t107 183t198 73q108 0 171 -77t44 -187t-107 -183t-198 -73zM268 8q101 0 183 70t100 172t-39.5 172t-157.5 70q-101 0 -183 -70t-100 -172t39.5 -172t157.5 -70z" />
    <glyph glyph-name="OE" unicode="&#x152;" horiz-adv-x="906" 
d="M927 682h-325l-56 -320h300l-3 -18h-301l-57 -326h330l-3 -18h-340h-10l120 681q-41 11 -94 11q-146 0 -255.5 -98.5t-134.5 -243.5q-26 -145 48.5 -243.5t220.5 -98.5q54 0 98 11l-3 -19q-47 -10 -98 -10q-154 0 -233.5 105t-52.5 257t142.5 255t269.5 103q52 0 95 -10
h20h325z" />
    <glyph glyph-name="oe" unicode="&#x153;" horiz-adv-x="1076" 
d="M843 510q107 0 159.5 -77.5t33.5 -184.5q-2 -6 -2 -10h-18h-451q-13 -102 41 -166t152 -64q71 0 130 33t89 88h21q-33 -65 -97 -102t-146 -37q-89 0 -146 52.5t-64 137.5q-36 -85 -112.5 -137.5t-167.5 -52.5q-108 0 -170.5 76.5t-43.5 186.5t107 183.5t199 73.5
q88 0 145.5 -53t65.5 -136q35 85 109 137t166 52zM268 8q101 0 181 70t98 172t-37 172t-156 70t-183 -70t-100 -172t39 -172t158 -70zM568 256h451q13 105 -36.5 170.5t-142.5 65.5q-97 0 -174.5 -66.5t-97.5 -169.5z" />
    <glyph glyph-name="Racute" unicode="&#x154;" horiz-adv-x="620" 
d="M459 890l-103 -120h-19l100 120h22zM563 497q-13 -76 -73.5 -131.5t-136.5 -64.5l213 -301h-22l-212 300h-3h-200l-53 -300h-20l123 700h20h200q81 0 130 -60.5t34 -142.5zM196 682l-64 -364h200q74 0 136.5 53.5t75.5 128.5t-30.5 128.5t-117.5 53.5h-200z" />
    <glyph glyph-name="racute" unicode="&#x155;" horiz-adv-x="325" 
d="M346 690l-103 -120h-19l100 120h22zM132 377q33 65 90 98t118 31l-3 -18q-78 0 -141.5 -56t-80.5 -154l-49 -278h-20l88 500h20z" />
    <glyph glyph-name="Rcommaaccent" unicode="&#x156;" horiz-adv-x="620" 
d="M563 497q-13 -76 -73.5 -131.5t-136.5 -64.5l213 -301h-22l-212 300h-3h-200l-53 -300h-20l123 700h20h200q81 0 130 -60.5t34 -142.5zM196 682l-64 -364h200q74 0 136.5 53.5t75.5 128.5t-30.5 128.5t-117.5 53.5h-200zM236 -240l40 170h20l-44 -170h-16z" />
    <glyph glyph-name="rcommaaccent" unicode="&#x157;" horiz-adv-x="325" 
d="M132 377q33 65 90 98t118 31l-3 -18q-78 0 -141.5 -56t-80.5 -154l-49 -278h-20l88 500h20zM-6 -240l40 170h20l-44 -170h-16z" />
    <glyph glyph-name="Rcaron" unicode="&#x158;" horiz-adv-x="620" 
d="M349 770l-91 120h21l82 -108l119 108h24l-133 -120h-22zM563 497q-13 -76 -73.5 -131.5t-136.5 -64.5l213 -301h-22l-212 300h-3h-200l-53 -300h-20l123 700h20h200q81 0 130 -60.5t34 -142.5zM196 682l-64 -364h200q74 0 136.5 53.5t75.5 128.5t-30.5 128.5t-117.5 53.5
h-200z" />
    <glyph glyph-name="rcaron" unicode="&#x159;" horiz-adv-x="325" 
d="M236 570l-91 120h21l82 -108l119 108h24l-133 -120h-22zM132 377q33 65 90 98t118 31l-3 -18q-78 0 -141.5 -56t-80.5 -154l-49 -278h-20l88 500h20z" />
    <glyph glyph-name="Sacute" unicode="&#x15a;" horiz-adv-x="550" 
d="M338 770h19l103 120h-22zM242 -10q-106 0 -163 49.5t-42 135.5h20q-14 -76 35.5 -121.5t152.5 -45.5q88 0 148 44.5t72 112.5q7 39 -2.5 67.5t-35 48.5t-51 32.5t-64.5 28.5q-7 3 -11 4q-93 38 -117 53q-81 51 -65 143q13 73 78.5 120.5t156.5 47.5q83 0 135 -50.5
t39 -124.5h-20q12 66 -31.5 111.5t-125.5 45.5q-86 0 -143.5 -45t-68.5 -107q-6 -37 3 -65t36 -48t50 -31t66 -28q12 -5 18 -7q94 -39 123 -62q65 -50 50 -136q-14 -79 -82 -126t-161 -47z" />
    <glyph glyph-name="sacute" unicode="&#x15b;" horiz-adv-x="471" 
d="M384 690l-103 -120h-19l100 120h22zM280 510q74 0 114 -38.5t29 -96.5h-20q10 53 -25 85t-100 32q-68 0 -114 -29.5t-56 -82.5q-6 -34 8.5 -57t41.5 -35t60.5 -21l67 -18.5t60 -24t40 -41.5t6.5 -67q-10 -58 -64.5 -92t-137.5 -34q-80 0 -124 38.5t-33 96.5h20
q-9 -53 29.5 -85t109.5 -32q73 0 122 30t58 82q7 41 -12.5 67t-54.5 36.5l-76 22.5t-75.5 24t-54 41t-11.5 73q11 58 62.5 92t129.5 34z" />
    <glyph glyph-name="Scedilla" unicode="&#x15e;" horiz-adv-x="550" 
d="M354 710q83 0 135 -50.5t39 -124.5h-20q12 66 -31.5 111.5t-125.5 45.5q-86 0 -143.5 -45t-68.5 -107q-6 -37 3 -65t36 -48t50 -31t66 -28q12 -5 18 -7q94 -39 123 -62q65 -50 50 -136q-14 -78 -80.5 -124.5t-158.5 -48.5l-12 -69q34 2 58.5 -14.5t18.5 -48.5
q-6 -38 -53.5 -54.5t-132.5 -5.5l3 16q154 -19 165 46q5 24 -15 36.5t-65 8.5l15 85q-100 4 -153 53t-38 132h20q-14 -76 35.5 -121.5t152.5 -45.5q88 0 148 44.5t72 112.5q7 39 -2.5 67.5t-35 48.5t-51 32.5t-64.5 28.5q-7 3 -11 4q-93 38 -117 53q-81 51 -65 143
q13 73 78.5 120.5t156.5 47.5z" />
    <glyph glyph-name="scedilla" unicode="&#x15f;" horiz-adv-x="471" 
d="M280 510q74 0 114 -38.5t29 -96.5h-20q10 53 -25 85t-100 32q-68 0 -114 -29.5t-56 -82.5q-6 -34 8.5 -57t41.5 -35t60.5 -21l67 -18.5t60 -24t40 -41.5t6.5 -67q-9 -55 -59 -88.5t-126 -37.5l-12 -69q34 2 58.5 -14.5t18.5 -48.5q-6 -38 -53.5 -54.5t-132.5 -5.5l3 16
q154 -19 165 46q5 24 -15 36.5t-65 8.5l15 85q-80 0 -123.5 38.5t-32.5 96.5h20q-9 -53 29.5 -85t109.5 -32q73 0 122 30t58 82q7 41 -12.5 67t-54.5 36.5l-76 22.5t-75.5 24t-54 41t-11.5 73q11 58 62.5 92t129.5 34z" />
    <glyph glyph-name="Scaron" unicode="&#x160;" horiz-adv-x="550" 
d="M350 770l-91 120h21l82 -108l119 108h24l-133 -120h-22zM354 710q83 0 135 -50.5t39 -124.5h-20q12 66 -31.5 111.5t-125.5 45.5q-86 0 -143.5 -45t-68.5 -107q-6 -37 3 -65t36 -48t50 -31t66 -28q12 -5 18 -7q94 -39 123 -62q65 -50 50 -136q-14 -79 -82 -126t-161 -47
q-106 0 -163 49.5t-42 135.5h20q-14 -76 35.5 -121.5t152.5 -45.5q88 0 148 44.5t72 112.5q7 39 -2.5 67.5t-35 48.5t-51 32.5t-64.5 28.5q-7 3 -11 4q-93 38 -117 53q-81 51 -65 143q13 73 78.5 120.5t156.5 47.5z" />
    <glyph glyph-name="scaron" unicode="&#x161;" horiz-adv-x="471" 
d="M274 570l-91 120h21l82 -108l119 108h24l-133 -120h-22zM280 510q74 0 114 -38.5t29 -96.5h-20q10 53 -25 85t-100 32q-68 0 -114 -29.5t-56 -82.5q-6 -34 8.5 -57t41.5 -35t60.5 -21l67 -18.5t60 -24t40 -41.5t6.5 -67q-10 -58 -64.5 -92t-137.5 -34q-80 0 -124 38.5
t-33 96.5h20q-9 -53 29.5 -85t109.5 -32q73 0 122 30t58 82q7 41 -12.5 67t-54.5 36.5l-76 22.5t-75.5 24t-54 41t-11.5 73q11 58 62.5 92t129.5 34z" />
    <glyph glyph-name="uni0162" unicode="&#x162;" 
d="M549 700l-3 -18h-210l-120 -682h-20l120 682h-210l3 18h230h210zM146 -240l40 170h20l-44 -170h-16z" />
    <glyph glyph-name="uni0163" unicode="&#x163;" horiz-adv-x="320" 
d="M334 500l-3 -18h-120l-85 -482h-20l85 482h-120l3 18h120l28 160h20l-28 -160h120zM52 -240l40 170h20l-44 -170h-16z" />
    <glyph glyph-name="Tcaron" unicode="&#x164;" 
d="M329 770l-91 120h21l82 -108l119 108h24l-133 -120h-22zM549 700l-3 -18h-210l-120 -682h-20l120 682h-210l3 18h230h210z" />
    <glyph glyph-name="tcaron" unicode="&#x165;" horiz-adv-x="320" 
d="M349 720l-40 -150h-16l36 150h20zM242 660l-28 -160h120l-3 -19h-120l-85 -481h-20l85 481h-120l3 19h120l28 160h20z" />
    <glyph glyph-name="Tbar" unicode="&#x166;" 
d="M546 682h-210l-57 -323h170l-3 -18h-170l-60 -341h-20l60 341h-170l3 18h170l57 323h-210l3 18h230h210z" />
    <glyph glyph-name="tbar" unicode="&#x167;" horiz-adv-x="320" 
d="M331 481h-120l-31 -172h90l-3 -17h-90l-51 -292h-20l51 292h-90l3 17h90l31 172h-120l3 19h120l28 160h20l-28 -160h120z" />
    <glyph glyph-name="Umacron" unicode="&#x16a;" horiz-adv-x="630" 
d="M287 801l3 16h240l-3 -16h-240zM271 -10q-100 0 -153.5 54t-37.5 146l89 510h20l-89 -510q-14 -84 31.5 -133t140.5 -49q96 0 159.5 50t77.5 132l89 510h20l-89 -510q-16 -94 -87 -147t-171 -53z" />
    <glyph glyph-name="umacron" unicode="&#x16b;" horiz-adv-x="535" 
d="M447 617l-3 -16h-240l3 16h240zM469 500h20l-88 -500h-20l20 115q-33 -62 -90 -93.5t-117 -31.5q-71 0 -110 46t-24 127l59 337h20l-59 -337q-13 -72 19 -113.5t98 -41.5q77 0 141 56t81 152z" />
    <glyph glyph-name="Uring" unicode="&#x16e;" horiz-adv-x="630" 
d="M400 760q-42 0 -64 25.5t-15 64.5t37.5 64.5t72.5 25.5q43 0 65 -25.5t15 -64.5t-37.5 -64.5t-73.5 -25.5zM403 776q34 0 59 20.5t31 53.5q5 33 -12.5 53.5t-51.5 20.5q-35 0 -60 -20.5t-30 -53.5q-6 -33 11.5 -53.5t52.5 -20.5zM271 -10q-100 0 -153.5 54t-37.5 146
l89 510h20l-89 -510q-14 -84 31.5 -133t140.5 -49q96 0 159.5 50t77.5 132l89 510h20l-89 -510q-16 -94 -87 -147t-171 -53z" />
    <glyph glyph-name="uring" unicode="&#x16f;" horiz-adv-x="535" 
d="M317 560q-42 0 -64 25.5t-15 64.5t37.5 64.5t72.5 25.5q43 0 65 -25.5t15 -64.5t-37.5 -64.5t-73.5 -25.5zM256 650q-6 -33 11.5 -53.5t52.5 -20.5q34 0 59 20.5t31 53.5q5 33 -12.5 53.5t-51.5 20.5q-35 0 -60 -20.5t-30 -53.5zM469 500h20l-88 -500h-20l20 115
q-33 -62 -90 -93.5t-117 -31.5q-71 0 -110 46t-24 127l59 337h20l-59 -337q-13 -72 19 -113.5t98 -41.5q77 0 141 56t81 152z" />
    <glyph glyph-name="Uhungarumlaut" unicode="&#x170;" horiz-adv-x="630" 
d="M301 770h18l96 130h-22zM441 770h19l104 130h-22zM271 -10q-100 0 -153.5 54t-37.5 146l89 510h20l-89 -510q-14 -84 31.5 -133t140.5 -49q96 0 159.5 50t77.5 132l89 510h20l-89 -510q-16 -94 -87 -147t-171 -53z" />
    <glyph glyph-name="uhungarumlaut" unicode="&#x171;" horiz-adv-x="535" 
d="M332 700l-96 -130h-18l92 130h22zM481 700l-104 -130h-19l101 130h22zM469 500h20l-88 -500h-20l20 115q-33 -62 -90 -93.5t-117 -31.5q-71 0 -110 46t-24 127l59 337h20l-59 -337q-13 -72 19 -113.5t98 -41.5q77 0 141 56t81 152z" />
    <glyph glyph-name="Uogonek" unicode="&#x172;" horiz-adv-x="630" 
d="M598 700h20l-89 -510q-16 -94 -89 -148q-104 -79 -138 -112t-41 -69q-5 -24 7.5 -39.5t37.5 -15.5q27 0 46 9l-3 -17q-19 -8 -46 -8q-31 0 -48.5 20.5t-11.5 50.5q13 65 123 143q-45 -14 -95 -14q-100 0 -153.5 54t-37.5 146l89 510h20l-89 -510q-14 -84 31.5 -133
t140.5 -49q96 0 159.5 50t77.5 132z" />
    <glyph glyph-name="uogonek" unicode="&#x173;" horiz-adv-x="535" 
d="M401 0q-112 -83 -122 -144q-4 -23 8 -36.5t35 -13.5q26 0 46 8l-3 -16q-19 -8 -46 -8q-32 0 -48 18t-10 48q11 64 121 149l19 110q-33 -62 -90 -93.5t-117 -31.5q-71 0 -110 46t-24 127l59 337h20l-59 -337q-13 -72 19 -113.5t98 -41.5q78 0 141.5 56t80.5 154v-1l50 283
h20z" />
    <glyph glyph-name="Wcircumflex" unicode="&#x174;" horiz-adv-x="860" 
d="M542 878l-120 -108h-24l133 120h22l91 -120h-20zM888 700h21l-352 -700h-26l-67 442l-223 -442h-26l-106 700h19l103 -678l228 452l-34 226h19l103 -678z" />
    <glyph glyph-name="wcircumflex" unicode="&#x175;" horiz-adv-x="670" 
d="M416 678l-120 -108h-24l133 120h22l91 -120h-20zM672 500h22l-272 -500h-22l-57 296l-161 -296h-22l-96 500h20l91 -473l163 298l-34 175h19l91 -474z" />
    <glyph glyph-name="Ycircumflex" unicode="&#x176;" horiz-adv-x="560" 
d="M391 878l-120 -108h-24l133 120h22l91 -120h-20zM619 700l-315 -371l-58 -329h-20l58 330l-185 370h21l176 -354l300 354h23z" />
    <glyph glyph-name="ycircumflex" unicode="&#x177;" horiz-adv-x="470" 
d="M311 678l-120 -108h-24l133 120h22l91 -120h-20zM472 500h22l-395 -700h-22l114 200l-127 500h19l121 -477z" />
    <glyph glyph-name="Ydieresis" unicode="&#x178;" horiz-adv-x="560" 
d="M304 840l-11 -60h-20l11 60h20zM484 840l-11 -60h-20l11 60h20zM619 700l-315 -371l-58 -329h-20l58 330l-185 370h21l176 -354l300 354h23z" />
    <glyph glyph-name="Zacute" unicode="&#x179;" horiz-adv-x="510" 
d="M449 890l-103 -120h-19l100 120h22zM539 700l-3 -18l-503 -664h396l-3 -18h-420l3 18l504 664h-377l3 18h400z" />
    <glyph glyph-name="zacute" unicode="&#x17a;" horiz-adv-x="470" 
d="M394 690l-103 -120h-19l100 120h22zM454 500l-2 -11l-404 -471h331l-3 -18h-360l2 11l404 471h-311l3 18h340z" />
    <glyph glyph-name="Zdotaccent" unicode="&#x17b;" horiz-adv-x="510" 
d="M376 850l-13 -70h-20l13 70h20zM539 700l-3 -18l-503 -664h396l-3 -18h-420l3 18l504 664h-377l3 18h400z" />
    <glyph glyph-name="zdotaccent" unicode="&#x17c;" horiz-adv-x="470" 
d="M321 650l-13 -70h-20l13 70h20zM454 500l-2 -11l-404 -471h331l-3 -18h-360l2 11l404 471h-311l3 18h340z" />
    <glyph glyph-name="Zcaron" unicode="&#x17d;" horiz-adv-x="510" 
d="M339 770l-91 120h21l82 -108l119 108h24l-133 -120h-22zM539 700l-3 -18l-503 -664h396l-3 -18h-420l3 18l504 664h-377l3 18h400z" />
    <glyph glyph-name="zcaron" unicode="&#x17e;" horiz-adv-x="470" 
d="M284 570l-91 120h21l82 -108l119 108h24l-133 -120h-22zM454 500l-2 -11l-404 -471h331l-3 -18h-360l2 11l404 471h-311l3 18h340z" />
    <glyph glyph-name="florin" unicode="&#x192;" horiz-adv-x="431" 
d="M324 590q25 73 77 103t110 9l-4 -20q-47 23 -94 -4t-70 -92l-79 -226h131l-3 -19h-134l-152 -435q-25 -71 -77 -102t-109 -10l3 20q48 -23 95 4t69 92l150 431h-125l3 19h129z" />
    <glyph glyph-name="Scommaaccent" unicode="&#x218;" horiz-adv-x="550" 
d="M242 -10q-106 0 -163 49.5t-42 135.5h20q-14 -76 35.5 -121.5t152.5 -45.5q88 0 148 44.5t72 112.5q7 39 -2.5 67.5t-35 48.5t-51 32.5t-64.5 28.5q-7 3 -11 4q-93 38 -117 53q-81 51 -65 143q13 73 78.5 120.5t156.5 47.5q83 0 135 -50.5t39 -124.5h-20
q12 66 -31.5 111.5t-125.5 45.5q-86 0 -143.5 -45t-68.5 -107q-6 -37 3 -65t36 -48t50 -31t66 -28q12 -5 18 -7q94 -39 123 -62q65 -50 50 -136q-14 -79 -82 -126t-161 -47zM191 -240l44 170h-20l-40 -170h16z" />
    <glyph glyph-name="scommaaccent" unicode="&#x219;" horiz-adv-x="471" 
d="M280 510q74 0 114 -38.5t29 -96.5h-20q10 53 -25 85t-100 32q-68 0 -114 -29.5t-56 -82.5q-6 -34 8.5 -57t41.5 -35t60.5 -21l67 -18.5t60 -24t40 -41.5t6.5 -67q-10 -58 -64.5 -92t-137.5 -34q-80 0 -124 38.5t-33 96.5h20q-9 -53 29.5 -85t109.5 -32q73 0 122 30t58 82
q7 41 -12.5 67t-54.5 36.5l-76 22.5t-75.5 24t-54 41t-11.5 73q11 58 62.5 92t129.5 34zM136 -240l40 170h20l-44 -170h-16z" />
    <glyph glyph-name="uni021A" unicode="&#x21a;" 
d="M549 700l-3 -18h-210l-120 -682h-20l120 682h-210l3 18h230h210zM146 -240l40 170h20l-44 -170h-16z" />
    <glyph glyph-name="uni021B" unicode="&#x21b;" horiz-adv-x="320" 
d="M334 500l-3 -18h-120l-85 -482h-20l85 482h-120l3 18h120l28 160h20l-28 -160h120zM52 -240l40 170h20l-44 -170h-16z" />
    <glyph glyph-name="circumflex" unicode="&#x2c6;" horiz-adv-x="286" 
d="M322 570h-20l-82 108l-120 -108h-24l133 120h22z" />
    <glyph glyph-name="caron" unicode="&#x2c7;" horiz-adv-x="286" 
d="M320 690h24l-133 -120h-22l-91 120h21l82 -108z" />
    <glyph glyph-name="breve" unicode="&#x2d8;" horiz-adv-x="280" 
d="M200 572q-54 0 -83.5 29t-21.5 76h18q-7 -40 17 -64.5t70 -24.5t78 24.5t39 64.5h18q-8 -48 -44.5 -76.5t-90.5 -28.5z" />
    <glyph glyph-name="dotaccent" unicode="&#x2d9;" horiz-adv-x="60" 
d="M78 580l13 70h20l-13 -70h-20z" />
    <glyph glyph-name="ring" unicode="&#x2da;" horiz-adv-x="230" 
d="M170 560q-42 0 -64 25.5t-15 64.5t37.5 64.5t72.5 25.5q43 0 65 -25.5t15 -64.5t-37.5 -64.5t-73.5 -25.5zM173 576q34 0 59 20.5t31 53.5q5 33 -12.5 53.5t-51.5 20.5q-35 0 -60 -20.5t-30 -53.5q-6 -33 11.5 -53.5t52.5 -20.5z" />
    <glyph glyph-name="ogonek" unicode="&#x2db;" horiz-adv-x="157" 
d="M11 -210q-33 0 -49.5 19.5t-10.5 50.5q11 68 115 140h25q-111 -78 -122 -142q-4 -23 8.5 -37.5t36.5 -14.5t46 9l-3 -17q-19 -8 -46 -8z" />
    <glyph glyph-name="tilde" unicode="&#x2dc;" horiz-adv-x="296" 
d="M80 590q12 71 54.5 87t85.5 -39q38 -46 71 -33t43 69h17q-12 -69 -55 -85.5t-86 37.5q-39 47 -71 34.5t-42 -70.5h-17z" />
    <glyph glyph-name="hungarumlaut" unicode="&#x2dd;" horiz-adv-x="280" 
d="M76 570h18l96 130h-22zM216 570h19l104 130h-22z" />
    <glyph glyph-name="gravecomb" unicode="&#x300;" horiz-adv-x="0" 
d="M37 570l-60 120h-20l64 -120h16z" />
    <glyph glyph-name="acutecomb" unicode="&#x301;" horiz-adv-x="0" 
d="M-64 570h19l103 120h-22z" />
    <glyph glyph-name="uni0302" unicode="&#x302;" horiz-adv-x="0" 
d="M37 570h-20l-82 108l-120 -108h-24l133 120h22z" />
    <glyph glyph-name="tildecomb" unicode="&#x303;" horiz-adv-x="0" 
d="M-216 590q12 71 54.5 87t85.5 -39q38 -46 71 -33t43 69h17q-12 -69 -55 -85.5t-86 37.5q-39 47 -71 34.5t-42 -70.5h-17z" />
    <glyph glyph-name="uni0304" unicode="&#x304;" horiz-adv-x="0" 
d="M-198 601l3 16h240l-3 -16h-240z" />
    <glyph glyph-name="uni0306" unicode="&#x306;" horiz-adv-x="0" 
d="M-100 572q-54 0 -83.5 29t-21.5 76h18q-7 -40 17 -64.5t70 -24.5t78 24.5t39 64.5h18q-8 -48 -44.5 -76.5t-90.5 -28.5z" />
    <glyph glyph-name="uni0307" unicode="&#x307;" horiz-adv-x="0" 
d="M18 580l13 70h20l-13 -70h-20z" />
    <glyph glyph-name="uni0308" unicode="&#x308;" horiz-adv-x="0" 
d="M-162 580l11 60h20l-11 -60h-20zM18 580l11 60h20l-11 -60h-20z" />
    <glyph glyph-name="uni030A" unicode="&#x30a;" horiz-adv-x="0" 
d="M-60 560q-42 0 -64 25.5t-15 64.5t37.5 64.5t72.5 25.5q43 0 65 -25.5t15 -64.5t-37.5 -64.5t-73.5 -25.5zM-57 576q34 0 59 20.5t31 53.5q5 33 -12.5 53.5t-51.5 20.5q-35 0 -60 -20.5t-30 -53.5q-6 -33 11.5 -53.5t52.5 -20.5z" />
    <glyph glyph-name="uni030B" unicode="&#x30b;" horiz-adv-x="0" 
d="M-194 570h18l96 130h-22zM-54 570h19l104 130h-22z" />
    <glyph glyph-name="uni030C" unicode="&#x30c;" horiz-adv-x="0" 
d="M34 690h24l-133 -120h-22l-91 120h21l82 -108z" />
    <glyph glyph-name="uni0312" unicode="&#x312;" horiz-adv-x="0" 
d="M89 960l-44 -170h20l40 170h-16z" />
    <glyph glyph-name="uni0326" unicode="&#x326;" horiz-adv-x="0" 
d="M-120 -240l44 170h-20l-40 -170h16z" />
    <glyph glyph-name="uni0327" unicode="&#x327;" horiz-adv-x="0" 
d="M-166 -79q34 2 58.5 -14.5t18.5 -48.5q-6 -38 -53.5 -54.5t-132.5 -5.5l3 16q154 -19 165 46q5 24 -15 36.5t-65 8.5l17 95h18z" />
    <glyph glyph-name="uni0328" unicode="&#x328;" horiz-adv-x="0" 
d="M-146 -210q-33 0 -49.5 19.5t-10.5 50.5q11 68 115 140h25q-111 -78 -122 -142q-4 -23 8.5 -37.5t36.5 -14.5q23 0 46 9l-3 -17q-19 -8 -46 -8z" />
    <glyph glyph-name="uni0394" unicode="&#x394;" horiz-adv-x="618" 
d="M400 700l154 -700h-20h-544h-14l400 700h24zM8 18h522l-144 661z" />
    <glyph glyph-name="uni03A9" unicode="&#x3a9;" horiz-adv-x="841" 
d="M798 346q-20 -112 -99 -202t-185 -126h215l-3 -18h-268l3 18q117 28 206 120t111 212q25 142 -57 242t-223 100t-258 -100t-142 -242q-21 -119 35.5 -211.5t163.5 -120.5l-2 -15l-1 -3h-268l3 18h217q-93 38 -140.5 131t-27.5 205q26 150 148.5 253t274.5 103
q147 0 235 -107.5t62 -256.5z" />
    <glyph glyph-name="pi" unicode="&#x3c0;" horiz-adv-x="620" 
d="M624 500l-3 -18h-83l-85 -482h-20l85 482h-330l-85 -482h-20l85 482h-87l3 18h107h350h83z" />
    <glyph glyph-name="uni0401" unicode="&#x401;" horiz-adv-x="520" 
d="M301 840l-11 -60h-20l11 60h20zM481 840l-11 -60h-20l11 60h20zM541 682h-345l-56 -320h320l-3 -18h-321l-57 -326h350l-3 -18h-360h-10l123 700h20h345z" />
    <glyph glyph-name="uni0402" unicode="&#x402;" horiz-adv-x="670" 
d="M464 470q72 0 115.5 -46t28.5 -127l-32 -182q-11 -63 -51 -95.5t-109 -24.5l3 18q117 -13 137 102l32 182q13 72 -23 113.5t-104 41.5q-85 0 -186 -58l-69 -394h-20l120 682h-200l3 18h220h250l-3 -18h-250l-47 -265q94 53 185 53z" />
    <glyph glyph-name="uni0403" unicode="&#x403;" 
d="M465 889l-103 -120h-19l100 120h22zM549 700l-3 -18h-350l-120 -682h-20l123 700h370z" />
    <glyph glyph-name="uni0404" unicode="&#x404;" horiz-adv-x="788" 
d="M498 692q-145 0 -258 -96.5t-140 -236.5h417l-3 -18h-418q-21 -141 58 -237t223 -96q101 0 191 53t139 139h22q-52 -94 -148.5 -152t-206.5 -58q-154 0 -238.5 105.5t-57.5 256.5t146.5 254.5t276.5 103.5q105 0 183.5 -58.5t96.5 -151.5h-21q-19 86 -90.5 139t-171.5 53
z" />
    <glyph glyph-name="uni0405" unicode="&#x405;" horiz-adv-x="550" 
d="M242 -10q-106 0 -163 49.5t-42 135.5h20q-14 -76 35.5 -121.5t152.5 -45.5q88 0 148 44.5t72 112.5q7 39 -2.5 67.5t-35 48.5t-51 32.5t-64.5 28.5q-7 3 -11 4q-93 38 -117 53q-81 51 -65 143q13 73 78.5 120.5t156.5 47.5q83 0 135 -50.5t39 -124.5h-20
q12 66 -31.5 111.5t-125.5 45.5q-86 0 -143.5 -45t-68.5 -107q-6 -37 3 -65t36 -48t50 -31t66 -28q12 -5 18 -7q94 -39 123 -62q65 -50 50 -136q-14 -79 -82 -126t-161 -47z" />
    <glyph glyph-name="uni0406" unicode="&#x406;" horiz-adv-x="220" 
d="M179 700h20l-123 -700h-20z" />
    <glyph glyph-name="uni0407" unicode="&#x407;" horiz-adv-x="220" 
d="M103 780l11 60h20l-11 -60h-20zM283 780l11 60h20l-11 -60h-20zM179 700h20l-123 -700h-20z" />
    <glyph glyph-name="uni0408" unicode="&#x408;" horiz-adv-x="540" 
d="M202 -10q-90 0 -139.5 52.5t-34.5 137.5l1 5h20l-1 -5q-14 -75 27.5 -123.5t126.5 -48.5q83 0 142.5 48.5t73.5 123.5l91 520h20l-91 -520q-16 -86 -82 -138t-154 -52z" />
    <glyph glyph-name="uni0409" unicode="&#x409;" horiz-adv-x="957" 
d="M728 380q82 0 131.5 -57t35.5 -139q-15 -82 -81 -133t-153 -51h-190h-10l120 682h-300l-72 -412q-25 -139 -80.5 -209t-147.5 -63l3 18q73 -6 126 53t79 201l75 430h340l-56 -320h180zM875 188q13 74 -31 124t-119 50h-180l-61 -344h180q76 0 137 48t74 122z" />
    <glyph glyph-name="uni040A" unicode="&#x40a;" horiz-adv-x="952" 
d="M723 380q82 0 131.5 -57t35.5 -139q-15 -82 -81 -133t-153 -51h-190h-10l64 362h-380l-64 -362h-20l123 700h20l-56 -320h380l56 320h20l-56 -320h180zM870 188q13 74 -31 124t-119 50h-180l-61 -344h180q76 0 137 48t74 122z" />
    <glyph glyph-name="uni040B" unicode="&#x40b;" horiz-adv-x="680" 
d="M464 470q72 0 115.5 -46t28.5 -127l-52 -297h-20l52 297q13 72 -23 113.5t-104 41.5q-85 0 -186 -58l-69 -394h-20l120 682h-200l3 18h220h250l-3 -18h-250l-47 -265q94 53 185 53z" />
    <glyph glyph-name="uni040C" unicode="&#x40c;" horiz-adv-x="556" 
d="M475 889l-103 -120h-19l100 120h22zM615 700l-454 -343l341 -357h-25l-339 354l-62 -354h-20l123 700h20l-59 -335l445 335h30z" />
    <glyph glyph-name="uni040E" unicode="&#x40e;" horiz-adv-x="559" 
d="M506 816l-3 -16h-240l3 16h240zM596 700h22l-328 -545q-100 -166 -221 -155l3 18q107 -9 198 142l13 21l-164 519h18l159 -498z" />
    <glyph glyph-name="uni040F" unicode="&#x40f;" horiz-adv-x="640" 
d="M599 700h20l-123 -700h-20h-190l-25 -144h-20l25 144h-195h-15l123 700h20l-120 -682h400z" />
    <glyph glyph-name="uni0410" unicode="&#x410;" horiz-adv-x="628" 
d="M539 0l-42 191h-385l-109 -191h-22l400 700h25l153 -700h-20zM122 209h371l-102 470z" />
    <glyph glyph-name="uni0411" unicode="&#x411;" horiz-adv-x="585" 
d="M566 682h-370l-50 -282h221q79 0 129 -60.5t35 -142.5q-14 -83 -82 -140t-153 -57h-230h-10l123 700h20h370zM363 382h-220l-64 -364h220q75 0 137 53.5t75 128.5q14 75 -29.5 128.5t-118.5 53.5z" />
    <glyph glyph-name="uni0412" unicode="&#x412;" horiz-adv-x="680" 
d="M517 451q66 -22 99 -84t20 -140q-18 -96 -91 -161.5t-170 -65.5h-309h-10l123 700h20h240q69 0 107 -45.5t27 -108.5q-10 -56 -56 -95zM196 682l-39 -222h300q23 0 39 -4q48 38 57 94q10 56 -23 94t-94 38h-240zM617 230q15 89 -31 150.5t-132 61.5h-300l-75 -424h299
q86 0 154.5 62t84.5 150z" />
    <glyph glyph-name="uni0413" unicode="&#x413;" 
d="M549 700l-3 -18h-350l-120 -682h-20l123 700h370z" />
    <glyph glyph-name="uni0414" unicode="&#x414;" horiz-adv-x="650" 
d="M494 18h70l-28 -162h-20l25 144h-540l-25 -144h-20l28 162h53q90 80 122 254l75 428h380zM179 272q-30 -171 -115 -254h410l117 664h-340z" />
    <glyph glyph-name="uni0415" unicode="&#x415;" horiz-adv-x="520" 
d="M541 682h-345l-56 -320h320l-3 -18h-321l-57 -326h350l-3 -18h-360h-10l123 700h20h345z" />
    <glyph glyph-name="uni0416" unicode="&#x416;" horiz-adv-x="807" 
d="M862 700l-406 -343l287 -357h-22l-287 355l-62 -355h-20l62 355l-410 -355h-28l418 362l-281 338h23l280 -335l59 335h20l-59 -335l398 335h28z" />
    <glyph glyph-name="uni0417" unicode="&#x417;" horiz-adv-x="530" 
d="M414 405q47 -30 68.5 -82t11.5 -111q-17 -97 -89.5 -159.5t-178.5 -62.5q-108 0 -164 62t-39 158h20q-16 -90 35 -146t148 -56q94 0 162.5 57.5t85.5 149.5q15 86 -35 144.5t-139 58.5h-30l3 18h30q52 0 92 -20q30 19 52 52.5t29 70.5q12 69 -24 111t-111 42t-130 -42.5
t-67 -110.5h-20q13 73 73 122t147 49q84 0 124.5 -50.5t27.5 -123.5q-13 -76 -82 -131z" />
    <glyph glyph-name="uni0418" unicode="&#x418;" horiz-adv-x="630" 
d="M466 0l116 660l-505 -660h-21l123 700h20l-116 -660l505 660h21l-123 -700h-20z" />
    <glyph glyph-name="uni0419" unicode="&#x419;" horiz-adv-x="630" 
d="M292 801l3 16h240l-3 -16h-240zM466 0l116 660l-505 -660h-21l123 700h20l-116 -660l505 660h21l-123 -700h-20z" />
    <glyph glyph-name="uni041A" unicode="&#x41a;" horiz-adv-x="556" 
d="M615 700l-454 -343l341 -357h-25l-339 354l-62 -354h-20l123 700h20l-59 -335l445 335h30z" />
    <glyph glyph-name="uni041B" unicode="&#x41b;" horiz-adv-x="645" 
d="M-19 -2l3 18q73 -6 126 53t79 201l75 430h360l-123 -700h-20l120 682h-320l-72 -412q-25 -140 -80 -210t-148 -62z" />
    <glyph glyph-name="uni041C" unicode="&#x41c;" horiz-adv-x="820" 
d="M799 700l-123 -700h-20l118 669l-376 -538h-18l-186 538l-118 -669h-20l123 700h20h4l189 -544l379 544h28z" />
    <glyph glyph-name="uni041D" unicode="&#x41d;" horiz-adv-x="640" 
d="M599 700h20l-123 -700h-20l62 351h-400l-62 -351h-20l123 700h20l-58 -331h400z" />
    <glyph glyph-name="uni041E" unicode="&#x41e;" horiz-adv-x="840" 
d="M375 -10q-149 0 -236 107t-61 256t149.5 253t272.5 104q148 0 235.5 -107t61.5 -256t-149.5 -253t-272.5 -104zM377 8q141 0 257.5 100t142.5 242q25 142 -56.5 242t-222.5 100t-258 -100t-142 -242t56.5 -242t222.5 -100z" />
    <glyph glyph-name="uni041F" unicode="&#x41f;" horiz-adv-x="640" 
d="M619 700l-123 -700h-20l120 682h-400l-120 -682h-20l123 700h20h420z" />
    <glyph glyph-name="uni0420" unicode="&#x420;" horiz-adv-x="570" 
d="M399 700q80 0 130 -60.5t35 -142.5q-14 -83 -82 -140t-153 -57h-200l-53 -300h-20l123 700h20h200zM544 500q14 75 -29.5 128.5t-118.5 53.5h-200l-64 -364h200q75 0 137 53.5t75 128.5z" />
    <glyph glyph-name="uni0421" unicode="&#x421;" horiz-adv-x="778" 
d="M374 -10q-154 0 -238.5 105.5t-57.5 256.5q27 152 146 255t277 103q106 0 184 -58.5t96 -151.5h-21q-19 86 -90.5 139t-171.5 53q-147 0 -261 -99t-139 -243q-26 -143 53 -242.5t226 -99.5q101 0 191 53t139 139h22q-52 -94 -148.5 -152t-206.5 -58z" />
    <glyph glyph-name="uni0422" unicode="&#x422;" 
d="M549 700l-3 -18h-210l-120 -682h-20l120 682h-210l3 18h230h210z" />
    <glyph glyph-name="uni0423" unicode="&#x423;" horiz-adv-x="559" 
d="M596 700h22l-328 -545q-100 -166 -221 -155l3 18q107 -9 198 142l13 21l-164 519h18l159 -498z" />
    <glyph glyph-name="uni0424" unicode="&#x424;" horiz-adv-x="805" 
d="M477 622q101 -2 174.5 -33t109.5 -94t21 -149t-73 -147t-141 -90t-186 -31l-14 -78h-20l14 78q-101 2 -174 33t-109 94t-21 149q22 128 131.5 197t267.5 71l14 78h20zM762 350q21 116 -56.5 184t-231.5 70l-89 -508q154 2 255 69.5t122 184.5zM78 350q-21 -116 56.5 -184
t230.5 -70l89 508q-153 -2 -254 -70t-122 -184z" />
    <glyph glyph-name="uni0425" unicode="&#x425;" horiz-adv-x="560" 
d="M600 700l-291 -345l177 -355h-20l-169 340l-287 -340h-24l302 358l-170 342h20l162 -327l276 327h24z" />
    <glyph glyph-name="uni0426" unicode="&#x426;" horiz-adv-x="650" 
d="M499 18h70l-28 -162h-20l25 144h-490l123 700h20l-120 -682h400l120 682h20z" />
    <glyph glyph-name="uni0427" unicode="&#x427;" horiz-adv-x="620" 
d="M579 700h20l-123 -700h-20l55 315q-105 -45 -207 -45q-103 0 -152 54t-35 136l42 240h20l-42 -240q-14 -77 31 -124.5t139 -47.5t208 49v-1z" />
    <glyph glyph-name="uni0428" unicode="&#x428;" horiz-adv-x="930" 
d="M889 700h20l-123 -700h-730l123 700h20l-120 -682h335l120 682h20l-120 -682h335z" />
    <glyph glyph-name="uni0429" unicode="&#x429;" horiz-adv-x="940" 
d="M789 18h70l-28 -162h-20l25 144h-780l123 700h20l-120 -682h335l120 682h20l-120 -682h335l120 682h20z" />
    <glyph glyph-name="uni042A" unicode="&#x42a;" horiz-adv-x="670" 
d="M156 0l120 682h-200l3 18h220l-53 -300h201q79 0 129 -60.5t35 -142.5q-14 -83 -82 -140t-153 -57h-220zM179 18h200q75 0 137 53.5t75 128.5q14 75 -29.5 128.5t-118.5 53.5h-200z" />
    <glyph glyph-name="uni042B" unicode="&#x42b;" horiz-adv-x="730" 
d="M56 0l123 700h20l-53 -300h201q79 0 129 -60.5t35 -142.5q-14 -83 -82 -140t-153 -57h-220zM566 0l123 700h20l-123 -700h-20zM79 18h200q75 0 137 53.5t75 128.5q14 75 -29.5 128.5t-118.5 53.5h-200z" />
    <glyph glyph-name="uni042C" unicode="&#x42c;" horiz-adv-x="570" 
d="M347 400q79 0 129 -60.5t35 -142.5q-14 -83 -82 -140t-153 -57h-210h-10l123 700h20l-53 -300h201zM491 200q14 75 -29.5 128.5t-118.5 53.5h-200l-64 -364h200q75 0 137 53.5t75 128.5z" />
    <glyph glyph-name="uni042D" unicode="&#x42d;" horiz-adv-x="788" 
d="M449 710q152 0 237 -105.5t59 -256.5q-27 -152 -146 -255t-277 -103q-106 0 -184 58.5t-96 151.5h21q19 -86 90.5 -139t171.5 -53q145 0 258 96.5t140 236.5h-417l3 18h418q21 141 -58 237t-223 96q-101 0 -191 -53t-139 -139h-22q53 95 148.5 152.5t206.5 57.5z" />
    <glyph glyph-name="uni042E" unicode="&#x42e;" horiz-adv-x="1060" 
d="M720 710q148 0 235.5 -107t61.5 -256t-149.5 -253t-272.5 -104q-148 0 -235.5 106t-61.5 255h-160l-62 -351h-20l123 700h20l-58 -331h160q32 143 153 242t266 99zM997 350q25 142 -56.5 242t-222.5 100t-258 -100t-142 -242t56.5 -242t222.5 -100t257.5 100t142.5 242z
" />
    <glyph glyph-name="uni042F" unicode="&#x42f;" horiz-adv-x="610" 
d="M589 700l-123 -700h-20l53 300h-161l-315 -300h-27l315 300h-12q-80 0 -129.5 62t-35.5 144q15 83 81 138.5t154 55.5h220zM302 318h200l64 364h-200q-76 0 -137 -52t-75 -127q-13 -75 31 -130t117 -55z" />
    <glyph glyph-name="uni0430" unicode="&#x430;" 
d="M296 510q73 0 116 -46t28 -129l-59 -335h-20l12 67q-51 -77 -185 -77q-75 0 -119.5 41t-32.5 112q12 70 70.5 109.5t134.5 39.5q59 0 100.5 -21.5t56.5 -61.5l22 126q13 74 -22 115.5t-105 41.5q-69 0 -118.5 -37t-60.5 -100h-20q12 69 67 112t135 43zM191 8q73 0 126 30
t68 96l2 14q8 65 -35.5 95.5t-113.5 30.5q-72 0 -121.5 -36.5t-60.5 -96.5t26 -96.5t109 -36.5z" />
    <glyph glyph-name="uni0431" unicode="&#x431;" horiz-adv-x="580" 
d="M252 -11q-105 0 -164 70.5t-39 185.5q15 84 67.5 151t117.5 107.5t129 72.5t110 62.5t51 60.5h22q-5 -32 -45 -62.5t-97 -59.5l-116.5 -62t-114.5 -84.5t-82 -113.5q44 63 112 100t137 37q99 0 156 -67t39 -168q-18 -102 -95 -166t-188 -64zM255 7q99 0 171.5 59.5
t88.5 154.5q16 93 -34.5 154t-143.5 61q-81 0 -157 -53.5t-111 -137.5q-18 -105 34 -171.5t152 -66.5z" />
    <glyph glyph-name="uni0432" unicode="&#x432;" horiz-adv-x="531" 
d="M418 294q82 -38 66 -138q-13 -70 -65.5 -113t-142.5 -43h-230l88 500h180q71 0 109 -40t27 -101q-5 -32 -32 -65zM464 158q11 63 -25.5 99.5t-110.5 36.5h-210l3 18h210q36 0 69 -10q24 27 30 59q10 55 -22.5 88t-96.5 33h-160l-82 -464h210q75 0 124.5 37.5t60.5 102.5z
" />
    <glyph glyph-name="uni0433" unicode="&#x433;" horiz-adv-x="380" 
d="M414 500l-3 -18h-260l-85 -482h-20l88 500h280z" />
    <glyph glyph-name="uni0434" unicode="&#x434;" horiz-adv-x="571" 
d="M419 18h71l-29 -162h-20l26 144h-71h-389l-26 -144h-20l29 162h53q74 84 99 225l45 257h20h288h9zM69 18h330l82 464h-277l-42 -239q-26 -141 -93 -225z" />
    <glyph glyph-name="uni0435" unicode="&#x435;" horiz-adv-x="579" 
d="M343 510q108 0 161.5 -77.5t34.5 -184.5q-2 -6 -2 -10h-18h-451q-13 -102 40 -166t151 -64q72 0 131.5 33t89.5 88h21q-33 -65 -98.5 -102t-146.5 -37q-109 0 -167.5 74.5t-38.5 187.5q20 112 101 185t192 73zM71 256h451q13 106 -37 171t-144 65q-98 0 -174 -66
t-96 -170z" />
    <glyph glyph-name="uni0436" unicode="&#x436;" horiz-adv-x="640" 
d="M648 500l-296 -242l214 -258h-23l-210 253l-45 -253h-20l44 253l-298 -253h-28l309 262l-207 238h23l204 -233l41 233h20l-41 -234l285 234h28z" />
    <glyph glyph-name="uni0437" unicode="&#x437;" horiz-adv-x="431" 
d="M386 365q-9 -50 -54 -89q66 -44 50 -132q-12 -65 -68.5 -109.5t-140.5 -44.5q-87 0 -130 45.5t-31 112.5h20q-11 -63 28.5 -101.5t115.5 -38.5q70 0 122.5 39t63.5 101q11 63 -25 99.5t-106 36.5h-25l3 18h25q45 0 80 -16q44 33 52 81q10 54 -22 89.5t-89 35.5
q-63 0 -106.5 -34.5t-53.5 -90.5h-20q11 63 60.5 103t122.5 40q66 0 102 -42.5t26 -102.5z" />
    <glyph glyph-name="uni0438" unicode="&#x438;" horiz-adv-x="550" 
d="M482 500h22l-88 -500h-20l82 467l-410 -467h-22l88 500h20l-82 -467z" />
    <glyph glyph-name="uni0439" unicode="&#x439;" horiz-adv-x="550" 
d="M217 601l3 16h240l-3 -16h-240zM482 500h22l-88 -500h-20l82 467l-410 -467h-22l88 500h20l-82 -467z" />
    <glyph glyph-name="uni043A" unicode="&#x43a;" horiz-adv-x="461" 
d="M470 500l-337 -242l254 -258h-26l-250 254l-45 -254h-20l88 500h20l-41 -234l326 234h31z" />
    <glyph glyph-name="uni043B" unicode="&#x43b;" horiz-adv-x="540" 
d="M494 500l-88 -500h-20l85 482h-262l-49 -279q-21 -118 -68 -163.5t-116 -39.5l3 18q64 -5 104 41t57 144l52 297h20h282z" />
    <glyph glyph-name="uni043C" unicode="&#x43c;" horiz-adv-x="650" 
d="M604 500l-88 -500h-20l83 472l-271 -367h-16l-143 369l-83 -474h-20l88 500h20h5l144 -371l272 371h29z" />
    <glyph glyph-name="uni043D" unicode="&#x43d;" horiz-adv-x="550" 
d="M484 500h20l-88 -500h-20l42 241h-330l-42 -241h-20l88 500h20l-42 -241h330z" />
    <glyph glyph-name="uni043E" unicode="&#x43e;" horiz-adv-x="622" 
d="M266 -10q-108 0 -171 77t-44 187t107 183t198 73q108 0 171 -77t44 -187t-107 -183t-198 -73zM268 8q101 0 183 70t100 172t-39.5 172t-157.5 70q-101 0 -183 -70t-100 -172t39.5 -172t157.5 -70z" />
    <glyph glyph-name="uni043F" unicode="&#x43f;" horiz-adv-x="550" 
d="M504 500l-88 -500h-20l85 482h-330l-85 -482h-20l88 500h20h350z" />
    <glyph glyph-name="uni0440" unicode="&#x440;" horiz-adv-x="662" 
d="M387 510q107 0 174.5 -81.5t48.5 -191.5t-101.5 -178.5t-193.5 -68.5q-83 0 -143.5 51t-75.5 130l-65 -371h-20l123 700h20l-25 -140q39 70 107 110t151 40zM590 240q18 102 -43.5 177t-162.5 75t-177.5 -65t-94.5 -167t43.5 -177t162.5 -75t177.5 65t94.5 167z" />
    <glyph glyph-name="uni0441" unicode="&#x441;" horiz-adv-x="581" 
d="M522 140q-35 -69 -103.5 -109.5t-153.5 -40.5q-111 0 -172.5 76t-41.5 187q20 110 107 183.5t199 73.5q80 0 136 -42t67 -108h-20q-11 60 -60.5 96t-125.5 36q-104 0 -184.5 -69.5t-98.5 -172.5t37.5 -172.5t159.5 -69.5q74 0 137.5 36t96.5 96h20z" />
    <glyph glyph-name="uni0442" unicode="&#x442;" horiz-adv-x="400" 
d="M424 500l-3 -18h-170l-85 -482h-20l85 482h-170l3 18h190h170z" />
    <glyph glyph-name="uni0443" unicode="&#x443;" horiz-adv-x="490" 
d="M497 500h22l-294 -545q-41 -75 -99 -117.5t-120 -37.5l3 18q53 -5 107 34t91 108l9 16l-127 524h19l121 -500z" />
    <glyph glyph-name="uni0444" unicode="&#x444;" horiz-adv-x="672" 
d="M392 512q119 -4 183.5 -80t45.5 -186t-108.5 -182.5t-212.5 -75.5l-33 -188h-20l33 188q-119 4 -183.5 80t-45.5 186t108.5 182.5t212.5 75.5l33 188h20zM71 250q-18 -104 41.5 -172.5t170.5 -71.5l86 488q-113 -4 -196.5 -72t-101.5 -172zM601 250q18 104 -41.5 172.5
t-170.5 71.5l-86 -488q113 4 196.5 72.5t101.5 171.5z" />
    <glyph glyph-name="uni0445" unicode="&#x445;" horiz-adv-x="450" 
d="M454 500l-217 -244l139 -256h-20l-131 242l-215 -242h-24l229 258l-131 242h20l124 -228l202 228h24z" />
    <glyph glyph-name="uni0446" unicode="&#x446;" horiz-adv-x="570" 
d="M409 18h80l-28 -162h-20l25 144h-420l88 500h20l-85 -482h320l85 482h20z" />
    <glyph glyph-name="uni0447" unicode="&#x447;" horiz-adv-x="520" 
d="M454 500h20l-88 -500h-20l36 205q-83 -35 -163 -35q-83 0 -125.5 43t-29.5 117l30 170h20l-30 -170q-11 -66 25 -104t113 -38q75 0 164 40z" />
    <glyph glyph-name="uni0448" unicode="&#x448;" horiz-adv-x="770" 
d="M704 500h20l-88 -500h-20h-285h-273h-12l88 500h20l-85 -482h265l85 482h20l-85 -482h265z" />
    <glyph glyph-name="uni0449" unicode="&#x449;" horiz-adv-x="790" 
d="M639 18h70l-1 -9l-27 -153h-20l25 144h-70h-285h-273h-12l88 500h20l-85 -482h265l85 482h20l-85 -482h265l85 482h20z" />
    <glyph glyph-name="uni044A" unicode="&#x44a;" horiz-adv-x="540" 
d="M347 298q65 0 106 -42.5t29 -108.5q-12 -67 -65.5 -107t-122.5 -40h-174h-14l85 482h-150l3 18h160h10l-36 -202h169zM462 150q10 57 -23.5 93.5t-95.5 36.5h-168l-46 -262h168q62 0 108.5 37.5t56.5 94.5z" />
    <glyph glyph-name="uni044B" unicode="&#x44b;" horiz-adv-x="640" 
d="M287 298q65 0 106 -42.5t29 -108.5q-12 -67 -65.5 -107t-122.5 -40h-174h-14l88 500h20l-36 -202h169zM574 500h20l-88 -500h-20zM402 150q10 57 -23.5 93.5t-95.5 36.5h-168l-46 -262h168q62 0 108.5 37.5t56.5 94.5z" />
    <glyph glyph-name="uni044C" unicode="&#x44c;" horiz-adv-x="480" 
d="M287 298q65 0 106 -42.5t29 -108.5q-12 -67 -65.5 -107t-122.5 -40h-174h-14l88 500h20l-36 -202h169zM402 150q10 57 -23.5 93.5t-95.5 36.5h-168l-46 -262h168q62 0 108.5 37.5t56.5 94.5z" />
    <glyph glyph-name="uni044D" unicode="&#x44d;" horiz-adv-x="581" 
d="M316 510q111 0 172.5 -76t41.5 -187q-20 -110 -107 -183.5t-199 -73.5q-80 0 -136 42t-67 108h20q11 -60 60.5 -96t125.5 -36q101 0 181 66.5t100 166.5h-277l4 18h276q14 100 -41.5 166.5t-156.5 66.5q-74 0 -137.5 -36t-96.5 -96h-20q35 69 103.5 109.5t153.5 40.5z
" />
    <glyph glyph-name="uni044E" unicode="&#x44e;" horiz-adv-x="810" 
d="M544 510q108 0 171 -77t44 -187t-107 -183t-198 -73q-105 0 -168 72.5t-49 178.5h-129l-42 -241h-20l88 500h20l-42 -241h128q21 108 108.5 179.5t195.5 71.5zM739 250q18 102 -39.5 172t-157.5 70q-101 0 -183 -70t-100 -172t39.5 -172t157.5 -70q101 0 183 70t100 172z
" />
    <glyph glyph-name="uni044F" unicode="&#x44f;" 
d="M454 500l-88 -500h-20l36 202h-153l-215 -202h-28l218 202q-61 4 -99.5 46t-26.5 105q12 67 66 107t122 40h188zM217 220h168l46 262h-168q-61 0 -108 -37.5t-57 -94.5t23.5 -93.5t95.5 -36.5z" />
    <glyph glyph-name="uni0451" unicode="&#x451;" horiz-adv-x="579" 
d="M286 640l-11 -60h-20l11 60h20zM466 640l-11 -60h-20l11 60h20zM343 510q108 0 161.5 -77.5t34.5 -184.5q-2 -6 -2 -10h-18h-451q-13 -102 40 -166t151 -64q72 0 131.5 33t89.5 88h21q-33 -65 -98.5 -102t-146.5 -37q-109 0 -167.5 74.5t-38.5 187.5q20 112 101 185
t192 73zM71 256h451q13 106 -37 171t-144 65q-98 0 -174 -66t-96 -170z" />
    <glyph glyph-name="uni0452" unicode="&#x452;" horiz-adv-x="550" 
d="M361 510q69 0 109 -45.5t25 -127.5l-75 -427q-11 -63 -51 -95.5t-109 -24.5l3 18q117 -13 137 102l75 427q13 72 -19 113.5t-98 41.5q-75 0 -139 -54.5t-82 -146.5l-51 -291h-20l105 595h-80l3 17h80l15 88h20l-15 -88h180l-3 -17h-180l-38 -216q32 65 90 98t118 33z" />
    <glyph glyph-name="uni0453" unicode="&#x453;" horiz-adv-x="380" 
d="M360 690l-103 -120h-19l100 120h22zM414 500l-3 -18h-260l-85 -482h-20l88 500h280z" />
    <glyph glyph-name="uni0454" unicode="&#x454;" horiz-adv-x="581" 
d="M344 492q-104 0 -179 -64.5t-93 -167.5v-1h277l-4 -18h-276q-9 -97 51 -165t158 -68q73 0 131.5 35.5t92.5 96.5h20q-35 -70 -99 -110t-148 -40q-111 0 -177 81t-46 192q20 110 101.5 178.5t193.5 68.5q80 0 137.5 -41.5t75.5 -108.5h-20q-19 61 -70 96.5t-126 35.5z" />
    <glyph glyph-name="uni0455" unicode="&#x455;" horiz-adv-x="471" 
d="M280 510q74 0 114 -38.5t29 -96.5h-20q10 53 -25 85t-100 32q-68 0 -114 -29.5t-56 -82.5q-6 -34 8.5 -57t41.5 -35t60.5 -21l67 -18.5t60 -24t40 -41.5t6.5 -67q-10 -58 -64.5 -92t-137.5 -34q-80 0 -124 38.5t-33 96.5h20q-9 -53 29.5 -85t109.5 -32q73 0 122 30t58 82
q7 41 -12.5 67t-54.5 36.5l-76 22.5t-75.5 24t-54 41t-11.5 73q11 58 62.5 92t129.5 34z" />
    <glyph glyph-name="uni0456" unicode="&#x456;" horiz-adv-x="200" 
d="M152 600l17 100h20l-17 -100h-20zM46 0l88 500h20l-88 -500h-20z" />
    <glyph glyph-name="uni0457" unicode="&#x457;" horiz-adv-x="200" 
d="M58 580l11 60h20l-11 -60h-20zM238 580l11 60h20l-11 -60h-20zM46 0l88 500h20l-88 -500h-20z" />
    <glyph glyph-name="uni0458" unicode="&#x458;" horiz-adv-x="209" 
d="M178 700h20l-17 -100h-20zM39 -90l104 590h20l-104 -590q-11 -63 -51 -95.5t-109 -24.5l3 18q117 -13 137 102z" />
    <glyph glyph-name="uni0459" unicode="&#x459;" horiz-adv-x="791" 
d="M603 278q63 0 101 -38t27 -104q-12 -66 -61.5 -101t-115.5 -35h-164h-14l85 482h-252l-49 -279q-21 -119 -68 -164.5t-116 -38.5l3 18q64 -5 103.5 40t57.5 145l52 297h20h262h10l-39 -222h158zM711 140q10 56 -21 88t-90 32h-158l-43 -242h158q59 0 101.5 33t52.5 89z
" />
    <glyph glyph-name="uni045A" unicode="&#x45a;" horiz-adv-x="791" 
d="M603 278q63 0 101 -38t27 -104q-12 -66 -61.5 -101t-115.5 -35h-164h-14l46 260h-310l-46 -260h-20l88 500h20l-39 -222h310l39 222h20l-39 -222h158zM711 140q10 56 -21 88t-90 32h-158l-43 -242h158q59 0 101.5 33t52.5 89z" />
    <glyph glyph-name="uni045B" unicode="&#x45b;" horiz-adv-x="555" 
d="M361 510q69 0 109 -45.5t25 -127.5l-59 -337h-20l59 337q13 72 -19 113.5t-98 41.5q-75 0 -139 -54.5t-82 -146.5l-51 -291h-20l105 595h-80l3 17h80l15 88h20l-15 -88h180l-3 -17h-180l-38 -216q32 65 90 98t118 33z" />
    <glyph glyph-name="uni045C" unicode="&#x45c;" horiz-adv-x="461" 
d="M380 690l-103 -120h-19l100 120h22zM470 500l-337 -242l254 -258h-26l-250 254l-45 -254h-20l88 500h20l-41 -234l326 234h31z" />
    <glyph glyph-name="uni045E" unicode="&#x45e;" horiz-adv-x="490" 
d="M443 617l-3 -16h-240l3 16h240zM497 500h22l-294 -545q-41 -75 -99 -117.5t-120 -37.5l3 18q53 -5 107 34t91 108l9 16l-127 524h19l121 -500z" />
    <glyph glyph-name="uni045F" unicode="&#x45f;" horiz-adv-x="550" 
d="M484 500h20l-88 -500h-20h-155l-25 -144h-20l25 144h-167h-8l88 500h20l-85 -482h330z" />
    <glyph glyph-name="uni0490" unicode="&#x490;" horiz-adv-x="490" 
d="M561 820l-23 -130h-1l-1 -8h-340l-120 -682h-20l123 700h341l21 120h20z" />
    <glyph glyph-name="uni0491" unicode="&#x491;" horiz-adv-x="380" 
d="M413 604h20l-22 -122h-260l-85 -482h-20l88 500h260z" />
    <glyph glyph-name="Wgrave" unicode="&#x1e80;" horiz-adv-x="860" 
d="M548 770h-16l-64 120h20zM888 700h21l-352 -700h-26l-67 442l-223 -442h-26l-106 700h19l103 -678l228 452l-34 226h19l103 -678z" />
    <glyph glyph-name="wgrave" unicode="&#x1e81;" horiz-adv-x="670" 
d="M422 570h-16l-64 120h20zM672 500h22l-272 -500h-22l-57 296l-161 -296h-22l-96 500h20l91 -473l163 298l-34 175h19l91 -474z" />
    <glyph glyph-name="Wacute" unicode="&#x1e82;" horiz-adv-x="860" 
d="M620 890l-103 -120h-19l100 120h22zM888 700h21l-352 -700h-26l-67 442l-223 -442h-26l-106 700h19l103 -678l228 452l-34 226h19l103 -678z" />
    <glyph glyph-name="wacute" unicode="&#x1e83;" horiz-adv-x="670" 
d="M494 690l-103 -120h-19l100 120h22zM672 500h22l-272 -500h-22l-57 296l-161 -296h-22l-96 500h20l91 -473l163 298l-34 175h19l91 -474z" />
    <glyph glyph-name="Wdieresis" unicode="&#x1e84;" horiz-adv-x="860" 
d="M455 840l-11 -60h-20l11 60h20zM635 840l-11 -60h-20l11 60h20zM888 700h21l-352 -700h-26l-67 442l-223 -442h-26l-106 700h19l103 -678l228 452l-34 226h19l103 -678z" />
    <glyph glyph-name="wdieresis" unicode="&#x1e85;" horiz-adv-x="670" 
d="M329 640l-11 -60h-20l11 60h20zM509 640l-11 -60h-20l11 60h20zM672 500h22l-272 -500h-22l-57 296l-161 -296h-22l-96 500h20l91 -473l163 298l-34 175h19l91 -474z" />
    <glyph glyph-name="Ygrave" unicode="&#x1ef2;" horiz-adv-x="560" 
d="M397 770h-16l-64 120h20zM619 700l-315 -371l-58 -329h-20l58 330l-185 370h21l176 -354l300 354h23z" />
    <glyph glyph-name="ygrave" unicode="&#x1ef3;" horiz-adv-x="470" 
d="M317 570l-60 120h-20l64 -120h16zM472 500h22l-395 -700h-22l114 200l-127 500h19l121 -477z" />
    <glyph glyph-name="endash" unicode="&#x2013;" horiz-adv-x="697" 
d="M109 300l3 18h497l-3 -18h-497z" />
    <glyph glyph-name="emdash" unicode="&#x2014;" horiz-adv-x="797" 
d="M109 300l3 18h597l-3 -18h-597z" />
    <glyph glyph-name="quoteleft" unicode="&#x2018;" horiz-adv-x="201" 
d="M147 627q12 68 54 78l-3 -18q-21 -10 -31 -60l-18 -100h-20z" />
    <glyph glyph-name="quoteright" unicode="&#x2019;" horiz-adv-x="201" 
d="M180 700h20l-18 -100q-12 -68 -54 -78l3 18q21 10 31 60z" />
    <glyph glyph-name="quotesinglbase" unicode="&#x201a;" horiz-adv-x="201" 
d="M67 60h20l-18 -100q-12 -68 -54 -78l3 18q21 10 31 60z" />
    <glyph glyph-name="quotedblleft" unicode="&#x201c;" horiz-adv-x="301" 
d="M147 627q12 68 54 78l-3 -18q-21 -10 -31 -60l-18 -100h-20zM247 627q12 68 54 78l-3 -18q-21 -10 -31 -60l-18 -100h-20z" />
    <glyph glyph-name="quotedblright" unicode="&#x201d;" horiz-adv-x="301" 
d="M162 600l18 100h20l-18 -100q-12 -68 -54 -78l3 18q21 10 31 60zM280 700h20l-18 -100q-12 -68 -54 -78l3 18q21 10 31 60z" />
    <glyph glyph-name="quotedblbase" unicode="&#x201e;" horiz-adv-x="301" 
d="M49 -40l18 100h20l-18 -100q-12 -68 -54 -78l3 18q21 10 31 60zM167 60h20l-18 -100q-12 -68 -54 -78l3 18q21 10 31 60z" />
    <glyph glyph-name="dagger" unicode="&#x2020;" horiz-adv-x="460" 
d="M436 512l-3 -18h-150l-87 -494h-20l87 494h-150l3 18h150l33 188h20l-33 -188h150z" />
    <glyph glyph-name="daggerdbl" unicode="&#x2021;" horiz-adv-x="460" 
d="M433 494h-150l-51 -288h150l-3 -18h-150l-33 -188h-20l33 188h-150l3 18h150l51 288h-150l3 18h150l33 188h20l-33 -188h150z" />
    <glyph glyph-name="bullet" unicode="&#x2022;" horiz-adv-x="240" 
d="M128 290q-25 0 -40 18.5t-10 44.5q4 25 24.5 41t46.5 16q25 0 39.5 -18t9.5 -43q-4 -25 -24.5 -42t-45.5 -17z" />
    <glyph glyph-name="ellipsis" unicode="&#x2026;" horiz-adv-x="561" 
d="M36 0l11 60h20l-11 -60h-20zM226 0l11 60h20l-11 -60h-20zM416 0l11 60h20l-11 -60h-20z" />
    <glyph glyph-name="perthousand" unicode="&#x2030;" horiz-adv-x="1129" 
d="M253 414q-65 0 -102 44t-26 106q11 63 61 104.5t117 41.5q65 0 102 -44t26 -106q-11 -63 -61 -104.5t-117 -41.5zM84 0l612 700h24l-613 -700h-23zM255 432q58 0 102 37t54 93t-21.5 93t-88.5 37t-101.5 -37t-54.5 -93t21.5 -93t88.5 -37zM501 -10q-65 0 -102 44t-26 106
q11 63 61 104.5t117 41.5q65 0 102 -44t26 -106q-11 -63 -61 -104.5t-117 -41.5zM871 -10q-65 0 -102 44t-26 106q11 63 61 104.5t117 41.5q65 0 102 -44t26 -106q-11 -63 -61 -104.5t-117 -41.5zM503 8q58 0 102 37t54 93t-21.5 93t-88.5 37t-101.5 -37t-54.5 -93t21.5 -93
t88.5 -37zM873 8q58 0 102 37t54 93t-21.5 93t-88.5 37t-101.5 -37t-54.5 -93t21.5 -93t88.5 -37z" />
    <glyph glyph-name="guilsinglleft" unicode="&#x2039;" horiz-adv-x="324" 
d="M263 469l-131 -162l71 -158h-21l-72 160l129 160h24z" />
    <glyph glyph-name="guilsinglright" unicode="&#x203a;" horiz-adv-x="325" 
d="M163 469l72 -160l-129 -160h-24l131 162l-71 158h21z" />
    <glyph glyph-name="fraction" unicode="&#x2044;" horiz-adv-x="240" 
d="M-121 0h-23l540 700h23z" />
    <glyph glyph-name="Euro" unicode="&#x20ac;" horiz-adv-x="622" 
d="M433 692q-94 0 -167 -69.5t-111 -194.5h296l-3 -18h-298q-6 -22 -13 -60q-4 -20 -8 -60h298l-3 -18h-296q-7 -125 41.5 -194.5t142.5 -69.5q80 0 143.5 50.5t97.5 141.5h20q-34 -98 -103.5 -154t-160.5 -56q-102 0 -155 76t-46 206h-94l3 18h92q4 42 8 62q7 36 13 58h-92
l3 18h94q38 132 116.5 207t182.5 75q88 0 139 -56.5t53 -153.5h-19q-3 91 -48.5 141.5t-125.5 50.5z" />
    <glyph glyph-name="uni20BD" unicode="&#x20bd;" horiz-adv-x="550" 
d="M389 700q80 0 129.5 -61t34.5 -143q-14 -83 -81.5 -139.5t-152.5 -56.5h-200l-22 -122h280l-3 -18h-280l-28 -160h-20l28 160h-90l3 18h90l22 122h-90l3 18h90l67 382h20h200zM534 500q13 75 -30.5 128.5t-117.5 53.5h-200l-64 -364h200q75 0 137 53.5t75 128.5z" />
    <glyph glyph-name="uni2116" unicode="&#x2116;" horiz-adv-x="966" 
d="M794 430q-59 0 -93.5 42t-24.5 100q11 58 58.5 98t109.5 40q60 0 94.5 -42t23.5 -100q-10 -59 -56.5 -98.5t-111.5 -39.5zM589 700h20l-123 -700h-20l-273 664l-117 -664h-20l123 700h20l273 -664zM798 448q53 0 94 35t50 87t-20 87t-81 35t-94 -35t-51 -87t20.5 -87
t81.5 -35zM641 314l4 18h266l-4 -18h-266z" />
    <glyph glyph-name="trademark" unicode="&#x2122;" horiz-adv-x="507" 
d="M291 700l-3 -19h-62l-32 -181h-20l32 181h-60l3 19h80h62zM516 700l-35 -200h-20l31 178l-91 -135h-17l-44 135l-31 -178h-20l35 200h20h9l42 -132l90 132h31z" />
    <glyph glyph-name="estimated" unicode="&#x212e;" horiz-adv-x="860" 
d="M511 710q161 0 247.5 -104.5t59.5 -255.5q-3 -15 -18 -15h-560q-15 0 -18 -15l-33 -192q-3 -11 3 -19q69 -89 218 -89q143 0 250 97q9 9 19 9h35q10 0 12 -6t-6 -13q-130 -117 -316 -117q-173 0 -262.5 108t-62.5 262q27 152 146.5 251t285.5 99zM708 574q1 11 -4 19
q-67 87 -198 87q-129 0 -229 -89q-9 -9 -10 -19l-34 -192q-3 -15 12 -15h410q15 0 18 15z" />
    <glyph glyph-name="oneeighth" unicode="&#x215b;" horiz-adv-x="840" 
d="M164 300l66 378l-136 -67l4 22l136 67h20l-70 -400h-20zM641 700h23l-540 -700h-23zM796 301q-12 -66 -87 -92q35 -13 53 -42t11 -68q-10 -52 -51.5 -81.5t-103.5 -29.5q-60 0 -94.5 32t-24.5 83q7 40 34.5 67.5t68.5 39.5q-30 13 -45.5 37.5t-9.5 57.5q9 51 49.5 79
t93.5 28q51 0 83 -30.5t23 -80.5zM657 218q42 0 77.5 23.5t41.5 61.5q8 42 -18 66.5t-70 24.5q-45 0 -79 -24t-42 -67q-6 -38 20.5 -61.5t69.5 -23.5zM753 101q7 45 -21 72t-78 27q-51 0 -89.5 -27t-45.5 -72q-8 -44 20 -69.5t81 -25.5q52 0 88.5 25.5t44.5 69.5z" />
    <glyph glyph-name="threeeighths" unicode="&#x215c;" horiz-adv-x="938" 
d="M331 410q-10 -53 -49.5 -87.5t-103.5 -34.5q-63 0 -93 36t-21 88h20q-8 -45 16 -75.5t79 -30.5t90 30.5t43 75.5q7 45 -17 75.5t-79 30.5h-10l3 15l132 149h-215l3 18h238l-3 -18l-131 -147q54 -4 80 -40t18 -85zM739 700h23l-540 -700h-23zM894 301q-12 -66 -87 -92
q35 -13 53 -42t11 -68q-10 -52 -51.5 -81.5t-103.5 -29.5q-60 0 -94.5 32t-24.5 83q7 40 34.5 67.5t68.5 39.5q-30 13 -45.5 37.5t-9.5 57.5q9 51 49.5 79t93.5 28q51 0 83 -30.5t23 -80.5zM755 218q42 0 77.5 23.5t41.5 61.5q8 42 -18 66.5t-70 24.5q-45 0 -79 -24t-42 -67
q-6 -38 20.5 -61.5t69.5 -23.5zM851 101q7 45 -21 72t-78 27q-51 0 -89.5 -27t-45.5 -72q-8 -44 20 -69.5t81 -25.5q52 0 88.5 25.5t44.5 69.5z" />
    <glyph glyph-name="fiveeighths" unicode="&#x215d;" horiz-adv-x="932" 
d="M325 410q-10 -54 -51.5 -88t-101.5 -34t-91.5 35t-21.5 89h20q-9 -49 17 -77.5t77 -28.5t87.5 28.5t45.5 77.5q8 49 -18.5 77.5t-77.5 28.5h-110l47 182h212l-3 -18h-194l-39 -146h90q58 0 89.5 -36t22.5 -90zM733 700h23l-540 -700h-23zM888 301q-12 -66 -87 -92
q35 -13 53 -42t11 -68q-10 -52 -51.5 -81.5t-103.5 -29.5q-60 0 -94.5 32t-24.5 83q7 40 34.5 67.5t68.5 39.5q-30 13 -45.5 37.5t-9.5 57.5q9 51 49.5 79t93.5 28q51 0 83 -30.5t23 -80.5zM749 218q42 0 77.5 23.5t41.5 61.5q8 42 -18 66.5t-70 24.5q-45 0 -79 -24t-42 -67
q-6 -38 20.5 -61.5t69.5 -23.5zM845 101q7 45 -21 72t-78 27q-51 0 -89.5 -27t-45.5 -72q-8 -44 20 -69.5t81 -25.5q52 0 88.5 25.5t44.5 69.5z" />
    <glyph glyph-name="seveneighths" unicode="&#x215e;" horiz-adv-x="931" 
d="M375 700l-3 -16l-235 -384h-22l234 382h-243l3 18h266zM732 700h23l-540 -700h-23zM887 301q-12 -66 -87 -92q35 -13 53 -42t11 -68q-10 -52 -51.5 -81.5t-103.5 -29.5q-60 0 -94.5 32t-24.5 83q7 40 34.5 67.5t68.5 39.5q-30 13 -45.5 37.5t-9.5 57.5q9 51 49.5 79
t93.5 28q51 0 83 -30.5t23 -80.5zM748 218q42 0 77.5 23.5t41.5 61.5q8 42 -18 66.5t-70 24.5q-45 0 -79 -24t-42 -67q-6 -38 20.5 -61.5t69.5 -23.5zM844 101q7 45 -21 72t-78 27q-51 0 -89.5 -27t-45.5 -72q-8 -44 20 -69.5t81 -25.5q52 0 88.5 25.5t44.5 69.5z" />
    <glyph glyph-name="arrowleft" unicode="&#x2190;" horiz-adv-x="840" 
d="M789 359l-3 -18h-666l239 -291h-24l-247 300l353 300h28l-342 -291h662z" />
    <glyph glyph-name="arrowup" unicode="&#x2191;" horiz-adv-x="740" 
d="M696 400l-4 -25l-239 290l-117 -665h-20l117 661l-342 -290l5 29l353 300z" />
    <glyph glyph-name="arrowright" unicode="&#x2192;" horiz-adv-x="840" 
d="M541 650l247 -300l-353 -300h-28l342 291h-663l3 18h667l-239 291h24z" />
    <glyph glyph-name="arrowdown" unicode="&#x2193;" horiz-adv-x="740" 
d="M343 39l341 289l-5 -28l-353 -300l-247 300l4 23l239 -290l117 667h20z" />
    <glyph glyph-name="arrowboth" unicode="&#x2194;" horiz-adv-x="1020" 
d="M770 590l198 -240l-283 -240h-28l272 231h-809l189 -231h-24l-197 240l282 240h28l-271 -231h809l-190 231h24z" />
    <glyph glyph-name="arrowupdn" unicode="&#x2195;" horiz-adv-x="640" 
d="M608 525l-188 228l-146 -806l272 232l-5 -29l-282 -240l-196 240l4 26l187 -229l146 806l-271 -232l5 29l280 240l198 -240z" />
    <glyph glyph-name="uni2196" unicode="&#x2196;" horiz-adv-x="642" 
d="M569 568h-412l388 -469l-16 -13l-386 470l-73 -412l-15 19l75 424h424z" />
    <glyph glyph-name="uni2197" unicode="&#x2197;" horiz-adv-x="642" 
d="M208 587h423l-75 -424l-23 -19l72 410l-550 -470l-12 15l551 469h-409z" />
    <glyph glyph-name="uni2198" unicode="&#x2198;" horiz-adv-x="642" 
d="M603 532l15 -19l-74 -424h-424l-16 19h412l-388 470l15 13l387 -471z" />
    <glyph glyph-name="uni2199" unicode="&#x2199;" horiz-adv-x="642" 
d="M629 575l-551 -467h410l-22 -19h-424l74 424l23 19l-72 -410l549 468z" />
    <glyph glyph-name="partialdiff" unicode="&#x2202;" horiz-adv-x="580" 
d="M317 710q116 0 177.5 -101t32.5 -263q-31 -171 -115.5 -263.5t-195.5 -92.5q-90 0 -135 61t-29 151q18 103 89 165.5t173 62.5q117 0 196 -62q21 141 -32.5 232.5t-163.5 91.5q-71 0 -126 -34l-8 16q62 36 137 36zM218 8q104 0 182 91t107 248q-83 65 -195 65
q-92 0 -158 -57.5t-83 -154.5q-15 -85 26 -138.5t121 -53.5z" />
    <glyph glyph-name="emptyset" unicode="&#x2205;" horiz-adv-x="844" 
d="M824 720l-100 -100q50 -50 70.5 -121.5t6.5 -151.5q-27 -150 -149 -253.5t-274 -103.5q-125 0 -210 77l-87 -87h-26l100 99q-50 51 -71 122.5t-6 151.5q26 150 148.5 253.5t274.5 103.5q123 0 210 -77l87 87h26zM98 350q-27 -156 70 -257l529 527q-78 72 -197 72
q-142 0 -259.5 -100t-142.5 -242zM781 350q13 76 -6 142.5t-64 114.5l-530 -527q80 -72 198 -72q142 0 259.5 100t142.5 242z" />
    <glyph glyph-name="product" unicode="&#x220f;" horiz-adv-x="640" 
d="M21 -200l158 900h440l-158 -900h-20l155 882h-400l-155 -882h-20z" />
    <glyph glyph-name="summation" unicode="&#x2211;" horiz-adv-x="542" 
d="M-9 -200l3 20l357 443l-192 423l3 14h404l-3 -18h-384l193 -423l-356 -441h410l-3 -18h-432z" />
    <glyph glyph-name="minus" unicode="&#x2212;" horiz-adv-x="540" 
d="M86 341l3 18h400l-3 -18h-400z" />
    <glyph glyph-name="radical" unicode="&#x221a;" horiz-adv-x="629" 
d="M270 0l-118 282h-76l3 18h84l118 -280l393 780h22l-404 -800h-22z" />
    <glyph glyph-name="infinity" unicode="&#x221e;" horiz-adv-x="819" 
d="M645 500q62 0 97.5 -42.5t23.5 -109.5t-59.5 -107.5t-110.5 -40.5q-32 0 -59 12t-48.5 35.5t-33.5 41t-29 46.5q-28 -31 -44.5 -47t-46.5 -40.5t-61 -36t-65 -11.5q-63 0 -98 42.5t-23 109.5t59.5 107.5t110.5 40.5q26 0 50 -9.5t40 -21t33.5 -33t26 -35l22.5 -36.5
l34 37t36 34t44.5 34t46 20.5t54.5 9.5zM210 218q30 0 59 11t58.5 35.5t44.5 39t45 47.5q-17 30 -28 46t-31 39.5t-45 34.5t-56 11q-56 0 -97 -36.5t-52 -95.5q-10 -58 18 -95t84 -37zM746 350q11 59 -17.5 95.5t-84.5 36.5q-30 0 -58.5 -11t-57.5 -35.5t-44.5 -40
l-44.5 -46.5q16 -29 27 -46t31 -40t45 -34t55 -11q56 0 97 36.5t52 95.5z" />
    <glyph glyph-name="integral" unicode="&#x222b;" horiz-adv-x="431" 
d="M-80 -204l4 20q47 -23 90.5 3.5t66.5 92.5l237 680q26 75 77.5 104t115.5 7l-3 -19q-56 22 -101.5 -3.5t-68.5 -92.5l-237 -680q-25 -73 -75.5 -103t-105.5 -9z" />
    <glyph glyph-name="approxequal" unicode="&#x2248;" horiz-adv-x="572" 
d="M313 422q-35 28 -66.5 36t-52.5 1.5t-39.5 -23.5t-27.5 -30.5t-16 -29.5l-17 8q7 16 17 32.5t31 35.5t45 27.5t60 -0.5t75 -41q35 -28 66.5 -36.5t52.5 -1.5t39.5 23.5t27.5 31t16 29.5l18 -8q-7 -16 -17 -32.5t-31 -35.5t-45 -27t-60.5 1t-75.5 40zM83 216l-18 8
q6 13 14 26t22.5 30.5t33.5 27.5t42 14.5t53.5 -6.5t63.5 -38q35 -28 66.5 -36.5t52.5 -1.5t39.5 23.5t27.5 31t16 29.5l18 -8q-7 -16 -17 -32t-31 -35.5t-45 -27.5t-60 1t-76 40q-35 28 -67 36t-53 1.5t-39.5 -23.5t-27 -31t-15.5 -29z" />
    <glyph glyph-name="notequal" unicode="&#x2260;" horiz-adv-x="530" 
d="M494 441h-137l-116 -182h221l-4 -18h-229l-106 -166h-22l106 166h-139l4 18h147l116 182h-231l3 18h240l106 166h22l-106 -166h128z" />
    <glyph glyph-name="lessequal" unicode="&#x2264;" horiz-adv-x="540" 
d="M527 580l-3 -21l-404 -152l350 -152l-3 -19l-371 163l4 18zM47 120l3 18h399l-3 -18h-399z" />
    <glyph glyph-name="greaterequal" unicode="&#x2265;" horiz-adv-x="540" 
d="M128 580l371 -163l-4 -18l-427 -163l3 21l404 152l-350 152zM47 120l3 18h399l-3 -18h-399z" />
    <glyph glyph-name="lozenge" unicode="&#x25ca;" horiz-adv-x="534" 
d="M213 0l-125 350l248 350h20l126 -350l-249 -350h-20zM225 23l235 330l-116 324l-234 -330z" />
    <glyph glyph-name="i.loclTRK" horiz-adv-x="200" 
d="M148 580l13 70h20l-13 -70h-20zM46 0l88 500h20l-88 -500h-20z" />
    <glyph glyph-name="a.ss01" horiz-adv-x="662" 
d="M596 500h20l-88 -500h-20l25 141q-39 -70 -107 -110.5t-151 -40.5q-108 0 -175 81.5t-48 191.5t101.5 178.5t193.5 68.5q83 0 143.5 -51t75.5 -131zM278 8q101 0 177.5 65t94.5 167t-43.5 177t-162.5 75t-177.5 -65t-94.5 -167t43.5 -177t162.5 -75z" />
    <glyph glyph-name="aacute.ss01" horiz-adv-x="662" 
d="M464 690l-103 -120h-19l100 120h22zM596 500h20l-88 -500h-20l25 141q-39 -70 -107 -110.5t-151 -40.5q-108 0 -175 81.5t-48 191.5t101.5 178.5t193.5 68.5q83 0 143.5 -51t75.5 -131zM278 8q101 0 177.5 65t94.5 167t-43.5 177t-162.5 75t-177.5 -65t-94.5 -167
t43.5 -177t162.5 -75z" />
    <glyph glyph-name="abreve.ss01" horiz-adv-x="662" 
d="M370 572q-54 0 -83.5 29t-21.5 76h18q-7 -40 17 -64.5t70 -24.5t78 24.5t39 64.5h18q-8 -48 -44.5 -76.5t-90.5 -28.5zM596 500h20l-88 -500h-20l25 141q-39 -70 -107 -110.5t-151 -40.5q-108 0 -175 81.5t-48 191.5t101.5 178.5t193.5 68.5q83 0 143.5 -51t75.5 -131z
M278 8q101 0 177.5 65t94.5 167t-43.5 177t-162.5 75t-177.5 -65t-94.5 -167t43.5 -177t162.5 -75z" />
    <glyph glyph-name="acircumflex.ss01" horiz-adv-x="662" 
d="M386 678l-120 -108h-24l133 120h22l91 -120h-20zM596 500h20l-88 -500h-20l25 141q-39 -70 -107 -110.5t-151 -40.5q-108 0 -175 81.5t-48 191.5t101.5 178.5t193.5 68.5q83 0 143.5 -51t75.5 -131zM278 8q101 0 177.5 65t94.5 167t-43.5 177t-162.5 75t-177.5 -65
t-94.5 -167t43.5 -177t162.5 -75z" />
    <glyph glyph-name="adieresis.ss01" horiz-adv-x="662" 
d="M299 640l-11 -60h-20l11 60h20zM479 640l-11 -60h-20l11 60h20zM596 500h20l-88 -500h-20l25 141q-39 -70 -107 -110.5t-151 -40.5q-108 0 -175 81.5t-48 191.5t101.5 178.5t193.5 68.5q83 0 143.5 -51t75.5 -131zM278 8q101 0 177.5 65t94.5 167t-43.5 177t-162.5 75
t-177.5 -65t-94.5 -167t43.5 -177t162.5 -75z" />
    <glyph glyph-name="agrave.ss01" horiz-adv-x="662" 
d="M392 570h-16l-64 120h20zM596 500h20l-88 -500h-20l25 141q-39 -70 -107 -110.5t-151 -40.5q-108 0 -175 81.5t-48 191.5t101.5 178.5t193.5 68.5q83 0 143.5 -51t75.5 -131zM278 8q101 0 177.5 65t94.5 167t-43.5 177t-162.5 75t-177.5 -65t-94.5 -167t43.5 -177
t162.5 -75z" />
    <glyph glyph-name="amacron.ss01" horiz-adv-x="662" 
d="M495 617l-3 -16h-240l3 16h240zM596 500h20l-88 -500h-20l25 141q-39 -70 -107 -110.5t-151 -40.5q-108 0 -175 81.5t-48 191.5t101.5 178.5t193.5 68.5q83 0 143.5 -51t75.5 -131zM278 8q101 0 177.5 65t94.5 167t-43.5 177t-162.5 75t-177.5 -65t-94.5 -167t43.5 -177
t162.5 -75z" />
    <glyph glyph-name="aogonek.ss01" horiz-adv-x="662" 
d="M528 0q-112 -83 -122 -144q-4 -23 8 -36.5t35 -13.5q27 0 46 9l-3 -17q-19 -8 -46 -8q-31 0 -47.5 19t-10.5 49q11 69 122 151l23 132q-39 -70 -107 -110.5t-151 -40.5q-108 0 -175 81.5t-48 191.5t101.5 178.5t193.5 68.5q83 0 143.5 -51t75.5 -131l30 172h20zM278 8
q101 0 177.5 65t94.5 167t-43.5 177t-162.5 75t-177.5 -65t-94.5 -167t43.5 -177t162.5 -75z" />
    <glyph glyph-name="aring.ss01" horiz-adv-x="662" 
d="M365 560q-42 0 -64 25.5t-15 64.5t37.5 64.5t72.5 25.5q43 0 65 -25.5t15 -64.5t-37.5 -64.5t-73.5 -25.5zM304 650q-6 -33 11.5 -53.5t52.5 -20.5q34 0 59 20.5t31 53.5q5 33 -12.5 53.5t-51.5 20.5q-35 0 -60 -20.5t-30 -53.5zM596 500h20l-88 -500h-20l25 141
q-39 -70 -107 -110.5t-151 -40.5q-108 0 -175 81.5t-48 191.5t101.5 178.5t193.5 68.5q83 0 143.5 -51t75.5 -131zM278 8q101 0 177.5 65t94.5 167t-43.5 177t-162.5 75t-177.5 -65t-94.5 -167t43.5 -177t162.5 -75z" />
    <glyph glyph-name="atilde.ss01" horiz-adv-x="662" 
d="M372 626q-39 47 -71 34.5t-42 -70.5h-17q12 71 54.5 87t85.5 -39q38 -46 71 -33t43 69h17q-12 -69 -55 -85.5t-86 37.5zM596 500h20l-88 -500h-20l25 141q-39 -70 -107 -110.5t-151 -40.5q-108 0 -175 81.5t-48 191.5t101.5 178.5t193.5 68.5q83 0 143.5 -51t75.5 -131z
M278 8q101 0 177.5 65t94.5 167t-43.5 177t-162.5 75t-177.5 -65t-94.5 -167t43.5 -177t162.5 -75z" />
    <glyph glyph-name="ae.ss01" horiz-adv-x="1081" 
d="M848 510q108 0 160 -77t33 -185q-2 -6 -2 -10h-18h-451q-13 -102 41 -166t152 -64q71 0 130 33t89 88h21q-32 -65 -96.5 -102t-146.5 -37q-83 0 -138 44.5t-69 119.5l-27 -154h-18l26 148q-41 -72 -113.5 -115t-155.5 -43q-109 0 -171 76.5t-43 186.5t107 183.5t199 73.5
q80 0 137.5 -45.5t74.5 -119.5l27 155h18l-26 -150q38 73 107 116.5t153 43.5zM268 8q101 0 183.5 70t100.5 172t-39.5 172t-158.5 70t-183 -70t-100 -172t39 -172t158 -70zM573 256h451q14 106 -35.5 171t-143.5 65q-98 0 -175 -66t-97 -170z" />
    <glyph glyph-name="y.ss01" horiz-adv-x="535" 
d="M469 500h20l-94 -535q-15 -83 -73 -129t-133 -46q-79 0 -119.5 43t-28.5 112h20q-11 -63 25.5 -100t105.5 -37t119.5 42t63.5 115l26 150q-33 -62 -90 -93.5t-117 -31.5q-71 0 -110 46t-24 127l59 337h20l-59 -337q-13 -72 19 -113.5t98 -41.5q76 0 139 54t82 148z" />
    <glyph glyph-name="yacute.ss01" horiz-adv-x="535" 
d="M414 690l-103 -120h-19l100 120h22zM469 500h20l-94 -535q-15 -83 -73 -129t-133 -46q-79 0 -119.5 43t-28.5 112h20q-11 -63 25.5 -100t105.5 -37t119.5 42t63.5 115l26 150q-33 -62 -90 -93.5t-117 -31.5q-71 0 -110 46t-24 127l59 337h20l-59 -337q-13 -72 19 -113.5
t98 -41.5q76 0 139 54t82 148z" />
    <glyph glyph-name="ycircumflex.ss01" horiz-adv-x="535" 
d="M336 678l-120 -108h-24l133 120h22l91 -120h-20zM469 500h20l-94 -535q-15 -83 -73 -129t-133 -46q-79 0 -119.5 43t-28.5 112h20q-11 -63 25.5 -100t105.5 -37t119.5 42t63.5 115l26 150q-33 -62 -90 -93.5t-117 -31.5q-71 0 -110 46t-24 127l59 337h20l-59 -337
q-13 -72 19 -113.5t98 -41.5q76 0 139 54t82 148z" />
    <glyph glyph-name="ydieresis.ss01" horiz-adv-x="535" 
d="M249 640l-11 -60h-20l11 60h20zM429 640l-11 -60h-20l11 60h20zM469 500h20l-94 -535q-15 -83 -73 -129t-133 -46q-79 0 -119.5 43t-28.5 112h20q-11 -63 25.5 -100t105.5 -37t119.5 42t63.5 115l26 150q-33 -62 -90 -93.5t-117 -31.5q-71 0 -110 46t-24 127l59 337h20
l-59 -337q-13 -72 19 -113.5t98 -41.5q76 0 139 54t82 148z" />
    <glyph glyph-name="ygrave.ss01" horiz-adv-x="535" 
d="M342 570h-16l-64 120h20zM469 500h20l-94 -535q-15 -83 -73 -129t-133 -46q-79 0 -119.5 43t-28.5 112h20q-11 -63 25.5 -100t105.5 -37t119.5 42t63.5 115l26 150q-33 -62 -90 -93.5t-117 -31.5q-71 0 -110 46t-24 127l59 337h20l-59 -337q-13 -72 19 -113.5t98 -41.5
q76 0 139 54t82 148z" />
    <glyph glyph-name="f_f_j" horiz-adv-x="758" 
d="M638 702q-83 0 -127.5 -37.5t-58.5 -114.5l-9 -50h259h10l-104 -590q-11 -62 -52 -94.5t-108 -25.5l3 18q117 -13 137 102l101 572h-249l-85 -482h-20l85 482h-249l-85 -482h-20l85 482h-90l3 18h90l7 40q15 88 67.5 132.5t141.5 37.5l-3 -18q-156 13 -186 -152l-7 -40
h249l9 50q28 170 209 170q51 0 98 -10l-3 -18q-47 10 -98 10z" />
    <glyph glyph-name="f_j" horiz-adv-x="489" 
d="M367 692q-83 0 -127.5 -37.5t-58.5 -114.5l-7 -40h259h10l-104 -590q-11 -62 -52 -94.5t-108 -25.5l3 18q117 -13 137 102l101 572h-249l-85 -482h-20l85 482h-90l3 18h90l7 40q15 86 66 128t143 42q51 0 98 -10l-3 -18q-47 10 -98 10z" />
    <glyph glyph-name="uni0414.loclBGR" horiz-adv-x="710" 
d="M639 18l-3 -18l-25 -144h-20l25 144h-56h-518h-36l-25 -144h-20l28 162h63l370 682h25l130 -682h62zM74 18h483l-125 661z" />
    <glyph glyph-name="uni041B.loclBGR" horiz-adv-x="598" 
d="M-24 0l390 700h25l143 -700h-20l-138 678l-378 -678h-22z" />
    <glyph glyph-name="uni0424.loclBGR" horiz-adv-x="865" 
d="M523 710q156 -4 241.5 -104.5t57.5 -259.5q-28 -161 -145.5 -257t-280.5 -99l-16 -90h-20l16 90q-156 4 -241 104t-57 260t145.5 256.5t279.5 99.5l16 90h20zM98 350q-26 -148 50.5 -243.5t230.5 -98.5l121 684q-159 -3 -267.5 -98t-134.5 -244zM802 350
q26 148 -51 243.5t-231 98.5l-121 -684q159 3 268 98t135 244z" />
    <glyph glyph-name="uni0414.ss01" horiz-adv-x="650" 
d="M614 700l-120 -682h70l-3 -18h-580l3 18h53q90 80 122 254l75 428h380zM179 272q-30 -171 -115 -254h410l117 664h-340z" />
    <glyph glyph-name="uni0426.ss01" horiz-adv-x="650" 
d="M499 18h70l-3 -18h-510l123 700h20l-120 -682h400l120 682h20z" />
    <glyph glyph-name="uni0429.ss01" horiz-adv-x="940" 
d="M789 18h70l-3 -18h-800l123 700h20l-120 -682h335l120 682h20l-120 -682h335l120 682h20z" />
    <glyph glyph-name="uni0414.loclBGR.ss01" horiz-adv-x="710" 
d="M577 18h62l-3 -18h-76h-518h-56l3 18h63l370 682h25zM74 18h483l-125 661z" />
    <glyph glyph-name="uni0432.loclBGR" horiz-adv-x="581" 
d="M388 401q77 -13 112.5 -69t20.5 -138q-17 -99 -82.5 -151.5t-170.5 -52.5q-102 0 -151.5 64t-29.5 176l45 256q19 109 78 166.5t156 57.5q75 0 117 -46.5t32 -107.5q-8 -44 -41 -85.5t-86 -69.5zM363 692q-85 0 -139.5 -53t-71.5 -153l-20 -113l143 26q45 7 84 6
q58 28 93 69.5t43 84.5q9 53 -27.5 93t-104.5 40zM501 198q18 102 -43 154t-186 29l-143 -26l-22 -125q-19 -105 25 -163.5t139 -58.5q93 0 153.5 50t76.5 140z" />
    <glyph glyph-name="uni0433.loclBGR" horiz-adv-x="460" 
d="M368 125h20q-11 -60 -65 -97.5t-139 -37.5q-80 0 -123.5 37t-33.5 95q10 54 49.5 84.5t90 41.5l101 21.5t89 36.5t46.5 74q9 53 -26.5 82.5t-103.5 29.5q-65 0 -111 -32t-56 -85h-20q11 59 62.5 97t127.5 38q77 0 117.5 -37t29.5 -95q-9 -53 -48.5 -82.5t-90 -40.5
l-101 -21.5t-89 -37.5t-47.5 -76q-9 -53 29.5 -82.5t110.5 -29.5q71 0 121.5 32.5t59.5 84.5z" />
    <glyph glyph-name="uni0434.loclBGR" horiz-adv-x="672" 
d="M606 500h20l-83 -469q-19 -111 -94 -176t-192 -65q-100 0 -159.5 53.5t-48.5 118.5h20q-10 -58 43 -106t146 -48q107 0 177 60t88 163l19 109q-38 -70 -106 -110t-151 -40q-108 0 -175 81.5t-48 191.5t101.5 178.5t193.5 68.5q83 0 143.5 -51t75.5 -130zM288 8
q100 0 176 64t95 165l1 5q17 101 -44 175.5t-162 74.5t-177.5 -65t-94.5 -167t43.5 -177t162.5 -75z" />
    <glyph glyph-name="uni0436.loclBGR" horiz-adv-x="640" 
d="M-14 0l309 262l-207 238h23l204 -233l76 433h20l-76 -434l285 234h28l-296 -242l214 -258h-23l-210 253l-45 -253h-20l44 253l-298 -253h-28z" />
    <glyph glyph-name="uni0438.loclBGR" horiz-adv-x="535" 
d="M469 500h20l-88 -500h-20l20 115q-33 -62 -90 -93.5t-117 -31.5q-71 0 -110 46t-24 127l59 337h20l-59 -337q-13 -72 19 -113.5t98 -41.5q77 0 141 56t81 152z" />
    <glyph glyph-name="uni0439.loclBGR" horiz-adv-x="535" 
d="M440 617l-3 -16h-240l3 16h240zM469 500h20l-88 -500h-20l20 115q-33 -62 -90 -93.5t-117 -31.5q-71 0 -110 46t-24 127l59 337h20l-59 -337q-13 -72 19 -113.5t98 -41.5q77 0 141 56t81 152z" />
    <glyph glyph-name="uni043A.loclBGR" horiz-adv-x="461" 
d="M470 500l-337 -242l254 -258h-26l-250 254l-45 -254h-20l123 700h20l-76 -435l326 235h31z" />
    <glyph glyph-name="uni043B.loclBGR" horiz-adv-x="492" 
d="M428 0h-19l-121 478l-290 -478h-22l303 500h22z" />
    <glyph glyph-name="uni043F.loclBGR" horiz-adv-x="535" 
d="M341 510q69 0 109 -45.5t25 -127.5l-59 -337h-20l59 337q13 72 -19 113.5t-98 41.5q-75 0 -138 -53.5t-82 -144.5l-52 -294h-20l88 500h20l-21 -121q33 65 90.5 98t117.5 33z" />
    <glyph glyph-name="uni0442.loclBGR" horiz-adv-x="795" 
d="M615 510q64 0 100 -41t22 -122l-61 -347h-20l61 347q12 71 -16.5 108t-87.5 37q-61 0 -115.5 -48t-72.5 -134l-54 -310h-20l61 347q12 71 -16.5 108t-87.5 37q-61 0 -115 -47.5t-72 -132.5l-55 -312h-20l88 500h20l-18 -102q30 57 77.5 84.5t96.5 27.5q55 0 90.5 -31
t35.5 -92q29 63 78.5 93t100.5 30z" />
    <glyph glyph-name="uni0446.loclBGR" horiz-adv-x="555" 
d="M413 70q-9 -52 41 -52h20l-28 -162h-20l25 144q-30 0 -46.5 19.5t-11.5 50.5l8 44q-34 -62 -90.5 -93t-116.5 -31q-71 0 -110 46t-24 127l59 337h20l-59 -337q-13 -72 19 -113.5t98 -41.5q75 0 138 53t82 145l52 294h20z" />
    <glyph glyph-name="uni0448.loclBGR" horiz-adv-x="795" 
d="M729 500h20l-88 -500h-20l18 102q-30 -57 -77.5 -84.5t-96.5 -27.5q-55 0 -90.5 31t-35.5 92q-29 -63 -78.5 -93t-100.5 -30q-64 0 -100 41t-22 122l61 347h20l-61 -347q-12 -71 16.5 -108t87.5 -37q61 0 115.5 48t72.5 134l54 310h20l-61 -347q-12 -71 16.5 -108
t87.5 -37q61 0 115 47.5t72 132.5z" />
    <glyph glyph-name="uni0449.loclBGR" horiz-adv-x="815" 
d="M673 70q-9 -52 41 -52h20l-28 -162h-20l25 144q-30 0 -46.5 19.5t-11.5 50.5l5 31q-29 -57 -76.5 -84t-96.5 -27q-55 0 -90.5 31t-35.5 92q-29 -63 -78.5 -93t-100.5 -30q-64 0 -100 41t-22 122l61 347h20l-61 -347q-12 -71 16.5 -108t87.5 -37q61 0 115.5 48t72.5 134
l54 310h20l-61 -347q-12 -71 16.5 -108t87.5 -37q60 0 113.5 46t72.5 128l56 318h20z" />
    <glyph glyph-name="uni044C.loclBGR" horiz-adv-x="485" 
d="M272 320q81 0 125 -48t31 -121t-68.5 -117t-137.5 -44q-91 0 -133.5 47t-29.5 123l60 340h20l-32 -180h165zM408 155q11 64 -27 105.5t-112 41.5h-165l-25 -142q-12 -69 24.5 -110.5t118.5 -41.5q73 0 124 41t62 106z" />
    <glyph glyph-name="uni044A.loclBGR" horiz-adv-x="570" 
d="M357 320q81 0 125 -48t31 -121t-68.5 -117t-137.5 -44q-91 0 -133.5 47t-29.5 123l57 322h-160l3 18h170h10l-32 -180h165zM493 155q11 64 -27 105.5t-112 41.5h-165l-25 -142q-12 -69 24.5 -110.5t118.5 -41.5q73 0 124 41t62 106z" />
    <glyph glyph-name="uni044E.loclBGR" horiz-adv-x="810" 
d="M544 510q108 0 171 -77t44 -187t-107 -183t-198 -73q-105 0 -168 72.5t-49 178.5h-129l-42 -241h-20l123 700h20l-77 -441h128q21 108 108.5 179.5t195.5 71.5zM739 250q18 102 -39.5 172t-157.5 70q-101 0 -183 -70t-100 -172t39.5 -172t157.5 -70q101 0 183 70t100 172
z" />
    <glyph glyph-name="uni0430.ss01" horiz-adv-x="662" 
d="M596 500h20l-88 -500h-20l25 141q-39 -70 -107 -110.5t-151 -40.5q-108 0 -175 81.5t-48 191.5t101.5 178.5t193.5 68.5q83 0 143.5 -51t75.5 -131zM278 8q101 0 177.5 65t94.5 167t-43.5 177t-162.5 75t-177.5 -65t-94.5 -167t43.5 -177t162.5 -75z" />
    <glyph glyph-name="uni0443.ss01" horiz-adv-x="535" 
d="M469 500h20l-94 -535q-15 -83 -73 -129t-133 -46q-79 0 -119.5 43t-28.5 112h20q-11 -63 25.5 -100t105.5 -37t119.5 42t63.5 115l26 150q-33 -62 -90 -93.5t-117 -31.5q-71 0 -110 46t-24 127l59 337h20l-59 -337q-13 -72 19 -113.5t98 -41.5q76 0 139 54t82 148z" />
    <glyph glyph-name="zero.sinf" horiz-adv-x="410" 
d="M133 -172q-75 0 -111 59t-19 154q17 96 70.5 153.5t129.5 57.5q75 0 111 -59t19 -154q-17 -96 -70.5 -153.5t-129.5 -57.5zM134 -154q67 0 115 52.5t64 141.5t-14 141.5t-97 52.5t-115 -52.5t-64 -141.5t14 -141.5t97 -52.5z" />
    <glyph glyph-name="one.sinf" horiz-adv-x="245" 
d="M153 240h20l-70 -400h-20l66 378l-136 -67l4 22z" />
    <glyph glyph-name="two.sinf" horiz-adv-x="346" 
d="M-32 -160l2 15l217 181q62 52 72 103q6 37 -18 66t-68 29q-50 0 -84.5 -28t-42.5 -71h-20q9 52 49 84.5t99 32.5q53 0 82.5 -34.5t21.5 -79.5q-11 -59 -77 -114l-199 -166h235l-3 -18h-266z" />
    <glyph glyph-name="three.sinf" horiz-adv-x="342" 
d="M285 240l-3 -18l-131 -147q54 -4 80 -40t18 -85q-10 -53 -49.5 -87.5t-103.5 -34.5q-63 0 -93 36t-21 88h20q-8 -45 16 -75.5t79 -30.5t90 30.5t43 75.5q7 45 -17 75.5t-79 30.5h-10l3 15l132 149h-215l3 18h238z" />
    <glyph glyph-name="four.sinf" horiz-adv-x="359" 
d="M276 -52l-3 -18h-62l-16 -90h-20l16 90h-227l3 18l205 292h21l-204 -292h205l21 121h20l-21 -121h62z" />
    <glyph glyph-name="five.sinf" horiz-adv-x="336" 
d="M274 222h-194l-39 -146h90q58 0 89.5 -36t22.5 -90q-10 -54 -51.5 -88t-101.5 -34t-91.5 35t-21.5 89h20q-9 -49 17 -77.5t77 -28.5t87.5 28.5t45.5 77.5q8 49 -18.5 77.5t-77.5 28.5h-110l47 182h212z" />
    <glyph glyph-name="six.sinf" horiz-adv-x="335" 
d="M138 87q57 0 91 -37.5t24 -93.5q-10 -57 -55 -92.5t-103 -35.5t-92 37.5t-24 94.5q7 39 32 70l175 210h24l-139 -167q33 14 67 14zM234 -42q8 49 -20.5 80t-78.5 31t-89.5 -31t-47.5 -80q-9 -50 19.5 -81t78.5 -31q51 0 90 31t48 81z" />
    <glyph glyph-name="seven.sinf" horiz-adv-x="336" 
d="M28 240h266l-3 -16l-235 -384h-22l234 382h-243z" />
    <glyph glyph-name="eight.sinf" horiz-adv-x="355" 
d="M283 141q-12 -66 -87 -92q35 -13 53 -42t11 -68q-10 -52 -51.5 -81.5t-103.5 -29.5q-60 0 -94.5 32t-24.5 83q7 40 34.5 67.5t68.5 39.5q-30 13 -45.5 37.5t-9.5 57.5q9 51 49.5 79t93.5 28q51 0 83 -30.5t23 -80.5zM144 58q42 0 77.5 23.5t41.5 61.5q8 42 -18 66.5
t-70 24.5q-45 0 -79 -24t-42 -67q-6 -38 20.5 -61.5t69.5 -23.5zM240 -59q7 45 -21 72t-78 27q-51 0 -89.5 -27t-45.5 -72q-8 -44 20 -69.5t81 -25.5q52 0 88.5 25.5t44.5 69.5z" />
    <glyph glyph-name="nine.sinf" horiz-adv-x="335" 
d="M166 252q58 0 92 -37.5t24 -94.5q-7 -39 -32 -70l-175 -210h-24l139 167q-33 -14 -67 -14q-57 0 -91 37.5t-24 93.5q10 57 55 92.5t103 35.5zM263 122q9 50 -19.5 81t-78.5 31q-51 0 -90 -31t-48 -81q-8 -49 20.5 -80t78.5 -31t89.5 31t47.5 80z" />
    <glyph glyph-name="zero.tf" horiz-adv-x="570" 
d="M241 -10q-119 0 -170.5 99t-22.5 263t113 261t203 97t170.5 -99t22.5 -263t-113 -261t-203 -97zM242 8q108 0 187.5 91.5t107.5 250.5t-19 250.5t-155 91.5t-187.5 -91.5t-107.5 -250.5t19 -250.5t155 -91.5z" />
    <glyph glyph-name="one.tf" horiz-adv-x="570" 
d="M290 20h214l-4 -20h-234h-265l4 20h265l115 655l-234 -114l4 24l234 115h20z" />
    <glyph glyph-name="two.tf" horiz-adv-x="570" 
d="M16 0l3 18l343 264q73 57 117.5 109.5t54.5 108.5q15 85 -31.5 138.5t-139.5 53.5q-89 0 -156.5 -54.5t-81.5 -132.5h-20q15 89 90 147t168 58q97 0 152.5 -58t38.5 -154q-18 -105 -179 -229l-326 -251h440l-3 -18h-470z" />
    <glyph glyph-name="three.tf" horiz-adv-x="570" 
d="M569 700l-3 -18l-239 -272q101 -5 155.5 -63t38.5 -149q-17 -95 -93 -151.5t-187 -56.5q-110 0 -168 58t-42 152h20q-15 -84 35 -138t156 -54t175 54t84 138t-35 138t-156 54h-14l2 12l244 278h-396l3 18h420z" />
    <glyph glyph-name="four.tf" horiz-adv-x="570" 
d="M517 178l-3 -18h-90l-28 -160h-20l28 160h-390l3 18l368 522h23l-367 -522h366l41 232h20l-41 -232h90z" />
    <glyph glyph-name="five.tf" horiz-adv-x="570" 
d="M571 682h-372l-66 -272h180q104 0 161.5 -59.5t41.5 -153.5t-91.5 -150.5t-183.5 -56.5q-106 0 -163.5 58t-41.5 152h20q-15 -84 34.5 -138t151.5 -54t170.5 54t83.5 138t-34.5 138t-151.5 54h-201l75 308h390z" />
    <glyph glyph-name="six.tf" horiz-adv-x="570" 
d="M318 450q108 0 166 -65.5t40 -167.5t-96 -164.5t-188 -62.5q-108 0 -165.5 65.5t-39.5 167.5q15 85 73 145l309 332h24l-258 -279q61 29 135 29zM504 220q16 92 -33 152t-154 60t-175.5 -60t-86.5 -152t33 -152t154 -60t175.5 60t86.5 152z" />
    <glyph glyph-name="seven.tf" horiz-adv-x="570" 
d="M119 700h470l-3 -18l-435 -682h-22l436 682h-449z" />
    <glyph glyph-name="eight.tf" horiz-adv-x="570" 
d="M553 529q-11 -62 -56 -106t-113 -61q72 -17 106 -65.5t22 -118.5q-16 -88 -87.5 -138t-183.5 -50q-110 0 -167 52.5t-41 139.5q12 70 63 117t130 63q-61 19 -90.5 64t-18.5 107q14 80 81 128.5t166 48.5q97 0 150 -50.5t39 -130.5zM306 370q94 0 154 46t73 115
q12 69 -32 115t-138 46t-154 -46t-72 -115q-13 -69 31 -115t138 -46zM492 180q13 77 -35 124.5t-154 47.5t-171.5 -47.5t-78.5 -124.5q-14 -76 35 -124t154 -48q106 0 171 47.5t79 124.5z" />
    <glyph glyph-name="nine.tf" horiz-adv-x="570" 
d="M365 710q108 0 165.5 -65.5t39.5 -167.5q-15 -85 -73 -145l-309 -332h-24l258 279q-61 -29 -135 -29q-108 0 -166 65.5t-40 167.5t96 164.5t188 62.5zM550 480q16 92 -33 152t-154 60t-175.5 -60t-86.5 -152t33 -152t154 -60t175.5 60t86.5 152z" />
    <glyph glyph-name="zero.dnom" horiz-adv-x="410" 
d="M161 -12q-75 0 -111 59t-19 154q17 96 70.5 153.5t129.5 57.5q75 0 111 -59t19 -154q-17 -96 -70.5 -153.5t-129.5 -57.5zM162 6q67 0 115 52.5t64 141.5t-14 141.5t-97 52.5t-115 -52.5t-64 -141.5t14 -141.5t97 -52.5z" />
    <glyph glyph-name="one.dnom" horiz-adv-x="245" 
d="M181 400h20l-70 -400h-20l66 378l-136 -67l4 22z" />
    <glyph glyph-name="two.dnom" horiz-adv-x="347" 
d="M-3 0l2 15l217 181q62 52 72 103q6 37 -18 66t-68 29q-50 0 -84.5 -28t-42.5 -71h-20q9 52 49 84.5t99 32.5q53 0 82.5 -34.5t21.5 -79.5q-11 -59 -77 -114l-199 -166h235l-3 -18h-266z" />
    <glyph glyph-name="three.dnom" horiz-adv-x="343" 
d="M314 400l-3 -18l-131 -147q54 -4 80 -40t18 -85q-10 -53 -49.5 -87.5t-103.5 -34.5q-63 0 -93 36t-21 88h20q-8 -45 16 -75.5t79 -30.5t90 30.5t43 75.5q7 45 -17 75.5t-79 30.5h-10l3 15l132 149h-215l3 18h238z" />
    <glyph glyph-name="four.dnom" horiz-adv-x="359" 
d="M304 108l-3 -18h-62l-16 -90h-20l16 90h-227l3 18l205 292h21l-204 -292h205l21 121h20l-21 -121h62z" />
    <glyph glyph-name="five.dnom" horiz-adv-x="337" 
d="M303 382h-194l-39 -146h90q58 0 89.5 -36t22.5 -90q-10 -54 -51.5 -88t-101.5 -34t-91.5 35t-21.5 89h20q-9 -49 17 -77.5t77 -28.5t87.5 28.5t45.5 77.5q8 49 -18.5 77.5t-77.5 28.5h-110l47 182h212z" />
    <glyph glyph-name="six.dnom" horiz-adv-x="335" 
d="M166 247q57 0 91 -37.5t24 -93.5q-10 -57 -55 -92.5t-103 -35.5t-92 37.5t-24 94.5q7 39 32 70l175 210h24l-139 -167q33 14 67 14zM262 118q8 49 -20.5 80t-78.5 31t-89.5 -31t-47.5 -80q-9 -50 19.5 -81t78.5 -31q51 0 90 31t48 81z" />
    <glyph glyph-name="seven.dnom" horiz-adv-x="336" 
d="M56 400h266l-3 -16l-235 -384h-22l234 382h-243z" />
    <glyph glyph-name="eight.dnom" horiz-adv-x="355" 
d="M311 301q-12 -66 -87 -92q35 -13 53 -42t11 -68q-10 -52 -51.5 -81.5t-103.5 -29.5q-60 0 -94.5 32t-24.5 83q7 40 34.5 67.5t68.5 39.5q-30 13 -45.5 37.5t-9.5 57.5q9 51 49.5 79t93.5 28q51 0 83 -30.5t23 -80.5zM172 218q42 0 77.5 23.5t41.5 61.5q8 42 -18 66.5
t-70 24.5q-45 0 -79 -24t-42 -67q-6 -38 20.5 -61.5t69.5 -23.5zM268 101q7 45 -21 72t-78 27q-51 0 -89.5 -27t-45.5 -72q-8 -44 20 -69.5t81 -25.5q52 0 88.5 25.5t44.5 69.5z" />
    <glyph glyph-name="nine.dnom" horiz-adv-x="335" 
d="M194 412q58 0 92 -37.5t24 -94.5q-7 -39 -32 -70l-175 -210h-24l139 167q-33 -14 -67 -14q-57 0 -91 37.5t-24 93.5q10 57 55 92.5t103 35.5zM291 282q9 50 -19.5 81t-78.5 31q-51 0 -90 -31t-48 -81q-8 -49 20.5 -80t78.5 -31t89.5 31t47.5 80z" />
    <glyph glyph-name="zero.numr" horiz-adv-x="410" 
d="M214 288q-75 0 -111 59t-19 154q17 96 70.5 153.5t129.5 57.5q75 0 111 -59t19 -154q-17 -96 -70.5 -153.5t-129.5 -57.5zM215 306q67 0 115 52.5t64 141.5t-14 141.5t-97 52.5t-115 -52.5t-64 -141.5t14 -141.5t97 -52.5z" />
    <glyph glyph-name="one.numr" horiz-adv-x="245" 
d="M234 700h20l-70 -400h-20l66 378l-136 -67l4 22z" />
    <glyph glyph-name="two.numr" horiz-adv-x="346" 
d="M49 300l2 15l217 181q62 52 72 103q6 37 -18 66t-68 29q-50 0 -84.5 -28t-42.5 -71h-20q9 52 49 84.5t99 32.5q53 0 82.5 -34.5t21.5 -79.5q-11 -59 -77 -114l-199 -166h235l-3 -18h-266z" />
    <glyph glyph-name="three.numr" horiz-adv-x="343" 
d="M367 700l-3 -18l-131 -147q54 -4 80 -40t18 -85q-10 -53 -49.5 -87.5t-103.5 -34.5q-63 0 -93 36t-21 88h20q-8 -45 16 -75.5t79 -30.5t90 30.5t43 75.5q7 45 -17 75.5t-79 30.5h-10l3 15l132 149h-215l3 18h238z" />
    <glyph glyph-name="four.numr" horiz-adv-x="359" 
d="M357 408l-3 -18h-62l-16 -90h-20l16 90h-227l3 18l205 292h21l-204 -292h205l21 121h20l-21 -121h62z" />
    <glyph glyph-name="five.numr" horiz-adv-x="337" 
d="M356 682h-194l-39 -146h90q58 0 89.5 -36t22.5 -90q-10 -54 -51.5 -88t-101.5 -34t-91.5 35t-21.5 89h20q-9 -49 17 -77.5t77 -28.5t87.5 28.5t45.5 77.5q8 49 -18.5 77.5t-77.5 28.5h-110l47 182h212z" />
    <glyph glyph-name="six.numr" horiz-adv-x="335" 
d="M219 547q57 0 91 -37.5t24 -93.5q-10 -57 -55 -92.5t-103 -35.5t-92 37.5t-24 94.5q7 39 32 70l175 210h24l-139 -167q33 14 67 14zM315 418q8 49 -20.5 80t-78.5 31t-89.5 -31t-47.5 -80q-9 -50 19.5 -81t78.5 -31q51 0 90 31t48 81z" />
    <glyph glyph-name="seven.numr" horiz-adv-x="336" 
d="M109 700h266l-3 -16l-235 -384h-22l234 382h-243z" />
    <glyph glyph-name="eight.numr" horiz-adv-x="355" 
d="M364 601q-12 -66 -87 -92q35 -13 53 -42t11 -68q-10 -52 -51.5 -81.5t-103.5 -29.5q-60 0 -94.5 32t-24.5 83q7 40 34.5 67.5t68.5 39.5q-30 13 -45.5 37.5t-9.5 57.5q9 51 49.5 79t93.5 28q51 0 83 -30.5t23 -80.5zM225 518q42 0 77.5 23.5t41.5 61.5q8 42 -18 66.5
t-70 24.5q-45 0 -79 -24t-42 -67q-6 -38 20.5 -61.5t69.5 -23.5zM321 401q7 45 -21 72t-78 27q-51 0 -89.5 -27t-45.5 -72q-8 -44 20 -69.5t81 -25.5q52 0 88.5 25.5t44.5 69.5z" />
    <glyph glyph-name="nine.numr" horiz-adv-x="335" 
d="M247 712q58 0 92 -37.5t24 -94.5q-7 -39 -32 -70l-175 -210h-24l139 167q-33 -14 -67 -14q-57 0 -91 37.5t-24 93.5q10 57 55 92.5t103 35.5zM344 582q9 50 -19.5 81t-78.5 31q-51 0 -90 -31t-48 -81q-8 -49 20.5 -80t78.5 -31t89.5 31t47.5 80z" />
    <glyph glyph-name="zero.sups" horiz-adv-x="410" 
d="M242 448q-75 0 -111 59t-19 154q17 96 70.5 153.5t129.5 57.5q75 0 111 -59t19 -154q-17 -96 -70.5 -153.5t-129.5 -57.5zM243 466q67 0 115 52.5t64 141.5t-14 141.5t-97 52.5t-115 -52.5t-64 -141.5t14 -141.5t97 -52.5z" />
    <glyph glyph-name="one.sups" horiz-adv-x="245" 
d="M262 860h20l-70 -400h-20l66 378l-136 -67l4 22z" />
    <glyph glyph-name="two.sups" horiz-adv-x="347" 
d="M78 460l2 15l217 181q62 52 72 103q6 37 -18 66t-68 29q-50 0 -84.5 -28t-42.5 -71h-20q9 52 49 84.5t99 32.5q53 0 82.5 -34.5t21.5 -79.5q-11 -59 -77 -114l-199 -166h235l-3 -18h-266z" />
    <glyph glyph-name="three.sups" horiz-adv-x="343" 
d="M395 860l-3 -18l-131 -147q54 -4 80 -40t18 -85q-10 -53 -49.5 -87.5t-103.5 -34.5q-63 0 -93 36t-21 88h20q-8 -45 16 -75.5t79 -30.5t90 30.5t43 75.5q7 45 -17 75.5t-79 30.5h-10l3 15l132 149h-215l3 18h238z" />
    <glyph glyph-name="four.sups" horiz-adv-x="359" 
d="M385 568l-3 -18h-62l-16 -90h-20l16 90h-227l3 18l205 292h21l-204 -292h205l21 121h20l-21 -121h62z" />
    <glyph glyph-name="five.sups" horiz-adv-x="337" 
d="M384 842h-194l-39 -146h90q58 0 89.5 -36t22.5 -90q-10 -54 -51.5 -88t-101.5 -34t-91.5 35t-21.5 89h20q-9 -49 17 -77.5t77 -28.5t87.5 28.5t45.5 77.5q8 49 -18.5 77.5t-77.5 28.5h-110l47 182h212z" />
    <glyph glyph-name="six.sups" horiz-adv-x="335" 
d="M247 707q57 0 91 -37.5t24 -93.5q-10 -57 -55 -92.5t-103 -35.5t-92 37.5t-24 94.5q7 39 32 70l175 210h24l-139 -167q33 14 67 14zM343 578q8 49 -20.5 80t-78.5 31t-89.5 -31t-47.5 -80q-9 -50 19.5 -81t78.5 -31q51 0 90 31t48 81z" />
    <glyph glyph-name="seven.sups" horiz-adv-x="336" 
d="M138 860h266l-3 -16l-235 -384h-22l234 382h-243z" />
    <glyph glyph-name="eight.sups" horiz-adv-x="355" 
d="M392 761q-12 -66 -87 -92q35 -13 53 -42t11 -68q-10 -52 -51.5 -81.5t-103.5 -29.5q-60 0 -94.5 32t-24.5 83q7 40 34.5 67.5t68.5 39.5q-30 13 -45.5 37.5t-9.5 57.5q9 51 49.5 79t93.5 28q51 0 83 -30.5t23 -80.5zM253 678q42 0 77.5 23.5t41.5 61.5q8 42 -18 66.5
t-70 24.5q-45 0 -79 -24t-42 -67q-6 -38 20.5 -61.5t69.5 -23.5zM349 561q7 45 -21 72t-78 27q-51 0 -89.5 -27t-45.5 -72q-8 -44 20 -69.5t81 -25.5q52 0 88.5 25.5t44.5 69.5z" />
    <glyph glyph-name="nine.sups" horiz-adv-x="335" 
d="M275 872q58 0 92 -37.5t24 -94.5q-7 -39 -32 -70l-175 -210h-24l139 167q-33 -14 -67 -14q-57 0 -91 37.5t-24 93.5q10 57 55 92.5t103 35.5zM372 742q9 50 -19.5 81t-78.5 31q-51 0 -90 -31t-48 -81q-8 -49 20.5 -80t78.5 -31t89.5 31t47.5 80z" />
    <glyph glyph-name="cent.tf" horiz-adv-x="570" 
d="M551 460q-8 44 -37 75.5t-74 45.5l-236 -461q34 -12 75 -12q74 0 137.5 36t96.5 96h20q-35 -69 -103.5 -109.5t-153.5 -40.5q-45 0 -80 13l-53 -103h-21l56 110q-67 30 -99 95.5t-17 147.5q20 110 107 183.5t199 73.5q29 0 62 -7l50 97h21l-53 -103q50 -17 83 -53t40 -84
h-20zM187 126l235 460q-27 6 -57 6q-104 0 -184.5 -69.5t-98.5 -172.5q-13 -76 15.5 -136t89.5 -88z" />
    <glyph glyph-name="dollar.tf" horiz-adv-x="570" 
d="M376 710q86 -5 135.5 -54t36.5 -121h-20q11 62 -31.5 107.5t-123.5 49.5l-58 -329q3 0 7 -2q47 -16 77.5 -30.5t60.5 -38t41 -57t3 -77.5q-13 -79 -80 -123.5t-167 -44.5h-8l-16 -90h-20l16 91q-102 5 -154.5 52t-38.5 127h20q-12 -70 33.5 -113.5t142.5 -47.5l61 342
q-44 15 -74 30.5t-57.5 38.5t-38 56.5t-2.5 75.5q13 71 76 114t159 44l16 90h20zM141 549q-12 -70 29 -109.5t126 -69.5l57 322q-90 -2 -145.5 -42.5t-66.5 -100.5zM484 161q7 40 -2.5 70t-38.5 51.5t-56.5 34t-74.5 28.5l-60 -337h5q95 0 155 42.5t72 110.5z" />
    <glyph glyph-name="Euro.tf" horiz-adv-x="570" 
d="M403 710q82 0 131.5 -57.5t44.5 -152.5h-19q5 89 -40 140.5t-119 51.5q-88 0 -157.5 -70t-105.5 -194h286l-3 -18h-288q-6 -22 -13 -60q-4 -20 -8 -60h288l-3 -18h-286q-8 -124 36.5 -194t132.5 -70q74 0 137 51.5t89 140.5h20q-27 -96 -95 -153t-152 -57
q-97 0 -146.5 76t-42.5 206h-71l3 18h70q1 26 8 63l12 57h-69l3 18h71q38 132 113 207t173 75z" />
    <glyph glyph-name="florin.tf" horiz-adv-x="570" 
d="M414 590q29 73 82 103t114 9l-4 -20q-53 22 -99.5 -4.5t-73.5 -91.5l-92 -226h159l-3 -19h-164l-177 -435q-29 -73 -82 -103t-114 -9l3 20q54 -22 100.5 4.5t73.5 91.5l176 431h-156l3 19h160z" />
    <glyph glyph-name="uni20BD.tf" horiz-adv-x="570" 
d="M419 700q80 0 129.5 -61t34.5 -143q-14 -83 -81.5 -139.5t-152.5 -56.5h-220l-22 -122h300l-3 -18h-300l-28 -160h-20l28 160h-90l3 18h90l22 122h-90l3 18h90l67 382h20h220zM564 500q13 75 -30.5 128.5t-117.5 53.5h-220l-64 -364h220q75 0 137 53.5t75 128.5z" />
    <glyph glyph-name="sterling.tf" horiz-adv-x="570" 
d="M384 710q83 0 131 -51.5t34 -133.5l-5 -25h-20l5 25q12 72 -27 119.5t-119 47.5t-136 -47.5t-68 -119.5l-36 -206h259l-3 -18h-260l-50 -283h400l-3 -18h-530l3 18h110l50 283h-90l3 18h91l36 206q14 85 76.5 135t148.5 50z" />
    <glyph glyph-name="yen.tf" horiz-adv-x="570" 
d="M624 700l-308 -363h190l-3 -18h-196l-19 -110h196l-3 -18h-196l-34 -191h-20l34 191h-194l3 18h194l19 110h-194l3 18h190l-182 363h21l176 -354l299 354h24z" />
    <glyph glyph-name="brevecy" horiz-adv-x="280" 
d="M82 601l3 16h240l-3 -16h-240z" />
    </font>
</defs>
</svg>
