<?xml version="1.0" standalone="no"?>
<!DOCTYPE svg PUBLIC "-//W3C//DTD SVG 1.1//EN" "http://www.w3.org/Graphics/SVG/1.1/DTD/svg11.dtd" >
<svg>
<metadata>
Created by FontForge 20090622 at Thu Dec 20 17:22:47 2018
 By deploy user
Copyright &#194;&#169; 2015 by Radomir Tinkov. All rights reserved.
</metadata>
<defs>
<font id="Qanelas-Heavy" horiz-adv-x="660" >
  <font-face 
    font-family="Qanelas Heavy"
    font-weight="900"
    font-stretch="normal"
    units-per-em="1000"
    panose-1="0 0 10 0 0 0 0 0 0 0"
    ascent="800"
    descent="-200"
    x-height="500"
    cap-height="700"
    bbox="-487 -284 1313 1010"
    underline-thickness="50"
    underline-position="-50"
    unicode-range="U+0020-U+FB02"
  />
<missing-glyph horiz-adv-x="500" 
d="M410 800v-1000h-317v1000h317zM333 733h-165v-33h65v-37h-66v-33h166v33h-66v37h66v33zM267 604h-100v-104h166v34h-66v70zM233 570v-36h-33v36h33zM333 473h-166v-33h66v-37h-66v-33h100v70h66v33zM333 413h-33v-66h-133v-34h166v100zM333 291h-100v-56h34v23h33v-47
h-100v80h-33v-113h166v113zM333 118h-166v-113h166v113zM300 85v-47h-100v47h100zM333 -18h-166v-33h70l-70 -47v-33h166v33h-102l70 47h32v33z" />
    <glyph glyph-name="fi" unicode="fi" horiz-adv-x="565" 
d="M525 500v-500h-185v324h-97v-324h-185v324h-58v176h58q0 106 66 161t196 55q72 0 135 -16v-152q-67 10 -120 10q-92 0 -92 -58h282z" />
    <glyph glyph-name="fl" unicode="fl" horiz-adv-x="565" 
d="M320 716q106 0 205 -16v-700h-185v562q-8 1 -25 1q-32 0 -52 -16t-20 -47h57v-176h-57v-324h-185v324h-58v176h58q0 106 66 161t196 55z" />
    <glyph glyph-name="f_f" unicode="ff" horiz-adv-x="605" 
d="M605 560q-36 3 -56.5 -11t-20.5 -39v-10h77v-176h-77v-324h-185v324h-58h-42v-324h-185v324h-58v176h58q0 108 67 165.5t195 50.5v-166q-36 3 -56.5 -11t-20.5 -39h77h23v10q0 108 67 165.5t195 50.5v-166z" />
    <glyph glyph-name="f_f_i" unicode="ffi" horiz-adv-x="850" 
d="M810 500v-500h-185v324h-97v-324h-185v324h-58h-42v-324h-185v324h-58v176h58q0 108 67 165.5t195 50.5v-166q-36 3 -56.5 -11t-20.5 -39h77h23v10q0 106 66 161t196 55q72 0 135 -16v-152q-67 10 -120 10q-92 0 -92 -58v-10h282z" />
    <glyph glyph-name="f_f_l" unicode="ffl" horiz-adv-x="850" 
d="M605 726q106 0 205 -16v-710h-185v572q-8 1 -25 1q-32 0 -52 -16t-20 -47v-10h57v-176h-57v-324h-185v324h-58h-42v-324h-185v324h-58v176h58q0 108 67 165.5t195 50.5v-166q-36 3 -56.5 -11t-20.5 -39h77h23v10q0 106 66 161t196 55z" />
    <glyph glyph-name=".notdef" horiz-adv-x="500" 
d="M410 800v-1000h-317v1000h317zM333 733h-165v-33h65v-37h-66v-33h166v33h-66v37h66v33zM267 604h-100v-104h166v34h-66v70zM233 570v-36h-33v36h33zM333 473h-166v-33h66v-37h-66v-33h100v70h66v33zM333 413h-33v-66h-133v-34h166v100zM333 291h-100v-56h34v23h33v-47
h-100v80h-33v-113h166v113zM333 118h-166v-113h166v113zM300 85v-47h-100v47h100zM333 -18h-166v-33h70l-70 -47v-33h166v33h-102l70 47h32v33z" />
    <glyph glyph-name=".null" horiz-adv-x="0" 
 />
    <glyph glyph-name="nonmarkingreturn" horiz-adv-x="333" 
 />
    <glyph glyph-name="space" unicode=" " horiz-adv-x="200" 
 />
    <glyph glyph-name="exclam" unicode="!" horiz-adv-x="310" 
d="M75 260l-35 240v200h230v-200l-35 -240h-160zM55 0v200h200v-200h-200z" />
    <glyph glyph-name="quotedbl" unicode="&#x22;" horiz-adv-x="490" 
d="M70 420l-20 280h170l-20 -280h-130zM290 420l-20 280h170l-20 -280h-130z" />
    <glyph glyph-name="numbersign" unicode="#" horiz-adv-x="643" 
d="M602 380h-95l-10 -60h96l-21 -130h-97l-23 -140h-144l23 140h-72l-23 -140h-144l23 140h-95l21 130h96l10 60h-96l21 130h97l23 140h144l-23 -140h72l23 140h144l-23 -140h94zM353 320l10 60h-72l-10 -60h72z" />
    <glyph glyph-name="dollar" unicode="$" horiz-adv-x="560" 
d="M550 204q0 -99 -64.5 -156t-170.5 -63v-85h-70v86q-109 10 -172 69.5t-63 172.5h195q0 -56 40 -68v111l-4 1l-61 22.5t-57.5 28.5t-55 41t-35 55.5t-15.5 76.5q0 98 62.5 155t165.5 64v85h70v-86q98 -10 157.5 -68t59.5 -164h-185q0 45 -32 58v-105q24 -7 31 -10
q43 -15 72.5 -29t63 -39.5t51 -63.5t17.5 -89zM213 505q0 -29 32 -45v83q-32 -8 -32 -38zM315 158q37 7 37 38q0 32 -37 50v-88z" />
    <glyph glyph-name="percent" unicode="%" horiz-adv-x="918" 
d="M225 336q-83 0 -139 55.5t-56 134.5t56 134.5t139 55.5q82 0 137.5 -55.5t55.5 -134.5t-55.5 -134.5t-137.5 -55.5zM120 0l521 700h158l-522 -700h-157zM224 486q17 0 28 12t11 28q0 17 -11 28.5t-28 11.5q-16 0 -27 -11.5t-11 -28.5t11 -28.5t27 -11.5zM695 -16
q-83 0 -139 55.5t-56 134.5t56 134.5t139 55.5q82 0 137.5 -55.5t55.5 -134.5t-55.5 -134.5t-137.5 -55.5zM694 134q17 0 28 12t11 28q0 17 -11 28.5t-28 11.5q-16 0 -27 -11.5t-11 -28.5t11 -28.5t27 -11.5z" />
    <glyph glyph-name="ampersand" unicode="&#x26;" horiz-adv-x="744" 
d="M744 0h-225l-30 29q-84 -45 -186 -45q-130 0 -201.5 62t-71.5 153q0 117 107 184q-40 58 -40 118q0 97 68 156t179 59q110 0 181.5 -59t71.5 -175h-200q0 21 -13 34.5t-40 13.5q-22 0 -34.5 -11.5t-12.5 -29.5q0 -17 12.5 -35.5t42.5 -48.5l120 -124q9 35 9 73h200
q0 -117 -70 -216zM311 150q26 0 47 6l-108 105q-19 -22 -19 -47q0 -27 22 -45.5t58 -18.5z" />
    <glyph glyph-name="quotesingle" unicode="'" horiz-adv-x="270" 
d="M70 420l-20 280h170l-20 -280h-130z" />
    <glyph glyph-name="parenleft" unicode="(" horiz-adv-x="335" 
d="M150 -100q-110 220 -110 450t110 450h185q-110 -220 -110 -450t110 -450h-185z" />
    <glyph glyph-name="parenright" unicode=")" horiz-adv-x="335" 
d="M185 -100h-185q110 220 110 450t-110 450h185q110 -220 110 -450t-110 -450z" />
    <glyph glyph-name="asterisk" unicode="*" horiz-adv-x="410" 
d="M370 601v-104l-92 10l58 -71l-88 -54l-43 79l-43 -79l-88 54l58 71l-92 -10v104l92 -10l-58 71l88 54l43 -79l43 79l88 -54l-58 -71z" />
    <glyph glyph-name="plus" unicode="+" horiz-adv-x="560" 
d="M530 440v-180h-160v-160h-180v160h-160v180h160v160h180v-160h160z" />
    <glyph glyph-name="comma" unicode="," horiz-adv-x="300" 
d="M50 200h200v-200q0 -77 -52 -124t-148 -47v72q56 0 80 25t24 74h-104v200z" />
    <glyph glyph-name="hyphen" unicode="-" horiz-adv-x="500" 
d="M50 217v174h400v-174h-400z" />
    <glyph glyph-name="period" unicode="." horiz-adv-x="300" 
d="M50 0v200h200v-200h-200z" />
    <glyph glyph-name="slash" unicode="/" horiz-adv-x="520" 
d="M100 -100h-80l400 900h80z" />
    <glyph glyph-name="zero" unicode="0" horiz-adv-x="630" 
d="M315 -16q-141 0 -218 99.5t-77 266.5t77 266.5t218 99.5t218 -99.5t77 -266.5t-77 -266.5t-218 -99.5zM315 178q95 0 95 172t-95 172t-95 -172t95 -172z" />
    <glyph glyph-name="one" unicode="1" horiz-adv-x="420" 
d="M160 700h200v-700h-200v491l-160 -85v209z" />
    <glyph glyph-name="two" unicode="2" horiz-adv-x="546" 
d="M20 0v146l233 247q51 53 58 70q5 10 5 20q0 39 -44 39q-52 0 -52 -50h-200q0 50 14 92t37.5 69.5t55.5 46.5t66 27.5t70 8.5q67 0 122.5 -23t93 -77t37.5 -130q0 -95 -114 -213l-76 -79h200v-194h-506z" />
    <glyph glyph-name="three" unicode="3" horiz-adv-x="545" 
d="M376 414q68 -20 108.5 -69.5t40.5 -124.5q0 -116 -74 -176t-186 -60q-111 0 -185.5 64t-74.5 180h200q0 -50 60 -50t60 52q0 50 -60 50h-121v116l94 110h-211v194h460v-154z" />
    <glyph glyph-name="four" unicode="4" horiz-adv-x="585" 
d="M580 282v-180h-70v-102h-196v102h-304v180l203 418h227l-205 -418h79v108h196v-108h70z" />
    <glyph glyph-name="five" unicode="5" horiz-adv-x="550" 
d="M285 449q113 0 181.5 -56t68.5 -173q0 -111 -74.5 -172.5t-185.5 -61.5q-108 0 -184 63t-76 176h200q0 -22 16.5 -33.5t43.5 -11.5t43.5 11.5t16.5 33.5q0 24 -17 35.5t-43 11.5h-234l29 428h425v-194h-238l-4 -57h32z" />
    <glyph glyph-name="six" unicode="6" horiz-adv-x="560" 
d="M337 474q98 -16 155.5 -81.5t57.5 -161.5q0 -110 -74 -178.5t-196 -68.5q-123 0 -196.5 68.5t-73.5 178.5q0 78 38 136l208 333h224zM280 163q70 0 70 68t-70 68t-70 -68t70 -68z" />
    <glyph glyph-name="seven" unicode="7" horiz-adv-x="490" 
d="M-10 700h490v-164l-208 -536h-220l196 506h-258v194z" />
    <glyph glyph-name="eight" unicode="8" horiz-adv-x="564" 
d="M454 366q95 -57 95 -169q0 -98 -69 -154.5t-198 -56.5t-198 56.5t-69 154.5q0 112 95 169q-71 53 -71 140q0 97 68 152.5t175 55.5t175 -55.5t68 -152.5q0 -87 -71 -140zM282 538q-63 0 -63 -51t63 -51q28 0 45.5 13t17.5 38t-17.5 38t-45.5 13zM282 166q32 0 49.5 15.5
t17.5 43.5t-17.5 43.5t-49.5 15.5t-49.5 -15.5t-17.5 -43.5t17.5 -43.5t49.5 -15.5z" />
    <glyph glyph-name="nine" unicode="9" horiz-adv-x="560" 
d="M550 469q0 -78 -38 -136l-208 -333h-224l143 226q-98 16 -155.5 81.5t-57.5 161.5q0 110 74 178.5t196 68.5q123 0 196.5 -68.5t73.5 -178.5zM280 537q-70 0 -70 -68t70 -68t70 68t-70 68z" />
    <glyph glyph-name="colon" unicode=":" horiz-adv-x="300" 
d="M50 300v200h200v-200h-200zM50 0v200h200v-200h-200z" />
    <glyph glyph-name="semicolon" unicode=";" horiz-adv-x="300" 
d="M50 500h200v-200h-200v200zM50 0v200h200v-200q0 -77 -52 -124t-148 -47v72q56 0 80 25t24 74h-104z" />
    <glyph glyph-name="less" unicode="&#x3c;" horiz-adv-x="510" 
d="M480 630v-194l-260 -86l260 -86v-194l-450 195v170z" />
    <glyph glyph-name="equal" unicode="=" horiz-adv-x="500" 
d="M30 375v180h440v-180h-440zM30 145v180h440v-180h-440z" />
    <glyph glyph-name="greater" unicode="&#x3e;" horiz-adv-x="510" 
d="M30 630l450 -195v-170l-450 -195v194l260 86l-260 86v194z" />
    <glyph glyph-name="question" unicode="?" horiz-adv-x="540" 
d="M165 260q0 35 15 66t36 53t42.5 41t36.5 38t15 37q0 35 -52 35q-58 0 -58 -48h-190q0 111 73.5 172.5t184.5 61.5q104 0 173 -54t69 -151q0 -40 -17 -75t-41 -58t-48.5 -42.5t-41.5 -39t-17 -36.5h-180zM155 0v200h200v-200h-200z" />
    <glyph glyph-name="at" unicode="@" horiz-adv-x="764" 
d="M389 612q106 0 188 -51.5t122 -128.5t40 -162q0 -229 -168 -229q-55 0 -92.5 23.5t-52.5 62.5q-36 -42 -94 -42q-69 0 -110.5 46t-41.5 119t41.5 119t110.5 46q51 0 86 -33v21h152v-236q0 -60 44 -60q33 0 54 38.5t21 124.5q0 125 -86.5 210.5t-213.5 85.5
q-133 0 -223.5 -91t-90.5 -225q0 -137 94 -226.5t238 -89.5q82 0 143 20v-49q-62 -17 -143 -17q-164 0 -273 102.5t-109 259.5q0 151 104.5 256.5t259.5 105.5zM375 203q19 0 30.5 13t11.5 34t-11.5 34t-30.5 13t-31 -13t-12 -34t12 -34t31 -13z" />
    <glyph glyph-name="A" unicode="A" 
d="M455 0l-24 90h-202l-24 -90h-215l228 700h224l228 -700h-215zM272 250h116l-58 215z" />
    <glyph glyph-name="B" unicode="B" horiz-adv-x="685" 
d="M548 422q57 -26 89.5 -77t32.5 -118q0 -96 -65 -161.5t-166 -65.5h-349h-40v700h200h105q95 0 160 -51t65 -134q0 -53 -32 -93zM351 524h-101v-80h122q17 15 17 39q0 17 -10 29t-28 12zM409 176q28 0 44.5 15t16.5 41q0 27 -16 41.5t-44 14.5h-160v-112h159z" />
    <glyph glyph-name="C" unicode="C" horiz-adv-x="756" 
d="M391 -16q-158 0 -262 105t-104 261t104 261t262 105q134 0 233.5 -83.5t115.5 -211.5h-207q-11 44 -50.5 71.5t-91.5 27.5q-74 0 -120 -48t-46 -122t46 -122t120 -48q53 0 92 27.5t50 72.5h208q-17 -129 -116.5 -212.5t-233.5 -83.5z" />
    <glyph glyph-name="D" unicode="D" horiz-adv-x="725" 
d="M360 700q145 0 242.5 -100.5t97.5 -249.5t-97.5 -249.5t-242.5 -100.5h-250h-60v700h210h100zM360 194q61 0 100.5 43.5t39.5 112.5t-39.5 112.5t-100.5 43.5h-100v-312h100z" />
    <glyph glyph-name="E" unicode="E" horiz-adv-x="515" 
d="M250 184h240v-184h-380h-60v700h200h235v-184h-235v-78h210v-170h-210v-84z" />
    <glyph glyph-name="F" unicode="F" horiz-adv-x="495" 
d="M475 506h-225v-101h220v-194h-220v-211h-200v700h200h225v-194z" />
    <glyph glyph-name="G" unicode="G" horiz-adv-x="781" 
d="M401 388h340v-160v-228h-170v55q-71 -71 -200 -71q-150 0 -248 105t-98 261t104 261t262 105q128 0 225 -75t122 -187h-210q-42 66 -135 66q-75 0 -121.5 -48t-46.5 -122q0 -80 46 -130t120 -50q93 0 131 58h-121v160z" />
    <glyph glyph-name="H" unicode="H" horiz-adv-x="650" 
d="M400 700h200v-700h-200v263h-150v-263h-200v700h200v-243h150v243z" />
    <glyph glyph-name="I" unicode="I" horiz-adv-x="300" 
d="M50 700h200v-700h-200v700z" />
    <glyph glyph-name="J" unicode="J" horiz-adv-x="550" 
d="M260 -16q-118 0 -184 64t-66 177v25h200v-25q0 -22 13.5 -34.5t36.5 -12.5t36.5 12.5t13.5 34.5v475h200v-480q0 -111 -66 -173.5t-184 -62.5z" />
    <glyph glyph-name="K" unicode="K" horiz-adv-x="636" 
d="M646 0h-222l-174 300v-300h-200v700h200v-280l164 280h222l-208 -340z" />
    <glyph glyph-name="L" unicode="L" horiz-adv-x="470" 
d="M250 194h220v-194h-360h-60v700h200v-506z" />
    <glyph glyph-name="M" unicode="M" horiz-adv-x="860" 
d="M810 700v-700h-200v389l-105 -300h-150l-105 300v-389h-200v700h200h50l130 -366l130 366h250z" />
    <glyph glyph-name="N" unicode="N" 
d="M410 700h200v-700h-160l-200 330v-330h-200v700h160l200 -330v330z" />
    <glyph glyph-name="O" unicode="O" horiz-adv-x="792" 
d="M396 -16q-156 0 -263.5 105.5t-107.5 260.5t107.5 260.5t263.5 105.5t263.5 -105.5t107.5 -260.5t-107.5 -260.5t-263.5 -105.5zM396 180q74 0 122.5 48.5t48.5 121.5t-48.5 121.5t-122.5 48.5t-122.5 -48.5t-48.5 -121.5t48.5 -121.5t122.5 -48.5z" />
    <glyph glyph-name="P" unicode="P" horiz-adv-x="595" 
d="M330 700q109 0 182 -68.5t73 -182.5t-73 -182.5t-182 -68.5h-80v-198h-200v700h200h80zM330 392q23 0 39 15.5t16 41.5t-16 41.5t-39 15.5h-80v-114h80z" />
    <glyph glyph-name="Q" unicode="Q" horiz-adv-x="797" 
d="M767 350q0 -129 -77 -226l58 -67l-141 -115l-61 72q-73 -30 -150 -30q-156 0 -263.5 105.5t-107.5 260.5t107.5 260.5t263.5 105.5t263.5 -105.5t107.5 -260.5zM396 180h7l-57 67l142 115l67 -78q12 30 12 66q0 73 -48.5 121.5t-122.5 48.5t-122.5 -48.5t-48.5 -121.5
t48.5 -121.5t122.5 -48.5z" />
    <glyph glyph-name="R" unicode="R" horiz-adv-x="635" 
d="M434 1l-147 220h-37v-220h-200v700h200h70q115 0 190 -67.5t75 -178.5q0 -128 -110 -195l180 -259h-221zM320 517h-70v-122h70q31 -1 48 14.5t17 45.5t-17 46t-48 16z" />
    <glyph glyph-name="S" unicode="S" horiz-adv-x="555" 
d="M284 -16q-124 0 -199 60t-75 184h200q0 -58 76 -58q28 0 43.5 11t15.5 29q0 25 -59 44q-10 4 -50 15q-219 67 -219 227q0 105 70.5 162.5t181.5 57.5q113 0 185.5 -58.5t72.5 -175.5h-200q0 48 -58 48q-52 0 -52 -35q0 -6 2 -11t6 -9.5t9 -8.5t13 -7.5t14.5 -6t17.5 -6
l19 -6l21.5 -6.5t21.5 -6q204 -61 204 -224q0 -105 -72.5 -162.5t-188.5 -57.5z" />
    <glyph glyph-name="T" unicode="T" horiz-adv-x="500" 
d="M495 700v-194h-145v-506h-200v506h-145v194h345h145z" />
    <glyph glyph-name="U" unicode="U" horiz-adv-x="620" 
d="M310 -16q-120 0 -195 60.5t-75 169.5v486h200v-444q0 -78 70 -78t70 78v444h200v-486q0 -109 -75 -169.5t-195 -60.5z" />
    <glyph glyph-name="V" unicode="V" horiz-adv-x="640" 
d="M208 0l-218 700h215l115 -465l115 465h215l-218 -700h-224z" />
    <glyph glyph-name="W" unicode="W" horiz-adv-x="900" 
d="M702 700h208l-198 -700h-187l-75 272l-75 -272h-187l-198 700h208l101 -397l72 254l-39 143h188l91 -370z" />
    <glyph glyph-name="X" unicode="X" horiz-adv-x="635" 
d="M635 0h-222l-95 164l-96 -164h-222l207 354l-202 346h222l91 -155l90 155h222l-201 -346z" />
    <glyph glyph-name="Y" unicode="Y" horiz-adv-x="654" 
d="M654 700l-227 -398v-302h-200v302l-227 398h222l105 -212l105 212h222z" />
    <glyph glyph-name="Z" unicode="Z" horiz-adv-x="545" 
d="M292 194h233v-194h-495v154l223 352h-218v194h480v-154z" />
    <glyph glyph-name="bracketleft" unicode="[" horiz-adv-x="320" 
d="M320 624h-95v-548h95v-176h-210h-70v900h185h95v-176z" />
    <glyph glyph-name="backslash" unicode="\" horiz-adv-x="520" 
d="M420 -100l-400 900h80l400 -900h-80z" />
    <glyph glyph-name="bracketright" unicode="]" horiz-adv-x="320" 
d="M280 800v-900h-185h-95v176h95v548h-95v176h280z" />
    <glyph glyph-name="asciicircum" unicode="^" horiz-adv-x="580" 
d="M354 700l206 -370h-200l-70 147l-70 -147h-200l206 370h128z" />
    <glyph glyph-name="underscore" unicode="_" horiz-adv-x="510" 
d="M20 -191v174h470v-174h-470z" />
    <glyph glyph-name="grave" unicode="`" horiz-adv-x="330" 
d="M310 550l-80 150h-210l116 -150h174z" />
    <glyph glyph-name="a" unicode="a" horiz-adv-x="515" 
d="M262 514q90 0 154 -52t64 -147v-315h-176v29q-45 -43 -113 -43q-77 0 -124 40.5t-47 115.5t49 115.5t126 40.5q62 0 109 -29v46q0 40 -42 40t-42 -35h-176q0 92 64.5 143t153.5 51zM254 100q22 0 36 11.5t14 30.5q0 20 -14 31t-36 11q-23 0 -36 -11.5t-13 -30.5t13 -30.5
t36 -11.5z" />
    <glyph glyph-name="b" unicode="b" horiz-adv-x="606" 
d="M349 514q102 0 170.5 -75.5t68.5 -188.5t-68.5 -188.5t-170.5 -75.5q-77 0 -124 41v-27h-185v700h185v-227q47 41 124 41zM314 160q40 0 64.5 25t24.5 65t-24.5 65t-64.5 25t-64.5 -25t-24.5 -65t24.5 -65t64.5 -25z" />
    <glyph glyph-name="c" unicode="c" horiz-adv-x="554" 
d="M544 210q-10 -97 -84 -160.5t-175 -63.5q-115 0 -191 75.5t-76 188.5t76 188.5t191 75.5q101 0 175 -63.5t84 -160.5h-191q-6 21 -24.5 33.5t-43.5 12.5q-35 0 -58.5 -24.5t-23.5 -61.5t23.5 -61.5t58.5 -24.5q25 0 44 12.5t25 33.5h190z" />
    <glyph glyph-name="d" unicode="d" horiz-adv-x="606" 
d="M381 700h185v-700h-185v27q-47 -41 -124 -41q-102 0 -170.5 75.5t-68.5 188.5t68.5 188.5t170.5 75.5q77 0 124 -41v227zM292 160q40 0 64.5 25t24.5 65t-24.5 65t-64.5 25t-64.5 -25t-24.5 -65t24.5 -65t64.5 -25z" />
    <glyph glyph-name="e" unicode="e" horiz-adv-x="556" 
d="M203 187q24 -65 92 -65q20 0 37 7t22 18h167q-23 -82 -87.5 -121.5t-151.5 -39.5q-118 0 -191 75t-73 189q0 113 75 188.5t193 75.5q109 0 180.5 -75t71.5 -187q0 -33 -8 -65h-327zM201 306h165q-15 60 -78 60q-67 0 -87 -60z" />
    <glyph glyph-name="f" unicode="f" horiz-adv-x="320" 
d="M320 550q-36 3 -56.5 -11t-20.5 -39h77v-176h-77v-324h-185v324h-58v176h58q0 108 67 165.5t195 50.5v-166z" />
    <glyph glyph-name="g" unicode="g" horiz-adv-x="613" 
d="M388 500h185v-485q0 -60 -22.5 -106t-60.5 -72.5t-83.5 -39.5t-95.5 -13q-51 0 -96 11.5t-83 35t-60.5 65.5t-22.5 98h185q0 -50 77 -50q33 0 55 17.5t22 53.5v31q-48 -40 -124 -40q-101 0 -170 74t-69 180t69 180t170 74q76 0 124 -40v26zM299 174q40 0 64.5 24.5
t24.5 61.5t-24.5 61.5t-64.5 24.5t-64.5 -24.5t-24.5 -61.5t24.5 -61.5t64.5 -24.5z" />
    <glyph glyph-name="h" unicode="h" horiz-adv-x="535" 
d="M340 514q72 0 116 -51.5t44 -143.5v-319h-185v294q0 42 -42 42q-48 0 -48 -54v-282h-185v700h185v-237q43 51 115 51z" />
    <glyph glyph-name="i" unicode="i" horiz-adv-x="265" 
d="M40 550v150h185v-150h-185zM40 0v500h185v-500h-185z" />
    <glyph glyph-name="j" unicode="j" horiz-adv-x="280" 
d="M55 700h185v-150h-185v150zM55 0v500h185v-500q0 -118 -60.5 -170.5t-189.5 -45.5v166q65 -6 65 50z" />
    <glyph glyph-name="k" unicode="k" horiz-adv-x="550" 
d="M550 0h-205l-120 200v-200h-185v700h185v-396l110 196h205l-152 -250z" />
    <glyph glyph-name="l" unicode="l" horiz-adv-x="265" 
d="M40 0v720h185v-720h-185z" />
    <glyph glyph-name="m" unicode="m" horiz-adv-x="770" 
d="M575 514q75 0 117.5 -49t42.5 -141v-324h-185v299q0 37 -32 37q-38 0 -38 -54v-282h-185v299q0 37 -32 37q-38 0 -38 -54v-282h-185v500h185v-39q45 53 115 53q74 0 110 -59q54 59 125 59z" />
    <glyph glyph-name="n" unicode="n" horiz-adv-x="535" 
d="M340 514q72 0 116 -51.5t44 -143.5v-319h-185v294q0 42 -42 42q-48 0 -48 -54v-282h-185v500h185v-37q43 51 115 51z" />
    <glyph glyph-name="o" unicode="o" horiz-adv-x="574" 
d="M287 -14q-112 0 -190.5 76t-78.5 188t78 188t191 76t191 -76t78 -188t-78 -188t-191 -76zM287 162q37 0 60.5 24.5t23.5 63.5t-23.5 63.5t-60.5 24.5t-60.5 -24.5t-23.5 -63.5t23.5 -63.5t60.5 -24.5z" />
    <glyph glyph-name="p" unicode="p" horiz-adv-x="606" 
d="M349 514q102 0 170.5 -75.5t68.5 -188.5t-68.5 -188.5t-170.5 -75.5q-77 0 -124 41v-227h-185v700h185v-27q47 41 124 41zM314 160q40 0 64.5 25t24.5 65t-24.5 65t-64.5 25t-64.5 -25t-24.5 -65t24.5 -65t64.5 -25z" />
    <glyph glyph-name="q" unicode="q" horiz-adv-x="606" 
d="M381 500h185v-700h-185v227q-47 -41 -124 -41q-102 0 -170.5 75.5t-68.5 188.5t68.5 188.5t170.5 75.5q77 0 124 -41v27zM292 160q40 0 64.5 25t24.5 65t-24.5 65t-64.5 25t-64.5 -25t-24.5 -65t24.5 -65t64.5 -25z" />
    <glyph glyph-name="r" unicode="r" horiz-adv-x="360" 
d="M225 421q12 43 47 66t83 23v-200q-52 8 -91 -17t-39 -87v-206h-185v500h185v-79z" />
    <glyph glyph-name="s" unicode="s" horiz-adv-x="480" 
d="M206 352q0 -15 19 -24t47 -12.5t61 -13.5t61 -24.5t47 -47t19 -80.5q0 -85 -63 -124.5t-157 -39.5q-95 0 -157.5 42.5t-62.5 136.5h185q0 -43 35 -43t35 26q0 16 -26 25t-63 17t-74 21.5t-63 48.5t-26 90q0 82 63 123t152 41q88 0 149.5 -45t61.5 -132h-179q0 41 -32 41
t-32 -26z" />
    <glyph glyph-name="t" unicode="t" horiz-adv-x="340" 
d="M330 500v-176h-67v-324h-185v324h-68v176h68v160h185v-160h67z" />
    <glyph glyph-name="u" unicode="u" horiz-adv-x="535" 
d="M310 500h185v-500h-185v37q-43 -51 -115 -51t-116 51.5t-44 143.5v319h185v-294q0 -42 42 -42q48 0 48 54v282z" />
    <glyph glyph-name="v" unicode="v" horiz-adv-x="560" 
d="M365 500h195l-185 -500h-175h-15l-185 500h195l85 -258z" />
    <glyph glyph-name="w" unicode="w" horiz-adv-x="740" 
d="M545 500h195l-145 -500h-165h-5l-55 190l-55 -190h-130h-40l-145 500h195l60 -260l50 174l-25 86h135l73 -250z" />
    <glyph glyph-name="x" unicode="x" horiz-adv-x="530" 
d="M530 0h-195l-70 107l-70 -107h-195l168 256l-160 244h195l62 -95l62 95h195l-159 -244z" />
    <glyph glyph-name="y" unicode="y" horiz-adv-x="542" 
d="M355 500h195l-239 -700h-195l69 201l-195 499h195l92 -269z" />
    <glyph glyph-name="z" unicode="z" horiz-adv-x="455" 
d="M266 170h174v-170h-420v130l164 200h-154v170h400v-130z" />
    <glyph glyph-name="braceleft" unicode="{" horiz-adv-x="345" 
d="M345 -107q-120 -7 -180 44.5t-60 151.5v125q0 56 -75 50v175q75 -6 75 50v125q0 100 60 151.5t180 44.5v-166q-55 6 -55 -30v-125q0 -104 -83 -137q83 -35 83 -138v-125q0 -36 55 -30v-166z" />
    <glyph glyph-name="bar" unicode="|" horiz-adv-x="285" 
d="M50 -200v920h185v-920h-185z" />
    <glyph glyph-name="braceright" unicode="}" horiz-adv-x="345" 
d="M0 -107v166q55 -6 55 30v125q0 103 83 138q-83 33 -83 137v125q0 36 -55 30v166q120 7 180 -44.5t60 -151.5v-125q0 -56 75 -50v-175q-75 6 -75 -50v-125q0 -100 -60 -151.5t-180 -44.5z" />
    <glyph glyph-name="asciitilde" unicode="~" horiz-adv-x="612" 
d="M438 471l144 -65q-25 -119 -102.5 -163.5t-173.5 1.5q-69 32 -94 28t-38 -47l-144 65q25 119 102.5 163.5t173.5 -1.5q68 -32 93 -28t39 47z" />
    <glyph glyph-name="exclamdown" unicode="&#xa1;" horiz-adv-x="310" 
d="M55 500h200v-200h-200v200zM75 240h160l35 -240v-200h-230v200z" />
    <glyph glyph-name="cent" unicode="&#xa2;" horiz-adv-x="549" 
d="M285 264q25 0 44 12.5t25 33.5h190q-10 -97 -84 -160.5t-175 -63.5q-34 0 -62 7l-30 -93h-65l36 112q-67 33 -106.5 96t-39.5 142q0 113 76 188.5t191 75.5q21 0 40 -3l29 89h65l-34 -105q66 -25 109 -79.5t50 -125.5h-191q-6 21 -24 33l-51 -159h7zM203 350
q0 -35 19 -57l46 141q-29 -5 -47 -28t-18 -56z" />
    <glyph glyph-name="sterling" unicode="&#xa3;" horiz-adv-x="580" 
d="M277 194h293v-194h-550v194h57v61h-47v140h47v97q0 108 72.5 166t167.5 58t167.5 -58t72.5 -166v-50h-200v50q0 15 -10 25.5t-30 10.5t-30 -10.5t-10 -25.5v-97h183v-140h-183v-61z" />
    <glyph glyph-name="currency" unicode="&#xa4;" horiz-adv-x="526" 
d="M480 350q0 -73 -44 -128l70 -69l-46 -46l-71 71q-55 -38 -126 -38t-126 38l-71 -71l-46 46l69 69q-43 56 -43 128t43 128l-69 69l46 46l71 -71q55 38 126 38t126 -38l71 71l46 -46l-70 -69q44 -55 44 -128zM263 308q20 0 31.5 11.5t11.5 30.5t-11.5 30.5t-31.5 11.5
t-31.5 -11.5t-11.5 -30.5t11.5 -30.5t31.5 -11.5z" />
    <glyph glyph-name="yen" unicode="&#xa5;" horiz-adv-x="654" 
d="M654 700l-184 -323h107v-100h-150v-42h150v-100h-150v-135h-200v135h-150v100h150v42h-150v100h107l-184 323h222l105 -212l105 212h222z" />
    <glyph glyph-name="brokenbar" unicode="&#xa6;" horiz-adv-x="285" 
d="M50 350v370h185v-370h-185zM50 -200v370h185v-370h-185z" />
    <glyph glyph-name="section" unicode="&#xa7;" horiz-adv-x="557" 
d="M527 290q0 -79 -60 -126q30 -45 30 -106q0 -89 -62.5 -129.5t-157.5 -40.5t-157.5 43.5t-62.5 141.5h185q0 -49 35 -49t35 32q0 8 -3.5 15t-11 13.5t-15 11.5t-20.5 11t-23.5 10l-27 10.5l-27.5 10.5q-70 28 -112 69t-42 113q0 79 60 126q-30 45 -30 106q0 82 63 123
t152 41q88 0 149.5 -45.5t61.5 -134.5h-179q0 20 -9 32t-25 12q-30 0 -30 -26q0 -12 7 -21.5t23 -18.5t30.5 -15l40.5 -16l41 -16q65 -28 103.5 -68.5t38.5 -108.5zM210 335q0 -19 16.5 -32t49.5 -27l32.5 -12.5l33.5 -12.5q5 13 5 24q0 30 -55 54q-12 6 -39 16l-38 14
q-5 -13 -5 -24z" />
    <glyph glyph-name="dieresis" unicode="&#xa8;" horiz-adv-x="390" 
d="M20 545v150h150v-150h-150zM220 545v150h150v-150h-150z" />
    <glyph glyph-name="copyright" unicode="&#xa9;" horiz-adv-x="774" 
d="M387 -12q-150 0 -256 106t-106 256t106 256t256 106t256 -106t106 -256t-106 -256t-256 -106zM387 34q129 0 220.5 92.5t91.5 223.5t-91.5 223.5t-220.5 92.5t-220.5 -92.5t-91.5 -223.5t91.5 -223.5t220.5 -92.5zM390 153q-82 0 -140.5 58.5t-58.5 138.5t58.5 138.5
t140.5 58.5q70 0 124.5 -46t68.5 -125h-153q-15 24 -44 24q-22 0 -36 -15t-14 -35t14 -35t36 -15q29 0 44 24h153q-14 -79 -68.5 -125t-124.5 -46z" />
    <glyph glyph-name="ordfeminine" unicode="&#xaa;" horiz-adv-x="270" 
d="M136 716q45 0 77 -26t32 -73v-158h-88v14q-23 -21 -57 -21q-38 0 -61.5 20t-23.5 58t24.5 58t62.5 20q33 0 55 -15v24q0 20 -21 20t-21 -18h-88q0 46 32 71.5t77 25.5zM132 509q11 0 18 6t7 15q0 21 -25 21t-25 -21t25 -21z" />
    <glyph glyph-name="guillemotleft" unicode="&#xab;" horiz-adv-x="577" 
d="M317 509l-115 -200l115 -200h-152l-115 200l115 200h152zM527 509l-115 -200l115 -200h-152l-115 200l115 200h152z" />
    <glyph glyph-name="logicalnot" unicode="&#xac;" horiz-adv-x="580" 
d="M30 440h520v-180v-120h-190v120h-330v180z" />
    <glyph glyph-name="registered" unicode="&#xae;" horiz-adv-x="774" 
d="M387 712q150 0 256 -106t106 -256t-106 -256t-256 -106t-256 106t-106 256t106 256t256 106zM387 34q129 0 220.5 92.5t91.5 223.5t-91.5 223.5t-220.5 92.5t-220.5 -92.5t-91.5 -223.5t91.5 -223.5t220.5 -92.5zM566 406q0 -68 -46 -112l86 -129h-151l-60 92h-21v-92
h-142v370h142h52q57 0 98.5 -36.5t41.5 -92.5zM396 415h-22v-48h22q28 0 28 24t-28 24z" />
    <glyph glyph-name="macron" unicode="&#xaf;" horiz-adv-x="360" 
d="M20 549v140h320v-140h-320z" />
    <glyph glyph-name="degree" unicode="&#xb0;" horiz-adv-x="426" 
d="M213 450q-78 0 -130.5 52.5t-52.5 127.5q0 76 52 128t131 52t131 -52t52 -128q0 -75 -51.5 -127.5t-131.5 -52.5zM213 590q18 0 28.5 11t10.5 29q0 17 -11 28.5t-28 11.5t-28 -11.5t-11 -28.5t11 -28.5t28 -11.5z" />
    <glyph glyph-name="plusminus" unicode="&#xb1;" horiz-adv-x="560" 
d="M370 540h160v-180h-160v-130h-180v130h-160v180h160v130h180v-130zM30 0v180h500v-180h-500z" />
    <glyph glyph-name="acute" unicode="&#xb4;" horiz-adv-x="330" 
d="M20 550h174l116 150h-210z" />
    <glyph glyph-name="uni00B5" unicode="&#xb5;" horiz-adv-x="555" 
d="M530 160h15v-160h-80q-64 0 -103 33q-44 -47 -112 -47q-9 0 -25 2v-188h-185v700h185v-294q0 -42 42 -42q48 0 48 54v282h185v-310q0 -30 30 -30z" />
    <glyph glyph-name="paragraph" unicode="&#xb6;" horiz-adv-x="760" 
d="M740 700v-194h-72v-706h-180v706h-58v-706h-180v440q-96 0 -163 67.5t-67 162.5q0 96 67 163t163 67h180h238h72z" />
    <glyph glyph-name="periodcentered" unicode="&#xb7;" horiz-adv-x="300" 
d="M50 255v200h200v-200h-200z" />
    <glyph glyph-name="cedilla" unicode="&#xb8;" horiz-adv-x="285" 
d="M212 -46q53 -22 53 -77q0 -56 -61 -83t-184 -20v114q95 -7 95 14q0 15 -53 20v78h150v-46z" />
    <glyph glyph-name="ordmasculine" unicode="&#xba;" horiz-adv-x="299" 
d="M149 450q-56 0 -95 38t-39 94t39 94t95 38q57 0 96 -38t39 -94t-39 -94t-96 -38zM149 538q19 0 30.5 12t11.5 32t-11.5 32t-30.5 12q-18 0 -30 -12.5t-12 -31.5t12 -31.5t30 -12.5z" />
    <glyph glyph-name="guillemotright" unicode="&#xbb;" horiz-adv-x="577" 
d="M202 509l115 -200l-115 -200h-152l115 200l-115 200h152zM412 509l115 -200l-115 -200h-152l115 200l-115 200h152z" />
    <glyph glyph-name="onequarter" unicode="&#xbc;" horiz-adv-x="825" 
d="M107 300v258l-97 -51v140l97 53h142v-400h-142zM509 700h130l-410 -700h-130zM815 171v-120h-33v-51h-128v51h-190v120l110 229h147l-104 -229h37v66h128v-66h33z" />
    <glyph glyph-name="onehalf" unicode="&#xbd;" horiz-adv-x="810" 
d="M107 300v258l-97 -51v140l97 53h142v-400h-142zM509 700h130l-410 -700h-130zM683 125h107v-125h-306v102l140 131q27 25 27 40q0 19 -16 19q-18 0 -18 -29h-138q0 77 43 114t110 37t112 -34t45 -99q0 -61 -70 -124z" />
    <glyph glyph-name="threequarters" unicode="&#xbe;" horiz-adv-x="869" 
d="M313 428q0 -68 -44 -105t-110 -37t-110 37t-44 105h131q0 -19 23 -19t23 19q0 20 -23 20h-80v77l41 52h-99v123h267v-89l-56 -71q81 -29 81 -112zM553 700h130l-410 -700h-130zM859 171v-120h-33v-51h-128v51h-190v120l110 229h147l-104 -229h37v66h128v-66h33z" />
    <glyph glyph-name="questiondown" unicode="&#xbf;" horiz-adv-x="540" 
d="M385 500v-200h-200v200h200zM375 240q0 -35 -15 -66t-36.5 -53t-42.5 -41t-36 -38t-15 -37q0 -35 52 -35q58 0 58 48h190q0 -111 -73.5 -172.5t-184.5 -61.5q-104 0 -173 54t-69 151q0 40 17 75t41 58t48.5 42.5t41.5 39t17 36.5h180z" />
    <glyph glyph-name="Agrave" unicode="&#xc0;" 
d="M420 750h-174l-116 150h210zM455 0l-24 90h-202l-24 -90h-215l228 700h224l228 -700h-215zM272 250h116l-58 215z" />
    <glyph glyph-name="Aacute" unicode="&#xc1;" 
d="M530 900l-116 -150h-174l80 150h210zM455 0l-24 90h-202l-24 -90h-215l228 700h224l228 -700h-215zM272 250h116l-58 215z" />
    <glyph glyph-name="Acircumflex" unicode="&#xc2;" 
d="M325 798l-45 -58h-155l106 160h174h14l106 -160h-155zM455 0l-24 90h-202l-24 -90h-215l228 700h224l228 -700h-215zM272 250h116l-58 215z" />
    <glyph glyph-name="Atilde" unicode="&#xc3;" 
d="M326 757q-5 2 -14 6.5t-13.5 6.5t-11 3.5t-9.5 -1.5t-5 -10t-2 -19h-120q0 60 17 99t45 53t58.5 14t62.5 -13q5 -2 14.5 -6.5l14 -6.5t11 -3.5t9.5 1.5t5 10t2 19h120q0 -61 -17 -100.5t-45 -53t-58.5 -13t-63.5 13.5zM455 0l-24 90h-202l-24 -90h-215l228 700h224
l228 -700h-215zM272 250h116l-58 215z" />
    <glyph glyph-name="Adieresis" unicode="&#xc4;" 
d="M305 895v-150h-150v150h150zM505 895v-150h-150v150h150zM455 0l-24 90h-202l-24 -90h-215l228 700h224l228 -700h-215zM272 250h116l-58 215z" />
    <glyph glyph-name="Aring" unicode="&#xc5;" 
d="M330 730q-65 0 -107 40t-42 100t42 100t107 40q67 0 108 -39.5t41 -100.5t-41 -100.5t-108 -39.5zM330 900q-15 0 -23 -8.5t-8 -21.5t8 -21.5t23 -8.5q32 0 32 30t-32 30zM455 0l-24 90h-202l-24 -90h-215l228 700h224l228 -700h-215zM272 250h116l-58 215z" />
    <glyph glyph-name="AE" unicode="&#xc6;" horiz-adv-x="885" 
d="M635 184h225v-184h-370h-50v90h-182l-48 -90h-220l389 700h111h145h220v-184h-220v-77h195v-170h-195v-85zM345 250h95v177z" />
    <glyph glyph-name="Ccedilla" unicode="&#xc7;" horiz-adv-x="756" 
d="M741 280q-15 -109 -90 -187t-183 -101v-38q53 -22 53 -77q0 -56 -61 -83t-184 -20v114q95 -7 95 14q0 15 -53 20v69q-130 23 -211.5 123t-81.5 236q0 156 104 261t262 105q134 0 233.5 -83.5t115.5 -211.5h-207q-11 44 -50.5 71.5t-91.5 27.5q-74 0 -120 -48t-46 -122
t46 -122t120 -48q53 0 92 27.5t50 72.5h208z" />
    <glyph glyph-name="Egrave" unicode="&#xc8;" horiz-adv-x="515" 
d="M358 750h-174l-116 150h210zM250 184h240v-184h-380h-60v700h200h235v-184h-235v-78h210v-170h-210v-84z" />
    <glyph glyph-name="Eacute" unicode="&#xc9;" horiz-adv-x="515" 
d="M468 900l-116 -150h-174l80 150h210zM250 184h240v-184h-380h-60v700h200h235v-184h-235v-78h210v-170h-210v-84z" />
    <glyph glyph-name="Ecircumflex" unicode="&#xca;" horiz-adv-x="515" 
d="M263 798l-45 -58h-155l106 160h174h14l106 -160h-155zM250 184h240v-184h-380h-60v700h200h235v-184h-235v-78h210v-170h-210v-84z" />
    <glyph glyph-name="Edieresis" unicode="&#xcb;" horiz-adv-x="515" 
d="M243 895v-150h-150v150h150zM443 895v-150h-150v150h150zM250 184h240v-184h-380h-60v700h200h235v-184h-235v-78h210v-170h-210v-84z" />
    <glyph glyph-name="Igrave" unicode="&#xcc;" horiz-adv-x="300" 
d="M240 750l-80 150h-210l116 -150h174zM50 700h200v-700h-200v700z" />
    <glyph glyph-name="Iacute" unicode="&#xcd;" horiz-adv-x="300" 
d="M60 750h174l116 150h-210zM50 700h200v-700h-200v700z" />
    <glyph glyph-name="Icircumflex" unicode="&#xce;" horiz-adv-x="300" 
d="M145 798l-45 -58h-155l106 160h174h14l106 -160h-155zM50 0v700h200v-700h-200z" />
    <glyph glyph-name="Idieresis" unicode="&#xcf;" horiz-adv-x="300" 
d="M-25 745v150h150v-150h-150zM175 745v150h150v-150h-150zM50 700h200v-700h-200v700z" />
    <glyph glyph-name="Eth" unicode="&#xd0;" horiz-adv-x="745" 
d="M380 700q145 0 242.5 -100.5t97.5 -249.5t-97.5 -249.5t-242.5 -100.5h-250h-60v258h-70v174h70v268h210h100zM380 194q61 0 100.5 43.5t39.5 112.5t-39.5 112.5t-100.5 43.5h-100v-74h120v-174h-120v-64h100z" />
    <glyph glyph-name="Ntilde" unicode="&#xd1;" 
d="M146 743q0 60 17 99t45 53t58.5 14t62.5 -13q5 -2 14.5 -6.5l14 -6.5t11 -3.5t9.5 1.5t5 10t2 19h120q0 -61 -17 -100.5t-45 -53t-58.5 -13t-63.5 13.5q-5 2 -14 6.5t-13.5 6.5t-11 3.5t-9.5 -1.5t-5 -10t-2 -19h-120zM410 700h200v-700h-160l-200 330v-330h-200v700h160
l200 -330v330z" />
    <glyph glyph-name="Ograve" unicode="&#xd2;" horiz-adv-x="792" 
d="M486 760l-80 150h-210l116 -150h174zM396 -16q-156 0 -263.5 105.5t-107.5 260.5t107.5 260.5t263.5 105.5t263.5 -105.5t107.5 -260.5t-107.5 -260.5t-263.5 -105.5zM396 180q74 0 122.5 48.5t48.5 121.5t-48.5 121.5t-122.5 48.5t-122.5 -48.5t-48.5 -121.5
t48.5 -121.5t122.5 -48.5z" />
    <glyph glyph-name="Oacute" unicode="&#xd3;" horiz-adv-x="792" 
d="M306 760h174l116 150h-210zM396 -16q-156 0 -263.5 105.5t-107.5 260.5t107.5 260.5t263.5 105.5t263.5 -105.5t107.5 -260.5t-107.5 -260.5t-263.5 -105.5zM396 180q74 0 122.5 48.5t48.5 121.5t-48.5 121.5t-122.5 48.5t-122.5 -48.5t-48.5 -121.5t48.5 -121.5
t122.5 -48.5z" />
    <glyph glyph-name="Ocircumflex" unicode="&#xd4;" horiz-adv-x="792" 
d="M391 808l-45 -58h-155l106 160h174h14l106 -160h-155zM396 716q156 0 263.5 -105.5t107.5 -260.5t-107.5 -260.5t-263.5 -105.5t-263.5 105.5t-107.5 260.5t107.5 260.5t263.5 105.5zM396 180q74 0 122.5 48.5t48.5 121.5t-48.5 121.5t-122.5 48.5t-122.5 -48.5
t-48.5 -121.5t48.5 -121.5t122.5 -48.5z" />
    <glyph glyph-name="Otilde" unicode="&#xd5;" horiz-adv-x="792" 
d="M217 753q0 60 17 99t45 53t58.5 14t62.5 -13q5 -2 14.5 -6.5l14 -6.5t11 -3.5t9.5 1.5t5 10t2 19h120q0 -61 -17 -100.5t-45 -53t-58.5 -13t-63.5 13.5q-5 2 -14 6.5t-13.5 6.5t-11 3.5t-9.5 -1.5t-5 -10t-2 -19h-120zM396 -16q-156 0 -263.5 105.5t-107.5 260.5
t107.5 260.5t263.5 105.5t263.5 -105.5t107.5 -260.5t-107.5 -260.5t-263.5 -105.5zM396 180q74 0 122.5 48.5t48.5 121.5t-48.5 121.5t-122.5 48.5t-122.5 -48.5t-48.5 -121.5t48.5 -121.5t122.5 -48.5z" />
    <glyph glyph-name="Odieresis" unicode="&#xd6;" horiz-adv-x="792" 
d="M221 755v150h150v-150h-150zM421 755v150h150v-150h-150zM396 -16q-156 0 -263.5 105.5t-107.5 260.5t107.5 260.5t263.5 105.5t263.5 -105.5t107.5 -260.5t-107.5 -260.5t-263.5 -105.5zM396 180q74 0 122.5 48.5t48.5 121.5t-48.5 121.5t-122.5 48.5t-122.5 -48.5
t-48.5 -121.5t48.5 -121.5t122.5 -48.5z" />
    <glyph glyph-name="multiply" unicode="&#xd7;" horiz-adv-x="553" 
d="M523 469l-119 -119l119 -119l-127 -128l-119 120l-120 -120l-127 128l119 119l-119 119l127 128l120 -119l119 119z" />
    <glyph glyph-name="Oslash" unicode="&#xd8;" horiz-adv-x="797" 
d="M661 614q111 -106 111 -264q0 -155 -107.5 -260.5t-263.5 -105.5q-115 0 -207 61l-37 -45h-110l81 99q-98 104 -98 251q0 155 107.5 260.5t263.5 105.5q106 0 191 -51l29 35h110zM230 350q0 -53 27 -94l207 253q-30 11 -63 11q-74 0 -122.5 -48.5t-48.5 -121.5zM401 180
q74 0 122.5 48.5t48.5 121.5q0 64 -38 110l-214 -261q38 -19 81 -19z" />
    <glyph glyph-name="Ugrave" unicode="&#xd9;" horiz-adv-x="620" 
d="M400 750l-80 150h-210l116 -150h174zM310 -16q-120 0 -195 60.5t-75 169.5v486h200v-444q0 -78 70 -78t70 78v444h200v-486q0 -109 -75 -169.5t-195 -60.5z" />
    <glyph glyph-name="Uacute" unicode="&#xda;" horiz-adv-x="620" 
d="M220 750h174l116 150h-210zM310 -16q-120 0 -195 60.5t-75 169.5v486h200v-444q0 -78 70 -78t70 78v444h200v-486q0 -109 -75 -169.5t-195 -60.5z" />
    <glyph glyph-name="Ucircumflex" unicode="&#xdb;" horiz-adv-x="620" 
d="M305 798l-45 -58h-155l106 160h174h14l106 -160h-155zM380 700h200v-486q0 -109 -75 -169.5t-195 -60.5t-195 60.5t-75 169.5v486h200v-444q0 -78 70 -78t70 78v444z" />
    <glyph glyph-name="Udieresis" unicode="&#xdc;" horiz-adv-x="620" 
d="M135 745v150h150v-150h-150zM335 745v150h150v-150h-150zM310 -16q-120 0 -195 60.5t-75 169.5v486h200v-444q0 -78 70 -78t70 78v444h200v-486q0 -109 -75 -169.5t-195 -60.5z" />
    <glyph glyph-name="Yacute" unicode="&#xdd;" horiz-adv-x="654" 
d="M527 900l-116 -150h-174l80 150h210zM654 700l-227 -398v-302h-200v302l-227 398h222l105 -212l105 212h222z" />
    <glyph glyph-name="Thorn" unicode="&#xde;" horiz-adv-x="595" 
d="M330 602q109 0 182 -68.5t73 -182.5t-73 -182.5t-182 -68.5h-80v-99h-200v700h200v-99h80zM330 294q23 0 39 15.5t16 41.5t-16 41.5t-39 15.5h-80v-114h80z" />
    <glyph glyph-name="germandbls" unicode="&#xdf;" horiz-adv-x="539" 
d="M271 -3v158q78 -13 78 45q0 26 -45 89t-45 90q0 22 24.5 64t24.5 71q0 42 -38 42q-21 0 -33 -14.5t-12 -38.5v-503h-185v493q0 104 62 163.5t173 59.5q104 0 161 -48t57 -117q0 -42 -27.5 -93.5t-27.5 -68.5q0 -18 15 -44.5t33 -50.5t33 -64.5t15 -83.5q0 -84 -64.5 -128
t-198.5 -21z" />
    <glyph glyph-name="agrave" unicode="&#xe0;" horiz-adv-x="515" 
d="M352 560h-174l-116 150h210zM262 514q90 0 154 -52t64 -147v-315h-176v29q-45 -43 -113 -43q-77 0 -124 40.5t-47 115.5t49 115.5t126 40.5q62 0 109 -29v46q0 40 -42 40t-42 -35h-176q0 92 64.5 143t153.5 51zM254 100q22 0 36 11.5t14 30.5q0 20 -14 31t-36 11
q-23 0 -36 -11.5t-13 -30.5t13 -30.5t36 -11.5z" />
    <glyph glyph-name="aacute" unicode="&#xe1;" horiz-adv-x="515" 
d="M462 710l-116 -150h-174l80 150h210zM262 514q90 0 154 -52t64 -147v-315h-176v29q-45 -43 -113 -43q-77 0 -124 40.5t-47 115.5t49 115.5t126 40.5q62 0 109 -29v46q0 40 -42 40t-42 -35h-176q0 92 64.5 143t153.5 51zM254 100q22 0 36 11.5t14 30.5q0 20 -14 31t-36 11
q-23 0 -36 -11.5t-13 -30.5t13 -30.5t36 -11.5z" />
    <glyph glyph-name="acircumflex" unicode="&#xe2;" horiz-adv-x="515" 
d="M257 608l-45 -58h-155l106 160h174h14l106 -160h-155zM262 514q90 0 154 -52t64 -147v-315h-176v29q-45 -43 -113 -43q-77 0 -124 40.5t-47 115.5t49 115.5t126 40.5q62 0 109 -29v46q0 40 -42 40t-42 -35h-176q0 92 64.5 143t153.5 51zM254 100q22 0 36 11.5t14 30.5
q0 20 -14 31t-36 11q-23 0 -36 -11.5t-13 -30.5t13 -30.5t36 -11.5z" />
    <glyph glyph-name="atilde" unicode="&#xe3;" horiz-adv-x="515" 
d="M258 567q-5 2 -14 6.5t-13.5 6.5t-11 3.5t-9.5 -1.5t-5 -10t-2 -19h-120q0 60 17 99t45 53t58.5 14t62.5 -13q5 -2 14.5 -6.5l14 -6.5t11 -3.5t9.5 1.5t5 10t2 19h120q0 -61 -17 -100.5t-45 -53t-58.5 -13t-63.5 13.5zM262 514q90 0 154 -52t64 -147v-315h-176v29
q-45 -43 -113 -43q-77 0 -124 40.5t-47 115.5t49 115.5t126 40.5q62 0 109 -29v46q0 40 -42 40t-42 -35h-176q0 92 64.5 143t153.5 51zM254 100q22 0 36 11.5t14 30.5q0 20 -14 31t-36 11q-23 0 -36 -11.5t-13 -30.5t13 -30.5t36 -11.5z" />
    <glyph glyph-name="adieresis" unicode="&#xe4;" horiz-adv-x="515" 
d="M237 705v-150h-150v150h150zM437 705v-150h-150v150h150zM262 514q90 0 154 -52t64 -147v-315h-176v29q-45 -43 -113 -43q-77 0 -124 40.5t-47 115.5t49 115.5t126 40.5q62 0 109 -29v46q0 40 -42 40t-42 -35h-176q0 92 64.5 143t153.5 51zM254 100q22 0 36 11.5t14 30.5
q0 20 -14 31t-36 11q-23 0 -36 -11.5t-13 -30.5t13 -30.5t36 -11.5z" />
    <glyph glyph-name="aring" unicode="&#xe5;" horiz-adv-x="515" 
d="M262 540q-65 0 -107 40t-42 100t42 100t107 40q67 0 108 -39.5t41 -100.5t-41 -100.5t-108 -39.5zM262 710q-15 0 -23 -8.5t-8 -21.5t8 -21.5t23 -8.5q32 0 32 30t-32 30zM262 514q90 0 154 -52t64 -147v-315h-176v29q-45 -43 -113 -43q-77 0 -124 40.5t-47 115.5
t49 115.5t126 40.5q62 0 109 -29v46q0 40 -42 40t-42 -35h-176q0 92 64.5 143t153.5 51zM254 100q22 0 36 11.5t14 30.5q0 20 -14 31t-36 11q-23 0 -36 -11.5t-13 -30.5t13 -30.5t36 -11.5z" />
    <glyph glyph-name="ae" unicode="&#xe6;" horiz-adv-x="823" 
d="M488 187q21 -65 84 -65q36 0 49 25h167q-23 -82 -78 -121.5t-126 -39.5q-106 0 -172 72q-58 -72 -186 -72q-95 0 -150.5 40t-55.5 116t49 116t126 40q62 0 109 -29v46q0 40 -42 40t-42 -35h-176q0 92 58.5 143t139.5 51q110 0 168 -73q63 73 168 73q98 0 162.5 -75
t64.5 -187q0 -33 -8 -65h-309zM486 306h148q-15 60 -69 60q-62 0 -79 -60zM254 100q22 0 36 11.5t14 30.5q0 20 -14 31t-36 11q-23 0 -36 -11.5t-13 -30.5t13 -30.5t36 -11.5z" />
    <glyph glyph-name="ccedilla" unicode="&#xe7;" horiz-adv-x="554" 
d="M285 164q25 0 44 12.5t25 33.5h190q-8 -76 -57 -133.5t-123 -79.5v-43q53 -22 53 -77q0 -56 -61 -83t-184 -20v114q95 -7 95 14q0 15 -53 20v73q-88 22 -142 91.5t-54 163.5q0 113 76 188.5t191 75.5q101 0 175 -63.5t84 -160.5h-191q-6 21 -24.5 33.5t-43.5 12.5
q-35 0 -58.5 -24.5t-23.5 -61.5t23.5 -61.5t58.5 -24.5z" />
    <glyph glyph-name="egrave" unicode="&#xe8;" horiz-adv-x="556" 
d="M373 560h-174l-116 150h210zM203 187q24 -65 92 -65q20 0 37 7t22 18h167q-23 -82 -87.5 -121.5t-151.5 -39.5q-118 0 -191 75t-73 189q0 113 75 188.5t193 75.5q109 0 180.5 -75t71.5 -187q0 -33 -8 -65h-327zM201 306h165q-15 60 -78 60q-67 0 -87 -60z" />
    <glyph glyph-name="eacute" unicode="&#xe9;" horiz-adv-x="556" 
d="M483 710l-116 -150h-174l80 150h210zM203 187q24 -65 92 -65q20 0 37 7t22 18h167q-23 -82 -87.5 -121.5t-151.5 -39.5q-118 0 -191 75t-73 189q0 113 75 188.5t193 75.5q109 0 180.5 -75t71.5 -187q0 -33 -8 -65h-327zM201 306h165q-15 60 -78 60q-67 0 -87 -60z" />
    <glyph glyph-name="ecircumflex" unicode="&#xea;" horiz-adv-x="556" 
d="M278 608l-45 -58h-155l106 160h174h14l106 -160h-155zM203 187q24 -65 92 -65q20 0 37 7t22 18h167q-23 -82 -87.5 -121.5t-151.5 -39.5q-118 0 -191 75t-73 189q0 113 75 188.5t193 75.5q109 0 180.5 -75t71.5 -187q0 -33 -8 -65h-327zM201 306h165q-15 60 -78 60
q-67 0 -87 -60z" />
    <glyph glyph-name="edieresis" unicode="&#xeb;" horiz-adv-x="556" 
d="M258 705v-150h-150v150h150zM458 705v-150h-150v150h150zM203 187q24 -65 92 -65q20 0 37 7t22 18h167q-23 -82 -87.5 -121.5t-151.5 -39.5q-118 0 -191 75t-73 189q0 113 75 188.5t193 75.5q109 0 180.5 -75t71.5 -187q0 -33 -8 -65h-327zM201 306h165q-15 60 -78 60
q-67 0 -87 -60z" />
    <glyph glyph-name="igrave" unicode="&#xec;" horiz-adv-x="265" 
d="M220 550l-40 150h-210l76 -150h174zM225 0h-185v500h185v-500z" />
    <glyph glyph-name="iacute" unicode="&#xed;" horiz-adv-x="265" 
d="M40 550h174l76 150h-210zM40 0v500h185v-500h-185z" />
    <glyph glyph-name="icircumflex" unicode="&#xee;" horiz-adv-x="265" 
d="M132 593l-35 -53h-145l86 160h164h24l86 -160h-145zM40 0v500h185v-500h-185z" />
    <glyph glyph-name="idieresis" unicode="&#xef;" horiz-adv-x="265" 
d="M-28 550v140h140v-140h-140zM152 550v140h140v-140h-140zM40 0v500h185v-500h-185z" />
    <glyph glyph-name="eth" unicode="&#xf0;" horiz-adv-x="562" 
d="M498 370q46 -63 46 -140q0 -110 -78.5 -178t-184.5 -68q-112 0 -187.5 67t-75.5 179q0 82 55 147t138 82l-25 36l-121 -38v140l39 12l-64 91h212l27 -36l143 45v-140l-59 -18zM281 149q35 0 56.5 20t21.5 57q0 24 -14 44q-24 29 -64 29q-35 0 -56.5 -19.5t-21.5 -53.5
q0 -37 21.5 -57t56.5 -20z" />
    <glyph glyph-name="ntilde" unicode="&#xf1;" horiz-adv-x="535" 
d="M271 567q-5 2 -14 6.5t-13.5 6.5t-11 3.5t-9.5 -1.5t-5 -10t-2 -19h-120q0 60 17 99t45 53t58.5 14t62.5 -13q5 -2 14.5 -6.5l14 -6.5t11 -3.5t9.5 1.5t5 10t2 19h120q0 -61 -17 -100.5t-45 -53t-58.5 -13t-63.5 13.5zM340 514q72 0 116 -51.5t44 -143.5v-319h-185v294
q0 42 -42 42q-48 0 -48 -54v-282h-185v500h185v-37q43 51 115 51z" />
    <glyph glyph-name="ograve" unicode="&#xf2;" horiz-adv-x="574" 
d="M377 560l-80 150h-210l116 -150h174zM287 -14q-112 0 -190.5 76t-78.5 188t78 188t191 76t191 -76t78 -188t-78 -188t-191 -76zM287 162q37 0 60.5 24.5t23.5 63.5t-23.5 63.5t-60.5 24.5t-60.5 -24.5t-23.5 -63.5t23.5 -63.5t60.5 -24.5z" />
    <glyph glyph-name="oacute" unicode="&#xf3;" horiz-adv-x="574" 
d="M197 560h174l116 150h-210zM287 -14q-112 0 -190.5 76t-78.5 188t78 188t191 76t191 -76t78 -188t-78 -188t-191 -76zM287 162q37 0 60.5 24.5t23.5 63.5t-23.5 63.5t-60.5 24.5t-60.5 -24.5t-23.5 -63.5t23.5 -63.5t60.5 -24.5z" />
    <glyph glyph-name="ocircumflex" unicode="&#xf4;" horiz-adv-x="574" 
d="M282 608l-45 -58h-155l106 160h174h14l106 -160h-155zM287 514q113 0 191 -76t78 -188t-78 -188t-191 -76q-112 0 -190.5 76t-78.5 188t78 188t191 76zM287 162q37 0 60.5 24.5t23.5 63.5t-23.5 63.5t-60.5 24.5t-60.5 -24.5t-23.5 -63.5t23.5 -63.5t60.5 -24.5z" />
    <glyph glyph-name="otilde" unicode="&#xf5;" horiz-adv-x="574" 
d="M108 553q0 60 17 99t45 53t58.5 14t62.5 -13q5 -2 14.5 -6.5l14 -6.5t11 -3.5t9.5 1.5t5 10t2 19h120q0 -61 -17 -100.5t-45 -53t-58.5 -13t-63.5 13.5q-5 2 -14 6.5t-13.5 6.5t-11 3.5t-9.5 -1.5t-5 -10t-2 -19h-120zM287 -14q-112 0 -190.5 76t-78.5 188t78 188t191 76
t191 -76t78 -188t-78 -188t-191 -76zM287 162q37 0 60.5 24.5t23.5 63.5t-23.5 63.5t-60.5 24.5t-60.5 -24.5t-23.5 -63.5t23.5 -63.5t60.5 -24.5z" />
    <glyph glyph-name="odieresis" unicode="&#xf6;" horiz-adv-x="574" 
d="M112 555v150h150v-150h-150zM312 555v150h150v-150h-150zM287 -14q-112 0 -190.5 76t-78.5 188t78 188t191 76t191 -76t78 -188t-78 -188t-191 -76zM287 162q37 0 60.5 24.5t23.5 63.5t-23.5 63.5t-60.5 24.5t-60.5 -24.5t-23.5 -63.5t23.5 -63.5t60.5 -24.5z" />
    <glyph glyph-name="divide" unicode="&#xf7;" horiz-adv-x="540" 
d="M270 462q-43 0 -71.5 28.5t-28.5 71.5t28.5 71.5t71.5 28.5t71.5 -28.5t28.5 -71.5t-28.5 -71.5t-71.5 -28.5zM30 260v180h480v-180h-480zM270 38q-43 0 -71.5 28.5t-28.5 71.5t28.5 71.5t71.5 28.5t71.5 -28.5t28.5 -71.5t-28.5 -71.5t-71.5 -28.5z" />
    <glyph glyph-name="oslash" unicode="&#xf8;" horiz-adv-x="574" 
d="M472 443q84 -76 84 -193q0 -112 -78 -188t-191 -76q-79 0 -144 40l-20 -26h-70l47 59q-82 77 -82 191q0 112 78 188t191 76q76 0 141 -38l19 24h70zM203 250q0 -26 11 -46l102 129q-15 5 -29 5q-37 0 -60.5 -24.5t-23.5 -63.5zM287 162q37 0 60.5 24.5t23.5 63.5
q0 29 -13 49l-103 -131q15 -6 32 -6z" />
    <glyph glyph-name="ugrave" unicode="&#xf9;" horiz-adv-x="535" 
d="M354 550h-174l-116 150h210zM310 500h185v-500h-185v37q-43 -51 -115 -51t-116 51.5t-44 143.5v319h185v-294q0 -42 42 -42q48 0 48 54v282z" />
    <glyph glyph-name="uacute" unicode="&#xfa;" horiz-adv-x="535" 
d="M464 700l-116 -150h-174l80 150h210zM310 500h185v-500h-185v37q-43 -51 -115 -51t-116 51.5t-44 143.5v319h185v-294q0 -42 42 -42q48 0 48 54v282z" />
    <glyph glyph-name="ucircumflex" unicode="&#xfb;" horiz-adv-x="535" 
d="M259 598l-45 -58h-155l106 160h174h14l106 -160h-155zM310 500h185v-500h-185v37q-43 -51 -115 -51t-116 51.5t-44 143.5v319h185v-294q0 -42 42 -42q48 0 48 54v282z" />
    <glyph glyph-name="udieresis" unicode="&#xfc;" horiz-adv-x="535" 
d="M239 695v-150h-150v150h150zM439 695v-150h-150v150h150zM310 500h185v-500h-185v37q-43 -51 -115 -51t-116 51.5t-44 143.5v319h185v-294q0 -42 42 -42q48 0 48 54v282z" />
    <glyph glyph-name="yacute" unicode="&#xfd;" horiz-adv-x="542" 
d="M186 550h174l116 150h-210zM355 500h195l-239 -700h-195l69 201l-195 499h195l92 -269z" />
    <glyph glyph-name="thorn" unicode="&#xfe;" horiz-adv-x="606" 
d="M349 514q102 0 170.5 -75.5t68.5 -188.5t-68.5 -188.5t-170.5 -75.5q-77 0 -124 41v-227h-185v900h185v-227q47 41 124 41zM314 160q40 0 64.5 25t24.5 65t-24.5 65t-64.5 25t-64.5 -25t-24.5 -65t24.5 -65t64.5 -25z" />
    <glyph glyph-name="ydieresis" unicode="&#xff;" horiz-adv-x="542" 
d="M101 545v150h150v-150h-150zM301 545v150h150v-150h-150zM355 500h195l-239 -700h-195l69 201l-195 499h195l92 -269z" />
    <glyph glyph-name="Amacron" unicode="&#x100;" 
d="M490 889v-140h-320v140h320zM455 0l-24 90h-202l-24 -90h-215l228 700h224l228 -700h-215zM272 250h116l-58 215z" />
    <glyph glyph-name="amacron" unicode="&#x101;" horiz-adv-x="515" 
d="M422 699v-140h-320v140h320zM262 514q90 0 154 -52t64 -147v-315h-176v29q-45 -43 -113 -43q-77 0 -124 40.5t-47 115.5t49 115.5t126 40.5q62 0 109 -29v46q0 40 -42 40t-42 -35h-176q0 92 64.5 143t153.5 51zM254 100q22 0 36 11.5t14 30.5q0 20 -14 31t-36 11
q-23 0 -36 -11.5t-13 -30.5t13 -30.5t36 -11.5z" />
    <glyph glyph-name="Abreve" unicode="&#x102;" 
d="M330 732q-89 0 -137 43t-48 127h150q0 -40 35 -40t35 40h150q0 -84 -48 -127t-137 -43zM455 0l-24 90h-202l-24 -90h-215l228 700h224l228 -700h-215zM272 250h116l-58 215z" />
    <glyph glyph-name="abreve" unicode="&#x103;" horiz-adv-x="515" 
d="M262 542q-89 0 -137 43t-48 127h150q0 -40 35 -40t35 40h150q0 -84 -48 -127t-137 -43zM262 514q90 0 154 -52t64 -147v-315h-176v29q-45 -43 -113 -43q-77 0 -124 40.5t-47 115.5t49 115.5t126 40.5q62 0 109 -29v46q0 40 -42 40t-42 -35h-176q0 92 64.5 143t153.5 51z
M254 100q22 0 36 11.5t14 30.5q0 20 -14 31t-36 11q-23 0 -36 -11.5t-13 -30.5t13 -30.5t36 -11.5z" />
    <glyph glyph-name="Aogonek" unicode="&#x104;" 
d="M630 -71q0 -19 21 -19q10 0 19 3v-110q-42 -17 -88 -17q-48 0 -79 23t-31 68q0 61 59 123h-76l-24 90h-202l-24 -90h-215l228 700h224l228 -700q-40 -41 -40 -71zM272 250h116l-58 215z" />
    <glyph glyph-name="aogonek" unicode="&#x105;" horiz-adv-x="515" 
d="M480 315v-315q-40 -41 -40 -71q0 -19 21 -19q10 0 19 3v-110q-42 -17 -88 -17q-48 0 -79 23t-31 68q0 61 59 123h-37v29q-45 -43 -113 -43q-77 0 -124 40.5t-47 115.5t49 115.5t126 40.5q62 0 109 -29v46q0 40 -42 40t-42 -35h-176q0 92 64.5 143t153.5 51q90 0 154 -52
t64 -147zM254 100q22 0 36 11.5t14 30.5q0 20 -14 31t-36 11q-23 0 -36 -11.5t-13 -30.5t13 -30.5t36 -11.5z" />
    <glyph glyph-name="Cacute" unicode="&#x106;" horiz-adv-x="756" 
d="M301 760h174l116 150h-210zM391 -16q-158 0 -262 105t-104 261t104 261t262 105q134 0 233.5 -83.5t115.5 -211.5h-207q-11 44 -50.5 71.5t-91.5 27.5q-74 0 -120 -48t-46 -122t46 -122t120 -48q53 0 92 27.5t50 72.5h208q-17 -129 -116.5 -212.5t-233.5 -83.5z" />
    <glyph glyph-name="cacute" unicode="&#x107;" horiz-adv-x="554" 
d="M194 560h174l116 150h-210zM544 210q-10 -97 -84 -160.5t-175 -63.5q-115 0 -191 75.5t-76 188.5t76 188.5t191 75.5q101 0 175 -63.5t84 -160.5h-191q-6 21 -24.5 33.5t-43.5 12.5q-35 0 -58.5 -24.5t-23.5 -61.5t23.5 -61.5t58.5 -24.5q25 0 44 12.5t25 33.5h190z" />
    <glyph glyph-name="Cdotaccent" unicode="&#x10a;" horiz-adv-x="756" 
d="M306 755v160h170v-160h-170zM391 -16q-158 0 -262 105t-104 261t104 261t262 105q134 0 233.5 -83.5t115.5 -211.5h-207q-11 44 -50.5 71.5t-91.5 27.5q-74 0 -120 -48t-46 -122t46 -122t120 -48q53 0 92 27.5t50 72.5h208q-17 -129 -116.5 -212.5t-233.5 -83.5z" />
    <glyph glyph-name="cdotaccent" unicode="&#x10b;" horiz-adv-x="554" 
d="M199 555v160h170v-160h-170zM544 210q-10 -97 -84 -160.5t-175 -63.5q-115 0 -191 75.5t-76 188.5t76 188.5t191 75.5q101 0 175 -63.5t84 -160.5h-191q-6 21 -24.5 33.5t-43.5 12.5q-35 0 -58.5 -24.5t-23.5 -61.5t23.5 -61.5t58.5 -24.5q25 0 44 12.5t25 33.5h190z" />
    <glyph glyph-name="Ccaron" unicode="&#x10c;" horiz-adv-x="756" 
d="M292 750l-106 160h155l45 -58l45 58h155l-106 -160h-188zM533 280h208q-17 -129 -116.5 -212.5t-233.5 -83.5q-158 0 -262 105t-104 261t104 261t262 105q134 0 233.5 -83.5t115.5 -211.5h-207q-11 44 -50.5 71.5t-91.5 27.5q-74 0 -120 -48t-46 -122t46 -122t120 -48
q53 0 92 27.5t50 72.5z" />
    <glyph glyph-name="ccaron" unicode="&#x10d;" horiz-adv-x="554" 
d="M185 550l-106 160h155l45 -58l45 58h155l-106 -160h-188zM285 164q25 0 44 12.5t25 33.5h190q-10 -97 -84 -160.5t-175 -63.5q-115 0 -191 75.5t-76 188.5t76 188.5t191 75.5q101 0 175 -63.5t84 -160.5h-191q-6 21 -24.5 33.5t-43.5 12.5q-35 0 -58.5 -24.5t-23.5 -61.5
t23.5 -61.5t58.5 -24.5z" />
    <glyph glyph-name="Dcaron" unicode="&#x10e;" horiz-adv-x="725" 
d="M231 740l-106 160h155l45 -58l45 58h155l-106 -160h-188zM360 700q145 0 242.5 -100.5t97.5 -249.5t-97.5 -249.5t-242.5 -100.5h-250h-60v700h210h100zM360 194q61 0 100.5 43.5t39.5 112.5t-39.5 112.5t-100.5 43.5h-100v-312h100z" />
    <glyph glyph-name="dcaron" unicode="&#x10f;" horiz-adv-x="766" 
d="M381 473v227h185v-700h-185v27q-47 -41 -124 -41q-102 0 -170.5 75.5t-68.5 188.5t68.5 188.5t170.5 75.5q77 0 124 -41zM616 700h170l-40 -230h-140zM292 160q40 0 64.5 25t24.5 65t-24.5 65t-64.5 25t-64.5 -25t-24.5 -65t24.5 -65t64.5 -25z" />
    <glyph glyph-name="Dcroat" unicode="&#x110;" horiz-adv-x="745" 
d="M380 700q145 0 242.5 -100.5t97.5 -249.5t-97.5 -249.5t-242.5 -100.5h-250h-60v258h-70v174h70v268h210h100zM380 194q61 0 100.5 43.5t39.5 112.5t-39.5 112.5t-100.5 43.5h-100v-74h120v-174h-120v-64h100z" />
    <glyph glyph-name="dcroat" unicode="&#x111;" horiz-adv-x="621" 
d="M621 650v-119h-55v-531h-185v26q-48 -40 -124 -40q-101 0 -170 74t-69 180t69 180t170 74q76 0 124 -40v77h-130v119h130v50h185v-50h55zM292 155q40 0 64.5 24t24.5 61t-24.5 61t-64.5 24t-64.5 -24t-24.5 -61t24.5 -61t64.5 -24z" />
    <glyph glyph-name="Emacron" unicode="&#x112;" horiz-adv-x="515" 
d="M428 889v-140h-320v140h320zM250 184h240v-184h-380h-60v700h200h235v-184h-235v-78h210v-170h-210v-84z" />
    <glyph glyph-name="emacron" unicode="&#x113;" horiz-adv-x="556" 
d="M443 699v-140h-320v140h320zM203 187q24 -65 92 -65q20 0 37 7t22 18h167q-23 -82 -87.5 -121.5t-151.5 -39.5q-118 0 -191 75t-73 189q0 113 75 188.5t193 75.5q109 0 180.5 -75t71.5 -187q0 -33 -8 -65h-327zM201 306h165q-15 60 -78 60q-67 0 -87 -60z" />
    <glyph glyph-name="Edotaccent" unicode="&#x116;" horiz-adv-x="515" 
d="M353 905v-160h-170v160h170zM250 184h240v-184h-380h-60v700h200h235v-184h-235v-78h210v-170h-210v-84z" />
    <glyph glyph-name="edotaccent" unicode="&#x117;" horiz-adv-x="556" 
d="M368 715v-160h-170v160h170zM203 187q24 -65 92 -65q20 0 37 7t22 18h167q-23 -82 -87.5 -121.5t-151.5 -39.5q-118 0 -191 75t-73 189q0 113 75 188.5t193 75.5q109 0 180.5 -75t71.5 -187q0 -33 -8 -65h-327zM201 306h165q-15 60 -78 60q-67 0 -87 -60z" />
    <glyph glyph-name="Eogonek" unicode="&#x118;" horiz-adv-x="515" 
d="M490 184v-184q-40 -41 -40 -71q0 -19 21 -19q10 0 19 3v-110q-42 -17 -88 -17q-48 0 -79 23t-31 68q0 61 59 123h-241h-60v700h200h235v-184h-235v-78h210v-170h-210v-84h240z" />
    <glyph glyph-name="eogonek" unicode="&#x119;" horiz-adv-x="556" 
d="M203 187q24 -65 92 -65q20 0 37 7t22 18h167q-16 -51 -43 -83q-78 -112 -78 -135q0 -19 21 -19q10 0 19 3v-110q-42 -17 -88 -17q-48 0 -79 23t-31 68q0 55 72 110q-11 -1 -32 -1q-118 0 -191 75t-73 189q0 113 75 188.5t193 75.5q109 0 180.5 -75t71.5 -187
q0 -33 -8 -65h-327zM201 306h165q-15 60 -78 60q-67 0 -87 -60z" />
    <glyph glyph-name="Ecaron" unicode="&#x11a;" horiz-adv-x="515" 
d="M169 740l-106 160h155l45 -58l45 58h155l-106 -160h-188zM250 184h240v-184h-380h-60v700h200h235v-184h-235v-78h210v-170h-210v-84z" />
    <glyph glyph-name="ecaron" unicode="&#x11b;" horiz-adv-x="556" 
d="M184 550l-106 160h155l45 -58l45 58h155l-106 -160h-188zM203 187q24 -65 92 -65q20 0 37 7t22 18h167q-23 -82 -87.5 -121.5t-151.5 -39.5q-118 0 -191 75t-73 189q0 113 75 188.5t193 75.5q109 0 180.5 -75t71.5 -187q0 -33 -8 -65h-327zM201 306h165q-15 60 -78 60
q-67 0 -87 -60z" />
    <glyph glyph-name="Gbreve" unicode="&#x11e;" horiz-adv-x="781" 
d="M391 742q-89 0 -137 43t-48 127h150q0 -40 35 -40t35 40h150q0 -84 -48 -127t-137 -43zM401 388h340v-160v-228h-170v55q-71 -71 -200 -71q-150 0 -248 105t-98 261t104 261t262 105q128 0 225 -75t122 -187h-210q-42 66 -135 66q-75 0 -121.5 -48t-46.5 -122
q0 -80 46 -130t120 -50q93 0 131 58h-121v160z" />
    <glyph glyph-name="gbreve" unicode="&#x11f;" horiz-adv-x="613" 
d="M314 542q-89 0 -137 43t-48 127h150q0 -40 35 -40t35 40h150q0 -84 -48 -127t-137 -43zM388 500h185v-485q0 -60 -22.5 -106t-60.5 -72.5t-83.5 -39.5t-95.5 -13q-51 0 -96 11.5t-83 35t-60.5 65.5t-22.5 98h185q0 -50 77 -50q33 0 55 17.5t22 53.5v31q-48 -40 -124 -40
q-101 0 -170 74t-69 180t69 180t170 74q76 0 124 -40v26zM299 174q40 0 64.5 24.5t24.5 61.5t-24.5 61.5t-64.5 24.5t-64.5 -24.5t-24.5 -61.5t24.5 -61.5t64.5 -24.5z" />
    <glyph glyph-name="Gdotaccent" unicode="&#x120;" horiz-adv-x="781" 
d="M476 915v-160h-170v160h170zM401 388h340v-160v-228h-170v55q-71 -71 -200 -71q-150 0 -248 105t-98 261t104 261t262 105q128 0 225 -75t122 -187h-210q-42 66 -135 66q-75 0 -121.5 -48t-46.5 -122q0 -80 46 -130t120 -50q93 0 131 58h-121v160z" />
    <glyph glyph-name="gdotaccent" unicode="&#x121;" horiz-adv-x="613" 
d="M399 715v-160h-170v160h170zM388 500h185v-485q0 -60 -22.5 -106t-60.5 -72.5t-83.5 -39.5t-95.5 -13q-51 0 -96 11.5t-83 35t-60.5 65.5t-22.5 98h185q0 -50 77 -50q33 0 55 17.5t22 53.5v31q-48 -40 -124 -40q-101 0 -170 74t-69 180t69 180t170 74q76 0 124 -40v26z
M299 174q40 0 64.5 24.5t24.5 61.5t-24.5 61.5t-64.5 24.5t-64.5 -24.5t-24.5 -61.5t24.5 -61.5t64.5 -24.5z" />
    <glyph glyph-name="Gcommaaccent" unicode="&#x122;" horiz-adv-x="781" 
d="M401 388h340v-160v-228h-170v55q-71 -71 -200 -71q-150 0 -248 105t-98 261t104 261t262 105q128 0 225 -75t122 -187h-210q-42 66 -135 66q-75 0 -121.5 -48t-46.5 -122q0 -80 46 -130t120 -50q93 0 131 58h-121v160zM310 -284l10 230h170l-40 -230h-140z" />
    <glyph glyph-name="gcommaaccent" unicode="&#x123;" horiz-adv-x="613" 
d="M391 800l-10 -230h-170l40 230h140zM388 500h185v-485q0 -60 -22.5 -106t-60.5 -72.5t-83.5 -39.5t-95.5 -13q-51 0 -96 11.5t-83 35t-60.5 65.5t-22.5 98h185q0 -50 77 -50q33 0 55 17.5t22 53.5v31q-48 -40 -124 -40q-101 0 -170 74t-69 180t69 180t170 74
q76 0 124 -40v26zM299 174q40 0 64.5 24.5t24.5 61.5t-24.5 61.5t-64.5 24.5t-64.5 -24.5t-24.5 -61.5t24.5 -61.5t64.5 -24.5z" />
    <glyph glyph-name="Hbar" unicode="&#x126;" horiz-adv-x="690" 
d="M680 603v-146h-60v-457h-200v183h-150v-183h-200v457h-60v146h60v97h200v-97h150v97h200v-97h60zM420 377v80h-150v-80h150z" />
    <glyph glyph-name="hbar" unicode="&#x127;" horiz-adv-x="550" 
d="M355 489q72 0 116 -51.5t44 -143.5v-294h-185v269q0 42 -42 42q-48 0 -48 -54v-257h-185v531h-55v119h55v50h185v-50h130v-119h-130v-93q43 51 115 51z" />
    <glyph glyph-name="Imacron" unicode="&#x12a;" horiz-adv-x="300" 
d="M-10 749v140h320v-140h-320zM50 700h200v-700h-200v700z" />
    <glyph glyph-name="imacron" unicode="&#x12b;" horiz-adv-x="265" 
d="M-7 549v140h280v-140h-280zM40 0v500h185v-500h-185z" />
    <glyph glyph-name="Iogonek" unicode="&#x12e;" horiz-adv-x="300" 
d="M250 700v-700q-40 -41 -40 -71q0 -19 21 -19q10 0 19 3v-110q-42 -17 -88 -17q-48 0 -79 23t-31 68q0 61 59 123h-61v700h200z" />
    <glyph glyph-name="iogonek" unicode="&#x12f;" horiz-adv-x="265" 
d="M225 700v-150h-185v150h185zM214 -90q10 0 19 3v-110q-42 -17 -88 -17q-48 0 -79 23t-31 68q0 64 41 123h-36v500h185v-500q-32 -40 -32 -71q0 -19 21 -19z" />
    <glyph glyph-name="Idotaccent" unicode="&#x130;" horiz-adv-x="300" 
d="M65 745v160h170v-160h-170zM50 700h200v-700h-200v700z" />
    <glyph glyph-name="dotlessi" unicode="&#x131;" horiz-adv-x="265" 
d="M40 0v500h185v-500h-185z" />
    <glyph glyph-name="Kcommaaccent" unicode="&#x136;" horiz-adv-x="636" 
d="M428 360l218 -360h-222l-174 300v-300h-200v700h200v-280l164 280h222zM226 -284l10 230h170l-40 -230h-140z" />
    <glyph glyph-name="kcommaaccent" unicode="&#x137;" horiz-adv-x="550" 
d="M225 200v-200h-185v700h185v-396l110 196h205l-152 -250l162 -250h-205zM194 -284l10 230h170l-40 -230h-140z" />
    <glyph glyph-name="Lacute" unicode="&#x139;" horiz-adv-x="470" 
d="M352 900l-116 -150h-174l80 150h210zM250 194h220v-194h-360h-60v700h200v-506z" />
    <glyph glyph-name="lacute" unicode="&#x13a;" horiz-adv-x="265" 
d="M40 750h174l116 150h-210zM40 0v720h185v-720h-185z" />
    <glyph glyph-name="Lcommaaccent" unicode="&#x13b;" horiz-adv-x="470" 
d="M250 194h220v-194h-360h-60v700h200v-506zM154 -284l10 230h170l-40 -230h-140z" />
    <glyph glyph-name="lcommaaccent" unicode="&#x13c;" horiz-adv-x="265" 
d="M40 0v720h185v-720h-185zM175 -284l40 230h-170l-10 -230h140z" />
    <glyph glyph-name="Lcaron" unicode="&#x13d;" horiz-adv-x="470" 
d="M250 700v-506h220v-194h-360h-60v700h200zM480 700l-39 -210h-150l10 210h179z" />
    <glyph glyph-name="lcaron" unicode="&#x13e;" horiz-adv-x="421" 
d="M40 0v720h185v-720h-185zM401 490l40 230h-170l-10 -230h140z" />
    <glyph glyph-name="Lslash" unicode="&#x141;" horiz-adv-x="490" 
d="M270 194h220v-194h-360h-60v191l-50 -28v193l50 28v316h200v-204l130 73v-193l-130 -73v-109z" />
    <glyph glyph-name="lslash" unicode="&#x142;" horiz-adv-x="290" 
d="M290 515v-173l-52 -31v-311h-185v202l-53 -31v173l53 31v345h185v-236z" />
    <glyph glyph-name="Nacute" unicode="&#x143;" 
d="M235 750h174l116 150h-210zM410 700h200v-700h-160l-200 330v-330h-200v700h160l200 -330v330z" />
    <glyph glyph-name="nacute" unicode="&#x144;" horiz-adv-x="535" 
d="M475 710l-116 -150h-174l80 150h210zM340 514q72 0 116 -51.5t44 -143.5v-319h-185v294q0 42 -42 42q-48 0 -48 -54v-282h-185v500h185v-37q43 51 115 51z" />
    <glyph glyph-name="Ncommaaccent" unicode="&#x145;" 
d="M410 700h200v-700h-160l-200 330v-330h-200v700h160l200 -330v330zM384 -284l40 230h-170l-10 -230h140z" />
    <glyph glyph-name="ncommaaccent" unicode="&#x146;" horiz-adv-x="535" 
d="M340 514q72 0 116 -51.5t44 -143.5v-319h-185v294q0 42 -42 42q-48 0 -48 -54v-282h-185v500h185v-37q43 51 115 51zM192 -284l10 230h170l-40 -230h-140z" />
    <glyph glyph-name="Ncaron" unicode="&#x147;" 
d="M226 740l-106 160h155l45 -58l45 58h155l-106 -160h-188zM410 700h200v-700h-160l-200 330v-330h-200v700h160l200 -330v330z" />
    <glyph glyph-name="ncaron" unicode="&#x148;" horiz-adv-x="535" 
d="M176 550l-106 160h155l45 -58l45 58h155l-106 -160h-188zM340 514q72 0 116 -51.5t44 -143.5v-319h-185v294q0 42 -42 42q-48 0 -48 -54v-282h-185v500h185v-37q43 51 115 51z" />
    <glyph glyph-name="Eng" unicode="&#x14a;" 
d="M410 700h200v-700q0 -118 -60.5 -170.5t-189.5 -45.5v166q65 -6 65 50v41l-175 289v-330h-200v700h160l200 -330v330z" />
    <glyph glyph-name="eng" unicode="&#x14b;" horiz-adv-x="535" 
d="M340 514q72 0 116 -51.5t44 -143.5v-319q0 -114 -55.5 -163t-174.5 -40v157q22 -1 33.5 9.5t11.5 36.5v294q0 42 -42 42q-48 0 -48 -54v-282h-185v500h185v-37q43 51 115 51z" />
    <glyph glyph-name="Omacron" unicode="&#x14c;" horiz-adv-x="792" 
d="M236 759v140h320v-140h-320zM396 -16q-156 0 -263.5 105.5t-107.5 260.5t107.5 260.5t263.5 105.5t263.5 -105.5t107.5 -260.5t-107.5 -260.5t-263.5 -105.5zM396 180q74 0 122.5 48.5t48.5 121.5t-48.5 121.5t-122.5 48.5t-122.5 -48.5t-48.5 -121.5t48.5 -121.5
t122.5 -48.5z" />
    <glyph glyph-name="omacron" unicode="&#x14d;" horiz-adv-x="574" 
d="M127 559v140h320v-140h-320zM287 -14q-112 0 -190.5 76t-78.5 188t78 188t191 76t191 -76t78 -188t-78 -188t-191 -76zM287 162q37 0 60.5 24.5t23.5 63.5t-23.5 63.5t-60.5 24.5t-60.5 -24.5t-23.5 -63.5t23.5 -63.5t60.5 -24.5z" />
    <glyph glyph-name="Ohungarumlaut" unicode="&#x150;" horiz-adv-x="792" 
d="M196 750h168l86 160h-174zM399 750h168l96 160h-174zM396 -16q-156 0 -263.5 105.5t-107.5 260.5t107.5 260.5t263.5 105.5t263.5 -105.5t107.5 -260.5t-107.5 -260.5t-263.5 -105.5zM396 180q74 0 122.5 48.5t48.5 121.5t-48.5 121.5t-122.5 48.5t-122.5 -48.5
t-48.5 -121.5t48.5 -121.5t122.5 -48.5z" />
    <glyph glyph-name="ohungarumlaut" unicode="&#x151;" horiz-adv-x="574" 
d="M87 550h168l86 160h-174zM290 550h168l96 160h-174zM287 -14q-112 0 -190.5 76t-78.5 188t78 188t191 76t191 -76t78 -188t-78 -188t-191 -76zM287 162q37 0 60.5 24.5t23.5 63.5t-23.5 63.5t-60.5 24.5t-60.5 -24.5t-23.5 -63.5t23.5 -63.5t60.5 -24.5z" />
    <glyph glyph-name="OE" unicode="&#x152;" horiz-adv-x="950" 
d="M705 184h220v-184h-360h-60q-51 -16 -109 -16q-156 0 -263.5 105.5t-107.5 260.5t107.5 260.5t263.5 105.5q58 0 109 -16h200h215v-184h-215v-78h190v-170h-190v-84zM505 201v298q-47 21 -109 21q-74 0 -122.5 -48.5t-48.5 -121.5t48.5 -121.5t122.5 -48.5q62 0 109 21z
" />
    <glyph glyph-name="oe" unicode="&#x153;" horiz-adv-x="906" 
d="M553 187q24 -65 92 -65q20 0 37 7t22 18h167q-23 -82 -86 -121.5t-143 -39.5q-112 0 -179 77q-67 -77 -186 -77q-115 0 -187 79t-72 183q0 106 71.5 186t187.5 80q117 0 187 -78q70 78 182 78q102 0 172 -75.5t70 -186.5q0 -33 -8 -65h-327zM551 306h165q-15 60 -78 60
q-67 0 -87 -60zM287 162q37 0 60.5 24.5t23.5 63.5t-23.5 63.5t-60.5 24.5t-60.5 -24.5t-23.5 -63.5t23.5 -63.5t60.5 -24.5z" />
    <glyph glyph-name="Racute" unicode="&#x154;" horiz-adv-x="635" 
d="M480 900l-116 -150h-174l80 150h210zM434 1l-147 220h-37v-220h-200v700h200h70q115 0 190 -67.5t75 -178.5q0 -128 -110 -195l180 -259h-221zM320 517h-70v-122h70q31 -1 48 14.5t17 45.5t-17 46t-48 16z" />
    <glyph glyph-name="racute" unicode="&#x155;" horiz-adv-x="360" 
d="M392 700l-116 -150h-174l80 150h210zM225 421q12 43 47 66t83 23v-200q-52 8 -91 -17t-39 -87v-206h-185v500h185v-79z" />
    <glyph glyph-name="Rcommaaccent" unicode="&#x156;" horiz-adv-x="635" 
d="M475 260l180 -259h-221l-147 220h-37v-220h-200v700h200h70q115 0 190 -67.5t75 -178.5q0 -128 -110 -195zM320 517h-70v-122h70q31 -1 48 14.5t17 45.5t-17 46t-48 16zM254 -284l10 230h170l-40 -230h-140z" />
    <glyph glyph-name="rcommaaccent" unicode="&#x157;" horiz-adv-x="360" 
d="M225 421q12 43 47 66t83 23v-200q-52 8 -91 -17t-39 -87v-206h-185v500h185v-79zM32 -284l10 230h170l-40 -230h-140z" />
    <glyph glyph-name="Rcaron" unicode="&#x158;" horiz-adv-x="635" 
d="M181 740l-106 160h155l45 -58l45 58h155l-106 -160h-188zM434 1l-147 220h-37v-220h-200v700h200h70q115 0 190 -67.5t75 -178.5q0 -128 -110 -195l180 -259h-221zM320 517h-70v-122h70q31 -1 48 14.5t17 45.5t-17 46t-48 16z" />
    <glyph glyph-name="rcaron" unicode="&#x159;" horiz-adv-x="360" 
d="M93 540l-106 160h155l45 -58l45 58h155l-106 -160h-188zM225 421q12 43 47 66t83 23v-200q-52 8 -91 -17t-39 -87v-206h-185v500h185v-79z" />
    <glyph glyph-name="Sacute" unicode="&#x15a;" horiz-adv-x="555" 
d="M181 760h174l116 150h-210zM284 -16q-124 0 -199 60t-75 184h200q0 -58 76 -58q28 0 43.5 11t15.5 29q0 25 -59 44q-10 4 -50 15q-219 67 -219 227q0 105 70.5 162.5t181.5 57.5q113 0 185.5 -58.5t72.5 -175.5h-200q0 48 -58 48q-52 0 -52 -35q0 -6 2 -11t6 -9.5t9 -8.5
t13 -7.5t14.5 -6t17.5 -6l19 -6l21.5 -6.5t21.5 -6q204 -61 204 -224q0 -105 -72.5 -162.5t-188.5 -57.5z" />
    <glyph glyph-name="sacute" unicode="&#x15b;" horiz-adv-x="480" 
d="M430 710l-116 -150h-174l80 150h210zM206 352q0 -15 19 -24t47 -12.5t61 -13.5t61 -24.5t47 -47t19 -80.5q0 -85 -63 -124.5t-157 -39.5q-95 0 -157.5 42.5t-62.5 136.5h185q0 -43 35 -43t35 26q0 16 -26 25t-63 17t-74 21.5t-63 48.5t-26 90q0 82 63 123t152 41
q88 0 149.5 -45t61.5 -132h-179q0 41 -32 41t-32 -26z" />
    <glyph glyph-name="Scedilla" unicode="&#x15e;" horiz-adv-x="555" 
d="M545 204q0 -85 -48 -139t-131 -73v-38q53 -22 53 -77q0 -56 -61 -83t-184 -20v114q95 -7 95 14q0 15 -53 20v67q-95 15 -150.5 74t-55.5 165h200q0 -58 76 -58q28 0 43.5 11t15.5 29q0 25 -59 44q-10 4 -50 15q-219 67 -219 227q0 105 70.5 162.5t181.5 57.5
q113 0 185.5 -58.5t72.5 -175.5h-200q0 48 -58 48q-52 0 -52 -35q0 -6 2 -11t6 -9.5t9 -8.5t13 -7.5t14.5 -6t17.5 -6l19 -6l21.5 -6.5t21.5 -6q204 -61 204 -224z" />
    <glyph glyph-name="scedilla" unicode="&#x15f;" horiz-adv-x="480" 
d="M460 150q0 -65 -38 -103t-100 -52v-41q53 -22 53 -77q0 -56 -61 -83t-184 -20v114q95 -7 95 14q0 15 -53 20v70q-69 13 -110.5 55t-41.5 118h185q0 -43 35 -43t35 26q0 16 -26 25t-63 17t-74 21.5t-63 48.5t-26 90q0 82 63 123t152 41q88 0 149.5 -45t61.5 -132h-179
q0 41 -32 41t-32 -26q0 -15 19 -24t47 -12.5t61 -13.5t61 -24.5t47 -47t19 -80.5z" />
    <glyph glyph-name="Scaron" unicode="&#x160;" horiz-adv-x="555" 
d="M172 750l-106 160h155l45 -58l45 58h155l-106 -160h-188zM341 428q204 -61 204 -224q0 -105 -72.5 -162.5t-188.5 -57.5q-124 0 -199 60t-75 184h200q0 -58 76 -58q28 0 43.5 11t15.5 29q0 25 -59 44q-10 4 -50 15q-219 67 -219 227q0 105 70.5 162.5t181.5 57.5
q113 0 185.5 -58.5t72.5 -175.5h-200q0 48 -58 48q-52 0 -52 -35q0 -6 2 -11t6 -9.5t9 -8.5t13 -7.5t14.5 -6t17.5 -6l19 -6l21.5 -6.5t21.5 -6z" />
    <glyph glyph-name="scaron" unicode="&#x161;" horiz-adv-x="480" 
d="M131 550l-106 160h155l45 -58l45 58h155l-106 -160h-188zM206 352q0 -15 19 -24t47 -12.5t61 -13.5t61 -24.5t47 -47t19 -80.5q0 -85 -63 -124.5t-157 -39.5q-95 0 -157.5 42.5t-62.5 136.5h185q0 -43 35 -43t35 26q0 16 -26 25t-63 17t-74 21.5t-63 48.5t-26 90
q0 82 63 123t152 41q88 0 149.5 -45t61.5 -132h-179q0 41 -32 41t-32 -26z" />
    <glyph glyph-name="uni0162" unicode="&#x162;" horiz-adv-x="500" 
d="M495 700v-194h-145v-506h-200v506h-145v194h345h145zM152 -284l10 230h170l-40 -230h-140z" />
    <glyph glyph-name="uni0163" unicode="&#x163;" horiz-adv-x="340" 
d="M330 500v-176h-67v-324h-185v324h-68v176h68v160h185v-160h67zM77 -284l10 230h170l-40 -230h-140z" />
    <glyph glyph-name="Tcaron" unicode="&#x164;" horiz-adv-x="500" 
d="M151 740l-106 160h155l45 -58l45 58h155l-106 -160h-188zM495 700v-194h-145v-506h-200v506h-145v194h345h145z" />
    <glyph glyph-name="tcaron" unicode="&#x165;" horiz-adv-x="446" 
d="M306 730h160l-40 -190h-130zM263 660v-160h67v-176h-67v-324h-185v324h-68v176h68v160h185z" />
    <glyph glyph-name="Tbar" unicode="&#x166;" horiz-adv-x="500" 
d="M495 506h-145v-94h100v-174h-100v-238h-200v238h-100v174h100v94h-145v194h345h145v-194z" />
    <glyph glyph-name="tbar" unicode="&#x167;" horiz-adv-x="340" 
d="M330 324h-67v-59h37v-130h-37v-135h-185v135h-58v130h58v59h-68v176h68v160h185v-160h67v-176z" />
    <glyph glyph-name="Umacron" unicode="&#x16a;" horiz-adv-x="620" 
d="M150 749v140h320v-140h-320zM310 -16q-120 0 -195 60.5t-75 169.5v486h200v-444q0 -78 70 -78t70 78v444h200v-486q0 -109 -75 -169.5t-195 -60.5z" />
    <glyph glyph-name="umacron" unicode="&#x16b;" horiz-adv-x="535" 
d="M424 689v-140h-320v140h320zM310 500h185v-500h-185v37q-43 -51 -115 -51t-116 51.5t-44 143.5v319h185v-294q0 -42 42 -42q48 0 48 54v282z" />
    <glyph glyph-name="Uring" unicode="&#x16e;" horiz-adv-x="620" 
d="M310 730q-65 0 -107 40t-42 100t42 100t107 40q67 0 108 -39.5t41 -100.5t-41 -100.5t-108 -39.5zM310 840q32 0 32 30t-32 30q-15 0 -23 -8.5t-8 -21.5t8 -21.5t23 -8.5zM310 -16q-120 0 -195 60.5t-75 169.5v486h200v-444q0 -78 70 -78t70 78v444h200v-486
q0 -109 -75 -169.5t-195 -60.5z" />
    <glyph glyph-name="uring" unicode="&#x16f;" horiz-adv-x="535" 
d="M264 530q-65 0 -107 40t-42 100t42 100t107 40q67 0 108 -39.5t41 -100.5t-41 -100.5t-108 -39.5zM264 700q-15 0 -23 -8.5t-8 -21.5t8 -21.5t23 -8.5q32 0 32 30t-32 30zM310 500h185v-500h-185v37q-43 -51 -115 -51t-116 51.5t-44 143.5v319h185v-294q0 -42 42 -42
q48 0 48 54v282z" />
    <glyph glyph-name="Uhungarumlaut" unicode="&#x170;" horiz-adv-x="620" 
d="M110 740h168l86 160h-174zM313 740h168l96 160h-174zM310 -16q-120 0 -195 60.5t-75 169.5v486h200v-444q0 -78 70 -78t70 78v444h200v-486q0 -109 -75 -169.5t-195 -60.5z" />
    <glyph glyph-name="uhungarumlaut" unicode="&#x171;" horiz-adv-x="535" 
d="M318 700l-86 -160h-168l80 160h174zM435 540h-168l90 160h174zM310 218v282h185v-500h-185v37q-43 -51 -115 -51t-116 51.5t-44 143.5v319h185v-294q0 -42 42 -42q48 0 48 54z" />
    <glyph glyph-name="Uogonek" unicode="&#x172;" horiz-adv-x="620" 
d="M380 700h200v-486q0 -108 -75 -169q-47 -41 -66 -66.5t-19 -49.5q0 -19 21 -19q10 0 19 3v-110q-42 -17 -88 -17q-48 0 -79 23t-31 68q0 51 45 107q-119 1 -193 61t-74 169v486h200v-444q0 -78 70 -78t70 78v444z" />
    <glyph glyph-name="uogonek" unicode="&#x173;" horiz-adv-x="535" 
d="M495 500v-500q-40 -41 -40 -71q0 -19 21 -19q10 0 19 3v-110q-42 -17 -88 -17q-48 0 -79 23t-31 68q0 61 59 123h-46v37q-43 -51 -115 -51t-116 51.5t-44 143.5v319h185v-294q0 -42 42 -42q48 0 48 54v282h185z" />
    <glyph glyph-name="Wcircumflex" unicode="&#x174;" horiz-adv-x="900" 
d="M445 798l-45 -58h-155l106 160h174h14l106 -160h-155zM702 700h208l-198 -700h-187l-75 272l-75 -272h-187l-198 700h208l101 -397l72 254l-39 143h188l91 -370z" />
    <glyph glyph-name="wcircumflex" unicode="&#x175;" horiz-adv-x="740" 
d="M363 598l-45 -58h-155l106 160h174h14l106 -160h-155zM545 500h195l-145 -500h-165h-5l-55 190l-55 -190h-130h-40l-145 500h195l60 -260l50 174l-25 86h135l73 -250z" />
    <glyph glyph-name="Ycircumflex" unicode="&#x176;" horiz-adv-x="654" 
d="M322 798l-45 -58h-155l106 160h174h14l106 -160h-155zM654 700l-227 -398v-302h-200v302l-227 398h222l105 -212l105 212h222z" />
    <glyph glyph-name="ycircumflex" unicode="&#x177;" horiz-adv-x="542" 
d="M271 598l-45 -58h-155l106 160h174h14l106 -160h-155zM355 500h195l-239 -700h-195l69 201l-195 499h195l92 -269z" />
    <glyph glyph-name="Ydieresis" unicode="&#x178;" horiz-adv-x="654" 
d="M302 895v-150h-150v150h150zM502 895v-150h-150v150h150zM654 700l-227 -398v-302h-200v302l-227 398h222l105 -212l105 212h222z" />
    <glyph glyph-name="Zacute" unicode="&#x179;" horiz-adv-x="545" 
d="M481 900l-116 -150h-174l80 150h210zM292 194h233v-194h-495v154l223 352h-218v194h480v-154z" />
    <glyph glyph-name="zacute" unicode="&#x17a;" horiz-adv-x="455" 
d="M430 700l-116 -150h-174l80 150h210zM266 170h174v-170h-420v130l164 200h-154v170h400v-130z" />
    <glyph glyph-name="Zdotaccent" unicode="&#x17b;" horiz-adv-x="545" 
d="M366 905v-160h-170v160h170zM292 194h233v-194h-495v154l223 352h-218v194h480v-154z" />
    <glyph glyph-name="zdotaccent" unicode="&#x17c;" horiz-adv-x="455" 
d="M315 705v-160h-170v160h170zM266 170h174v-170h-420v130l164 200h-154v170h400v-130z" />
    <glyph glyph-name="Zcaron" unicode="&#x17d;" horiz-adv-x="545" 
d="M182 740l-106 160h155l45 -58l45 58h155l-106 -160h-188zM292 194h233v-194h-495v154l223 352h-218v194h480v-154z" />
    <glyph glyph-name="zcaron" unicode="&#x17e;" horiz-adv-x="455" 
d="M131 540l-106 160h155l45 -58l45 58h155l-106 -160h-188zM266 170h174v-170h-420v130l164 200h-154v170h400v-130z" />
    <glyph glyph-name="florin" unicode="&#x192;" horiz-adv-x="482" 
d="M186 538q13 75 57.5 120t105.5 53.5t133 -4.5v-180q-34 14 -63.5 -0.5t-36.5 -51.5l-6 -37h65v-176h-95l-50 -292q-13 -75 -57.5 -120t-105.5 -53.5t-133 4.5v180q34 -14 63.5 0.5t36.5 51.5l39 229h-58v176h88z" />
    <glyph glyph-name="Scommaaccent" unicode="&#x218;" horiz-adv-x="555" 
d="M284 -16q-124 0 -199 60t-75 184h200q0 -58 76 -58q28 0 43.5 11t15.5 29q0 25 -59 44q-10 4 -50 15q-219 67 -219 227q0 105 70.5 162.5t181.5 57.5q113 0 185.5 -58.5t72.5 -175.5h-200q0 48 -58 48q-52 0 -52 -35q0 -6 2 -11t6 -9.5t9 -8.5t13 -7.5t14.5 -6t17.5 -6
l19 -6l21.5 -6.5t21.5 -6q204 -61 204 -224q0 -105 -72.5 -162.5t-188.5 -57.5zM348 -284l40 230h-170l-10 -230h140z" />
    <glyph glyph-name="scommaaccent" unicode="&#x219;" horiz-adv-x="480" 
d="M206 352q0 -15 19 -24t47 -12.5t61 -13.5t61 -24.5t47 -47t19 -80.5q0 -85 -63 -124.5t-157 -39.5q-95 0 -157.5 42.5t-62.5 136.5h185q0 -43 35 -43t35 26q0 16 -26 25t-63 17t-74 21.5t-63 48.5t-26 90q0 82 63 123t152 41q88 0 149.5 -45t61.5 -132h-179q0 41 -32 41
t-32 -26zM164 -284l10 230h170l-40 -230h-140z" />
    <glyph glyph-name="uni021A" unicode="&#x21a;" horiz-adv-x="500" 
d="M495 700v-194h-145v-506h-200v506h-145v194h345h145zM152 -284l10 230h170l-40 -230h-140z" />
    <glyph glyph-name="uni021B" unicode="&#x21b;" horiz-adv-x="340" 
d="M330 500v-176h-67v-324h-185v324h-68v176h68v160h185v-160h67zM77 -284l10 230h170l-40 -230h-140z" />
    <glyph glyph-name="circumflex" unicode="&#x2c6;" horiz-adv-x="440" 
d="M420 540h-155l-45 58l-45 -58h-155l106 160h174h14z" />
    <glyph glyph-name="caron" unicode="&#x2c7;" horiz-adv-x="440" 
d="M265 700h155l-106 -160h-174h-14l-106 160h155l45 -58z" />
    <glyph glyph-name="breve" unicode="&#x2d8;" horiz-adv-x="410" 
d="M205 532q-89 0 -137 43t-48 127h150q0 -40 35 -40t35 40h150q0 -84 -48 -127t-137 -43z" />
    <glyph glyph-name="dotaccent" unicode="&#x2d9;" horiz-adv-x="210" 
d="M20 545v160h170v-160h-170z" />
    <glyph glyph-name="ring" unicode="&#x2da;" horiz-adv-x="338" 
d="M169 530q-65 0 -107 40t-42 100t42 100t107 40q67 0 108 -39.5t41 -100.5t-41 -100.5t-108 -39.5zM169 640q32 0 32 30t-32 30q-15 0 -23 -8.5t-8 -21.5t8 -21.5t23 -8.5z" />
    <glyph glyph-name="ogonek" unicode="&#x2db;" horiz-adv-x="238" 
d="M130 -214q-48 0 -79 23t-31 68q0 61 59 123h139q-40 -41 -40 -71q0 -19 21 -19q10 0 19 3v-110q-42 -17 -88 -17z" />
    <glyph glyph-name="tilde" unicode="&#x2dc;" horiz-adv-x="399" 
d="M20 543q0 60 17 99t45 53t58.5 14t62.5 -13q5 -2 14.5 -6.5l14 -6.5t11 -3.5t9.5 1.5t5 10t2 19h120q0 -61 -17 -100.5t-45 -53t-58.5 -13t-63.5 13.5q-5 2 -14 6.5t-13.5 6.5t-11 3.5t-9.5 -1.5t-5 -10t-2 -19h-120z" />
    <glyph glyph-name="hungarumlaut" unicode="&#x2dd;" horiz-adv-x="507" 
d="M20 540h168l86 160h-174zM223 540h168l96 160h-174z" />
    <glyph glyph-name="gravecomb" unicode="&#x300;" horiz-adv-x="0" 
d="M-20 550l-80 150h-210l116 -150h174z" />
    <glyph glyph-name="acutecomb" unicode="&#x301;" horiz-adv-x="0" 
d="M-280 550h174l116 150h-210z" />
    <glyph glyph-name="uni0302" unicode="&#x302;" horiz-adv-x="0" 
d="M-20 540h-155l-45 58l-45 -58h-155l106 160h174h14z" />
    <glyph glyph-name="tildecomb" unicode="&#x303;" horiz-adv-x="0" 
d="M-379 543q0 60 17 99t45 53t58.5 14t62.5 -13q5 -2 14.5 -6.5l14 -6.5t11 -3.5t9.5 1.5t5 10t2 19h120q0 -61 -17 -100.5t-45 -53t-58.5 -13t-63.5 13.5q-5 2 -14 6.5t-13.5 6.5t-11 3.5t-9.5 -1.5t-5 -10t-2 -19h-120z" />
    <glyph glyph-name="uni0304" unicode="&#x304;" horiz-adv-x="0" 
d="M-340 549v140h320v-140h-320z" />
    <glyph glyph-name="uni0306" unicode="&#x306;" horiz-adv-x="0" 
d="M-215 532q-89 0 -137 43t-48 127h150q0 -40 35 -40t35 40h150q0 -84 -48 -127t-137 -43z" />
    <glyph glyph-name="uni0307" unicode="&#x307;" horiz-adv-x="0" 
d="M-190 545v160h170v-160h-170z" />
    <glyph glyph-name="uni0308" unicode="&#x308;" horiz-adv-x="0" 
d="M-370 545v150h150v-150h-150zM-170 545v150h150v-150h-150z" />
    <glyph glyph-name="uni030A" unicode="&#x30a;" horiz-adv-x="0" 
d="M-169 530q-65 0 -107 40t-42 100t42 100t107 40q67 0 108 -39.5t41 -100.5t-41 -100.5t-108 -39.5zM-169 640q32 0 32 30t-32 30q-15 0 -23 -8.5t-8 -21.5t8 -21.5t23 -8.5z" />
    <glyph glyph-name="uni030B" unicode="&#x30b;" horiz-adv-x="0" 
d="M-487 540h168l86 160h-174zM-284 540h168l96 160h-174z" />
    <glyph glyph-name="uni030C" unicode="&#x30c;" horiz-adv-x="0" 
d="M-175 700h155l-106 -160h-174h-14l-106 160h155l45 -58z" />
    <glyph glyph-name="uni0312" unicode="&#x312;" horiz-adv-x="0" 
d="M-160 990l-40 -230h170l10 230h-140z" />
    <glyph glyph-name="uni0326" unicode="&#x326;" horiz-adv-x="0" 
d="M-60 -284l40 230h-170l-10 -230h140z" />
    <glyph glyph-name="uni0327" unicode="&#x327;" horiz-adv-x="0" 
d="M-73 -46q53 -22 53 -77q0 -56 -61 -83t-184 -20v114q95 -7 95 14q0 15 -53 20v78h150v-46z" />
    <glyph glyph-name="uni0328" unicode="&#x328;" horiz-adv-x="0" 
d="M-108 -214q-48 0 -79 23t-31 68q0 61 59 123h139q-40 -41 -40 -71q0 -19 21 -19q10 0 19 3v-110q-42 -17 -88 -17z" />
    <glyph glyph-name="uni0394" unicode="&#x394;" 
d="M442 700l228 -700h-215h-310h-155l228 700h224zM248 160h164l-82 305z" />
    <glyph glyph-name="uni03A9" unicode="&#x3a9;" horiz-adv-x="782" 
d="M762 370q0 -108 -70 -186h54v-184h-284v184v10q46 20 73 61.5t27 94.5q0 73 -48.5 121.5t-122.5 48.5t-122.5 -48.5t-48.5 -121.5q0 -53 27 -94.5t73 -61.5v-114v-80h-284v184h54q-70 78 -70 186q0 153 106.5 249.5t264.5 96.5t264.5 -96.5t106.5 -249.5z" />
    <glyph glyph-name="pi" unicode="&#x3c0;" horiz-adv-x="680" 
d="M640 500v-176h-70v-324h-185v324h-90v-324h-185v324h-70v176h255h275h70z" />
    <glyph glyph-name="uni0401" unicode="&#x401;" horiz-adv-x="515" 
d="M243 895v-150h-150v150h150zM443 895v-150h-150v150h150zM250 184h240v-184h-380h-60v700h200h235v-184h-235v-78h210v-170h-210v-84z" />
    <glyph glyph-name="uni0402" unicode="&#x402;" 
d="M459 434q85 0 130.5 -49t45.5 -146v-39q0 -118 -59 -170.5t-181 -45.5v171q25 -3 35 8t10 37v14q0 42 -45 42q-18 0 -45 -10v-246h-200v506h-145v194h345h175v-194h-175v-88q58 16 109 16z" />
    <glyph glyph-name="uni0403" unicode="&#x403;" horiz-adv-x="480" 
d="M446 899l-116 -150h-174l80 150h210zM480 700v-194h-230v-506h-200v700h430z" />
    <glyph glyph-name="uni0404" unicode="&#x404;" horiz-adv-x="761" 
d="M533 280h208q-13 -128 -114 -212t-236 -84q-161 0 -263.5 104.5t-102.5 261.5t102.5 261.5t263.5 104.5q135 0 235.5 -84t113.5 -211h-207q-11 45 -51.5 74.5t-95.5 29.5q-104 0 -146 -85h211v-180h-211q42 -85 146 -85q55 0 95.5 29.5t51.5 75.5z" />
    <glyph glyph-name="uni0405" unicode="&#x405;" horiz-adv-x="555" 
d="M284 -16q-124 0 -199 60t-75 184h200q0 -58 76 -58q28 0 43.5 11t15.5 29q0 25 -59 44q-10 4 -50 15q-219 67 -219 227q0 105 70.5 162.5t181.5 57.5q113 0 185.5 -58.5t72.5 -175.5h-200q0 48 -58 48q-52 0 -52 -35q0 -6 2 -11t6 -9.5t9 -8.5t13 -7.5t14.5 -6t17.5 -6
l19 -6l21.5 -6.5t21.5 -6q204 -61 204 -224q0 -105 -72.5 -162.5t-188.5 -57.5z" />
    <glyph glyph-name="uni0406" unicode="&#x406;" horiz-adv-x="300" 
d="M50 700h200v-700h-200v700z" />
    <glyph glyph-name="uni0407" unicode="&#x407;" horiz-adv-x="300" 
d="M-25 745v150h150v-150h-150zM175 745v150h150v-150h-150zM50 700h200v-700h-200v700z" />
    <glyph glyph-name="uni0408" unicode="&#x408;" horiz-adv-x="550" 
d="M260 -16q-118 0 -184 64t-66 177v25h200v-25q0 -22 13.5 -34.5t36.5 -12.5t36.5 12.5t13.5 34.5v475h200v-480q0 -111 -66 -173.5t-184 -62.5z" />
    <glyph glyph-name="uni0409" unicode="&#x409;" horiz-adv-x="905" 
d="M640 481q105 0 180 -64.5t75 -176.5t-75 -176.5t-180 -64.5h-200v1h-60v506h-84v-246q0 -83 -24.5 -139.5t-68.5 -83.5t-93.5 -36t-109.5 -3v186q53 -3 74.5 17t21.5 83v416h484v-219h60zM640 193q55 0 55 47t-55 47h-60v-94h60z" />
    <glyph glyph-name="uni040A" unicode="&#x40a;" horiz-adv-x="915" 
d="M650 481q105 0 180 -64.5t75 -176.5t-75 -176.5t-180 -64.5h-200v1h-60v287h-140v-287h-200v700h200v-219h140v219h200v-219h60zM650 193q55 0 55 47t-55 47h-60v-94h60z" />
    <glyph glyph-name="uni040B" unicode="&#x40b;" horiz-adv-x="665" 
d="M459 434q85 0 130.5 -49t45.5 -146v-239h-195v214q0 42 -45 42q-18 0 -45 -10v-246h-200v506h-145v194h345h175v-194h-175v-88q58 16 109 16z" />
    <glyph glyph-name="uni040C" unicode="&#x40c;" horiz-adv-x="636" 
d="M516 899l-116 -150h-174l80 150h210zM646 0h-222l-174 300v-300h-200v700h200v-280l164 280h222l-208 -340z" />
    <glyph glyph-name="uni040E" unicode="&#x40e;" horiz-adv-x="650" 
d="M495 898v-150h-350v150h350zM440 700h210l-202 -474q-50 -117 -131.5 -174t-212.5 -52v186q91 -7 138 35l-232 479h210l121 -266z" />
    <glyph glyph-name="uni040F" unicode="&#x40f;" horiz-adv-x="640" 
d="M390 700h200v-700h-170v-144h-200v144h-170v700h200v-506h140v506z" />
    <glyph glyph-name="uni0410" unicode="&#x410;" 
d="M455 0l-24 90h-202l-24 -90h-215l228 700h224l228 -700h-215zM272 250h116l-58 215z" />
    <glyph glyph-name="uni0411" unicode="&#x411;" horiz-adv-x="600" 
d="M360 444q107 0 168.5 -59.5t61.5 -159.5q0 -101 -62 -163t-168 -62h-230h-80v700h200h280v-194h-280v-62h110zM345 180q20 0 32.5 12t12.5 33t-12.5 33t-32.5 12h-95v-90h95z" />
    <glyph glyph-name="uni0412" unicode="&#x412;" horiz-adv-x="685" 
d="M548 422q57 -26 89.5 -77t32.5 -118q0 -96 -65 -161.5t-166 -65.5h-349h-40v700h200h105q95 0 160 -51t65 -134q0 -53 -32 -93zM351 524h-101v-80h122q17 15 17 39q0 17 -10 29t-28 12zM409 176q28 0 44.5 15t16.5 41q0 27 -16 41.5t-44 14.5h-160v-112h159z" />
    <glyph glyph-name="uni0413" unicode="&#x413;" horiz-adv-x="480" 
d="M480 700v-194h-230v-506h-200v700h430z" />
    <glyph glyph-name="uni0414" unicode="&#x414;" horiz-adv-x="705" 
d="M620 190h75v-190v-144h-200v144h-290v-144h-200v180v154h71q45 75 45 216v294h499v-510zM285 190h135v326h-99v-112q0 -129 -36 -214z" />
    <glyph glyph-name="uni0415" unicode="&#x415;" horiz-adv-x="515" 
d="M250 184h240v-184h-380h-60v700h200h235v-184h-235v-78h210v-170h-210v-84z" />
    <glyph glyph-name="uni0416" unicode="&#x416;" horiz-adv-x="932" 
d="M932 0h-222l-144 298v-298h-200v298l-144 -298h-222l193 352l-183 348h222l134 -295v295h200v-295l134 295h222l-183 -348z" />
    <glyph glyph-name="uni0417" unicode="&#x417;" horiz-adv-x="560" 
d="M466 398q84 -65 84 -176q0 -105 -77 -171.5t-198 -66.5q-120 0 -197.5 71t-77.5 177h200q0 -58 75 -58t75 58q0 56 -75 56h-75v170h75h12q23 14 23 41q0 37 -45 37t-45 -37h-200q0 97 71 157t174 60q101 0 173 -56.5t72 -140.5q0 -68 -44 -121z" />
    <glyph glyph-name="uni0418" unicode="&#x418;" 
d="M410 0v330l-200 -330h-160v700h200v-330l200 330h160v-700h-200z" />
    <glyph glyph-name="uni0419" unicode="&#x419;" 
d="M165 749v150h350v-150h-350zM410 0v330l-200 -330h-160v700h200v-330l200 330h160v-700h-200z" />
    <glyph glyph-name="uni041A" unicode="&#x41a;" horiz-adv-x="636" 
d="M646 0h-222l-174 300v-300h-200v700h200v-280l164 280h222l-208 -340z" />
    <glyph glyph-name="uni041B" unicode="&#x41b;" horiz-adv-x="640" 
d="M0 -2v186q53 -3 74.5 17t21.5 83v416h494v-700h-200v506h-94v-246q0 -83 -24.5 -139.5t-68.5 -83.5t-93.5 -36t-109.5 -3z" />
    <glyph glyph-name="uni041C" unicode="&#x41c;" horiz-adv-x="860" 
d="M810 700v-700h-200v389l-105 -300h-150l-105 300v-389h-200v700h200h50l130 -366l130 366h250z" />
    <glyph glyph-name="uni041D" unicode="&#x41d;" horiz-adv-x="650" 
d="M400 700h200v-700h-200v263h-150v-263h-200v700h200v-243h150v243z" />
    <glyph glyph-name="uni041E" unicode="&#x41e;" horiz-adv-x="792" 
d="M396 -16q-156 0 -263.5 105.5t-107.5 260.5t107.5 260.5t263.5 105.5t263.5 -105.5t107.5 -260.5t-107.5 -260.5t-263.5 -105.5zM396 180q74 0 122.5 48.5t48.5 121.5t-48.5 121.5t-122.5 48.5t-122.5 -48.5t-48.5 -121.5t48.5 -121.5t122.5 -48.5z" />
    <glyph glyph-name="uni041F" unicode="&#x41f;" horiz-adv-x="640" 
d="M590 700v-700h-200v506h-140v-506h-200v700h200h340z" />
    <glyph glyph-name="uni0420" unicode="&#x420;" horiz-adv-x="595" 
d="M330 700q109 0 182 -68.5t73 -182.5t-73 -182.5t-182 -68.5h-80v-198h-200v700h200h80zM330 392q23 0 39 15.5t16 41.5t-16 41.5t-39 15.5h-80v-114h80z" />
    <glyph glyph-name="uni0421" unicode="&#x421;" horiz-adv-x="756" 
d="M391 -16q-158 0 -262 105t-104 261t104 261t262 105q134 0 233.5 -83.5t115.5 -211.5h-207q-11 44 -50.5 71.5t-91.5 27.5q-74 0 -120 -48t-46 -122t46 -122t120 -48q53 0 92 27.5t50 72.5h208q-17 -129 -116.5 -212.5t-233.5 -83.5z" />
    <glyph glyph-name="uni0422" unicode="&#x422;" horiz-adv-x="500" 
d="M495 700v-194h-145v-506h-200v506h-145v194h345h145z" />
    <glyph glyph-name="uni0423" unicode="&#x423;" horiz-adv-x="650" 
d="M440 700h210l-202 -474q-50 -117 -131.5 -174t-212.5 -52v186q91 -7 138 35l-232 479h210l121 -266z" />
    <glyph glyph-name="uni0424" unicode="&#x424;" horiz-adv-x="844" 
d="M824 350q0 -117 -80 -192t-227 -94v-84h-190v84q-147 19 -227 94t-80 192t80 192t227 94v84h190v-84q147 -19 227 -94t80 -192zM220 350q0 -44 25 -68.5t82 -34.5v212q-57 -10 -82 -36.5t-25 -72.5zM517 247q57 10 82 34.5t25 68.5q0 46 -25 72.5t-82 36.5v-212z" />
    <glyph glyph-name="uni0425" unicode="&#x425;" horiz-adv-x="635" 
d="M635 0h-222l-95 164l-96 -164h-222l207 354l-202 346h222l91 -155l90 155h222l-201 -346z" />
    <glyph glyph-name="uni0426" unicode="&#x426;" horiz-adv-x="705" 
d="M610 194h85v-338h-200v144h-445v700h210v-506h140v506h210v-506z" />
    <glyph glyph-name="uni0427" unicode="&#x427;" horiz-adv-x="640" 
d="M390 700h200v-700h-200v213q-45 -11 -99 -11q-117 0 -184 65.5t-67 182.5v250h200v-236q0 -32 20.5 -50t54.5 -18q35 0 75 8v296z" />
    <glyph glyph-name="uni0428" unicode="&#x428;" horiz-adv-x="920" 
d="M670 700h200v-700h-820v700h200v-506h110v506h200v-506h110v506z" />
    <glyph glyph-name="uni0429" unicode="&#x429;" horiz-adv-x="965" 
d="M870 194h85v-338h-200v144h-705v700h200v-506h110v506h200v-506h110v506h200v-506z" />
    <glyph glyph-name="uni042A" unicode="&#x42a;" horiz-adv-x="705" 
d="M160 -1v507h-160v194l360 -1v-198h80q109 0 182 -68.5t73 -182.5t-73 -182.5t-182 -68.5h-280zM360 193h80q23 0 39 15.5t16 41.5t-16 41.5t-39 15.5h-80v-114z" />
    <glyph glyph-name="uni042B" unicode="&#x42b;" horiz-adv-x="890" 
d="M50 -1v700h200v-198h80q109 0 182 -68.5t73 -182.5t-73 -182.5t-182 -68.5h-280zM640 -1v700h200v-700h-200zM250 193h80q23 0 39 15.5t16 41.5t-16 41.5t-39 15.5h-80v-114z" />
    <glyph glyph-name="uni042C" unicode="&#x42c;" horiz-adv-x="595" 
d="M330 502q109 0 182 -68.5t73 -182.5t-73 -182.5t-182 -68.5h-220h-60v700h200v-198h80zM330 194q23 0 39 15.5t16 41.5t-16 41.5t-39 15.5h-80v-114h80z" />
    <glyph glyph-name="uni042D" unicode="&#x42d;" horiz-adv-x="761" 
d="M370 716q161 0 263.5 -104.5t102.5 -261.5t-102.5 -261.5t-263.5 -104.5q-135 0 -236 84t-114 212h208q11 -46 51.5 -75.5t95.5 -29.5q103 0 146 85h-211v180h211q-43 85 -146 85q-55 0 -95.5 -29.5t-51.5 -74.5h-207q13 127 113.5 211t235.5 84z" />
    <glyph glyph-name="uni042E" unicode="&#x42e;" horiz-adv-x="1077" 
d="M681 716q156 0 263.5 -105.5t107.5 -260.5t-107.5 -260.5t-263.5 -105.5q-131 0 -227.5 77.5t-124.5 201.5h-79v-263h-200v700h200v-243h85q32 116 126 187.5t220 71.5zM681 180q74 0 122.5 48.5t48.5 121.5t-48.5 121.5t-122.5 48.5t-122.5 -48.5t-48.5 -121.5
t48.5 -121.5t122.5 -48.5z" />
    <glyph glyph-name="uni042F" unicode="&#x42f;" horiz-adv-x="635" 
d="M585 701v-700h-200v220h-19l-155 -220h-231l193 252q-58 30 -90.5 82t-32.5 120q0 111 75 178.5t190 67.5h270zM319 517q-30 0 -49.5 -18.5t-19.5 -48.5t19.5 -48t49.5 -17h66v132h-66z" />
    <glyph glyph-name="uni0430" unicode="&#x430;" horiz-adv-x="515" 
d="M262 514q90 0 154 -52t64 -147v-315h-176v29q-45 -43 -113 -43q-77 0 -124 40.5t-47 115.5t49 115.5t126 40.5q62 0 109 -29v46q0 40 -42 40t-42 -35h-176q0 92 64.5 143t153.5 51zM254 100q22 0 36 11.5t14 30.5q0 20 -14 31t-36 11q-23 0 -36 -11.5t-13 -30.5t13 -30.5
t36 -11.5z" />
    <glyph glyph-name="uni0431" unicode="&#x431;" horiz-adv-x="565" 
d="M290 -16q-123 0 -197.5 73.5t-74.5 190.5q0 69 22 126.5t54.5 93t70.5 68t70 55t52 51t18 58.5h190q3 -60 -17.5 -103.5t-55 -68t-70.5 -41.5l-72.5 -36t-53.5 -40q49 27 112 27q83 0 150 -60.5t67 -157.5q0 -103 -73 -169.5t-192 -66.5zM289 139q35 0 58 21.5t23 54.5
q0 34 -23.5 56t-60.5 22q-32 0 -56.5 -20.5t-24.5 -54.5q0 -35 24 -57t60 -22z" />
    <glyph glyph-name="uni0432" unicode="&#x432;" horiz-adv-x="525" 
d="M440 296q38 -21 59 -57.5t21 -80.5q0 -69 -46.5 -113.5t-133.5 -44.5h-300v192v308h180h86q72 0 116 -38.5t44 -95.5q0 -38 -26 -70zM220 372v-54h72q4 8 4 21q0 33 -35 33h-41zM300 132q34 0 34 31q0 29 -34 29h-80v-60h80z" />
    <glyph glyph-name="uni0433" unicode="&#x433;" horiz-adv-x="390" 
d="M390 500v-176h-165v-324h-185v500h350z" />
    <glyph glyph-name="uni0434" unicode="&#x434;" horiz-adv-x="580" 
d="M505 168h65v-168v-114h-175v114h-220v-114h-175v150v132h51q41 62 41 175v157h180h166h67v-332zM242 168h83v168h-53q-1 -102 -30 -168z" />
    <glyph glyph-name="uni0435" unicode="&#x435;" horiz-adv-x="556" 
d="M203 187q24 -65 92 -65q20 0 37 7t22 18h167q-23 -82 -87.5 -121.5t-151.5 -39.5q-118 0 -191 75t-73 189q0 113 75 188.5t193 75.5q109 0 180.5 -75t71.5 -187q0 -33 -8 -65h-327zM201 306h165q-15 60 -78 60q-67 0 -87 -60z" />
    <glyph glyph-name="uni0436" unicode="&#x436;" horiz-adv-x="789" 
d="M789 0h-202l-100 192v-192h-185v192l-100 -192h-202l144 250l-134 250h202l90 -187v187h185v-187l90 187h202l-134 -250z" />
    <glyph glyph-name="uni0437" unicode="&#x437;" horiz-adv-x="460" 
d="M386 284q69 -45 69 -126q0 -75 -57 -124.5t-168 -49.5q-112 0 -168.5 49.5t-56.5 130.5h184q0 -34 41 -34t41 36q0 32 -41 32h-70v122h73q15 9 15 27q0 29 -28 29t-28 -29h-174q0 78 53 122.5t154 44.5q90 0 143.5 -38.5t53.5 -104.5q0 -53 -36 -87z" />
    <glyph glyph-name="uni0438" unicode="&#x438;" horiz-adv-x="550" 
d="M366 500h144v-500h-180v200l-146 -200h-144v500h180v-200z" />
    <glyph glyph-name="uni0439" unicode="&#x439;" horiz-adv-x="550" 
d="M100 549v150h350v-150h-350zM366 500h144v-500h-180v200l-146 -200h-144v500h180v-200z" />
    <glyph glyph-name="uni043A" unicode="&#x43a;" horiz-adv-x="550" 
d="M550 0h-205l-120 200v-200h-185v500h185v-196l110 196h205l-152 -250z" />
    <glyph glyph-name="uni043B" unicode="&#x43b;" horiz-adv-x="562" 
d="M522 500v-500h-185v324h-70v-117q0 -121 -61 -172t-196 -43v170q38 -5 55 15.5t17 69.5v253h185h255z" />
    <glyph glyph-name="uni043C" unicode="&#x43c;" horiz-adv-x="670" 
d="M630 500v-500h-180v216l-77 -135h-76l-77 135v-216h-180v500h180h6l109 -190l109 190h186z" />
    <glyph glyph-name="uni043D" unicode="&#x43d;" horiz-adv-x="540" 
d="M315 500h185v-500h-185v162h-90v-162h-185v500h185v-162h90v162z" />
    <glyph glyph-name="uni043E" unicode="&#x43e;" horiz-adv-x="574" 
d="M287 -14q-112 0 -190.5 76t-78.5 188t78 188t191 76t191 -76t78 -188t-78 -188t-191 -76zM287 162q37 0 60.5 24.5t23.5 63.5t-23.5 63.5t-60.5 24.5t-60.5 -24.5t-23.5 -63.5t23.5 -63.5t60.5 -24.5z" />
    <glyph glyph-name="uni043F" unicode="&#x43f;" horiz-adv-x="540" 
d="M500 500v-500h-185v324h-90v-324h-185v500h185h275z" />
    <glyph glyph-name="uni0440" unicode="&#x440;" horiz-adv-x="606" 
d="M349 514q102 0 170.5 -75.5t68.5 -188.5t-68.5 -188.5t-170.5 -75.5q-77 0 -124 41v-227h-185v700h185v-27q47 41 124 41zM314 160q40 0 64.5 25t24.5 65t-24.5 65t-64.5 25t-64.5 -25t-24.5 -65t24.5 -65t64.5 -25z" />
    <glyph glyph-name="uni0441" unicode="&#x441;" horiz-adv-x="554" 
d="M544 210q-10 -97 -84 -160.5t-175 -63.5q-115 0 -191 75.5t-76 188.5t76 188.5t191 75.5q101 0 175 -63.5t84 -160.5h-191q-6 21 -24.5 33.5t-43.5 12.5q-35 0 -58.5 -24.5t-23.5 -61.5t23.5 -61.5t58.5 -24.5q25 0 44 12.5t25 33.5h190z" />
    <glyph glyph-name="uni0442" unicode="&#x442;" horiz-adv-x="430" 
d="M425 500v-176h-116v-324h-186v324h-118v176h304h116z" />
    <glyph glyph-name="uni0443" unicode="&#x443;" horiz-adv-x="580" 
d="M370 500h210l-166 -485q-39 -115 -123.5 -167.5t-201.5 -47.5v175q51 0 78 7.5t43 27.5l-200 490h210l89 -267z" />
    <glyph glyph-name="uni0444" unicode="&#x444;" horiz-adv-x="730" 
d="M712 250q0 -101 -64.5 -171t-192.5 -89v-190h-180v190q-128 19 -192.5 89t-64.5 171q0 100 64.5 169.5t192.5 88.5v192h180v-192q128 -19 192.5 -88.5t64.5 -169.5zM202 250q0 -66 73 -86v172q-73 -20 -73 -86zM455 164q73 20 73 86t-73 86v-172z" />
    <glyph glyph-name="uni0445" unicode="&#x445;" horiz-adv-x="530" 
d="M530 0h-195l-70 107l-70 -107h-195l168 256l-160 244h195l62 -95l62 95h195l-159 -244z" />
    <glyph glyph-name="uni0446" unicode="&#x446;" horiz-adv-x="595" 
d="M500 176h85v-290h-175v114h-370v500h185v-324h90v324h185v-324z" />
    <glyph glyph-name="uni0447" unicode="&#x447;" horiz-adv-x="525" 
d="M300 500h185v-500h-185v133q-48 -14 -95 -14q-82 0 -133.5 49t-51.5 132v200h185v-160q0 -51 45 -51q27 0 50 10v201z" />
    <glyph glyph-name="uni0448" unicode="&#x448;" horiz-adv-x="770" 
d="M545 500h185v-500h-185h-250h-192h-63v500h185v-324h70v324h180v-324h70v324z" />
    <glyph glyph-name="uni0449" unicode="&#x449;" horiz-adv-x="815" 
d="M720 176h85v-176v-114h-175v114h-160h-245h-185v500h185v-324h65v324h180v-324h65v324h185v-324z" />
    <glyph glyph-name="uni044A" unicode="&#x44a;" horiz-adv-x="580" 
d="M374 370q91 0 143.5 -49.5t52.5 -135.5t-52.5 -135.5t-143.5 -49.5h-224h-40v326h-110v174h180h115v-130h79zM351 150q39 0 39 35t-39 35h-56v-70h56z" />
    <glyph glyph-name="uni044B" unicode="&#x44b;" horiz-adv-x="755" 
d="M304 370q91 0 143.5 -49.5t52.5 -135.5t-52.5 -135.5t-143.5 -49.5h-224h-40v500h185v-130h79zM530 500h185v-500h-185v500zM281 150q39 0 39 35t-39 35h-56v-70h56z" />
    <glyph glyph-name="uni044C" unicode="&#x44c;" horiz-adv-x="510" 
d="M304 370q91 0 143.5 -49.5t52.5 -135.5t-52.5 -135.5t-143.5 -49.5h-224h-40v500h185v-130h79zM281 150q39 0 39 35t-39 35h-56v-70h56z" />
    <glyph glyph-name="uni044D" unicode="&#x44d;" horiz-adv-x="554" 
d="M269 514q117 0 192 -75t75 -189t-75 -189t-192 -75q-101 0 -175 63.5t-84 160.5h173q3 -30 26 -48.5t65 -18.5q54 0 81 37h-130v140h130q-27 37 -81 37q-41 0 -64 -19.5t-26 -47.5h-174q10 97 84 160.5t175 63.5z" />
    <glyph glyph-name="uni044E" unicode="&#x44e;" horiz-adv-x="798" 
d="M511 514q113 0 191 -76t78 -188t-78 -188t-191 -76q-87 0 -153 48.5t-92 127.5h-41v-162h-185v500h185v-162h40q26 79 92 127.5t154 48.5zM511 162q37 0 60.5 24.5t23.5 63.5t-23.5 63.5t-60.5 24.5t-60.5 -24.5t-23.5 -63.5t23.5 -63.5t60.5 -24.5z" />
    <glyph glyph-name="uni044F" unicode="&#x44f;" horiz-adv-x="546" 
d="M506 500v-500h-185v140h-17l-94 -140h-210l126 171q-80 50 -80 144q0 86 52.5 135.5t143.5 49.5h264zM265 350q-39 0 -39 -35t39 -35h56v70h-56z" />
    <glyph glyph-name="uni0451" unicode="&#x451;" horiz-adv-x="556" 
d="M258 705v-150h-150v150h150zM458 705v-150h-150v150h150zM203 187q24 -65 92 -65q20 0 37 7t22 18h167q-23 -82 -87.5 -121.5t-151.5 -39.5q-118 0 -191 75t-73 189q0 113 75 188.5t193 75.5q109 0 180.5 -75t71.5 -187q0 -33 -8 -65h-327zM201 306h165q-15 60 -78 60
q-67 0 -87 -60z" />
    <glyph glyph-name="uni0452" unicode="&#x452;" horiz-adv-x="535" 
d="M355 489q72 0 116 -51.5t44 -143.5v-294q0 -118 -60.5 -170.5t-189.5 -45.5v166q65 -6 65 50v269q0 42 -42 42q-48 0 -48 -54v-257h-185v531h-55v119h55v50h185v-50h130v-119h-130v-93q43 51 115 51z" />
    <glyph glyph-name="uni0453" unicode="&#x453;" horiz-adv-x="390" 
d="M386 700l-116 -150h-174l80 150h210zM390 500v-176h-165v-324h-185v500h350z" />
    <glyph glyph-name="uni0454" unicode="&#x454;" horiz-adv-x="554" 
d="M280 143q42 0 65 18.5t26 48.5h173q-10 -97 -84 -160.5t-175 -63.5q-117 0 -192 75t-75 189t75 189t192 75q101 0 175 -63.5t84 -160.5h-174q-3 28 -26 47.5t-64 19.5q-54 0 -81 -37h130v-140h-130q27 -37 81 -37z" />
    <glyph glyph-name="uni0455" unicode="&#x455;" horiz-adv-x="480" 
d="M206 352q0 -15 19 -24t47 -12.5t61 -13.5t61 -24.5t47 -47t19 -80.5q0 -85 -63 -124.5t-157 -39.5q-95 0 -157.5 42.5t-62.5 136.5h185q0 -43 35 -43t35 26q0 16 -26 25t-63 17t-74 21.5t-63 48.5t-26 90q0 82 63 123t152 41q88 0 149.5 -45t61.5 -132h-179q0 41 -32 41
t-32 -26z" />
    <glyph glyph-name="uni0456" unicode="&#x456;" horiz-adv-x="265" 
d="M40 550v150h185v-150h-185zM40 0v500h185v-500h-185z" />
    <glyph glyph-name="uni0457" unicode="&#x457;" horiz-adv-x="265" 
d="M-44 545v150h150v-150h-150zM156 545v150h150v-150h-150zM40 0v500h185v-500h-185z" />
    <glyph glyph-name="uni0458" unicode="&#x458;" horiz-adv-x="280" 
d="M55 700h185v-150h-185v150zM55 0v500h185v-500q0 -118 -60.5 -170.5t-189.5 -45.5v166q65 -6 65 50z" />
    <glyph glyph-name="uni0459" unicode="&#x459;" horiz-adv-x="782" 
d="M586 360q79 0 132.5 -48.5t53.5 -131.5t-53.5 -131.5t-132.5 -48.5h-214h-40v324h-65v-117q0 -121 -61 -172t-196 -43v170q38 -5 55 15.5t17 69.5v253h185h203h47v-140h69zM563 150q12 0 20.5 8.5t8.5 21.5t-8.5 21.5t-20.5 8.5h-46v-60h46z" />
    <glyph glyph-name="uni045A" unicode="&#x45a;" horiz-adv-x="755" 
d="M559 360q79 0 132.5 -48.5t53.5 -131.5t-53.5 -131.5t-132.5 -48.5h-214h-40v194h-90v-194h-185v500h185v-140h90v140h185v-140h69zM536 150q12 0 20.5 8.5t8.5 21.5t-8.5 21.5t-20.5 8.5h-46v-60h46z" />
    <glyph glyph-name="uni045B" unicode="&#x45b;" horiz-adv-x="550" 
d="M355 489q72 0 116 -51.5t44 -143.5v-294h-185v269q0 42 -42 42q-48 0 -48 -54v-257h-185v531h-55v119h55v50h185v-50h130v-119h-130v-93q43 51 115 51z" />
    <glyph glyph-name="uni045C" unicode="&#x45c;" horiz-adv-x="550" 
d="M456 700l-116 -150h-174l80 150h210zM550 0h-205l-120 200v-200h-185v500h185v-196l110 196h205l-152 -250z" />
    <glyph glyph-name="uni045E" unicode="&#x45e;" horiz-adv-x="580" 
d="M476 699v-150h-350v150h350zM370 500h210l-166 -485q-39 -115 -123.5 -167.5t-201.5 -47.5v175q51 0 78 7.5t43 27.5l-200 490h210l89 -267z" />
    <glyph glyph-name="uni045F" unicode="&#x45f;" horiz-adv-x="540" 
d="M315 500h185v-500h-142v-114h-175v114h-143v500h185v-324h90v324z" />
    <glyph glyph-name="uni0490" unicode="&#x490;" horiz-adv-x="480" 
d="M280 820h200v-180v-134h-230v-506h-200v700h230v120z" />
    <glyph glyph-name="uni0491" unicode="&#x491;" horiz-adv-x="390" 
d="M215 604h175v-280h-165v-324h-185v500h175v104z" />
    <glyph glyph-name="Wgrave" unicode="&#x1e80;" horiz-adv-x="900" 
d="M540 750h-174l-116 150h210zM702 700h208l-198 -700h-187l-75 272l-75 -272h-187l-198 700h208l101 -397l72 254l-39 143h188l91 -370z" />
    <glyph glyph-name="wgrave" unicode="&#x1e81;" horiz-adv-x="740" 
d="M458 550h-174l-116 150h210zM545 500h195l-145 -500h-165h-5l-55 190l-55 -190h-130h-40l-145 500h195l60 -260l50 174l-25 86h135l73 -250z" />
    <glyph glyph-name="Wacute" unicode="&#x1e82;" horiz-adv-x="900" 
d="M650 900l-116 -150h-174l80 150h210zM702 700h208l-198 -700h-187l-75 272l-75 -272h-187l-198 700h208l101 -397l72 254l-39 143h188l91 -370z" />
    <glyph glyph-name="wacute" unicode="&#x1e83;" horiz-adv-x="740" 
d="M568 700l-116 -150h-174l80 150h210zM545 500h195l-145 -500h-165h-5l-55 190l-55 -190h-130h-40l-145 500h195l60 -260l50 174l-25 86h135l73 -250z" />
    <glyph glyph-name="Wdieresis" unicode="&#x1e84;" horiz-adv-x="900" 
d="M425 895v-150h-150v150h150zM625 895v-150h-150v150h150zM702 700h208l-198 -700h-187l-75 272l-75 -272h-187l-198 700h208l101 -397l72 254l-39 143h188l91 -370z" />
    <glyph glyph-name="wdieresis" unicode="&#x1e85;" horiz-adv-x="740" 
d="M343 695v-150h-150v150h150zM543 695v-150h-150v150h150zM545 500h195l-145 -500h-165h-5l-55 190l-55 -190h-130h-40l-145 500h195l60 -260l50 174l-25 86h135l73 -250z" />
    <glyph glyph-name="Ygrave" unicode="&#x1ef2;" horiz-adv-x="654" 
d="M417 750h-174l-116 150h210zM654 700l-227 -398v-302h-200v302l-227 398h222l105 -212l105 212h222z" />
    <glyph glyph-name="ygrave" unicode="&#x1ef3;" horiz-adv-x="542" 
d="M366 550l-80 150h-210l116 -150h174zM355 500h195l-239 -700h-195l69 201l-195 499h195l92 -269z" />
    <glyph glyph-name="endash" unicode="&#x2013;" horiz-adv-x="640" 
d="M50 217v174h540v-174h-540z" />
    <glyph glyph-name="emdash" unicode="&#x2014;" horiz-adv-x="740" 
d="M50 217v174h640v-174h-640z" />
    <glyph glyph-name="quoteleft" unicode="&#x2018;" horiz-adv-x="300" 
d="M250 635q-56 0 -80 -25t-24 -74h104v-200h-200v200q0 77 52 124t148 47v-72z" />
    <glyph glyph-name="quoteright" unicode="&#x2019;" horiz-adv-x="300" 
d="M50 700h200v-200q0 -77 -52 -124t-148 -47v72q56 0 80 25t24 74h-104v200z" />
    <glyph glyph-name="quotesinglbase" unicode="&#x201a;" horiz-adv-x="300" 
d="M50 200h200v-200q0 -77 -52 -124t-148 -47v72q56 0 80 25t24 74h-104v200z" />
    <glyph glyph-name="quotedblleft" unicode="&#x201c;" horiz-adv-x="550" 
d="M50 536q0 77 52 124t148 47v-72q-56 0 -80 -25t-24 -74h104v-200h-200v200zM500 635q-56 0 -80 -25t-24 -74h104v-200h-200v200q0 77 52 124t148 47v-72z" />
    <glyph glyph-name="quotedblright" unicode="&#x201d;" horiz-adv-x="550" 
d="M50 500v200h200v-200q0 -77 -52 -124t-148 -47v72q56 0 80 25t24 74h-104zM300 700h200v-200q0 -77 -52 -124t-148 -47v72q56 0 80 25t24 74h-104v200z" />
    <glyph glyph-name="quotedblbase" unicode="&#x201e;" horiz-adv-x="550" 
d="M50 0v200h200v-200q0 -77 -52 -124t-148 -47v72q56 0 80 25t24 74h-104zM300 200h200v-200q0 -77 -52 -124t-148 -47v72q56 0 80 25t24 74h-104v200z" />
    <glyph glyph-name="dagger" unicode="&#x2020;" horiz-adv-x="460" 
d="M430 590v-174h-107v-416h-185v416h-108v174h108v110h185v-110h107z" />
    <glyph glyph-name="daggerdbl" unicode="&#x2021;" horiz-adv-x="460" 
d="M430 416h-107v-132h107v-174h-107v-110h-185v110h-108v174h108v132h-108v174h108v110h185v-110h107v-174z" />
    <glyph glyph-name="bullet" unicode="&#x2022;" horiz-adv-x="420" 
d="M211 170q-75 0 -128 53t-53 128q0 74 53 126.5t128 52.5q74 0 126.5 -52.5t52.5 -126.5q0 -75 -52.5 -128t-126.5 -53z" />
    <glyph glyph-name="ellipsis" unicode="&#x2026;" horiz-adv-x="820" 
d="M50 0v200h200v-200h-200zM310 0v200h200v-200h-200zM570 0v200h200v-200h-200z" />
    <glyph glyph-name="perthousand" unicode="&#x2030;" horiz-adv-x="1343" 
d="M225 336q-83 0 -139 55.5t-56 134.5t56 134.5t139 55.5q82 0 137.5 -55.5t55.5 -134.5t-55.5 -134.5t-137.5 -55.5zM120 0l521 700h158l-522 -700h-157zM224 486q17 0 28 12t11 28q0 17 -11 28.5t-28 11.5q-16 0 -27 -11.5t-11 -28.5t11 -28.5t27 -11.5zM695 -16
q-83 0 -139 55.5t-56 134.5t56 134.5t139 55.5q82 0 137.5 -55.5t55.5 -134.5t-55.5 -134.5t-137.5 -55.5zM1120 -16q-83 0 -139 55.5t-56 134.5t56 134.5t139 55.5q82 0 137.5 -55.5t55.5 -134.5t-55.5 -134.5t-137.5 -55.5zM694 134q17 0 28 12t11 28q0 17 -11 28.5
t-28 11.5q-16 0 -27 -11.5t-11 -28.5t11 -28.5t27 -11.5zM1119 134q17 0 28 12t11 28q0 17 -11 28.5t-28 11.5q-16 0 -27 -11.5t-11 -28.5t11 -28.5t27 -11.5z" />
    <glyph glyph-name="guilsinglleft" unicode="&#x2039;" horiz-adv-x="367" 
d="M317 509l-115 -200l115 -200h-152l-115 200l115 200h152z" />
    <glyph glyph-name="guilsinglright" unicode="&#x203a;" horiz-adv-x="367" 
d="M202 509l115 -200l-115 -200h-152l115 200l-115 200h152z" />
    <glyph glyph-name="fraction" unicode="&#x2044;" horiz-adv-x="180" 
d="M-50 0h-130l410 700h130z" />
    <glyph glyph-name="Euro" unicode="&#x20ac;" 
d="M444 274h201q-9 -134 -82.5 -212t-197.5 -78q-117 0 -190.5 69.5t-95.5 192.5h-69v84h60v20v18h-60v84h68q22 123 96 193.5t191 70.5q122 0 195 -76t84 -206h-201q-4 88 -78 88q-62 0 -83 -70h123v-84h-135v-18v-20h135v-84h-122q21 -68 82 -68q76 0 79 96z" />
    <glyph glyph-name="uni20BD" unicode="&#x20bd;" horiz-adv-x="615" 
d="M350 233h-80v-39h200v-100h-200v-93h-200v93h-60v100h60v39h-60v180h60v288h200h80q109 0 182 -62.5t73 -168.5q0 -118 -71 -177.5t-184 -59.5zM270 507v-94h80q55 0 55 47t-55 47h-80z" />
    <glyph glyph-name="uni2116" unicode="&#x2116;" horiz-adv-x="1026" 
d="M823 356q-78 0 -130.5 52.5t-52.5 127.5q0 76 52 128t131 52t131 -52t52 -128q0 -75 -51.5 -127.5t-131.5 -52.5zM410 700h200v-700h-160l-200 330v-330h-200v700h160l200 -330v330zM823 496q18 0 28.5 11t10.5 29q0 17 -11 28.5t-28 11.5t-28 -11.5t-11 -28.5t11 -28.5
t28 -11.5zM656 146v180h334v-180h-334z" />
    <glyph glyph-name="trademark" unicode="&#x2122;" horiz-adv-x="476" 
d="M193 700v-77h-41v-123h-80v123h-42v77h163zM446 700v-200h-77v82l-28 -50h-29l-25 46v-78h-77v200h77l41 -79v-1l41 80h77z" />
    <glyph glyph-name="estimated" unicode="&#x212e;" horiz-adv-x="780" 
d="M390 710q163 0 266.5 -104t103.5 -256q0 -15 -15 -15h-560q-15 0 -15 -15v-192q0 -11 7 -19q84 -89 233 -89q145 0 231 97q7 9 18 9h37q10 0 13 -6t-4 -13q-109 -117 -295 -117q-176 0 -283 103.5t-107 256.5q0 152 103.5 256t266.5 104zM610 572q0 11 -7 19
q-84 89 -213 89t-213 -89q-7 -8 -7 -19v-192q0 -15 15 -15h410q15 0 15 15v192z" />
    <glyph glyph-name="oneeighth" unicode="&#x215b;" horiz-adv-x="803" 
d="M107 300v258l-97 -51v140l97 53h142v-400h-142zM509 700h130l-410 -700h-130zM734 209q59 -34 59 -99q0 -57 -43.5 -90.5t-118.5 -33.5t-118.5 33.5t-43.5 90.5q0 65 59 99q-45 31 -45 83q0 56 42 89t106 33t106 -33t42 -89q0 -52 -45 -83zM631 303q-25 0 -25 -23
q0 -21 25 -21t25 21q0 23 -25 23zM631 98q32 0 32 29q0 28 -32 28t-32 -28q0 -29 32 -29z" />
    <glyph glyph-name="threeeighths" unicode="&#x215c;" horiz-adv-x="847" 
d="M313 428q0 -68 -44 -105t-110 -37t-110 37t-44 105h131q0 -19 23 -19t23 19q0 20 -23 20h-80v77l41 52h-99v123h267v-89l-56 -71q81 -29 81 -112zM553 700h130l-410 -700h-130zM778 209q59 -34 59 -99q0 -57 -43.5 -90.5t-118.5 -33.5t-118.5 33.5t-43.5 90.5q0 65 59 99
q-45 31 -45 83q0 56 42 89t106 33t106 -33t42 -89q0 -52 -45 -83zM675 303q-25 0 -25 -23q0 -21 25 -21t25 21q0 23 -25 23zM675 98q32 0 32 29q0 28 -32 28t-32 -28q0 -29 32 -29z" />
    <glyph glyph-name="fiveeighths" unicode="&#x215d;" horiz-adv-x="854" 
d="M315 420q0 -64 -43.5 -99t-108.5 -35q-66 0 -109.5 35.5t-43.5 101.5h131q0 -19 22 -19q21 0 21 19q0 23 -21 23h-146l17 254h266v-123h-149l-1 -24h18q67 0 107 -32.5t40 -100.5zM560 700h130l-410 -700h-130zM785 209q59 -34 59 -99q0 -57 -43.5 -90.5t-118.5 -33.5
t-118.5 33.5t-43.5 90.5q0 65 59 99q-45 31 -45 83q0 56 42 89t106 33t106 -33t42 -89q0 -52 -45 -83zM682 303q-25 0 -25 -23q0 -21 25 -21t25 21q0 23 -25 23zM682 98q32 0 32 29q0 28 -32 28t-32 -28q0 -29 32 -29z" />
    <glyph glyph-name="seveneighths" unicode="&#x215e;" horiz-adv-x="834" 
d="M193 300h-145l101 277h-149v123h300v-106zM540 700h130l-410 -700h-130zM765 209q59 -34 59 -99q0 -57 -43.5 -90.5t-118.5 -33.5t-118.5 33.5t-43.5 90.5q0 65 59 99q-45 31 -45 83q0 56 42 89t106 33t106 -33t42 -89q0 -52 -45 -83zM662 303q-25 0 -25 -23
q0 -21 25 -21t25 21q0 23 -25 23zM662 98q32 0 32 29q0 28 -32 28t-32 -28q0 -29 32 -29z" />
    <glyph glyph-name="arrowleft" unicode="&#x2190;" horiz-adv-x="780" 
d="M750 437v-175h-394l212 -212h-238l-300 300l300 300h238l-213 -213h395z" />
    <glyph glyph-name="arrowup" unicode="&#x2191;" 
d="M630 400v-238l-207 207v-369h-185v370l-208 -208v238l300 300z" />
    <glyph glyph-name="arrowright" unicode="&#x2192;" horiz-adv-x="780" 
d="M450 650l300 -300l-300 -300h-238l212 212h-394v175h395l-213 213h238z" />
    <glyph glyph-name="arrowdown" unicode="&#x2193;" 
d="M423 331l207 207v-238l-300 -300l-300 300v238l208 -208v370h185v-369z" />
    <glyph glyph-name="arrowboth" unicode="&#x2194;" horiz-adv-x="1180" 
d="M860 640l290 -290l-290 -290h-238l202 202h-468l202 -202h-238l-290 290l290 290h238l-203 -203h470l-203 203h238z" />
    <glyph glyph-name="arrowupdn" unicode="&#x2195;" horiz-adv-x="640" 
d="M610 372l-197 197v-438l197 197v-238l-290 -290l-290 290v238l198 -198v440l-198 -198v238l290 290l290 -290v-238z" />
    <glyph glyph-name="uni2196" unicode="&#x2196;" 
d="M630 163l-131 -131l-301 301v-293l-168 168v424h424l168 -168h-294z" />
    <glyph glyph-name="uni2197" unicode="&#x2197;" 
d="M206 632h424v-424l-168 -168v293l-301 -301l-131 131l302 301h-294z" />
    <glyph glyph-name="uni2198" unicode="&#x2198;" 
d="M462 654l168 -168v-424h-424l-168 168h294l-302 301l131 131l301 -301v293z" />
    <glyph glyph-name="uni2199" unicode="&#x2199;" 
d="M630 531l-302 -301h294l-168 -168h-424v424l168 168v-293l301 301z" />
    <glyph glyph-name="partialdiff" unicode="&#x2202;" horiz-adv-x="581" 
d="M237 716q129 0 216.5 -100.5t87.5 -265.5q0 -178 -79.5 -272t-215.5 -94q-103 0 -164.5 62t-61.5 154q0 103 63.5 169t167.5 66q48 0 94 -18q-22 122 -129 125q-63 1 -120 -31v169q56 36 141 36zM260 154q66 0 84 104q-34 17 -73 17q-29 0 -47.5 -18t-18.5 -47
q0 -24 16 -40t39 -16z" />
    <glyph glyph-name="emptyset" unicode="&#x2205;" horiz-adv-x="804" 
d="M659 605q105 -107 105 -255q0 -150 -106 -256t-256 -106q-88 0 -166 40l-36 -48h-140l85 115q-105 107 -105 255q0 150 106 256t256 106q88 0 166 -40l36 48h140zM170 350q0 -85 53 -149l268 365q-41 18 -89 18q-97 0 -164.5 -68t-67.5 -166zM402 116q97 0 164.5 68
t67.5 166q0 85 -53 149l-268 -365q41 -18 89 -18z" />
    <glyph glyph-name="product" unicode="&#x220f;" horiz-adv-x="620" 
d="M50 -200v900h520v-900h-185v724h-150v-724h-185z" />
    <glyph glyph-name="summation" unicode="&#x2211;" horiz-adv-x="550" 
d="M20 -200v155l186 305l-171 284v156h470v-184h-238l154 -256l-168 -276h267v-184h-500z" />
    <glyph glyph-name="minus" unicode="&#x2212;" horiz-adv-x="560" 
d="M30 260v180h500v-180h-500z" />
    <glyph glyph-name="radical" unicode="&#x221a;" horiz-adv-x="700" 
d="M241 0l-108 172h-113v172h218l77 -133l195 589h190l-280 -800h-179z" />
    <glyph glyph-name="infinity" unicode="&#x221e;" horiz-adv-x="830" 
d="M597 555q88 0 145.5 -57.5t57.5 -147.5t-57.5 -147.5t-145.5 -57.5q-99 0 -182 91q-83 -91 -182 -91q-88 0 -145.5 57.5t-57.5 147.5t57.5 147.5t145.5 57.5q99 0 182 -91q83 91 182 91zM258 315q34 0 68 35q-34 35 -68 35q-15 0 -26.5 -9t-11.5 -26t11.5 -26t26.5 -9z
M572 315q15 0 26.5 9t11.5 26t-11.5 26t-26.5 9q-34 0 -68 -35q34 -35 68 -35z" />
    <glyph glyph-name="integral" unicode="&#x222b;" horiz-adv-x="482" 
d="M0 -204v180q34 -14 63.5 0.5t36.5 51.5l86 505q13 75 57.5 120t105.5 53.5t133 -4.5v-180q-34 14 -63.5 -0.5t-36.5 -51.5l-86 -505q-13 -75 -57.5 -120t-105.5 -53.5t-133 4.5z" />
    <glyph glyph-name="approxequal" unicode="&#x2248;" horiz-adv-x="578" 
d="M289 372q-43 19 -78.5 22.5t-60 -4.5t-53.5 -27l-67 50q22 114 92.5 153t166.5 -6q49 -22 72 -27.5t36 4t21 40.5l130 -59q-22 -114 -92.5 -152.5t-166.5 6.5zM160 119l-130 59q22 114 92.5 152.5t166.5 -6.5q43 -19 78.5 -22.5t60 4.5t53.5 27l67 -50
q-22 -114 -92.5 -153t-166.5 6q-49 22 -72 27.5t-36 -4t-21 -40.5z" />
    <glyph glyph-name="notequal" unicode="&#x2260;" horiz-adv-x="500" 
d="M470 375h-169l-22 -50h191v-180h-269l-41 -95h-80l41 95h-91v180h169l22 50h-191v180h269l41 95h80l-41 -95h91v-180z" />
    <glyph glyph-name="lessequal" unicode="&#x2264;" horiz-adv-x="510" 
d="M480 700v-194l-280 -56l280 -56v-194l-450 145v210zM30 0v180h450v-180h-450z" />
    <glyph glyph-name="greaterequal" unicode="&#x2265;" horiz-adv-x="510" 
d="M30 700l450 -145v-210l-450 -145v194l280 56l-280 56v194zM30 0v180h450v-180h-450z" />
    <glyph glyph-name="lozenge" unicode="&#x25ca;" horiz-adv-x="620" 
d="M216 0l-186 350l186 350h188l186 -350l-186 -350h-188zM310 212l73 138l-73 138l-73 -138z" />
    <glyph glyph-name="i.loclTRK" horiz-adv-x="265" 
d="M46 545v160h170v-160h-170zM40 0v500h185v-500h-185z" />
    <glyph glyph-name="a.ss01" horiz-adv-x="606" 
d="M381 500h185v-500h-185v27q-47 -41 -124 -41q-102 0 -170.5 75.5t-68.5 188.5t68.5 188.5t170.5 75.5q77 0 124 -41v27zM292 160q40 0 64.5 25t24.5 65t-24.5 65t-64.5 25t-64.5 -25t-24.5 -65t24.5 -65t64.5 -25z" />
    <glyph glyph-name="aacute.ss01" horiz-adv-x="606" 
d="M523 700l-116 -150h-174l80 150h210zM381 500h185v-500h-185v27q-47 -41 -124 -41q-102 0 -170.5 75.5t-68.5 188.5t68.5 188.5t170.5 75.5q77 0 124 -41v27zM292 160q40 0 64.5 25t24.5 65t-24.5 65t-64.5 25t-64.5 -25t-24.5 -65t24.5 -65t64.5 -25z" />
    <glyph glyph-name="abreve.ss01" horiz-adv-x="606" 
d="M323 532q-89 0 -137 43t-48 127h150q0 -40 35 -40t35 40h150q0 -84 -48 -127t-137 -43zM381 500h185v-500h-185v27q-47 -41 -124 -41q-102 0 -170.5 75.5t-68.5 188.5t68.5 188.5t170.5 75.5q77 0 124 -41v27zM292 160q40 0 64.5 25t24.5 65t-24.5 65t-64.5 25t-64.5 -25
t-24.5 -65t24.5 -65t64.5 -25z" />
    <glyph glyph-name="acircumflex.ss01" horiz-adv-x="606" 
d="M318 598l-45 -58h-155l106 160h174h14l106 -160h-155zM381 500h185v-500h-185v27q-47 -41 -124 -41q-102 0 -170.5 75.5t-68.5 188.5t68.5 188.5t170.5 75.5q77 0 124 -41v27zM292 160q40 0 64.5 25t24.5 65t-24.5 65t-64.5 25t-64.5 -25t-24.5 -65t24.5 -65t64.5 -25z
" />
    <glyph glyph-name="adieresis.ss01" horiz-adv-x="606" 
d="M298 695v-150h-150v150h150zM498 695v-150h-150v150h150zM381 500h185v-500h-185v27q-47 -41 -124 -41q-102 0 -170.5 75.5t-68.5 188.5t68.5 188.5t170.5 75.5q77 0 124 -41v27zM292 160q40 0 64.5 25t24.5 65t-24.5 65t-64.5 25t-64.5 -25t-24.5 -65t24.5 -65t64.5 -25
z" />
    <glyph glyph-name="agrave.ss01" horiz-adv-x="606" 
d="M413 550h-174l-116 150h210zM381 500h185v-500h-185v27q-47 -41 -124 -41q-102 0 -170.5 75.5t-68.5 188.5t68.5 188.5t170.5 75.5q77 0 124 -41v27zM292 160q40 0 64.5 25t24.5 65t-24.5 65t-64.5 25t-64.5 -25t-24.5 -65t24.5 -65t64.5 -25z" />
    <glyph glyph-name="amacron.ss01" horiz-adv-x="606" 
d="M483 689v-140h-320v140h320zM381 500h185v-500h-185v27q-47 -41 -124 -41q-102 0 -170.5 75.5t-68.5 188.5t68.5 188.5t170.5 75.5q77 0 124 -41v27zM292 160q40 0 64.5 25t24.5 65t-24.5 65t-64.5 25t-64.5 -25t-24.5 -65t24.5 -65t64.5 -25z" />
    <glyph glyph-name="aogonek.ss01" horiz-adv-x="606" 
d="M566 500v-500q-40 -41 -40 -71q0 -19 21 -19q10 0 19 3v-110q-42 -17 -88 -17q-48 0 -79 23t-31 68q0 61 59 123h-46v27q-47 -41 -124 -41q-102 0 -170.5 75.5t-68.5 188.5t68.5 188.5t170.5 75.5q77 0 124 -41v27h185zM292 160q40 0 64.5 25t24.5 65t-24.5 65t-64.5 25
t-64.5 -25t-24.5 -65t24.5 -65t64.5 -25z" />
    <glyph glyph-name="aring.ss01" horiz-adv-x="606" 
d="M323 530q-65 0 -107 40t-42 100t42 100t107 40q67 0 108 -39.5t41 -100.5t-41 -100.5t-108 -39.5zM323 700q-15 0 -23 -8.5t-8 -21.5t8 -21.5t23 -8.5q32 0 32 30t-32 30zM381 500h185v-500h-185v27q-47 -41 -124 -41q-102 0 -170.5 75.5t-68.5 188.5t68.5 188.5
t170.5 75.5q77 0 124 -41v27zM292 160q40 0 64.5 25t24.5 65t-24.5 65t-64.5 25t-64.5 -25t-24.5 -65t24.5 -65t64.5 -25z" />
    <glyph glyph-name="atilde.ss01" horiz-adv-x="606" 
d="M319 557q-5 2 -14 6.5t-13.5 6.5t-11 3.5t-9.5 -1.5t-5 -10t-2 -19h-120q0 60 17 99t45 53t58.5 14t62.5 -13q5 -2 14.5 -6.5l14 -6.5t11 -3.5t9.5 1.5t5 10t2 19h120q0 -61 -17 -100.5t-45 -53t-58.5 -13t-63.5 13.5zM381 500h185v-500h-185v27q-47 -41 -124 -41
q-102 0 -170.5 75.5t-68.5 188.5t68.5 188.5t170.5 75.5q77 0 124 -41v27zM292 160q40 0 64.5 25t24.5 65t-24.5 65t-64.5 25t-64.5 -25t-24.5 -65t24.5 -65t64.5 -25z" />
    <glyph glyph-name="ae.ss01" horiz-adv-x="919" 
d="M566 187q24 -65 92 -65q46 0 59 25h167q-24 -83 -76.5 -122t-122.5 -39q-83 0 -139 53v-39h-165v34q-48 -48 -124 -48q-102 0 -170.5 75.5t-68.5 188.5t68.5 188.5t170.5 75.5q76 0 124 -48v34h165v-35q52 49 133 49q95 0 158.5 -75t63.5 -187q0 -33 -8 -65h-327z
M564 306h165q-15 60 -78 60q-67 0 -87 -60zM292 160q40 0 64.5 25t24.5 65t-24.5 65t-64.5 25t-64.5 -25t-24.5 -65t24.5 -65t64.5 -25z" />
    <glyph glyph-name="y.ss01" horiz-adv-x="535" 
d="M310 500h185v-517q0 -96 -65 -147.5t-158 -51.5t-158 51t-65 143h175q0 -37 43 -37t43 42v73q-43 -51 -115 -51t-116 51.5t-44 143.5v300h185v-275q0 -42 42 -42q48 0 48 54v263z" />
    <glyph glyph-name="yacute.ss01" horiz-adv-x="535" 
d="M466 700l-116 -150h-174l80 150h210zM310 500h185v-517q0 -96 -65 -147.5t-158 -51.5t-158 51t-65 143h175q0 -37 43 -37t43 42v73q-43 -51 -115 -51t-116 51.5t-44 143.5v300h185v-275q0 -42 42 -42q48 0 48 54v263z" />
    <glyph glyph-name="ycircumflex.ss01" horiz-adv-x="535" 
d="M261 598l-45 -58h-155l106 160h174h14l106 -160h-155zM310 500h185v-517q0 -96 -65 -147.5t-158 -51.5t-158 51t-65 143h175q0 -37 43 -37t43 42v73q-43 -51 -115 -51t-116 51.5t-44 143.5v300h185v-275q0 -42 42 -42q48 0 48 54v263z" />
    <glyph glyph-name="ydieresis.ss01" horiz-adv-x="535" 
d="M241 695v-150h-150v150h150zM441 695v-150h-150v150h150zM310 500h185v-517q0 -96 -65 -147.5t-158 -51.5t-158 51t-65 143h175q0 -37 43 -37t43 42v73q-43 -51 -115 -51t-116 51.5t-44 143.5v300h185v-275q0 -42 42 -42q48 0 48 54v263z" />
    <glyph glyph-name="ygrave.ss01" horiz-adv-x="535" 
d="M356 550h-174l-116 150h210zM310 500h185v-517q0 -96 -65 -147.5t-158 -51.5t-158 51t-65 143h175q0 -37 43 -37t43 42v73q-43 -51 -115 -51t-116 51.5t-44 143.5v300h185v-275q0 -42 42 -42q48 0 48 54v263z" />
    <glyph glyph-name="f_f_j" horiz-adv-x="850" 
d="M810 500v-500q0 -118 -60.5 -170.5t-189.5 -45.5v166q65 -6 65 50v324h-97v-324h-185v324h-58h-42v-324h-185v324h-58v176h58q0 108 67 165.5t195 50.5v-166q-36 3 -56.5 -11t-20.5 -39h77h23v10q0 106 66 161t196 55q72 0 135 -16v-152q-67 10 -120 10q-92 0 -92 -58
v-10h282z" />
    <glyph glyph-name="f_j" horiz-adv-x="565" 
d="M525 500v-500q0 -118 -60.5 -170.5t-189.5 -45.5v166q65 -6 65 50v324h-97v-324h-185v324h-58v176h58q0 106 66 161t196 55q72 0 135 -16v-152q-67 10 -120 10q-92 0 -92 -58h282z" />
    <glyph glyph-name="uni0414.loclBGR" horiz-adv-x="740" 
d="M655 190h80v-190v-144h-200v144h-300h-30v-144h-200v180v154h80l173 510h224zM289 190h162l-81 285z" />
    <glyph glyph-name="uni041B.loclBGR" horiz-adv-x="640" 
d="M208 700h224l218 -700h-215l-115 465l-115 -465h-215z" />
    <glyph glyph-name="uni0424.loclBGR" horiz-adv-x="874" 
d="M849 350q0 -141 -86 -235.5t-231 -118.5v-96h-190v96q-145 24 -231 118.5t-86 235.5t86 235.5t231 118.5v96h190v-96q145 -24 231 -118.5t86 -235.5zM225 350q0 -129 117 -164v328q-117 -35 -117 -164zM532 186q117 35 117 164t-117 164v-328z" />
    <glyph glyph-name="uni0414.ss01" horiz-adv-x="705" 
d="M620 190h75v-190h-275h-415v190h71q45 75 45 216v294h499v-510zM285 190h135v326h-99v-112q0 -129 -36 -214z" />
    <glyph glyph-name="uni0426.ss01" horiz-adv-x="705" 
d="M610 194h85v-194h-645v700h210v-506h140v506h210v-506z" />
    <glyph glyph-name="uni0429.ss01" horiz-adv-x="965" 
d="M870 194h85v-194h-905v700h200v-506h110v506h200v-506h110v506h200v-506z" />
    <glyph glyph-name="uni0414.loclBGR.ss01" horiz-adv-x="740" 
d="M655 190h80v-190h-230h-485h-15v190h80l173 510h224zM289 190h162l-81 285z" />
    <glyph glyph-name="uni0432.loclBGR" horiz-adv-x="558" 
d="M440 405q100 -52 100 -187q0 -107 -68.5 -169.5t-186.5 -62.5q-111 0 -178 65.5t-67 176.5v239q0 114 65.5 180.5t175.5 66.5q97 0 153 -51t56 -135q0 -70 -50 -123zM270 544q-45 0 -45 -62v-61l9 2q19 4 39 6q36 33 36 68q0 47 -39 47zM290 160q30 0 47.5 15.5
t17.5 42.5q0 35 -24.5 50.5t-67.5 6.5l-38 -8v-39q0 -31 17.5 -49.5t47.5 -18.5z" />
    <glyph glyph-name="uni0433.loclBGR" horiz-adv-x="470" 
d="M270 165h185q0 -94 -62.5 -136.5t-157.5 -42.5q-94 0 -157 39.5t-63 124.5q0 48 19 80.5t47 47t61 24.5t61 13.5t47 12.5t19 24q0 26 -32 26t-32 -41h-179q0 87 61.5 132t149.5 45q89 0 152 -41t63 -123q0 -55 -26 -90t-63 -48.5t-74 -21.5t-63 -17t-26 -25q0 -26 35 -26
t35 43z" />
    <glyph glyph-name="uni0434.loclBGR" horiz-adv-x="613" 
d="M388 500h185v-485q0 -60 -22.5 -106t-60.5 -72.5t-83.5 -39.5t-95.5 -13q-51 0 -96 11.5t-83 35t-60.5 65.5t-22.5 98h185q0 -50 77 -50q33 0 55 17.5t22 53.5v31q-48 -40 -124 -40q-101 0 -170 74t-69 180t69 180t170 74q76 0 124 -40v26zM299 174q40 0 64.5 24.5
t24.5 61.5t-24.5 61.5t-64.5 24.5t-64.5 -24.5t-24.5 -61.5t24.5 -61.5t64.5 -24.5z" />
    <glyph glyph-name="uni0436.loclBGR" horiz-adv-x="789" 
d="M789 0h-202l-100 192v-192h-185v192l-100 -192h-202l144 250l-134 250h202l90 -187v387h185v-387l90 187h202l-134 -250z" />
    <glyph glyph-name="uni0438.loclBGR" horiz-adv-x="535" 
d="M310 500h185v-500h-185v37q-43 -51 -115 -51t-116 51.5t-44 143.5v319h185v-294q0 -42 42 -42q48 0 48 54v282z" />
    <glyph glyph-name="uni0439.loclBGR" horiz-adv-x="535" 
d="M440 699v-150h-350v150h350zM310 500h185v-500h-185v37q-43 -51 -115 -51t-116 51.5t-44 143.5v319h185v-294q0 -42 42 -42q48 0 48 54v282z" />
    <glyph glyph-name="uni043A.loclBGR" horiz-adv-x="550" 
d="M550 0h-205l-120 200v-200h-185v700h185v-396l110 196h205l-152 -250z" />
    <glyph glyph-name="uni043B.loclBGR" horiz-adv-x="560" 
d="M560 0h-195l-85 258l-85 -258h-195l185 500h175h15z" />
    <glyph glyph-name="uni043F.loclBGR" horiz-adv-x="535" 
d="M340 514q72 0 116 -51.5t44 -143.5v-319h-185v294q0 42 -42 42q-48 0 -48 -54v-282h-185v500h185v-37q43 51 115 51z" />
    <glyph glyph-name="uni0442.loclBGR" horiz-adv-x="770" 
d="M575 514q75 0 117.5 -49t42.5 -141v-324h-185v299q0 37 -32 37q-38 0 -38 -54v-282h-185v299q0 37 -32 37q-38 0 -38 -54v-282h-185v500h185v-39q45 53 115 53q74 0 110 -59q54 59 125 59z" />
    <glyph glyph-name="uni0446.loclBGR" horiz-adv-x="575" 
d="M525 166h45v-166v-114h-170v128q-36 15 -57 42q-20 -30 -59.5 -50t-88.5 -20q-72 0 -116 51.5t-44 143.5v319h185v-294q0 -42 42 -42q48 0 48 54v282h185v-304q0 -30 30 -30z" />
    <glyph glyph-name="uni0448.loclBGR" horiz-adv-x="770" 
d="M545 500h185v-500h-185v39q-45 -53 -115 -53q-74 0 -110 59q-54 -59 -125 -59q-75 0 -117.5 49t-42.5 141v324h185v-299q0 -37 32 -37q38 0 38 54v282h185v-299q0 -37 32 -37q38 0 38 54v282z" />
    <glyph glyph-name="uni0449.loclBGR" horiz-adv-x="810" 
d="M760 166h45v-166v-114h-170v128q-33 14 -53 37q-53 -65 -142 -65q-73 0 -114 56q-53 -56 -131 -56q-75 0 -117.5 49t-42.5 141v324h185v-299q0 -37 32 -37q38 0 38 54v282h185v-299q0 -37 32 -37q38 0 38 54v282h185v-304q0 -30 30 -30z" />
    <glyph glyph-name="uni044C.loclBGR" horiz-adv-x="495" 
d="M270 378q105 0 160 -54t55 -144q0 -86 -60 -141t-165 -55q-110 0 -167.5 54.5t-57.5 151.5v310h180v-122h55zM260 149q45 0 45 38q0 40 -45 40h-45v-32q0 -46 45 -46z" />
    <glyph glyph-name="uni044A.loclBGR" horiz-adv-x="570" 
d="M345 378q105 0 160 -54t55 -144q0 -86 -60 -141t-165 -55q-110 0 -167.5 54.5t-57.5 151.5v140h-110v170h170h120v-122h55zM335 149q45 0 45 38q0 40 -45 40h-45v-32q0 -46 45 -46z" />
    <glyph glyph-name="uni044E.loclBGR" horiz-adv-x="798" 
d="M511 514q113 0 191 -76t78 -188t-78 -188t-191 -76q-87 0 -153 48.5t-92 127.5h-41v-162h-185v700h185v-362h40q26 79 92 127.5t154 48.5zM511 162q37 0 60.5 24.5t23.5 63.5t-23.5 63.5t-60.5 24.5t-60.5 -24.5t-23.5 -63.5t23.5 -63.5t60.5 -24.5z" />
    <glyph glyph-name="uni0430.ss01" horiz-adv-x="606" 
d="M381 500h185v-500h-185v27q-47 -41 -124 -41q-102 0 -170.5 75.5t-68.5 188.5t68.5 188.5t170.5 75.5q77 0 124 -41v27zM292 160q40 0 64.5 25t24.5 65t-24.5 65t-64.5 25t-64.5 -25t-24.5 -65t24.5 -65t64.5 -25z" />
    <glyph glyph-name="uni0443.ss01" horiz-adv-x="535" 
d="M310 500h185v-517q0 -96 -65 -147.5t-158 -51.5t-158 51t-65 143h175q0 -37 43 -37t43 42v73q-43 -51 -115 -51t-116 51.5t-44 143.5v300h185v-275q0 -42 42 -42q48 0 48 54v263z" />
    <glyph glyph-name="zero.sinf" horiz-adv-x="410" 
d="M205 -174q-85 0 -137.5 58t-52.5 156t52.5 156t137.5 58t137.5 -58t52.5 -156t-52.5 -156t-137.5 -58zM205 -33q43 0 43 73t-43 73t-43 -73t43 -73z" />
    <glyph glyph-name="one.sinf" horiz-adv-x="279" 
d="M107 240h142v-400h-142v258l-97 -51v140z" />
    <glyph glyph-name="two.sinf" horiz-adv-x="351" 
d="M25 -160v102l140 131q27 25 27 40q0 19 -16 19q-18 0 -18 -29h-138q0 77 43 114t110 37t112 -34t45 -99q0 -61 -70 -124l-36 -32h107v-125h-306z" />
    <glyph glyph-name="three.sinf" horiz-adv-x="323" 
d="M232 80q81 -29 81 -112q0 -68 -44 -105t-110 -37t-110 37t-44 105h131q0 -19 23 -19t23 19q0 20 -23 20h-80v77l41 52h-99v123h267v-89z" />
    <glyph glyph-name="four.sinf" horiz-adv-x="366" 
d="M356 11v-120h-33v-51h-128v51h-190v120l110 229h147l-104 -229h37v66h128v-66h33z" />
    <glyph glyph-name="five.sinf" horiz-adv-x="330" 
d="M168 93q67 0 107 -32.5t40 -100.5q0 -64 -43.5 -99t-108.5 -35q-66 0 -109.5 35.5t-43.5 101.5h131q0 -19 22 -19q21 0 21 19q0 23 -21 23h-146l17 254h266v-123h-149l-1 -24h18z" />
    <glyph glyph-name="six.sinf" horiz-adv-x="344" 
d="M218 115q55 -12 85.5 -50t30.5 -92q0 -66 -43.5 -106.5t-118.5 -40.5t-118.5 40.5t-43.5 106.5q0 45 22 81l110 186h148zM172 -57q31 0 31 30t-31 30t-31 -30t31 -30z" />
    <glyph glyph-name="seven.sinf" horiz-adv-x="310" 
d="M0 240h300v-106l-107 -294h-145l101 277h-149v123z" />
    <glyph glyph-name="eight.sinf" horiz-adv-x="344" 
d="M275 49q59 -34 59 -99q0 -57 -43.5 -90.5t-118.5 -33.5t-118.5 33.5t-43.5 90.5q0 65 59 99q-45 31 -45 83q0 56 42 89t106 33t106 -33t42 -89q0 -52 -45 -83zM172 143q-25 0 -25 -23q0 -21 25 -21t25 21q0 23 -25 23zM172 -62q32 0 32 29q0 28 -32 28t-32 -28
q0 -29 32 -29z" />
    <glyph glyph-name="nine.sinf" horiz-adv-x="344" 
d="M334 107q0 -45 -22 -81l-110 -186h-148l72 125q-55 12 -85.5 50t-30.5 92q0 66 43.5 106.5t118.5 40.5t118.5 -40.5t43.5 -106.5zM172 137q-31 0 -31 -30t31 -30t31 30t-31 30z" />
    <glyph glyph-name="zero.tf" horiz-adv-x="600" 
d="M300 -16q-141 0 -218 99.5t-77 266.5t77 266.5t218 99.5t218 -99.5t77 -266.5t-77 -266.5t-218 -99.5zM300 178q95 0 95 172t-95 172t-95 -172t95 -172z" />
    <glyph glyph-name="one.tf" horiz-adv-x="600" 
d="M422 194h163v-194h-363h-197v194h197v297l-164 -86v209l164 86h200v-506z" />
    <glyph glyph-name="two.tf" horiz-adv-x="600" 
d="M32 0v146l268 237q32 29 45 48.5t13 42.5q0 19 -17 33.5t-46 14.5q-33 0 -50.5 -18.5t-17.5 -51.5h-200q0 129 80 196.5t193 67.5q104 0 181 -63.5t77 -176.5q0 -106 -104 -198l-94 -84h213v-194h-541z" />
    <glyph glyph-name="three.tf" horiz-adv-x="600" 
d="M415 415q76 -19 118 -68t42 -127q0 -117 -75.5 -176.5t-204.5 -59.5q-128 0 -204 63t-76 181h200q0 -50 80 -50t80 52q0 26 -19 38t-61 12h-121v116l102 110h-234v194h490v-154z" />
    <glyph glyph-name="four.tf" horiz-adv-x="600" 
d="M585 282v-180h-70v-102h-196v102h-314v180l213 418h227l-213 -418h87v108h196v-108h70z" />
    <glyph glyph-name="five.tf" horiz-adv-x="600" 
d="M310 449q126 0 198 -55.5t72 -173.5q0 -112 -77.5 -173t-202.5 -61t-202.5 62t-77.5 177h200q0 -45 80 -45t80 45q0 47 -80 47h-249l29 428h455v-194h-270l-3 -57h48z" />
    <glyph glyph-name="six.tf" horiz-adv-x="600" 
d="M355 484q107 -14 168.5 -81.5t61.5 -166.5q0 -111 -76.5 -181.5t-208.5 -70.5t-208.5 70.5t-76.5 181.5q0 80 39 138l1 2l2 2l218 322h225zM300 163q40 0 62.5 19.5t22.5 53.5t-22.5 53.5t-62.5 19.5t-62.5 -19.5t-22.5 -53.5t22.5 -53.5t62.5 -19.5z" />
    <glyph glyph-name="seven.tf" horiz-adv-x="600" 
d="M20 700h550v-164l-238 -536h-220l222 506h-314v194z" />
    <glyph glyph-name="eight.tf" horiz-adv-x="600" 
d="M482 366q100 -58 100 -169q0 -98 -73 -154.5t-209 -56.5t-209 56.5t-73 154.5q0 111 100 169q-76 51 -76 140q0 97 72 152.5t186 55.5t186 -55.5t72 -152.5q0 -89 -76 -140zM300 538q-78 0 -78 -51t78 -51t78 51t-78 51zM300 166q82 0 82 59t-82 59t-82 -59t82 -59z" />
    <glyph glyph-name="nine.tf" horiz-adv-x="600" 
d="M546 326l-1 -2l-2 -2l-218 -322h-225l145 216q-107 14 -168.5 81.5t-61.5 166.5q0 111 76.5 181.5t208.5 70.5t208.5 -70.5t76.5 -181.5q0 -80 -39 -138zM215 464q0 -34 22.5 -53.5t62.5 -19.5t62.5 19.5t22.5 53.5t-22.5 53.5t-62.5 19.5t-62.5 -19.5t-22.5 -53.5z" />
    <glyph glyph-name="zero.dnom" horiz-adv-x="410" 
d="M205 -14q-85 0 -137.5 58t-52.5 156t52.5 156t137.5 58t137.5 -58t52.5 -156t-52.5 -156t-137.5 -58zM205 127q43 0 43 73t-43 73t-43 -73t43 -73z" />
    <glyph glyph-name="one.dnom" horiz-adv-x="279" 
d="M107 400h142v-400h-142v258l-97 -51v140z" />
    <glyph glyph-name="two.dnom" horiz-adv-x="351" 
d="M25 0v102l140 131q27 25 27 40q0 19 -16 19q-18 0 -18 -29h-138q0 77 43 114t110 37t112 -34t45 -99q0 -61 -70 -124l-36 -32h107v-125h-306z" />
    <glyph glyph-name="three.dnom" horiz-adv-x="323" 
d="M232 240q81 -29 81 -112q0 -68 -44 -105t-110 -37t-110 37t-44 105h131q0 -19 23 -19t23 19q0 20 -23 20h-80v77l41 52h-99v123h267v-89z" />
    <glyph glyph-name="four.dnom" horiz-adv-x="366" 
d="M356 171v-120h-33v-51h-128v51h-190v120l110 229h147l-104 -229h37v66h128v-66h33z" />
    <glyph glyph-name="five.dnom" horiz-adv-x="330" 
d="M168 253q67 0 107 -32.5t40 -100.5q0 -64 -43.5 -99t-108.5 -35q-66 0 -109.5 35.5t-43.5 101.5h131q0 -19 22 -19q21 0 21 19q0 23 -21 23h-146l17 254h266v-123h-149l-1 -24h18z" />
    <glyph glyph-name="six.dnom" horiz-adv-x="344" 
d="M218 275q55 -12 85.5 -50t30.5 -92q0 -66 -43.5 -106.5t-118.5 -40.5t-118.5 40.5t-43.5 106.5q0 45 22 81l110 186h148zM172 103q31 0 31 30t-31 30t-31 -30t31 -30z" />
    <glyph glyph-name="seven.dnom" horiz-adv-x="310" 
d="M0 400h300v-106l-107 -294h-145l101 277h-149v123z" />
    <glyph glyph-name="eight.dnom" horiz-adv-x="344" 
d="M275 209q59 -34 59 -99q0 -57 -43.5 -90.5t-118.5 -33.5t-118.5 33.5t-43.5 90.5q0 65 59 99q-45 31 -45 83q0 56 42 89t106 33t106 -33t42 -89q0 -52 -45 -83zM172 303q-25 0 -25 -23q0 -21 25 -21t25 21q0 23 -25 23zM172 98q32 0 32 29q0 28 -32 28t-32 -28
q0 -29 32 -29z" />
    <glyph glyph-name="nine.dnom" horiz-adv-x="344" 
d="M329 267q0 -45 -22 -81l-110 -186h-148l72 125q-55 12 -85.5 50t-30.5 92q0 66 43.5 106.5t118.5 40.5t118.5 -40.5t43.5 -106.5zM167 297q-31 0 -31 -30t31 -30t31 30t-31 30z" />
    <glyph glyph-name="zero.numr" horiz-adv-x="410" 
d="M205 286q-85 0 -137.5 58t-52.5 156t52.5 156t137.5 58t137.5 -58t52.5 -156t-52.5 -156t-137.5 -58zM205 427q43 0 43 73t-43 73t-43 -73t43 -73z" />
    <glyph glyph-name="one.numr" horiz-adv-x="279" 
d="M107 700h142v-400h-142v258l-97 -51v140z" />
    <glyph glyph-name="two.numr" horiz-adv-x="351" 
d="M25 300v102l140 131q27 25 27 40q0 19 -16 19q-18 0 -18 -29h-138q0 77 43 114t110 37t112 -34t45 -99q0 -61 -70 -124l-36 -32h107v-125h-306z" />
    <glyph glyph-name="three.numr" horiz-adv-x="323" 
d="M232 540q81 -29 81 -112q0 -68 -44 -105t-110 -37t-110 37t-44 105h131q0 -19 23 -19t23 19q0 20 -23 20h-80v77l41 52h-99v123h267v-89z" />
    <glyph glyph-name="four.numr" horiz-adv-x="366" 
d="M356 471v-120h-33v-51h-128v51h-190v120l110 229h147l-104 -229h37v66h128v-66h33z" />
    <glyph glyph-name="five.numr" horiz-adv-x="330" 
d="M168 553q67 0 107 -32.5t40 -100.5q0 -64 -43.5 -99t-108.5 -35q-66 0 -109.5 35.5t-43.5 101.5h131q0 -19 22 -19q21 0 21 19q0 23 -21 23h-146l17 254h266v-123h-149l-1 -24h18z" />
    <glyph glyph-name="six.numr" horiz-adv-x="344" 
d="M218 575q55 -12 85.5 -50t30.5 -92q0 -66 -43.5 -106.5t-118.5 -40.5t-118.5 40.5t-43.5 106.5q0 45 22 81l110 186h148zM172 403q31 0 31 30t-31 30t-31 -30t31 -30z" />
    <glyph glyph-name="seven.numr" horiz-adv-x="310" 
d="M0 700h300v-106l-107 -294h-145l101 277h-149v123z" />
    <glyph glyph-name="eight.numr" horiz-adv-x="344" 
d="M275 509q59 -34 59 -99q0 -57 -43.5 -90.5t-118.5 -33.5t-118.5 33.5t-43.5 90.5q0 65 59 99q-45 31 -45 83q0 56 42 89t106 33t106 -33t42 -89q0 -52 -45 -83zM172 603q-25 0 -25 -23q0 -21 25 -21t25 21q0 23 -25 23zM172 398q32 0 32 29q0 28 -32 28t-32 -28
q0 -29 32 -29z" />
    <glyph glyph-name="nine.numr" horiz-adv-x="344" 
d="M329 567q0 -45 -22 -81l-110 -186h-148l72 125q-55 12 -85.5 50t-30.5 92q0 66 43.5 106.5t118.5 40.5t118.5 -40.5t43.5 -106.5zM167 597q-31 0 -31 -30t31 -30t31 30t-31 30z" />
    <glyph glyph-name="zero.sups" horiz-adv-x="410" 
d="M205 446q-85 0 -137.5 58t-52.5 156t52.5 156t137.5 58t137.5 -58t52.5 -156t-52.5 -156t-137.5 -58zM205 587q43 0 43 73t-43 73t-43 -73t43 -73z" />
    <glyph glyph-name="one.sups" horiz-adv-x="279" 
d="M107 860h142v-400h-142v258l-97 -51v140z" />
    <glyph glyph-name="two.sups" horiz-adv-x="351" 
d="M25 460v102l140 131q27 25 27 40q0 19 -16 19q-18 0 -18 -29h-138q0 77 43 114t110 37t112 -34t45 -99q0 -61 -70 -124l-36 -32h107v-125h-306z" />
    <glyph glyph-name="three.sups" horiz-adv-x="323" 
d="M232 700q81 -29 81 -112q0 -68 -44 -105t-110 -37t-110 37t-44 105h131q0 -19 23 -19t23 19q0 20 -23 20h-80v77l41 52h-99v123h267v-89z" />
    <glyph glyph-name="four.sups" horiz-adv-x="366" 
d="M356 631v-120h-33v-51h-128v51h-190v120l110 229h147l-104 -229h37v66h128v-66h33z" />
    <glyph glyph-name="five.sups" horiz-adv-x="330" 
d="M168 713q67 0 107 -32.5t40 -100.5q0 -64 -43.5 -99t-108.5 -35q-66 0 -109.5 35.5t-43.5 101.5h131q0 -19 22 -19q21 0 21 19q0 23 -21 23h-146l17 254h266v-123h-149l-1 -24h18z" />
    <glyph glyph-name="six.sups" horiz-adv-x="344" 
d="M218 735q55 -12 85.5 -50t30.5 -92q0 -66 -43.5 -106.5t-118.5 -40.5t-118.5 40.5t-43.5 106.5q0 45 22 81l110 186h148zM172 563q31 0 31 30t-31 30t-31 -30t31 -30z" />
    <glyph glyph-name="seven.sups" horiz-adv-x="310" 
d="M0 860h300v-106l-107 -294h-145l101 277h-149v123z" />
    <glyph glyph-name="eight.sups" horiz-adv-x="344" 
d="M275 669q59 -34 59 -99q0 -57 -43.5 -90.5t-118.5 -33.5t-118.5 33.5t-43.5 90.5q0 65 59 99q-45 31 -45 83q0 56 42 89t106 33t106 -33t42 -89q0 -52 -45 -83zM172 763q-25 0 -25 -23q0 -21 25 -21t25 21q0 23 -25 23zM172 558q32 0 32 29q0 28 -32 28t-32 -28
q0 -29 32 -29z" />
    <glyph glyph-name="nine.sups" horiz-adv-x="344" 
d="M329 727q0 -45 -22 -81l-110 -186h-148l72 125q-55 12 -85.5 50t-30.5 92q0 66 43.5 106.5t118.5 40.5t118.5 -40.5t43.5 -106.5zM167 757q-31 0 -31 -30t31 -30t31 30t-31 30z" />
    <glyph glyph-name="cent.tf" horiz-adv-x="600" 
d="M314 264q25 0 44 12.5t25 33.5h190q-10 -97 -84 -160.5t-175 -63.5q-34 0 -62 7l-30 -93h-65l36 112q-67 33 -106.5 96t-39.5 142q0 113 76 188.5t191 75.5q20 0 40 -3l29 89h65l-34 -105q66 -25 109 -79.5t50 -125.5h-191q-6 21 -24 33l-51 -159h7zM232 350
q0 -35 19 -57l46 141q-29 -5 -47 -28t-18 -56z" />
    <glyph glyph-name="dollar.tf" horiz-adv-x="600" 
d="M580 204q0 -100 -66.5 -156.5t-178.5 -62.5v-85h-70v86q-114 9 -179.5 68.5t-65.5 173.5h195q0 -32 12 -48t38 -22v113l-4 1q-40 13 -65.5 22.5t-61 28.5t-56 40.5t-36 56t-15.5 76.5q0 99 64.5 155.5t173.5 63.5v85h70v-86q104 -10 165.5 -67.5t61.5 -164.5h-185
q0 49 -42 60v-105q38 -11 41 -12q43 -15 72.5 -29t63 -39.5t51 -63.5t17.5 -89zM223 505q0 -29 42 -46v85q-42 -7 -42 -39zM335 157q47 7 47 39q0 34 -47 52v-91z" />
    <glyph glyph-name="Euro.tf" horiz-adv-x="600" 
d="M394 274h191q-2 -132 -72 -211t-188 -79q-108 0 -179 70t-92 192h-49v84h40v20v18h-40v84h48q21 123 92 193.5t180 70.5q116 0 186 -76.5t73 -205.5h-191q-2 43 -21 65.5t-47 22.5q-50 0 -69 -70h99v-84h-110v-18v-20h110v-84h-98q19 -68 68 -68q30 0 49 24.5t20 71.5z
" />
    <glyph glyph-name="florin.tf" horiz-adv-x="600" 
d="M590 527q-56 14 -92.5 0t-45.5 -51l-9 -38h107v-176h-147l-68 -292q-13 -56 -46.5 -96t-77 -58t-96.5 -23t-105 8v180q110 -27 129 52l57 229h-106v176h150l25 100q28 110 120 151.5t205 17.5v-180z" />
    <glyph glyph-name="uni20BD.tf" horiz-adv-x="600" 
d="M335 233h-70v-39h190v-100h-190v-93h-200v93h-55v100h55v39h-55v180h55v288h200h70q109 0 182 -62.5t73 -168.5q0 -118 -71 -177.5t-184 -59.5zM265 507v-94h70q55 0 55 47t-55 47h-70z" />
    <glyph glyph-name="sterling.tf" horiz-adv-x="600" 
d="M267 194h313v-194h-570v194h57v61h-47v140h47v97q0 108 74 166t176 58t176 -58t74 -166v-50h-200v40q0 46 -50 46t-50 -46v-87h203v-140h-203v-61z" />
    <glyph glyph-name="yen.tf" horiz-adv-x="600" 
d="M600 700l-166 -323h116v-100h-150v-42h150v-100h-150v-135h-200v135h-150v100h150v42h-150v100h116l-166 323h222l78 -190l78 190h222z" />
    <glyph glyph-name="brevecy" horiz-adv-x="430" 
d="M40 549v150h350v-150h-350z" />
    </font>
</defs>
</svg>
