<?xml version="1.0" standalone="no"?>
<!DOCTYPE svg PUBLIC "-//W3C//DTD SVG 1.1//EN" "http://www.w3.org/Graphics/SVG/1.1/DTD/svg11.dtd" >
<svg>
<metadata>
Created by FontForge 20090622 at Thu Dec 20 17:16:14 2018
 By deploy user
Copyright &#194;&#169; 2015 by Radomir Tinkov. All rights reserved.
</metadata>
<defs>
<font id="Qanelas-BlackItalic" horiz-adv-x="536" >
  <font-face 
    font-family="Qanelas Black Italic"
    font-weight="900"
    font-style="italic"
    font-stretch="normal"
    units-per-em="1000"
    panose-1="0 0 10 0 0 0 0 0 0 0"
    ascent="800"
    descent="-200"
    x-height="500"
    cap-height="700"
    bbox="-414 -277 1215.38 997"
    underline-thickness="50"
    underline-position="-50"
    slope="-10"
    unicode-range="U+0020-U+FB02"
  />
<missing-glyph horiz-adv-x="500" 
d="M410 800v-1000h-317v1000h317zM333 733h-165v-33h65v-37h-66v-33h166v33h-66v37h66v33zM267 604h-100v-104h166v34h-66v70zM233 570v-36h-33v36h33zM333 473h-166v-33h66v-37h-66v-33h100v70h66v33zM333 413h-33v-66h-133v-34h166v100zM333 291h-100v-56h34v23h33v-47
h-100v80h-33v-113h166v113zM333 118h-166v-113h166v113zM300 85v-47h-100v47h100zM333 -18h-166v-33h70l-70 -47v-33h166v33h-102l70 47h32v33z" />
    <glyph glyph-name="fi" unicode="fi" horiz-adv-x="557" 
d="M553 500l-88 -500h-166l60 341h-114l-60 -341h-166l60 341h-63l28 159h63q19 112 90 163.5t200 51.5q65 0 126 -15l-25 -145q-52 9 -108 9q-105 0 -117 -64h280z" />
    <glyph glyph-name="fl" unicode="fl" horiz-adv-x="557" 
d="M397 715q90 0 190 -20l-122 -695h-166l100 574h-30q-83 0 -96 -74h66l-28 -159h-66l-60 -341h-166l60 341h-63l28 159h63q19 112 90 163.5t200 51.5z" />
    <glyph glyph-name="f_f" unicode="ff" horiz-adv-x="596" 
d="M654 571q-84 6 -97 -61l-1 -10h85l-28 -159h-85l-61 -341h-166l60 341h-62h-54l-60 -341h-166l60 341h-63l28 159h63q40 230 290 215l-27 -154q-85 6 -97 -61h86h30l2 10q40 230 290 215z" />
    <glyph glyph-name="f_f_i" unicode="ffi" horiz-adv-x="839" 
d="M835 500l-88 -500h-166l60 341h-113l-61 -341h-166l60 341h-62h-54l-60 -341h-166l60 341h-63l28 159h63q20 111 92.5 166.5t197.5 48.5l-27 -154q-85 6 -97 -61h86h30l2 10q38 215 285 215q70 0 132 -15l-26 -145q-54 9 -108 9q-105 0 -117 -64l-1 -10h279z" />
    <glyph glyph-name="f_f_l" unicode="ffl" horiz-adv-x="839" 
d="M681 725q90 0 190 -20l-124 -705h-166l103 584h-30q-82 0 -97 -74l-1 -10h65l-28 -159h-65l-61 -341h-166l60 341h-62h-54l-60 -341h-166l60 341h-63l28 159h63q40 230 290 215l-27 -154q-85 6 -97 -61h86h30l2 10q19 111 90 163t200 52z" />
    <glyph glyph-name=".notdef" horiz-adv-x="500" 
d="M410 800v-1000h-317v1000h317zM333 733h-165v-33h65v-37h-66v-33h166v33h-66v37h66v33zM267 604h-100v-104h166v34h-66v70zM233 570v-36h-33v36h33zM333 473h-166v-33h66v-37h-66v-33h100v70h66v33zM333 413h-33v-66h-133v-34h166v100zM333 291h-100v-56h34v23h33v-47
h-100v80h-33v-113h166v113zM333 118h-166v-113h166v113zM300 85v-47h-100v47h100zM333 -18h-166v-33h70l-70 -47v-33h166v33h-102l70 47h32v33z" />
    <glyph glyph-name=".null" horiz-adv-x="0" 
 />
    <glyph glyph-name="nonmarkingreturn" horiz-adv-x="333" 
 />
    <glyph glyph-name="space" unicode=" " horiz-adv-x="227" 
 />
    <glyph glyph-name="exclam" unicode="!" horiz-adv-x="294" 
d="M79 255l10 245l35 200h204l-35 -200l-76 -245h-138zM14 0l31 179h179l-32 -179h-178z" />
    <glyph glyph-name="quotedbl" unicode="&#x22;" horiz-adv-x="442" 
d="M98 441l26 259h154l-66 -259h-114zM297 441l25 259h154l-65 -259h-114z" />
    <glyph glyph-name="numbersign" unicode="#" horiz-adv-x="631" 
d="M616 385h-100l-25 -70h101l-40 -120h-102l-50 -145h-128l50 145h-82l-50 -145h-128l50 145h-102l40 120h103l24 70h-102l40 120h103l50 145h128l-50 -145h83l49 145h128l-49 -145h99zM363 315l25 70h-83l-24 -70h82z" />
    <glyph glyph-name="dollar" unicode="$" horiz-adv-x="551" 
d="M563 481h-170q9 53 -29 66l-22 -122q1 -1 3 -1t3 -1l34.5 -14t35 -16t33 -19.5t29.5 -24t24.5 -29.5t16.5 -36t7.5 -43l-3.5 -51q-17 -97 -88.5 -148.5t-172.5 -56.5l-15 -85h-70l16 88q-97 12 -149.5 71.5t-34.5 164.5h176q-10 -59 37 -72l22 125q-41 16 -70 31.5
t-60 42.5t-43 67t-3 92q17 96 87 147.5t166 56.5l15 86h70l-15 -88q88 -13 138 -71.5t32 -159.5zM247 504q-5 -31 30 -52l17 97q-40 -9 -47 -45zM348 196q5 35 -37 55l-17 -100q45 8 54 45z" />
    <glyph glyph-name="percent" unicode="%" horiz-adv-x="863" 
d="M242 356q-79 0 -123 54.5t-33 126.5q12 75 69.5 126.5t141.5 51.5q80 0 124 -57.5t30 -132.5q-15 -72 -71.5 -120.5t-137.5 -48.5zM61 0l623 700h152l-624 -700h-151zM260 488q21 0 36.5 14t18.5 34q4 20 -6.5 34t-31.5 14q-19 0 -34.5 -14t-19.5 -34t6.5 -34t30.5 -14z
M603 -14q-80 0 -124 55.5t-32 128.5q13 74 70 124.5t140 50.5q80 0 124 -57t30 -131q-14 -72 -70.5 -121.5t-137.5 -49.5zM621 117q20 0 35.5 14.5t19.5 33.5q3 21 -7 34.5t-31 13.5q-20 0 -35.5 -14t-18.5 -34q-4 -20 6.5 -34t30.5 -14z" />
    <glyph glyph-name="ampersand" unicode="&#x26;" horiz-adv-x="742" 
d="M688 349q-21 -124 -106 -221l105 -128h-199l-28 32q-91 -47 -197 -47q-121 0 -186.5 64t-48.5 160q21 114 139 180q-33 64 -22 126q16 93 89 146.5t180 53.5q104 0 168 -62t49 -172h-179q5 30 -10.5 47t-47.5 17q-28 0 -48 -14t-25 -38q-7 -40 40 -98l116 -140
q24 44 33 94h178zM292 140q34 0 65 11l-108 126q-34 -27 -39 -62q-6 -33 15 -54t67 -21z" />
    <glyph glyph-name="quotesingle" unicode="'" horiz-adv-x="243" 
d="M98 441l26 259h154l-66 -259h-114z" />
    <glyph glyph-name="parenleft" unicode="(" horiz-adv-x="327" 
d="M96 -100q-34 103 -42.5 223t11.5 242q40 229 187 435h167q-149 -219 -189 -450t30 -450h-164z" />
    <glyph glyph-name="parenright" unicode=")" horiz-adv-x="326" 
d="M266 800q34 -103 42.5 -223t-11.5 -242q-40 -229 -187 -435h-167q149 219 189 450t-30 450h164z" />
    <glyph glyph-name="asterisk" unicode="*" horiz-adv-x="405" 
d="M422 605l-17 -96l-89 10l44 -70l-85 -50l-28 82l-57 -82l-75 50l68 70l-92 -10l17 96l89 -10l-44 70l85 50l28 -82l57 82l75 -50l-69 -70z" />
    <glyph glyph-name="plus" unicode="+" horiz-adv-x="560" 
d="M551 429l-28 -158h-160l-28 -160h-159l28 160h-160l29 158h159l29 160h158l-28 -160h160z" />
    <glyph glyph-name="comma" unicode="," horiz-adv-x="289" 
d="M43 179h178l-31 -179q-27 -156 -206 -156l12 68q47 0 71 21.5t32 66.5h-88z" />
    <glyph glyph-name="hyphen" unicode="-" horiz-adv-x="500" 
d="M50 222l28 158h390l-28 -158h-390z" />
    <glyph glyph-name="period" unicode="." horiz-adv-x="289" 
d="M11 0l32 179h178l-31 -179h-179z" />
    <glyph glyph-name="slash" unicode="/" horiz-adv-x="520" 
d="M38 -100h-75l554 900h75z" />
    <glyph glyph-name="zero" unicode="0" horiz-adv-x="630" 
d="M276 -15q-137 0 -199 104.5t-33 270.5t118.5 260.5t226.5 94.5t199 -104.5t33 -270.5q-30 -166 -119 -260.5t-226 -94.5zM299 159q109 0 144 191q33 191 -77 191t-143 -191q-35 -191 76 -191z" />
    <glyph glyph-name="one" unicode="1" horiz-adv-x="409" 
d="M244 700h179l-123 -700h-179l90 510l-175 -87l33 190z" />
    <glyph glyph-name="two" unicode="2" horiz-adv-x="541" 
d="M-19 0l24 133l275 241q81 70 88 110q5 26 -7.5 41.5t-39.5 15.5q-65 0 -77 -65h-179q21 119 98 179t173 60q99 0 164.5 -64t45.5 -176q-16 -97 -137 -201l-120 -101h213l-31 -173h-490z" />
    <glyph glyph-name="three" unicode="3" horiz-adv-x="548" 
d="M566 700l-24 -141l-140 -148q60 -25 92.5 -78.5t20.5 -124.5q-20 -111 -98.5 -167t-187.5 -56q-111 0 -178 63t-48 176h177q-5 -30 12 -47.5t56 -17.5q78 0 90 66q5 31 -11 48t-56 17h-100l20 110l121 129h-230l29 171h455z" />
    <glyph glyph-name="four" unicode="4" horiz-adv-x="588" 
d="M584 270l-29 -163h-70l-19 -107h-178l19 107h-317l29 163l283 430h204l-285 -430h115l23 131h178l-23 -131h70z" />
    <glyph glyph-name="five" unicode="5" horiz-adv-x="555" 
d="M547 529h-250l-20 -77h46q102 0 163.5 -64t41.5 -178q-19 -110 -99 -167t-189 -57q-108 0 -176 63.5t-48 172.5h178q-5 -28 12.5 -45t55.5 -17q37 0 60.5 17t28.5 45q5 30 -12.5 47t-54.5 17h-228l101 414h420z" />
    <glyph glyph-name="six" unicode="6" horiz-adv-x="560" 
d="M364 474q93 -17 142.5 -87.5t33.5 -164.5q-20 -109 -99 -173t-197 -64q-122 0 -186 73.5t-44 183.5q15 84 67 142l262 316h209zM362 232q7 40 -13 62t-57 22q-38 0 -65.5 -22t-34.5 -62t12.5 -61.5t57.5 -21.5q37 0 65 22t35 61z" />
    <glyph glyph-name="seven" unicode="7" horiz-adv-x="490" 
d="M80 700h473l-25 -148l-309 -552h-200l295 527h-265z" />
    <glyph glyph-name="eight" unicode="8" horiz-adv-x="569" 
d="M567 501q-16 -91 -97 -140q85 -65 65 -173q-17 -97 -90.5 -149.5t-196.5 -52.5q-126 0 -188.5 61t-44.5 159q20 110 125 165q-63 54 -47 143q17 95 90 147.5t176 52.5q101 0 163 -58t45 -155zM259 492q-5 -28 10.5 -44t47.5 -16q30 0 52.5 16.5t26.5 43.5q5 27 -11 43.5
t-47 16.5q-32 0 -53 -16.5t-26 -43.5zM363 222q5 34 -14 53.5t-56 19.5q-38 0 -64 -19.5t-32 -53.5q-7 -33 12.5 -52.5t57.5 -19.5q37 0 63 19.5t33 52.5z" />
    <glyph glyph-name="nine" unicode="9" horiz-adv-x="560" 
d="M351 715q122 0 186 -73.5t44 -183.5q-15 -84 -67 -142l-262 -316h-209l187 226q-92 17 -141.5 87.5t-33.5 164.5q20 109 99 173t197 64zM233 468q-7 -40 13 -62t57 -22q38 0 65.5 22t34.5 62t-12.5 61.5t-57.5 21.5q-37 0 -65 -22t-35 -61z" />
    <glyph glyph-name="colon" unicode=":" horiz-adv-x="289" 
d="M68 321l31 179h179l-31 -179h-179zM11 0l32 179h178l-31 -179h-179z" />
    <glyph glyph-name="semicolon" unicode=";" horiz-adv-x="289" 
d="M99 500h179l-31 -179h-179zM11 0l32 179h178l-31 -179q-27 -156 -206 -156l12 68q47 0 71 21.5t32 66.5h-88z" />
    <glyph glyph-name="less" unicode="&#x3c;" horiz-adv-x="521" 
d="M551 619l-33 -181l-287 -97l254 -97l-30 -163l-415 195l26 148z" />
    <glyph glyph-name="equal" unicode="=" horiz-adv-x="511" 
d="M58 380l29 159h439l-29 -159h-439zM20 161l28 159h439l-28 -159h-439z" />
    <glyph glyph-name="greater" unicode="&#x3e;" horiz-adv-x="521" 
d="M101 619l415 -195l-26 -148l-485 -195l33 181l288 97l-254 97z" />
    <glyph glyph-name="question" unicode="?" horiz-adv-x="551" 
d="M179 255q6 39 27 71.5t47.5 53.5t52.5 39t45 38t23 41q4 22 -10 34.5t-45 12.5q-72 0 -83 -64h-174q19 113 98 173.5t187 60.5q63 0 114 -25t78 -74.5t16 -112.5q-7 -41 -30 -75.5t-51 -57t-55 -41.5t-47 -37.5t-23 -36.5h-170zM130 0l31 179h179l-32 -179h-178z" />
    <glyph glyph-name="at" unicode="@" horiz-adv-x="769" 
d="M449 612q63 0 117 -20.5t89.5 -55.5t60 -80.5t30 -95t-1.5 -99.5q-19 -106 -71.5 -160.5t-132.5 -54.5q-47 0 -80 21t-44 57q-42 -39 -101 -39q-65 0 -99.5 51t-21.5 123q13 70 58.5 113t105.5 43q56 0 89 -43l6 31h136l-42 -236q-11 -63 40 -63q85 0 113 161
q23 128 -51.5 217t-204.5 89q-135 0 -241 -90t-130 -226q-24 -139 56.5 -232.5t223.5 -93.5q86 0 156 22l-8 -43q-68 -20 -154 -20q-161 0 -253.5 107t-64.5 264q27 152 145 252.5t275 100.5zM369 198q21 0 36 14.5t20 37.5t-5.5 37.5t-32.5 14.5t-37 -14.5t-20 -37.5
q-4 -23 7 -37.5t32 -14.5z" />
    <glyph glyph-name="A" unicode="A" horiz-adv-x="660" 
d="M430 0l-10 101h-225l-47 -101h-197l351 700h214l105 -700h-191zM267 255h137l-24 242z" />
    <glyph glyph-name="B" unicode="B" horiz-adv-x="686" 
d="M578 418q48 -31 70 -85.5t11 -119.5q-17 -97 -87 -155t-177 -58h-344h-40l123 700h179h121q89 0 145.5 -58.5t41.5 -141.5q-9 -46 -43 -82zM400 538h-115l-16 -91h146q24 17 27 42q4 21 -7.5 35t-34.5 14zM483 231q5 31 -12 50t-48 19h-180l-25 -138h179q35 0 57.5 19
t28.5 50z" />
    <glyph glyph-name="C" unicode="C" horiz-adv-x="752" 
d="M355 -15q-156 0 -246 110t-62 265q27 156 143 255.5t277 99.5q130 0 218 -82t86 -202h-186q-5 50 -44 79.5t-97 29.5q-83 0 -143.5 -52.5t-75.5 -137.5q-15 -84 26.5 -137t125.5 -53q59 0 108.5 29.5t71.5 79.5h186q-41 -128 -148 -206t-240 -78z" />
    <glyph glyph-name="D" unicode="D" horiz-adv-x="729" 
d="M439 700q138 0 221 -106t57 -254q-27 -150 -137 -245t-264 -95h-250h-55l123 700h184h121zM543 353q13 79 -24 126.5t-110 47.5h-122l-62 -354h116q76 0 131.5 49.5t70.5 130.5z" />
    <glyph glyph-name="E" unicode="E" horiz-adv-x="512" 
d="M529 532h-246l-17 -99h221l-28 -159h-221l-18 -106h250l-29 -168h-375h-55l123 700h179h246z" />
    <glyph glyph-name="F" unicode="F" horiz-adv-x="500" 
d="M524 527h-241l-22 -124h236l-30 -173h-237l-40 -230h-179l123 700h179h241z" />
    <glyph glyph-name="G" unicode="G" horiz-adv-x="779" 
d="M423 385h340l-13 -75l-55 -310h-159l10 59q-80 -74 -209 -74q-150 0 -234 110t-56 265q27 156 143 255.5t275 99.5q125 0 214 -76t96 -182h-188q-12 36 -50 59.5t-92 23.5q-84 0 -144.5 -52.5t-75.5 -137.5q-16 -91 25.5 -145.5t124.5 -54.5q118 0 173 86h-151z" />
    <glyph glyph-name="H" unicode="H" horiz-adv-x="645" 
d="M490 700h178l-123 -700h-178l48 274h-177l-48 -274h-179l123 700h179l-45 -254h177z" />
    <glyph glyph-name="I" unicode="I" horiz-adv-x="289" 
d="M134 700h179l-123 -700h-179z" />
    <glyph glyph-name="J" unicode="J" horiz-adv-x="545" 
d="M218 -15q-107 0 -169.5 62.5t-44.5 169.5l4 22h179l-4 -22q-5 -27 9 -42.5t46 -15.5q67 0 79 69l83 472h178l-85 -485q-20 -116 -93 -173t-182 -57z" />
    <glyph glyph-name="K" unicode="K" horiz-adv-x="631" 
d="M711 700l-298 -348l178 -352h-185l-160 319l-56 -319h-179l123 700h179l-50 -284l239 284h209z" />
    <glyph glyph-name="L" unicode="L" horiz-adv-x="470" 
d="M220 173h231l-30 -173h-382h-28l123 700h179z" />
    <glyph glyph-name="M" unicode="M" horiz-adv-x="839" 
d="M862 700l-123 -700h-178l72 412l-176 -312h-128l-67 312l-72 -412h-179l123 700h179h25l84 -386l219 386h221z" />
    <glyph glyph-name="N" unicode="N" horiz-adv-x="655" 
d="M500 700h178l-123 -700h-138l-163 362l-64 -362h-179l123 700h139l163 -362z" />
    <glyph glyph-name="O" unicode="O" horiz-adv-x="790" 
d="M360 -15q-106 0 -185 53t-112 139t-16 184q25 150 142 252t278 102q159 0 247.5 -111.5t63.5 -262.5q-26 -151 -141 -253.5t-277 -102.5zM376 160q81 0 145.5 53.5t78.5 136.5q15 83 -29 136.5t-125 53.5t-143.5 -53.5t-77.5 -136.5q-15 -84 27.5 -137t123.5 -53z" />
    <glyph glyph-name="P" unicode="P" horiz-adv-x="592" 
d="M405 700q99 0 161.5 -74.5t44.5 -180.5q-19 -110 -96.5 -172.5t-195.5 -62.5h-92l-37 -210h-179l123 700h179h92zM433 455q6 33 -10.5 53.5t-46.5 20.5h-93l-26 -149h92q32 0 55.5 21t28.5 54z" />
    <glyph glyph-name="Q" unicode="Q" horiz-adv-x="795" 
d="M467 715q159 0 247.5 -111.5t63.5 -262.5q-22 -134 -116 -230l47 -68l-138 -97l-48 71q-76 -32 -163 -32q-104 0 -182.5 53t-113 139.5t-17.5 183.5q25 150 142 252t278 102zM504 340l57 -83q30 41 39 93q15 83 -29 136.5t-125 53.5t-143.5 -53.5t-77.5 -136.5
q-15 -84 27.5 -137t123.5 -53q25 0 45 4l-55 79z" />
    <glyph glyph-name="R" unicode="R" horiz-adv-x="630" 
d="M614 448q-26 -136 -152 -194l144 -254h-193l-126 226h-57l-40 -226h-179l124 700h178h86q104 0 169 -74t46 -178zM284 535l-27 -153h92q33 -1 56.5 20t29.5 56t-11.5 56t-53.5 21h-86z" />
    <glyph glyph-name="S" unicode="S" horiz-adv-x="550" 
d="M243 -15q-116 0 -184.5 61.5t-47.5 177.5h178q-6 -36 12.5 -52.5t64.5 -16.5q72 0 81 48q4 24 -20 38.5t-77 32.5q-41 14 -71.5 30t-62 43.5t-44.5 69t-4 93.5q18 102 93 153.5t179 51.5q105 0 170.5 -61t45.5 -173h-178q11 64 -61 64q-30 0 -48.5 -12.5t-21.5 -32.5
q-3 -14 3 -25t22.5 -20.5t30 -15.5t41.5 -16q41 -14 71.5 -30.5t61.5 -43.5t43.5 -67.5t3.5 -91.5q-18 -103 -93 -154t-188 -51z" />
    <glyph glyph-name="T" unicode="T" horiz-adv-x="500" 
d="M571 700l-30 -173h-153l-93 -527h-178l92 527h-153l31 173h331h153z" />
    <glyph glyph-name="U" unicode="U" horiz-adv-x="621" 
d="M269 -15q-115 0 -181 66.5t-45 183.5l82 465h179l-82 -458q-14 -83 71 -83q88 0 102 83l81 458h178l-85 -485q-20 -117 -99.5 -173.5t-200.5 -56.5z" />
    <glyph glyph-name="V" unicode="V" horiz-adv-x="640" 
d="M169 0l-95 700h186l45 -492l217 492h202l-341 -700h-214z" />
    <glyph glyph-name="W" unicode="W" horiz-adv-x="900" 
d="M790 700h194l-319 -700h-179l-29 289l-131 -289h-179l-73 700h180l35 -447l141 313l-14 134h160l34 -434z" />
    <glyph glyph-name="X" unicode="X" horiz-adv-x="622" 
d="M688 700l-259 -349l143 -351h-193l-75 182l-135 -182h-208l269 363l-138 337h194l69 -169l125 169h208z" />
    <glyph glyph-name="Y" unicode="Y" horiz-adv-x="631" 
d="M710 700l-296 -396l-53 -304h-179l54 305l-157 395h190l76 -225l153 225h212z" />
    <glyph glyph-name="Z" unicode="Z" horiz-adv-x="542" 
d="M591 700l-23 -138l-313 -389h251l-30 -173h-487l24 138l313 389h-240l31 173h474z" />
    <glyph glyph-name="bracketleft" unicode="[" horiz-adv-x="309" 
d="M379 641h-98l-103 -582h98l-29 -159h-194h-70l159 900h167h97z" />
    <glyph glyph-name="backslash" unicode="\" horiz-adv-x="520" 
d="M365 -100l-243 900h68l243 -900h-68z" />
    <glyph glyph-name="bracketright" unicode="]" horiz-adv-x="309" 
d="M361 800l-159 -900h-166h-98l28 159h98l103 582h-98l28 159h264z" />
    <glyph glyph-name="asciicircum" unicode="^" horiz-adv-x="580" 
d="M428 700l138 -354h-174l-51 158l-110 -158h-184l263 354h118z" />
    <glyph glyph-name="underscore" unicode="_" horiz-adv-x="515" 
d="M-52 -186l28 158h465l-28 -158h-465z" />
    <glyph glyph-name="grave" unicode="`" horiz-adv-x="314" 
d="M348 555l-61 145h-188l95 -145h154z" />
    <glyph glyph-name="a" unicode="a" horiz-adv-x="514" 
d="M303 514q86 0 142.5 -55.5t41.5 -143.5l-56 -315h-160l4 24q-47 -38 -120 -38t-116.5 45.5t-30.5 120.5q13 74 65.5 110t123.5 36q70 0 120 -39l9 51q8 56 -44 56q-26 0 -41.5 -12t-18.5 -31h-160q16 92 82.5 141.5t158.5 49.5zM173 143q-4 -21 9.5 -34t41.5 -13
q29 0 48.5 12.5t23.5 32.5q4 22 -12 34.5t-44 12.5q-60 0 -67 -45z" />
    <glyph glyph-name="b" unicode="b" horiz-adv-x="615" 
d="M389 514q104 0 161 -81.5t39 -192.5q-18 -107 -92.5 -180.5t-180.5 -73.5q-92 0 -137 61l-9 -47h-166l123 700h166l-40 -230q57 44 136 44zM423 250q8 48 -15.5 77.5t-68.5 29.5q-48 0 -82.5 -29t-42.5 -78q-8 -48 16.5 -77.5t70.5 -29.5q47 0 80.5 29t41.5 78z" />
    <glyph glyph-name="c" unicode="c" horiz-adv-x="559" 
d="M537 199q-28 -98 -105.5 -155.5t-177.5 -57.5q-114 0 -181 81t-47 193t103.5 183t198.5 71q97 0 163.5 -63t63.5 -150h-174q-3 24 -22.5 37.5t-48.5 13.5q-43 0 -76.5 -28.5t-40.5 -73.5q-8 -45 15 -73.5t66 -28.5q65 0 90 51h173z" />
    <glyph glyph-name="d" unicode="d" horiz-adv-x="616" 
d="M481 700h166l-123 -700h-166l5 30q-57 -44 -137 -44q-112 0 -166 81.5t-34 193.5q19 108 95 180.5t183 72.5q89 0 134 -59zM278 143q45 0 79 28t44 74l1 9q7 47 -16.5 75t-69.5 28q-47 0 -81.5 -29.5t-42.5 -77.5q-8 -49 15.5 -78t70.5 -29z" />
    <glyph glyph-name="e" unicode="e" horiz-adv-x="569" 
d="M328 514q107 0 172 -77.5t45 -185.5q-7 -35 -17 -62h-156h-187q12 -75 92 -75q56 0 79 32h156q-34 -80 -101.5 -120t-155.5 -40q-118 0 -183.5 80.5t-45.5 193.5t102.5 183.5t199.5 70.5zM204 305h191q-5 69 -79 69q-78 0 -112 -69z" />
    <glyph glyph-name="f" unicode="f" horiz-adv-x="315" 
d="M370 561q-85 6 -97 -61h86l-28 -159h-86l-60 -341h-166l60 341h-63l28 159h63q19 111 92 166.5t198 48.5z" />
    <glyph glyph-name="g" unicode="g" horiz-adv-x="619" 
d="M451 500h164l-85 -480q-21 -120 -104.5 -177.5t-190.5 -57.5t-174 53t-52 154h163q-3 -29 19.5 -45.5t63.5 -16.5q43 0 73 22.5t38 67.5l5 28q-53 -42 -137 -42q-113 0 -166 78t-37 183q14 99 89 173t182 74q95 0 140 -62zM284 158q45 0 79 26t44 68l3 15q5 42 -20 68.5
t-70 26.5q-47 0 -81 -28.5t-42 -73.5t16 -73.5t71 -28.5z" />
    <glyph glyph-name="h" unicode="h" 
d="M375 514q72 0 110.5 -56t22.5 -145l-55 -313h-166l53 299q9 59 -45 59q-61 0 -74 -71v1l-51 -288h-166l123 700h166l-41 -236q50 50 123 50z" />
    <glyph glyph-name="i" unicode="i" horiz-adv-x="262" 
d="M102 555l25 145h166l-25 -145h-166zM4 0l88 500h166l-88 -500h-166z" />
    <glyph glyph-name="j" unicode="j" horiz-adv-x="277" 
d="M142 700h166l-25 -145h-166zM19 0l88 500h166l-88 -500q-21 -123 -87 -172.5t-190 -42.5l27 154q73 -4 84 61z" />
    <glyph glyph-name="k" unicode="k" horiz-adv-x="537" 
d="M573 500l-210 -251l130 -249h-178l-106 219l-39 -219h-166l123 700h166l-69 -397l158 197h191z" />
    <glyph glyph-name="l" unicode="l" horiz-adv-x="262" 
d="M4 0l56 321l71 399h166l-71 -404l-56 -316h-166z" />
    <glyph glyph-name="m" unicode="m" horiz-adv-x="768" 
d="M609 514q73 0 111 -51.5t23 -136.5l-57 -326h-167l55 312q4 23 -6.5 34t-28.5 11q-45 0 -58 -55l-53 -302h-166l55 312q3 23 -7 34t-28 11q-45 0 -58 -54l-54 -303h-166l88 500h166l-6 -39q51 53 126 53q71 0 99 -55q57 55 132 55z" />
    <glyph glyph-name="n" unicode="n" 
d="M377 514q71 0 109 -56t22 -145l-55 -313h-166l53 299q9 59 -45 59q-58 0 -73 -65l-52 -293h-166l88 500h166l-7 -42q53 56 126 56z" />
    <glyph glyph-name="o" unicode="o" horiz-adv-x="583" 
d="M258 -14q-85 0 -143.5 42.5t-79.5 105.5t-8 132q20 104 100.5 176t201.5 72q120 0 183 -85.5t44 -192.5q-18 -102 -100 -176t-198 -74zM271 146q44 0 77 29t41 75t-14.5 75t-66.5 29q-43 0 -76 -29t-41 -75t14.5 -75t65.5 -29z" />
    <glyph glyph-name="p" unicode="p" horiz-adv-x="615" 
d="M394 514q101 0 157 -81.5t38 -192.5q-18 -107 -92.5 -180.5t-180.5 -73.5q-92 0 -137 61l-44 -247h-166l123 700h166l-6 -36q59 50 142 50zM423 250q8 49 -14.5 78t-69.5 29q-46 0 -80 -28t-44 -74l-1 -9q-7 -46 17 -74.5t70 -28.5q47 0 80.5 29t41.5 78z" />
    <glyph glyph-name="q" unicode="q" horiz-adv-x="615" 
d="M445 500h166l-123 -700h-166l40 227q-55 -41 -137 -41q-113 0 -165.5 81.5t-33.5 189.5q17 105 91.5 181t185.5 76q90 0 134 -60zM192 250q-8 -49 15 -78t70 -29t81.5 29.5t42.5 77.5q8 49 -15.5 78t-70.5 29t-81 -29.5t-42 -77.5z" />
    <glyph glyph-name="r" unicode="r" horiz-adv-x="352" 
d="M245 427q44 83 145 83l-32 -184q-49 8 -92 -17.5t-56 -83.5l-40 -225h-166l88 500h166z" />
    <glyph glyph-name="s" unicode="s" horiz-adv-x="483" 
d="M460 336h-162q8 45 -34 45q-44 0 -49 -30q-3 -19 21.5 -29t61 -18.5t72 -22.5t56 -50t10.5 -92q-15 -81 -78.5 -117t-155.5 -36q-91 0 -147.5 45.5t-41.5 132.5h164q-8 -45 42 -45q46 0 51 30q3 15 -14.5 25.5t-45 16t-58.5 17t-57 27.5t-39.5 48.5t-5.5 77.5
q14 78 79.5 115.5t150.5 37.5q84 0 139.5 -47t40.5 -131z" />
    <glyph glyph-name="t" unicode="t" horiz-adv-x="340" 
d="M371 500l-27 -159h-75l-60 -341h-166l60 341h-74l28 159h74l28 160h166l-28 -160h74z" />
    <glyph glyph-name="u" unicode="u" 
d="M366 500h166l-88 -500h-166l7 42q-45 -56 -126 -56q-72 0 -110 54t-23 141l57 319h166l-52 -299q-10 -58 45 -58q57 0 72 64z" />
    <glyph glyph-name="v" unicode="v" horiz-adv-x="533" 
d="M394 500h183l-270 -500h-160h-9l-94 500h169l41 -283z" />
    <glyph glyph-name="w" unicode="w" horiz-adv-x="740" 
d="M596 500h183l-241 -500h-154h-2l1 3l-24 185l-91 -188h-130h-24l-65 500h169l21 -288l92 192l-12 96h125l35 -274z" />
    <glyph glyph-name="x" unicode="x" horiz-adv-x="503" 
d="M540 500l-200 -250l119 -250h-169l-56 118l-95 -118h-183l209 261l-114 239h169l51 -107l86 107h183z" />
    <glyph glyph-name="y" unicode="y" horiz-adv-x="524" 
d="M388 500h185l-359 -700h-176l105 205l-104 495h169l50 -282z" />
    <glyph glyph-name="z" unicode="z" horiz-adv-x="455" 
d="M469 500l-20 -114l-212 -232h181l-27 -154h-410l21 114l211 232h-161l27 154h390z" />
    <glyph glyph-name="braceleft" unicode="{" horiz-adv-x="349" 
d="M279 -107q-110 -7 -161 46t-34 149l24 134q6 31 -10.5 42.5t-52.5 7.5l28 159q36 -4 55.5 6t25.5 44l24 134q19 108 82.5 155.5t180.5 39.5l-27 -154q-62 9 -70 -41l-24 -134q-9 -52 -30 -81t-60 -48q61 -37 44 -130l-23 -134q-4 -26 9.5 -35.5t46.5 -5.5z" />
    <glyph glyph-name="bar" unicode="|" horiz-adv-x="277" 
d="M-24 -200l162 920h167l-162 -920h-167z" />
    <glyph glyph-name="braceright" unicode="}" horiz-adv-x="348" 
d="M104 809q110 7 161 -46t34 -149l-23 -134q-6 -31 10.5 -42.5t52.5 -7.5l-28 -159q-37 4 -56 -6t-25 -44l-24 -134q-19 -108 -83 -155.5t-181 -39.5l28 154q62 -9 70 41l23 134q9 52 30.5 81t59.5 48q-61 38 -44 130l24 134q4 26 -9.5 35.5t-46.5 5.5z" />
    <glyph glyph-name="asciitilde" unicode="~" horiz-adv-x="606" 
d="M164 235l-121 61q25 74 71 116.5t98 48t109 -19.5q66 -33 98 -30t57 50l121 -61q-25 -73 -71 -116t-98 -48.5t-108 19.5q-67 33 -99 30t-57 -50z" />
    <glyph glyph-name="exclamdown" unicode="&#xa1;" horiz-adv-x="294" 
d="M102 500h178l-31 -179h-179zM77 245h138l-10 -245l-35 -200h-204l35 200z" />
    <glyph glyph-name="cent" unicode="&#xa2;" horiz-adv-x="556" 
d="M399 401q-4 25 -26 39l-94 -191q4 -1 12 -1q66 0 91 51h172q-28 -98 -105 -155.5t-177 -57.5q-38 0 -69 9l-48 -95h-64l58 118q-61 35 -89.5 100t-15.5 142q20 112 103 183t199 71q17 0 47 -4l45 90h64l-53 -108q58 -28 92 -79t31 -112h-173zM210 350q-7 -46 17 -75
l88 176q-39 -4 -68.5 -31.5t-36.5 -69.5z" />
    <glyph glyph-name="sterling" unicode="&#xa3;" horiz-adv-x="583" 
d="M391 715q94 0 157.5 -62t45.5 -162l-9 -50h-179l9 50q5 24 -7 38.5t-37 14.5t-41.5 -14.5t-21.5 -38.5l-17 -99h178l-25 -140h-178l-14 -79h304l-30 -173h-545l31 173h62l14 79h-52l25 140h51l18 99q20 112 92.5 168t168.5 56z" />
    <glyph glyph-name="currency" unicode="&#xa4;" horiz-adv-x="533" 
d="M558 546l-80 -68q35 -58 22 -131t-65 -128l56 -68l-48 -39l-56 68q-64 -40 -136 -40t-120 39l-82 -70l-39 44l81 70q-34 54 -22 130q14 74 65 127l-56 69l46 40l58 -70q63 41 137 41q69 0 118 -38l81 69zM275 294q25 0 43 15t23 41q4 26 -8.5 41t-38.5 15
q-25 0 -42.5 -15t-22.5 -41t7.5 -41t38.5 -15z" />
    <glyph glyph-name="yen" unicode="&#xa5;" horiz-adv-x="631" 
d="M710 700l-246 -328h115l-17 -94h-152l-8 -41h153l-16 -93h-153l-25 -144h-179l25 144h-152l16 93h153l7 41h-153l17 94h114l-130 328h190l76 -225l153 225h212z" />
    <glyph glyph-name="brokenbar" unicode="&#xa6;" horiz-adv-x="277" 
d="M73 350l65 370h167l-65 -370h-167zM-24 -200l65 370h167l-65 -370h-167z" />
    <glyph glyph-name="section" unicode="&#xa7;" horiz-adv-x="557" 
d="M408 463q141 -61 119 -182q-14 -80 -84 -124q24 -44 14 -107q-29 -162 -235 -162q-92 0 -149 47t-41 140h164q-9 -54 40 -54q47 0 54 38q2 11 -3 20.5t-19 18t-25.5 14t-36.5 15.5l-37 15q-141 63 -120 188q14 77 83 120q-23 45 -13 108q15 82 79 119.5t150 37.5
q85 0 141 -48t41 -136h-162q9 51 -35 51q-41 0 -48 -33q-1 -8 1.5 -15.5t9 -14t14.5 -12t21 -11.5l23.5 -10.5l26.5 -11t27 -11.5zM271 270l33 -13t43 -19q10 16 15 35q3 21 -11.5 35t-46.5 27q-10 5 -35.5 15.5l-39.5 16.5q-12 -15 -15 -35q-7 -36 57 -62z" />
    <glyph glyph-name="dieresis" unicode="&#xa8;" horiz-adv-x="369" 
d="M73 550l25 140h139l-25 -140h-139zM262 550l25 140h140l-25 -140h-140z" />
    <glyph glyph-name="copyright" unicode="&#xa9;" horiz-adv-x="779" 
d="M358 -12q-98 0 -176 50.5t-115.5 136t-19.5 183.5q26 151 143 252.5t268 101.5q149 0 242.5 -110.5t67.5 -259.5q-27 -151 -143.5 -252.5t-266.5 -101.5zM358 29q133 0 238 91.5t128 224.5t-57.5 229.5t-210.5 96.5q-132 0 -237 -91.5t-128 -224.5q-24 -133 56 -229.5
t211 -96.5zM380 153q-89 0 -135.5 62.5t-32.5 144.5q14 79 75.5 133t147.5 54q69 0 118.5 -48t54.5 -118h-142q-13 30 -48 30q-27 0 -47 -18t-24 -43q-5 -24 8.5 -42.5t40.5 -18.5q35 0 59 30h143q-24 -77 -85 -121.5t-133 -44.5z" />
    <glyph glyph-name="ordfeminine" unicode="&#xaa;" horiz-adv-x="270" 
d="M214 715q43 0 71.5 -26.5t20.5 -72.5l-27 -158h-80l2 12q-25 -19 -60 -19q-38 0 -58.5 23t-15.5 58q6 33 31 54t64 21q35 0 60 -20l4 26q5 28 -21 28t-30 -21h-80q8 46 41 70.5t78 24.5zM149 529q-2 -10 5 -16.5t21 -6.5q32 0 36 23q2 11 -5.5 17t-22.5 6q-29 0 -34 -23z
" />
    <glyph glyph-name="guillemotleft" unicode="&#xab;" horiz-adv-x="569" 
d="M351 504l-144 -200l74 -190h-139l-77 195l141 195h145zM559 504l-149 -206l73 -184h-139l-75 190l144 200h146z" />
    <glyph glyph-name="logicalnot" unicode="&#xac;" horiz-adv-x="569" 
d="M566 429l-15 -84l-34 -194h-169l21 120h-330l28 158h499z" />
    <glyph glyph-name="registered" unicode="&#xae;" horiz-adv-x="779" 
d="M458 712q149 0 242.5 -110.5t67.5 -259.5q-27 -151 -143.5 -252.5t-266.5 -101.5q-98 0 -176 50.5t-115.5 136t-19.5 183.5q26 151 143 252.5t268 101.5zM724 345q23 133 -57.5 229.5t-210.5 96.5q-132 0 -237 -91.5t-128 -224.5q-24 -133 56 -229.5t211 -96.5
q133 0 238 91.5t128 224.5zM473 535q58 0 92 -41t26 -97q-11 -70 -67 -111l59 -121h-135l-44 92h-32l-16 -92h-131l65 370h131h52zM426 420h-25l-10 -58h24q36 0 42 29q3 15 -5.5 22t-25.5 7z" />
    <glyph glyph-name="macron" unicode="&#xaf;" horiz-adv-x="350" 
d="M74 554l22 130h310l-23 -130h-309z" />
    <glyph glyph-name="degree" unicode="&#xb0;" horiz-adv-x="415" 
d="M248 461q-75 0 -118.5 53.5t-30.5 125.5q12 74 69 122t135 48q76 0 119.5 -53.5t30.5 -126.5t-69.5 -121t-135.5 -48zM268 590q20 0 34.5 12.5t17.5 32.5q4 20 -6 33t-30 13t-34.5 -13t-18.5 -33q-3 -20 7 -32.5t30 -12.5z" />
    <glyph glyph-name="plusminus" unicode="&#xb1;" horiz-adv-x="560" 
d="M408 529h161l-29 -158h-159l-24 -136h-159l24 136h-160l28 158h160l24 136h158zM0 21l29 159h478l-28 -159h-479z" />
    <glyph glyph-name="acute" unicode="&#xb4;" horiz-adv-x="314" 
d="M74 555h163l136 145h-198z" />
    <glyph glyph-name="uni00B5" unicode="&#xb5;" horiz-adv-x="568" 
d="M485 179q-5 -30 25 -30h25l-26 -149h-72q-65 0 -98 38q-50 -52 -125 -52q-22 0 -45 5l-34 -191h-166l123 700h166l-52 -299q-10 -58 45 -58q56 0 72 63l52 294h166z" />
    <glyph glyph-name="paragraph" unicode="&#xb6;" horiz-adv-x="727" 
d="M770 700l-27 -160h-67l-130 -740h-158l130 740h-64l-130 -740h-158l79 451q-93 0 -146.5 70.5t-36.5 163.5q16 93 91.5 154t170.5 61h158h222h66z" />
    <glyph glyph-name="periodcentered" unicode="&#xb7;" horiz-adv-x="289" 
d="M57 260l32 179h178l-31 -179h-179z" />
    <glyph glyph-name="cedilla" unicode="&#xb8;" horiz-adv-x="274" 
d="M144 -46q54 -25 43 -86q-19 -105 -250 -89l19 109q93 -7 98 14q3 17 -50 20l14 78h134z" />
    <glyph glyph-name="ordmasculine" unicode="&#xba;" horiz-adv-x="302" 
d="M192 451q-63 0 -93.5 41t-20.5 96q8 52 47.5 89.5t101.5 37.5q60 0 92 -41.5t24 -94.5q-9 -53 -49 -90.5t-102 -37.5zM201 531q21 0 38 14.5t21 37.5t-8 37.5t-33 14.5q-22 0 -38.5 -14.5t-20.5 -37.5t7.5 -37.5t33.5 -14.5z" />
    <glyph glyph-name="guillemotright" unicode="&#xbb;" horiz-adv-x="570" 
d="M246 504l75 -190l-144 -200h-146l149 206l-73 184h139zM448 504l77 -195l-141 -195h-145l144 200l-74 190h139z" />
    <glyph glyph-name="onequarter" unicode="&#xbc;" horiz-adv-x="818" 
d="M116 300l46 265l-105 -51l23 133l106 53h131l-70 -400h-131zM585 700h119l-522 -700h-119zM791 171l-20 -115h-35l-10 -56h-122l10 56h-184l20 115l152 229h141l-147 -229h39l11 63h121l-11 -63h35z" />
    <glyph glyph-name="onehalf" unicode="&#xbd;" horiz-adv-x="813" 
d="M116 300l46 265l-105 -51l23 133l106 53h131l-70 -400h-131zM585 700h119l-522 -700h-119zM791 274q-10 -57 -88 -118l-50 -39h113l-20 -117h-306l16 91l167 139q35 30 38 46q3 22 -19 22q-25 0 -31 -32h-130q14 74 62.5 111t114.5 37q64 0 104.5 -37.5t28.5 -102.5z" />
    <glyph glyph-name="threequarters" unicode="&#xbe;" horiz-adv-x="876" 
d="M349 416q-12 -65 -57.5 -97.5t-114.5 -32.5q-70 0 -110 36.5t-29 102.5h127q-5 -26 25 -26q29 0 34 26q5 25 -25 25h-73l12 71l59 63h-114l20 116h274l-15 -87l-74 -78q35 -16 51.5 -47t9.5 -72zM644 700h119l-522 -700h-119zM850 171l-20 -115h-35l-10 -56h-122l10 56
h-184l20 115l152 229h141l-147 -229h39l11 63h121l-11 -63h35z" />
    <glyph glyph-name="questiondown" unicode="&#xbf;" horiz-adv-x="551" 
d="M421 500l-31 -179h-179l31 179h179zM371 245q-7 -48 -37.5 -86.5t-62.5 -59t-61 -46.5t-33 -51q-4 -22 9.5 -34.5t44.5 -12.5q73 0 84 64h174q-20 -113 -99 -173.5t-187 -60.5q-97 0 -160 58.5t-47 153.5q7 41 30 75.5t51 57t55 41.5t47 37.5t23 36.5h169z" />
    <glyph glyph-name="Agrave" unicode="&#xc0;" horiz-adv-x="660" 
d="M509 755h-154l-95 145h188zM430 0l-10 101h-225l-47 -101h-197l351 700h214l105 -700h-191zM267 255h137l-24 242z" />
    <glyph glyph-name="Aacute" unicode="&#xc1;" horiz-adv-x="660" 
d="M628 900l-136 -145h-163l101 145h198zM302 700h214l105 -700h-191l-10 101h-225l-47 -101h-197zM267 255h137l-24 242z" />
    <glyph glyph-name="Acircumflex" unicode="&#xc2;" horiz-adv-x="660" 
d="M424 801l-50 -56h-151l133 155h156h11l79 -155h-149zM430 0l-10 101h-225l-47 -101h-197l351 700h214l105 -700h-191zM267 255h137l-24 242z" />
    <glyph glyph-name="Atilde" unicode="&#xc3;" horiz-adv-x="660" 
d="M417 768q-21 16 -36.5 13.5t-20.5 -33.5h-121q6 60 28 99t53 52.5t64 11.5t63 -20q17 -10 26.5 -13.5t18 4t12.5 28.5h122q-6 -60 -29 -99t-53.5 -52.5t-63.5 -11t-63 20.5zM302 700h214l105 -700h-191l-10 101h-225l-47 -101h-197zM267 255h137l-24 242z" />
    <glyph glyph-name="Adieresis" unicode="&#xc4;" horiz-adv-x="660" 
d="M418 890l-25 -140h-139l25 140h139zM608 890l-25 -140h-140l25 140h140zM430 0l-10 101h-225l-47 -101h-197l351 700h214l105 -700h-191zM267 255h137l-24 242z" />
    <glyph glyph-name="Aring" unicode="&#xc5;" horiz-adv-x="660" 
d="M417 733q-61 0 -95 39t-24 96t54.5 93t106.5 36q61 0 95.5 -39.5t23.5 -96.5q-10 -57 -53.5 -92.5t-107.5 -35.5zM405 865q-5 -32 27 -32q35 0 40 31q3 14 -4.5 23.5t-24.5 9.5q-15 0 -25.5 -9t-12.5 -23zM430 0l-10 101h-225l-47 -101h-197l351 700h214l105 -700h-191z
M267 255h137l-24 242z" />
    <glyph glyph-name="AE" unicode="&#xc6;" horiz-adv-x="882" 
d="M899 532h-231l-17 -98h206l-28 -160h-206l-18 -106h235l-29 -168h-360h-50l18 101h-192l-75 -101h-201l523 700h100h124h231zM342 255h104l32 183z" />
    <glyph glyph-name="Ccedilla" unicode="&#xc7;" horiz-adv-x="752" 
d="M444 540q-83 0 -143.5 -52.5t-75.5 -137.5q-15 -84 26.5 -137t125.5 -53q59 0 108.5 29.5t71.5 79.5h186q-37 -112 -124 -186.5t-200 -92.5l-6 -36q54 -25 43 -86q-19 -105 -250 -89l19 109q93 -7 98 14q3 17 -50 20l12 70q-127 25 -195 128.5t-43 239.5
q27 156 143 255.5t277 99.5q130 0 218 -82t86 -202h-186q-5 50 -44 79.5t-97 29.5z" />
    <glyph glyph-name="Egrave" unicode="&#xc8;" horiz-adv-x="512" 
d="M447 755h-154l-95 145h188zM529 532h-246l-17 -99h221l-28 -159h-221l-18 -106h250l-29 -168h-375h-55l123 700h179h246z" />
    <glyph glyph-name="Eacute" unicode="&#xc9;" horiz-adv-x="512" 
d="M566 900l-136 -145h-163l101 145h198zM559 700l-30 -168h-246l-17 -99h221l-28 -159h-221l-18 -106h250l-29 -168h-375h-55l123 700h425z" />
    <glyph glyph-name="Ecircumflex" unicode="&#xca;" horiz-adv-x="512" 
d="M362 801l-50 -56h-151l133 155h156h11l79 -155h-149zM529 532h-246l-17 -99h221l-28 -159h-221l-18 -106h250l-29 -168h-375h-55l123 700h179h246z" />
    <glyph glyph-name="Edieresis" unicode="&#xcb;" horiz-adv-x="512" 
d="M356 890l-25 -140h-139l25 140h139zM546 890l-25 -140h-140l25 140h140zM529 532h-246l-17 -99h221l-28 -159h-221l-18 -106h250l-29 -168h-375h-55l123 700h179h246z" />
    <glyph glyph-name="Igrave" unicode="&#xcc;" horiz-adv-x="289" 
d="M324 755l-61 145h-188l95 -145h154zM134 700h179l-123 -700h-179z" />
    <glyph glyph-name="Iacute" unicode="&#xcd;" horiz-adv-x="289" 
d="M144 755h163l136 145h-198zM134 700h179l-123 -700h-179z" />
    <glyph glyph-name="Icircumflex" unicode="&#xce;" horiz-adv-x="289" 
d="M238 801l-50 -56h-151l133 155h156h11l79 -155h-149zM11 0l123 700h179l-123 -700h-179z" />
    <glyph glyph-name="Idieresis" unicode="&#xcf;" horiz-adv-x="289" 
d="M68 750l25 140h139l-25 -140h-139zM257 750l25 140h140l-25 -140h-140zM134 700h179l-123 -700h-179z" />
    <glyph glyph-name="Eth" unicode="&#xd0;" horiz-adv-x="759" 
d="M469 700q138 0 221 -106t57 -254q-27 -150 -137 -245t-264 -95h-250h-55l46 263h-74l28 158h74l49 279h183h122zM572 353q14 79 -23 126.5t-110 47.5h-122l-19 -106h132l-27 -158h-133l-16 -90h117q76 0 131.5 49.5t69.5 130.5z" />
    <glyph glyph-name="Ntilde" unicode="&#xd1;" horiz-adv-x="655" 
d="M234 748q6 60 28 99t53 52.5t64 11.5t63 -20q17 -10 26.5 -13.5t18 4t12.5 28.5h122q-6 -60 -29 -99t-53.5 -52.5t-63.5 -11t-63 20.5q-21 16 -36.5 13.5t-20.5 -33.5h-121zM500 700h178l-123 -700h-138l-163 362l-64 -362h-179l123 700h139l163 -362z" />
    <glyph glyph-name="Ograve" unicode="&#xd2;" horiz-adv-x="790" 
d="M576 765l-61 145h-188l95 -145h154zM360 -15q-106 0 -185 53t-112 139t-16 184q25 150 142 252t278 102q159 0 247.5 -111.5t63.5 -262.5q-26 -151 -141 -253.5t-277 -102.5zM376 160q81 0 145.5 53.5t78.5 136.5q15 83 -29 136.5t-125 53.5t-143.5 -53.5t-77.5 -136.5
q-15 -84 27.5 -137t123.5 -53z" />
    <glyph glyph-name="Oacute" unicode="&#xd3;" horiz-adv-x="790" 
d="M396 765h163l136 145h-198zM360 -15q-106 0 -185 53t-112 139t-16 184q25 150 142 252t278 102q159 0 247.5 -111.5t63.5 -262.5q-26 -151 -141 -253.5t-277 -102.5zM376 160q81 0 145.5 53.5t78.5 136.5q15 83 -29 136.5t-125 53.5t-143.5 -53.5t-77.5 -136.5
q-15 -84 27.5 -137t123.5 -53z" />
    <glyph glyph-name="Ocircumflex" unicode="&#xd4;" horiz-adv-x="790" 
d="M491 811l-50 -56h-151l133 155h156h11l79 -155h-149zM467 715q159 0 247.5 -111.5t63.5 -262.5q-26 -151 -141 -253.5t-277 -102.5q-106 0 -185 53t-112 139t-16 184q25 150 142 252t278 102zM600 350q15 83 -29 136.5t-125 53.5t-143.5 -53.5t-77.5 -136.5
q-15 -84 27.5 -137t123.5 -53t145.5 53.5t78.5 136.5z" />
    <glyph glyph-name="Otilde" unicode="&#xd5;" horiz-adv-x="790" 
d="M306 758q6 60 28 99t53 52.5t64 11.5t63 -20q17 -10 26.5 -13.5t18 4t12.5 28.5h122q-6 -60 -29 -99t-53.5 -52.5t-63.5 -11t-63 20.5q-21 16 -36.5 13.5t-20.5 -33.5h-121zM360 -15q-106 0 -185 53t-112 139t-16 184q25 150 142 252t278 102q159 0 247.5 -111.5
t63.5 -262.5q-26 -151 -141 -253.5t-277 -102.5zM376 160q81 0 145.5 53.5t78.5 136.5q15 83 -29 136.5t-125 53.5t-143.5 -53.5t-77.5 -136.5q-15 -84 27.5 -137t123.5 -53z" />
    <glyph glyph-name="Odieresis" unicode="&#xd6;" horiz-adv-x="790" 
d="M321 760l25 140h139l-25 -140h-139zM510 760l25 140h140l-25 -140h-140zM360 -15q-106 0 -185 53t-112 139t-16 184q25 150 142 252t278 102q159 0 247.5 -111.5t63.5 -262.5q-26 -151 -141 -253.5t-277 -102.5zM376 160q81 0 145.5 53.5t78.5 136.5q15 83 -29 136.5
t-125 53.5t-143.5 -53.5t-77.5 -136.5q-15 -84 27.5 -137t123.5 -53z" />
    <glyph glyph-name="multiply" unicode="&#xd7;" horiz-adv-x="538" 
d="M536 466l-138 -119l97 -113l-124 -112l-99 116l-134 -116l-100 112l137 119l-96 113l124 112l98 -116l134 116z" />
    <glyph glyph-name="Oslash" unicode="&#xd8;" horiz-adv-x="795" 
d="M810 700l-93 -94q92 -110 66 -265q-26 -151 -141 -253.5t-277 -102.5q-115 0 -199 65l-49 -50h-114l106 107q-81 110 -57 254q25 150 142 252t278 102q106 0 185 -54l39 39h114zM230 350q-11 -60 11 -110l283 286q-34 14 -73 14q-81 0 -143.5 -53.5t-77.5 -136.5z
M605 350q13 72 -19 123l-290 -292q34 -21 85 -21q81 0 145.5 53.5t78.5 136.5z" />
    <glyph glyph-name="Ugrave" unicode="&#xd9;" horiz-adv-x="621" 
d="M490 755l-61 145h-188l95 -145h154zM269 -15q-115 0 -181 66.5t-45 183.5l82 465h179l-82 -458q-14 -83 71 -83q88 0 102 83l81 458h178l-85 -485q-20 -117 -99.5 -173.5t-200.5 -56.5z" />
    <glyph glyph-name="Uacute" unicode="&#xda;" horiz-adv-x="621" 
d="M310 755h163l136 145h-198zM269 -15q-115 0 -181 66.5t-45 183.5l82 465h179l-82 -458q-14 -83 71 -83q88 0 102 83l81 458h178l-85 -485q-20 -117 -99.5 -173.5t-200.5 -56.5z" />
    <glyph glyph-name="Ucircumflex" unicode="&#xdb;" horiz-adv-x="621" 
d="M404 801l-50 -56h-151l133 155h156h11l79 -155h-149zM476 700h178l-85 -485q-20 -117 -99.5 -173.5t-200.5 -56.5q-115 0 -181 66.5t-45 183.5l82 465h179l-82 -458q-14 -83 71 -83q88 0 102 83z" />
    <glyph glyph-name="Udieresis" unicode="&#xdc;" horiz-adv-x="621" 
d="M234 750l25 140h139l-25 -140h-139zM423 750l25 140h140l-25 -140h-140zM269 -15q-115 0 -181 66.5t-45 183.5l82 465h179l-82 -458q-14 -83 71 -83q88 0 102 83l81 458h178l-85 -485q-20 -117 -99.5 -173.5t-200.5 -56.5z" />
    <glyph glyph-name="Yacute" unicode="&#xdd;" horiz-adv-x="631" 
d="M613 900l-136 -145h-163l101 145h198zM710 700l-296 -396l-53 -304h-179l54 305l-157 395h190l76 -225l153 225h212z" />
    <glyph glyph-name="Thorn" unicode="&#xde;" horiz-adv-x="596" 
d="M390 596q99 0 161.5 -75t44.5 -181q-19 -110 -96 -172.5t-195 -62.5h-97l-18 -105h-179l124 700h178l-18 -104h95zM418 350q7 33 -10 54t-47 21h-96l-26 -149h95q32 0 55.5 20.5t28.5 53.5z" />
    <glyph glyph-name="germandbls" unicode="&#xdf;" horiz-adv-x="528" 
d="M223 -5l26 144q83 -11 93 47q5 27 -32.5 100.5t-31.5 102.5q4 25 39 66.5t40 69.5q3 19 -6.5 31t-29.5 12q-50 0 -61 -59l-90 -509h-166l90 509q16 97 79 151.5t172 54.5q93 0 144 -51.5t39 -117.5q-6 -35 -26.5 -65t-39 -53t-21.5 -39q-4 -22 15 -62.5t36 -91.5t9 -99
q-29 -173 -278 -141z" />
    <glyph glyph-name="agrave" unicode="&#xe0;" horiz-adv-x="514" 
d="M408 565h-154l-95 145h188zM303 514q86 0 142.5 -55.5t41.5 -143.5l-56 -315h-160l4 24q-47 -38 -120 -38t-116.5 45.5t-30.5 120.5q13 74 65.5 110t123.5 36q70 0 120 -39l9 51q8 56 -44 56q-26 0 -41.5 -12t-18.5 -31h-160q16 92 82.5 141.5t158.5 49.5zM173 143
q-4 -21 9.5 -34t41.5 -13q29 0 48.5 12.5t23.5 32.5q4 22 -12 34.5t-44 12.5q-60 0 -67 -45z" />
    <glyph glyph-name="aacute" unicode="&#xe1;" horiz-adv-x="514" 
d="M527 710l-136 -145h-163l101 145h198zM303 514q86 0 142.5 -55.5t41.5 -143.5l-56 -315h-160l4 24q-47 -38 -120 -38t-116.5 45.5t-30.5 120.5q13 74 65.5 110t123.5 36q70 0 120 -39l9 51q8 56 -44 56q-26 0 -41.5 -12t-18.5 -31h-160q16 92 82.5 141.5t158.5 49.5z
M173 143q-4 -21 9.5 -34t41.5 -13q29 0 48.5 12.5t23.5 32.5q4 22 -12 34.5t-44 12.5q-60 0 -67 -45z" />
    <glyph glyph-name="acircumflex" unicode="&#xe2;" horiz-adv-x="514" 
d="M323 611l-50 -56h-151l133 155h156h11l79 -155h-149zM303 514q86 0 142.5 -55.5t41.5 -143.5l-56 -315h-160l4 24q-47 -38 -120 -38t-116.5 45.5t-30.5 120.5q13 74 65.5 110t123.5 36q70 0 120 -39l9 51q8 56 -44 56q-26 0 -41.5 -12t-18.5 -31h-160q16 92 82.5 141.5
t158.5 49.5zM173 143q-4 -21 9.5 -34t41.5 -13q29 0 48.5 12.5t23.5 32.5q4 22 -12 34.5t-44 12.5q-60 0 -67 -45z" />
    <glyph glyph-name="atilde" unicode="&#xe3;" horiz-adv-x="514" 
d="M316 578q-21 16 -36.5 13.5t-20.5 -33.5h-121q6 60 28 99t53 52.5t64 11.5t63 -20q17 -10 26.5 -13.5t18 4t12.5 28.5h122q-6 -60 -29 -99t-53.5 -52.5t-63.5 -11t-63 20.5zM303 514q86 0 142.5 -55.5t41.5 -143.5l-56 -315h-160l4 24q-47 -38 -120 -38t-116.5 45.5
t-30.5 120.5q13 74 65.5 110t123.5 36q70 0 120 -39l9 51q8 56 -44 56q-26 0 -41.5 -12t-18.5 -31h-160q16 92 82.5 141.5t158.5 49.5zM173 143q-4 -21 9.5 -34t41.5 -13q29 0 48.5 12.5t23.5 32.5q4 22 -12 34.5t-44 12.5q-60 0 -67 -45z" />
    <glyph glyph-name="adieresis" unicode="&#xe4;" horiz-adv-x="514" 
d="M317 700l-25 -140h-139l25 140h139zM507 700l-25 -140h-140l25 140h140zM303 514q86 0 142.5 -55.5t41.5 -143.5l-56 -315h-160l4 24q-47 -38 -120 -38t-116.5 45.5t-30.5 120.5q13 74 65.5 110t123.5 36q70 0 120 -39l9 51q8 56 -44 56q-26 0 -41.5 -12t-18.5 -31h-160
q16 92 82.5 141.5t158.5 49.5zM173 143q-4 -21 9.5 -34t41.5 -13q29 0 48.5 12.5t23.5 32.5q4 22 -12 34.5t-44 12.5q-60 0 -67 -45z" />
    <glyph glyph-name="aring" unicode="&#xe5;" horiz-adv-x="514" 
d="M316 543q-61 0 -95 39t-24 96t54.5 93t106.5 36q61 0 95.5 -39.5t23.5 -96.5q-10 -57 -53.5 -92.5t-107.5 -35.5zM304 675q-5 -32 27 -32q35 0 40 31q3 14 -4.5 23.5t-24.5 9.5q-15 0 -25.5 -9t-12.5 -23zM303 514q86 0 142.5 -55.5t41.5 -143.5l-56 -315h-160l4 24
q-47 -38 -120 -38t-116.5 45.5t-30.5 120.5q13 74 65.5 110t123.5 36q70 0 120 -39l9 51q8 56 -44 56q-26 0 -41.5 -12t-18.5 -31h-160q16 92 82.5 141.5t158.5 49.5zM173 143q-4 -21 9.5 -34t41.5 -13q29 0 48.5 12.5t23.5 32.5q4 22 -12 34.5t-44 12.5q-60 0 -67 -45z" />
    <glyph glyph-name="ae" unicode="&#xe6;" horiz-adv-x="829" 
d="M620 514q97 0 151.5 -75.5t34.5 -187.5q-4 -28 -17 -62h-156h-158q7 -75 78 -75q37 0 64 32h156q-35 -80 -93.5 -119.5t-130.5 -39.5q-107 0 -157 73q-61 -74 -197 -74q-94 0 -146.5 47.5t-39.5 122.5q13 73 65 107.5t126 34.5q71 0 119 -34l8 46q8 56 -43 56
q-27 0 -42.5 -12t-18.5 -31h-160q16 92 78 141.5t147 49.5q108 0 156 -77q69 77 176 77zM494 305h164q-3 69 -66 69q-68 0 -98 -69zM297 142q4 21 -12 33.5t-44 12.5q-60 0 -67 -45q-4 -20 10 -33.5t41 -13.5q63 0 72 46z" />
    <glyph glyph-name="ccedilla" unicode="&#xe7;" horiz-adv-x="559" 
d="M310 352q-43 0 -76.5 -28.5t-40.5 -73.5q-8 -45 15 -73.5t66 -28.5q65 0 90 51h173q-23 -81 -81 -135t-137 -71l-7 -39q54 -25 43 -86q-19 -105 -250 -89l19 109q93 -7 98 14q3 17 -50 20l13 73q-85 24 -130 98t-29 167q20 112 103.5 183t198.5 71q97 0 163.5 -63
t63.5 -150h-174q-3 24 -22.5 37.5t-48.5 13.5z" />
    <glyph glyph-name="egrave" unicode="&#xe8;" horiz-adv-x="569" 
d="M439 562h-154l-95 145h188zM328 514q107 0 172 -77.5t45 -185.5q-7 -35 -17 -62h-156h-187q12 -75 92 -75q56 0 79 32h156q-34 -80 -101.5 -120t-155.5 -40q-118 0 -183.5 80.5t-45.5 193.5t102.5 183.5t199.5 70.5zM204 305h191q-5 69 -79 69q-78 0 -112 -69z" />
    <glyph glyph-name="eacute" unicode="&#xe9;" horiz-adv-x="569" 
d="M558 707l-136 -145h-163l101 145h198zM328 514q107 0 172 -77.5t45 -185.5q-7 -35 -17 -62h-156h-187q12 -75 92 -75q56 0 79 32h156q-34 -80 -101.5 -120t-155.5 -40q-118 0 -183.5 80.5t-45.5 193.5t102.5 183.5t199.5 70.5zM204 305h191q-5 69 -79 69q-78 0 -112 -69z
" />
    <glyph glyph-name="ecircumflex" unicode="&#xea;" horiz-adv-x="569" 
d="M353 608l-50 -56h-151l133 155h156h11l79 -155h-149zM328 514q107 0 172 -77.5t45 -185.5q-7 -35 -17 -62h-156h-187q12 -75 92 -75q56 0 79 32h156q-34 -80 -101.5 -120t-155.5 -40q-118 0 -183.5 80.5t-45.5 193.5t102.5 183.5t199.5 70.5zM204 305h191q-5 69 -79 69
q-78 0 -112 -69z" />
    <glyph glyph-name="edieresis" unicode="&#xeb;" horiz-adv-x="569" 
d="M347 697l-25 -140h-139l25 140h139zM537 697l-25 -140h-140l25 140h140zM328 514q107 0 172 -77.5t45 -185.5q-7 -35 -17 -62h-156h-187q12 -75 92 -75q56 0 79 32h156q-34 -80 -101.5 -120t-155.5 -40q-118 0 -183.5 80.5t-45.5 193.5t102.5 183.5t199.5 70.5zM204 305
h191q-5 69 -79 69q-78 0 -112 -69z" />
    <glyph glyph-name="igrave" unicode="&#xec;" horiz-adv-x="262" 
d="M262 550l-21 150h-181l47 -150h155zM170 0h-166l88 500h166z" />
    <glyph glyph-name="iacute" unicode="&#xed;" horiz-adv-x="262" 
d="M101 550h158l97 150h-189zM4 0l88 500h166l-88 -500h-166z" />
    <glyph glyph-name="icircumflex" unicode="&#xee;" horiz-adv-x="262" 
d="M195 594l-37 -49h-150l119 155h148h18l65 -155h-141zM4 0l88 500h166l-88 -500h-166z" />
    <glyph glyph-name="idieresis" unicode="&#xef;" horiz-adv-x="262" 
d="M27 553l24 134h135l-24 -134h-135zM207 553l24 134h135l-24 -134h-135zM4 0l88 500h166l-88 -500h-166z" />
    <glyph glyph-name="eth" unicode="&#xf0;" horiz-adv-x="566" 
d="M509 365q40 -68 27 -145q-20 -111 -101 -172.5t-189 -61.5t-176 71.5t-48 182.5q16 87 85 148.5t160 68.5l-28 53l-141 -50l21 121l68 24l-51 95h180l23 -40l145 52l-21 -122l-69 -24zM370 228q6 29 -7 52q-22 34 -69 34q-41 0 -70.5 -23t-36.5 -63q-7 -43 14 -66.5
t62 -23.5t70 23.5t37 66.5z" />
    <glyph glyph-name="ntilde" unicode="&#xf1;" 
d="M321 578q-21 16 -36.5 13.5t-20.5 -33.5h-121q6 60 28 99t53 52.5t64 11.5t63 -20q17 -10 26.5 -13.5t18 4t12.5 28.5h122q-6 -60 -29 -99t-53.5 -52.5t-63.5 -11t-63 20.5zM377 514q71 0 109 -56t22 -145l-55 -313h-166l53 299q9 59 -45 59q-58 0 -73 -65l-52 -293h-166
l88 500h166l-7 -42q53 56 126 56z" />
    <glyph glyph-name="ograve" unicode="&#xf2;" horiz-adv-x="583" 
d="M437 565l-61 145h-188l95 -145h154zM258 -14q-85 0 -143.5 42.5t-79.5 105.5t-8 132q20 104 100.5 176t201.5 72q120 0 183 -85.5t44 -192.5q-18 -102 -100 -176t-198 -74zM271 146q44 0 77 29t41 75t-14.5 75t-66.5 29q-43 0 -76 -29t-41 -75t14.5 -75t65.5 -29z" />
    <glyph glyph-name="oacute" unicode="&#xf3;" horiz-adv-x="583" 
d="M257 565h163l136 145h-198zM258 -14q-85 0 -143.5 42.5t-79.5 105.5t-8 132q20 104 100.5 176t201.5 72q120 0 183 -85.5t44 -192.5q-18 -102 -100 -176t-198 -74zM271 146q44 0 77 29t41 75t-14.5 75t-66.5 29q-43 0 -76 -29t-41 -75t14.5 -75t65.5 -29z" />
    <glyph glyph-name="ocircumflex" unicode="&#xf4;" horiz-adv-x="583" 
d="M352 611l-50 -56h-151l133 155h156h11l79 -155h-149zM329 514q120 0 183 -85.5t44 -192.5q-18 -102 -100 -176t-198 -74q-85 0 -143.5 42.5t-79.5 105.5t-8 132q20 104 100.5 176t201.5 72zM389 250q8 46 -14.5 75t-66.5 29q-43 0 -76 -29t-41 -75t14.5 -75t65.5 -29
q44 0 77 29t41 75z" />
    <glyph glyph-name="otilde" unicode="&#xf5;" horiz-adv-x="583" 
d="M167 558q6 60 28 99t53 52.5t64 11.5t63 -20q17 -10 26.5 -13.5t18 4t12.5 28.5h122q-6 -60 -29 -99t-53.5 -52.5t-63.5 -11t-63 20.5q-21 16 -36.5 13.5t-20.5 -33.5h-121zM258 -14q-85 0 -143.5 42.5t-79.5 105.5t-8 132q20 104 100.5 176t201.5 72q120 0 183 -85.5
t44 -192.5q-18 -102 -100 -176t-198 -74zM271 146q44 0 77 29t41 75t-14.5 75t-66.5 29q-43 0 -76 -29t-41 -75t14.5 -75t65.5 -29z" />
    <glyph glyph-name="odieresis" unicode="&#xf6;" horiz-adv-x="583" 
d="M182 560l25 140h139l-25 -140h-139zM371 560l25 140h140l-25 -140h-140zM258 -14q-85 0 -143.5 42.5t-79.5 105.5t-8 132q20 104 100.5 176t201.5 72q120 0 183 -85.5t44 -192.5q-18 -102 -100 -176t-198 -74zM271 146q44 0 77 29t41 75t-14.5 75t-66.5 29q-43 0 -76 -29
t-41 -75t14.5 -75t65.5 -29z" />
    <glyph glyph-name="divide" unicode="&#xf7;" horiz-adv-x="551" 
d="M314 459q-40 0 -63.5 28.5t-16.5 68.5q8 41 39 67t71 26t63.5 -28.5t15.5 -68.5q-7 -40 -37.5 -66.5t-71.5 -26.5zM39 271l28 158h480l-28 -158h-480zM242 51q-40 0 -63.5 28.5t-16.5 68.5t38.5 66.5t71.5 26.5t63.5 -28.5t16.5 -68.5q-8 -41 -39 -67t-71 -26z" />
    <glyph glyph-name="oslash" unicode="&#xf8;" horiz-adv-x="583" 
d="M574 500l-65 -68q66 -84 47 -196q-18 -103 -98.5 -176.5t-199.5 -73.5q-82 0 -143 41l-26 -27h-88l69 71q-64 81 -43 195q20 104 100.5 176t201.5 72q78 0 134 -39l23 25h88zM193 250q-5 -31 2 -50l145 150q-18 4 -30 4q-44 0 -76.5 -29t-40.5 -75zM391 250q6 31 -4 57
l-150 -154q15 -7 36 -7q44 0 77 29t41 75z" />
    <glyph glyph-name="ugrave" unicode="&#xf9;" 
d="M405 555h-154l-95 145h188zM366 500h166l-88 -500h-166l7 42q-45 -56 -126 -56q-72 0 -110 54t-23 141l57 319h166l-52 -299q-10 -58 45 -58q57 0 72 64z" />
    <glyph glyph-name="uacute" unicode="&#xfa;" 
d="M524 700l-136 -145h-163l101 145h198zM366 500h166l-88 -500h-166l7 42q-45 -56 -126 -56q-72 0 -110 54t-23 141l57 319h166l-52 -299q-10 -58 45 -58q57 0 72 64z" />
    <glyph glyph-name="ucircumflex" unicode="&#xfb;" 
d="M320 601l-50 -56h-151l133 155h156h11l79 -155h-149zM366 500h166l-88 -500h-166l7 42q-45 -56 -126 -56q-72 0 -110 54t-23 141l57 319h166l-52 -299q-10 -58 45 -58q57 0 72 64z" />
    <glyph glyph-name="udieresis" unicode="&#xfc;" 
d="M314 690l-25 -140h-139l25 140h139zM504 690l-25 -140h-140l25 140h140zM366 500h166l-88 -500h-166l7 42q-45 -56 -126 -56q-72 0 -110 54t-23 141l57 319h166l-52 -299q-10 -58 45 -58q57 0 72 64z" />
    <glyph glyph-name="yacute" unicode="&#xfd;" horiz-adv-x="524" 
d="M229 555h163l136 145h-198zM388 500h185l-359 -700h-176l105 205l-104 495h169l50 -282z" />
    <glyph glyph-name="thorn" unicode="&#xfe;" horiz-adv-x="615" 
d="M389 514q104 0 161 -81.5t39 -192.5q-18 -107 -92.5 -180.5t-180.5 -73.5q-92 0 -137 61l-44 -247h-166l158 900h166l-40 -230q57 44 136 44zM423 250q8 49 -14.5 78t-69.5 29t-81.5 -29t-43.5 -77v-1q-8 -48 16 -77.5t71 -29.5t80.5 29t41.5 78z" />
    <glyph glyph-name="ydieresis" unicode="&#xff;" horiz-adv-x="524" 
d="M153 550l25 140h139l-25 -140h-139zM342 550l25 140h140l-25 -140h-140zM388 500h185l-359 -700h-176l105 205l-104 495h169l50 -282z" />
    <glyph glyph-name="Amacron" unicode="&#x100;" horiz-adv-x="660" 
d="M596 884l-23 -130h-309l22 130h310zM430 0l-10 101h-225l-47 -101h-197l351 700h214l105 -700h-191zM267 255h137l-24 242z" />
    <glyph glyph-name="amacron" unicode="&#x101;" horiz-adv-x="514" 
d="M495 694l-23 -130h-309l22 130h310zM303 514q86 0 142.5 -55.5t41.5 -143.5l-56 -315h-160l4 24q-47 -38 -120 -38t-116.5 45.5t-30.5 120.5q13 74 65.5 110t123.5 36q70 0 120 -39l9 51q8 56 -44 56q-26 0 -41.5 -12t-18.5 -31h-160q16 92 82.5 141.5t158.5 49.5z
M173 143q-4 -21 9.5 -34t41.5 -13q29 0 48.5 12.5t23.5 32.5q4 22 -12 34.5t-44 12.5q-60 0 -67 -45z" />
    <glyph glyph-name="Abreve" unicode="&#x102;" horiz-adv-x="660" 
d="M424 737q-85 0 -129.5 44t-30.5 116h140q-8 -44 32 -44q39 0 47 44h140q-25 -160 -199 -160zM302 700h214l105 -700h-191l-10 101h-225l-47 -101h-197zM267 255h137l-24 242z" />
    <glyph glyph-name="abreve" unicode="&#x103;" horiz-adv-x="514" 
d="M323 547q-85 0 -129.5 44t-30.5 116h140q-8 -44 32 -44q39 0 47 44h140q-25 -160 -199 -160zM303 514q86 0 142.5 -55.5t41.5 -143.5l-56 -315h-160l4 24q-47 -38 -120 -38t-116.5 45.5t-30.5 120.5q13 74 65.5 110t123.5 36q70 0 120 -39l9 51q8 56 -44 56
q-26 0 -41.5 -12t-18.5 -31h-160q16 92 82.5 141.5t158.5 49.5zM173 143q-4 -21 9.5 -34t41.5 -13q29 0 48.5 12.5t23.5 32.5q4 22 -12 34.5t-44 12.5q-60 0 -67 -45z" />
    <glyph glyph-name="Aogonek" unicode="&#x104;" horiz-adv-x="660" 
d="M564 -75q-5 -24 18 -24q10 0 22 3l-18 -101q-45 -17 -91 -17q-45 0 -71 26t-18 72q11 60 80 116h-56l-11 101h-225l-46 -101h-197l351 700h214l105 -700q-50 -44 -57 -75zM265 255h138l-26 242z" />
    <glyph glyph-name="aogonek" unicode="&#x105;" horiz-adv-x="515" 
d="M304 514q86 0 142.5 -55.5t41.5 -143.5l-56 -315q-52 -46 -57 -77q-5 -24 17 -24q6 -1 22 3l-17 -99q-42 -17 -89 -17q-45 0 -70 24t-22 63q5 66 85 127h-29l4 24q-48 -38 -120 -38q-74 0 -117.5 45.5t-30.5 120.5q13 73 66 109.5t123 36.5q71 0 120 -40l10 52
q8 56 -45 56q-26 0 -41 -12t-18 -31h-160q16 92 82.5 141.5t158.5 49.5zM174 143q-4 -21 9.5 -34t41.5 -13q29 0 48.5 13t23.5 33q4 22 -11.5 34t-44.5 12q-60 0 -67 -45z" />
    <glyph glyph-name="Cacute" unicode="&#x106;" horiz-adv-x="752" 
d="M394 765h163l136 145h-198zM355 -15q-156 0 -246 110t-62 265q27 156 143 255.5t277 99.5q130 0 218 -82t86 -202h-186q-5 50 -44 79.5t-97 29.5q-83 0 -143.5 -52.5t-75.5 -137.5q-15 -84 26.5 -137t125.5 -53q59 0 108.5 29.5t71.5 79.5h186q-41 -128 -148 -206
t-240 -78z" />
    <glyph glyph-name="cacute" unicode="&#x107;" horiz-adv-x="559" 
d="M257 560h163l136 145h-198zM537 199q-28 -98 -105.5 -155.5t-177.5 -57.5q-114 0 -181 81t-47 193t103.5 183t198.5 71q97 0 163.5 -63t63.5 -150h-174q-3 24 -22.5 37.5t-48.5 13.5q-43 0 -76.5 -28.5t-40.5 -73.5q-8 -45 15 -73.5t66 -28.5q65 0 90 51h173z" />
    <glyph glyph-name="Cdotaccent" unicode="&#x10a;" horiz-adv-x="752" 
d="M403 758l26 154h160l-27 -154h-159zM355 -15q-156 0 -246 110t-62 265q27 156 143 255.5t277 99.5q130 0 218 -82t86 -202h-186q-5 50 -44 79.5t-97 29.5q-83 0 -143.5 -52.5t-75.5 -137.5q-15 -84 26.5 -137t125.5 -53q59 0 108.5 29.5t71.5 79.5h186
q-41 -128 -148 -206t-240 -78z" />
    <glyph glyph-name="cdotaccent" unicode="&#x10b;" horiz-adv-x="559" 
d="M266 553l26 154h160l-27 -154h-159zM537 199q-28 -98 -105.5 -155.5t-177.5 -57.5q-114 0 -181 81t-47 193t103.5 183t198.5 71q97 0 163.5 -63t63.5 -150h-174q-3 24 -22.5 37.5t-48.5 13.5q-43 0 -76.5 -28.5t-40.5 -73.5q-8 -45 15 -73.5t66 -28.5q65 0 90 51h173z
" />
    <glyph glyph-name="Ccaron" unicode="&#x10c;" horiz-adv-x="752" 
d="M394 755l-79 155h145l30 -56l49 56h155l-133 -155h-167zM444 540q-83 0 -143.5 -52.5t-75.5 -137.5q-15 -84 26.5 -137t125.5 -53q59 0 108.5 29.5t71.5 79.5h186q-41 -128 -148 -206t-240 -78q-156 0 -246 110t-62 265q27 156 143 255.5t277 99.5q130 0 218 -82t86 -202
h-186q-5 50 -44 79.5t-97 29.5z" />
    <glyph glyph-name="ccaron" unicode="&#x10d;" horiz-adv-x="559" 
d="M257 550l-79 155h145l30 -56l49 56h155l-133 -155h-167zM328 514q97 0 163.5 -63t63.5 -150h-174q-3 24 -22.5 37.5t-48.5 13.5q-43 0 -76.5 -28.5t-40.5 -73.5q-8 -45 15 -73.5t66 -28.5q65 0 90 51h173q-28 -98 -105.5 -155.5t-177.5 -57.5q-114 0 -181 81t-47 193
t103.5 183t198.5 71z" />
    <glyph glyph-name="Dcaron" unicode="&#x10e;" horiz-adv-x="729" 
d="M329 745l-79 155h145l30 -56l49 56h155l-133 -155h-167zM439 700q138 0 221 -106t57 -254q-27 -150 -137 -245t-264 -95h-250h-55l123 700h184h121zM543 353q13 79 -24 126.5t-110 47.5h-122l-62 -354h116q76 0 131.5 49.5t70.5 130.5z" />
    <glyph glyph-name="dcaron" unicode="&#x10f;" horiz-adv-x="758" 
d="M438 455l43 245h166l-123 -700h-166l5 30q-57 -44 -137 -44q-112 0 -166 81.5t-34 193.5q19 108 95 180.5t183 72.5q89 0 134 -59zM698 700h154l-73 -219h-130zM278 143q45 0 79 28t44 74l1 9q7 47 -16.5 75t-69.5 28q-47 0 -81.5 -29.5t-42.5 -77.5q-8 -49 15.5 -78
t70.5 -29z" />
    <glyph glyph-name="Dcroat" unicode="&#x110;" horiz-adv-x="759" 
d="M469 700q138 0 221 -106t57 -254q-27 -150 -137 -245t-264 -95h-250h-55l46 263h-74l28 158h74l49 279h183h122zM572 353q14 79 -23 126.5t-110 47.5h-122l-19 -106h132l-27 -158h-133l-16 -90h117q76 0 131.5 49.5t69.5 130.5z" />
    <glyph glyph-name="dcroat" unicode="&#x111;" horiz-adv-x="625" 
d="M695 645l-19 -106h-57l-95 -539h-166l5 29q-55 -43 -137 -43q-112 0 -166.5 81t-34.5 189q19 105 95 177t182 72q89 0 134 -60l17 94h-137l19 106h136l10 55h166l-10 -55h58zM191 245q-8 -46 16 -75t71 -29t81 29t42 75q8 47 -15.5 76t-70.5 29t-81.5 -29t-42.5 -76z" />
    <glyph glyph-name="Emacron" unicode="&#x112;" horiz-adv-x="512" 
d="M534 884l-23 -130h-309l22 130h310zM529 532h-246l-17 -99h221l-28 -159h-221l-18 -106h250l-29 -168h-375h-55l123 700h179h246z" />
    <glyph glyph-name="emacron" unicode="&#x113;" horiz-adv-x="569" 
d="M526 691l-23 -130h-309l22 130h310zM328 514q107 0 172 -77.5t45 -185.5q-7 -35 -17 -62h-156h-187q12 -75 92 -75q56 0 79 32h156q-34 -80 -101.5 -120t-155.5 -40q-118 0 -183.5 80.5t-45.5 193.5t102.5 183.5t199.5 70.5zM204 305h191q-5 69 -79 69q-78 0 -112 -69z
" />
    <glyph glyph-name="Edotaccent" unicode="&#x116;" horiz-adv-x="512" 
d="M462 902l-27 -154h-159l26 154h160zM529 532h-246l-17 -99h221l-28 -159h-221l-18 -106h250l-29 -168h-375h-55l123 700h179h246z" />
    <glyph glyph-name="edotaccent" unicode="&#x117;" horiz-adv-x="569" 
d="M454 709l-27 -154h-159l26 154h160zM328 514q107 0 172 -77.5t45 -185.5q-7 -35 -17 -62h-156h-187q12 -75 92 -75q56 0 79 32h156q-34 -80 -101.5 -120t-155.5 -40q-118 0 -183.5 80.5t-45.5 193.5t102.5 183.5t199.5 70.5zM204 305h191q-5 69 -79 69q-78 0 -112 -69z
" />
    <glyph glyph-name="Eogonek" unicode="&#x118;" horiz-adv-x="512" 
d="M529 532h-246l-17 -99h221l-28 -159h-221l-18 -106h250l-29 -168q-52 -48 -57 -78q-5 -23 17 -23q6 -1 23 3l-18 -99q-45 -17 -91 -17t-71.5 23t-17.5 68q11 58 84 123h-244h-55l123 700h179h246z" />
    <glyph glyph-name="eogonek" unicode="&#x119;" horiz-adv-x="569" 
d="M328 514q107 0 172 -77.5t45 -185.5q-7 -35 -17 -62h-156h-187q12 -75 92 -75q56 0 79 32h156q-29 -66 -78 -103q-78 -75 -90 -116q-4 -12 1 -20t16 -8t22 3l-18 -99q-42 -17 -89 -17q-46 0 -72.5 26t-18.5 68q9 53 76 106h-6q-118 0 -183.5 80.5t-45.5 193.5
t102.5 183.5t199.5 70.5zM204 305h191q-5 69 -79 69q-78 0 -112 -69z" />
    <glyph glyph-name="Ecaron" unicode="&#x11a;" horiz-adv-x="512" 
d="M267 745l-79 155h145l30 -56l49 56h155l-133 -155h-167zM559 700l-30 -168h-246l-17 -99h221l-28 -159h-221l-18 -106h250l-29 -168h-375h-55l123 700h425z" />
    <glyph glyph-name="ecaron" unicode="&#x11b;" horiz-adv-x="569" 
d="M258 552l-79 155h145l30 -56l49 56h155l-133 -155h-167zM328 514q107 0 172 -77.5t45 -185.5q-7 -35 -17 -62h-156h-187q12 -75 92 -75q56 0 79 32h156q-34 -80 -101.5 -120t-155.5 -40q-118 0 -183.5 80.5t-45.5 193.5t102.5 183.5t199.5 70.5zM204 305h191
q-5 69 -79 69q-78 0 -112 -69z" />
    <glyph glyph-name="Gbreve" unicode="&#x11e;" horiz-adv-x="779" 
d="M489 747q-85 0 -129.5 44t-30.5 116h140q-8 -44 32 -44q39 0 47 44h140q-25 -160 -199 -160zM423 385h340l-13 -75l-55 -310h-159l10 59q-80 -74 -209 -74q-150 0 -234 110t-56 265q27 156 143 255.5t275 99.5q125 0 214 -76t96 -182h-188q-12 36 -50 59.5t-92 23.5
q-84 0 -144.5 -52.5t-75.5 -137.5q-16 -91 25.5 -145.5t124.5 -54.5q118 0 173 86h-151z" />
    <glyph glyph-name="gbreve" unicode="&#x11f;" horiz-adv-x="619" 
d="M365 547q-85 0 -129.5 44t-30.5 116h140q-8 -44 32 -44q39 0 47 44h140q-25 -160 -199 -160zM451 500h164l-85 -480q-21 -120 -104.5 -177.5t-190.5 -57.5t-174 53t-52 154h163q-3 -29 19.5 -45.5t63.5 -16.5q43 0 73 22.5t38 67.5l5 28q-53 -42 -137 -42q-113 0 -166 78
t-37 183q14 99 89 173t182 74q95 0 140 -62zM284 158q45 0 79 26t44 68l3 15q5 42 -20 68.5t-70 26.5q-47 0 -81 -28.5t-42 -73.5t16 -73.5t71 -28.5z" />
    <glyph glyph-name="Gdotaccent" unicode="&#x120;" horiz-adv-x="779" 
d="M589 912l-27 -154h-159l26 154h160zM423 385h340l-13 -75l-55 -310h-159l10 59q-80 -74 -209 -74q-150 0 -234 110t-56 265q27 156 143 255.5t275 99.5q125 0 214 -76t96 -182h-188q-12 36 -50 59.5t-92 23.5q-84 0 -144.5 -52.5t-75.5 -137.5q-16 -91 25.5 -145.5
t124.5 -54.5q118 0 173 86h-151z" />
    <glyph glyph-name="gdotaccent" unicode="&#x121;" horiz-adv-x="619" 
d="M465 712l-27 -154h-159l26 154h160zM451 500h164l-85 -480q-21 -120 -104.5 -177.5t-190.5 -57.5t-174 53t-52 154h163q-3 -29 19.5 -45.5t63.5 -16.5q43 0 73 22.5t38 67.5l5 28q-53 -42 -137 -42q-113 0 -166 78t-37 183q14 99 89 173t182 74q95 0 140 -62zM284 158
q45 0 79 26t44 68l3 15q5 42 -20 68.5t-70 26.5q-47 0 -81 -28.5t-42 -73.5t16 -73.5t71 -28.5z" />
    <glyph glyph-name="Gcommaaccent" unicode="&#x122;" horiz-adv-x="779" 
d="M423 385h340l-13 -75l-55 -310h-159l10 59q-80 -74 -209 -74q-150 0 -234 110t-56 265q27 156 143 255.5t275 99.5q125 0 214 -76t96 -182h-188q-12 36 -50 59.5t-92 23.5q-84 0 -144.5 -52.5t-75.5 -137.5q-16 -91 25.5 -145.5t124.5 -54.5q118 0 173 86h-151zM224 -277
l48 220h154l-73 -220h-129z" />
    <glyph glyph-name="gcommaaccent" unicode="&#x123;" horiz-adv-x="619" 
d="M475 795l-49 -220h-154l74 220h129zM451 500h164l-85 -480q-21 -120 -104.5 -177.5t-190.5 -57.5t-174 53t-52 154h163q-3 -29 19.5 -45.5t63.5 -16.5q43 0 73 22.5t38 67.5l5 28q-53 -42 -137 -42q-113 0 -166 78t-37 183q14 99 89 173t182 74q95 0 140 -62zM284 158
q45 0 79 26t44 68l3 15q5 42 -20 68.5t-70 26.5q-47 0 -81 -28.5t-42 -73.5t16 -73.5t71 -28.5z" />
    <glyph glyph-name="Hbar" unicode="&#x126;" horiz-adv-x="685" 
d="M732 608l-22 -130h-61l-84 -478h-178l38 220h-176l-39 -220h-179l84 478h-59l22 130h60l16 92h179l-16 -92h177l16 92h178l-16 -92h60zM456 393l15 85h-177l-15 -85h177z" />
    <glyph glyph-name="hbar" unicode="&#x127;" horiz-adv-x="546" 
d="M382 502q71 0 110 -56t24 -144l-53 -302h-166l50 288q5 28 -7 43t-38 15q-58 0 -72 -63l-50 -283h-166l94 539h-57l19 106h57l10 55h166l-10 -55h136l-19 -106h-135l-15 -85q46 48 122 48z" />
    <glyph glyph-name="Imacron" unicode="&#x12a;" horiz-adv-x="289" 
d="M79 754l22 130h310l-23 -130h-309zM134 700h179l-123 -700h-179z" />
    <glyph glyph-name="imacron" unicode="&#x12b;" horiz-adv-x="262" 
d="M56 554l23 135h259l-23 -135h-259zM4 0l88 500h166l-88 -500h-166z" />
    <glyph glyph-name="Iogonek" unicode="&#x12e;" horiz-adv-x="289" 
d="M190 0q-47 -49 -50 -79q-3 -22 19 -22q6 -1 22 3l-18 -99q-45 -17 -91 -17t-70.5 26.5t-18.5 68.5q9 59 75 119h-47l123 700h179z" />
    <glyph glyph-name="iogonek" unicode="&#x12f;" horiz-adv-x="262" 
d="M127 700h166l-25 -145h-166zM4 0l88 500h166l-88 -500q-42 -48 -46 -79q-3 -22 18 -22q6 -1 22 3l-18 -99q-43 -17 -91 -17q-45 0 -69.5 26t-19.5 66q5 52 66 122h-28z" />
    <glyph glyph-name="Idotaccent" unicode="&#x130;" horiz-adv-x="289" 
d="M153 748l26 154h160l-27 -154h-159zM134 700h179l-123 -700h-179z" />
    <glyph glyph-name="dotlessi" unicode="&#x131;" horiz-adv-x="262" 
d="M4 0l88 500h166l-88 -500h-166z" />
    <glyph glyph-name="Kcommaaccent" unicode="&#x136;" horiz-adv-x="631" 
d="M711 700l-298 -348l178 -352h-185l-160 319l-56 -319h-179l123 700h179l-50 -284l239 284h209zM138 -277l48 220h154l-73 -220h-129z" />
    <glyph glyph-name="kcommaaccent" unicode="&#x137;" horiz-adv-x="537" 
d="M573 500l-210 -251l130 -249h-178l-106 219l-39 -219h-166l123 700h166l-69 -397l158 197h191zM111 -277l48 220h154l-73 -220h-129z" />
    <glyph glyph-name="Lacute" unicode="&#x139;" horiz-adv-x="470" 
d="M450 900l-136 -145h-163l101 145h198zM220 173h231l-30 -173h-382h-28l123 700h179z" />
    <glyph glyph-name="lacute" unicode="&#x13a;" horiz-adv-x="262" 
d="M135 755h163l136 145h-198zM4 0l56 321l71 399h166l-71 -404l-56 -316h-166z" />
    <glyph glyph-name="Lcommaaccent" unicode="&#x13b;" horiz-adv-x="470" 
d="M220 173h231l-30 -173h-382h-28l123 700h179zM84 -277l48 220h154l-73 -220h-129z" />
    <glyph glyph-name="lcommaaccent" unicode="&#x13c;" horiz-adv-x="262" 
d="M4 0l56 321l71 399h166l-71 -404l-56 -316h-166zM81 -277l73 220h-154l-48 -220h129z" />
    <glyph glyph-name="Lcaron" unicode="&#x13d;" horiz-adv-x="470" 
d="M313 700l-93 -527h231l-30 -173h-382h-28l123 700h179zM371 700h164l-69 -199h-139z" />
    <glyph glyph-name="lcaron" unicode="&#x13e;" horiz-adv-x="397" 
d="M4 0l56 321l71 399h166l-71 -404l-56 -316h-166zM421 501l74 219h-154l-49 -219h129z" />
    <glyph glyph-name="Lslash" unicode="&#x141;" horiz-adv-x="500" 
d="M250 173h231l-30 -173h-382h-28l35 199l-66 -36l31 177l66 36l57 324h179l-38 -215l133 73l-31 -177l-133 -73z" />
    <glyph glyph-name="lslash" unicode="&#x142;" horiz-adv-x="279" 
d="M319 507l-27 -157l-57 -32v-2l-56 -316h-166l37 212l-57 -33l28 157l57 33l62 351h166l-43 -245z" />
    <glyph glyph-name="Nacute" unicode="&#x143;" horiz-adv-x="655" 
d="M324 755h163l136 145h-198zM500 700h178l-123 -700h-138l-163 362l-64 -362h-179l123 700h139l163 -362z" />
    <glyph glyph-name="nacute" unicode="&#x144;" 
d="M532 710l-136 -145h-163l101 145h198zM377 514q71 0 109 -56t22 -145l-55 -313h-166l53 299q9 59 -45 59q-58 0 -73 -65l-52 -293h-166l88 500h166l-7 -42q53 56 126 56z" />
    <glyph glyph-name="Ncommaaccent" unicode="&#x145;" horiz-adv-x="655" 
d="M500 700h178l-123 -700h-138l-163 362l-64 -362h-179l123 700h139l163 -362zM285 -277l73 220h-154l-48 -220h129z" />
    <glyph glyph-name="ncommaaccent" unicode="&#x146;" 
d="M377 514q71 0 109 -56t22 -145l-55 -313h-166l53 299q9 59 -45 59q-58 0 -73 -65l-52 -293h-166l88 500h166l-7 -42q53 56 126 56zM104 -277l48 220h154l-73 -220h-129z" />
    <glyph glyph-name="Ncaron" unicode="&#x147;" horiz-adv-x="655" 
d="M324 745l-79 155h145l30 -56l49 56h155l-133 -155h-167zM500 700h178l-123 -700h-138l-163 362l-64 -362h-179l123 700h139l163 -362z" />
    <glyph glyph-name="ncaron" unicode="&#x148;" 
d="M233 555l-79 155h145l30 -56l49 56h155l-133 -155h-167zM377 514q71 0 109 -56t22 -145l-55 -313h-166l53 299q9 59 -45 59q-58 0 -73 -65l-52 -293h-166l88 500h166l-7 -42q53 56 126 56z" />
    <glyph glyph-name="Eng" unicode="&#x14a;" horiz-adv-x="655" 
d="M500 700h178l-123 -700q-20 -112 -87.5 -162t-193.5 -45l27 152q73 -3 83 55l9 52l-139 310l-64 -362h-179l123 700h139l163 -362z" />
    <glyph glyph-name="eng" unicode="&#x14b;" 
d="M375 514q71 0 110 -55.5t24 -140.5l-56 -318q-20 -117 -83 -167t-178 -42l27 150q57 -5 68 59l53 299q9 59 -45 59q-60 0 -74 -68l-51 -290h-166l88 500h166l-7 -41q52 55 124 55z" />
    <glyph glyph-name="Omacron" unicode="&#x14c;" horiz-adv-x="790" 
d="M331 764l22 130h310l-23 -130h-309zM360 -15q-106 0 -185 53t-112 139t-16 184q25 150 142 252t278 102q159 0 247.5 -111.5t63.5 -262.5q-26 -151 -141 -253.5t-277 -102.5zM376 160q81 0 145.5 53.5t78.5 136.5q15 83 -29 136.5t-125 53.5t-143.5 -53.5t-77.5 -136.5
q-15 -84 27.5 -137t123.5 -53z" />
    <glyph glyph-name="omacron" unicode="&#x14d;" horiz-adv-x="583" 
d="M193 564l22 130h310l-23 -130h-309zM258 -14q-85 0 -143.5 42.5t-79.5 105.5t-8 132q20 104 100.5 176t201.5 72q120 0 183 -85.5t44 -192.5q-18 -102 -100 -176t-198 -74zM271 146q44 0 77 29t41 75t-14.5 75t-66.5 29q-43 0 -76 -29t-41 -75t14.5 -75t65.5 -29z" />
    <glyph glyph-name="Ohungarumlaut" unicode="&#x150;" horiz-adv-x="790" 
d="M295 755h157l113 150h-164zM487 755h158l122 150h-163zM360 -15q-106 0 -185 53t-112 139t-16 184q25 150 142 252t278 102q159 0 247.5 -111.5t63.5 -262.5q-26 -151 -141 -253.5t-277 -102.5zM376 160q81 0 145.5 53.5t78.5 136.5q15 83 -29 136.5t-125 53.5
t-143.5 -53.5t-77.5 -136.5q-15 -84 27.5 -137t123.5 -53z" />
    <glyph glyph-name="ohungarumlaut" unicode="&#x151;" horiz-adv-x="583" 
d="M156 555h157l113 150h-164zM348 555h158l122 150h-163zM258 -14q-85 0 -143.5 42.5t-79.5 105.5t-8 132q20 104 100.5 176t201.5 72q120 0 183 -85.5t44 -192.5q-18 -102 -100 -176t-198 -74zM271 146q44 0 77 29t41 75t-14.5 75t-66.5 29q-43 0 -76 -29t-41 -75
t14.5 -75t65.5 -29z" />
    <glyph glyph-name="OE" unicode="&#x152;" horiz-adv-x="932" 
d="M949 532h-226l-17 -99h201l-29 -159h-200l-19 -106h231l-30 -168h-354h-55q-54 -15 -108 -15q-156 0 -239 109t-58 262q24 149 141 254t275 105q64 0 112 -15h179h225zM482 175l61 349q-41 16 -102 16q-80 0 -140.5 -53t-75.5 -137t25.5 -137t120.5 -53q63 0 111 15z" />
    <glyph glyph-name="oe" unicode="&#x153;" horiz-adv-x="934" 
d="M698 514q104 0 168 -76.5t44 -186.5q-4 -28 -17 -62h-156h-187q12 -75 92 -75q52 0 79 32h156q-77 -160 -247 -160q-122 0 -182 86q-78 -86 -200 -86q-84 0 -139.5 41t-74.5 102t-8 131q18 105 96.5 179.5t198.5 74.5q118 0 175 -88q82 88 202 88zM569 305h191
q-5 69 -79 69q-77 0 -112 -69zM392 250q8 46 -15.5 75t-66.5 29q-44 0 -77 -29t-41 -75t15 -75t66 -29q44 0 77.5 29t41.5 75z" />
    <glyph glyph-name="Racute" unicode="&#x154;" horiz-adv-x="630" 
d="M578 900l-136 -145h-163l101 145h198zM614 448q-26 -136 -152 -194l144 -254h-193l-126 226h-57l-40 -226h-179l124 700h178h86q104 0 169 -74t46 -178zM284 535l-27 -153h92q33 -1 56.5 20t29.5 56t-11.5 56t-53.5 21h-86z" />
    <glyph glyph-name="racute" unicode="&#x155;" horiz-adv-x="352" 
d="M458 700l-136 -145h-163l101 145h198zM245 427q44 83 145 83l-32 -184q-49 8 -92 -17.5t-56 -83.5l-40 -225h-166l88 500h166z" />
    <glyph glyph-name="Rcommaaccent" unicode="&#x156;" horiz-adv-x="630" 
d="M614 448q-26 -136 -152 -194l144 -254h-193l-126 226h-57l-40 -226h-179l124 700h178h86q104 0 169 -74t46 -178zM284 535l-27 -153h92q33 -1 56.5 20t29.5 56t-11.5 56t-53.5 21h-86zM174 -277l48 220h154l-73 -220h-129z" />
    <glyph glyph-name="rcommaaccent" unicode="&#x157;" horiz-adv-x="352" 
d="M245 427q44 83 145 83l-32 -184q-49 8 -92 -17.5t-56 -83.5l-40 -225h-166l88 500h166zM-49 -277l48 220h154l-73 -220h-129z" />
    <glyph glyph-name="Rcaron" unicode="&#x158;" horiz-adv-x="630" 
d="M279 745l-79 155h145l30 -56l49 56h155l-133 -155h-167zM614 448q-26 -136 -152 -194l144 -254h-193l-126 226h-57l-40 -226h-179l124 700h178h86q104 0 169 -74t46 -178zM284 535l-27 -153h92q33 -1 56.5 20t29.5 56t-11.5 56t-53.5 21h-86z" />
    <glyph glyph-name="rcaron" unicode="&#x159;" horiz-adv-x="352" 
d="M158 545l-79 155h145l30 -56l49 56h155l-133 -155h-167zM245 427q44 83 145 83l-32 -184q-49 8 -92 -17.5t-56 -83.5l-40 -225h-166l88 500h166z" />
    <glyph glyph-name="Sacute" unicode="&#x15a;" horiz-adv-x="550" 
d="M272 765h163l136 145h-198zM243 -15q-116 0 -184.5 61.5t-47.5 177.5h178q-6 -36 12.5 -52.5t64.5 -16.5q72 0 81 48q4 24 -20 38.5t-77 32.5q-41 14 -71.5 30t-62 43.5t-44.5 69t-4 93.5q18 102 93 153.5t179 51.5q105 0 170.5 -61t45.5 -173h-178q11 64 -61 64
q-30 0 -48.5 -12.5t-21.5 -32.5q-3 -14 3 -25t22.5 -20.5t30 -15.5t41.5 -16q41 -14 71.5 -30.5t61.5 -43.5t43.5 -67.5t3.5 -91.5q-18 -103 -93 -154t-188 -51z" />
    <glyph glyph-name="sacute" unicode="&#x15b;" horiz-adv-x="483" 
d="M500 710l-136 -145h-163l101 145h198zM280 514q84 0 139.5 -47t40.5 -131h-162q8 45 -34 45q-44 0 -49 -30q-3 -19 21.5 -29t61 -18.5t72 -22.5t56 -50t10.5 -92q-15 -81 -78.5 -117t-155.5 -36q-91 0 -147.5 45.5t-41.5 132.5h164q-8 -45 42 -45q46 0 51 30
q3 15 -14.5 25.5t-45 16t-58.5 17t-57 27.5t-39.5 48.5t-5.5 77.5q14 78 79.5 115.5t150.5 37.5z" />
    <glyph glyph-name="Scedilla" unicode="&#x15e;" horiz-adv-x="550" 
d="M556 481h-178q11 64 -61 64q-30 0 -48.5 -12.5t-21.5 -32.5q-3 -14 3 -25t22.5 -20.5t30 -15.5t41.5 -16q41 -14 71.5 -30.5t61.5 -43.5t43.5 -67.5t3.5 -91.5q-15 -87 -71.5 -137t-143.5 -63l-6 -36q54 -25 43 -86q-19 -105 -250 -89l19 109q93 -7 98 14q3 17 -50 20
l12 69q-88 17 -134.5 76t-29.5 157h178q-6 -36 12.5 -52.5t64.5 -16.5q72 0 81 48q4 24 -20 38.5t-77 32.5q-41 14 -71.5 30t-62 43.5t-44.5 69t-4 93.5q18 102 93 153.5t179 51.5q105 0 170.5 -61t45.5 -173z" />
    <glyph glyph-name="scedilla" unicode="&#x15f;" horiz-adv-x="483" 
d="M460 336h-162q8 45 -34 45q-44 0 -49 -30q-3 -19 21.5 -29t61 -18.5t72 -22.5t56 -50t10.5 -92q-21 -121 -162 -147l-7 -38q54 -25 43 -86q-19 -105 -250 -89l19 109q93 -7 98 14q3 17 -50 20l13 70q-67 14 -103.5 57.5t-23.5 114.5h164q-8 -45 42 -45q46 0 51 30
q3 15 -14.5 25.5t-45 16t-58.5 17t-57 27.5t-39.5 48.5t-5.5 77.5q14 78 79.5 115.5t150.5 37.5q84 0 139.5 -47t40.5 -131z" />
    <glyph glyph-name="Scaron" unicode="&#x160;" horiz-adv-x="550" 
d="M272 755l-79 155h145l30 -56l49 56h155l-133 -155h-167zM340 715q105 0 170.5 -61t45.5 -173h-178q11 64 -61 64q-30 0 -48.5 -12.5t-21.5 -32.5q-3 -14 3 -25t22.5 -20.5t30 -15.5t41.5 -16q41 -14 71.5 -30.5t61.5 -43.5t43.5 -67.5t3.5 -91.5q-18 -103 -93 -154
t-188 -51q-116 0 -184.5 61.5t-47.5 177.5h178q-6 -36 12.5 -52.5t64.5 -16.5q72 0 81 48q4 24 -20 38.5t-77 32.5q-41 14 -71.5 30t-62 43.5t-44.5 69t-4 93.5q18 102 93 153.5t179 51.5z" />
    <glyph glyph-name="scaron" unicode="&#x161;" horiz-adv-x="483" 
d="M201 555l-79 155h145l30 -56l49 56h155l-133 -155h-167zM280 514q84 0 139.5 -47t40.5 -131h-162q8 45 -34 45q-44 0 -49 -30q-3 -19 21.5 -29t61 -18.5t72 -22.5t56 -50t10.5 -92q-15 -81 -78.5 -117t-155.5 -36q-91 0 -147.5 45.5t-41.5 132.5h164q-8 -45 42 -45
q46 0 51 30q3 15 -14.5 25.5t-45 16t-58.5 17t-57 27.5t-39.5 48.5t-5.5 77.5q14 78 79.5 115.5t150.5 37.5z" />
    <glyph glyph-name="uni0162" unicode="&#x162;" horiz-adv-x="500" 
d="M571 700l-30 -173h-153l-93 -527h-178l92 527h-153l31 173h331h153zM70 -277l48 220h154l-73 -220h-129z" />
    <glyph glyph-name="uni0163" unicode="&#x163;" horiz-adv-x="340" 
d="M371 500l-27 -159h-75l-60 -341h-166l60 341h-74l28 159h74l28 160h166l-28 -160h74zM-6 -277l48 220h154l-73 -220h-129z" />
    <glyph glyph-name="Tcaron" unicode="&#x164;" horiz-adv-x="500" 
d="M249 745l-79 155h145l30 -56l49 56h155l-133 -155h-167zM571 700l-30 -173h-153l-93 -527h-178l92 527h-153l31 173h331h153z" />
    <glyph glyph-name="tcaron" unicode="&#x165;" horiz-adv-x="437" 
d="M394 735h149l-68 -190h-125zM325 660l-28 -160h74l-27 -159h-75l-60 -341h-166l60 341h-74l28 159h74l28 160h166z" />
    <glyph glyph-name="Tbar" unicode="&#x166;" horiz-adv-x="500" 
d="M541 527h-153l-20 -115h106l-28 -158h-106l-45 -254h-178l44 254h-104l27 158h105l20 115h-153l31 173h331h153z" />
    <glyph glyph-name="tbar" unicode="&#x167;" horiz-adv-x="340" 
d="M344 341h-75l-8 -49h57l-23 -125h-56l-30 -167h-166l29 167h-57l23 125h56l9 49h-74l28 159h74l28 160h166l-28 -160h74z" />
    <glyph glyph-name="Umacron" unicode="&#x16a;" horiz-adv-x="621" 
d="M245 754l22 130h310l-23 -130h-309zM269 -15q-115 0 -181 66.5t-45 183.5l82 465h179l-82 -458q-14 -83 71 -83q88 0 102 83l81 458h178l-85 -485q-20 -117 -99.5 -173.5t-200.5 -56.5z" />
    <glyph glyph-name="umacron" unicode="&#x16b;" 
d="M493 684l-23 -130h-309l22 130h310zM366 500h166l-88 -500h-166l7 42q-45 -56 -126 -56q-72 0 -110 54t-23 141l57 319h166l-52 -299q-10 -58 45 -58q57 0 72 64z" />
    <glyph glyph-name="Uring" unicode="&#x16e;" horiz-adv-x="621" 
d="M397 733q-61 0 -95 39t-24 96t54.5 93t106.5 36q61 0 95.5 -39.5t23.5 -96.5q-10 -57 -53.5 -92.5t-107.5 -35.5zM412 833q35 0 40 31q3 14 -4.5 23.5t-24.5 9.5q-15 0 -25.5 -9t-12.5 -23q-5 -32 27 -32zM269 -15q-115 0 -181 66.5t-45 183.5l82 465h179l-82 -458
q-14 -83 71 -83q88 0 102 83l81 458h178l-85 -485q-20 -117 -99.5 -173.5t-200.5 -56.5z" />
    <glyph glyph-name="uring" unicode="&#x16f;" 
d="M313 533q-61 0 -95 39t-24 96t54.5 93t106.5 36q61 0 95.5 -39.5t23.5 -96.5q-10 -57 -53.5 -92.5t-107.5 -35.5zM301 665q-5 -32 27 -32q35 0 40 31q3 14 -4.5 23.5t-24.5 9.5q-15 0 -25.5 -9t-12.5 -23zM366 500h166l-88 -500h-166l7 42q-45 -56 -126 -56
q-72 0 -110 54t-23 141l57 319h166l-52 -299q-10 -58 45 -58q57 0 72 64z" />
    <glyph glyph-name="Uhungarumlaut" unicode="&#x170;" horiz-adv-x="621" 
d="M208 745h157l113 150h-164zM400 745h158l122 150h-163zM269 -15q-115 0 -181 66.5t-45 183.5l82 465h179l-82 -458q-14 -83 71 -83q88 0 102 83l81 458h178l-85 -485q-20 -117 -99.5 -173.5t-200.5 -56.5z" />
    <glyph glyph-name="uhungarumlaut" unicode="&#x171;" 
d="M394 695l-113 -150h-157l106 150h164zM474 545h-158l117 150h163zM314 207l52 293h166l-88 -500h-166l7 42q-45 -56 -126 -56q-72 0 -110 54t-23 141l57 319h166l-52 -299q-10 -58 45 -58q57 0 72 64z" />
    <glyph glyph-name="Uogonek" unicode="&#x172;" horiz-adv-x="620" 
d="M475 700h179l-85 -485q-22 -119 -104 -176q-103 -77 -111 -117q-7 -23 17 -23q6 -1 23 3l-18 -99q-45 -17 -91 -17q-45 0 -71 27.5t-18 73.5q10 52 64 98q-111 2 -174.5 66.5t-44.5 172.5l83 476h179l-81 -458q-14 -83 71 -83q87 0 101 83z" />
    <glyph glyph-name="uogonek" unicode="&#x173;" 
d="M366 500h166l-88 -500q-54 -49 -57 -82q-3 -19 18 -19q10 0 22 3l-18 -99q-38 -17 -85 -17q-48 0 -75.5 25t-19.5 70q10 57 82 119h-33l7 42q-45 -56 -126 -56q-72 0 -110 54t-23 141l57 319h166l-52 -299q-10 -58 45 -58q57 0 72 64z" />
    <glyph glyph-name="Wcircumflex" unicode="&#x174;" horiz-adv-x="900" 
d="M544 801l-50 -56h-151l133 155h156h11l79 -155h-149zM790 700h194l-319 -700h-179l-29 289l-131 -289h-179l-73 700h180l35 -447l141 313l-14 134h160l34 -434z" />
    <glyph glyph-name="wcircumflex" unicode="&#x175;" horiz-adv-x="740" 
d="M428 601l-50 -56h-151l133 155h156h11l79 -155h-149zM596 500h183l-241 -500h-154h-2l1 3l-24 185l-91 -188h-130h-24l-65 500h169l21 -288l92 192l-12 96h125l35 -274z" />
    <glyph glyph-name="Ycircumflex" unicode="&#x176;" horiz-adv-x="631" 
d="M409 801l-50 -56h-151l133 155h156h11l79 -155h-149zM710 700l-296 -396l-53 -304h-179l54 305l-157 395h190l76 -225l153 225h212z" />
    <glyph glyph-name="ycircumflex" unicode="&#x177;" horiz-adv-x="524" 
d="M323 601l-50 -56h-151l133 155h156h11l79 -155h-149zM388 500h185l-359 -700h-176l105 205l-104 495h169l50 -282z" />
    <glyph glyph-name="Ydieresis" unicode="&#x178;" horiz-adv-x="631" 
d="M403 890l-25 -140h-139l25 140h139zM593 890l-25 -140h-140l25 140h140zM710 700l-296 -396l-53 -304h-179l54 305l-157 395h190l76 -225l153 225h212z" />
    <glyph glyph-name="Zacute" unicode="&#x179;" horiz-adv-x="542" 
d="M576 900l-136 -145h-163l101 145h198zM591 700l-23 -138l-313 -389h251l-30 -173h-487l24 138l313 389h-240l31 173h474z" />
    <glyph glyph-name="zacute" unicode="&#x17a;" horiz-adv-x="455" 
d="M493 700l-136 -145h-163l101 145h198zM52 346l27 154h390l-20 -114l-212 -232h181l-27 -154h-410l21 114l211 232h-161z" />
    <glyph glyph-name="Zdotaccent" unicode="&#x17b;" horiz-adv-x="542" 
d="M472 902l-27 -154h-159l26 154h160zM591 700l-23 -138l-313 -389h251l-30 -173h-487l24 138l313 389h-240l31 173h474z" />
    <glyph glyph-name="zdotaccent" unicode="&#x17c;" horiz-adv-x="455" 
d="M389 702l-27 -154h-159l26 154h160zM469 500l-20 -114l-212 -232h181l-27 -154h-410l21 114l211 232h-161l27 154h390z" />
    <glyph glyph-name="Zcaron" unicode="&#x17d;" horiz-adv-x="542" 
d="M276 745l-79 155h145l30 -56l49 56h155l-133 -155h-167zM591 700l-23 -138l-313 -389h251l-30 -173h-487l24 138l313 389h-240l31 173h474z" />
    <glyph glyph-name="zcaron" unicode="&#x17e;" horiz-adv-x="455" 
d="M194 545l-79 155h145l30 -56l49 56h155l-133 -155h-167zM52 346l27 154h390l-20 -114l-212 -232h181l-27 -154h-410l21 114l211 232h-161z" />
    <glyph glyph-name="florin" unicode="&#x192;" horiz-adv-x="461" 
d="M240 537q27 80 75.5 124.5t105 51t120.5 -6.5l-29 -164q-25 16 -60 2.5t-49 -54.5l-20 -59h74l-28 -159h-101l-106 -303q-27 -80 -75.5 -124.5t-105 -51t-120.5 6.5l29 164q25 -16 60 -2.5t49 54.5l89 256h-69l29 159h95z" />
    <glyph glyph-name="Scommaaccent" unicode="&#x218;" horiz-adv-x="550" 
d="M243 -15q-116 0 -184.5 61.5t-47.5 177.5h178q-6 -36 12.5 -52.5t64.5 -16.5q72 0 81 48q4 24 -20 38.5t-77 32.5q-41 14 -71.5 30t-62 43.5t-44.5 69t-4 93.5q18 102 93 153.5t179 51.5q105 0 170.5 -61t45.5 -173h-178q11 64 -61 64q-30 0 -48.5 -12.5t-21.5 -32.5
q-3 -14 3 -25t22.5 -20.5t30 -15.5t41.5 -16q41 -14 71.5 -30.5t61.5 -43.5t43.5 -67.5t3.5 -91.5q-18 -103 -93 -154t-188 -51zM243 -277l73 220h-154l-48 -220h129z" />
    <glyph glyph-name="scommaaccent" unicode="&#x219;" horiz-adv-x="483" 
d="M460 336h-162q8 45 -34 45q-44 0 -49 -30q-3 -19 21.5 -29t61 -18.5t72 -22.5t56 -50t10.5 -92q-15 -81 -78.5 -117t-155.5 -36q-91 0 -147.5 45.5t-41.5 132.5h164q-8 -45 42 -45q46 0 51 30q3 15 -14.5 25.5t-45 16t-58.5 17t-57 27.5t-39.5 48.5t-5.5 77.5
q14 78 79.5 115.5t150.5 37.5q84 0 139.5 -47t40.5 -131zM78 -277l48 220h154l-73 -220h-129z" />
    <glyph glyph-name="uni021A" unicode="&#x21a;" horiz-adv-x="500" 
d="M571 700l-30 -173h-153l-93 -527h-178l92 527h-153l31 173h331h153zM70 -277l48 220h154l-73 -220h-129z" />
    <glyph glyph-name="uni021B" unicode="&#x21b;" horiz-adv-x="340" 
d="M371 500l-27 -159h-75l-60 -341h-166l60 341h-74l28 159h74l28 160h166l-28 -160h74zM-6 -277l48 220h154l-73 -220h-129z" />
    <glyph glyph-name="circumflex" unicode="&#x2c6;" horiz-adv-x="419" 
d="M451 545h-149l-28 56l-51 -56h-151l133 155h156h11z" />
    <glyph glyph-name="caron" unicode="&#x2c7;" horiz-adv-x="419" 
d="M323 700h155l-133 -155h-156h-11l-79 155h145l30 -56z" />
    <glyph glyph-name="breve" unicode="&#x2d8;" horiz-adv-x="399" 
d="M259 537q-85 0 -129 44t-31 116h140q-8 -44 32 -44q39 0 47 44h140q-11 -78 -62 -119t-137 -41z" />
    <glyph glyph-name="dotaccent" unicode="&#x2d9;" horiz-adv-x="199" 
d="M73 548l26 154h160l-27 -154h-159z" />
    <glyph glyph-name="ring" unicode="&#x2da;" horiz-adv-x="321" 
d="M210 533q-60 0 -94.5 39t-24.5 96q11 57 55.5 93t106.5 36q61 0 95 -39.5t24 -96.5t-54 -92.5t-108 -35.5zM226 633q34 0 39 31q3 14 -4.5 23.5t-23.5 9.5q-32 0 -39 -32q-5 -32 28 -32z" />
    <glyph glyph-name="ogonek" unicode="&#x2db;" horiz-adv-x="233" 
d="M43 -214q-46 0 -71.5 23t-17.5 68q11 58 84 123h131q-52 -48 -57 -78q-5 -23 17 -23q6 -1 23 3l-18 -99q-45 -17 -91 -17z" />
    <glyph glyph-name="tilde" unicode="&#x2dc;" horiz-adv-x="398" 
d="M78 548q6 60 28.5 99t53 52.5t63.5 11.5t63 -20q17 -10 26.5 -13.5t18.5 4t12 28.5h122q-6 -60 -28.5 -99t-53 -52.5t-63.5 -11t-63 20.5q-21 16 -36.5 13.5t-20.5 -33.5h-122z" />
    <glyph glyph-name="hungarumlaut" unicode="&#x2dd;" horiz-adv-x="486" 
d="M72 545h157l113 150h-164zM264 545h158l122 150h-163z" />
    <glyph glyph-name="gravecomb" unicode="&#x300;" horiz-adv-x="0" 
d="M34 555l-61 145h-188l95 -145h154z" />
    <glyph glyph-name="acutecomb" unicode="&#x301;" horiz-adv-x="0" 
d="M-226 555h163l136 145h-198z" />
    <glyph glyph-name="uni0302" unicode="&#x302;" horiz-adv-x="0" 
d="M32 545h-149l-28 56l-51 -56h-151l133 155h156h11z" />
    <glyph glyph-name="tildecomb" unicode="&#x303;" horiz-adv-x="0" 
d="M-326 548q6 60 28 99t53 52.5t64 11.5t63 -20q17 -10 26.5 -13.5t18 4t12.5 28.5h122q-6 -60 -29 -99t-53.5 -52.5t-63.5 -11t-63 20.5q-21 16 -36.5 13.5t-20.5 -33.5h-121z" />
    <glyph glyph-name="uni0304" unicode="&#x304;" horiz-adv-x="0" 
d="M-275 554l22 130h310l-23 -130h-309z" />
    <glyph glyph-name="uni0306" unicode="&#x306;" horiz-adv-x="0" 
d="M-145 537q-85 0 -129.5 44t-30.5 116h140q-8 -44 32 -44q39 0 47 44h140q-25 -160 -199 -160z" />
    <glyph glyph-name="uni0307" unicode="&#x307;" horiz-adv-x="0" 
d="M-126 548l26 154h160l-27 -154h-159z" />
    <glyph glyph-name="uni0308" unicode="&#x308;" horiz-adv-x="0" 
d="M-296 550l25 140h139l-25 -140h-139zM-107 550l25 140h140l-25 -140h-140z" />
    <glyph glyph-name="uni030A" unicode="&#x30a;" horiz-adv-x="0" 
d="M-108 533q-61 0 -95 39t-24 96t54.5 93t106.5 36q61 0 95.5 -39.5t23.5 -96.5q-10 -57 -53.5 -92.5t-107.5 -35.5zM-93 633q35 0 40 31q3 14 -4.5 23.5t-24.5 9.5q-15 0 -25.5 -9t-12.5 -23q-5 -32 27 -32z" />
    <glyph glyph-name="uni030B" unicode="&#x30b;" horiz-adv-x="0" 
d="M-414 545h157l113 150h-164zM-222 545h158l122 150h-163z" />
    <glyph glyph-name="uni030C" unicode="&#x30c;" horiz-adv-x="0" 
d="M-96 700h155l-133 -155h-156h-11l-79 155h145l30 -56z" />
    <glyph glyph-name="uni0312" unicode="&#x312;" horiz-adv-x="0" 
d="M-19 985l-74 -220h154l49 220h-129z" />
    <glyph glyph-name="uni0326" unicode="&#x326;" horiz-adv-x="0" 
d="M-148 -277l73 220h-154l-48 -220h129z" />
    <glyph glyph-name="uni0327" unicode="&#x327;" horiz-adv-x="0" 
d="M-131 -46q54 -25 43 -86q-19 -105 -250 -89l19 109q93 -7 98 14q3 17 -50 20l14 78h134z" />
    <glyph glyph-name="uni0328" unicode="&#x328;" horiz-adv-x="0" 
d="M-195 -214q-46 0 -71.5 23t-17.5 68q11 58 84 123h131q-52 -48 -57 -78q-5 -23 17 -23q6 -1 23 3l-18 -99q-45 -17 -91 -17z" />
    <glyph glyph-name="uni0394" unicode="&#x394;" horiz-adv-x="660" 
d="M516 700l105 -700h-191h-329h-150l351 700h214zM219 155h195l-37 342z" />
    <glyph glyph-name="uni03A9" unicode="&#x3a9;" horiz-adv-x="775" 
d="M774 365q-19 -115 -112 -197h63l-29 -168h-281l29 168l1 5q57 20 97 67t51 110q14 83 -30 136.5t-125 53.5t-143.5 -53.5t-76.5 -136.5q-11 -63 12 -110t72 -67l-18 -102l-12 -71h-281l29 168h73q-72 86 -51 207q27 150 146.5 245t275.5 95q100 0 177 -45t114 -126
t19 -179z" />
    <glyph glyph-name="pi" unicode="&#x3c0;" horiz-adv-x="659" 
d="M673 500l-27 -157h-75l-60 -343h-166l60 343h-117l-60 -343h-166l60 343h-76l27 157h243h283h74z" />
    <glyph glyph-name="uni0401" unicode="&#x401;" horiz-adv-x="512" 
d="M356 890l-25 -140h-139l25 140h139zM546 890l-25 -140h-140l25 140h140zM529 532h-246l-17 -99h221l-28 -159h-221l-18 -106h250l-29 -168h-375h-55l123 700h179h246z" />
    <glyph glyph-name="uni0402" unicode="&#x402;" horiz-adv-x="663" 
d="M478 446q82 0 126 -53t28 -144l-8 -47q-22 -124 -85.5 -173t-187.5 -42l29 159q33 -2 47.5 11t20.5 45l4 25q10 58 -47 58q-32 0 -62 -13l-48 -272h-178l92 527h-153l31 173h331h183l-30 -173h-183l-17 -98q57 17 107 17z" />
    <glyph glyph-name="uni0403" unicode="&#x403;" horiz-adv-x="475" 
d="M555 899l-136 -145h-163l101 145h198zM134 700h414l-30 -173h-235l-93 -527h-179z" />
    <glyph glyph-name="uni0404" unicode="&#x404;" horiz-adv-x="754" 
d="M443 543q-60 0 -110.5 -30t-80.5 -81h251l-30 -164h-250q11 -51 50.5 -81t102.5 -30q59 0 108.5 31t68.5 81h187q-39 -128 -146.5 -206t-240.5 -78q-156 0 -245 110t-61 265q27 156 142 255.5t276 99.5q130 0 218.5 -82.5t84.5 -201.5h-186q-3 50 -42 81t-97 31z" />
    <glyph glyph-name="uni0405" unicode="&#x405;" horiz-adv-x="550" 
d="M243 -15q-116 0 -184.5 61.5t-47.5 177.5h178q-6 -36 12.5 -52.5t64.5 -16.5q72 0 81 48q4 24 -20 38.5t-77 32.5q-41 14 -71.5 30t-62 43.5t-44.5 69t-4 93.5q18 102 93 153.5t179 51.5q105 0 170.5 -61t45.5 -173h-178q11 64 -61 64q-30 0 -48.5 -12.5t-21.5 -32.5
q-3 -14 3 -25t22.5 -20.5t30 -15.5t41.5 -16q41 -14 71.5 -30.5t61.5 -43.5t43.5 -67.5t3.5 -91.5q-18 -103 -93 -154t-188 -51z" />
    <glyph glyph-name="uni0406" unicode="&#x406;" horiz-adv-x="289" 
d="M134 700h179l-123 -700h-179z" />
    <glyph glyph-name="uni0407" unicode="&#x407;" horiz-adv-x="289" 
d="M68 750l25 140h139l-25 -140h-139zM257 750l25 140h140l-25 -140h-140zM134 700h179l-123 -700h-179z" />
    <glyph glyph-name="uni0408" unicode="&#x408;" horiz-adv-x="545" 
d="M218 -15q-107 0 -169.5 62.5t-44.5 169.5l4 22h179l-4 -22q-5 -27 9 -42.5t46 -15.5q67 0 79 69l83 472h178l-85 -485q-20 -116 -93 -173t-182 -57z" />
    <glyph glyph-name="uni0409" unicode="&#x409;" horiz-adv-x="908" 
d="M680 464q98 0 162 -69t45 -173q-18 -105 -97.5 -163.5t-190.5 -58.5h-198h-54l92 527h-100l-44 -254q-13 -75 -39 -129.5t-59 -83t-73 -46t-80.5 -18t-82.5 1.5l29 167q55 -6 84.5 18t42.5 98l74 419h457l-41 -236h73zM710 232q6 31 -10.5 46.5t-48.5 15.5h-74l-22 -124
h73q71 0 82 62z" />
    <glyph glyph-name="uni040A" unicode="&#x40a;" horiz-adv-x="912" 
d="M685 464q98 0 161.5 -69t45.5 -173q-18 -105 -97.5 -163.5t-191.5 -58.5h-197h-55l52 294h-161l-52 -294h-179l123 700h179l-41 -236h161l41 236h179l-41 -236h73zM714 232q11 62 -59 62h-73l-22 -124h73q71 0 81 62z" />
    <glyph glyph-name="uni040B" unicode="&#x40b;" horiz-adv-x="668" 
d="M478 446q82 0 126 -53t28 -144l-44 -249h-176l40 227q10 58 -47 58q-32 0 -62 -13l-48 -272h-178l92 527h-153l31 173h331h183l-30 -173h-183l-17 -98q57 17 107 17z" />
    <glyph glyph-name="uni040C" unicode="&#x40c;" horiz-adv-x="631" 
d="M614 899l-136 -145h-163l101 145h198zM711 700l-298 -348l178 -352h-185l-160 319l-56 -319h-179l123 700h179l-50 -284l239 284h209z" />
    <glyph glyph-name="uni040E" unicode="&#x40e;" horiz-adv-x="629" 
d="M592 893l-24 -140h-323l24 140h323zM511 700h191l-280 -489q-67 -118 -151 -165.5t-201 -45.5l29 167q90 -3 146 58l-151 475h176l86 -287z" />
    <glyph glyph-name="uni040F" unicode="&#x40f;" horiz-adv-x="640" 
d="M485 700h179l-123 -700h-175l-26 -144h-178l25 144h-176l123 700h179l-93 -527h172z" />
    <glyph glyph-name="uni0410" unicode="&#x410;" horiz-adv-x="660" 
d="M430 0l-10 101h-225l-47 -101h-197l351 700h214l105 -700h-191zM267 255h137l-24 242z" />
    <glyph glyph-name="uni0411" unicode="&#x411;" horiz-adv-x="592" 
d="M378 442q100 0 156 -65.5t39 -164.5q-18 -101 -88.5 -156.5t-184.5 -55.5h-225h-64l123 700h179h285l-30 -173h-285l-15 -85h110zM396 222q5 29 -9.5 44t-43.5 15h-104l-20 -117h103q29 0 49 14.5t25 43.5z" />
    <glyph glyph-name="uni0412" unicode="&#x412;" horiz-adv-x="686" 
d="M578 418q48 -31 70 -85.5t11 -119.5q-17 -97 -87 -155t-177 -58h-344h-40l123 700h179h121q89 0 145.5 -58.5t41.5 -141.5q-9 -46 -43 -82zM400 538h-115l-16 -91h146q24 17 27 42q4 21 -7.5 35t-34.5 14zM483 231q5 31 -12 50t-48 19h-180l-25 -138h179q35 0 57.5 19
t28.5 50z" />
    <glyph glyph-name="uni0413" unicode="&#x413;" horiz-adv-x="475" 
d="M548 700l-30 -173h-235l-93 -527h-179l123 700h414z" />
    <glyph glyph-name="uni0414" unicode="&#x414;" horiz-adv-x="697" 
d="M683 700l-93 -531h74l-54 -313h-179l25 144h-311l-25 -144h-179l55 313h70q64 76 92 226l53 305h472zM259 169h152l65 365h-115l-25 -141q-26 -147 -77 -224z" />
    <glyph glyph-name="uni0415" unicode="&#x415;" horiz-adv-x="512" 
d="M529 532h-246l-17 -99h221l-28 -159h-221l-18 -106h250l-29 -168h-375h-55l123 700h179h246z" />
    <glyph glyph-name="uni0416" unicode="&#x416;" horiz-adv-x="927" 
d="M998 700l-269 -358l144 -342h-187l-121 312l-55 -312h-179l53 304l-222 -304h-201l277 363l-145 337h187l120 -305l54 305h179l-54 -306l215 306h204z" />
    <glyph glyph-name="uni0417" unicode="&#x417;" horiz-adv-x="555" 
d="M547 514q-11 -64 -68 -116q79 -72 59 -186q-19 -107 -97 -167t-202 -60q-121 0 -188.5 70.5t-48.5 176.5h179q-6 -35 13.5 -56.5t63.5 -21.5q90 0 103 73q5 34 -14.5 53t-62.5 19h-65l29 159h64q13 0 19 -1q28 15 35 47q4 22 -8.5 34.5t-39.5 12.5q-56 0 -64 -47h-178
q17 96 88 153.5t176 57.5q99 0 160 -58.5t47 -142.5z" />
    <glyph glyph-name="uni0418" unicode="&#x418;" horiz-adv-x="655" 
d="M377 0l63 354l-290 -354h-139l123 700h179l-63 -354l290 354h138l-123 -700h-178z" />
    <glyph glyph-name="uni0419" unicode="&#x419;" horiz-adv-x="655" 
d="M255 754l24 140h323l-24 -140h-323zM377 0l63 354l-290 -354h-139l123 700h179l-63 -354l290 354h138l-123 -700h-178z" />
    <glyph glyph-name="uni041A" unicode="&#x41a;" horiz-adv-x="631" 
d="M711 700l-298 -348l178 -352h-185l-160 319l-56 -319h-179l123 700h179l-50 -284l239 284h209z" />
    <glyph glyph-name="uni041B" unicode="&#x41b;" horiz-adv-x="640" 
d="M-39 -2l29 167q55 -6 84.5 18t42.5 98l74 419h473l-123 -700h-179l93 527h-116l-44 -254q-13 -74 -38.5 -128t-58 -83t-72 -46.5t-81 -18.5t-84.5 1z" />
    <glyph glyph-name="uni041C" unicode="&#x41c;" horiz-adv-x="839" 
d="M862 700l-123 -700h-178l72 412l-176 -312h-128l-67 312l-72 -412h-179l123 700h179h25l84 -386l219 386h221z" />
    <glyph glyph-name="uni041D" unicode="&#x41d;" horiz-adv-x="645" 
d="M490 700h178l-123 -700h-178l48 274h-177l-48 -274h-179l123 700h179l-45 -254h177z" />
    <glyph glyph-name="uni041E" unicode="&#x41e;" horiz-adv-x="790" 
d="M360 -15q-106 0 -185 53t-112 139t-16 184q25 150 142 252t278 102q159 0 247.5 -111.5t63.5 -262.5q-26 -151 -141 -253.5t-277 -102.5zM376 160q81 0 145.5 53.5t78.5 136.5q15 83 -29 136.5t-125 53.5t-143.5 -53.5t-77.5 -136.5q-15 -84 27.5 -137t123.5 -53z" />
    <glyph glyph-name="uni041F" unicode="&#x41f;" horiz-adv-x="640" 
d="M664 700l-123 -700h-179l93 527h-172l-93 -527h-179l123 700h179h351z" />
    <glyph glyph-name="uni0420" unicode="&#x420;" horiz-adv-x="592" 
d="M405 700q99 0 161.5 -74.5t44.5 -180.5q-19 -110 -96.5 -172.5t-195.5 -62.5h-92l-37 -210h-179l123 700h179h92zM433 455q6 33 -10.5 53.5t-46.5 20.5h-93l-26 -149h92q32 0 55.5 21t28.5 54z" />
    <glyph glyph-name="uni0421" unicode="&#x421;" horiz-adv-x="752" 
d="M355 -15q-156 0 -246 110t-62 265q27 156 143 255.5t277 99.5q130 0 218 -82t86 -202h-186q-5 50 -44 79.5t-97 29.5q-83 0 -143.5 -52.5t-75.5 -137.5q-15 -84 26.5 -137t125.5 -53q59 0 108.5 29.5t71.5 79.5h186q-41 -128 -148 -206t-240 -78z" />
    <glyph glyph-name="uni0422" unicode="&#x422;" horiz-adv-x="500" 
d="M571 700l-30 -173h-153l-93 -527h-178l92 527h-153l31 173h331h153z" />
    <glyph glyph-name="uni0423" unicode="&#x423;" horiz-adv-x="629" 
d="M511 700h191l-280 -489q-67 -118 -151 -165.5t-201 -45.5l29 167q90 -3 146 58l-151 475h176l86 -287z" />
    <glyph glyph-name="uni0424" unicode="&#x424;" horiz-adv-x="833" 
d="M571 636q138 -21 208 -100.5t50 -195.5q-21 -119 -114.5 -191t-245.5 -87l-14 -82h-172l15 84q-139 21 -209.5 100.5t-49.5 195.5q20 119 114 191t246 87l15 82h172zM217 350q-18 -104 109 -124l45 250q-136 -20 -154 -126zM652 350q18 106 -110 126l-44 -250
q134 20 154 124z" />
    <glyph glyph-name="uni0425" unicode="&#x425;" horiz-adv-x="622" 
d="M688 700l-259 -349l143 -351h-193l-75 182l-135 -182h-208l269 363l-138 337h194l69 -169l125 169h208z" />
    <glyph glyph-name="uni0426" unicode="&#x426;" horiz-adv-x="692" 
d="M580 173h80l-55 -317h-179l25 144h-440l123 700h184l-93 -527h172l93 527h183z" />
    <glyph glyph-name="uni0427" unicode="&#x427;" horiz-adv-x="629" 
d="M474 700h179l-123 -700h-179l39 222q-42 -9 -93 -9q-117 0 -177.5 65t-40.5 177l43 245h178l-40 -231q-15 -84 75 -84q44 0 86 13z" />
    <glyph glyph-name="uni0428" unicode="&#x428;" horiz-adv-x="909" 
d="M754 700h179l-123 -700h-799l123 700h179l-93 -527h132l92 527h179l-93 -527h132z" />
    <glyph glyph-name="uni0429" unicode="&#x429;" horiz-adv-x="952" 
d="M840 173h80l-55 -317h-179l25 144h-700l123 700h179l-93 -527h132l92 527h179l-93 -527h132l92 527h179z" />
    <glyph glyph-name="uni042A" unicode="&#x42a;" horiz-adv-x="697" 
d="M116 0l93 527h-160l30 173h339l-37 -210h92q99 0 161.5 -74.5t44.5 -180.5q-20 -110 -97 -172.5t-195 -62.5h-271zM324 171h93q31 0 54.5 20.5t29.5 53.5t-11 54t-47 21h-92z" />
    <glyph glyph-name="uni042B" unicode="&#x42b;" horiz-adv-x="869" 
d="M11 0l123 700h179l-37 -210h93q99 0 161 -74.5t44 -180.5q-20 -110 -97 -172.5t-195 -62.5h-271zM591 0l123 700h178l-123 -700h-178zM220 171h92q32 0 55.5 20.5t28.5 53.5q6 33 -10.5 54t-47.5 21h-92z" />
    <glyph glyph-name="uni042C" unicode="&#x42c;" horiz-adv-x="592" 
d="M369 490q99 0 161 -74.5t44 -180.5q-20 -110 -97 -172.5t-195 -62.5h-216h-55l123 700h179l-37 -210h93zM396 245q6 33 -10.5 54t-47.5 21h-92l-26 -149h92q32 0 55.5 20.5t28.5 53.5z" />
    <glyph glyph-name="uni042D" unicode="&#x42d;" horiz-adv-x="754" 
d="M435 715q156 0 245 -110t62 -265q-28 -158 -140.5 -256.5t-276.5 -98.5q-132 0 -221 82t-83 202h183q3 -50 43 -81t101 -31q63 0 112 29.5t78 81.5h-252l30 164h251q-11 52 -50 81.5t-101 29.5q-60 0 -110.5 -31t-69.5 -81h-186q37 126 144 205t241 79z" />
    <glyph glyph-name="uni042E" unicode="&#x42e;" horiz-adv-x="1068" 
d="M748 715q107 0 184.5 -53t109 -138.5t14.5 -183.5q-26 -150 -142 -252.5t-281 -102.5q-130 0 -215 82t-91 207h-89l-48 -274h-179l123 700h179l-45 -254h89q47 122 153 195.5t238 73.5zM879 350q14 83 -30 136.5t-125 53.5t-143.5 -53.5t-77.5 -136.5q-15 -84 27.5 -137
t123.5 -53t145.5 53.5t79.5 136.5z" />
    <glyph glyph-name="uni042F" unicode="&#x42f;" horiz-adv-x="638" 
d="M662 700l-124 -700h-178l39 226h-32l-205 -226h-215l243 256q-56 33 -79 93t-10 126q18 93 95.5 159t197.5 66h268zM275 456q-6 -34 13.5 -56.5t53.5 -22.5h84l28 158h-84q-35 0 -61.5 -22t-33.5 -57z" />
    <glyph glyph-name="uni0430" unicode="&#x430;" horiz-adv-x="514" 
d="M303 514q86 0 142.5 -55.5t41.5 -143.5l-56 -315h-160l4 24q-47 -38 -120 -38t-116.5 45.5t-30.5 120.5q13 74 65.5 110t123.5 36q70 0 120 -39l9 51q8 56 -44 56q-26 0 -41.5 -12t-18.5 -31h-160q16 92 82.5 141.5t158.5 49.5zM173 143q-4 -21 9.5 -34t41.5 -13
q29 0 48.5 12.5t23.5 32.5q4 22 -12 34.5t-44 12.5q-60 0 -67 -45z" />
    <glyph glyph-name="uni0431" unicode="&#x431;" horiz-adv-x="563" 
d="M256 -15q-122 0 -186.5 78t-43.5 194q13 74 54 135.5t90.5 101.5t98 73.5t85 66.5t42.5 66h174q-10 -58 -38 -100.5t-66 -67.5t-75.5 -43l-76.5 -37.5t-59 -40.5q55 27 107 27q89 0 143.5 -66.5t38.5 -161.5q-18 -102 -95.5 -163.5t-192.5 -61.5zM269 129q41 0 71.5 25
t37.5 64t-15.5 64.5t-64.5 25.5q-38 0 -70.5 -23.5t-39.5 -63.5t16 -66t65 -26z" />
    <glyph glyph-name="uni0432" unicode="&#x432;" horiz-adv-x="525" 
d="M440 291q35 -22 51 -59.5t9 -80.5q-13 -70 -64.5 -110.5t-143.5 -40.5h-288l88 500h159h93q67 0 106.5 -41t30.5 -96q-7 -40 -41 -72zM288 377h-59l-11 -62h94q6 9 10 24q7 38 -34 38zM337 163q2 17 -7 25.5t-29 8.5h-104l-12 -70h103q42 0 49 36z" />
    <glyph glyph-name="uni0433" unicode="&#x433;" horiz-adv-x="387" 
d="M431 500l-27 -159h-174l-60 -341h-166l88 500h339z" />
    <glyph glyph-name="uni0434" unicode="&#x434;" horiz-adv-x="580" 
d="M482 150h65l-49 -280h-160l23 130h-240l-23 -130h-159l49 280h54q55 65 74 177l31 173h162h178h57zM219 150h101l36 202h-74l-4 -25q-19 -111 -59 -177z" />
    <glyph glyph-name="uni0435" unicode="&#x435;" horiz-adv-x="569" 
d="M328 514q107 0 172 -77.5t45 -185.5q-7 -35 -17 -62h-156h-187q12 -75 92 -75q56 0 79 32h156q-34 -80 -101.5 -120t-155.5 -40q-118 0 -183.5 80.5t-45.5 193.5t102.5 183.5t199.5 70.5zM204 305h191q-5 69 -79 69q-78 0 -112 -69z" />
    <glyph glyph-name="uni0436" unicode="&#x436;" horiz-adv-x="779" 
d="M815 500l-199 -258l110 -242h-170l-91 213l-38 -213h-164l36 206l-159 -206h-179l203 261l-101 239h168l84 -205l36 205h164l-37 -209l153 209h184z" />
    <glyph glyph-name="uni0437" unicode="&#x437;" horiz-adv-x="449" 
d="M426 367q-9 -50 -51 -86q61 -48 46 -131q-14 -74 -73 -119.5t-163 -45.5q-106 0 -155 49.5t-35 129.5h165q-3 -20 7 -30t36 -10q48 0 56 42q3 18 -7.5 28t-34.5 10h-60l20 116h63q22 11 25 32q5 29 -27 29t-38 -31h-158q14 78 69.5 121t149.5 43q85 0 130.5 -41.5
t34.5 -105.5z" />
    <glyph glyph-name="uni0438" unicode="&#x438;" horiz-adv-x="550" 
d="M420 500h126l-88 -500h-162l40 224l-206 -224h-126l88 500h162l-40 -224z" />
    <glyph glyph-name="uni0439" unicode="&#x439;" horiz-adv-x="550" 
d="M167 554l24 140h323l-24 -140h-323zM420 500h126l-88 -500h-162l40 224l-206 -224h-126l88 500h162l-40 -224z" />
    <glyph glyph-name="uni043A" unicode="&#x43a;" horiz-adv-x="537" 
d="M573 500l-209 -250l129 -250h-181l-104 215l-38 -215h-166l88 500h166l-35 -203l162 203h188z" />
    <glyph glyph-name="uni043B" unicode="&#x43b;" horiz-adv-x="537" 
d="M533 500l-88 -500h-166l60 341h-75l-24 -134q-21 -124 -86.5 -173.5t-188.5 -41.5l27 154q69 -9 87 85l47 269h166h241z" />
    <glyph glyph-name="uni043C" unicode="&#x43c;" horiz-adv-x="665" 
d="M661 500l-88 -500h-161l44 249l-115 -163h-76l-56 162l-44 -248h-161l88 500h161h2l75 -217l154 217h177z" />
    <glyph glyph-name="uni043D" unicode="&#x43d;" horiz-adv-x="545" 
d="M375 500h166l-88 -500h-166l30 172h-116l-31 -172h-166l88 500h166l-30 -172h117z" />
    <glyph glyph-name="uni043E" unicode="&#x43e;" horiz-adv-x="583" 
d="M258 -14q-85 0 -143.5 42.5t-79.5 105.5t-8 132q20 104 100.5 176t201.5 72q120 0 183 -85.5t44 -192.5q-18 -102 -100 -176t-198 -74zM271 146q44 0 77 29t41 75t-14.5 75t-66.5 29q-43 0 -76 -29t-41 -75t14.5 -75t65.5 -29z" />
    <glyph glyph-name="uni043F" unicode="&#x43f;" horiz-adv-x="545" 
d="M541 500l-88 -500h-166l60 343h-116l-61 -343h-166l88 500h166h283z" />
    <glyph glyph-name="uni0440" unicode="&#x440;" horiz-adv-x="615" 
d="M394 514q101 0 157 -81.5t38 -192.5q-18 -107 -92.5 -180.5t-180.5 -73.5q-92 0 -137 61l-44 -247h-166l123 700h166l-6 -36q59 50 142 50zM423 250q8 49 -14.5 78t-69.5 29q-46 0 -80 -28t-44 -74l-1 -9q-7 -46 17 -74.5t70 -28.5q47 0 80.5 29t41.5 78z" />
    <glyph glyph-name="uni0441" unicode="&#x441;" horiz-adv-x="559" 
d="M537 199q-28 -98 -105.5 -155.5t-177.5 -57.5q-114 0 -181 81t-47 193t103.5 183t198.5 71q97 0 163.5 -63t63.5 -150h-174q-3 24 -22.5 37.5t-48.5 13.5q-43 0 -76.5 -28.5t-40.5 -73.5q-8 -45 15 -73.5t66 -28.5q65 0 90 51h173z" />
    <glyph glyph-name="uni0442" unicode="&#x442;" horiz-adv-x="430" 
d="M466 500l-27 -157h-123l-61 -343h-166l60 343h-125l28 157h291h123z" />
    <glyph glyph-name="uni0443" unicode="&#x443;" horiz-adv-x="537" 
d="M391 500h190l-248 -485q-64 -125 -147.5 -174.5t-194.5 -40.5l28 156q53 0 80 13t49 49l-105 482h177l47 -286z" />
    <glyph glyph-name="uni0444" unicode="&#x444;" horiz-adv-x="709" 
d="M480 505q113 -21 166.5 -94t36.5 -170q-18 -100 -93 -167t-200 -83l-34 -191h-162l34 194q-112 21 -165.5 94t-36.5 171q18 101 92.5 167t200.5 82l33 192h162zM519 250q14 78 -66 101l-35 -201q89 24 101 100zM189 250q-14 -76 67 -100l35 200q-88 -23 -102 -100z" />
    <glyph glyph-name="uni0445" unicode="&#x445;" horiz-adv-x="503" 
d="M540 500l-200 -250l119 -250h-169l-56 118l-95 -118h-183l209 261l-114 239h169l51 -107l86 107h183z" />
    <glyph glyph-name="uni0446" unicode="&#x446;" horiz-adv-x="587" 
d="M470 157h85l-50 -287h-160l23 130h-364l88 500h166l-60 -343h106l60 343h167z" />
    <glyph glyph-name="uni0447" unicode="&#x447;" horiz-adv-x="520" 
d="M349 500h167l-88 -500h-167l25 138q-44 -11 -96 -11q-76 0 -122.5 48.5t-32.5 130.5l34 194h167l-30 -168q-8 -51 46 -51q31 0 61 12z" />
    <glyph glyph-name="uni0448" unicode="&#x448;" horiz-adv-x="775" 
d="M605 500h166l-88 -500h-166h-255h-206h-52l88 500h166l-60 -343h91l61 343h164l-61 -343h92z" />
    <glyph glyph-name="uni0449" unicode="&#x449;" horiz-adv-x="802" 
d="M770 157l-23 -133l-27 -154h-160l23 130h-165h-248h-166l88 500h166l-60 -343h84l60 343h164l-60 -343h83l61 343h166l-60 -343h74z" />
    <glyph glyph-name="uni044A" unicode="&#x44a;" horiz-adv-x="583" 
d="M391 359q82 0 129 -54t33 -135q-31 -170 -226 -170h-213h-35l61 344h-124l28 156h180h110l-25 -141h82zM393 180q3 18 -7 29t-30 11h-72l-14 -81h72q44 0 51 41z" />
    <glyph glyph-name="uni044B" unicode="&#x44b;" horiz-adv-x="747" 
d="M315 359q83 0 130 -54t33 -135q-31 -170 -226 -170h-213h-35l88 500h166l-24 -141h81zM577 500h166l-88 -500h-166zM318 180q3 18 -7 29t-30 11h-72l-14 -81h71q20 0 34.5 11t17.5 30z" />
    <glyph glyph-name="uni044C" unicode="&#x44c;" horiz-adv-x="507" 
d="M315 359q83 0 130 -54t33 -135q-31 -170 -226 -170h-213h-35l88 500h166l-24 -141h81zM318 180q3 18 -7 29t-30 11h-72l-14 -81h71q20 0 34.5 11t17.5 30z" />
    <glyph glyph-name="uni044D" unicode="&#x44d;" horiz-adv-x="557" 
d="M302 514q117 0 182.5 -80.5t45.5 -193.5t-103 -183.5t-198 -70.5q-98 0 -164.5 62t-63.5 151h161q4 -29 27 -48t62 -19q63 0 100 50h-137l24 136h137q-21 50 -83 50q-40 0 -69.5 -18t-41.5 -49h-162q26 93 105 153t178 60z" />
    <glyph glyph-name="uni044E" unicode="&#x44e;" horiz-adv-x="807" 
d="M555 514q83 0 139.5 -41.5t77 -103.5t9.5 -131q-17 -103 -99 -177.5t-198 -74.5q-99 0 -157 52.5t-70 133.5h-56l-31 -172h-166l88 500h166l-30 -172h50q33 82 105.5 134t171.5 52zM616 250q8 46 -15 75t-67 29q-43 0 -76.5 -29t-41.5 -75q-7 -46 15.5 -75t66.5 -29
q43 0 77 29t41 75z" />
    <glyph glyph-name="uni044F" unicode="&#x44f;" horiz-adv-x="535" 
d="M531 500l-88 -500h-164l25 142h-27l-128 -142h-193l163 173q-37 26 -54 68.5t-10 86.5q11 71 69.5 121.5t152.5 50.5h254zM217 316q-3 -17 6.5 -29.5t31.5 -12.5h72l15 86h-71q-23 0 -37.5 -13t-16.5 -31z" />
    <glyph glyph-name="uni0451" unicode="&#x451;" horiz-adv-x="569" 
d="M347 697l-25 -140h-139l25 140h139zM537 697l-25 -140h-140l25 140h140zM328 514q107 0 172 -77.5t45 -185.5q-7 -35 -17 -62h-156h-187q12 -75 92 -75q56 0 79 32h156q-34 -80 -101.5 -120t-155.5 -40q-118 0 -183.5 80.5t-45.5 193.5t102.5 183.5t199.5 70.5zM204 305
h191q-5 69 -79 69q-78 0 -112 -69z" />
    <glyph glyph-name="uni0452" unicode="&#x452;" horiz-adv-x="535" 
d="M383 502q71 0 110 -55t24 -141l-54 -306q-22 -124 -87 -173t-190 -42l27 154q73 -4 84 61l50 288q5 28 -7 43.5t-37 15.5q-59 0 -73 -64l-50 -283h-166l94 539h-57l19 106h57l10 55h166l-10 -55h136l-19 -106h-135l-15 -87q50 50 123 50z" />
    <glyph glyph-name="uni0453" unicode="&#x453;" horiz-adv-x="387" 
d="M460 700l-136 -145h-163l101 145h198zM92 500h339l-27 -159h-174l-60 -341h-166z" />
    <glyph glyph-name="uni0454" unicode="&#x454;" horiz-adv-x="559" 
d="M305 368q-61 0 -100 -50h137l-24 -136h-137q21 -50 83 -50q40 0 70 18t43 49h161q-26 -93 -105.5 -153t-178.5 -60q-116 0 -182 80.5t-46 193.5t103 183.5t198 70.5q98 0 164.5 -62t63.5 -151h-163q-2 29 -25 48t-62 19z" />
    <glyph glyph-name="uni0455" unicode="&#x455;" horiz-adv-x="483" 
d="M460 336h-162q8 45 -34 45q-44 0 -49 -30q-3 -19 21.5 -29t61 -18.5t72 -22.5t56 -50t10.5 -92q-15 -81 -78.5 -117t-155.5 -36q-91 0 -147.5 45.5t-41.5 132.5h164q-8 -45 42 -45q46 0 51 30q3 15 -14.5 25.5t-45 16t-58.5 17t-57 27.5t-39.5 48.5t-5.5 77.5
q14 78 79.5 115.5t150.5 37.5q84 0 139.5 -47t40.5 -131z" />
    <glyph glyph-name="uni0456" unicode="&#x456;" horiz-adv-x="262" 
d="M102 555l25 145h166l-25 -145h-166zM4 0l88 500h166l-88 -500h-166z" />
    <glyph glyph-name="uni0457" unicode="&#x457;" horiz-adv-x="262" 
d="M19 550l25 140h139l-25 -140h-139zM208 550l25 140h140l-25 -140h-140zM4 0l88 500h166l-88 -500h-166z" />
    <glyph glyph-name="uni0458" unicode="&#x458;" horiz-adv-x="277" 
d="M142 700h166l-25 -145h-166zM19 0l88 500h166l-88 -500q-21 -123 -87 -172.5t-190 -42.5l27 154q73 -4 84 61z" />
    <glyph glyph-name="uni0459" unicode="&#x459;" horiz-adv-x="757" 
d="M573 349q74 0 120.5 -52t33.5 -132q-15 -81 -71.5 -123t-143.5 -42h-206h-35l60 341h-67l-24 -134q-22 -125 -87 -174t-188 -41l27 154q69 -9 87 85l47 269h166h186h47l-26 -151h74zM567 175q3 16 -5.5 25.5t-23.5 9.5h-64l-12 -71h64q14 0 26 9.5t15 26.5z" />
    <glyph glyph-name="uni045A" unicode="&#x45a;" horiz-adv-x="768" 
d="M584 349q74 0 120.5 -52.5t32.5 -131.5q-15 -81 -71 -123t-144 -42h-206h-34l34 197h-111l-35 -197h-166l88 500h166l-26 -151h111l27 151h166l-27 -151h75zM577 175q3 16 -5.5 25.5t-22.5 9.5h-64l-12 -71h64q14 0 25.5 9.5t14.5 26.5z" />
    <glyph glyph-name="uni045B" unicode="&#x45b;" horiz-adv-x="546" 
d="M382 502q71 0 110 -56t24 -144l-53 -302h-166l50 288q5 28 -7 43t-38 15q-58 0 -72 -63l-50 -283h-166l94 539h-57l19 106h57l10 55h166l-10 -55h136l-19 -106h-135l-15 -85q46 48 122 48z" />
    <glyph glyph-name="uni045C" unicode="&#x45c;" horiz-adv-x="537" 
d="M524 700l-136 -145h-163l101 145h198zM573 500l-209 -250l129 -250h-181l-104 215l-38 -215h-166l88 500h166l-35 -203l162 203h188z" />
    <glyph glyph-name="uni045E" unicode="&#x45e;" horiz-adv-x="537" 
d="M506 694l-24 -140h-323l24 140h323zM391 500h190l-248 -485q-64 -125 -147.5 -174.5t-194.5 -40.5l28 156q53 0 80 13t49 49l-105 482h177l47 -286z" />
    <glyph glyph-name="uni045F" unicode="&#x45f;" horiz-adv-x="545" 
d="M375 500h166l-88 -500h-144l-23 -130h-160l23 130h-145l88 500h166l-60 -343h117z" />
    <glyph glyph-name="uni0490" unicode="&#x490;" horiz-adv-x="465" 
d="M560 820l-34 -191l-18 -102h-225l-93 -527h-179l123 700h226l22 120h178z" />
    <glyph glyph-name="uni0491" unicode="&#x491;" horiz-adv-x="387" 
d="M290 602h160l-46 -261h-174l-60 -341h-166l88 500h180z" />
    <glyph glyph-name="Wgrave" unicode="&#x1e80;" horiz-adv-x="900" 
d="M629 755h-154l-95 145h188zM790 700h194l-319 -700h-179l-29 289l-131 -289h-179l-73 700h180l35 -447l141 313l-14 134h160l34 -434z" />
    <glyph glyph-name="wgrave" unicode="&#x1e81;" horiz-adv-x="740" 
d="M513 555h-154l-95 145h188zM596 500h183l-241 -500h-154h-2l1 3l-24 185l-91 -188h-130h-24l-65 500h169l21 -288l92 192l-12 96h125l35 -274z" />
    <glyph glyph-name="Wacute" unicode="&#x1e82;" horiz-adv-x="900" 
d="M748 900l-136 -145h-163l101 145h198zM790 700h194l-319 -700h-179l-29 289l-131 -289h-179l-73 700h180l35 -447l141 313l-14 134h160l34 -434z" />
    <glyph glyph-name="wacute" unicode="&#x1e83;" horiz-adv-x="740" 
d="M632 700l-136 -145h-163l101 145h198zM596 500h183l-241 -500h-154h-2l1 3l-24 185l-91 -188h-130h-24l-65 500h169l21 -288l92 192l-12 96h125l35 -274z" />
    <glyph glyph-name="Wdieresis" unicode="&#x1e84;" horiz-adv-x="900" 
d="M538 890l-25 -140h-139l25 140h139zM728 890l-25 -140h-140l25 140h140zM790 700h194l-319 -700h-179l-29 289l-131 -289h-179l-73 700h180l35 -447l141 313l-14 134h160l34 -434z" />
    <glyph glyph-name="wdieresis" unicode="&#x1e85;" horiz-adv-x="740" 
d="M422 690l-25 -140h-139l25 140h139zM612 690l-25 -140h-140l25 140h140zM596 500h183l-241 -500h-154h-2l1 3l-24 185l-91 -188h-130h-24l-65 500h169l21 -288l92 192l-12 96h125l35 -274z" />
    <glyph glyph-name="Ygrave" unicode="&#x1ef2;" horiz-adv-x="631" 
d="M494 755h-154l-95 145h188zM710 700l-296 -396l-53 -304h-179l54 305l-157 395h190l76 -225l153 225h212z" />
    <glyph glyph-name="ygrave" unicode="&#x1ef3;" horiz-adv-x="524" 
d="M409 555l-61 145h-188l95 -145h154zM388 500h185l-359 -700h-176l105 205l-104 495h169l50 -282z" />
    <glyph glyph-name="endash" unicode="&#x2013;" horiz-adv-x="612" 
d="M50 222l28 158h502l-28 -158h-502z" />
    <glyph glyph-name="emdash" unicode="&#x2014;" horiz-adv-x="712" 
d="M50 222l28 158h602l-28 -158h-602z" />
    <glyph glyph-name="quoteleft" unicode="&#x2018;" horiz-adv-x="289" 
d="M302 639q-47 0 -71 -21.5t-32 -66.5h88l-32 -179h-178l31 179q27 155 206 155z" />
    <glyph glyph-name="quoteright" unicode="&#x2019;" horiz-adv-x="289" 
d="M134 700h179l-31 -179q-28 -155 -206 -155l12 68q47 0 71 21t32 66h-88z" />
    <glyph glyph-name="quotesinglbase" unicode="&#x201a;" horiz-adv-x="289" 
d="M43 179h178l-31 -179q-27 -156 -206 -156l12 68q47 0 71 21.5t32 66.5h-88z" />
    <glyph glyph-name="quotedblleft" unicode="&#x201c;" horiz-adv-x="513" 
d="M302 639q-47 0 -71 -21.5t-32 -66.5h88l-32 -179h-178l31 179q27 155 206 155zM525 639q-47 0 -71 -21.5t-32 -66.5h88l-31 -179h-179l31 179q28 155 206 155z" />
    <glyph glyph-name="quotedblright" unicode="&#x201d;" horiz-adv-x="513" 
d="M134 700h179l-31 -179q-28 -155 -206 -155l12 68q47 0 71 21t32 66h-88zM358 700h179l-32 -179q-27 -156 -206 -156l12 68q47 0 71.5 21.5t32.5 66.5h-88z" />
    <glyph glyph-name="quotedblbase" unicode="&#x201e;" horiz-adv-x="513" 
d="M266 179h179l-32 -179q-27 -156 -206 -156l12 68q47 0 71.5 21.5t32.5 66.5h-88zM43 179h178l-31 -179q-27 -156 -206 -156l12 68q47 0 71 21.5t32 66.5h-88z" />
    <glyph glyph-name="dagger" unicode="&#x2020;" horiz-adv-x="471" 
d="M494 582l-28 -158h-117l-74 -424h-167l75 424h-117l28 158h117l20 118h167l-21 -118h117z" />
    <glyph glyph-name="daggerdbl" unicode="&#x2021;" horiz-adv-x="471" 
d="M466 424h-117l-26 -148h117l-28 -158h-117l-20 -118h-167l21 118h-117l28 158h117l26 148h-117l28 158h117l20 118h167l-21 -118h117z" />
    <glyph glyph-name="bullet" unicode="&#x2022;" horiz-adv-x="399" 
d="M189 186q-67 0 -107 50.5t-28 119.5q12 67 67 112.5t125 45.5q67 0 106.5 -49.5t27.5 -116.5q-12 -69 -66 -115.5t-125 -46.5z" />
    <glyph glyph-name="ellipsis" unicode="&#x2026;" horiz-adv-x="788" 
d="M261 0l31 179h179l-32 -179h-178zM510 0l31 179h179l-31 -179h-179zM11 0l32 179h178l-31 -179h-179z" />
    <glyph glyph-name="perthousand" unicode="&#x2030;" horiz-adv-x="1258" 
d="M242 356q-79 0 -123 54.5t-33 126.5q12 75 69.5 126.5t141.5 51.5q80 0 124 -57.5t30 -132.5q-15 -72 -71.5 -120.5t-137.5 -48.5zM61 0l623 700h152l-624 -700h-151zM260 488q21 0 36.5 14t18.5 34q4 20 -6.5 34t-31.5 14q-19 0 -34.5 -14t-19.5 -34t6.5 -34t30.5 -14z
M603 -14q-80 0 -124 55.5t-32 128.5q13 74 70 124.5t140 50.5q80 0 124 -57t30 -131q-14 -72 -70.5 -121.5t-137.5 -49.5zM1004 -14q-80 0 -124 55.5t-32 128.5q13 74 70 124.5t140 50.5q80 0 124 -57t30 -131q-14 -72 -70.5 -121.5t-137.5 -49.5zM621 117q20 0 35.5 14.5
t19.5 33.5q3 21 -7 34.5t-31 13.5q-20 0 -35.5 -14t-18.5 -34q-4 -20 6.5 -34t30.5 -14zM1022 117q20 0 35.5 14.5t19.5 33.5q3 21 -7 34.5t-31 13.5q-20 0 -35.5 -14t-18.5 -34q-4 -20 6.5 -34t30.5 -14z" />
    <glyph glyph-name="guilsinglleft" unicode="&#x2039;" horiz-adv-x="364" 
d="M354 504l-147 -200l76 -190h-139l-79 195l144 195h145z" />
    <glyph glyph-name="guilsinglright" unicode="&#x203a;" horiz-adv-x="365" 
d="M242 504l78 -195l-143 -195h-146l148 200l-77 190h140z" />
    <glyph glyph-name="fraction" unicode="&#x2044;" horiz-adv-x="180" 
d="M-94 0h-119l522 700h119z" />
    <glyph glyph-name="Euro" unicode="&#x20ac;" horiz-adv-x="656" 
d="M672 445h-179q6 96 -77 96q-75 0 -115 -88h159l-15 -84h-169q-2 -7 -4 -19l-3 -16h170l-15 -84h-159q8 -91 84 -91q88 0 112 104h180q-33 -131 -114.5 -204.5t-200.5 -73.5q-111 0 -174.5 72t-66.5 193h-70l15 84h60q2 16 4 26q0 2 0.5 5t0.5 4h-59l15 84h66
q40 124 123 193t199 69q110 0 174 -75.5t59 -194.5z" />
    <glyph glyph-name="uni20BD" unicode="&#x20bd;" horiz-adv-x="610" 
d="M427 700q99 0 161.5 -71.5t44.5 -173.5q-19 -110 -95 -167t-194 -57h-93l-7 -40h205l-17 -99h-206l-16 -92h-179l17 92h-66l17 99h66l7 40h-65l28 159h65l55 310h178h94zM455 460q6 32 -10.5 51t-47.5 19h-94l-24 -140h93q31 0 54.5 19t28.5 51z" />
    <glyph glyph-name="uni2116" unicode="&#x2116;" horiz-adv-x="1021" 
d="M841 366q-75 0 -118.5 53.5t-30.5 125.5q12 74 69 122t135 48q76 0 119.5 -53.5t30.5 -126.5t-69.5 -121t-135.5 -48zM500 700h178l-123 -700h-138l-163 362l-64 -362h-179l123 700h139l163 -362zM861 495q20 0 34.5 12.5t17.5 32.5q4 20 -6.5 33t-29.5 13t-34 -13
t-19 -33q-3 -20 7 -32.5t30 -12.5zM641 166l27 159h328l-28 -159h-327z" />
    <glyph glyph-name="trademark" unicode="&#x2122;" horiz-adv-x="471" 
d="M262 631h-46l-23 -131h-73l23 131h-46l12 69h119h46zM520 700l-35 -200h-72l16 89l-39 -53h-27l-20 54l-16 -90h-70l35 200h70h1l25 -80l55 80h77z" />
    <glyph glyph-name="estimated" unicode="&#x212e;" horiz-adv-x="780" 
d="M471 710q161 0 247.5 -104.5t59.5 -255.5q-3 -15 -18 -15h-560q-15 0 -18 -15l-33 -192q-3 -11 3 -19q69 -89 218 -89q143 0 250 97q9 9 19 9h35q10 0 12 -6t-6 -13q-130 -117 -316 -117q-173 0 -262.5 108t-62.5 262q27 152 146.5 251t285.5 99zM668 574q1 11 -4 19
q-67 87 -198 87q-129 0 -229 -89q-9 -9 -10 -19l-34 -192q-3 -15 12 -15h410q15 0 18 15z" />
    <glyph glyph-name="oneeighth" unicode="&#x215b;" horiz-adv-x="805" 
d="M116 300l46 265l-105 -51l23 133l106 53h131l-70 -400h-131zM585 700h119l-522 -700h-119zM783 288q-9 -53 -58 -82q48 -37 39 -100q-9 -57 -55 -88.5t-122 -31.5q-72 0 -111 35.5t-29 92.5q11 66 76 98q-39 32 -30 85q10 56 54.5 86.5t108.5 30.5q61 0 99 -35t28 -91z
M602 280q-2 -13 5.5 -20t23.5 -7q33 0 38 27q6 28 -28 28q-33 0 -39 -28zM647 127q5 33 -32 33q-39 0 -44 -33q-7 -34 32 -34q37 0 44 34z" />
    <glyph glyph-name="threeeighths" unicode="&#x215c;" horiz-adv-x="864" 
d="M349 416q-12 -65 -57.5 -97.5t-114.5 -32.5q-70 0 -110 36.5t-29 102.5h127q-5 -26 25 -26q29 0 34 26q5 25 -25 25h-73l12 71l59 63h-114l20 116h274l-15 -87l-74 -78q35 -16 51.5 -47t9.5 -72zM644 700h119l-522 -700h-119zM842 288q-9 -53 -58 -82q48 -37 39 -100
q-9 -57 -55 -88.5t-122 -31.5q-72 0 -111 35.5t-29 92.5q11 66 76 98q-39 32 -30 85q10 56 54.5 86.5t108.5 30.5q61 0 99 -35t28 -91zM661 280q-2 -13 5.5 -20t23.5 -7q34 0 38 27q6 28 -28 28q-33 0 -39 -28zM706 127q5 33 -32 33q-39 0 -44 -33q-7 -34 32 -34q37 0 44 34
z" />
    <glyph glyph-name="fiveeighths" unicode="&#x215d;" horiz-adv-x="860" 
d="M342 412q-11 -64 -56.5 -95t-110.5 -31q-67 0 -105 34.5t-27 100.5h120q-5 -26 26 -26q14 0 23 7.5t11 18.5q5 28 -24 28h-141l61 251h255l-20 -116h-142l-8 -33h18q60 0 96 -36t24 -103zM641 700h119l-522 -700h-119zM839 288q-9 -53 -58 -82q48 -37 39 -100
q-9 -57 -55 -88.5t-122 -31.5q-72 0 -111 35.5t-29 92.5q11 66 76 98q-39 32 -30 85q10 56 54.5 86.5t108.5 30.5q61 0 99 -35t28 -91zM658 280q-2 -13 5.5 -20t23.5 -7q33 0 38 27q6 28 -28 28q-33 0 -39 -28zM703 127q5 33 -32 33q-39 0 -44 -33q-7 -34 32 -34q37 0 44 34
z" />
    <glyph glyph-name="seveneighths" unicode="&#x215e;" horiz-adv-x="830" 
d="M188 300h-138l154 284h-145l20 116h289l-17 -99zM611 700h119l-522 -700h-119zM809 288q-9 -53 -58 -82q48 -37 39 -100q-9 -57 -55 -88.5t-122 -31.5q-72 0 -111 35.5t-29 92.5q11 66 76 98q-39 32 -30 85q10 56 54.5 86.5t108.5 30.5q61 0 99 -35t28 -91zM628 280
q-2 -13 5.5 -20t23.5 -7q33 0 38 27q6 28 -28 28q-33 0 -39 -28zM673 127q5 33 -32 33q-39 0 -44 -33q-7 -34 32 -34q37 0 44 34z" />
    <glyph glyph-name="arrowleft" unicode="&#x2190;" horiz-adv-x="785" 
d="M781 429l-27 -158h-427l182 -221h-209l-247 300l353 300h229l-260 -221h406z" />
    <glyph glyph-name="arrowup" unicode="&#x2191;" horiz-adv-x="671" 
d="M661 400l-36 -207l-178 217l-72 -410h-167l70 391l-256 -217l40 226l352 300z" />
    <glyph glyph-name="arrowright" unicode="&#x2192;" horiz-adv-x="785" 
d="M521 650l247 -300l-353 -300h-229l260 221h-407l28 158h427l-182 221h209z" />
    <glyph glyph-name="arrowdown" unicode="&#x2193;" horiz-adv-x="671" 
d="M429 310l255 217l-40 -227l-353 -300l-247 300l37 207l178 -217l72 410h167z" />
    <glyph glyph-name="arrowboth" unicode="&#x2194;" horiz-adv-x="1137" 
d="M1120 350l-335 -285h-225l240 206h-475l169 -206h-206l-235 285l335 285h226l-241 -206h475l-170 206h207z" />
    <glyph glyph-name="arrowupdn" unicode="&#x2195;" horiz-adv-x="640" 
d="M629 388l-166 202l-81 -462l237 201l-40 -223l-334 -285l-234 285l36 206l166 -202l81 462l-237 -201l40 223l334 285l234 -285z" />
    <glyph glyph-name="uni2196" unicode="&#x2196;" horiz-adv-x="652" 
d="M653 474h-318l263 -320l-126 -106l-263 318l-56 -316l-126 153l75 424h424z" />
    <glyph glyph-name="uni2197" unicode="&#x2197;" horiz-adv-x="652" 
d="M259 627h424l-74 -424l-181 -153l53 297l-358 -303l-105 125l360 305h-299z" />
    <glyph glyph-name="uni2198" unicode="&#x2198;" horiz-adv-x="652" 
d="M532 642l127 -153l-75 -424h-424l-126 153h317l-263 320l126 106l263 -319z" />
    <glyph glyph-name="uni2199" unicode="&#x2199;" horiz-adv-x="652" 
d="M667 523l-360 -305h300l-180 -153h-424l75 424l179 153l-52 -299l358 304z" />
    <glyph glyph-name="partialdiff" unicode="&#x2202;" horiz-adv-x="584" 
d="M322 715q120 0 193 -106.5t45 -268.5q-31 -178 -121 -266.5t-221 -88.5q-105 0 -157 67.5t-37 159.5q16 96 86 159.5t172 63.5q67 0 116 -27q3 148 -125 151q-58 1 -121 -31l27 151q63 36 143 36zM245 139q85 0 128 128q-35 24 -85 24q-36 0 -64 -22.5t-35 -61.5
q-5 -31 11.5 -49.5t44.5 -18.5z" />
    <glyph glyph-name="emptyset" unicode="&#x2205;" horiz-adv-x="804" 
d="M832 720l-114 -122q87 -110 62 -258q-27 -150 -146.5 -251t-269.5 -101q-95 0 -171 49l-53 -57h-133l114 122q-89 112 -62 258q26 150 146.5 251t270.5 101q93 0 170 -48l53 56h133zM172 350q-16 -91 29 -162l364 389q-44 23 -101 23q-103 0 -188 -73t-104 -177zM667 350
q17 94 -29 162l-364 -389q44 -23 101 -23q104 0 189 73t103 177z" />
    <glyph glyph-name="product" unicode="&#x220f;" horiz-adv-x="631" 
d="M-24 -200l158 900h520l-158 -900h-166l130 741h-187l-130 -741h-167z" />
    <glyph glyph-name="summation" unicode="&#x2211;" horiz-adv-x="561" 
d="M-54 -200l27 152l253 321l-128 301l21 126h470l-28 -163h-267l118 -277l-233 -297h296l-29 -163h-500z" />
    <glyph glyph-name="minus" unicode="&#x2212;" horiz-adv-x="560" 
d="M44 271l29 158h478l-28 -158h-479z" />
    <glyph glyph-name="radical" unicode="&#x221a;" horiz-adv-x="693" 
d="M209 0l-81 179h-110l28 158h194l59 -146l311 609h180l-421 -800h-160z" />
    <glyph glyph-name="infinity" unicode="&#x221e;" horiz-adv-x="819" 
d="M629 542q85 0 133 -56.5t33 -142.5q-15 -85 -75.5 -135t-144.5 -50q-90 0 -163 86q-97 -86 -185 -86q-85 0 -134 57t-33 142q15 85 75.5 135t145.5 50q88 0 163 -86q96 86 185 86zM263 310q35 0 76 40q-28 40 -62 40q-18 0 -32 -11t-17 -29q-4 -18 6.5 -29t28.5 -11z
M627 350q3 18 -6.5 29t-27.5 11q-36 0 -76 -40q27 -40 62 -40q17 0 30.5 11t17.5 29z" />
    <glyph glyph-name="integral" unicode="&#x222b;" horiz-adv-x="461" 
d="M-80 -204l29 164q25 -16 60.5 -2t48.5 54l181 521q40 117 120 155.5t182 13.5l-30 -164q-25 16 -60 2t-49 -54l-180 -521q-27 -80 -76 -124.5t-105.5 -51t-120.5 6.5z" />
    <glyph glyph-name="approxequal" unicode="&#x2248;" horiz-adv-x="568" 
d="M312 371q-42 20 -75 24.5t-52.5 -1.5t-48.5 -21l-72 38q36 108 106 143t151 -5q58 -30 91.5 -27.5t52.5 45.5l113 -58q-39 -105 -112.5 -141.5t-153.5 3.5zM139 131l-115 58q41 106 114 142t154 -4q43 -20 75 -24t52 1.5t48 21.5l73 -39q-37 -108 -106.5 -143t-151.5 5
q-58 30 -91 27.5t-52 -45.5z" />
    <glyph glyph-name="notequal" unicode="&#x2260;" horiz-adv-x="511" 
d="M497 380h-162l-37 -60h189l-28 -159h-259l-69 -111h-86l68 111h-93l28 159h163l38 60h-191l29 159h260l68 111h87l-69 -111h93z" />
    <glyph glyph-name="lessequal" unicode="&#x2264;" horiz-adv-x="521" 
d="M562 684l-32 -179l-292 -70l268 -69l-30 -166l-422 158l30 168zM-5 21l28 159h450l-28 -159h-450z" />
    <glyph glyph-name="greaterequal" unicode="&#x2265;" horiz-adv-x="521" 
d="M112 684l422 -158l-30 -168l-478 -158l32 179l292 69l-268 69zM-5 21l28 159h450l-28 -159h-450z" />
    <glyph glyph-name="lozenge" unicode="&#x25ca;" horiz-adv-x="588" 
d="M177 0l-124 350l247 350h146l125 -350l-248 -350h-146zM280 207l110 156l-46 130l-110 -156z" />
    <glyph glyph-name="i.loclTRK" horiz-adv-x="262" 
d="M104 548l26 154h160l-27 -154h-159zM4 0l88 500h166l-88 -500h-166z" />
    <glyph glyph-name="a.ss01" horiz-adv-x="615" 
d="M445 500h166l-88 -500h-166l5 29q-57 -43 -137 -43q-113 0 -165.5 81.5t-33.5 189.5q17 105 91.5 181t185.5 76q90 0 134 -60zM277 143q47 0 81 29t43 77v1q8 49 -15.5 78t-70.5 29t-81 -29.5t-42 -77.5q-8 -49 15 -78t70 -29z" />
    <glyph glyph-name="aacute.ss01" horiz-adv-x="615" 
d="M579 700l-136 -145h-163l101 145h198zM445 500h166l-88 -500h-166l5 29q-57 -43 -137 -43q-113 0 -165.5 81.5t-33.5 189.5q17 105 91.5 181t185.5 76q90 0 134 -60zM277 143q47 0 81 29t43 77v1q8 49 -15.5 78t-70.5 29t-81 -29.5t-42 -77.5q-8 -49 15 -78t70 -29z" />
    <glyph glyph-name="abreve.ss01" horiz-adv-x="615" 
d="M376 537q-85 0 -129.5 44t-30.5 116h140q-8 -44 32 -44q39 0 47 44h140q-25 -160 -199 -160zM445 500h166l-88 -500h-166l5 29q-57 -43 -137 -43q-113 0 -165.5 81.5t-33.5 189.5q17 105 91.5 181t185.5 76q90 0 134 -60zM277 143q47 0 81 29t43 77v1q8 49 -15.5 78
t-70.5 29t-81 -29.5t-42 -77.5q-8 -49 15 -78t70 -29z" />
    <glyph glyph-name="acircumflex.ss01" horiz-adv-x="615" 
d="M375 601l-50 -56h-151l133 155h156h11l79 -155h-149zM445 500h166l-88 -500h-166l5 29q-57 -43 -137 -43q-113 0 -165.5 81.5t-33.5 189.5q17 105 91.5 181t185.5 76q90 0 134 -60zM277 143q47 0 81 29t43 77v1q8 49 -15.5 78t-70.5 29t-81 -29.5t-42 -77.5
q-8 -49 15 -78t70 -29z" />
    <glyph glyph-name="adieresis.ss01" horiz-adv-x="615" 
d="M369 690l-25 -140h-139l25 140h139zM559 690l-25 -140h-140l25 140h140zM445 500h166l-88 -500h-166l5 29q-57 -43 -137 -43q-113 0 -165.5 81.5t-33.5 189.5q17 105 91.5 181t185.5 76q90 0 134 -60zM277 143q47 0 81 29t43 77v1q8 49 -15.5 78t-70.5 29t-81 -29.5
t-42 -77.5q-8 -49 15 -78t70 -29z" />
    <glyph glyph-name="agrave.ss01" horiz-adv-x="615" 
d="M460 555h-154l-95 145h188zM445 500h166l-88 -500h-166l5 29q-57 -43 -137 -43q-113 0 -165.5 81.5t-33.5 189.5q17 105 91.5 181t185.5 76q90 0 134 -60zM277 143q47 0 81 29t43 77v1q8 49 -15.5 78t-70.5 29t-81 -29.5t-42 -77.5q-8 -49 15 -78t70 -29z" />
    <glyph glyph-name="amacron.ss01" horiz-adv-x="615" 
d="M547 684l-23 -130h-309l22 130h310zM445 500h166l-88 -500h-166l5 29q-57 -43 -137 -43q-113 0 -165.5 81.5t-33.5 189.5q17 105 91.5 181t185.5 76q90 0 134 -60zM277 143q47 0 81 29t43 77v1q8 49 -15.5 78t-70.5 29t-81 -29.5t-42 -77.5q-8 -49 15 -78t70 -29z" />
    <glyph glyph-name="aogonek.ss01" horiz-adv-x="615" 
d="M445 500h166l-88 -500q-54 -49 -57 -82q-3 -19 18 -19q10 0 22 3l-18 -99q-38 -17 -85 -17q-46 0 -72.5 22.5t-22.5 62.5q3 64 84 129h-35l5 29q-57 -43 -137 -43q-113 0 -165.5 81.5t-33.5 189.5q17 105 91.5 181t185.5 76q90 0 134 -60zM277 143q47 0 81 29t43 77v1
q8 49 -15.5 78t-70.5 29t-81 -29.5t-42 -77.5q-8 -49 15 -78t70 -29z" />
    <glyph glyph-name="aring.ss01" horiz-adv-x="615" 
d="M368 533q-61 0 -95 39t-24 96t54.5 93t106.5 36q61 0 95.5 -39.5t23.5 -96.5q-10 -57 -53.5 -92.5t-107.5 -35.5zM356 665q-5 -32 27 -32q35 0 40 31q3 14 -4.5 23.5t-24.5 9.5q-15 0 -25.5 -9t-12.5 -23zM445 500h166l-88 -500h-166l5 29q-57 -43 -137 -43
q-113 0 -165.5 81.5t-33.5 189.5q17 105 91.5 181t185.5 76q90 0 134 -60zM277 143q47 0 81 29t43 77v1q8 49 -15.5 78t-70.5 29t-81 -29.5t-42 -77.5q-8 -49 15 -78t70 -29z" />
    <glyph glyph-name="atilde.ss01" horiz-adv-x="615" 
d="M368 568q-21 16 -36.5 13.5t-20.5 -33.5h-121q6 60 28 99t53 52.5t64 11.5t63 -20q17 -10 26.5 -13.5t18 4t12.5 28.5h122q-6 -60 -29 -99t-53.5 -52.5t-63.5 -11t-63 20.5zM445 500h166l-88 -500h-166l5 29q-57 -43 -137 -43q-113 0 -165.5 81.5t-33.5 189.5
q17 105 91.5 181t185.5 76q90 0 134 -60zM277 143q47 0 81 29t43 77v1q8 49 -15.5 78t-70.5 29t-81 -29.5t-42 -77.5q-8 -49 15 -78t70 -29z" />
    <glyph glyph-name="ae.ss01" horiz-adv-x="945" 
d="M734 514q98 0 153 -77t35 -186q-7 -36 -18 -62h-155h-188q12 -75 93 -75q55 0 79 32h155q-76 -160 -227 -160q-94 0 -145 60l-8 -46h-151l7 41q-61 -55 -143 -55q-75 0 -124.5 40.5t-66 101.5t-4.5 130q17 104 92 180t186 76q91 0 133 -58l8 44h151l-6 -39q63 53 144 53z
M580 305h191q-5 69 -79 69q-76 0 -112 -69zM277 143q47 0 81 29t43 77v1q8 49 -15.5 78t-70.5 29t-81.5 -29.5t-42.5 -77.5q-8 -49 15.5 -78t70.5 -29z" />
    <glyph glyph-name="y.ss01" 
d="M366 500h166l-91 -516q-18 -102 -86.5 -150.5t-161.5 -48.5q-58 0 -103.5 19t-70 61.5t-13.5 100.5h159q-5 -40 46 -40q55 0 64 58l10 61q-48 -50 -122 -50q-72 0 -111 54t-24 142l55 309h166l-51 -290q-10 -58 45 -58q56 0 72 59z" />
    <glyph glyph-name="yacute.ss01" 
d="M527 700l-136 -145h-163l101 145h198zM366 500h166l-91 -516q-18 -102 -86.5 -150.5t-161.5 -48.5q-58 0 -103.5 19t-70 61.5t-13.5 100.5h159q-5 -40 46 -40q55 0 64 58l10 61q-48 -50 -122 -50q-72 0 -111 54t-24 142l55 309h166l-51 -290q-10 -58 45 -58q56 0 72 59z
" />
    <glyph glyph-name="ycircumflex.ss01" 
d="M323 601l-50 -56h-151l133 155h156h11l79 -155h-149zM366 500h166l-91 -516q-18 -102 -86.5 -150.5t-161.5 -48.5q-58 0 -103.5 19t-70 61.5t-13.5 100.5h159q-5 -40 46 -40q55 0 64 58l10 61q-48 -50 -122 -50q-72 0 -111 54t-24 142l55 309h166l-51 -290
q-10 -58 45 -58q56 0 72 59z" />
    <glyph glyph-name="ydieresis.ss01" 
d="M317 690l-25 -140h-139l25 140h139zM507 690l-25 -140h-140l25 140h140zM366 500h166l-91 -516q-18 -102 -86.5 -150.5t-161.5 -48.5q-58 0 -103.5 19t-70 61.5t-13.5 100.5h159q-5 -40 46 -40q55 0 64 58l10 61q-48 -50 -122 -50q-72 0 -111 54t-24 142l55 309h166
l-51 -290q-10 -58 45 -58q56 0 72 59z" />
    <glyph glyph-name="ygrave.ss01" 
d="M408 555h-154l-95 145h188zM366 500h166l-91 -516q-18 -102 -86.5 -150.5t-161.5 -48.5q-58 0 -103.5 19t-70 61.5t-13.5 100.5h159q-5 -40 46 -40q55 0 64 58l10 61q-48 -50 -122 -50q-72 0 -111 54t-24 142l55 309h166l-51 -290q-10 -58 45 -58q56 0 72 59z" />
    <glyph glyph-name="f_f_j" horiz-adv-x="839" 
d="M835 500l-88 -500q-21 -123 -87 -172.5t-190 -42.5l27 154q73 -4 84 61l60 341h-113l-61 -341h-166l60 341h-62h-54l-60 -341h-166l60 341h-63l28 159h63q40 230 290 215l-27 -154q-85 6 -97 -61h86h30l2 10q19 111 90 163t200 52q65 0 127 -15l-26 -145q-54 9 -108 9
q-105 0 -117 -64l-1 -10h279z" />
    <glyph glyph-name="f_j" horiz-adv-x="557" 
d="M553 500l-88 -500q-21 -123 -87 -172.5t-190 -42.5l27 154q73 -4 84 61l60 341h-114l-60 -341h-166l60 341h-63l28 159h63q19 112 90 163.5t200 51.5q65 0 126 -15l-25 -145q-52 9 -108 9q-105 0 -117 -64h280z" />
    <glyph glyph-name="uni0414.loclBGR" horiz-adv-x="740" 
d="M635 169h80l-55 -313h-178l25 144h-319h-43l-25 -144h-179l55 313h80l266 531h214zM266 169h189l-36 331z" />
    <glyph glyph-name="uni041B.loclBGR" horiz-adv-x="640" 
d="M-49 0l341 700h214l95 -700h-188l-44 492l-218 -492h-200z" />
    <glyph glyph-name="uni0424.loclBGR" horiz-adv-x="869" 
d="M599 704q140 -25 211.5 -124t46.5 -240q-26 -146 -127.5 -237t-256.5 -110l-16 -93h-169l17 96q-140 25 -211.5 124t-46.5 240q25 145 127 236t257 111l16 93h169zM679 350q28 156 -109 189l-67 -378q148 32 176 189zM225 350q-29 -155 109 -189l67 378
q-150 -34 -176 -189z" />
    <glyph glyph-name="uni0414.ss01" horiz-adv-x="697" 
d="M683 700l-93 -531h74l-29 -169h-254h-415l30 169h70q64 76 92 226l53 305h472zM259 169h152l65 365h-115l-25 -141q-26 -147 -77 -224z" />
    <glyph glyph-name="uni0426.ss01" horiz-adv-x="692" 
d="M580 173h80l-30 -173h-619l123 700h184l-93 -527h172l93 527h183z" />
    <glyph glyph-name="uni0429.ss01" horiz-adv-x="952" 
d="M840 173h80l-30 -173h-879l123 700h179l-93 -527h132l92 527h179l-93 -527h132l92 527h179z" />
    <glyph glyph-name="uni0414.loclBGR.ss01" horiz-adv-x="740" 
d="M635 169h80l-30 -169h-212h-481h-26l30 169h80l266 531h214zM266 169h189l-36 331z" />
    <glyph glyph-name="uni0432.loclBGR" horiz-adv-x="562" 
d="M537 522q-13 -69 -80 -124q97 -60 73 -190q-19 -108 -90 -165t-187 -57q-108 0 -167.5 70t-40.5 179l42 239q21 118 89.5 179t176.5 61q89 0 143.5 -55t40.5 -137zM332 560q-29 0 -50 -23.5t-28 -62.5l-10 -55l21 4q24 5 46 6q52 37 60 79q5 23 -6 37.5t-33 14.5z
M364 218q8 43 -22 59.5t-89 4.5l-34 -6l-9 -48q-6 -38 11.5 -61t52.5 -23q37 0 61 19.5t29 54.5z" />
    <glyph glyph-name="uni0433.loclBGR" horiz-adv-x="463" 
d="M266 164h164q-16 -91 -81 -134.5t-156 -43.5t-148.5 45t-42.5 128q10 55 42.5 88.5t72 45t78.5 17t67 14t31 27.5q2 14 -7 22t-30 8q-43 0 -51 -45h-162q16 88 80 133t148 45q87 0 144.5 -46t43.5 -127q-10 -54 -42.5 -87.5t-72.5 -45.5t-79 -18t-67 -14.5t-31 -26.5
q-5 -30 41 -30q50 0 58 45z" />
    <glyph glyph-name="uni0434.loclBGR" horiz-adv-x="619" 
d="M451 500h164l-85 -480q-21 -120 -104.5 -177.5t-190.5 -57.5t-174 53t-52 154h163q-3 -29 19.5 -45.5t63.5 -16.5q43 0 73 22.5t38 67.5l5 28q-53 -42 -137 -42q-113 0 -166 78t-37 183q14 99 89 173t182 74q95 0 140 -62zM284 158q45 0 79 26t44 68l3 15q5 42 -20 68.5
t-70 26.5q-47 0 -81 -28.5t-42 -73.5t16 -73.5t71 -28.5z" />
    <glyph glyph-name="uni0436.loclBGR" horiz-adv-x="779" 
d="M-39 0l203 261l-101 239h168l84 -203l71 403h165l-73 -408l153 208h184l-199 -258l110 -242h-170l-91 212l-38 -212h-164l36 205l-159 -205h-179z" />
    <glyph glyph-name="uni0438.loclBGR" 
d="M366 500h166l-88 -500h-166l7 42q-45 -56 -126 -56q-72 0 -110 54t-23 141l57 319h166l-52 -299q-10 -58 45 -58q57 0 72 64z" />
    <glyph glyph-name="uni0439.loclBGR" 
d="M510 694l-24 -140h-323l24 140h323zM366 500h166l-88 -500h-166l7 42q-45 -56 -126 -56q-72 0 -110 54t-23 141l57 319h166l-52 -299q-10 -58 45 -58q57 0 72 64z" />
    <glyph glyph-name="uni043A.loclBGR" horiz-adv-x="537" 
d="M573 500l-210 -251l130 -249h-178l-106 219l-39 -219h-166l123 700h166l-69 -397l158 197h191z" />
    <glyph glyph-name="uni043B.loclBGR" horiz-adv-x="533" 
d="M489 0h-169l-41 283l-140 -283h-183l270 500h161h8z" />
    <glyph glyph-name="uni043F.loclBGR" 
d="M377 514q71 0 109 -56t22 -145l-55 -313h-166l53 299q9 59 -45 59q-58 0 -73 -65l-52 -293h-166l88 500h166l-7 -42q53 56 126 56z" />
    <glyph glyph-name="uni0442.loclBGR" horiz-adv-x="768" 
d="M609 514q73 0 111 -51.5t23 -136.5l-57 -326h-167l55 312q4 23 -6.5 34t-28.5 11q-45 0 -58 -55l-53 -302h-166l55 312q3 23 -7 34t-28 11q-45 0 -58 -54l-54 -303h-166l88 500h166l-6 -39q51 53 126 53q71 0 99 -55q57 55 132 55z" />
    <glyph glyph-name="uni0446.loclBGR" horiz-adv-x="576" 
d="M501 152h45l-50 -282h-157l25 145q-27 13 -41 34q-63 -63 -153 -63q-77 0 -117.5 54.5t-24.5 146.5l55 313h166l-52 -299q-10 -58 45 -58t71 59l53 298h166l-56 -318q-5 -30 25 -30z" />
    <glyph glyph-name="uni0448.loclBGR" horiz-adv-x="769" 
d="M598 500h166l-88 -500h-166l7 39q-53 -53 -126 -53q-70 0 -100 55q-58 -55 -132 -55q-73 0 -111 51.5t-22 136.5l57 326h166l-55 -312q-4 -23 6.5 -34t28.5 -11q43 0 57 49l54 308h167l-55 -312q-4 -23 6.5 -34t28.5 -11q47 0 59 62z" />
    <glyph glyph-name="uni0449.loclBGR" horiz-adv-x="808" 
d="M733 152h45l-49 -282h-157l25 145q-24 10 -40 31q-63 -60 -149 -60q-79 0 -112 59q-59 -59 -136 -59q-75 0 -112.5 50t-21.5 138l57 326h166l-55 -312q-8 -45 35 -45q46 0 58 55l53 302h167l-55 -312q-8 -45 35 -45q45 0 57 52l54 305h166l-55 -318q-6 -30 24 -30z" />
    <glyph glyph-name="uni044C.loclBGR" horiz-adv-x="493" 
d="M290 373q92 0 141 -57t33 -145q-15 -86 -78.5 -136t-163.5 -50q-104 0 -156.5 59t-36.5 152l54 304h162l-23 -127h68zM305 184q4 22 -7.5 35.5t-36.5 13.5h-63l-7 -40q-5 -26 7.5 -41t39.5 -15q26 0 45 13.5t22 33.5z" />
    <glyph glyph-name="uni044A.loclBGR" horiz-adv-x="578" 
d="M375 373q95 0 142 -56.5t32 -145.5q-15 -86 -78.5 -136t-163.5 -50q-104 0 -157 59t-36 152l26 150h-123l27 154h175h110l-22 -127h68zM389 184q5 22 -6.5 35.5t-37.5 13.5h-63l-7 -40q-5 -26 8 -41t40 -15q26 0 44.5 13.5t21.5 33.5z" />
    <glyph glyph-name="uni044E.loclBGR" horiz-adv-x="807" 
d="M555 514q83 0 139.5 -41.5t77 -103.5t9.5 -131q-17 -103 -99 -177.5t-198 -74.5q-99 0 -157 52.5t-70 133.5h-57l-30 -172h-166l123 700h166l-65 -372h50q33 82 105.5 134t171.5 52zM616 250q8 46 -15 75t-67 29q-43 0 -76.5 -29t-41.5 -75q-7 -46 15.5 -75t66.5 -29
q43 0 77 29t41 75z" />
    <glyph glyph-name="uni0430.ss01" horiz-adv-x="615" 
d="M445 500h166l-88 -500h-166l5 29q-57 -43 -137 -43q-113 0 -165.5 81.5t-33.5 189.5q17 105 91.5 181t185.5 76q90 0 134 -60zM277 143q47 0 81 29t43 77v1q8 49 -15.5 78t-70.5 29t-81 -29.5t-42 -77.5q-8 -49 15 -78t70 -29z" />
    <glyph glyph-name="uni0443.ss01" 
d="M366 500h166l-91 -516q-18 -102 -86.5 -150.5t-161.5 -48.5q-58 0 -103.5 19t-70 61.5t-13.5 100.5h159q-5 -40 46 -40q55 0 64 58l10 61q-48 -50 -122 -50q-72 0 -111 54t-24 142l55 309h166l-51 -290q-10 -58 45 -58q56 0 72 59z" />
    <glyph glyph-name="zero.sinf" horiz-adv-x="409" 
d="M136 -174q-82 0 -126.5 61.5t-27.5 159.5q18 99 75.5 153t141.5 54q81 0 126.5 -62t27.5 -159q-17 -99 -74.5 -153t-142.5 -54zM153 -43q51 0 65 83q16 83 -36 83q-50 0 -66 -83q-14 -83 37 -83z" />
    <glyph glyph-name="one.sinf" horiz-adv-x="276" 
d="M105 240h131l-70 -400h-131l46 264l-105 -50l23 133z" />
    <glyph glyph-name="two.sinf" horiz-adv-x="356" 
d="M-44 -160l16 91l167 139q35 30 38 46q3 22 -19 22q-25 0 -31 -32h-130q14 74 62.5 111t114.5 37q64 0 104.5 -37.5t28.5 -102.5q-10 -57 -88 -118l-50 -39h113l-20 -117h-306z" />
    <glyph glyph-name="three.sinf" horiz-adv-x="335" 
d="M296 240l-15 -87l-74 -78q35 -16 51.5 -47t9.5 -72q-12 -65 -57.5 -97.5t-114.5 -32.5q-70 0 -110 36.5t-29 102.5h127q-5 -26 25 -26q29 0 34 26q5 25 -25 25h-73l12 71l59 63h-114l20 116h274z" />
    <glyph glyph-name="four.sinf" horiz-adv-x="362" 
d="M307 11l-20 -115h-35l-10 -56h-122l10 56h-184l20 115l152 229h141l-147 -229h39l11 63h121l-11 -63h35z" />
    <glyph glyph-name="five.sinf" horiz-adv-x="331" 
d="M273 124h-142l-8 -33h18q60 0 96 -36t24 -103q-11 -64 -56.5 -95t-110.5 -31q-67 0 -105 34.5t-27 100.5h120q-5 -26 26 -26q14 0 23 7.5t11 18.5q5 28 -24 28h-141l61 251h255z" />
    <glyph glyph-name="six.sinf" horiz-adv-x="343" 
d="M184 111q52 -12 78.5 -52t17.5 -94q-11 -64 -58.5 -101.5t-120.5 -37.5q-70 0 -108.5 43.5t-27.5 107.5q7 46 36 81l141 182h140zM160 -29q7 36 -31 36q-37 0 -44 -36q-4 -18 5 -27.5t26 -9.5q38 0 44 37z" />
    <glyph glyph-name="seven.sinf" horiz-adv-x="302" 
d="M-2 240h289l-17 -99l-163 -301h-138l154 284h-145z" />
    <glyph glyph-name="eight.sinf" horiz-adv-x="349" 
d="M299 128q-10 -54 -59 -82q49 -37 40 -100q-9 -57 -55 -88.5t-122 -31.5q-72 0 -111 35.5t-29 92.5q13 66 76 98q-39 32 -30 85q10 56 54.5 86.5t108.5 30.5q61 0 99 -35t28 -91zM118 120q-2 -13 5.5 -20t23.5 -7q33 0 38 27q6 28 -28 28q-33 0 -39 -28zM163 -33
q5 33 -32 33q-39 0 -44 -33q-7 -34 32 -34q37 0 44 34z" />
    <glyph glyph-name="nine.sinf" horiz-adv-x="343" 
d="M168 254q70 0 108.5 -43.5t27.5 -107.5q-7 -46 -36 -81l-141 -182h-140l98 129q-52 12 -78.5 52t-17.5 94q11 64 58.5 101.5t120.5 37.5zM109 109q-7 -36 31 -36q37 0 44 36q4 18 -5 27.5t-26 9.5q-38 0 -44 -37z" />
    <glyph glyph-name="zero.tf" horiz-adv-x="589" 
d="M256 -15q-134 0 -197.5 105t-34.5 270t119 260t226 95q134 0 197 -105t34 -270t-118.5 -260t-225.5 -95zM278 159q112 0 145 191t-77 191q-111 0 -144 -191q-35 -191 76 -191z" />
    <glyph glyph-name="one.tf" horiz-adv-x="589" 
d="M389 173h172l-31 -173h-350h-199l30 173h199l60 339l-176 -87l32 185l177 90h178z" />
    <glyph glyph-name="two.tf" horiz-adv-x="589" 
d="M-10 0l23 133l306 236q41 32 62 55.5t26 50.5q5 28 -12.5 47t-52.5 19q-39 0 -63.5 -21t-30.5 -57h-179q21 123 104 187.5t192 64.5q47 0 90.5 -17t76.5 -47.5t48.5 -78.5t5.5 -106q-10 -57 -45.5 -104.5t-102.5 -96.5l-127 -92h233l-30 -173h-524z" />
    <glyph glyph-name="three.tf" horiz-adv-x="589" 
d="M606 700l-25 -141l-143 -142q66 -24 99.5 -77t20.5 -127q-20 -113 -103 -170.5t-202 -57.5q-120 0 -190.5 64t-51.5 177h179q-6 -32 14.5 -49.5t68.5 -17.5q95 0 107 68q5 33 -15 50.5t-68 17.5h-100l20 111l125 123h-251l30 171h485z" />
    <glyph glyph-name="four.tf" horiz-adv-x="589" 
d="M578 270l-29 -163h-70l-19 -107h-178l19 107h-321l29 163l285 430h206l-287 -430h117l23 131h178l-23 -131h70z" />
    <glyph glyph-name="five.tf" horiz-adv-x="589" 
d="M576 529h-276l-19 -77h59q112 0 176 -64t44 -178q-19 -111 -101.5 -167.5t-200.5 -56.5q-119 0 -189 62t-51 174h179q-5 -29 14.5 -45.5t67.5 -16.5q91 0 104 62q5 30 -15 47t-67 17h-241l102 414h444z" />
    <glyph glyph-name="six.tf" horiz-adv-x="589" 
d="M378 486q107 -15 157.5 -88t34.5 -170q-17 -105 -99.5 -174t-214.5 -69t-196.5 78t-44.5 186q14 84 73 146l266 305h208zM394 237q7 42 -17 65.5t-69 23.5q-47 0 -78 -23.5t-38 -65.5q-8 -42 15.5 -65t69.5 -23t77.5 23t39.5 65z" />
    <glyph glyph-name="seven.tf" horiz-adv-x="589" 
d="M99 700h539l-25 -148l-339 -552h-201l322 527h-326z" />
    <glyph glyph-name="eight.tf" horiz-adv-x="589" 
d="M595 502q-17 -92 -102 -141q43 -30 61.5 -74.5t9.5 -95.5q-17 -97 -97 -151t-213 -54q-130 0 -197 60t-50 157q20 110 131 166q-68 53 -53 143q17 97 96.5 149.5t191.5 52.5q109 0 174 -57.5t48 -154.5zM251 492q-5 -28 15 -44t61 -16q40 0 65.5 16t30.5 44
q5 27 -15 43.5t-60 16.5q-41 0 -66.5 -16t-30.5 -44zM391 222q5 35 -17 54t-71 19q-101 0 -114 -73q-6 -34 16 -53t72 -19q100 0 114 72z" />
    <glyph glyph-name="nine.tf" horiz-adv-x="589" 
d="M368 715q132 0 197 -78t45 -186q-15 -84 -74 -146l-266 -305h-208l184 214q-107 15 -157.5 88t-34.5 170q18 105 100.5 174t213.5 69zM231 463q-7 -42 16.5 -65.5t68.5 -23.5q47 0 78.5 23.5t38.5 65.5t-16.5 65t-69.5 23q-47 0 -78 -23t-38 -65z" />
    <glyph glyph-name="zero.dnom" horiz-adv-x="409" 
d="M164 -14q-81 0 -126 61.5t-28 159.5q18 99 76 153t142 54q81 0 126.5 -62t27.5 -159q-17 -99 -75 -153t-143 -54zM181 117q52 0 66 83t-36 83q-52 0 -66 -83t36 -83z" />
    <glyph glyph-name="one.dnom" horiz-adv-x="276" 
d="M133 400h131l-70 -400h-131l46 265l-105 -51l23 133z" />
    <glyph glyph-name="two.dnom" horiz-adv-x="356" 
d="M-16 0l16 91l167 139q35 30 38 46q3 22 -19 22q-25 0 -31 -32h-130q14 74 62.5 111t114.5 37q64 0 104.5 -37.5t28.5 -102.5q-10 -57 -88 -118l-50 -39h113l-20 -117h-306z" />
    <glyph glyph-name="three.dnom" horiz-adv-x="335" 
d="M324 400l-15 -87l-74 -78q35 -16 51.5 -47t9.5 -72q-12 -65 -57.5 -97.5t-114.5 -32.5q-70 0 -110 36.5t-29 102.5h127q-5 -26 25 -26q29 0 34 26q5 25 -25 25h-73l12 71l59 63h-114l20 116h274z" />
    <glyph glyph-name="four.dnom" horiz-adv-x="361" 
d="M335 171l-20 -115h-35l-10 -56h-122l10 56h-184l20 115l152 229h141l-147 -229h39l11 63h121l-11 -63h35z" />
    <glyph glyph-name="five.dnom" horiz-adv-x="332" 
d="M302 284h-142l-9 -33h18q60 0 96 -36t24 -103q-11 -64 -56 -95t-110 -31q-67 0 -105.5 34.5t-27.5 100.5h120q-3 -26 26 -26q30 0 35 26q5 28 -24 28h-141l60 251h256z" />
    <glyph glyph-name="six.dnom" horiz-adv-x="342" 
d="M212 272q52 -13 78.5 -53t17.5 -94q-11 -64 -58.5 -101.5t-120.5 -37.5q-70 0 -108.5 43.5t-27.5 107.5q8 44 32 76l145 187h140zM188 131q7 36 -31 36q-37 0 -44 -36q-4 -18 5 -27.5t26 -9.5q38 0 44 37z" />
    <glyph glyph-name="seven.dnom" horiz-adv-x="302" 
d="M26 400h289l-17 -99l-163 -301h-138l154 284h-145z" />
    <glyph glyph-name="eight.dnom" horiz-adv-x="348" 
d="M327 288q-9 -53 -58 -82q48 -37 39 -100q-9 -57 -55 -88.5t-122 -31.5q-72 0 -111 35.5t-29 92.5q11 66 76 98q-39 32 -30 85q10 56 54.5 86.5t108.5 30.5q61 0 99 -35t28 -91zM146 280q-2 -13 5.5 -20t23.5 -7q33 0 38 27q6 28 -28 28q-33 0 -39 -28zM191 127
q5 33 -32 33q-39 0 -44 -33q-7 -34 32 -34q37 0 44 34z" />
    <glyph glyph-name="nine.dnom" horiz-adv-x="342" 
d="M196 414q70 0 108.5 -43.5t27.5 -107.5q-7 -47 -38 -83l-139 -180h-140l98 128q-52 13 -78.5 53t-17.5 94q11 64 58.5 101.5t120.5 37.5zM137 269q-7 -36 31 -36q37 0 44 36q4 18 -5 27.5t-26 9.5q-38 0 -44 -37z" />
    <glyph glyph-name="zero.numr" horiz-adv-x="409" 
d="M217 286q-82 0 -126.5 61.5t-27.5 159.5q18 99 75.5 153t141.5 54q81 0 126.5 -62t27.5 -159q-17 -99 -74.5 -153t-142.5 -54zM234 417q51 0 65 83q16 83 -36 83q-50 0 -66 -83q-14 -83 37 -83z" />
    <glyph glyph-name="one.numr" horiz-adv-x="276" 
d="M186 700h131l-70 -400h-131l46 265l-105 -51l23 133z" />
    <glyph glyph-name="two.numr" horiz-adv-x="356" 
d="M37 300l16 91l167 139q35 30 38 46q3 22 -19 22q-25 0 -31 -32h-130q14 74 62.5 111t114.5 37q64 0 104.5 -37.5t28.5 -102.5q-10 -57 -88 -118l-50 -39h113l-20 -117h-306z" />
    <glyph glyph-name="three.numr" horiz-adv-x="335" 
d="M377 700l-15 -87l-74 -78q35 -16 51.5 -47t9.5 -72q-12 -65 -57.5 -97.5t-114.5 -32.5q-70 0 -110 36.5t-29 102.5h127q-5 -26 25 -26q29 0 34 26q5 25 -25 25h-73l12 71l59 63h-114l20 116h274z" />
    <glyph glyph-name="four.numr" horiz-adv-x="361" 
d="M388 471l-20 -115h-35l-10 -56h-122l10 56h-184l20 115l152 229h141l-147 -229h39l11 63h121l-11 -63h35z" />
    <glyph glyph-name="five.numr" horiz-adv-x="332" 
d="M355 584h-142l-9 -33h18q60 0 96 -36t24 -103q-11 -64 -56 -95t-110 -31q-67 0 -105.5 34.5t-27.5 100.5h120q-3 -26 26 -26q30 0 35 26q5 28 -24 28h-141l60 251h256z" />
    <glyph glyph-name="six.numr" horiz-adv-x="342" 
d="M265 572q52 -13 78.5 -53t17.5 -94q-11 -64 -58.5 -101.5t-120.5 -37.5q-70 0 -108.5 43.5t-27.5 107.5q8 44 32 76l145 187h140zM241 431q7 36 -31 36q-37 0 -44 -36q-4 -18 5 -27.5t26 -9.5q38 0 44 37z" />
    <glyph glyph-name="seven.numr" horiz-adv-x="302" 
d="M79 700h289l-17 -99l-163 -301h-138l154 284h-145z" />
    <glyph glyph-name="eight.numr" horiz-adv-x="349" 
d="M380 588q-9 -53 -58 -82q48 -37 39 -100q-9 -57 -55 -88.5t-122 -31.5q-72 0 -111 35.5t-29 92.5q11 66 76 98q-39 32 -30 85q10 56 54.5 86.5t108.5 30.5q61 0 99 -35t28 -91zM199 580q-2 -13 5.5 -20t23.5 -7q34 0 38 27q6 28 -28 28q-33 0 -39 -28zM244 427
q5 33 -32 33q-39 0 -44 -33q-7 -34 32 -34q37 0 44 34z" />
    <glyph glyph-name="nine.numr" horiz-adv-x="342" 
d="M249 714q70 0 108.5 -43.5t27.5 -107.5q-7 -47 -38 -83l-139 -180h-140l98 128q-52 13 -78.5 53t-17.5 94q11 64 58.5 101.5t120.5 37.5zM190 569q-7 -36 31 -36q37 0 44 36q4 18 -5 27.5t-26 9.5q-38 0 -44 -37z" />
    <glyph glyph-name="zero.sups" horiz-adv-x="409" 
d="M245 446q-81 0 -126 61.5t-28 159.5q18 99 76 153t142 54q81 0 126.5 -62t27.5 -159q-17 -99 -75 -153t-143 -54zM262 577q52 0 66 83t-36 83q-52 0 -66 -83t36 -83z" />
    <glyph glyph-name="one.sups" horiz-adv-x="276" 
d="M214 860h131l-70 -400h-131l46 265l-105 -51l23 133z" />
    <glyph glyph-name="two.sups" horiz-adv-x="356" 
d="M65 460l16 91l167 139q35 30 38 46q3 22 -19 22q-25 0 -31 -32h-130q14 74 62.5 111t114.5 37q64 0 104.5 -37.5t28.5 -102.5q-10 -57 -88 -118l-50 -39h113l-20 -117h-306z" />
    <glyph glyph-name="three.sups" horiz-adv-x="336" 
d="M406 860l-15 -87l-74 -78q35 -16 51.5 -47t9.5 -72q-12 -65 -57.5 -97.5t-114.5 -32.5q-70 0 -110 36.5t-29 102.5h127q-5 -26 25 -26q29 0 34 26q5 25 -25 25h-73l12 71l59 63h-114l20 116h274z" />
    <glyph glyph-name="four.sups" horiz-adv-x="361" 
d="M416 631l-20 -115h-35l-10 -56h-122l10 56h-184l20 115l152 229h141l-147 -229h39l11 63h121l-11 -63h35z" />
    <glyph glyph-name="five.sups" horiz-adv-x="331" 
d="M383 744h-142l-9 -33h18q60 0 96 -36t24 -103q-11 -64 -56 -95t-110 -31q-67 0 -105.5 34.5t-27.5 100.5h120q-3 -26 26 -26q30 0 35 26q5 28 -24 28h-141l60 251h256z" />
    <glyph glyph-name="six.sups" horiz-adv-x="343" 
d="M294 732q52 -13 78.5 -53t16.5 -94q-11 -65 -58.5 -102t-120.5 -37q-70 0 -108.5 43.5t-27.5 107.5q7 44 34 77l144 186h140zM270 591q6 36 -32 36q-35 0 -44 -36q-7 -37 31 -37t45 37z" />
    <glyph glyph-name="seven.sups" horiz-adv-x="303" 
d="M108 860h289l-17 -99l-163 -301h-138l154 284h-145z" />
    <glyph glyph-name="eight.sups" horiz-adv-x="348" 
d="M408 748q-9 -53 -58 -82q48 -37 39 -100q-9 -57 -55 -88.5t-122 -31.5q-72 0 -111 35.5t-29 92.5q11 66 76 98q-39 32 -30 85q10 56 54.5 86.5t108.5 30.5q61 0 99 -35t28 -91zM227 740q-2 -13 5.5 -20t23.5 -7q34 0 38 27q6 28 -28 28q-33 0 -39 -28zM272 587
q5 33 -32 33q-39 0 -44 -33q-7 -34 32 -34q37 0 44 34z" />
    <glyph glyph-name="nine.sups" horiz-adv-x="342" 
d="M277 874q70 0 108.5 -43.5t27.5 -107.5q-7 -47 -38 -83l-139 -180h-140l98 128q-52 13 -78.5 53t-17.5 94q11 64 58.5 101.5t120.5 37.5zM218 729q-7 -36 31 -36q37 0 44 36q4 18 -5 27.5t-26 9.5q-38 0 -44 -37z" />
    <glyph glyph-name="cent.tf" horiz-adv-x="589" 
d="M419 401q-4 25 -26 39l-95 -191q4 -1 13 -1q67 0 90 51h173q-28 -98 -105 -155.5t-177 -57.5q-37 0 -70 9l-47 -95h-64l58 118q-61 35 -89.5 100t-15.5 142q20 112 103 183t199 71q22 0 47 -5l45 91h64l-54 -108q58 -27 92.5 -78.5t31.5 -112.5h-173zM230 350
q-7 -46 17 -75l88 176q-39 -4 -68.5 -31.5t-36.5 -69.5z" />
    <glyph glyph-name="dollar.tf" horiz-adv-x="589" 
d="M588 481h-169q9 55 -36 67l-21 -122l10 -3q43 -15 73 -31t61.5 -42.5t44 -66.5t3.5 -91q-17 -99 -88.5 -150.5t-181.5 -56.5l-15 -85h-70l15 88q-104 11 -158 70t-35 166h176q-11 -62 46 -73l22 126q-44 15 -75.5 31.5t-63 43t-44.5 66.5t-4 90q17 97 89 149t176 57
l15 86h70l-16 -88q91 -13 142.5 -72t33.5 -159zM254 502q-5 -29 42 -52l18 101q-54 -8 -60 -49zM377 199q5 33 -46 55l-18 -104q58 7 64 49z" />
    <glyph glyph-name="Euro.tf" horiz-adv-x="589" 
d="M613 445h-171q1 47 -18 71.5t-52 24.5q-62 0 -96 -88h129l-15 -84h-138l-3 -19q-1 -3 -2 -8t-1 -8h138l-15 -84h-130q3 -91 66 -91q35 0 62.5 27t39.5 77h175q-27 -129 -104.5 -203.5t-192.5 -74.5q-105 0 -163.5 72t-60.5 193h-56l15 84h47q2 16 4 26q0 3 2 9h-47l15 84
h52q39 125 115.5 193.5t184.5 68.5q103 0 164 -74t56 -196z" />
    <glyph glyph-name="florin.tf" horiz-adv-x="589" 
d="M329 537q36 80 90.5 124.5t112.5 51t122 -6.5l-28 -164q-102 30 -137 -52l-26 -59h108l-28 -159h-150l-132 -303q-51 -118 -137 -156t-188 -13l29 164q98 -29 133 52l113 256h-107l29 159h149z" />
    <glyph glyph-name="uni20BD.tf" horiz-adv-x="589" 
d="M404 700q99 0 161.5 -71.5t44.5 -173.5q-19 -109 -95.5 -166.5t-193.5 -57.5h-73l-7 -40h185l-17 -99h-185l-16 -92h-179l16 92h-63l17 99h64l7 40h-63l28 159h63l54 310h179h73zM432 460q6 32 -10.5 51t-47.5 19h-73l-25 -140h73q31 0 54.5 19t28.5 51z" />
    <glyph glyph-name="sterling.tf" horiz-adv-x="589" 
d="M383 715q97 0 162.5 -61.5t47.5 -162.5l-9 -50h-178l7 45q5 27 -8 42.5t-42 15.5q-60 0 -71 -58l-17 -94h194l-25 -140h-193l-14 -79h319l-31 -173h-559l30 173h62l14 79h-52l25 140h52l17 99q14 79 57 131t96 72.5t116 20.5z" />
    <glyph glyph-name="yen.tf" horiz-adv-x="589" 
d="M668 700l-230 -328h120l-16 -94h-153l-7 -41h152l-16 -93h-153l-25 -144h-179l26 144h-153l16 93h153l7 41h-152l16 94h120l-115 328h192l57 -211l131 211h209z" />
    <glyph glyph-name="brevecy" horiz-adv-x="403" 
d="M94 554l24 140h323l-24 -140h-323z" />
    </font>
</defs>
</svg>
