<?xml version="1.0" standalone="no"?>
<!DOCTYPE svg PUBLIC "-//W3C//DTD SVG 1.1//EN" "http://www.w3.org/Graphics/SVG/1.1/DTD/svg11.dtd" >
<svg>
<metadata>
Created by FontForge 20090622 at Thu Dec 20 17:18:51 2018
 By deploy user
Copyright &#194;&#169; 2015 by Radomir Tinkov. All rights reserved.
</metadata>
<defs>
<font id="Qanelas-BoldItalic" horiz-adv-x="578" >
  <font-face 
    font-family="Qanelas Bold Italic"
    font-weight="700"
    font-style="italic"
    font-stretch="normal"
    units-per-em="1000"
    panose-1="0 0 8 0 0 0 0 0 0 0"
    ascent="800"
    descent="-200"
    x-height="500"
    cap-height="700"
    bbox="-361 -263 1112.77 976"
    underline-thickness="50"
    underline-position="-50"
    slope="-10"
    unicode-range="U+0020-U+FB02"
  />
<missing-glyph horiz-adv-x="500" 
d="M410 800v-1000h-317v1000h317zM333 733h-165v-33h65v-37h-66v-33h166v33h-66v37h66v33zM267 604h-100v-104h166v34h-66v70zM233 570v-36h-33v36h33zM333 473h-166v-33h66v-37h-66v-33h100v70h66v33zM333 413h-33v-66h-133v-34h166v100zM333 291h-100v-56h34v23h33v-47
h-100v80h-33v-113h166v113zM333 118h-166v-113h166v113zM300 85v-47h-100v47h100zM333 -18h-166v-33h70l-70 -47v-33h166v33h-102l70 47h32v33z" />
    <glyph glyph-name="fi" unicode="fi" horiz-adv-x="540" 
d="M526 500l-88 -500h-129l66 376h-147l-66 -376h-129l66 376h-71l21 124h72l1 5q19 108 85 158.5t186 50.5q54 0 115 -14l-20 -118q-45 8 -99 8q-123 0 -138 -85l-1 -5h276z" />
    <glyph glyph-name="fl" unicode="fl" horiz-adv-x="540" 
d="M393 714q66 0 167 -21l-122 -693h-129l105 600q-14 1 -41 1q-106 0 -122 -96l-1 -5h83l-22 -124h-83l-66 -376h-129l66 376h-71l21 124h72l1 5q19 108 85 158.5t186 50.5z" />
    <glyph glyph-name="f_f" unicode="ff" horiz-adv-x="588" 
d="M650 600q-104 8 -120 -85l-3 -15h106l-22 -124h-106l-66 -376h-129l66 376h-71h-77l-66 -376h-129l66 376h-71l21 124h72l1 5q38 224 271 209l-21 -124q-106 8 -121 -85l-1 -5h105h43l3 15q38 224 272 209z" />
    <glyph glyph-name="f_f_i" unicode="ffi" horiz-adv-x="818" 
d="M803 500l-88 -500h-129l66 376h-147l-66 -376h-129l66 376h-71h-77l-66 -376h-129l66 376h-71l21 124h72l1 5q38 224 271 209l-21 -124q-106 8 -121 -85l-1 -5h105h43l3 15q19 108 84 158.5t180 50.5q61 0 123 -14l-21 -118q-44 8 -99 8q-123 0 -138 -85l-3 -15h276z" />
    <glyph glyph-name="f_f_l" unicode="ffl" horiz-adv-x="818" 
d="M673 724q67 0 166 -21l-124 -703h-129l107 610q-13 1 -40 1q-106 0 -123 -96l-3 -15h83l-21 -124h-84l-66 -376h-129l66 376h-71h-77l-66 -376h-129l66 376h-71l21 124h72l1 5q38 224 271 209l-21 -124q-106 8 -121 -85l-1 -5h105h43l3 15q19 108 85.5 158.5t186.5 50.5z
" />
    <glyph glyph-name=".notdef" horiz-adv-x="500" 
d="M410 800v-1000h-317v1000h317zM333 733h-165v-33h65v-37h-66v-33h166v33h-66v37h66v33zM267 604h-100v-104h166v34h-66v70zM233 570v-36h-33v36h33zM333 473h-166v-33h66v-37h-66v-33h100v70h66v33zM333 413h-33v-66h-133v-34h166v100zM333 291h-100v-56h34v23h33v-47
h-100v80h-33v-113h166v113zM333 118h-166v-113h166v113zM300 85v-47h-100v47h100zM333 -18h-166v-33h70l-70 -47v-33h166v33h-102l70 47h32v33z" />
    <glyph glyph-name=".null" horiz-adv-x="0" 
 />
    <glyph glyph-name="nonmarkingreturn" horiz-adv-x="333" 
 />
    <glyph glyph-name="space" unicode=" " horiz-adv-x="250" 
 />
    <glyph glyph-name="exclam" unicode="!" horiz-adv-x="268" 
d="M80 235l20 265l35 200h155l-35 -200l-72 -265h-103zM19 0l25 143h142l-25 -143h-142z" />
    <glyph glyph-name="quotedbl" unicode="&#x22;" horiz-adv-x="378" 
d="M99 470l23 230h122l-58 -230h-87zM269 470l23 230h122l-58 -230h-87z" />
    <glyph glyph-name="numbersign" unicode="#" horiz-adv-x="616" 
d="M603 395h-109l-31 -90h110l-33 -97h-110l-54 -158h-102l54 158h-102l-54 -158h-101l54 158h-110l34 97h109l31 90h-110l33 98h111l54 157h101l-54 -157h102l54 157h102l-54 -157h108zM362 305l31 90h-102l-31 -90h102z" />
    <glyph glyph-name="dollar" unicode="$" horiz-adv-x="545" 
d="M551 488h-135q13 72 -51 88l-30 -170q43 -17 70.5 -31.5t58.5 -41t42 -64.5t2 -88q-16 -90 -85.5 -139.5t-161.5 -54.5l-16 -87h-67l16 90q-90 12 -141 70t-34 156h138q-15 -77 60 -92l31 171q-40 16 -68 31.5t-55.5 42t-38 65t-1.5 87.5q16 88 82 136.5t154 55.5l16 87
h67l-16 -90q83 -12 131.5 -69t31.5 -153zM222 512q-9 -47 50 -79l25 144q-31 -6 -50.5 -23.5t-24.5 -41.5zM371 190q8 48 -60 80l-26 -148q36 6 58.5 24t27.5 44z" />
    <glyph glyph-name="percent" unicode="%" horiz-adv-x="798" 
d="M242 384q-73 0 -113 49t-31 115q10 68 62.5 117t131.5 49q75 0 115 -54t26 -123q-14 -65 -65 -109t-126 -44zM48 0l610 700h127l-611 -700h-126zM255 485q27 0 47.5 18.5t25.5 45.5t-9 45t-41 18t-47.5 -18t-25.5 -45t9 -45.5t41 -18.5zM543 -12q-74 0 -114 51t-29 117
q11 68 63 115t131 47q73 0 113 -53t28 -120q-14 -66 -65 -111.5t-127 -45.5zM556 89q27 0 48 19t25 45q5 28 -9 46t-41 18t-47.5 -18.5t-25.5 -45.5q-5 -28 9 -46t41 -18z" />
    <glyph glyph-name="ampersand" unicode="&#x26;" horiz-adv-x="719" 
d="M661 339q-22 -127 -103 -222l97 -117h-162l-32 38q-91 -52 -204 -52q-111 0 -175 61.5t-47 159.5q20 113 136 182q-32 62 -20 132q16 88 87 140.5t171 52.5q96 0 158 -62.5t45 -163.5h-138q8 45 -15 68.5t-67 23.5q-39 0 -69 -20t-37 -57q-8 -48 40 -105l150 -182
q34 51 48 123h137zM282 113q52 0 97 20l-143 167q-52 -35 -61 -90q-8 -44 19.5 -70.5t87.5 -26.5z" />
    <glyph glyph-name="quotesingle" unicode="'" horiz-adv-x="208" 
d="M99 470l23 230h122l-58 -230h-87z" />
    <glyph glyph-name="parenleft" unicode="(" horiz-adv-x="307" 
d="M101 -100q-72 216 -29 459q40 229 188 441h129q-149 -219 -189 -450t30 -450h-129z" />
    <glyph glyph-name="parenright" unicode=")" horiz-adv-x="306" 
d="M241 800q72 -216 29 -459q-40 -229 -188 -441h-129q149 219 189 450t-30 450h129z" />
    <glyph glyph-name="asterisk" unicode="*" horiz-adv-x="398" 
d="M409 609l-14 -80l-89 7l42 -70l-71 -42l-29 84l-57 -84l-64 42l66 70l-91 -7l14 80l89 -8l-42 71l71 42l28 -84l58 84l64 -42l-66 -71z" />
    <glyph glyph-name="plus" unicode="+" horiz-adv-x="555" 
d="M531 411l-22 -121h-164l-29 -165h-121l29 165h-165l22 121h164l29 164h121l-29 -164h165z" />
    <glyph glyph-name="comma" unicode="," horiz-adv-x="268" 
d="M44 143h142l-25 -143q-25 -134 -167 -139l10 58q35 2 54.5 20.5t26.5 60.5h-66z" />
    <glyph glyph-name="hyphen" unicode="-" horiz-adv-x="505" 
d="M63 240l22 124h375l-22 -124h-375z" />
    <glyph glyph-name="period" unicode="." horiz-adv-x="268" 
d="M19 0l25 143h142l-25 -143h-142z" />
    <glyph glyph-name="slash" unicode="/" horiz-adv-x="523" 
d="M33 -100h-63l555 900h62z" />
    <glyph glyph-name="zero" unicode="0" horiz-adv-x="631" 
d="M277 -14q-133 0 -192.5 104.5t-30.5 269.5t116.5 259.5t219.5 94.5t191.5 -104t30.5 -269t-116.5 -260t-218.5 -95zM293 121q69 0 115 58.5t66 170.5t-5.5 171t-95.5 59q-69 0 -115 -59t-66 -171t5.5 -170.5t95.5 -58.5z" />
    <glyph glyph-name="one" unicode="1" horiz-adv-x="385" 
d="M254 700h138l-123 -700h-138l97 555l-178 -91l25 146z" />
    <glyph glyph-name="two" unicode="2" horiz-adv-x="533" 
d="M-12 0l19 107l280 240q98 85 107 142q8 43 -12.5 67t-58.5 24q-95 0 -111 -94h-137q20 112 93.5 170t167.5 58q42 0 81 -15.5t68.5 -44t43 -74t3.5 -100.5q-18 -104 -142 -208l-167 -139h257l-23 -133h-469z" />
    <glyph glyph-name="three" unicode="3" horiz-adv-x="545" 
d="M559 700l-19 -114l-157 -173q65 -25 100 -79t22 -127q-19 -107 -97 -164t-183 -57q-106 0 -171.5 61.5t-46.5 168.5h137q-8 -43 17.5 -69t78.5 -26t86.5 25.5t41.5 69.5q7 43 -17 69t-77 26h-75l16 91l151 169h-269l22 129h440z" />
    <glyph glyph-name="four" unicode="4" horiz-adv-x="585" 
d="M573 247l-22 -128h-75l-21 -119h-139l21 119h-339l23 128l306 453h155l-307 -453h184l29 166h139l-29 -166h75z" />
    <glyph glyph-name="five" unicode="5" horiz-adv-x="558" 
d="M553 571h-276l-32 -126h76q97 0 158.5 -65.5t42.5 -172.5q-19 -108 -97 -164.5t-184 -56.5q-105 0 -171 61.5t-47 168.5h138q-8 -43 17 -69t78 -26t86.5 25.5t41.5 69.5q8 43 -16.5 69t-77.5 26h-218l96 389h407z" />
    <glyph glyph-name="six" unicode="6" horiz-adv-x="553" 
d="M329 472q100 -8 157 -79.5t39 -171.5q-19 -107 -96.5 -171t-190.5 -64q-112 0 -174 72.5t-43 180.5q15 86 72 148l267 313h165zM387 230q10 51 -17 82t-77 31q-51 0 -88 -30.5t-47 -82.5q-9 -52 18 -83t77 -31t87.5 31t46.5 83z" />
    <glyph glyph-name="seven" unicode="7" horiz-adv-x="490" 
d="M92 700h452l-20 -117l-333 -583h-153l325 568h-294z" />
    <glyph glyph-name="eight" unicode="8" horiz-adv-x="568" 
d="M557 503q-17 -94 -101 -143q41 -30 59.5 -75.5t8.5 -98.5q-17 -96 -90.5 -148t-189.5 -52q-114 0 -175.5 61t-44.5 157q20 112 128 164q-66 54 -50 147q17 97 89 148t170 51q95 0 154 -57t42 -154zM238 502q-6 -38 15.5 -60.5t59.5 -22.5q40 0 69.5 22.5t35.5 60.5
q7 38 -14.5 60t-60.5 22q-40 0 -69 -22t-36 -60zM391 213q7 45 -20 70.5t-76 25.5q-51 0 -87.5 -25.5t-43.5 -70.5q-9 -46 18.5 -71.5t77.5 -25.5q51 0 86.5 25.5t44.5 71.5z" />
    <glyph glyph-name="nine" unicode="9" horiz-adv-x="553" 
d="M350 714q112 0 174 -72.5t44 -180.5q-17 -89 -73 -147l-266 -314h-166l195 228q-99 8 -156 79.5t-39 172.5q19 107 96.5 170.5t190.5 63.5zM201 471q-10 -52 17 -83t77 -31q51 0 88.5 31t46.5 83q10 52 -17 82.5t-78 30.5q-50 0 -87.5 -31t-46.5 -82z" />
    <glyph glyph-name="colon" unicode=":" horiz-adv-x="268" 
d="M82 358l25 142h142l-25 -142h-142zM19 0l25 143h142l-25 -143h-142z" />
    <glyph glyph-name="semicolon" unicode=";" horiz-adv-x="268" 
d="M107 500h142l-25 -142h-142zM19 0l25 143h142l-25 -143q-25 -134 -167 -139l10 58q35 2 54.5 20.5t26.5 60.5h-66z" />
    <glyph glyph-name="less" unicode="&#x3c;" horiz-adv-x="528" 
d="M544 598l-25 -141l-310 -114l270 -113l-22 -127l-404 190l10 57l10 58z" />
    <glyph glyph-name="equal" unicode="=" horiz-adv-x="525" 
d="M71 393l21 121h434l-21 -121h-434zM34 186l22 121h434l-22 -121h-434z" />
    <glyph glyph-name="greater" unicode="&#x3e;" horiz-adv-x="528" 
d="M107 598l403 -190l-10 -58l-10 -57l-471 -190l26 141l311 113l-272 114z" />
    <glyph glyph-name="question" unicode="?" horiz-adv-x="554" 
d="M193 235q8 50 41 90.5t68.5 63.5t67 54.5t37.5 63.5q6 35 -13.5 54t-62.5 19q-47 0 -79 -23.5t-40 -68.5h-137q19 110 96 168t181 58q90 0 150.5 -57t44.5 -149q-9 -51 -43 -93.5t-69.5 -66.5t-67 -54t-36.5 -59h-138zM149 0l25 143h143l-25 -143h-143z" />
    <glyph glyph-name="at" unicode="@" horiz-adv-x="779" 
d="M458 612q79 0 141.5 -31t97.5 -81.5t49 -112t3 -124.5q-19 -105 -72 -157.5t-124 -52.5q-45 0 -75.5 20.5t-39.5 56.5q-46 -44 -108 -44q-63 0 -97.5 50t-22.5 121q13 70 59.5 113.5t107.5 43.5q58 0 92 -45l6 34h107l-41 -231q-12 -73 46 -73q43 0 76.5 42.5t49.5 128.5
q23 131 -51.5 219.5t-206.5 88.5q-138 0 -248.5 -94t-135.5 -233q-26 -142 55.5 -235.5t230.5 -93.5q95 0 167 25l-6 -36q-72 -23 -166 -23q-163 0 -254.5 107t-63.5 264q26 150 147 251.5t277 101.5zM372 182q28 0 49 19t27 49q5 30 -9.5 49t-42.5 19q-29 0 -50.5 -19
t-26.5 -49t9.5 -49t43.5 -19z" />
    <glyph glyph-name="A" unicode="A" horiz-adv-x="653" 
d="M457 0l-17 126h-268l-63 -126h-151l362 700h171l115 -700h-149zM237 255h186l-38 292z" />
    <glyph glyph-name="B" unicode="B" horiz-adv-x="687" 
d="M568 423q50 -32 73 -88t12 -122q-17 -95 -87 -154t-173 -59h-339h-33l123 700h138h148q90 0 141.5 -58t37.5 -138q-8 -44 -41 -81zM411 571h-152l-21 -118h201q24 20 31 51q5 30 -11 48.5t-48 18.5zM517 230q7 43 -15.5 72t-66.5 29h-218l-36 -202h217q49 0 80 28.5
t39 72.5z" />
    <glyph glyph-name="C" unicode="C" horiz-adv-x="752" 
d="M359 -14q-157 0 -246 110t-61 264q26 155 142.5 254.5t276.5 99.5q125 0 211 -74.5t90 -189.5h-143q-10 59 -57 94.5t-117 35.5q-103 0 -176 -64t-90 -166q-18 -101 33 -165t153 -64q69 0 129 35t89 94h144q-44 -119 -148 -191.5t-230 -72.5z" />
    <glyph glyph-name="D" unicode="D" horiz-adv-x="735" 
d="M442 700q138 0 220 -106.5t56 -253.5q-26 -149 -137.5 -244.5t-261.5 -95.5h-253h-45l123 700h138h160zM586 354q16 96 -30 155t-137 59h-161l-76 -436h152q96 0 165.5 62t86.5 160z" />
    <glyph glyph-name="E" unicode="E" horiz-adv-x="513" 
d="M531 568h-273l-26 -150h248l-23 -129h-248l-27 -157h277l-23 -132h-370h-45l123 700h138h272z" />
    <glyph glyph-name="F" unicode="F" horiz-adv-x="503" 
d="M531 568h-273l-31 -178h266l-24 -132h-265l-45 -258h-138l123 700h138h272z" />
    <glyph glyph-name="G" unicode="G" horiz-adv-x="781" 
d="M405 254l21 122h333l-22 -122l-45 -254h-130l14 80q-89 -94 -232 -94q-151 0 -235.5 110.5t-56.5 264.5q27 155 143 254t276 99q121 0 207 -71.5t94 -177.5h-143q-10 49 -58 82t-116 33q-101 0 -174.5 -63.5t-91.5 -165.5q-19 -106 33 -172t151 -66q78 0 139 36.5
t87 104.5h-194z" />
    <glyph glyph-name="H" unicode="H" horiz-adv-x="638" 
d="M514 700h138l-123 -700h-138l52 294h-233l-51 -294h-138l123 700h138l-49 -274h233z" />
    <glyph glyph-name="I" unicode="I" horiz-adv-x="268" 
d="M144 700h138l-123 -700h-138z" />
    <glyph glyph-name="J" unicode="J" horiz-adv-x="538" 
d="M209 -14q-61 0 -110.5 23t-78 74.5t-15.5 123.5l4 18h137l-3 -18q-8 -42 13.5 -64t68.5 -22q98 0 116 101l83 478h138l-87 -493q-20 -113 -93 -167t-173 -54z" />
    <glyph glyph-name="K" unicode="K" horiz-adv-x="614" 
d="M689 700l-337 -344l216 -356h-145l-205 337l-59 -337h-138l123 700h138l-53 -302l295 302h165z" />
    <glyph glyph-name="L" unicode="L" horiz-adv-x="475" 
d="M182 132h260l-23 -132h-398l123 700h138z" />
    <glyph glyph-name="M" unicode="M" horiz-adv-x="815" 
d="M829 700l-123 -700h-137l82 471l-218 -359h-100l-92 358l-82 -470h-138l123 700h138h12l110 -428l261 428h164z" />
    <glyph glyph-name="N" unicode="N" horiz-adv-x="645" 
d="M522 700h137l-123 -700h-103l-198 433l-76 -433h-138l123 700h104l198 -433z" />
    <glyph glyph-name="O" unicode="O" horiz-adv-x="793" 
d="M354 -14q-152 0 -241 110.5t-61 263.5q26 154 145.5 254t276.5 100q150 0 239.5 -111t62.5 -264q-27 -154 -146 -253.5t-276 -99.5zM370 121q98 0 174.5 64t94.5 164q17 100 -36 165.5t-150 65.5t-171.5 -64.5t-92.5 -165.5q-18 -100 33.5 -164.5t147.5 -64.5z" />
    <glyph glyph-name="P" unicode="P" horiz-adv-x="588" 
d="M404 700q93 0 152.5 -73.5t42.5 -168.5q-18 -102 -93 -162.5t-184 -60.5h-122l-41 -235h-138l123 700h138h122zM462 468q8 43 -15.5 73t-65.5 30h-122l-37 -207h123q44 0 76.5 30t40.5 74z" />
    <glyph glyph-name="Q" unicode="Q" horiz-adv-x="798" 
d="M776 339q-24 -137 -125 -234l57 -81l-109 -77l-58 82q-89 -43 -187 -43q-96 0 -172.5 50.5t-112 137t-17.5 186.5q26 154 145.5 254t276.5 100q150 0 239.5 -111t62.5 -264zM508 309l66 -95q52 60 65 135q17 100 -36 165.5t-150 65.5t-171.5 -64.5t-92.5 -165.5
q-18 -100 33.5 -164.5t147.5 -64.5q49 0 95 17l-66 94z" />
    <glyph glyph-name="R" unicode="R" horiz-adv-x="626" 
d="M601 458q-13 -70 -57.5 -121.5t-109.5 -75.5l166 -261h-149l-156 243h-94l-42 -243h-138l123 700h138h120q95 0 155.5 -73t43.5 -169zM464 468q8 44 -16 73.5t-69 29.5h-120l-37 -207h128q42 0 74 30t40 74z" />
    <glyph glyph-name="S" unicode="S" horiz-adv-x="548" 
d="M239 -14q-107 0 -173.5 59.5t-46.5 170.5h138q-9 -48 16.5 -71.5t84.5 -23.5q50 0 79.5 19t35.5 51q6 34 -20.5 54.5t-84.5 42.5q-108 40 -148 84q-52 58 -36 148q17 95 89.5 144.5t168.5 49.5t158.5 -59t43.5 -167h-138q8 45 -13.5 68.5t-69.5 23.5q-42 0 -69.5 -19.5
t-32.5 -50.5q-6 -35 18 -56.5t77 -42.5q107 -41 147 -79q65 -59 48 -151q-17 -96 -92 -145.5t-180 -49.5z" />
    <glyph glyph-name="T" unicode="T" horiz-adv-x="500" 
d="M567 700l-23 -132h-169l-100 -568h-138l100 568h-168l23 132h306h169z" />
    <glyph glyph-name="U" unicode="U" horiz-adv-x="621" 
d="M265 -14q-107 0 -170 65t-43 178l83 471h137l-84 -475q-9 -50 16 -77t83 -27q118 0 137 104l83 475h138l-85 -486q-21 -117 -98.5 -172.5t-196.5 -55.5z" />
    <glyph glyph-name="V" unicode="V" horiz-adv-x="632" 
d="M187 0l-105 700h142l70 -539l258 539h157l-351 -700h-171z" />
    <glyph glyph-name="W" unicode="W" horiz-adv-x="890" 
d="M818 700h149l-323 -700h-152l-34 317l-148 -317h-152l-76 700h137l51 -525l164 362l-18 163h123l52 -525z" />
    <glyph glyph-name="X" unicode="X" horiz-adv-x="600" 
d="M655 700l-259 -347l148 -353h-149l-94 226l-170 -226h-163l274 366l-139 334h148l87 -207l155 207h162z" />
    <glyph glyph-name="Y" unicode="Y" horiz-adv-x="601" 
d="M678 700l-298 -390l-55 -310h-137l55 311l-161 389h147l98 -257l187 257h164z" />
    <glyph glyph-name="Z" unicode="Z" horiz-adv-x="535" 
d="M582 700l-19 -109l-370 -459h295l-23 -132h-473l20 110l371 458h-284l23 132h460z" />
    <glyph glyph-name="bracketleft" unicode="[" horiz-adv-x="290" 
d="M366 676h-109l-116 -652h110l-23 -124h-182h-56l160 900h129h108z" />
    <glyph glyph-name="backslash" unicode="\" horiz-adv-x="523" 
d="M372 -100l-242 900h56l242 -900h-56z" />
    <glyph glyph-name="bracketright" unicode="]" horiz-adv-x="290" 
d="M335 800l-159 -900h-129h-109l22 124h108l116 652h-108l21 124h238z" />
    <glyph glyph-name="asciicircum" unicode="^" horiz-adv-x="560" 
d="M408 700l133 -330h-135l-67 182l-135 -182h-143l249 330h98z" />
    <glyph glyph-name="underscore" unicode="_" horiz-adv-x="520" 
d="M-42 -171l22 124h455l-22 -124h-455z" />
    <glyph glyph-name="grave" unicode="`" horiz-adv-x="275" 
d="M311 563l-62 137h-150l90 -137h122z" />
    <glyph glyph-name="a" unicode="a" horiz-adv-x="510" 
d="M303 514q84 0 135.5 -55.5t36.5 -140.5l-56 -318h-126l6 34q-53 -48 -134 -48q-73 0 -118 45.5t-31 121.5q13 74 68 111t127 37q82 0 126 -49l11 58q14 84 -65 84q-35 0 -58.5 -17t-28.5 -46h-126q15 87 78 135t155 48zM143 146q-5 -28 13.5 -46t58.5 -18q42 0 70 17
t33 44q5 29 -17.5 46t-62.5 17q-85 0 -95 -60z" />
    <glyph glyph-name="b" unicode="b" horiz-adv-x="626" 
d="M389 514q106 0 163.5 -81.5t39.5 -190.5q-16 -105 -92 -180.5t-188 -75.5q-109 0 -156 83l-12 -69h-129l123 700h129l-45 -254q68 68 167 68zM463 251q11 62 -20.5 101t-90.5 39q-61 0 -107 -39t-57 -102q-11 -62 22 -101.5t92 -39.5q61 0 105.5 39.5t55.5 102.5z" />
    <glyph glyph-name="c" unicode="c" horiz-adv-x="566" 
d="M535 183q-29 -90 -104.5 -143.5t-171.5 -53.5q-113 0 -178.5 81t-45.5 193t103.5 183t198.5 71q91 0 155.5 -57t65.5 -139h-135q-7 32 -33.5 50.5t-66.5 18.5q-58 0 -103 -38t-55 -98q-10 -59 21 -98t89 -39q89 0 124 69h136z" />
    <glyph glyph-name="d" unicode="d" horiz-adv-x="628" 
d="M519 700h129l-123 -700h-129l9 48q-67 -62 -168 -62q-113 0 -168 83t-34 193q19 107 96.5 179.5t185.5 72.5q107 0 155 -83zM278 109q57 0 101.5 35t58.5 92l4 24q7 61 -26.5 96t-89.5 35q-59 0 -105 -37.5t-57 -102.5q-11 -63 21.5 -102.5t92.5 -39.5z" />
    <glyph glyph-name="e" unicode="e" 
d="M333 514q106 0 171 -77.5t45 -186.5q-4 -24 -14 -53h-125h-250q4 -51 35.5 -77.5t81.5 -26.5q77 0 111 50l128 1q-35 -76 -101.5 -117t-154.5 -41q-116 0 -180.5 80.5t-44.5 193.5t101.5 183.5t196.5 70.5zM176 298h253q-2 51 -31.5 75.5t-73.5 24.5q-51 0 -89.5 -26
t-58.5 -74z" />
    <glyph glyph-name="f" unicode="f" horiz-adv-x="312" 
d="M372 590q-106 8 -121 -85l-1 -5h105l-21 -124h-106l-66 -376h-129l66 376h-71l21 124h72l1 5q18 108 86.5 162t184.5 47z" />
    <glyph glyph-name="g" unicode="g" horiz-adv-x="628" 
d="M487 500h126l-84 -476q-22 -123 -102 -180.5t-188 -57.5q-99 0 -165 54.5t-57 145.5h126q-3 -35 25.5 -60t83.5 -25q61 0 101 32t50 91l7 42q-64 -64 -168 -64q-112 0 -168 80t-38 187q18 103 94.5 174t178.5 71q115 0 165 -86zM280 121q59 0 104 34.5t58 89.5l4 21
q6 58 -28 93t-92 35q-59 0 -105 -36.5t-57 -98.5q-10 -60 22.5 -99t93.5 -39z" />
    <glyph glyph-name="h" unicode="h" horiz-adv-x="532" 
d="M364 514q71 0 110.5 -55t24.5 -139l-57 -320h-129l55 310q7 41 -10.5 63.5t-52.5 22.5q-39 0 -68.5 -24t-40.5 -73l-52 -299h-129l123 700h129l-44 -249q57 63 141 63z" />
    <glyph glyph-name="i" unicode="i" horiz-adv-x="247" 
d="M116 570l22 130h129l-22 -130h-129zM15 0l88 500h129l-88 -500h-129z" />
    <glyph glyph-name="j" unicode="j" horiz-adv-x="264" 
d="M155 700h129l-22 -130h-129zM30 -10l90 510h129l-90 -510q-20 -117 -80.5 -164t-172.5 -40l22 124q88 -6 102 80z" />
    <glyph glyph-name="k" unicode="k" horiz-adv-x="517" 
d="M550 500l-241 -247l159 -253h-140l-143 235l-41 -235h-129l123 700h129l-72 -411l202 211h153z" />
    <glyph glyph-name="l" unicode="l" horiz-adv-x="247" 
d="M15 0l55 314l72 406h129l-73 -411l-54 -309h-129z" />
    <glyph glyph-name="m" unicode="m" horiz-adv-x="767" 
d="M605 514q69 0 107.5 -49t23.5 -128l-59 -337h-129l58 327q6 35 -9.5 51t-42.5 16q-70 0 -88 -80l-55 -314h-129l57 327q6 35 -9.5 51t-42.5 16q-29 0 -53.5 -18.5t-34.5 -59.5l-55 -316h-129l88 500h129l-7 -41q52 55 129 55q72 0 104 -64q61 64 147 64z" />
    <glyph glyph-name="n" unicode="n" horiz-adv-x="532" 
d="M363 514q72 0 111.5 -54.5t24.5 -139.5l-57 -320h-129l55 310q7 42 -10.5 64t-52.5 22q-85 0 -109 -96l-52 -300h-129l88 500h129l-9 -48q57 62 140 62z" />
    <glyph glyph-name="o" unicode="o" horiz-adv-x="594" 
d="M264 -14q-124 0 -187 83.5t-41 196.5q21 107 104 177.5t198 70.5q116 0 178.5 -83.5t42.5 -193.5q-18 -106 -102.5 -178.5t-192.5 -72.5zM273 112q57 0 102.5 38t55.5 101q12 62 -20 99.5t-89 37.5q-56 0 -100.5 -37.5t-56.5 -100.5q-11 -63 20.5 -100.5t87.5 -37.5z" />
    <glyph glyph-name="p" unicode="p" horiz-adv-x="626" 
d="M389 514q106 0 163.5 -81.5t39.5 -190.5q-16 -105 -92 -180.5t-188 -75.5q-109 0 -156 83l-47 -269h-129l123 700h129l-10 -54q68 68 167 68zM463 251q11 63 -20 101.5t-91 38.5q-59 0 -105 -38t-58 -98l-2 -10q-9 -60 23.5 -98t91.5 -38q61 0 106 39.5t55 102.5z" />
    <glyph glyph-name="q" unicode="q" horiz-adv-x="627" 
d="M483 500h129l-123 -700h-129l44 248q-67 -62 -169 -62q-112 0 -166.5 83t-33.5 193q19 107 96 179.5t184 72.5t156 -83zM277 109q60 0 105.5 38.5t56.5 100.5q12 66 -21.5 104.5t-93.5 38.5q-59 0 -104 -37.5t-56 -102.5q-11 -63 21 -102.5t92 -39.5z" />
    <glyph glyph-name="r" unicode="r" horiz-adv-x="338" 
d="M220 433q50 77 151 77l-26 -144q-53 6 -99 -24.5t-59 -96.5l-43 -245h-129l88 500h129z" />
    <glyph glyph-name="s" unicode="s" horiz-adv-x="480" 
d="M448 341h-126q5 28 -10.5 43.5t-45.5 15.5q-67 0 -75 -45q-3 -20 14.5 -33t46.5 -19.5t62 -18t60 -26.5t41.5 -47.5t6.5 -78.5q-14 -73 -74.5 -109.5t-148.5 -36.5t-140 45t-37 128h126q-5 -29 12 -44t53 -15q74 0 80 45q4 23 -21 36.5t-63 23.5t-75 24.5t-59 50
t-13 89.5q13 71 75 108t141 37q81 0 133 -45.5t37 -127.5z" />
    <glyph glyph-name="t" unicode="t" horiz-adv-x="334" 
d="M362 500l-22 -124h-86l-66 -376h-129l66 376h-86l21 124h86l29 160h129l-29 -160h87z" />
    <glyph glyph-name="u" unicode="u" horiz-adv-x="532" 
d="M389 500h129l-88 -500h-129l8 47q-51 -61 -138 -61q-72 0 -112 55t-25 140l56 319h129l-54 -310q-7 -41 11 -62.5t53 -21.5q84 0 107 94z" />
    <glyph glyph-name="v" unicode="v" horiz-adv-x="500" 
d="M399 500h143l-270 -500h-121h-11l-93 500h132l51 -341z" />
    <glyph glyph-name="w" unicode="w" horiz-adv-x="725" 
d="M615 500h144l-251 -500h-123h-1v1l-30 200l-101 -201h-109h-14l-76 500h131l37 -342l106 214l-19 128h108l46 -329z" />
    <glyph glyph-name="x" unicode="x" horiz-adv-x="473" 
d="M504 500l-198 -248l118 -252h-133l-69 147l-117 -147h-144l208 260l-112 240h133l63 -135l107 135h144z" />
    <glyph glyph-name="y" unicode="y" horiz-adv-x="500" 
d="M399 500h143l-360 -700h-138l106 208l-103 492h132l62 -320z" />
    <glyph glyph-name="z" unicode="z" horiz-adv-x="454" 
d="M462 500l-15 -86l-258 -293h216l-21 -121h-396l16 86l257 293h-196l22 121h375z" />
    <glyph glyph-name="braceleft" unicode="{" horiz-adv-x="352" 
d="M276 -107q-99 -8 -146.5 41.5t-31.5 144.5l26 148q8 41 -9 53t-58 9l22 125q40 -3 61 9t29 53l26 148q18 107 76.5 150.5t166.5 35.5l-23 -124q-40 5 -62 -8t-29 -54l-26 -148q-9 -51 -28.5 -79.5t-53.5 -45.5q53 -36 37 -124l-26 -148q-7 -41 10.5 -54t60.5 -8z" />
    <glyph glyph-name="bar" unicode="|" horiz-adv-x="259" 
d="M-14 -200l162 920h129l-162 -920h-129z" />
    <glyph glyph-name="braceright" unicode="}" horiz-adv-x="351" 
d="M112 809q98 8 145.5 -41.5t31.5 -144.5l-26 -148q-8 -40 9 -52.5t58 -9.5l-22 -125q-40 3 -61 -9t-29 -53l-26 -148q-18 -107 -76.5 -150.5t-166.5 -35.5l23 124q40 -5 62.5 8t28.5 54l26 148q9 50 28.5 79t53.5 47q-53 35 -37 123l26 148q7 41 -10.5 54t-60.5 8z" />
    <glyph glyph-name="asciitilde" unicode="~" horiz-adv-x="599" 
d="M151 255l-96 50q36 99 110 128.5t152 -14.5q69 -37 103.5 -32.5t62.5 56.5l95 -51q-37 -99 -110 -128t-151 15q-69 36 -104 32t-62 -56z" />
    <glyph glyph-name="exclamdown" unicode="&#xa1;" horiz-adv-x="268" 
d="M107 500h142l-25 -142h-142zM85 265h103l-21 -265l-35 -200h-155l35 200z" />
    <glyph glyph-name="cent" unicode="&#xa2;" horiz-adv-x="565" 
d="M292 214q89 0 124 69h136q-29 -90 -104.5 -143t-171.5 -53q-36 0 -68 9l-48 -96h-59l57 117q-61 35 -90 100.5t-16 142.5q20 112 103.5 183t198.5 71q22 0 49 -5l45 91h59l-53 -107q54 -24 87 -71t34 -104h-135q-8 40 -44 57l-129 -259q16 -2 25 -2zM182 351
q-12 -74 36 -113l124 249h-1q-58 0 -103.5 -38t-55.5 -98z" />
    <glyph glyph-name="sterling" unicode="&#xa3;" horiz-adv-x="585" 
d="M400 714q89 0 147.5 -61t40.5 -160l-7 -43h-137l7 43q7 42 -11.5 64.5t-55.5 22.5q-36 0 -63.5 -22.5t-34.5 -64.5l-21 -116h189l-21 -120h-189l-22 -124h327l-23 -133h-538l24 133h73l22 124h-61l22 120h60l20 116q20 108 89.5 164.5t162.5 56.5z" />
    <glyph glyph-name="currency" unicode="&#xa4;" horiz-adv-x="543" 
d="M564 551l-83 -70q36 -57 23 -132q-13 -73 -68 -131l57 -69l-44 -36l-56 70q-63 -43 -141 -43q-72 0 -120 40l-81 -69l-36 38l82 70q-35 58 -22 132q14 76 68 130l-57 70l41 37l58 -71q68 44 142 44q69 0 119 -40l80 68zM203 350q-7 -38 13 -63t58 -25q39 0 67 24.5
t36 63.5q6 39 -13.5 63.5t-58.5 24.5q-38 0 -67 -24.5t-35 -63.5z" />
    <glyph glyph-name="yen" unicode="&#xa5;" horiz-adv-x="601" 
d="M678 700l-259 -338h132l-15 -80h-161l-8 -45h161l-13 -81h-162l-28 -156h-137l27 156h-160l13 81h161l8 45h-161l15 80h131l-140 338h147l98 -257l187 257h164z" />
    <glyph glyph-name="brokenbar" unicode="&#xa6;" horiz-adv-x="259" 
d="M83 350l65 370h129l-65 -370h-129zM-14 -200l65 370h129l-65 -370h-129z" />
    <glyph glyph-name="section" unicode="&#xa7;" horiz-adv-x="545" 
d="M513 531h-126q6 35 -9.5 52t-45.5 17q-67 0 -75 -50q-4 -5 -0.5 -12.5t3.5 -12t7.5 -10.5t10.5 -9.5t13 -9.5l15 -9t17 -8t18.5 -8l19 -8.5l19.5 -8.5q147 -67 128 -179q-14 -79 -87 -126q28 -42 18 -104q-14 -79 -74.5 -118t-148.5 -39q-89 0 -142 46.5t-37 136.5h126
q-11 -69 65 -69q72 0 82 52q2 13 -3 24t-21 21t-28.5 16.5t-39 18.5l-39.5 18q-141 66 -122 182q14 77 86 121q-26 42 -15 105q14 77 73.5 115.5t142.5 38.5q82 0 133 -47t36 -136zM302 351q-62 26 -84 38q-26 -25 -32 -57q-8 -46 68 -78q72 -31 91 -41q26 24 32 56
q5 29 -14.5 47.5t-60.5 34.5z" />
    <glyph glyph-name="dieresis" unicode="&#xa8;" horiz-adv-x="343" 
d="M75 561l21 118h117l-20 -118h-118zM260 561l21 118h117l-20 -118h-118z" />
    <glyph glyph-name="copyright" unicode="&#xa9;" horiz-adv-x="789" 
d="M355 -12q-147 0 -238.5 109.5t-64.5 258.5q26 151 145.5 253.5t272.5 102.5q147 0 238.5 -109.5t65.5 -258.5q-27 -151 -146.5 -253.5t-272.5 -102.5zM358 22q137 0 246 95.5t133 232.5q23 135 -57.5 231.5t-213.5 96.5q-136 0 -245 -95.5t-133 -232.5
q-24 -135 57 -231.5t213 -96.5zM381 154q-83 0 -130.5 61.5t-32.5 143.5q14 80 78 133.5t146 53.5q69 0 118 -46t51 -110h-116q-5 20 -22.5 32.5t-44.5 12.5q-38 0 -66 -25.5t-33 -59.5q-7 -34 12 -59.5t57 -25.5q56 0 83 46h118q-26 -73 -86.5 -115t-131.5 -42z" />
    <glyph glyph-name="ordfeminine" unicode="&#xaa;" horiz-adv-x="273" 
d="M216 714q43 0 69 -26t19 -72l-28 -159h-67l3 15q-25 -22 -67 -22q-39 0 -58.5 23.5t-14.5 57.5q5 32 30.5 54t64.5 22q40 0 64 -24l6 29q6 38 -30 38q-35 0 -40 -28h-67q7 43 39 67.5t77 24.5zM140 529q-2 -13 6.5 -21t27.5 -8q18 0 32 8t15 20q3 14 -7.5 21.5t-30.5 7.5
q-38 0 -43 -28z" />
    <glyph glyph-name="guillemotleft" unicode="&#xab;" horiz-adv-x="546" 
d="M334 497l-141 -192l73 -183h-118l-75 187l138 188h123zM527 497l-144 -196l73 -179h-118l-74 183l140 192h123z" />
    <glyph glyph-name="logicalnot" unicode="&#xac;" horiz-adv-x="550" 
d="M533 411l-11 -65l-31 -175h-129l21 119h-331l21 121h460z" />
    <glyph glyph-name="registered" unicode="&#xae;" horiz-adv-x="789" 
d="M470 712q147 0 238.5 -109.5t65.5 -258.5q-27 -151 -146.5 -253.5t-272.5 -102.5q-147 0 -238.5 109.5t-64.5 258.5q26 151 145.5 253.5t272.5 102.5zM737 350q23 135 -57.5 231.5t-213.5 96.5q-136 0 -245 -95.5t-133 -232.5q-24 -135 57 -231.5t213 -96.5
q137 0 246 95.5t133 232.5zM467 535q56 0 92 -40.5t27 -94.5q-15 -76 -75 -111l64 -124h-112l-52 102h-43l-18 -102h-107l65 370h107h52zM398 438l-14 -81h34q52 0 58 40q4 20 -8 30.5t-36 10.5h-34z" />
    <glyph glyph-name="macron" unicode="&#xaf;" horiz-adv-x="331" 
d="M76 564l18 105h290l-18 -105h-290z" />
    <glyph glyph-name="degree" unicode="&#xb0;" horiz-adv-x="401" 
d="M243 480q-71 0 -112 50.5t-28 119.5q11 69 66 114.5t129 45.5q71 0 111.5 -50t28.5 -120q-12 -69 -65.5 -114.5t-129.5 -45.5zM260 585q27 0 46 17t23 43q5 26 -8.5 43t-39.5 17t-45 -17t-24 -43t8 -43t40 -17z" />
    <glyph glyph-name="plusminus" unicode="&#xb1;" horiz-adv-x="555" 
d="M382 502h165l-21 -121h-165l-26 -146h-121l26 146h-164l21 121h164l26 146h121zM18 53l21 121h450l-21 -121h-450z" />
    <glyph glyph-name="acute" unicode="&#xb4;" horiz-adv-x="275" 
d="M75 563h128l131 137h-159z" />
    <glyph glyph-name="uni00B5" unicode="&#xb5;" horiz-adv-x="577" 
d="M496 121h36l-22 -121h-60q-70 0 -100 50q-55 -64 -140 -64q-35 0 -66 13l-35 -199h-129l123 700h129l-55 -310h1q-7 -41 11 -62.5t53 -21.5q40 0 69.5 26.5t39.5 80.5l50 287h129l-61 -347q-5 -32 27 -32z" />
    <glyph glyph-name="paragraph" unicode="&#xb6;" horiz-adv-x="669" 
d="M701 700l-19 -113h-62l-138 -787h-121l138 787h-79l-138 -787h-121l83 470q-89 0 -140.5 67t-35.5 157q16 88 88.5 147t162.5 59h121h200h61z" />
    <glyph glyph-name="periodcentered" unicode="&#xb7;" horiz-adv-x="268" 
d="M67 275l25 143h143l-25 -143h-143z" />
    <glyph glyph-name="cedilla" unicode="&#xb8;" horiz-adv-x="260" 
d="M118 -46q27 -8 44.5 -30t11.5 -56q-19 -101 -236 -84l16 91q106 -7 112 20q3 22 -59 25l14 80h105z" />
    <glyph glyph-name="ordmasculine" unicode="&#xba;" horiz-adv-x="310" 
d="M195 450q-60 0 -91.5 41.5t-21.5 95.5t50.5 90.5t100.5 36.5q59 0 90 -41t22 -95q-9 -53 -49 -90.5t-101 -37.5zM203 517q27 0 48 18t26 47t-9.5 47t-41.5 18q-28 0 -49.5 -18t-26.5 -47t10 -47t43 -18z" />
    <glyph glyph-name="guillemotright" unicode="&#xbb;" horiz-adv-x="547" 
d="M229 497l74 -184l-140 -191h-123l144 195l-73 180h118zM419 497l75 -188l-138 -187h-123l141 191l-73 184h118z" />
    <glyph glyph-name="onequarter" unicode="&#xbc;" horiz-adv-x="814" 
d="M191 700l-20 -113l-108 -52l19 111zM591 700h95l-518 -700h-95zM228 300h-107l70 400h107zM781 162l-16 -97h-40l-12 -65h-102l12 65h-187l17 97l166 238h118l-162 -238h65l12 69h102l-12 -69h39z" />
    <glyph glyph-name="onehalf" unicode="&#xbd;" horiz-adv-x="813" 
d="M82 646l109 54l-20 -113l-108 -52zM168 0h-95l518 700h95zM191 700h107l-70 -400h-107zM443 0l13 74l177 150q42 34 45 57q3 16 -6 25.5t-27 9.5q-43 0 -50 -44h-108q12 69 59.5 105.5t113.5 36.5q61 0 99 -38t27 -100q-9 -53 -87 -117l-76 -61h136l-16 -98h-300z" />
    <glyph glyph-name="threequarters" unicode="&#xbe;" horiz-adv-x="894" 
d="M353 414q-11 -64 -56.5 -95.5t-116.5 -31.5q-69 0 -107.5 35.5t-28.5 98.5h107q-3 -19 7.5 -30t33.5 -11q47 0 54 41q8 40 -40 40h-59l10 61l78 81h-143l17 97h275l-13 -79l-85 -89q37 -15 55.5 -46t11.5 -72zM672 700h95l-518 -700h-95zM862 162l-16 -97h-40l-12 -65
h-102l12 65h-187l17 97l166 238h118l-162 -238h65l12 69h102l-12 -69h39z" />
    <glyph glyph-name="questiondown" unicode="&#xbf;" horiz-adv-x="554" 
d="M405 500l-25 -142h-143l25 142h143zM361 265q-8 -50 -41 -90.5t-68.5 -63.5t-67 -54.5t-37.5 -63.5q-6 -35 13.5 -54t62.5 -19q47 0 79 23.5t40 68.5h137q-19 -110 -96 -168t-181 -58q-90 0 -150.5 57t-44.5 149q9 51 43 93.5t69.5 66.5t67 54t36.5 59h138z" />
    <glyph glyph-name="Agrave" unicode="&#xc0;" horiz-adv-x="653" 
d="M495 763h-122l-90 137h150zM457 0l-17 126h-268l-63 -126h-151l362 700h171l115 -700h-149zM237 255h186l-38 292z" />
    <glyph glyph-name="Aacute" unicode="&#xc1;" horiz-adv-x="653" 
d="M596 900l-131 -137h-127l100 137h158zM457 0l-17 126h-268l-63 -126h-151l362 700h171l115 -700h-149zM237 255h186l-38 292z" />
    <glyph glyph-name="Acircumflex" unicode="&#xc2;" horiz-adv-x="653" 
d="M427 820l-58 -65h-128l131 145h124h6l81 -145h-126zM457 0l-17 126h-268l-63 -126h-151l362 700h171l115 -700h-149zM237 255h186l-38 292z" />
    <glyph glyph-name="Atilde" unicode="&#xc3;" horiz-adv-x="653" 
d="M412 784q-26 20 -40.5 16t-20.5 -40h-104q6 56 27.5 92t50.5 48t61 7t61 -26q25 -20 39.5 -16t20.5 40h104q-6 -56 -27 -92t-50 -48t-61 -7t-61 26zM320 700h171l115 -700h-149l-17 126h-268l-63 -126h-151zM237 255h186l-38 292z" />
    <glyph glyph-name="Adieresis" unicode="&#xc4;" horiz-adv-x="653" 
d="M403 879l-20 -118h-118l21 118h117zM588 879l-20 -118h-118l21 118h117zM457 0l-17 126h-268l-63 -126h-151l362 700h171l115 -700h-149zM237 255h186l-38 292z" />
    <glyph glyph-name="Aring" unicode="&#xc5;" horiz-adv-x="653" 
d="M414 739q-53 0 -84.5 36t-22.5 86q9 51 48.5 83t95.5 32q55 0 86 -35.5t22 -86.5q-8 -51 -48 -83t-97 -32zM394 858q-3 -16 5.5 -27t26.5 -11q40 0 47 37q3 16 -5.5 27t-28.5 11q-38 0 -45 -37zM457 0l-17 126h-268l-63 -126h-151l362 700h171l115 -700h-149zM237 255
h186l-38 292z" />
    <glyph glyph-name="AE" unicode="&#xc6;" horiz-adv-x="880" 
d="M899 568h-259l-27 -150h237l-23 -129h-236l-28 -157h264l-23 -132h-353h-45l22 126h-219l-97 -126h-156l537 700h81h89h259zM309 255h142l41 236z" />
    <glyph glyph-name="Ccedilla" unicode="&#xc7;" horiz-adv-x="752" 
d="M375 121q69 0 129 35t89 94h144q-40 -107 -128.5 -176.5t-199.5 -83.5l-6 -36q27 -8 44.5 -30t11.5 -56q-19 -101 -236 -84l16 91q106 -7 112 20q3 22 -59 25l12 70q-134 20 -205.5 125.5t-46.5 244.5q26 155 142.5 254.5t276.5 99.5q125 0 211 -74.5t90 -189.5h-143
q-10 59 -57 94.5t-117 35.5q-103 0 -176 -64t-90 -166q-18 -101 33 -165t153 -64z" />
    <glyph glyph-name="Egrave" unicode="&#xc8;" horiz-adv-x="513" 
d="M439 763h-122l-90 137h150zM531 568h-273l-26 -150h248l-23 -129h-248l-27 -157h277l-23 -132h-370h-45l123 700h138h272z" />
    <glyph glyph-name="Eacute" unicode="&#xc9;" horiz-adv-x="513" 
d="M540 900l-131 -137h-127l100 137h158zM531 568h-273l-26 -150h248l-23 -129h-248l-27 -157h277l-23 -132h-370h-45l123 700h138h272z" />
    <glyph glyph-name="Ecircumflex" unicode="&#xca;" horiz-adv-x="513" 
d="M371 820l-58 -65h-128l131 145h124h6l81 -145h-126zM531 568h-273l-26 -150h248l-23 -129h-248l-27 -157h277l-23 -132h-370h-45l123 700h138h272z" />
    <glyph glyph-name="Edieresis" unicode="&#xcb;" horiz-adv-x="513" 
d="M347 879l-20 -118h-118l21 118h117zM532 879l-20 -118h-118l21 118h117zM531 568h-273l-26 -150h248l-23 -129h-248l-27 -157h277l-23 -132h-370h-45l123 700h138h272z" />
    <glyph glyph-name="Igrave" unicode="&#xcc;" horiz-adv-x="268" 
d="M302 763l-62 137h-150l90 -137h122zM144 700h138l-123 -700h-138z" />
    <glyph glyph-name="Iacute" unicode="&#xcd;" horiz-adv-x="268" 
d="M145 763h127l131 137h-158zM144 700h138l-123 -700h-138z" />
    <glyph glyph-name="Icircumflex" unicode="&#xce;" horiz-adv-x="268" 
d="M234 820l-58 -65h-128l131 145h124h6l81 -145h-126zM21 0l123 700h138l-123 -700h-138z" />
    <glyph glyph-name="Idieresis" unicode="&#xcf;" horiz-adv-x="268" 
d="M72 761l21 118h117l-20 -118h-118zM257 761l21 118h117l-20 -118h-118zM144 700h138l-123 -700h-138z" />
    <glyph glyph-name="Eth" unicode="&#xd0;" horiz-adv-x="770" 
d="M477 700q139 0 221 -106.5t56 -253.5q-26 -149 -137.5 -244.5t-262.5 -95.5h-252h-45l49 281h-77l21 124h78l52 295h137h160zM621 354q17 96 -29 155t-138 59h-160l-29 -163h160l-21 -124h-161l-26 -149h153q96 0 165 62t86 160z" />
    <glyph glyph-name="Ntilde" unicode="&#xd1;" horiz-adv-x="645" 
d="M243 760q6 56 27.5 92t50.5 48t61 7t61 -26q25 -20 39.5 -16t20.5 40h104q-6 -56 -27 -92t-50 -48t-61 -7t-61 26q-26 20 -40.5 16t-20.5 -40h-104zM522 700h137l-123 -700h-103l-198 433l-76 -433h-138l123 700h104l198 -433z" />
    <glyph glyph-name="Ograve" unicode="&#xd2;" horiz-adv-x="793" 
d="M566 771l-62 137h-150l90 -137h122zM354 -14q-152 0 -241 110.5t-61 263.5q26 154 145.5 254t276.5 100q150 0 239.5 -111t62.5 -264q-27 -154 -146 -253.5t-276 -99.5zM370 121q98 0 174.5 64t94.5 164q17 100 -36 165.5t-150 65.5t-171.5 -64.5t-92.5 -165.5
q-18 -100 33.5 -164.5t147.5 -64.5z" />
    <glyph glyph-name="Oacute" unicode="&#xd3;" horiz-adv-x="793" 
d="M409 771h127l131 137h-158zM354 -14q-152 0 -241 110.5t-61 263.5q26 154 145.5 254t276.5 100q150 0 239.5 -111t62.5 -264q-27 -154 -146 -253.5t-276 -99.5zM370 121q98 0 174.5 64t94.5 164q17 100 -36 165.5t-150 65.5t-171.5 -64.5t-92.5 -165.5
q-18 -100 33.5 -164.5t147.5 -64.5z" />
    <glyph glyph-name="Ocircumflex" unicode="&#xd4;" horiz-adv-x="793" 
d="M498 828l-58 -65h-128l131 145h124h6l81 -145h-126zM474 714q150 0 239.5 -111t62.5 -264q-27 -154 -146 -253.5t-276 -99.5q-152 0 -241 110.5t-61 263.5q26 154 145.5 254t276.5 100zM639 349q17 100 -36 165.5t-150 65.5t-171.5 -64.5t-92.5 -165.5
q-18 -100 33.5 -164.5t147.5 -64.5q98 0 174.5 64t94.5 164z" />
    <glyph glyph-name="Otilde" unicode="&#xd5;" horiz-adv-x="793" 
d="M318 768q6 56 27.5 92t50.5 48t61 7t61 -26q25 -20 39.5 -16t20.5 40h104q-6 -56 -27 -92t-50 -48t-61 -7t-61 26q-26 20 -40.5 16t-20.5 -40h-104zM354 -14q-152 0 -241 110.5t-61 263.5q26 154 145.5 254t276.5 100q150 0 239.5 -111t62.5 -264q-27 -154 -146 -253.5
t-276 -99.5zM370 121q98 0 174.5 64t94.5 164q17 100 -36 165.5t-150 65.5t-171.5 -64.5t-92.5 -165.5q-18 -100 33.5 -164.5t147.5 -64.5z" />
    <glyph glyph-name="Odieresis" unicode="&#xd6;" horiz-adv-x="793" 
d="M337 769l21 118h117l-20 -118h-118zM522 769l21 118h117l-20 -118h-118zM354 -14q-152 0 -241 110.5t-61 263.5q26 154 145.5 254t276.5 100q150 0 239.5 -111t62.5 -264q-27 -154 -146 -253.5t-276 -99.5zM370 121q98 0 174.5 64t94.5 164q17 100 -36 165.5t-150 65.5
t-171.5 -64.5t-92.5 -165.5q-18 -100 33.5 -164.5t147.5 -64.5z" />
    <glyph glyph-name="multiply" unicode="&#xd7;" horiz-adv-x="512" 
d="M501 471l-143 -124l100 -118l-94 -84l-101 120l-139 -120l-77 84l142 124l-100 118l93 84l102 -120l139 120z" />
    <glyph glyph-name="Oslash" unicode="&#xd8;" horiz-adv-x="799" 
d="M813 700l-95 -95q92 -113 65 -266q-28 -154 -147 -253.5t-276 -99.5q-109 0 -191 65l-50 -51h-108l104 105q-84 110 -57 255q27 154 146 254t276 100q104 0 183 -57l43 43h107zM195 350q-15 -84 20 -145l347 349q-44 26 -103 26q-97 0 -171.5 -64.5t-92.5 -165.5z
M645 349q16 90 -27 154l-351 -353q46 -29 109 -29q98 0 174.5 64t94.5 164z" />
    <glyph glyph-name="Ugrave" unicode="&#xd9;" horiz-adv-x="621" 
d="M479 763l-62 137h-150l90 -137h122zM265 -14q-107 0 -170 65t-43 178l83 471h137l-84 -475q-9 -50 16 -77t83 -27q118 0 137 104l83 475h138l-85 -486q-21 -117 -98.5 -172.5t-196.5 -55.5z" />
    <glyph glyph-name="Uacute" unicode="&#xda;" horiz-adv-x="621" 
d="M322 763h127l131 137h-158zM265 -14q-107 0 -170 65t-43 178l83 471h137l-84 -475q-9 -50 16 -77t83 -27q118 0 137 104l83 475h138l-85 -486q-21 -117 -98.5 -172.5t-196.5 -55.5z" />
    <glyph glyph-name="Ucircumflex" unicode="&#xdb;" horiz-adv-x="621" 
d="M411 820l-58 -65h-128l131 145h124h6l81 -145h-126zM507 700h138l-85 -486q-21 -117 -98.5 -172.5t-196.5 -55.5q-107 0 -170 65t-43 178l83 471h137l-84 -475q-9 -50 16 -77t83 -27q118 0 137 104z" />
    <glyph glyph-name="Udieresis" unicode="&#xdc;" horiz-adv-x="621" 
d="M250 761l21 118h117l-20 -118h-118zM435 761l21 118h117l-20 -118h-118zM265 -14q-107 0 -170 65t-43 178l83 471h137l-84 -475q-9 -50 16 -77t83 -27q118 0 137 104l83 475h138l-85 -486q-21 -117 -98.5 -172.5t-196.5 -55.5z" />
    <glyph glyph-name="Yacute" unicode="&#xdd;" horiz-adv-x="601" 
d="M569 900l-131 -137h-127l100 137h158zM678 700l-298 -390l-55 -310h-137l55 311l-161 389h147l98 -257l187 257h164z" />
    <glyph glyph-name="Thorn" unicode="&#xde;" horiz-adv-x="592" 
d="M388 583q93 0 152.5 -73.5t42.5 -169.5q-18 -102 -93 -162t-184 -60h-127l-20 -118h-138l123 700h138l-21 -117h127zM446 350q8 43 -15.5 73.5t-65.5 30.5h-127l-36 -207h127q44 0 76.5 29.5t40.5 73.5z" />
    <glyph glyph-name="germandbls" unicode="&#xdf;" horiz-adv-x="513" 
d="M224 -6l20 114q99 -11 112 58q6 33 -39.5 111t-39.5 113q4 27 46 74t48 78q4 25 -10 39.5t-41 14.5q-70 0 -85 -78l-91 -518h-129l92 519q15 92 74 143.5t160 51.5q81 0 127.5 -47.5t35.5 -113.5q-7 -37 -30.5 -69t-45.5 -55.5t-25 -39.5q-4 -19 10 -49t32 -57.5t30 -68
t6 -78.5q-26 -161 -257 -142z" />
    <glyph glyph-name="agrave" unicode="&#xe0;" horiz-adv-x="510" 
d="M395 571h-122l-90 137h150zM303 514q84 0 135.5 -55.5t36.5 -140.5l-56 -318h-126l6 34q-53 -48 -134 -48q-73 0 -118 45.5t-31 121.5q13 74 68 111t127 37q82 0 126 -49l11 58q14 84 -65 84q-35 0 -58.5 -17t-28.5 -46h-126q15 87 78 135t155 48zM143 146
q-5 -28 13.5 -46t58.5 -18q42 0 70 17t33 44q5 29 -17.5 46t-62.5 17q-85 0 -95 -60z" />
    <glyph glyph-name="aacute" unicode="&#xe1;" horiz-adv-x="510" 
d="M496 708l-131 -137h-127l100 137h158zM303 514q84 0 135.5 -55.5t36.5 -140.5l-56 -318h-126l6 34q-53 -48 -134 -48q-73 0 -118 45.5t-31 121.5q13 74 68 111t127 37q82 0 126 -49l11 58q14 84 -65 84q-35 0 -58.5 -17t-28.5 -46h-126q15 87 78 135t155 48zM143 146
q-5 -28 13.5 -46t58.5 -18q42 0 70 17t33 44q5 29 -17.5 46t-62.5 17q-85 0 -95 -60z" />
    <glyph glyph-name="acircumflex" unicode="&#xe2;" horiz-adv-x="510" 
d="M327 628l-58 -65h-128l131 145h124h6l81 -145h-126zM303 514q84 0 135.5 -55.5t36.5 -140.5l-56 -318h-126l6 34q-53 -48 -134 -48q-73 0 -118 45.5t-31 121.5q13 74 68 111t127 37q82 0 126 -49l11 58q14 84 -65 84q-35 0 -58.5 -17t-28.5 -46h-126q15 87 78 135t155 48
zM143 146q-5 -28 13.5 -46t58.5 -18q42 0 70 17t33 44q5 29 -17.5 46t-62.5 17q-85 0 -95 -60z" />
    <glyph glyph-name="atilde" unicode="&#xe3;" horiz-adv-x="510" 
d="M312 592q-26 20 -40.5 16t-20.5 -40h-104q6 56 27.5 92t50.5 48t61 7t61 -26q25 -20 39.5 -16t20.5 40h104q-6 -56 -27 -92t-50 -48t-61 -7t-61 26zM303 514q84 0 135.5 -55.5t36.5 -140.5l-56 -318h-126l6 34q-53 -48 -134 -48q-73 0 -118 45.5t-31 121.5q13 74 68 111
t127 37q82 0 126 -49l11 58q14 84 -65 84q-35 0 -58.5 -17t-28.5 -46h-126q15 87 78 135t155 48zM143 146q-5 -28 13.5 -46t58.5 -18q42 0 70 17t33 44q5 29 -17.5 46t-62.5 17q-85 0 -95 -60z" />
    <glyph glyph-name="adieresis" unicode="&#xe4;" horiz-adv-x="510" 
d="M303 687l-20 -118h-118l21 118h117zM488 687l-20 -118h-118l21 118h117zM303 514q84 0 135.5 -55.5t36.5 -140.5l-56 -318h-126l6 34q-53 -48 -134 -48q-73 0 -118 45.5t-31 121.5q13 74 68 111t127 37q82 0 126 -49l11 58q14 84 -65 84q-35 0 -58.5 -17t-28.5 -46h-126
q15 87 78 135t155 48zM143 146q-5 -28 13.5 -46t58.5 -18q42 0 70 17t33 44q5 29 -17.5 46t-62.5 17q-85 0 -95 -60z" />
    <glyph glyph-name="aring" unicode="&#xe5;" horiz-adv-x="510" 
d="M314 547q-53 0 -84.5 36t-22.5 86q9 51 48.5 83t95.5 32q55 0 86 -35.5t22 -86.5q-8 -51 -48 -83t-97 -32zM294 666q-3 -16 5.5 -27t26.5 -11q40 0 47 37q3 16 -5.5 27t-28.5 11q-38 0 -45 -37zM303 514q84 0 135.5 -55.5t36.5 -140.5l-56 -318h-126l6 34
q-53 -48 -134 -48q-73 0 -118 45.5t-31 121.5q13 74 68 111t127 37q82 0 126 -49l11 58q14 84 -65 84q-35 0 -58.5 -17t-28.5 -46h-126q15 87 78 135t155 48zM143 146q-5 -28 13.5 -46t58.5 -18q42 0 70 17t33 44q5 29 -17.5 46t-62.5 17q-85 0 -95 -60z" />
    <glyph glyph-name="ae" unicode="&#xe6;" horiz-adv-x="837" 
d="M629 514q97 0 148 -76.5t31 -187.5q-4 -24 -14 -53h-125h-206q1 -52 26.5 -78t68.5 -26q55 0 89 50l128 1q-29 -74 -88 -115t-130 -41q-116 0 -161 84q-60 -86 -199 -86q-90 0 -142 49t-39 123q13 73 68 108t128 35q81 0 128 -42l9 51l44 3l-44 -3q14 84 -63 84
q-36 0 -60 -17t-28 -46h-126q15 87 75.5 135t148.5 48q52 0 92.5 -24t60.5 -65q68 89 180 89zM480 298h210q1 51 -22 75.5t-61 24.5q-90 0 -127 -100zM320 144q5 28 -17.5 45t-63.5 17q-84 0 -94 -60q-5 -28 15 -46t58 -18q44 0 70.5 17t31.5 45z" />
    <glyph glyph-name="ccedilla" unicode="&#xe7;" horiz-adv-x="566" 
d="M275 114q89 0 124 69h136q-25 -78 -85 -128.5t-140 -63.5l-6 -37q27 -8 44.5 -30t11.5 -56q-19 -101 -236 -84l16 91q106 -7 112 20q3 22 -59 25l13 72q-91 20 -139.5 95.5t-31.5 172.5q20 112 103.5 183t198.5 71q91 0 155.5 -57t65.5 -139h-135q-7 32 -33.5 50.5
t-66.5 18.5q-58 0 -103 -38t-55 -98q-10 -59 21 -98t89 -39z" />
    <glyph glyph-name="egrave" unicode="&#xe8;" 
d="M435 567h-122l-90 137h150zM333 514q106 0 171 -77.5t45 -186.5q-4 -24 -14 -53h-125h-250q4 -51 35.5 -77.5t81.5 -26.5q77 0 111 50l128 1q-35 -76 -101.5 -117t-154.5 -41q-116 0 -180.5 80.5t-44.5 193.5t101.5 183.5t196.5 70.5zM176 298h253q-2 51 -31.5 75.5
t-73.5 24.5q-51 0 -89.5 -26t-58.5 -74z" />
    <glyph glyph-name="eacute" unicode="&#xe9;" 
d="M536 704l-131 -137h-127l100 137h158zM333 514q106 0 171 -77.5t45 -186.5q-4 -24 -14 -53h-125h-250q4 -51 35.5 -77.5t81.5 -26.5q77 0 111 50l128 1q-35 -76 -101.5 -117t-154.5 -41q-116 0 -180.5 80.5t-44.5 193.5t101.5 183.5t196.5 70.5zM176 298h253
q-2 51 -31.5 75.5t-73.5 24.5q-51 0 -89.5 -26t-58.5 -74z" />
    <glyph glyph-name="ecircumflex" unicode="&#xea;" 
d="M367 624l-58 -65h-128l131 145h124h6l81 -145h-126zM333 514q106 0 171 -77.5t45 -186.5q-4 -24 -14 -53h-125h-250q4 -51 35.5 -77.5t81.5 -26.5q77 0 111 50l128 1q-35 -76 -101.5 -117t-154.5 -41q-116 0 -180.5 80.5t-44.5 193.5t101.5 183.5t196.5 70.5zM176 298
h253q-2 51 -31.5 75.5t-73.5 24.5q-51 0 -89.5 -26t-58.5 -74z" />
    <glyph glyph-name="edieresis" unicode="&#xeb;" 
d="M343 683l-20 -118h-118l21 118h117zM528 683l-20 -118h-118l21 118h117zM333 514q106 0 171 -77.5t45 -186.5q-4 -24 -14 -53h-125h-250q4 -51 35.5 -77.5t81.5 -26.5q77 0 111 50l128 1q-35 -76 -101.5 -117t-154.5 -41q-116 0 -180.5 80.5t-44.5 193.5t101.5 183.5
t196.5 70.5zM176 298h253q-2 51 -31.5 75.5t-73.5 24.5q-51 0 -89.5 -26t-58.5 -74z" />
    <glyph glyph-name="igrave" unicode="&#xec;" horiz-adv-x="247" 
d="M238 555l-25 145h-140l44 -145h121zM144 0h-129l88 500h129z" />
    <glyph glyph-name="iacute" unicode="&#xed;" horiz-adv-x="247" 
d="M114 555h124l91 145h-148zM15 0l88 500h129l-88 -500h-129z" />
    <glyph glyph-name="icircumflex" unicode="&#xee;" horiz-adv-x="247" 
d="M189 608l-39 -53h-131l118 145h119h12l68 -145h-124zM15 0l88 500h129l-88 -500h-129z" />
    <glyph glyph-name="idieresis" unicode="&#xef;" horiz-adv-x="247" 
d="M35 561l20 118h118l-21 -118h-117zM205 561l20 118h118l-21 -118h-117zM15 0l88 500h129l-88 -500h-129z" />
    <glyph glyph-name="eth" unicode="&#xf0;" horiz-adv-x="574" 
d="M505 371q43 -76 31 -152q-19 -110 -99.5 -170.5t-186.5 -60.5q-104 0 -171.5 72t-47.5 181q17 99 99 161t183 52l-44 81l-142 -63l16 93l87 39l-52 96h135l27 -47l137 61l-16 -94l-81 -36zM407 228q8 42 -10 72q-28 47 -95 47q-56 0 -94.5 -30.5t-47.5 -83.5
q-10 -56 19.5 -90t84.5 -34t94 31.5t49 87.5z" />
    <glyph glyph-name="ntilde" unicode="&#xf1;" horiz-adv-x="532" 
d="M320 592q-26 20 -40.5 16t-20.5 -40h-104q6 56 27.5 92t50.5 48t61 7t61 -26q25 -20 39.5 -16t20.5 40h104q-6 -56 -27 -92t-50 -48t-61 -7t-61 26zM363 514q72 0 111.5 -54.5t24.5 -139.5l-57 -320h-129l55 310q7 42 -10.5 64t-52.5 22q-85 0 -109 -96l-52 -300h-129
l88 500h129l-9 -48q57 62 140 62z" />
    <glyph glyph-name="ograve" unicode="&#xf2;" horiz-adv-x="594" 
d="M432 571l-62 137h-150l90 -137h122zM264 -14q-124 0 -187 83.5t-41 196.5q21 107 104 177.5t198 70.5q116 0 178.5 -83.5t42.5 -193.5q-18 -106 -102.5 -178.5t-192.5 -72.5zM273 112q57 0 102.5 38t55.5 101q12 62 -20 99.5t-89 37.5q-56 0 -100.5 -37.5t-56.5 -100.5
q-11 -63 20.5 -100.5t87.5 -37.5z" />
    <glyph glyph-name="oacute" unicode="&#xf3;" horiz-adv-x="594" 
d="M275 571h127l131 137h-158zM264 -14q-124 0 -187 83.5t-41 196.5q21 107 104 177.5t198 70.5q116 0 178.5 -83.5t42.5 -193.5q-18 -106 -102.5 -178.5t-192.5 -72.5zM273 112q57 0 102.5 38t55.5 101q12 62 -20 99.5t-89 37.5q-56 0 -100.5 -37.5t-56.5 -100.5
q-11 -63 20.5 -100.5t87.5 -37.5z" />
    <glyph glyph-name="ocircumflex" unicode="&#xf4;" horiz-adv-x="594" 
d="M364 628l-58 -65h-128l131 145h124h6l81 -145h-126zM338 514q116 0 178.5 -83.5t42.5 -193.5q-18 -106 -102.5 -178.5t-192.5 -72.5q-124 0 -187 83.5t-41 196.5q21 107 104 177.5t198 70.5zM431 251q12 62 -20 99.5t-89 37.5q-56 0 -100.5 -37.5t-56.5 -100.5
q-11 -63 20.5 -100.5t87.5 -37.5q57 0 102.5 38t55.5 101z" />
    <glyph glyph-name="otilde" unicode="&#xf5;" horiz-adv-x="594" 
d="M184 568q6 56 27.5 92t50.5 48t61 7t61 -26q25 -20 39.5 -16t20.5 40h104q-6 -56 -27 -92t-50 -48t-61 -7t-61 26q-26 20 -40.5 16t-20.5 -40h-104zM264 -14q-124 0 -187 83.5t-41 196.5q21 107 104 177.5t198 70.5q116 0 178.5 -83.5t42.5 -193.5
q-18 -106 -102.5 -178.5t-192.5 -72.5zM273 112q57 0 102.5 38t55.5 101q12 62 -20 99.5t-89 37.5q-56 0 -100.5 -37.5t-56.5 -100.5q-11 -63 20.5 -100.5t87.5 -37.5z" />
    <glyph glyph-name="odieresis" unicode="&#xf6;" horiz-adv-x="594" 
d="M203 569l21 118h117l-20 -118h-118zM388 569l21 118h117l-20 -118h-118zM264 -14q-124 0 -187 83.5t-41 196.5q21 107 104 177.5t198 70.5q116 0 178.5 -83.5t42.5 -193.5q-18 -106 -102.5 -178.5t-192.5 -72.5zM273 112q57 0 102.5 38t55.5 101q12 62 -20 99.5t-89 37.5
q-56 0 -100.5 -37.5t-56.5 -100.5q-11 -63 20.5 -100.5t87.5 -37.5z" />
    <glyph glyph-name="divide" unicode="&#xf7;" horiz-adv-x="565" 
d="M321 463q-34 0 -54 25t-14 59t33 56.5t62 22.5q34 0 54 -24t14 -59q-7 -35 -33.5 -57.5t-61.5 -22.5zM52 290l21 121h475l-21 -121h-475zM252 74q-34 0 -53.5 24.5t-13.5 59.5q6 34 33 56.5t62 22.5q34 0 53.5 -24.5t13.5 -58.5q-6 -35 -33 -57.5t-62 -22.5z" />
    <glyph glyph-name="oslash" unicode="&#xf8;" horiz-adv-x="594" 
d="M588 500l-71 -71q62 -83 42 -192q-18 -108 -100.5 -179.5t-194.5 -71.5q-83 0 -143 42l-28 -28h-92l73 74q-60 82 -38 192q21 107 104 177.5t198 70.5q76 0 132 -40l26 26h92zM165 250q-8 -46 6 -78l204 205q-25 11 -53 11q-56 0 -100.5 -37.5t-56.5 -100.5zM431 251
q9 47 -9 82l-206 -209q24 -12 57 -12q57 0 102.5 38t55.5 101z" />
    <glyph glyph-name="ugrave" unicode="&#xf9;" horiz-adv-x="532" 
d="M390 563h-122l-90 137h150zM389 500h129l-88 -500h-129l8 47q-51 -61 -138 -61q-72 0 -112 55t-25 140l56 319h129l-54 -310q-7 -41 11 -62.5t53 -21.5q84 0 107 94z" />
    <glyph glyph-name="uacute" unicode="&#xfa;" horiz-adv-x="532" 
d="M491 700l-131 -137h-127l100 137h158zM389 500h129l-88 -500h-129l8 47q-51 -61 -138 -61q-72 0 -112 55t-25 140l56 319h129l-54 -310q-7 -41 11 -62.5t53 -21.5q84 0 107 94z" />
    <glyph glyph-name="ucircumflex" unicode="&#xfb;" horiz-adv-x="532" 
d="M322 620l-58 -65h-128l131 145h124h6l81 -145h-126zM389 500h129l-88 -500h-129l8 47q-51 -61 -138 -61q-72 0 -112 55t-25 140l56 319h129l-54 -310q-7 -41 11 -62.5t53 -21.5q84 0 107 94z" />
    <glyph glyph-name="udieresis" unicode="&#xfc;" horiz-adv-x="532" 
d="M299 679l-20 -118h-118l21 118h117zM484 679l-20 -118h-118l21 118h117zM389 500h129l-88 -500h-129l8 47q-51 -61 -138 -61q-72 0 -112 55t-25 140l56 319h129l-54 -310q-7 -41 11 -62.5t53 -21.5q84 0 107 94z" />
    <glyph glyph-name="yacute" unicode="&#xfd;" horiz-adv-x="500" 
d="M226 563h127l131 137h-158zM399 500h143l-360 -700h-138l106 208l-103 492h132l62 -320z" />
    <glyph glyph-name="thorn" unicode="&#xfe;" horiz-adv-x="626" 
d="M389 514q106 0 163.5 -81.5t39.5 -190.5q-16 -105 -92 -180.5t-188 -75.5q-109 0 -156 83l-47 -269h-129l158 900h129l-45 -254q68 68 167 68zM463 251q11 63 -20 101.5t-91 38.5t-106.5 -39t-57.5 -102q-11 -62 21 -101.5t93 -39.5t106 39.5t55 102.5z" />
    <glyph glyph-name="ydieresis" unicode="&#xff;" horiz-adv-x="500" 
d="M154 561l21 118h117l-20 -118h-118zM339 561l21 118h117l-20 -118h-118zM399 500h143l-360 -700h-138l106 208l-103 492h132l62 -320z" />
    <glyph glyph-name="Amacron" unicode="&#x100;" horiz-adv-x="653" 
d="M580 869l-18 -105h-290l18 105h290zM457 0l-17 126h-268l-63 -126h-151l362 700h171l115 -700h-149zM237 255h186l-38 292z" />
    <glyph glyph-name="amacron" unicode="&#x101;" horiz-adv-x="510" 
d="M480 677l-18 -105h-290l18 105h290zM303 514q84 0 135.5 -55.5t36.5 -140.5l-56 -318h-126l6 34q-53 -48 -134 -48q-73 0 -118 45.5t-31 121.5q13 74 68 111t127 37q82 0 126 -49l11 58q14 84 -65 84q-35 0 -58.5 -17t-28.5 -46h-126q15 87 78 135t155 48zM143 146
q-5 -28 13.5 -46t58.5 -18q42 0 70 17t33 44q5 29 -17.5 46t-62.5 17q-85 0 -95 -60z" />
    <glyph glyph-name="Abreve" unicode="&#x102;" horiz-adv-x="653" 
d="M420 747q-79 0 -119 39t-28 106h115q-9 -52 42 -52q52 0 61 52h115q-11 -70 -58.5 -107.5t-127.5 -37.5zM320 700h171l115 -700h-149l-17 126h-268l-63 -126h-151zM237 255h186l-38 292z" />
    <glyph glyph-name="abreve" unicode="&#x103;" horiz-adv-x="510" 
d="M320 555q-79 0 -119 39t-28 106h115q-9 -52 42 -52q52 0 61 52h115q-11 -70 -58.5 -107.5t-127.5 -37.5zM303 514q84 0 135.5 -55.5t36.5 -140.5l-56 -318h-126l6 34q-53 -48 -134 -48q-73 0 -118 45.5t-31 121.5q13 74 68 111t127 37q82 0 126 -49l11 58q14 84 -65 84
q-35 0 -58.5 -17t-28.5 -46h-126q15 87 78 135t155 48zM143 146q-5 -28 13.5 -46t58.5 -18q42 0 70 17t33 44q5 29 -17.5 46t-62.5 17q-85 0 -95 -60z" />
    <glyph glyph-name="Aogonek" unicode="&#x104;" horiz-adv-x="653" 
d="M537 -90q-3 -13 2.5 -21t17.5 -8q17 0 29 5l-15 -84q-42 -16 -83 -16t-64.5 26.5t-16.5 69.5q11 59 84 118h-34l-18 126h-268l-62 -126h-151l362 700h171l115 -700q-61 -52 -69 -90zM235 255h186l-41 292z" />
    <glyph glyph-name="aogonek" unicode="&#x105;" horiz-adv-x="510" 
d="M303 514q84 0 135.5 -55.5t36.5 -140.5l-56 -318q-62 -52 -70 -93q-6 -29 20 -29q13 -2 29 5l-14 -82q-34 -15 -81 -15q-44 0 -67 25.5t-16 67.5q9 55 86 121h-13l6 34q-53 -48 -134 -48q-73 0 -118 45.5t-31 121.5q13 74 68 111t127 37q81 0 126 -50l11 59q14 84 -65 84
q-35 0 -58.5 -17t-28.5 -46h-126q15 87 78 135t155 48zM143 146q-5 -28 13.5 -46t58.5 -18q42 0 70 17.5t33 44.5q5 28 -17 45t-63 17q-85 0 -95 -60z" />
    <glyph glyph-name="Cacute" unicode="&#x106;" horiz-adv-x="752" 
d="M411 771h127l131 137h-158zM359 -14q-157 0 -246 110t-61 264q26 155 142.5 254.5t276.5 99.5q125 0 211 -74.5t90 -189.5h-143q-10 59 -57 94.5t-117 35.5q-103 0 -176 -64t-90 -166q-18 -101 33 -165t153 -64q69 0 129 35t89 94h144q-44 -119 -148 -191.5t-230 -72.5z
" />
    <glyph glyph-name="cacute" unicode="&#x107;" horiz-adv-x="566" 
d="M274 563h127l131 137h-158zM535 183q-29 -90 -104.5 -143.5t-171.5 -53.5q-113 0 -178.5 81t-45.5 193t103.5 183t198.5 71q91 0 155.5 -57t65.5 -139h-135q-7 32 -33.5 50.5t-66.5 18.5q-58 0 -103 -38t-55 -98q-10 -59 21 -98t89 -39q89 0 124 69h136z" />
    <glyph glyph-name="Cdotaccent" unicode="&#x10a;" horiz-adv-x="752" 
d="M422 766l23 135h135l-23 -135h-135zM359 -14q-157 0 -246 110t-61 264q26 155 142.5 254.5t276.5 99.5q125 0 211 -74.5t90 -189.5h-143q-10 59 -57 94.5t-117 35.5q-103 0 -176 -64t-90 -166q-18 -101 33 -165t153 -64q69 0 129 35t89 94h144q-44 -119 -148 -191.5
t-230 -72.5z" />
    <glyph glyph-name="cdotaccent" unicode="&#x10b;" horiz-adv-x="566" 
d="M285 558l23 135h135l-23 -135h-135zM535 183q-29 -90 -104.5 -143.5t-171.5 -53.5q-113 0 -178.5 81t-45.5 193t103.5 183t198.5 71q91 0 155.5 -57t65.5 -139h-135q-7 32 -33.5 50.5t-66.5 18.5q-58 0 -103 -38t-55 -98q-10 -59 21 -98t89 -39q89 0 124 69h136z" />
    <glyph glyph-name="Ccaron" unicode="&#x10c;" horiz-adv-x="752" 
d="M419 763l-81 145h123l32 -65l55 65h133l-131 -145h-131zM375 121q69 0 129 35t89 94h144q-44 -119 -148 -191.5t-230 -72.5q-157 0 -246 110t-61 264q26 155 142.5 254.5t276.5 99.5q125 0 211 -74.5t90 -189.5h-143q-10 59 -57 94.5t-117 35.5q-103 0 -176 -64t-90 -166
q-18 -101 33 -165t153 -64z" />
    <glyph glyph-name="ccaron" unicode="&#x10d;" horiz-adv-x="566" 
d="M283 555l-81 145h123l32 -65l55 65h133l-131 -145h-131zM275 114q89 0 124 69h136q-29 -90 -104.5 -143.5t-171.5 -53.5q-113 0 -178.5 81t-45.5 193t103.5 183t198.5 71q91 0 155.5 -57t65.5 -139h-135q-7 32 -33.5 50.5t-66.5 18.5q-58 0 -103 -38t-55 -98
q-10 -59 21 -98t89 -39z" />
    <glyph glyph-name="Dcaron" unicode="&#x10e;" horiz-adv-x="735" 
d="M355 755l-81 145h123l32 -65l55 65h133l-131 -145h-131zM442 700q138 0 220 -106.5t56 -253.5q-26 -149 -137.5 -244.5t-261.5 -95.5h-253h-45l123 700h138h160zM586 354q16 96 -30 155t-137 59h-161l-76 -436h152q96 0 165.5 62t86.5 160z" />
    <glyph glyph-name="dcaron" unicode="&#x10f;" horiz-adv-x="739" 
d="M472 431l47 269h129l-123 -700h-129l9 48q-67 -62 -168 -62q-113 0 -168 83t-34 193q19 107 96.5 179.5t185.5 72.5q107 0 155 -83zM707 700h121l-65 -200h-102zM278 109q57 0 101.5 35t58.5 92l4 24q7 61 -26.5 96t-89.5 35q-59 0 -105 -37.5t-57 -102.5
q-11 -63 21.5 -102.5t92.5 -39.5z" />
    <glyph glyph-name="Dcroat" unicode="&#x110;" horiz-adv-x="770" 
d="M477 700q139 0 221 -106.5t56 -253.5q-26 -149 -137.5 -244.5t-262.5 -95.5h-252h-45l49 281h-77l21 124h78l52 295h137h160zM621 354q17 96 -29 155t-138 59h-160l-29 -163h160l-21 -124h-161l-26 -149h153q96 0 165 62t86 160z" />
    <glyph glyph-name="dcroat" unicode="&#x111;" horiz-adv-x="633" 
d="M699 638l-15 -84h-61l-98 -554h-129l9 48q-67 -62 -168 -62q-113 0 -168 83t-34 193q19 107 96.5 179.5t185.5 72.5q107 0 155 -83l22 123h-153l15 84h152l11 62h129l-11 -62h62zM278 109q57 0 101.5 35t58.5 92l4 24q7 61 -26.5 96t-89.5 35q-59 0 -105 -37.5
t-57 -102.5q-11 -63 21.5 -102.5t92.5 -39.5z" />
    <glyph glyph-name="Emacron" unicode="&#x112;" horiz-adv-x="513" 
d="M525 869l-18 -105h-290l18 105h290zM531 568h-273l-26 -150h248l-23 -129h-248l-27 -157h277l-23 -132h-370h-45l123 700h138h272z" />
    <glyph glyph-name="emacron" unicode="&#x113;" 
d="M521 673l-18 -105h-290l18 105h290zM333 514q106 0 171 -77.5t45 -186.5q-4 -24 -14 -53h-125h-250q4 -51 35.5 -77.5t81.5 -26.5q77 0 111 50l128 1q-35 -76 -101.5 -117t-154.5 -41q-116 0 -180.5 80.5t-44.5 193.5t101.5 183.5t196.5 70.5zM176 298h253
q-2 51 -31.5 75.5t-73.5 24.5q-51 0 -89.5 -26t-58.5 -74z" />
    <glyph glyph-name="Edotaccent" unicode="&#x116;" horiz-adv-x="513" 
d="M451 893l-23 -135h-135l23 135h135zM531 568h-273l-26 -150h248l-23 -129h-248l-27 -157h277l-23 -132h-370h-45l123 700h138h272z" />
    <glyph glyph-name="edotaccent" unicode="&#x117;" 
d="M447 697l-23 -135h-135l23 135h135zM333 514q106 0 171 -77.5t45 -186.5q-4 -24 -14 -53h-125h-250q4 -51 35.5 -77.5t81.5 -26.5q77 0 111 50l128 1q-35 -76 -101.5 -117t-154.5 -41q-116 0 -180.5 80.5t-44.5 193.5t101.5 183.5t196.5 70.5zM176 298h253
q-2 51 -31.5 75.5t-73.5 24.5q-51 0 -89.5 -26t-58.5 -74z" />
    <glyph glyph-name="Eogonek" unicode="&#x118;" horiz-adv-x="513" 
d="M531 568h-273l-26 -150h248l-23 -129h-248l-27 -157h277l-23 -132q-62 -54 -70 -94q-5 -28 20 -28q13 -1 29 5l-14 -81q-42 -16 -83 -16q-43 0 -65.5 24t-15.5 66q10 57 89 124h-260h-45l123 700h138h272z" />
    <glyph glyph-name="eogonek" unicode="&#x119;" 
d="M333 514q106 0 171 -77.5t45 -186.5q-4 -24 -14 -53h-125h-250q4 -51 35.5 -77.5t81.5 -26.5q77 0 111 50l128 1q-26 -59 -75 -98q-100 -87 -111 -138q-3 -14 2.5 -22t17.5 -8q16 0 29 5l-14 -81q-38 -16 -81 -16q-44 0 -67.5 25.5t-16.5 63.5q8 50 79 112q-3 0 -9 -0.5
t-10 -0.5q-116 0 -180.5 80.5t-44.5 193.5t101.5 183.5t196.5 70.5zM176 298h253q-2 51 -31.5 75.5t-73.5 24.5q-51 0 -89.5 -26t-58.5 -74z" />
    <glyph glyph-name="Ecaron" unicode="&#x11a;" horiz-adv-x="513" 
d="M291 755l-81 145h123l32 -65l55 65h133l-131 -145h-131zM531 568h-273l-26 -150h248l-23 -129h-248l-27 -157h277l-23 -132h-370h-45l123 700h138h272z" />
    <glyph glyph-name="ecaron" unicode="&#x11b;" 
d="M287 559l-81 145h123l32 -65l55 65h133l-131 -145h-131zM333 514q106 0 171 -77.5t45 -186.5q-4 -24 -14 -53h-125h-250q4 -51 35.5 -77.5t81.5 -26.5q77 0 111 50l128 1q-35 -76 -101.5 -117t-154.5 -41q-116 0 -180.5 80.5t-44.5 193.5t101.5 183.5t196.5 70.5z
M176 298h253q-2 51 -31.5 75.5t-73.5 24.5q-51 0 -89.5 -26t-58.5 -74z" />
    <glyph glyph-name="Gbreve" unicode="&#x11e;" horiz-adv-x="781" 
d="M490 755q-79 0 -119 39t-28 106h115q-9 -52 42 -52q52 0 61 52h115q-11 -70 -58.5 -107.5t-127.5 -37.5zM405 254l21 122h333l-22 -122l-45 -254h-130l14 80q-89 -94 -232 -94q-151 0 -235.5 110.5t-56.5 264.5q27 155 143 254t276 99q121 0 207 -71.5t94 -177.5h-143
q-10 49 -58 82t-116 33q-101 0 -174.5 -63.5t-91.5 -165.5q-19 -106 33 -172t151 -66q78 0 139 36.5t87 104.5h-194z" />
    <glyph glyph-name="gbreve" unicode="&#x11f;" horiz-adv-x="628" 
d="M358 555q-79 0 -119 39t-28 106h115q-9 -52 42 -52q52 0 61 52h115q-11 -70 -58.5 -107.5t-127.5 -37.5zM487 500h126l-84 -476q-22 -123 -102 -180.5t-188 -57.5q-99 0 -165 54.5t-57 145.5h126q-3 -35 25.5 -60t83.5 -25q61 0 101 32t50 91l7 42q-64 -64 -168 -64
q-112 0 -168 80t-38 187q18 103 94.5 174t178.5 71q115 0 165 -86zM280 121q59 0 104 34.5t58 89.5l4 21q6 58 -28 93t-92 35q-59 0 -105 -36.5t-57 -98.5q-10 -60 22.5 -99t93.5 -39z" />
    <glyph glyph-name="Gdotaccent" unicode="&#x120;" horiz-adv-x="781" 
d="M577 901l-23 -135h-135l23 135h135zM405 254l21 122h333l-22 -122l-45 -254h-130l14 80q-89 -94 -232 -94q-151 0 -235.5 110.5t-56.5 264.5q27 155 143 254t276 99q121 0 207 -71.5t94 -177.5h-143q-10 49 -58 82t-116 33q-101 0 -174.5 -63.5t-91.5 -165.5
q-19 -106 33 -172t151 -66q78 0 139 36.5t87 104.5h-194z" />
    <glyph glyph-name="gdotaccent" unicode="&#x121;" horiz-adv-x="628" 
d="M445 701l-23 -135h-135l23 135h135zM487 500h126l-84 -476q-22 -123 -102 -180.5t-188 -57.5q-99 0 -165 54.5t-57 145.5h126q-3 -35 25.5 -60t83.5 -25q61 0 101 32t50 91l7 42q-64 -64 -168 -64q-112 0 -168 80t-38 187q18 103 94.5 174t178.5 71q115 0 165 -86z
M280 121q59 0 104 34.5t58 89.5l4 21q6 58 -28 93t-92 35q-59 0 -105 -36.5t-57 -98.5q-10 -60 22.5 -99t93.5 -39z" />
    <glyph glyph-name="Gcommaaccent" unicode="&#x122;" horiz-adv-x="781" 
d="M405 254l21 122h333l-22 -122l-45 -254h-130l14 80q-89 -94 -232 -94q-151 0 -235.5 110.5t-56.5 264.5q27 155 143 254t276 99q121 0 207 -71.5t94 -177.5h-143q-10 49 -58 82t-116 33q-101 0 -174.5 -63.5t-91.5 -165.5q-19 -106 33 -172t151 -66q78 0 139 36.5
t87 104.5h-194zM249 -263l45 200h121l-65 -200h-101z" />
    <glyph glyph-name="gcommaaccent" unicode="&#x123;" horiz-adv-x="628" 
d="M457 782l-46 -200h-121l65 200h102zM487 500h126l-84 -476q-22 -123 -102 -180.5t-188 -57.5q-99 0 -165 54.5t-57 145.5h126q-3 -35 25.5 -60t83.5 -25q61 0 101 32t50 91l7 42q-64 -64 -168 -64q-112 0 -168 80t-38 187q18 103 94.5 174t178.5 71q115 0 165 -86z
M280 121q59 0 104 34.5t58 89.5l4 21q6 58 -28 93t-92 35q-59 0 -105 -36.5t-57 -98.5q-10 -60 22.5 -99t93.5 -39z" />
    <glyph glyph-name="Hbar" unicode="&#x126;" horiz-adv-x="680" 
d="M717 602l-17 -101h-62l-88 -501h-138l48 272h-233l-47 -272h-138l88 501h-60l17 101h61l17 98h138l-18 -98h233l17 98h138l-18 -98h62zM483 404l17 97h-232l-17 -97h232z" />
    <glyph glyph-name="hbar" unicode="&#x127;" horiz-adv-x="539" 
d="M369 514q70 0 110.5 -55.5t25.5 -138.5l-56 -320h-129l55 310q7 41 -11.5 62.5t-53.5 21.5q-86 0 -107 -95l-53 -299h-129l97 554h-62l15 84h62l11 62h129l-11 -62h142l-15 -84h-142l-18 -102q56 62 140 62z" />
    <glyph glyph-name="Imacron" unicode="&#x12a;" horiz-adv-x="268" 
d="M80 764l18 105h290l-18 -105h-290zM144 700h138l-123 -700h-138z" />
    <glyph glyph-name="imacron" unicode="&#x12b;" horiz-adv-x="247" 
d="M64 564l19 112h230l-19 -112h-230zM15 0l88 500h129l-88 -500h-129z" />
    <glyph glyph-name="Iogonek" unicode="&#x12e;" horiz-adv-x="268" 
d="M159 0q-49 -57 -53 -94q-3 -28 22 -28q11 -1 29 5l-14 -81q-42 -16 -84 -16q-43 0 -64 25.5t-17 63.5q9 61 68 125h-25l123 700h138z" />
    <glyph glyph-name="iogonek" unicode="&#x12f;" horiz-adv-x="247" 
d="M138 700h129l-22 -130h-129zM15 0l88 500h129l-88 -500q-45 -55 -51 -94q-5 -28 20 -28q11 -1 29 5l-15 -81q-40 -16 -83 -16q-41 0 -63 25t-18 61q6 51 66 128h-14z" />
    <glyph glyph-name="Idotaccent" unicode="&#x130;" horiz-adv-x="268" 
d="M156 758l23 135h135l-23 -135h-135zM144 700h138l-123 -700h-138z" />
    <glyph glyph-name="dotlessi" unicode="&#x131;" horiz-adv-x="247" 
d="M15 0l88 500h129l-88 -500h-129z" />
    <glyph glyph-name="Kcommaaccent" unicode="&#x136;" horiz-adv-x="614" 
d="M689 700l-337 -344l216 -356h-145l-205 337l-59 -337h-138l123 700h138l-53 -302l295 302h165zM153 -263l45 200h121l-65 -200h-101z" />
    <glyph glyph-name="kcommaaccent" unicode="&#x137;" horiz-adv-x="517" 
d="M550 500l-241 -247l159 -253h-140l-143 235l-41 -235h-129l123 700h129l-72 -411l202 211h153zM126 -263l45 200h121l-65 -200h-101z" />
    <glyph glyph-name="Lacute" unicode="&#x139;" horiz-adv-x="475" 
d="M416 900l-131 -137h-127l100 137h158zM182 132h260l-23 -132h-398l123 700h138z" />
    <glyph glyph-name="lacute" unicode="&#x13a;" horiz-adv-x="247" 
d="M148 763h127l131 137h-158zM15 0l55 314l72 406h129l-73 -411l-54 -309h-129z" />
    <glyph glyph-name="Lcommaaccent" unicode="&#x13b;" horiz-adv-x="475" 
d="M182 132h260l-23 -132h-398l123 700h138zM119 -263l45 200h121l-65 -200h-101z" />
    <glyph glyph-name="lcommaaccent" unicode="&#x13c;" horiz-adv-x="247" 
d="M15 0l55 314l72 406h129l-73 -411l-54 -309h-129zM66 -263l65 200h-121l-46 -200h102z" />
    <glyph glyph-name="Lcaron" unicode="&#x13d;" horiz-adv-x="475" 
d="M282 700l-100 -568h260l-23 -132h-398l123 700h138zM489 700l-62 -185h-109l42 185h129z" />
    <glyph glyph-name="lcaron" unicode="&#x13e;" horiz-adv-x="348" 
d="M15 0l55 314l72 406h129l-73 -411l-54 -309h-129zM375 520l66 200h-122l-45 -200h101z" />
    <glyph glyph-name="Lslash" unicode="&#x141;" horiz-adv-x="505" 
d="M212 132h260l-23 -132h-398l38 213l-70 -40l24 139l70 41l61 347h138l-46 -257l146 86l-25 -140l-145 -85z" />
    <glyph glyph-name="lslash" unicode="&#x142;" horiz-adv-x="263" 
d="M292 490l-21 -124l-61 -37l-4 -20l-54 -309h-129l42 240l-60 -37l21 125l61 37l63 355h129l-47 -267z" />
    <glyph glyph-name="Nacute" unicode="&#x143;" horiz-adv-x="645" 
d="M334 763h127l131 137h-158zM522 700h137l-123 -700h-103l-198 433l-76 -433h-138l123 700h104l198 -433z" />
    <glyph glyph-name="nacute" unicode="&#x144;" horiz-adv-x="532" 
d="M504 708l-131 -137h-127l100 137h158zM363 514q72 0 111.5 -54.5t24.5 -139.5l-57 -320h-129l55 310q7 42 -10.5 64t-52.5 22q-85 0 -109 -96l-52 -300h-129l88 500h129l-9 -48q57 62 140 62z" />
    <glyph glyph-name="Ncommaaccent" unicode="&#x145;" horiz-adv-x="645" 
d="M522 700h137l-123 -700h-103l-198 433l-76 -433h-138l123 700h104l198 -433zM269 -263l65 200h-121l-45 -200h101z" />
    <glyph glyph-name="ncommaaccent" unicode="&#x146;" horiz-adv-x="532" 
d="M363 514q72 0 111.5 -54.5t24.5 -139.5l-57 -320h-129l55 310q7 42 -10.5 64t-52.5 22q-85 0 -109 -96l-52 -300h-129l88 500h129l-9 -48q57 62 140 62zM121 -263l45 200h121l-65 -200h-101z" />
    <glyph glyph-name="Ncaron" unicode="&#x147;" horiz-adv-x="645" 
d="M343 755l-81 145h123l32 -65l55 65h133l-131 -145h-131zM522 700h137l-123 -700h-103l-198 433l-76 -433h-138l123 700h104l198 -433z" />
    <glyph glyph-name="ncaron" unicode="&#x148;" horiz-adv-x="532" 
d="M255 563l-81 145h123l32 -65l55 65h133l-131 -145h-131zM363 514q72 0 111.5 -54.5t24.5 -139.5l-57 -320h-129l55 310q7 42 -10.5 64t-52.5 22q-85 0 -109 -96l-52 -300h-129l88 500h129l-9 -48q57 62 140 62z" />
    <glyph glyph-name="Eng" unicode="&#x14a;" horiz-adv-x="645" 
d="M522 700h137l-123 -700q-19 -109 -84 -156t-183 -44l21 122q95 -2 109 78l9 53l-173 380l-76 -433h-138l123 700h104l198 -432z" />
    <glyph glyph-name="eng" unicode="&#x14b;" horiz-adv-x="532" 
d="M363 514q72 0 111.5 -54.5t24.5 -139.5l-58 -330q-40 -219 -246 -204l22 124q79 -8 95 80l56 320q7 42 -10.5 64t-52.5 22q-39 0 -68.5 -24.5t-40.5 -74.5l-52 -297h-129l88 500h129l-9 -48q57 62 140 62z" />
    <glyph glyph-name="Omacron" unicode="&#x14c;" horiz-adv-x="793" 
d="M344 772l18 105h290l-18 -105h-290zM354 -14q-152 0 -241 110.5t-61 263.5q26 154 145.5 254t276.5 100q150 0 239.5 -111t62.5 -264q-27 -154 -146 -253.5t-276 -99.5zM370 121q98 0 174.5 64t94.5 164q17 100 -36 165.5t-150 65.5t-171.5 -64.5t-92.5 -165.5
q-18 -100 33.5 -164.5t147.5 -64.5z" />
    <glyph glyph-name="omacron" unicode="&#x14d;" horiz-adv-x="594" 
d="M210 572l18 105h290l-18 -105h-290zM264 -14q-124 0 -187 83.5t-41 196.5q21 107 104 177.5t198 70.5q116 0 178.5 -83.5t42.5 -193.5q-18 -106 -102.5 -178.5t-192.5 -72.5zM273 112q57 0 102.5 38t55.5 101q12 62 -20 99.5t-89 37.5q-56 0 -100.5 -37.5t-56.5 -100.5
q-11 -63 20.5 -100.5t87.5 -37.5z" />
    <glyph glyph-name="Ohungarumlaut" unicode="&#x150;" horiz-adv-x="793" 
d="M322 763h129l107 138h-135zM495 763h129l117 138h-135zM354 -14q-152 0 -241 110.5t-61 263.5q26 154 145.5 254t276.5 100q150 0 239.5 -111t62.5 -264q-27 -154 -146 -253.5t-276 -99.5zM370 121q98 0 174.5 64t94.5 164q17 100 -36 165.5t-150 65.5t-171.5 -64.5
t-92.5 -165.5q-18 -100 33.5 -164.5t147.5 -64.5z" />
    <glyph glyph-name="ohungarumlaut" unicode="&#x151;" horiz-adv-x="594" 
d="M188 563h129l107 138h-135zM361 563h129l117 138h-135zM264 -14q-124 0 -187 83.5t-41 196.5q21 107 104 177.5t198 70.5q116 0 178.5 -83.5t42.5 -193.5q-18 -106 -102.5 -178.5t-192.5 -72.5zM273 112q57 0 102.5 38t55.5 101q12 62 -20 99.5t-89 37.5
q-56 0 -100.5 -37.5t-56.5 -100.5q-11 -63 20.5 -100.5t87.5 -37.5z" />
    <glyph glyph-name="OE" unicode="&#x152;" horiz-adv-x="916" 
d="M935 568h-256l-26 -150h233l-23 -129h-233l-27 -157h260l-23 -132h-353h-45q-51 -14 -102 -14q-149 0 -232.5 109t-55.5 264q26 152 143.5 253.5t265.5 101.5q59 0 104 -14h138h255zM466 135l75 430q-41 15 -97 15q-95 0 -166 -64t-89 -166q-18 -101 29 -165t142 -64
q61 0 106 14z" />
    <glyph glyph-name="oe" unicode="&#x153;" horiz-adv-x="976" 
d="M739 514q105 0 166.5 -77t42.5 -187q-7 -33 -14 -53h-126h-250q4 -51 35.5 -77.5t81.5 -26.5q34 0 64.5 14t46.5 36l128 1q-78 -158 -248 -158q-69 0 -119 28.5t-76 77.5q-85 -106 -216 -106q-122 0 -180.5 81.5t-40.5 191.5q18 106 99 180.5t200 74.5q62 0 109.5 -29
t72.5 -78q86 107 224 107zM575 298h252q-1 51 -30.5 75.5t-73.5 24.5q-51 0 -89.5 -26.5t-58.5 -73.5zM433 250q11 60 -21 99t-90 39q-59 0 -103.5 -38.5t-55.5 -99.5q-10 -61 21 -99.5t89 -38.5t104 39t56 99z" />
    <glyph glyph-name="Racute" unicode="&#x154;" horiz-adv-x="626" 
d="M549 900l-131 -137h-127l100 137h158zM601 458q-13 -70 -57.5 -121.5t-109.5 -75.5l166 -261h-149l-156 243h-94l-42 -243h-138l123 700h138h120q95 0 155.5 -73t43.5 -169zM464 468q8 44 -16 73.5t-69 29.5h-120l-37 -207h128q42 0 74 30t40 74z" />
    <glyph glyph-name="racute" unicode="&#x155;" horiz-adv-x="338" 
d="M427 700l-131 -137h-127l100 137h158zM220 433q50 77 151 77l-26 -144q-53 6 -99 -24.5t-59 -96.5l-43 -245h-129l88 500h129z" />
    <glyph glyph-name="Rcommaaccent" unicode="&#x156;" horiz-adv-x="626" 
d="M601 458q-13 -70 -57.5 -121.5t-109.5 -75.5l166 -261h-149l-156 243h-94l-42 -243h-138l123 700h138h120q95 0 155.5 -73t43.5 -169zM464 468q8 44 -16 73.5t-69 29.5h-120l-37 -207h128q42 0 74 30t40 74zM196 -263l45 200h121l-65 -200h-101z" />
    <glyph glyph-name="rcommaaccent" unicode="&#x157;" horiz-adv-x="338" 
d="M220 433q50 77 151 77l-26 -144q-53 6 -99 -24.5t-59 -96.5l-43 -245h-129l88 500h129zM-35 -263l46 200h121l-65 -200h-102z" />
    <glyph glyph-name="Rcaron" unicode="&#x158;" horiz-adv-x="626" 
d="M300 755l-81 145h123l32 -65l55 65h133l-131 -145h-131zM601 458q-13 -70 -57.5 -121.5t-109.5 -75.5l166 -261h-149l-156 243h-94l-42 -243h-138l123 700h138h120q95 0 155.5 -73t43.5 -169zM464 468q8 44 -16 73.5t-69 29.5h-120l-37 -207h128q42 0 74 30t40 74z" />
    <glyph glyph-name="rcaron" unicode="&#x159;" horiz-adv-x="338" 
d="M178 555l-81 145h123l32 -65l55 65h133l-131 -145h-131zM220 433q50 77 151 77l-26 -144q-53 6 -99 -24.5t-59 -96.5l-43 -245h-129l88 500h129z" />
    <glyph glyph-name="Sacute" unicode="&#x15a;" horiz-adv-x="548" 
d="M284 771h127l131 137h-158zM239 -14q-107 0 -173.5 59.5t-46.5 170.5h138q-9 -48 16.5 -71.5t84.5 -23.5q50 0 79.5 19t35.5 51q6 34 -20.5 54.5t-84.5 42.5q-108 40 -148 84q-52 58 -36 148q17 95 89.5 144.5t168.5 49.5t158.5 -59t43.5 -167h-138q8 45 -13.5 68.5
t-69.5 23.5q-42 0 -69.5 -19.5t-32.5 -50.5q-6 -35 18 -56.5t77 -42.5q107 -41 147 -79q65 -59 48 -151q-17 -96 -92 -145.5t-180 -49.5z" />
    <glyph glyph-name="sacute" unicode="&#x15b;" horiz-adv-x="480" 
d="M473 708l-131 -137h-127l100 137h158zM278 514q81 0 133 -45.5t37 -127.5h-126q5 28 -10.5 43.5t-45.5 15.5q-67 0 -75 -45q-3 -20 14.5 -33t46.5 -19.5t62 -18t60 -26.5t41.5 -47.5t6.5 -78.5q-14 -73 -74.5 -109.5t-148.5 -36.5t-140 45t-37 128h126q-5 -29 12 -44
t53 -15q74 0 80 45q4 23 -21 36.5t-63 23.5t-75 24.5t-59 50t-13 89.5q13 71 75 108t141 37z" />
    <glyph glyph-name="Scedilla" unicode="&#x15e;" horiz-adv-x="548" 
d="M544 488h-138q8 45 -13.5 68.5t-69.5 23.5q-42 0 -69.5 -19.5t-32.5 -50.5q-6 -35 18 -56.5t77 -42.5q107 -41 147 -79q65 -59 48 -151q-15 -84 -74 -132t-146 -59l-6 -36q27 -8 44.5 -30t11.5 -56q-19 -101 -236 -84l16 91q106 -7 112 20q3 22 -59 25l12 71
q-87 14 -135.5 71t-31.5 154h138q-9 -48 16.5 -71.5t84.5 -23.5q50 0 79.5 19t35.5 51q6 34 -20.5 54.5t-84.5 42.5q-108 40 -148 84q-52 58 -36 148q17 95 89.5 144.5t168.5 49.5t158.5 -59t43.5 -167z" />
    <glyph glyph-name="scedilla" unicode="&#x15f;" horiz-adv-x="480" 
d="M448 341h-126q5 28 -10.5 43.5t-45.5 15.5q-67 0 -75 -45q-3 -20 14.5 -33t46.5 -19.5t62 -18t60 -26.5t41.5 -47.5t6.5 -78.5q-23 -119 -165 -141l-6 -37q27 -8 44.5 -30t11.5 -56q-19 -101 -236 -84l16 91q106 -7 112 20q3 22 -59 25l12 70q-69 11 -106 54t-24 115h126
q-5 -29 12 -44t53 -15q74 0 80 45q4 23 -21 36.5t-63 23.5t-75 24.5t-59 50t-13 89.5q13 71 75 108t141 37q81 0 133 -45.5t37 -127.5z" />
    <glyph glyph-name="Scaron" unicode="&#x160;" horiz-adv-x="548" 
d="M293 763l-81 145h123l32 -65l55 65h133l-131 -145h-131zM342 714q96 0 158.5 -59t43.5 -167h-138q8 45 -13.5 68.5t-69.5 23.5q-42 0 -69.5 -19.5t-32.5 -50.5q-6 -35 18 -56.5t77 -42.5q107 -41 147 -79q65 -59 48 -151q-17 -96 -92 -145.5t-180 -49.5
q-107 0 -173.5 59.5t-46.5 170.5h138q-9 -48 16.5 -71.5t84.5 -23.5q50 0 79.5 19t35.5 51q6 34 -20.5 54.5t-84.5 42.5q-108 40 -148 84q-52 58 -36 148q17 95 89.5 144.5t168.5 49.5z" />
    <glyph glyph-name="scaron" unicode="&#x161;" horiz-adv-x="480" 
d="M224 563l-81 145h123l32 -65l55 65h133l-131 -145h-131zM278 514q81 0 133 -45.5t37 -127.5h-126q5 28 -10.5 43.5t-45.5 15.5q-67 0 -75 -45q-3 -20 14.5 -33t46.5 -19.5t62 -18t60 -26.5t41.5 -47.5t6.5 -78.5q-14 -73 -74.5 -109.5t-148.5 -36.5t-140 45t-37 128h126
q-5 -29 12 -44t53 -15q74 0 80 45q4 23 -21 36.5t-63 23.5t-75 24.5t-59 50t-13 89.5q13 71 75 108t141 37z" />
    <glyph glyph-name="uni0162" unicode="&#x162;" horiz-adv-x="500" 
d="M567 700l-23 -132h-169l-100 -568h-138l100 568h-168l23 132h306h169zM92 -263l45 200h121l-65 -200h-101z" />
    <glyph glyph-name="uni0163" unicode="&#x163;" horiz-adv-x="334" 
d="M362 500l-22 -124h-86l-66 -376h-129l66 376h-86l21 124h86l29 160h129l-29 -160h87zM10 -263l45 200h121l-65 -200h-101z" />
    <glyph glyph-name="Tcaron" unicode="&#x164;" horiz-adv-x="500" 
d="M270 755l-81 145h123l32 -65l55 65h133l-131 -145h-131zM567 700l-23 -132h-169l-100 -568h-138l100 568h-168l23 132h306h169z" />
    <glyph glyph-name="tcaron" unicode="&#x165;" horiz-adv-x="396" 
d="M375 735h122l-62 -182h-102zM304 660l-29 -160h87l-22 -124h-86l-66 -376h-129l66 376h-86l21 124h86l29 160h129z" />
    <glyph glyph-name="Tbar" unicode="&#x166;" horiz-adv-x="500" 
d="M544 568h-169l-29 -163h119l-21 -124h-120l-49 -281h-138l50 281h-118l21 124h118l29 163h-168l23 132h306h169z" />
    <glyph glyph-name="tbar" unicode="&#x167;" horiz-adv-x="334" 
d="M340 376h-86l-11 -58h69l-19 -103h-68l-37 -215h-129l37 215h-68l19 103h67l11 58h-86l21 124h86l29 160h129l-29 -160h87z" />
    <glyph glyph-name="Umacron" unicode="&#x16a;" horiz-adv-x="621" 
d="M257 764l18 105h290l-18 -105h-290zM265 -14q-107 0 -170 65t-43 178l83 471h137l-84 -475q-9 -50 16 -77t83 -27q118 0 137 104l83 475h138l-85 -486q-21 -117 -98.5 -172.5t-196.5 -55.5z" />
    <glyph glyph-name="umacron" unicode="&#x16b;" horiz-adv-x="532" 
d="M476 669l-18 -105h-290l18 105h290zM389 500h129l-88 -500h-129l8 47q-51 -61 -138 -61q-72 0 -112 55t-25 140l56 319h129l-54 -310q-7 -41 11 -62.5t53 -21.5q84 0 107 94z" />
    <glyph glyph-name="Uring" unicode="&#x16e;" horiz-adv-x="621" 
d="M399 739q-53 0 -84.5 36t-22.5 86q9 51 48.5 83t95.5 32q55 0 86 -35.5t22 -86.5q-8 -51 -48 -83t-97 -32zM411 820q40 0 47 37q3 16 -5.5 27t-28.5 11q-38 0 -45 -37q-3 -16 5.5 -27t26.5 -11zM265 -14q-107 0 -170 65t-43 178l83 471h137l-84 -475q-9 -50 16 -77
t83 -27q118 0 137 104l83 475h138l-85 -486q-21 -117 -98.5 -172.5t-196.5 -55.5z" />
    <glyph glyph-name="uring" unicode="&#x16f;" horiz-adv-x="532" 
d="M310 539q-53 0 -84.5 36t-22.5 86q9 51 48.5 83t95.5 32q55 0 86 -35.5t22 -86.5q-8 -51 -48 -83t-97 -32zM290 658q-3 -16 5.5 -27t26.5 -11q40 0 47 37q3 16 -5.5 27t-28.5 11q-38 0 -45 -37zM389 500h129l-88 -500h-129l8 47q-51 -61 -138 -61q-72 0 -112 55t-25 140
l56 319h129l-54 -310q-7 -41 11 -62.5t53 -21.5q84 0 107 94z" />
    <glyph glyph-name="Uhungarumlaut" unicode="&#x170;" horiz-adv-x="621" 
d="M235 755h129l107 138h-135zM408 755h129l117 138h-135zM265 -14q-107 0 -170 65t-43 178l83 471h137l-84 -475q-9 -50 16 -77t83 -27q118 0 137 104l83 475h138l-85 -486q-21 -117 -98.5 -172.5t-196.5 -55.5z" />
    <glyph glyph-name="uhungarumlaut" unicode="&#x171;" horiz-adv-x="532" 
d="M382 693l-107 -138h-129l101 138h135zM448 555h-129l111 138h135zM336 200l53 300h129l-88 -500h-129l8 47q-51 -61 -138 -61q-72 0 -112 55t-25 140l56 319h129l-54 -310q-7 -41 11 -62.5t53 -21.5q84 0 107 94z" />
    <glyph glyph-name="Uogonek" unicode="&#x172;" horiz-adv-x="620" 
d="M507 700h137l-85 -486q-22 -119 -103 -175q-66 -50 -92.5 -78t-31.5 -56q-6 -27 20 -27q12 -1 29 5l-14 -81q-43 -16 -84 -16t-64 26.5t-16 69.5q9 54 70 105q-1 0 -4 -0.5t-5 -0.5q-106 0 -169.5 62.5t-45.5 165.5l85 486h138l-85 -475q-17 -104 99 -104q118 0 136 104z
" />
    <glyph glyph-name="uogonek" unicode="&#x173;" horiz-adv-x="533" 
d="M389 500h129l-88 -500q-28 -24 -48.5 -52.5t-22.5 -47.5q-2 -22 21 -22q15 0 29 5l-14 -81q-35 -16 -75 -16q-46 0 -71.5 23.5t-17.5 66.5q9 52 86 124h-16l8 47q-51 -61 -138 -61q-72 0 -112 55t-25 140l56 319h129l-54 -310q-7 -41 11 -62.5t53 -21.5q86 0 107 97z" />
    <glyph glyph-name="Wcircumflex" unicode="&#x174;" horiz-adv-x="890" 
d="M545 820l-58 -65h-128l131 145h124h6l81 -145h-126zM818 700h149l-323 -700h-152l-34 317l-148 -317h-152l-76 700h137l51 -525l164 362l-18 163h123l52 -525z" />
    <glyph glyph-name="wcircumflex" unicode="&#x175;" horiz-adv-x="725" 
d="M428 620l-58 -65h-128l131 145h124h6l81 -145h-126zM615 500h144l-251 -500h-123h-1v1l-30 200l-101 -201h-109h-14l-76 500h131l37 -342l106 214l-19 128h108l46 -329z" />
    <glyph glyph-name="Ycircumflex" unicode="&#x176;" horiz-adv-x="601" 
d="M400 820l-58 -65h-128l131 145h124h6l81 -145h-126zM678 700l-298 -390l-55 -310h-137l55 311l-161 389h147l98 -257l187 257h164z" />
    <glyph glyph-name="ycircumflex" unicode="&#x177;" horiz-adv-x="500" 
d="M315 620l-58 -65h-128l131 145h124h6l81 -145h-126zM399 500h143l-360 -700h-138l106 208l-103 492h132l62 -320z" />
    <glyph glyph-name="Ydieresis" unicode="&#x178;" horiz-adv-x="601" 
d="M377 879l-20 -118h-118l21 118h117zM562 879l-20 -118h-118l21 118h117zM678 700l-298 -390l-55 -310h-137l55 311l-161 389h147l98 -257l187 257h164z" />
    <glyph glyph-name="Zacute" unicode="&#x179;" horiz-adv-x="535" 
d="M542 900l-131 -137h-127l100 137h158zM582 700l-19 -109l-370 -459h295l-23 -132h-473l20 110l371 458h-284l23 132h460z" />
    <glyph glyph-name="zacute" unicode="&#x17a;" horiz-adv-x="454" 
d="M465 700l-131 -137h-127l100 137h158zM65 379l22 121h375l-15 -86l-258 -293h216l-21 -121h-396l16 86l257 293h-196z" />
    <glyph glyph-name="Zdotaccent" unicode="&#x17b;" horiz-adv-x="535" 
d="M453 893l-23 -135h-135l23 135h135zM582 700l-19 -109l-370 -459h295l-23 -132h-473l20 110l371 458h-284l23 132h460z" />
    <glyph glyph-name="zdotaccent" unicode="&#x17c;" horiz-adv-x="454" 
d="M376 693l-23 -135h-135l23 135h135zM462 500l-15 -86l-258 -293h216l-21 -121h-396l16 86l257 293h-196l22 121h375z" />
    <glyph glyph-name="Zcaron" unicode="&#x17d;" horiz-adv-x="535" 
d="M293 755l-81 145h123l32 -65l55 65h133l-131 -145h-131zM582 700l-19 -109l-370 -459h295l-23 -132h-473l20 110l371 458h-284l23 132h460z" />
    <glyph glyph-name="zcaron" unicode="&#x17e;" horiz-adv-x="454" 
d="M216 555l-81 145h123l32 -65l55 65h133l-131 -145h-131zM65 379l22 121h375l-15 -86l-258 -293h216l-21 -121h-396l16 86l257 293h-196z" />
    <glyph glyph-name="florin" unicode="&#x192;" horiz-adv-x="441" 
d="M255 545q39 111 109 147.5t157 12.5l-22 -129q-29 18 -66 3t-52 -59l-37 -106h91l-22 -124h-111l-115 -331q-38 -111 -108 -147.5t-158 -12.5l22 128q29 -18 66 -3t52 59l106 307h-85l23 124h105z" />
    <glyph glyph-name="Scommaaccent" unicode="&#x218;" horiz-adv-x="548" 
d="M239 -14q-107 0 -173.5 59.5t-46.5 170.5h138q-9 -48 16.5 -71.5t84.5 -23.5q50 0 79.5 19t35.5 51q6 34 -20.5 54.5t-84.5 42.5q-108 40 -148 84q-52 58 -36 148q17 95 89.5 144.5t168.5 49.5t158.5 -59t43.5 -167h-138q8 45 -13.5 68.5t-69.5 23.5q-42 0 -69.5 -19.5
t-32.5 -50.5q-6 -35 18 -56.5t77 -42.5q107 -41 147 -79q65 -59 48 -151q-17 -96 -92 -145.5t-180 -49.5zM229 -263l65 200h-121l-45 -200h101z" />
    <glyph glyph-name="scommaaccent" unicode="&#x219;" horiz-adv-x="480" 
d="M448 341h-126q5 28 -10.5 43.5t-45.5 15.5q-67 0 -75 -45q-3 -20 14.5 -33t46.5 -19.5t62 -18t60 -26.5t41.5 -47.5t6.5 -78.5q-14 -73 -74.5 -109.5t-148.5 -36.5t-140 45t-37 128h126q-5 -29 12 -44t53 -15q74 0 80 45q4 23 -21 36.5t-63 23.5t-75 24.5t-59 50
t-13 89.5q13 71 75 108t141 37q81 0 133 -45.5t37 -127.5zM95 -263l45 200h121l-65 -200h-101z" />
    <glyph glyph-name="uni021A" unicode="&#x21a;" horiz-adv-x="500" 
d="M567 700l-23 -132h-169l-100 -568h-138l100 568h-168l23 132h306h169zM92 -263l45 200h121l-65 -200h-101z" />
    <glyph glyph-name="uni021B" unicode="&#x21b;" horiz-adv-x="334" 
d="M362 500l-22 -124h-86l-66 -376h-129l66 376h-86l21 124h86l29 160h129l-29 -160h87zM10 -263l45 200h121l-65 -200h-101z" />
    <glyph glyph-name="circumflex" unicode="&#x2c6;" horiz-adv-x="383" 
d="M416 555h-126l-31 64l-57 -64h-128l131 145h124h6z" />
    <glyph glyph-name="caron" unicode="&#x2c7;" horiz-adv-x="383" 
d="M309 700h133l-131 -145h-124h-7l-81 145h123l32 -65z" />
    <glyph glyph-name="breve" unicode="&#x2d8;" horiz-adv-x="373" 
d="M245 547q-79 0 -119 39t-28 106h115q-9 -52 42 -52q52 0 61 52h115q-11 -70 -58.5 -107.5t-127.5 -37.5z" />
    <glyph glyph-name="dotaccent" unicode="&#x2d9;" horiz-adv-x="175" 
d="M74 558l24 135h135l-24 -135h-135z" />
    <glyph glyph-name="ring" unicode="&#x2da;" horiz-adv-x="293" 
d="M196 539q-53 0 -84.5 36t-22.5 86q9 51 49 83t96 32q55 0 86 -36t21 -86q-8 -51 -48 -83t-97 -32zM208 620q20 0 32.5 10.5t14.5 26.5q3 16 -5.5 27t-27.5 11q-39 0 -46 -37q-2 -17 6 -27.5t26 -10.5z" />
    <glyph glyph-name="ogonek" unicode="&#x2db;" horiz-adv-x="217" 
d="M35 -214q-43 0 -65.5 24t-15.5 66q10 57 89 124h110q-62 -54 -70 -94q-5 -28 20 -28q13 -1 29 5l-14 -81q-42 -16 -83 -16z" />
    <glyph glyph-name="tilde" unicode="&#x2dc;" horiz-adv-x="379" 
d="M83 560q6 56 27.5 92t50 48t60.5 7t61 -26q25 -20 40 -16t21 40h104q-6 -56 -27.5 -92t-50 -48t-60.5 -7t-61 26q-26 20 -40.5 16t-20.5 -40h-104z" />
    <glyph glyph-name="hungarumlaut" unicode="&#x2dd;" horiz-adv-x="434" 
d="M74 555h128l108 138h-135zM247 555h128l118 138h-135z" />
    <glyph glyph-name="gravecomb" unicode="&#x300;" horiz-adv-x="0" 
d="M36 563l-62 137h-150l90 -137h122z" />
    <glyph glyph-name="acutecomb" unicode="&#x301;" horiz-adv-x="0" 
d="M-199 563h127l131 137h-158z" />
    <glyph glyph-name="uni0302" unicode="&#x302;" horiz-adv-x="0" 
d="M34 555h-127l-31 64l-57 -64h-128l131 145h124h6z" />
    <glyph glyph-name="tildecomb" unicode="&#x303;" horiz-adv-x="0" 
d="M-305 560q6 56 27.5 92t50.5 48t61 7t61 -26q25 -20 39.5 -16t20.5 40h104q-6 -56 -27 -92t-50 -48t-61 -7t-61 26q-26 20 -40.5 16t-20.5 -40h-104z" />
    <glyph glyph-name="uni0304" unicode="&#x304;" horiz-adv-x="0" 
d="M-254 564l18 105h290l-18 -105h-290z" />
    <glyph glyph-name="uni0306" unicode="&#x306;" horiz-adv-x="0" 
d="M-128 547q-79 0 -119 39t-28 106h115q-9 -52 42 -52q52 0 61 52h116q-11 -70 -59 -107.5t-128 -37.5z" />
    <glyph glyph-name="uni0307" unicode="&#x307;" horiz-adv-x="0" 
d="M-102 558l23 135h136l-23 -135h-136z" />
    <glyph glyph-name="uni0308" unicode="&#x308;" horiz-adv-x="0" 
d="M-268 561l21 118h117l-20 -118h-118zM-83 561l21 118h118l-20 -118h-119z" />
    <glyph glyph-name="uni030A" unicode="&#x30a;" horiz-adv-x="0" 
d="M-94 539q-53 0 -84.5 36t-22.5 86q9 51 48.5 83t95.5 32t87 -35.5t22 -86.5q-8 -51 -48.5 -83t-97.5 -32zM-82 620q40 0 47 37q3 16 -5.5 27t-28.5 11q-38 0 -45 -37q-3 -16 5.5 -27t26.5 -11z" />
    <glyph glyph-name="uni030B" unicode="&#x30b;" horiz-adv-x="0" 
d="M-361 555h129l107 138h-135zM-188 555h129l118 138h-136z" />
    <glyph glyph-name="uni030C" unicode="&#x30c;" horiz-adv-x="0" 
d="M-74 700h134l-132 -145h-124h-7l-81 145h123l32 -65z" />
    <glyph glyph-name="uni0312" unicode="&#x312;" horiz-adv-x="0" 
d="M7 975l-66 -200h122l46 200h-102z" />
    <glyph glyph-name="uni0326" unicode="&#x326;" horiz-adv-x="0" 
d="M-141 -263l65 200h-121l-46 -200h102z" />
    <glyph glyph-name="uni0327" unicode="&#x327;" horiz-adv-x="0" 
d="M-143 -46q27 -8 44.5 -30t11.5 -56q-19 -101 -236 -84l16 91q106 -7 112 20q3 22 -59 25l14 80h105z" />
    <glyph glyph-name="uni0328" unicode="&#x328;" horiz-adv-x="0" 
d="M-189 -214q-43 0 -65.5 24t-15.5 66q10 57 89 124h110q-62 -54 -70 -94q-5 -28 20 -28q13 -1 29 5l-14 -81q-42 -16 -83 -16z" />
    <glyph glyph-name="uni0394" unicode="&#x394;" horiz-adv-x="653" 
d="M491 700l115 -700h-144h-381h-123l362 700h171zM178 129h265l-59 418z" />
    <glyph glyph-name="uni03A9" unicode="&#x3a9;" horiz-adv-x="778" 
d="M771 356q-24 -137 -139 -224h86l-23 -132h-277l9 51l14 81q73 22 125 80.5t65 137.5q18 100 -35 165t-149 65q-97 0 -172 -64.5t-93 -165.5q-13 -79 17.5 -137.5t95.5 -80.5l-23 -132h-277l23 132h101q-97 99 -72 243q26 148 143 243.5t273 95.5q148 0 241 -106t67 -252z
" />
    <glyph glyph-name="pi" unicode="&#x3c0;" horiz-adv-x="635" 
d="M657 500l-22 -121h-79l-67 -379h-129l67 379h-170l-66 -379h-129l66 379h-83l22 121h212h298h80z" />
    <glyph glyph-name="uni0401" unicode="&#x401;" horiz-adv-x="513" 
d="M347 879l-20 -118h-118l21 118h117zM532 879l-20 -118h-118l21 118h117zM531 568h-273l-26 -150h248l-23 -129h-248l-27 -157h277l-23 -132h-370h-45l123 700h138h272z" />
    <glyph glyph-name="uni0402" unicode="&#x402;" horiz-adv-x="663" 
d="M472 459q80 0 125 -53.5t29 -142.5l-12 -69q-21 -114 -82 -162.5t-172 -41.5l23 128q44 -3 64.5 14.5t28.5 61.5l10 56q15 85 -65 85q-46 0 -94 -24l-55 -311h-137l100 568h-166l23 132h303h199l-23 -132h-199l-23 -131q62 22 123 22z" />
    <glyph glyph-name="uni0403" unicode="&#x403;" horiz-adv-x="475" 
d="M538 899l-131 -137h-127l100 137h158zM542 700l-23 -132h-261l-99 -568h-138l123 700h398z" />
    <glyph glyph-name="uni0404" unicode="&#x404;" horiz-adv-x="749" 
d="M370 121q73 0 132.5 35t84.5 94h144q-40 -118 -144.5 -191t-233.5 -73q-156 0 -242.5 109.5t-58.5 264.5q27 155 141 254.5t274 99.5q126 0 212 -74.5t87 -189.5h-144q-5 60 -52 95t-119 35q-83 0 -148 -44.5t-96 -120.5h312l-24 -129h-310q4 -76 52.5 -120.5
t132.5 -44.5z" />
    <glyph glyph-name="uni0405" unicode="&#x405;" horiz-adv-x="548" 
d="M239 -14q-107 0 -173.5 59.5t-46.5 170.5h138q-9 -48 16.5 -71.5t84.5 -23.5q50 0 79.5 19t35.5 51q6 34 -20.5 54.5t-84.5 42.5q-108 40 -148 84q-52 58 -36 148q17 95 89.5 144.5t168.5 49.5t158.5 -59t43.5 -167h-138q8 45 -13.5 68.5t-69.5 23.5q-42 0 -69.5 -19.5
t-32.5 -50.5q-6 -35 18 -56.5t77 -42.5q107 -41 147 -79q65 -59 48 -151q-17 -96 -92 -145.5t-180 -49.5z" />
    <glyph glyph-name="uni0406" unicode="&#x406;" horiz-adv-x="268" 
d="M144 700h138l-123 -700h-138z" />
    <glyph glyph-name="uni0407" unicode="&#x407;" horiz-adv-x="268" 
d="M72 761l21 118h117l-20 -118h-118zM257 761l21 118h117l-20 -118h-118zM144 700h138l-123 -700h-138z" />
    <glyph glyph-name="uni0408" unicode="&#x408;" horiz-adv-x="538" 
d="M209 -14q-61 0 -110.5 23t-78 74.5t-15.5 123.5l4 18h137l-3 -18q-8 -42 13.5 -64t68.5 -22q98 0 116 101l83 478h138l-87 -493q-20 -113 -93 -167t-173 -54z" />
    <glyph glyph-name="uni0409" unicode="&#x409;" horiz-adv-x="922" 
d="M693 438q95 0 154 -66.5t43 -161.5q-17 -96 -92 -153t-182 -57h-196h-45l100 568h-147l-49 -278q-11 -65 -30.5 -115.5t-43 -82t-52 -53.5t-59 -30.5t-63 -12t-64.5 1.5l22 128q61 -7 97.5 27t54.5 133l73 414h421l-46 -262h104zM752 219q7 42 -15.5 66t-65.5 24h-105
l-31 -180h104q43 0 74.5 24t38.5 66z" />
    <glyph glyph-name="uni040A" unicode="&#x40a;" horiz-adv-x="918" 
d="M689 438q95 0 154 -66.5t43 -161.5q-17 -96 -92 -153t-182 -57h-196h-45l54 309h-212l-54 -309h-138l123 700h138l-47 -262h213l46 262h138l-47 -262h104zM748 219q8 42 -15 66t-66 24h-104l-32 -180h104q43 0 74.5 24t38.5 66z" />
    <glyph glyph-name="uni040B" unicode="&#x40b;" horiz-adv-x="668" 
d="M472 459q80 0 125 -53.5t29 -142.5l-47 -263h-137l44 250q15 85 -65 85q-46 0 -94 -24l-55 -311h-137l100 568h-166l23 132h303h199l-23 -132h-199l-23 -131q62 22 123 22z" />
    <glyph glyph-name="uni040C" unicode="&#x40c;" horiz-adv-x="614" 
d="M578 899l-131 -137h-127l100 137h158zM689 700l-337 -344l216 -356h-145l-205 337l-59 -337h-138l123 700h138l-53 -302l295 302h165z" />
    <glyph glyph-name="uni040E" unicode="&#x40e;" horiz-adv-x="600" 
d="M558 875l-19 -112h-290l19 112h290zM527 700h142l-289 -507q-63 -111 -137.5 -154.5t-172.5 -38.5l22 128q56 -5 93 16.5t67 69.5l-150 486h132l101 -338z" />
    <glyph glyph-name="uni040F" unicode="&#x40f;" horiz-adv-x="638" 
d="M514 700h138l-123 -700h-138h-47l-25 -144h-138l25 144h-140h-45l123 700h138l-100 -568h232z" />
    <glyph glyph-name="uni0410" unicode="&#x410;" horiz-adv-x="653" 
d="M457 0l-17 126h-268l-63 -126h-151l362 700h171l115 -700h-149zM237 255h186l-38 292z" />
    <glyph glyph-name="uni0411" unicode="&#x411;" horiz-adv-x="586" 
d="M366 435q96 0 152.5 -66t39.5 -161q-17 -97 -88.5 -152.5t-180.5 -55.5h-223h-45l123 700h138h302l-23 -132h-303l-23 -133h131l-24 -129h-130l-31 -177h130q41 0 72.5 23.5t39.5 65.5q7 43 -16 66.5t-64 21.5z" />
    <glyph glyph-name="uni0412" unicode="&#x412;" horiz-adv-x="687" 
d="M568 423q50 -32 73 -88t12 -122q-17 -95 -87 -154t-173 -59h-339h-33l123 700h138h148q90 0 141.5 -58t37.5 -138q-8 -44 -41 -81zM411 571h-152l-21 -118h201q24 20 31 51q5 30 -11 48.5t-48 18.5zM517 230q7 43 -15.5 72t-66.5 29h-218l-36 -202h217q49 0 80 28.5
t39 72.5z" />
    <glyph glyph-name="uni0413" unicode="&#x413;" horiz-adv-x="475" 
d="M542 700l-23 -132h-261l-99 -568h-138l123 700h398z" />
    <glyph glyph-name="uni0414" unicode="&#x414;" horiz-adv-x="683" 
d="M659 700l-100 -571h75l-48 -273h-137l25 144h-365l-25 -144h-138l47 273h66q75 80 103 240l58 331h439zM213 129h208l78 442h-164l-36 -204q-26 -156 -86 -238z" />
    <glyph glyph-name="uni0415" unicode="&#x415;" horiz-adv-x="513" 
d="M531 568h-273l-26 -150h248l-23 -129h-248l-27 -157h277l-23 -132h-370h-45l123 700h138h272z" />
    <glyph glyph-name="uni0416" unicode="&#x416;" horiz-adv-x="904" 
d="M964 700l-298 -354l182 -346h-145l-168 321l-57 -321h-137l56 319l-271 -319h-158l311 364l-182 336h145l166 -315l56 315h137l-55 -313l259 313h159z" />
    <glyph glyph-name="uni0417" unicode="&#x417;" horiz-adv-x="545" 
d="M459 407q88 -70 67 -193q-18 -106 -93.5 -167t-196.5 -61q-118 0 -182 69.5t-45 173.5h137q-8 -48 18 -80.5t85 -32.5t95 29.5t44 76.5t-17.5 76t-80.5 29h-54l23 128h54q10 0 30 -2q38 22 47 65q5 30 -12 48.5t-56 18.5q-38 0 -61.5 -19t-28.5 -49h-138q15 89 80.5 143
t166.5 54q91 0 146 -56t42 -137q-13 -66 -70 -114z" />
    <glyph glyph-name="uni0418" unicode="&#x418;" horiz-adv-x="645" 
d="M399 0l75 424l-348 -424h-105l123 700h138l-75 -424l347 424h105l-123 -700h-137z" />
    <glyph glyph-name="uni0419" unicode="&#x419;" horiz-adv-x="645" 
d="M269 764l19 112h290l-19 -112h-290zM399 0l75 424l-348 -424h-105l123 700h138l-75 -424l347 424h105l-123 -700h-137z" />
    <glyph glyph-name="uni041A" unicode="&#x41a;" horiz-adv-x="614" 
d="M689 700l-337 -344l216 -356h-145l-205 337l-59 -337h-138l123 700h138l-53 -302l295 302h165z" />
    <glyph glyph-name="uni041B" unicode="&#x41b;" horiz-adv-x="641" 
d="M-33 -2l22 128q61 -7 97.5 27t54.5 133l73 414h441l-123 -700h-137l100 568h-167l-49 -278q-14 -78 -38.5 -135t-55 -88t-67.5 -49.5t-74.5 -20t-76.5 0.5z" />
    <glyph glyph-name="uni041C" unicode="&#x41c;" horiz-adv-x="815" 
d="M829 700l-123 -700h-137l82 471l-218 -359h-100l-92 358l-82 -470h-138l123 700h138h12l110 -428l261 428h164z" />
    <glyph glyph-name="uni041D" unicode="&#x41d;" horiz-adv-x="638" 
d="M514 700h138l-123 -700h-138l52 294h-233l-51 -294h-138l123 700h138l-49 -274h233z" />
    <glyph glyph-name="uni041E" unicode="&#x41e;" horiz-adv-x="793" 
d="M354 -14q-152 0 -241 110.5t-61 263.5q26 154 145.5 254t276.5 100q150 0 239.5 -111t62.5 -264q-27 -154 -146 -253.5t-276 -99.5zM370 121q98 0 174.5 64t94.5 164q17 100 -36 165.5t-150 65.5t-171.5 -64.5t-92.5 -165.5q-18 -100 33.5 -164.5t147.5 -64.5z" />
    <glyph glyph-name="uni041F" unicode="&#x41f;" horiz-adv-x="638" 
d="M652 700l-123 -700h-138l100 568h-233l-99 -568h-138l123 700h138h370z" />
    <glyph glyph-name="uni0420" unicode="&#x420;" horiz-adv-x="588" 
d="M404 700q93 0 152.5 -73.5t42.5 -168.5q-18 -102 -93 -162.5t-184 -60.5h-122l-41 -235h-138l123 700h138h122zM462 468q8 43 -15.5 73t-65.5 30h-122l-37 -207h123q44 0 76.5 30t40.5 74z" />
    <glyph glyph-name="uni0421" unicode="&#x421;" horiz-adv-x="752" 
d="M359 -14q-157 0 -246 110t-61 264q26 155 142.5 254.5t276.5 99.5q125 0 211 -74.5t90 -189.5h-143q-10 59 -57 94.5t-117 35.5q-103 0 -176 -64t-90 -166q-18 -101 33 -165t153 -64q69 0 129 35t89 94h144q-44 -119 -148 -191.5t-230 -72.5z" />
    <glyph glyph-name="uni0422" unicode="&#x422;" horiz-adv-x="500" 
d="M567 700l-23 -132h-169l-100 -568h-138l100 568h-168l23 132h306h169z" />
    <glyph glyph-name="uni0423" unicode="&#x423;" horiz-adv-x="600" 
d="M527 700h142l-289 -507q-63 -111 -137.5 -154.5t-172.5 -38.5l22 128q56 -5 93 16.5t67 69.5l-150 486h132l101 -338z" />
    <glyph glyph-name="uni0424" unicode="&#x424;" horiz-adv-x="820" 
d="M544 632q141 -18 215.5 -96t53.5 -195q-21 -120 -119 -192t-250 -84l-14 -80h-134l14 83q-141 18 -215 96t-53 195q21 120 119 192t249 84l15 80h134zM179 350q-25 -138 153 -158l56 316q-185 -20 -209 -158zM676 350q24 138 -154 158l-55 -316q184 20 209 158z" />
    <glyph glyph-name="uni0425" unicode="&#x425;" horiz-adv-x="600" 
d="M655 700l-259 -347l148 -353h-149l-94 226l-170 -226h-163l274 366l-139 334h148l87 -207l155 207h162z" />
    <glyph glyph-name="uni0426" unicode="&#x426;" horiz-adv-x="675" 
d="M552 132h75l-48 -276h-138l25 144h-445l123 700h138l-100 -568h232l100 568h138z" />
    <glyph glyph-name="uni0427" unicode="&#x427;" horiz-adv-x="616" 
d="M493 700h137l-123 -700h-137l43 244q-56 -15 -116 -15q-108 0 -169 59.5t-43 161.5l44 250h138l-41 -232q-20 -107 90 -107q64 0 121 22z" />
    <glyph glyph-name="uni0428" unicode="&#x428;" horiz-adv-x="903" 
d="M779 700h138l-123 -700h-773l123 700h138l-100 -568h180l100 568h137l-100 -568h180z" />
    <glyph glyph-name="uni0429" unicode="&#x429;" horiz-adv-x="940" 
d="M817 132h75l-48 -276h-138l25 144h-710l123 700h138l-100 -568h180l100 568h137l-100 -568h180l100 568h138z" />
    <glyph glyph-name="uni042A" unicode="&#x42a;" horiz-adv-x="691" 
d="M124 0l100 568h-168l23 132h305l-41 -235h122q93 0 152.5 -73t42.5 -169q-17 -102 -92.5 -162.5t-184.5 -60.5h-259zM284 129h122q44 0 76.5 30t40.5 74q8 43 -15 73t-65 30h-123z" />
    <glyph glyph-name="uni042B" unicode="&#x42b;" horiz-adv-x="829" 
d="M21 0l123 700h138l-42 -235h122q93 0 152.5 -73t43.5 -169q-18 -102 -93 -162.5t-184 -60.5h-260zM582 0l123 700h138l-123 -700h-138zM181 129h122q44 0 77 30t41 74t-15.5 73.5t-65.5 29.5h-122z" />
    <glyph glyph-name="uni042C" unicode="&#x42c;" horiz-adv-x="588" 
d="M362 465q93 0 152.5 -73t43.5 -169q-18 -102 -93 -162.5t-184 -60.5h-215h-45l123 700h138l-42 -235h122zM421 233q8 44 -15.5 73.5t-65.5 29.5h-122l-37 -207h122q44 0 77 30t41 74z" />
    <glyph glyph-name="uni042D" unicode="&#x42d;" horiz-adv-x="750" 
d="M432 714q156 0 242.5 -109.5t58.5 -263.5q-27 -156 -141 -255.5t-274 -99.5q-127 0 -212.5 74.5t-86.5 189.5h144q6 -59 52.5 -94t118.5 -35q84 0 148 44.5t95 120.5h-311l23 129h311q-5 76 -53.5 120.5t-131.5 44.5q-72 0 -131.5 -35.5t-84.5 -94.5h-144
q40 119 144 191.5t233 72.5z" />
    <glyph glyph-name="uni042E" unicode="&#x42e;" horiz-adv-x="1056" 
d="M737 714q150 0 239.5 -111t62.5 -264q-28 -154 -146.5 -253.5t-275.5 -99.5q-134 0 -219.5 88t-84.5 220h-103l-51 -294h-138l123 700h138l-49 -274h103q44 129 153.5 208.5t247.5 79.5zM901 349q18 100 -35 165.5t-150 65.5t-172 -64.5t-92 -165.5q-18 -100 33 -164.5
t147 -64.5q98 0 175 64t94 164z" />
    <glyph glyph-name="uni042F" unicode="&#x42f;" horiz-adv-x="635" 
d="M649 700l-123 -700h-137l42 243h-63l-238 -243h-169l261 260q-64 28 -92.5 88.5t-16.5 130.5q16 92 90.5 156.5t185.5 64.5h260zM335 364h117l37 207h-119q-45 0 -79.5 -29.5t-42.5 -73.5t17.5 -74t69.5 -30z" />
    <glyph glyph-name="uni0430" unicode="&#x430;" horiz-adv-x="510" 
d="M303 514q84 0 135.5 -55.5t36.5 -140.5l-56 -318h-126l6 34q-53 -48 -134 -48q-73 0 -118 45.5t-31 121.5q13 74 68 111t127 37q82 0 126 -49l11 58q14 84 -65 84q-35 0 -58.5 -17t-28.5 -46h-126q15 87 78 135t155 48zM143 146q-5 -28 13.5 -46t58.5 -18q42 0 70 17
t33 44q5 29 -17.5 46t-62.5 17q-85 0 -95 -60z" />
    <glyph glyph-name="uni0431" unicode="&#x431;" horiz-adv-x="564" 
d="M254 -14q-114 0 -177.5 76.5t-43.5 187.5q14 78 56.5 140t94.5 101.5t103 71.5t90 66.5t47 70.5h137q-11 -52 -40.5 -91t-68.5 -64.5t-78.5 -45.5t-80.5 -45t-64 -52q61 40 126 40q90 0 145.5 -66.5t37.5 -163.5q-18 -102 -95 -164t-189 -62zM266 104q54 0 94.5 33
t48.5 84q9 51 -20.5 84.5t-84.5 33.5q-49 0 -92 -31t-52 -83q-9 -53 21.5 -87t84.5 -34z" />
    <glyph glyph-name="uni0432" unicode="&#x432;" horiz-adv-x="525" 
d="M431 292q37 -21 54 -58.5t9 -81.5q-13 -69 -65 -110.5t-143 -41.5h-271l88 500h121h109q69 0 107.5 -41.5t29.5 -98.5q-7 -38 -39 -68zM296 396h-90l-14 -81h138q11 14 14 30q5 24 -8 38t-40 13zM369 164q4 26 -10.5 39.5t-45.5 13.5h-139l-19 -110h139q64 0 75 57z" />
    <glyph glyph-name="uni0433" unicode="&#x433;" horiz-adv-x="383" 
d="M425 500l-21 -124h-194l-66 -376h-129l88 500h322z" />
    <glyph glyph-name="uni0434" unicode="&#x434;" 
d="M533 500l-68 -383h67l-46 -261h-126l25 144h-290l-25 -144h-127l46 261h59q58 64 78 181l35 202h126h199h47zM190 117h149l47 267h-119l-15 -86q-21 -114 -62 -181z" />
    <glyph glyph-name="uni0435" unicode="&#x435;" 
d="M333 514q106 0 171 -77.5t45 -186.5q-4 -24 -14 -53h-125h-250q4 -51 35.5 -77.5t81.5 -26.5q77 0 111 50l128 1q-35 -76 -101.5 -117t-154.5 -41q-116 0 -180.5 80.5t-44.5 193.5t101.5 183.5t196.5 70.5zM176 298h253q-2 51 -31.5 75.5t-73.5 24.5q-51 0 -89.5 -26
t-58.5 -74z" />
    <glyph glyph-name="uni0436" unicode="&#x436;" horiz-adv-x="746" 
d="M771 500l-220 -252l138 -248h-131l-127 230l-40 -230h-126l40 227l-198 -227h-139l230 265l-130 235h129l118 -215l38 215h126l-39 -219l188 219h143z" />
    <glyph glyph-name="uni0437" unicode="&#x437;" horiz-adv-x="435" 
d="M405 367q-9 -52 -51 -85q61 -48 47 -135q-13 -72 -70.5 -116.5t-153.5 -44.5t-143 49.5t-33 125.5h127q-5 -28 11.5 -43.5t52.5 -15.5q72 0 83 60q5 27 -11.5 42.5t-51.5 15.5h-46l17 98h52q2 0 6 -0.5t6 -0.5q28 19 32 42q7 43 -43 43t-59 -47h-125q14 75 66.5 117
t136.5 42q79 0 120.5 -43t29.5 -104z" />
    <glyph glyph-name="uni0438" unicode="&#x438;" horiz-adv-x="545" 
d="M434 500h96l-88 -500h-126l50 281l-255 -281h-96l88 500h126l-50 -280z" />
    <glyph glyph-name="uni0439" unicode="&#x439;" horiz-adv-x="545" 
d="M184 564l19 112h290l-19 -112h-290zM434 500h96l-88 -500h-126l50 281l-255 -281h-96l88 500h126l-50 -280z" />
    <glyph glyph-name="uni043A" unicode="&#x43a;" horiz-adv-x="517" 
d="M550 500l-241 -247l159 -253h-140l-143 235l-41 -235h-129l88 500h129l-37 -211l202 211h153z" />
    <glyph glyph-name="uni043B" unicode="&#x43b;" horiz-adv-x="519" 
d="M504 500l-88 -500h-129l66 376h-110l-29 -167q-22 -124 -83 -173t-166 -42l21 121q80 -11 100 101l50 284h129h239z" />
    <glyph glyph-name="uni043C" unicode="&#x43c;" horiz-adv-x="653" 
d="M638 500l-88 -500h-125l55 308l-146 -214h-70l-70 215l-55 -309h-124l88 500h124h4l86 -261l177 261h144z" />
    <glyph glyph-name="uni043D" unicode="&#x43d;" horiz-adv-x="545" 
d="M401 500h129l-88 -500h-129l34 190h-170l-33 -190h-129l88 500h129l-34 -189h170z" />
    <glyph glyph-name="uni043E" unicode="&#x43e;" horiz-adv-x="594" 
d="M264 -14q-124 0 -187 83.5t-41 196.5q21 107 104 177.5t198 70.5q116 0 178.5 -83.5t42.5 -193.5q-18 -106 -102.5 -178.5t-192.5 -72.5zM273 112q57 0 102.5 38t55.5 101q12 62 -20 99.5t-89 37.5q-56 0 -100.5 -37.5t-56.5 -100.5q-11 -63 20.5 -100.5t87.5 -37.5z" />
    <glyph glyph-name="uni043F" unicode="&#x43f;" horiz-adv-x="545" 
d="M530 500l-88 -500h-129l67 379h-170l-66 -379h-129l88 500h129h298z" />
    <glyph glyph-name="uni0440" unicode="&#x440;" horiz-adv-x="626" 
d="M389 514q106 0 163.5 -81.5t39.5 -190.5q-16 -105 -92 -180.5t-188 -75.5q-109 0 -156 83l-47 -269h-129l123 700h129l-10 -54q68 68 167 68zM463 251q11 63 -20 101.5t-91 38.5q-59 0 -105 -38t-58 -98l-2 -10q-9 -60 23.5 -98t91.5 -38q61 0 106 39.5t55 102.5z" />
    <glyph glyph-name="uni0441" unicode="&#x441;" horiz-adv-x="566" 
d="M535 183q-29 -90 -104.5 -143.5t-171.5 -53.5q-113 0 -178.5 81t-45.5 193t103.5 183t198.5 71q91 0 155.5 -57t65.5 -139h-135q-7 32 -33.5 50.5t-66.5 18.5q-58 0 -103 -38t-55 -98q-10 -59 21 -98t89 -39q89 0 124 69h136z" />
    <glyph glyph-name="uni0442" unicode="&#x442;" horiz-adv-x="423" 
d="M457 500l-22 -121h-136l-66 -379h-129l66 379h-137l21 121h267h136z" />
    <glyph glyph-name="uni0443" unicode="&#x443;" horiz-adv-x="495" 
d="M394 500h143l-257 -500q-58 -114 -132 -160t-168 -40l21 120q53 -1 84 20t58 73l1 1l-102 486h132l62 -330z" />
    <glyph glyph-name="uni0444" unicode="&#x444;" horiz-adv-x="686" 
d="M451 506q107 -19 162 -93.5t38 -171.5q-17 -100 -94.5 -167.5t-196.5 -82.5l-33 -191h-126l34 194q-107 19 -162.5 93t-38.5 172q18 100 95 167.5t196 82.5l34 191h126zM525 250q9 51 -15.5 86.5t-80.5 48.5l-47 -270q60 13 97.5 49t45.5 86zM160 250q-8 -50 16.5 -86
t79.5 -49l47 269q-59 -13 -96.5 -48.5t-46.5 -85.5z" />
    <glyph glyph-name="uni0445" unicode="&#x445;" horiz-adv-x="473" 
d="M504 500l-198 -248l118 -252h-133l-69 147l-117 -147h-144l208 260l-112 240h133l63 -135l107 135h144z" />
    <glyph glyph-name="uni0446" unicode="&#x446;" horiz-adv-x="575" 
d="M446 121h84l-46 -265h-126l25 144h-368l88 500h129l-67 -379h152l67 379h129z" />
    <glyph glyph-name="uni0447" unicode="&#x447;" horiz-adv-x="511" 
d="M368 500h129l-88 -500h-129l27 155q-50 -14 -107 -14q-77 0 -122.5 45t-31.5 125l33 189h129l-31 -174q-10 -65 63 -65q43 0 89 19z" />
    <glyph glyph-name="uni0448" unicode="&#x448;" horiz-adv-x="773" 
d="M629 500h129l-88 -500h-129h-263h-220h-43l88 500h129l-67 -379h134l67 379h129l-67 -379h134z" />
    <glyph glyph-name="uni0449" unicode="&#x449;" horiz-adv-x="788" 
d="M743 500l-67 -379h67l-22 -121l-25 -144h-126l25 144h-196h-255h-129l88 500h129l-67 -379h127l66 379h129l-66 -379h126l67 379h129z" />
    <glyph glyph-name="uni044A" unicode="&#x44a;" horiz-adv-x="574" 
d="M379 340q79 0 124.5 -51.5t32.5 -127.5q-14 -77 -70 -119t-147 -42h-196h-31l67 379h-136l21 121h180h85l-28 -160h98zM411 170q4 25 -10.5 41t-41.5 16h-98l-20 -113h98q27 0 47.5 15.5t24.5 40.5z" />
    <glyph glyph-name="uni044B" unicode="&#x44b;" horiz-adv-x="717" 
d="M301 340q79 0 124.5 -51.5t32.5 -127.5q-14 -77 -70 -119t-147 -42h-195h-31l88 500h129l-28 -160h97zM573 500h129l-88 -500h-129zM334 170q4 25 -10.5 41t-41.5 16h-98l-20 -113h98q27 0 47.5 15.5t24.5 40.5z" />
    <glyph glyph-name="uni044C" unicode="&#x44c;" horiz-adv-x="497" 
d="M301 340q79 0 124.5 -51.5t32.5 -127.5q-14 -77 -70 -119t-147 -42h-195h-31l88 500h129l-28 -160h97zM334 170q4 25 -10.5 41t-41.5 16h-98l-20 -113h98q27 0 47.5 15.5t24.5 40.5z" />
    <glyph glyph-name="uni044D" unicode="&#x44d;" horiz-adv-x="562" 
d="M305 514q112 0 177.5 -80.5t45.5 -192.5t-103.5 -183.5t-197.5 -71.5q-93 0 -157.5 56t-65.5 141h132q7 -35 36.5 -56.5t73.5 -21.5q43 0 80 23.5t59 63.5h-172l21 116h171q-8 40 -36.5 63.5t-72.5 23.5t-81 -20.5t-55 -56.5h-133q29 86 107 141t171 55z" />
    <glyph glyph-name="uni044E" unicode="&#x44e;" horiz-adv-x="811" 
d="M557 514q115 0 177 -83.5t42 -193.5q-18 -106 -102 -178.5t-192 -72.5q-101 0 -162 58t-67 146h-76l-33 -190h-129l88 500h129l-34 -189h71q32 90 109 146.5t179 56.5zM650 251q11 62 -21.5 99.5t-89.5 37.5t-102 -37.5t-57 -100.5q-10 -63 22 -100.5t88 -37.5
q57 0 103 38t57 101z" />
    <glyph glyph-name="uni044F" unicode="&#x44f;" horiz-adv-x="519" 
d="M504 500l-88 -500h-126l27 156h-50l-153 -156h-153l176 176q-44 23 -65 67.5t-13 93.5q12 70 68 116.5t143 46.5h234zM184 324q-4 -25 11 -42t44 -17h98l21 120h-98q-29 0 -50 -17.5t-26 -43.5z" />
    <glyph glyph-name="uni0451" unicode="&#x451;" 
d="M343 683l-20 -118h-118l21 118h117zM528 683l-20 -118h-118l21 118h117zM333 514q106 0 171 -77.5t45 -186.5q-4 -24 -14 -53h-125h-250q4 -51 35.5 -77.5t81.5 -26.5q77 0 111 50l128 1q-35 -76 -101.5 -117t-154.5 -41q-116 0 -180.5 80.5t-44.5 193.5t101.5 183.5
t196.5 70.5zM176 298h253q-2 51 -31.5 75.5t-73.5 24.5q-51 0 -89.5 -26t-58.5 -74z" />
    <glyph glyph-name="uni0452" unicode="&#x452;" horiz-adv-x="533" 
d="M370 514q71 0 110.5 -55t24.5 -139l-58 -330q-21 -115 -81.5 -162.5t-172.5 -41.5l23 124q44 -3 69 16t33 64l57 320q7 41 -11 63.5t-53 22.5q-39 0 -68 -24t-40 -73l-53 -299h-129l97 554h-62l15 84h62l11 62h129l-11 -62h142l-15 -84h-142l-18 -103q57 63 141 63z" />
    <glyph glyph-name="uni0453" unicode="&#x453;" horiz-adv-x="383" 
d="M438 700l-131 -137h-127l100 137h158zM103 500h322l-21 -124h-194l-66 -376h-129z" />
    <glyph glyph-name="uni0454" unicode="&#x454;" horiz-adv-x="566" 
d="M266 105q44 0 81.5 21t55.5 57h132q-29 -86 -106 -141.5t-171 -55.5q-113 0 -178.5 80.5t-45.5 192.5t103.5 183.5t196.5 71.5q94 0 158 -55.5t67 -140.5h-133q-7 35 -36.5 56t-73.5 21q-43 0 -80 -23.5t-59 -63.5h171l-21 -116h-170q8 -40 36.5 -63.5t72.5 -23.5z" />
    <glyph glyph-name="uni0455" unicode="&#x455;" horiz-adv-x="480" 
d="M448 341h-126q5 28 -10.5 43.5t-45.5 15.5q-67 0 -75 -45q-3 -20 14.5 -33t46.5 -19.5t62 -18t60 -26.5t41.5 -47.5t6.5 -78.5q-14 -73 -74.5 -109.5t-148.5 -36.5t-140 45t-37 128h126q-5 -29 12 -44t53 -15q74 0 80 45q4 23 -21 36.5t-63 23.5t-75 24.5t-59 50
t-13 89.5q13 71 75 108t141 37q81 0 133 -45.5t37 -127.5z" />
    <glyph glyph-name="uni0456" unicode="&#x456;" horiz-adv-x="247" 
d="M116 570l22 130h129l-22 -130h-129zM15 0l88 500h129l-88 -500h-129z" />
    <glyph glyph-name="uni0457" unicode="&#x457;" horiz-adv-x="247" 
d="M27 561l21 118h117l-20 -118h-118zM212 561l21 118h117l-20 -118h-118zM15 0l88 500h129l-88 -500h-129z" />
    <glyph glyph-name="uni0458" unicode="&#x458;" horiz-adv-x="264" 
d="M155 700h129l-22 -130h-129zM30 -10l90 510h129l-90 -510q-20 -117 -80.5 -164t-172.5 -40l22 124q88 -6 102 80z" />
    <glyph glyph-name="uni0459" unicode="&#x459;" horiz-adv-x="742" 
d="M554 328q74 0 117.5 -49t30.5 -124t-67.5 -115t-138.5 -40h-188h-31l66 376h-100l-29 -167q-22 -123 -83 -172.5t-166 -42.5l21 121q80 -11 100 101l50 284h129h182h47l-30 -172h90zM578 164q4 24 -9 37t-35 13h-90l-18 -100h91q22 0 39 13t22 37z" />
    <glyph glyph-name="uni045A" unicode="&#x45a;" horiz-adv-x="768" 
d="M580 328q74 0 117.5 -49t30.5 -124t-67.5 -115t-138.5 -40h-188h-31l37 207h-160l-36 -207h-129l88 500h129l-31 -172h160l30 172h129l-30 -172h90zM604 164q4 24 -8.5 37t-34.5 13h-91l-18 -100h91q22 0 39.5 13t21.5 37z" />
    <glyph glyph-name="uni045B" unicode="&#x45b;" horiz-adv-x="539" 
d="M369 514q70 0 110.5 -55.5t25.5 -138.5l-56 -320h-129l55 310q7 41 -11.5 62.5t-53.5 21.5q-86 0 -107 -95l-53 -299h-129l97 554h-62l15 84h62l11 62h129l-11 -62h142l-15 -84h-142l-18 -102q56 62 140 62z" />
    <glyph glyph-name="uni045C" unicode="&#x45c;" horiz-adv-x="517" 
d="M495 700l-131 -137h-127l100 137h158zM550 500l-241 -247l159 -253h-140l-143 235l-41 -235h-129l88 500h129l-37 -211l202 211h153z" />
    <glyph glyph-name="uni045E" unicode="&#x45e;" horiz-adv-x="495" 
d="M458 676l-19 -112h-290l19 112h290zM394 500h143l-257 -500q-58 -114 -132 -160t-168 -40l21 120q53 -1 84 20t58 73l1 1l-102 486h132l62 -330z" />
    <glyph glyph-name="uni045F" unicode="&#x45f;" horiz-adv-x="545" 
d="M401 500h129l-88 -500h-129h-21l-25 -144h-126l25 144h-108h-43l88 500h129l-67 -379h170z" />
    <glyph glyph-name="uni0490" unicode="&#x490;" horiz-adv-x="465" 
d="M554 820l-34 -187l-11 -65h-251l-99 -568h-138l123 700h250l22 120h138z" />
    <glyph glyph-name="uni0491" unicode="&#x491;" horiz-adv-x="383" 
d="M317 601h126l-39 -225h-194l-66 -376h-129l88 500h197z" />
    <glyph glyph-name="Wgrave" unicode="&#x1e80;" horiz-adv-x="890" 
d="M614 763h-122l-90 137h150zM818 700h149l-323 -700h-152l-34 317l-148 -317h-152l-76 700h137l51 -525l164 362l-18 163h123l52 -525z" />
    <glyph glyph-name="wgrave" unicode="&#x1e81;" horiz-adv-x="725" 
d="M496 563h-122l-90 137h150zM615 500h144l-251 -500h-123h-1v1l-30 200l-101 -201h-109h-14l-76 500h131l37 -342l106 214l-19 128h108l46 -329z" />
    <glyph glyph-name="Wacute" unicode="&#x1e82;" horiz-adv-x="890" 
d="M714 900l-131 -137h-127l100 137h158zM818 700h149l-323 -700h-152l-34 317l-148 -317h-152l-76 700h137l51 -525l164 362l-18 163h123l52 -525z" />
    <glyph glyph-name="wacute" unicode="&#x1e83;" horiz-adv-x="725" 
d="M597 700l-131 -137h-127l100 137h158zM615 500h144l-251 -500h-123h-1v1l-30 200l-101 -201h-109h-14l-76 500h131l37 -342l106 214l-19 128h108l46 -329z" />
    <glyph glyph-name="Wdieresis" unicode="&#x1e84;" horiz-adv-x="890" 
d="M522 879l-20 -118h-118l21 118h117zM707 879l-20 -118h-118l21 118h117zM818 700h149l-323 -700h-152l-34 317l-148 -317h-152l-76 700h137l51 -525l164 362l-18 163h123l52 -525z" />
    <glyph glyph-name="wdieresis" unicode="&#x1e85;" horiz-adv-x="725" 
d="M404 679l-20 -118h-118l21 118h117zM589 679l-20 -118h-118l21 118h117zM615 500h144l-251 -500h-123h-1v1l-30 200l-101 -201h-109h-14l-76 500h131l37 -342l106 214l-19 128h108l46 -329z" />
    <glyph glyph-name="Ygrave" unicode="&#x1ef2;" horiz-adv-x="601" 
d="M468 763h-122l-90 137h150zM678 700l-298 -390l-55 -310h-137l55 311l-161 389h147l98 -257l187 257h164z" />
    <glyph glyph-name="ygrave" unicode="&#x1ef3;" horiz-adv-x="500" 
d="M384 563l-62 137h-150l90 -137h122zM399 500h143l-360 -700h-138l106 208l-103 492h132l62 -320z" />
    <glyph glyph-name="endash" unicode="&#x2013;" horiz-adv-x="624" 
d="M63 240l22 124h493l-21 -124h-494z" />
    <glyph glyph-name="emdash" unicode="&#x2014;" horiz-adv-x="724" 
d="M63 240l22 124h593l-21 -124h-594z" />
    <glyph glyph-name="quoteleft" unicode="&#x2018;" horiz-adv-x="268" 
d="M275 648q-35 -2 -54.5 -20.5t-26.5 -60.5h67l-25 -143h-143l25 143q25 134 167 139z" />
    <glyph glyph-name="quoteright" unicode="&#x2019;" horiz-adv-x="268" 
d="M142 700h142l-25 -142q-23 -136 -167 -139l10 58q35 1 54.5 19.5t27.5 61.5h-67z" />
    <glyph glyph-name="quotesinglbase" unicode="&#x201a;" horiz-adv-x="268" 
d="M44 143h142l-25 -143q-25 -134 -167 -139l10 58q35 2 54.5 20.5t26.5 60.5h-66z" />
    <glyph glyph-name="quotedblleft" unicode="&#x201c;" horiz-adv-x="453" 
d="M275 648q-35 -2 -54.5 -20.5t-26.5 -60.5h67l-25 -143h-143l25 143q25 134 167 139zM460 648q-35 -2 -54.5 -20.5t-26.5 -60.5h67l-25 -143h-143l25 143q25 134 167 139z" />
    <glyph glyph-name="quotedblright" unicode="&#x201d;" horiz-adv-x="453" 
d="M327 701h142l-25 -143q-25 -134 -167 -139l10 58q35 2 54.5 20.5t26.5 60.5h-66zM142 700h142l-25 -142q-23 -136 -167 -139l10 58q35 1 54.5 19.5t27.5 61.5h-67z" />
    <glyph glyph-name="quotedblbase" unicode="&#x201e;" horiz-adv-x="453" 
d="M229 143h142l-25 -143q-25 -134 -167 -139l10 58q35 2 54.5 20.5t26.5 60.5h-66zM44 143h142l-25 -143q-25 -134 -167 -139l10 58q35 2 54.5 20.5t26.5 60.5h-66z" />
    <glyph glyph-name="dagger" unicode="&#x2020;" horiz-adv-x="480" 
d="M490 565l-21 -124h-131l-77 -441h-129l77 441h-130l21 124h131l24 135h129l-24 -135h130z" />
    <glyph glyph-name="daggerdbl" unicode="&#x2021;" horiz-adv-x="480" 
d="M469 441h-131l-32 -182h130l-21 -124h-131l-23 -135h-129l23 135h-130l21 124h131l32 182h-130l21 124h131l24 135h129l-24 -135h130z" />
    <glyph glyph-name="bullet" unicode="&#x2022;" horiz-adv-x="360" 
d="M174 213q-57 0 -90 42.5t-22 100.5q10 57 56 94.5t106 37.5q56 0 88.5 -41.5t22.5 -98.5q-11 -58 -56 -96.5t-105 -38.5z" />
    <glyph glyph-name="ellipsis" unicode="&#x2026;" horiz-adv-x="723" 
d="M246 0l25 143h143l-25 -143h-143zM474 0l25 143h142l-25 -143h-142zM19 0l25 143h142l-25 -143h-142z" />
    <glyph glyph-name="perthousand" unicode="&#x2030;" horiz-adv-x="1161" 
d="M242 384q-73 0 -113 49t-31 115q10 68 62.5 117t131.5 49q75 0 115 -54t26 -123q-14 -65 -65 -109t-126 -44zM48 0l610 700h127l-611 -700h-126zM255 485q27 0 47.5 18.5t25.5 45.5t-9 45t-41 18t-47.5 -18t-25.5 -45t9 -45.5t41 -18.5zM543 -12q-74 0 -114 51t-29 117
q11 68 63 115t131 47q73 0 113 -53t28 -120q-14 -66 -65 -111.5t-127 -45.5zM918 -12q-74 0 -114 51t-29 117q11 68 63 115t131 47q73 0 113 -53t28 -120q-14 -66 -65 -111.5t-127 -45.5zM556 89q27 0 48 19t25 45q5 28 -9 46t-41 18t-47.5 -18.5t-25.5 -45.5q-5 -28 9 -46
t41 -18zM931 89q27 0 48 19t25 45q5 28 -9 46t-41 18t-47.5 -18.5t-25.5 -45.5q-5 -28 9 -46t41 -18z" />
    <glyph glyph-name="guilsinglleft" unicode="&#x2039;" horiz-adv-x="356" 
d="M337 497l-144 -192l75 -183h-118l-77 187l141 188h123z" />
    <glyph glyph-name="guilsinglright" unicode="&#x203a;" horiz-adv-x="357" 
d="M227 497l77 -188l-141 -187h-123l144 191l-75 184h118z" />
    <glyph glyph-name="fraction" unicode="&#x2044;" horiz-adv-x="190" 
d="M-99 0h-95l518 700h95z" />
    <glyph glyph-name="Euro" unicode="&#x20ac;" horiz-adv-x="645" 
d="M657 459h-139q4 58 -22.5 89.5t-77.5 31.5q-104 0 -155 -129h205l-14 -77h-214q-2 -8 -4 -24l-3 -15h215l-14 -78h-207q3 -136 110 -136q53 0 91 33t55 95h139q-32 -124 -111.5 -193.5t-191.5 -69.5q-109 0 -169 73.5t-61 197.5h-70l14 78h61q1 4 2.5 12t1.5 12l3 15h-62
l14 77h68q40 124 122.5 193.5t194.5 69.5q102 0 163.5 -72t55.5 -183z" />
    <glyph glyph-name="uni20BD" unicode="&#x20bd;" horiz-adv-x="602" 
d="M428 700q93 0 152 -72.5t42 -168.5q-17 -98 -90.5 -157t-183.5 -59h-124l-10 -55h223l-16 -88h-222l-18 -100h-137l17 100h-75l16 88h75l9 55h-74l21 121h74l60 336h137h124zM486 468q8 44 -15 73.5t-65 29.5h-125l-36 -207h124q42 0 75.5 30t41.5 74z" />
    <glyph glyph-name="uni2116" unicode="&#x2116;" horiz-adv-x="1005" 
d="M828 384q-70 0 -111 50.5t-29 118.5q12 70 66.5 115.5t129.5 45.5q71 0 111.5 -50.5t28.5 -119.5q-12 -70 -65.5 -115t-130.5 -45zM522 700h137l-123 -700h-103l-198 433l-76 -433h-138l123 700h104l198 -433zM845 489q27 0 46 17t24 43t-8.5 43t-39.5 17t-45.5 -17
t-24.5 -43q-5 -27 8 -43.5t40 -16.5zM642 208l21 121h312l-21 -121h-312z" />
    <glyph glyph-name="trademark" unicode="&#x2122;" horiz-adv-x="466" 
d="M266 644h-52l-25 -144h-60l25 144h-52l10 56h112h52zM512 700l-35 -200h-60l18 104l-45 -63h-28l-24 67l-19 -108h-58l35 200h58h3l28 -89l60 89h67z" />
    <glyph glyph-name="estimated" unicode="&#x212e;" horiz-adv-x="790" 
d="M476 710q161 0 247.5 -104.5t59.5 -255.5q-3 -15 -18 -15h-560q-15 0 -18 -15l-33 -192q-3 -11 3 -19q69 -89 218 -89q143 0 250 97q9 9 19 9h35q10 0 12 -6t-6 -13q-130 -117 -316 -117q-173 0 -262.5 108t-62.5 262q27 152 146.5 251t285.5 99zM673 574q1 11 -4 19
q-67 87 -198 87q-129 0 -229 -89q-9 -9 -10 -19l-34 -192q-3 -15 12 -15h410q15 0 18 15z" />
    <glyph glyph-name="oneeighth" unicode="&#x215b;" horiz-adv-x="806" 
d="M191 700l-20 -113l-108 -52l19 111zM591 700h95l-518 -700h-95zM228 300h-107l70 400h107zM779 290q-9 -54 -59 -83q49 -37 40 -102q-9 -56 -54 -87.5t-118 -31.5q-69 0 -106.5 35.5t-27.5 91.5q11 66 77 99q-40 33 -31 87q10 55 53 85t106 30q59 0 94.5 -34.5
t25.5 -89.5zM590 285q-4 -19 7.5 -29t34.5 -10q46 0 54 39q3 18 -8 28t-33 10q-49 0 -55 -38zM662 124q4 21 -8 33t-36 12q-53 0 -61 -45q-4 -21 7.5 -33.5t36.5 -12.5q53 0 61 46z" />
    <glyph glyph-name="threeeighths" unicode="&#x215c;" horiz-adv-x="887" 
d="M353 414q-11 -64 -56.5 -95.5t-116.5 -31.5q-69 0 -107.5 35.5t-28.5 98.5h107q-3 -19 7.5 -30t33.5 -11q47 0 54 41q8 40 -40 40h-59l10 61l78 81h-143l17 97h275l-13 -79l-85 -89q37 -15 55.5 -46t11.5 -72zM672 700h95l-518 -700h-95zM860 290q-9 -54 -59 -83
q49 -37 40 -102q-9 -56 -54 -87.5t-118 -31.5q-69 0 -106.5 35.5t-27.5 91.5q11 66 77 99q-40 33 -31 87q10 55 53 85t106 30q59 0 94.5 -34.5t25.5 -89.5zM671 285q-4 -19 7.5 -29t34.5 -10q46 0 54 39q3 18 -8 28t-33 10q-49 0 -55 -38zM743 124q4 21 -8 33t-36 12
q-53 0 -61 -45q-4 -21 7.5 -33.5t36.5 -12.5q53 0 61 46z" />
    <glyph glyph-name="fiveeighths" unicode="&#x215d;" horiz-adv-x="873" 
d="M340 411q-10 -63 -54 -93.5t-112 -30.5q-63 0 -100.5 34.5t-26.5 97.5h99q-3 -18 7.5 -29.5t33.5 -11.5t38 11.5t18 29.5q3 20 -7.5 31.5t-32.5 11.5h-134l58 238h244l-17 -97h-147l-14 -54h29q60 0 95 -36.5t23 -101.5zM659 700h95l-518 -700h-95zM847 290
q-9 -54 -59 -83q49 -37 40 -102q-9 -56 -54 -87.5t-118 -31.5q-69 0 -106.5 35.5t-27.5 91.5q11 66 77 99q-40 33 -31 87q10 55 53 85t106 30q59 0 94.5 -34.5t25.5 -89.5zM658 285q-4 -19 7.5 -29t34.5 -10q46 0 54 39q3 18 -8 28t-33 10q-49 0 -55 -38zM730 124
q4 21 -8 33t-36 12q-53 0 -61 -45q-4 -21 7.5 -33.5t36.5 -12.5q53 0 61 46z" />
    <glyph glyph-name="seveneighths" unicode="&#x215e;" horiz-adv-x="834" 
d="M165 300h-114l171 303h-157l17 97h276l-14 -82zM619 700h95l-518 -700h-95zM807 290q-9 -54 -59 -83q49 -37 40 -102q-9 -56 -54 -87.5t-118 -31.5q-69 0 -106.5 35.5t-27.5 91.5q11 66 77 99q-40 33 -31 87q10 55 53 85t106 30q59 0 94.5 -34.5t25.5 -89.5zM618 285
q-4 -19 7.5 -29t34.5 -10q46 0 54 39q3 18 -8 28t-33 10q-49 0 -55 -38zM690 124q4 21 -8 33t-36 12q-53 0 -61 -45q-4 -21 7.5 -33.5t36.5 -12.5q53 0 61 46z" />
    <glyph glyph-name="arrowleft" unicode="&#x2190;" horiz-adv-x="798" 
d="M781 412l-22 -124h-481l197 -238h-165l-247 300l353 300h181l-280 -238h464z" />
    <glyph glyph-name="arrowup" unicode="&#x2191;" horiz-adv-x="690" 
d="M671 400l-28 -163l-194 236l-83 -473h-129l80 456l-277 -235l31 179l353 300z" />
    <glyph glyph-name="arrowright" unicode="&#x2192;" horiz-adv-x="798" 
d="M524 650l247 -300l-352 -300h-181l279 238h-465l21 124h482l-196 238h165z" />
    <glyph glyph-name="arrowdown" unicode="&#x2193;" horiz-adv-x="690" 
d="M409 244l276 236l-31 -180l-353 -300l-247 300l29 163l194 -236l83 473h129z" />
    <glyph glyph-name="arrowboth" unicode="&#x2194;" horiz-adv-x="1085" 
d="M926 355l132 -5l-321 -272h-176l246 210h-532l173 -210h-161l-224 272l320 273h178l-247 -211h531l-173 211h162l224 -273l-132 6v-1z" />
    <glyph glyph-name="arrowupdn" unicode="&#x2195;" horiz-adv-x="635" 
d="M619 414l-172 208l-92 -530l244 208l-31 -175l-320 -273l-224 273l28 161l171 -208l93 530l-244 -208l31 175l320 273l224 -273z" />
    <glyph glyph-name="uni2196" unicode="&#x2196;" horiz-adv-x="643" 
d="M633 493h-343l287 -349l-96 -81l-287 348l-60 -342l-99 120l75 424h424z" />
    <glyph glyph-name="uni2197" unicode="&#x2197;" horiz-adv-x="644" 
d="M239 613h424l-75 -424l-143 -121l58 327l-399 -338l-80 95l400 341h-328z" />
    <glyph glyph-name="uni2198" unicode="&#x2198;" horiz-adv-x="643" 
d="M542 617l100 -120l-75 -424h-424l-100 120h343l-287 349l96 81l287 -348z" />
    <glyph glyph-name="uni2199" unicode="&#x2199;" horiz-adv-x="644" 
d="M653 535l-402 -342h329l-142 -120h-424l75 424l142 120l-59 -329l401 341z" />
    <glyph glyph-name="partialdiff" unicode="&#x2202;" horiz-adv-x="584" 
d="M322 714q118 0 189.5 -106.5t43.5 -266.5q-30 -175 -119.5 -265t-213.5 -90q-99 0 -151 66t-36 157q18 102 88.5 163.5t171.5 61.5q83 0 138 -40q6 92 -32 144.5t-117 53.5q-57 2 -121 -32l21 118q63 36 138 36zM240 108q60 0 104 46.5t68 128.5q-42 37 -112 37
q-51 0 -89 -30.5t-47 -85.5q-8 -44 13 -70t63 -26z" />
    <glyph glyph-name="emptyset" unicode="&#x2205;" horiz-adv-x="805" 
d="M835 720l-116 -119q88 -110 62 -260q-27 -150 -148 -251.5t-272 -101.5q-103 0 -182 57l-63 -65h-111l116 120q-89 109 -62 260q26 149 148 250.5t273 101.5q102 0 181 -57l63 65h111zM148 350q-18 -108 37 -184l411 423q-56 35 -128 35q-113 0 -206.5 -79.5
t-113.5 -194.5zM692 350q18 107 -38 184l-411 -423q57 -35 129 -35q113 0 206.5 80t113.5 194z" />
    <glyph glyph-name="product" unicode="&#x220f;" horiz-adv-x="640" 
d="M-14 -200l158 900h510l-158 -900h-129l137 776h-252l-137 -776h-129z" />
    <glyph glyph-name="summation" unicode="&#x2211;" horiz-adv-x="563" 
d="M-44 -200l21 121l276 352l-141 330l17 97h460l-21 -124h-309l135 -317l-262 -335h336l-22 -124h-490z" />
    <glyph glyph-name="minus" unicode="&#x2212;" horiz-adv-x="555" 
d="M59 290l22 121h450l-22 -121h-450z" />
    <glyph glyph-name="radical" unicode="&#x221a;" horiz-adv-x="676" 
d="M225 0l-87 199h-102l22 124h167l70 -173l333 650h140l-418 -800h-125z" />
    <glyph glyph-name="infinity" unicode="&#x221e;" horiz-adv-x="808" 
d="M620 525q77 0 121.5 -52t31.5 -130q-14 -78 -70.5 -123t-135.5 -45q-86 0 -159 87q-99 -87 -184 -87q-78 0 -123 52t-31 130t71 123t137 45q85 0 158 -87q99 87 184 87zM305 325q2 41 -6 59q-44 20 -72 -9q-13 -14 -13 -31t13 -28q26 -24 78 9zM605 316q17 11 22 28
t-3 31q-17 29 -67 9q-17 -21 -27 -59q41 -32 75 -9z" />
    <glyph glyph-name="integral" unicode="&#x222b;" horiz-adv-x="441" 
d="M-80 -204l22 129q29 -18 66 -3t52 59l193 561q72 212 268 160l-23 -128q-31 17 -67.5 2.5t-51.5 -58.5l-193 -562q-74 -212 -266 -160z" />
    <glyph glyph-name="approxequal" unicode="&#x2248;" horiz-adv-x="569" 
d="M311 379q-44 23 -74.5 27.5t-47.5 -3t-39 -26.5l-78 28q37 100 103 128t145 -14q59 -31 94.5 -27t56.5 51l95 -51q-36 -95 -106 -125t-149 12zM134 157l-96 51q37 95 107 125t148 -12q45 -23 75.5 -27t47 3t38.5 26l77 -28q-37 -100 -102.5 -128t-144.5 14
q-59 31 -94.5 27t-55.5 -51z" />
    <glyph glyph-name="notequal" unicode="&#x2260;" horiz-adv-x="525" 
d="M505 393h-157l-53 -86h195l-22 -121h-249l-81 -131h-82l81 131h-103l22 121h156l54 86h-195l21 121h249l82 131h82l-81 -131h102z" />
    <glyph glyph-name="lessequal" unicode="&#x2264;" horiz-adv-x="528" 
d="M554 653l-25 -141l-305 -89l273 -90l-22 -127l-408 166l20 114zM11 55l21 121h438l-22 -121h-437z" />
    <glyph glyph-name="greaterequal" unicode="&#x2265;" horiz-adv-x="528" 
d="M116 653l408 -167l-20 -114l-467 -166l25 139l305 90l-273 89zM11 55l21 121h438l-22 -121h-437z" />
    <glyph glyph-name="lozenge" unicode="&#x25ca;" horiz-adv-x="555" 
d="M185 0l-124 350l247 350h98l125 -350l-248 -350h-98zM258 170l135 191l-60 169l-135 -191z" />
    <glyph glyph-name="i.loclTRK" horiz-adv-x="247" 
d="M111 558l23 135h135l-23 -135h-135zM15 0l88 500h129l-88 -500h-129z" />
    <glyph glyph-name="a.ss01" horiz-adv-x="627" 
d="M483 500h129l-88 -500h-129l8 48q-65 -62 -168 -62q-112 0 -166.5 83t-33.5 193q19 107 96 179.5t184 72.5t156 -83zM277 109q59 0 104.5 38t56.5 99l1 5q11 64 -22.5 102t-92.5 38t-104 -37.5t-56 -102.5q-11 -63 21 -102.5t92 -39.5z" />
    <glyph glyph-name="aacute.ss01" horiz-adv-x="627" 
d="M542 700l-131 -137h-127l100 137h158zM483 500h129l-88 -500h-129l8 48q-65 -62 -168 -62q-112 0 -166.5 83t-33.5 193q19 107 96 179.5t184 72.5t156 -83zM277 109q59 0 104.5 38t56.5 99l1 5q11 64 -22.5 102t-92.5 38t-104 -37.5t-56 -102.5q-11 -63 21 -102.5
t92 -39.5z" />
    <glyph glyph-name="abreve.ss01" horiz-adv-x="627" 
d="M367 547q-79 0 -119 39t-28 106h115q-9 -52 42 -52q52 0 61 52h115q-11 -70 -58.5 -107.5t-127.5 -37.5zM483 500h129l-88 -500h-129l8 48q-65 -62 -168 -62q-112 0 -166.5 83t-33.5 193q19 107 96 179.5t184 72.5t156 -83zM277 109q59 0 104.5 38t56.5 99l1 5
q11 64 -22.5 102t-92.5 38t-104 -37.5t-56 -102.5q-11 -63 21 -102.5t92 -39.5z" />
    <glyph glyph-name="acircumflex.ss01" horiz-adv-x="627" 
d="M373 620l-58 -65h-128l131 145h124h6l81 -145h-126zM483 500h129l-88 -500h-129l8 48q-65 -62 -168 -62q-112 0 -166.5 83t-33.5 193q19 107 96 179.5t184 72.5t156 -83zM277 109q59 0 104.5 38t56.5 99l1 5q11 64 -22.5 102t-92.5 38t-104 -37.5t-56 -102.5
q-11 -63 21 -102.5t92 -39.5z" />
    <glyph glyph-name="adieresis.ss01" horiz-adv-x="627" 
d="M350 679l-20 -118h-118l21 118h117zM535 679l-20 -118h-118l21 118h117zM483 500h129l-88 -500h-129l8 48q-65 -62 -168 -62q-112 0 -166.5 83t-33.5 193q19 107 96 179.5t184 72.5t156 -83zM277 109q59 0 104.5 38t56.5 99l1 5q11 64 -22.5 102t-92.5 38t-104 -37.5
t-56 -102.5q-11 -63 21 -102.5t92 -39.5z" />
    <glyph glyph-name="agrave.ss01" horiz-adv-x="627" 
d="M442 563h-122l-90 137h150zM483 500h129l-88 -500h-129l8 48q-65 -62 -168 -62q-112 0 -166.5 83t-33.5 193q19 107 96 179.5t184 72.5t156 -83zM277 109q59 0 104.5 38t56.5 99l1 5q11 64 -22.5 102t-92.5 38t-104 -37.5t-56 -102.5q-11 -63 21 -102.5t92 -39.5z" />
    <glyph glyph-name="amacron.ss01" horiz-adv-x="627" 
d="M527 669l-18 -105h-290l18 105h290zM483 500h129l-88 -500h-129l8 48q-65 -62 -168 -62q-112 0 -166.5 83t-33.5 193q19 107 96 179.5t184 72.5t156 -83zM277 109q59 0 104.5 38t56.5 99l1 5q11 64 -22.5 102t-92.5 38t-104 -37.5t-56 -102.5q-11 -63 21 -102.5t92 -39.5
z" />
    <glyph glyph-name="aogonek.ss01" horiz-adv-x="627" 
d="M483 500h129l-88 -500q-28 -24 -48.5 -53t-21.5 -47q-3 -22 21 -22q15 0 28 5l-14 -81q-33 -16 -74 -16q-46 0 -72 23.5t-18 66.5q10 55 87 124h-17l8 48q-65 -62 -168 -62q-112 0 -166.5 83t-33.5 193q19 107 96 179.5t184 72.5t156 -83zM277 109q59 0 104.5 38t56.5 99
l1 5q11 64 -22.5 102t-92.5 38t-104 -37.5t-56 -102.5q-11 -63 21 -102.5t92 -39.5z" />
    <glyph glyph-name="aring.ss01" horiz-adv-x="627" 
d="M361 539q-53 0 -84.5 36t-22.5 86q9 51 48.5 83t95.5 32q55 0 86 -35.5t22 -86.5q-8 -51 -48 -83t-97 -32zM341 658q-3 -16 5.5 -27t26.5 -11q40 0 47 37q3 16 -5.5 27t-28.5 11q-38 0 -45 -37zM483 500h129l-88 -500h-129l8 48q-65 -62 -168 -62q-112 0 -166.5 83
t-33.5 193q19 107 96 179.5t184 72.5t156 -83zM277 109q59 0 104.5 38t56.5 99l1 5q11 64 -22.5 102t-92.5 38t-104 -37.5t-56 -102.5q-11 -63 21 -102.5t92 -39.5z" />
    <glyph glyph-name="atilde.ss01" horiz-adv-x="627" 
d="M358 584q-26 20 -40.5 16t-20.5 -40h-104q6 56 27.5 92t50.5 48t61 7t61 -26q25 -20 39.5 -16t20.5 40h104q-6 -56 -27 -92t-50 -48t-61 -7t-61 26zM483 500h129l-88 -500h-129l8 48q-65 -62 -168 -62q-112 0 -166.5 83t-33.5 193q19 107 96 179.5t184 72.5t156 -83z
M277 109q59 0 104.5 38t56.5 99l1 5q11 64 -22.5 102t-92.5 38t-104 -37.5t-56 -102.5q-11 -63 21 -102.5t92 -39.5z" />
    <glyph glyph-name="ae.ss01" horiz-adv-x="984" 
d="M764 514q104 0 157.5 -76t33.5 -188q-4 -24 -14 -53h-125h-251q4 -51 36 -77.5t82 -26.5q76 0 111 50l128 1q-78 -158 -238 -158q-106 0 -157 72l-10 -58h-122l10 55q-71 -69 -168 -69q-113 0 -168 83t-34 193q19 107 96.5 179.5t185.5 72.5t155 -76l11 62h122l-10 -56
q73 70 169 70zM583 298h252q-2 51 -31 75.5t-73 24.5q-51 0 -89.5 -26t-58.5 -74zM277 109q59 0 104.5 38t56.5 99l1 5q11 64 -22.5 102t-92.5 38t-104.5 -37.5t-57.5 -102.5q-10 -63 22.5 -102.5t92.5 -39.5z" />
    <glyph glyph-name="y.ss01" horiz-adv-x="532" 
d="M389 500h129l-92 -518q-18 -102 -81 -149t-154 -47q-86 0 -139.5 45t-39.5 124h126q-4 -27 13.5 -42t52.5 -15q79 0 93 84l12 65q-53 -61 -138 -61q-72 0 -112 55t-25 140l56 319h129l-54 -310q-7 -41 11 -62.5t53 -21.5q84 0 107 95z" />
    <glyph glyph-name="yacute.ss01" horiz-adv-x="532" 
d="M494 700l-131 -137h-127l100 137h158zM389 500h129l-92 -518q-18 -102 -81 -149t-154 -47q-86 0 -139.5 45t-39.5 124h126q-4 -27 13.5 -42t52.5 -15q79 0 93 84l12 65q-53 -61 -138 -61q-72 0 -112 55t-25 140l56 319h129l-54 -310q-7 -41 11 -62.5t53 -21.5
q84 0 107 95z" />
    <glyph glyph-name="ycircumflex.ss01" horiz-adv-x="532" 
d="M325 620l-58 -65h-128l131 145h124h6l81 -145h-126zM389 500h129l-92 -518q-18 -102 -81 -149t-154 -47q-86 0 -139.5 45t-39.5 124h126q-4 -27 13.5 -42t52.5 -15q79 0 93 84l12 65q-53 -61 -138 -61q-72 0 -112 55t-25 140l56 319h129l-54 -310q-7 -41 11 -62.5
t53 -21.5q84 0 107 95z" />
    <glyph glyph-name="ydieresis.ss01" horiz-adv-x="532" 
d="M302 679l-20 -118h-118l21 118h117zM487 679l-20 -118h-118l21 118h117zM389 500h129l-92 -518q-18 -102 -81 -149t-154 -47q-86 0 -139.5 45t-39.5 124h126q-4 -27 13.5 -42t52.5 -15q79 0 93 84l12 65q-53 -61 -138 -61q-72 0 -112 55t-25 140l56 319h129l-54 -310
q-7 -41 11 -62.5t53 -21.5q84 0 107 95z" />
    <glyph glyph-name="ygrave.ss01" horiz-adv-x="532" 
d="M393 563h-122l-90 137h150zM389 500h129l-92 -518q-18 -102 -81 -149t-154 -47q-86 0 -139.5 45t-39.5 124h126q-4 -27 13.5 -42t52.5 -15q79 0 93 84l12 65q-53 -61 -138 -61q-72 0 -112 55t-25 140l56 319h129l-54 -310q-7 -41 11 -62.5t53 -21.5q84 0 107 95z" />
    <glyph glyph-name="f_f_j" horiz-adv-x="818" 
d="M803 500l-90 -510q-20 -115 -81 -163t-172 -41l22 124q88 -6 102 80l68 386h-147l-66 -376h-129l66 376h-71h-77l-66 -376h-129l66 376h-71l21 124h72l1 5q38 224 271 209l-21 -124q-106 8 -121 -85l-1 -5h105h43l3 15q19 108 85.5 158.5t186.5 50.5q53 0 115 -14
l-21 -118q-44 8 -99 8q-123 0 -138 -85l-3 -15h276z" />
    <glyph glyph-name="f_j" horiz-adv-x="540" 
d="M526 500l-90 -510q-20 -115 -81.5 -163t-172.5 -41l23 124q87 -6 102 80l68 386h-147l-66 -376h-129l66 376h-71l21 124h72l1 5q19 108 85 158.5t186 50.5q54 0 115 -14l-20 -118q-45 8 -99 8q-123 0 -138 -85l-1 -5h276z" />
    <glyph glyph-name="uni0414.loclBGR" horiz-adv-x="730" 
d="M613 129h78l-47 -273h-138l25 144h-371h-49l-25 -144h-138l48 273h78l285 571h171zM222 129h251l-52 415z" />
    <glyph glyph-name="uni041B.loclBGR" horiz-adv-x="632" 
d="M-42 0l352 700h171l105 -700h-146l-66 540l-262 -540h-154z" />
    <glyph glyph-name="uni0424.loclBGR" horiz-adv-x="860" 
d="M575 707q145 -21 219.5 -121t48.5 -245q-27 -152 -131.5 -244t-262.5 -106l-16 -91h-130l16 93q-144 21 -218.5 121t-48.5 246q26 150 131 242t263 107l16 91h130zM706 350q34 202 -153 232l-82 -464q197 30 235 232zM189 350q-17 -98 21 -157.5t131 -74.5l82 464
q-99 -15 -158 -74.5t-76 -157.5z" />
    <glyph glyph-name="uni0414.ss01" horiz-adv-x="683" 
d="M659 700l-100 -571h75l-23 -129h-212h-428l22 129h66q75 80 103 240l58 331h439zM213 129h208l78 442h-164l-36 -204q-26 -156 -86 -238z" />
    <glyph glyph-name="uni0426.ss01" horiz-adv-x="675" 
d="M552 132h75l-23 -132h-583l123 700h138l-100 -568h232l100 568h138z" />
    <glyph glyph-name="uni0429.ss01" horiz-adv-x="940" 
d="M817 132h75l-23 -132h-848l123 700h138l-100 -568h180l100 568h137l-100 -568h180l100 568h138z" />
    <glyph glyph-name="uni0414.loclBGR.ss01" horiz-adv-x="730" 
d="M613 129h78l-22 -129h-180h-479h-37l23 129h78l285 571h171zM222 129h251l-52 415z" />
    <glyph glyph-name="uni0432.loclBGR" horiz-adv-x="567" 
d="M532 529q-12 -71 -88 -130q49 -26 72 -76t11 -118q-19 -107 -88 -163t-182 -56q-105 0 -162.5 69t-38.5 178l42 239q20 116 87.5 179t171.5 63q86 0 137 -52.5t38 -132.5zM344 593q-43 0 -75.5 -33.5t-42.5 -90.5l-10 -60l50 10q30 6 59 6q69 47 79 100q6 30 -10.5 49
t-49.5 19zM398 214q10 59 -30.5 82t-122.5 6l-50 -10l-11 -63q-9 -55 14.5 -86.5t73.5 -31.5q52 0 85 27t41 76z" />
    <glyph glyph-name="uni0433.loclBGR" horiz-adv-x="455" 
d="M288 159h126q-15 -85 -77 -129t-149 -44t-140.5 45t-39.5 121q8 45 33.5 75.5t57.5 43.5t68.5 22t67.5 13.5t53 16.5t25 32q4 22 -12 33.5t-47 11.5q-29 0 -50.5 -15.5t-26.5 -43.5h-126q15 84 76 128.5t141 44.5q82 0 135 -45.5t39 -120.5q-9 -53 -42.5 -86t-75 -44.5
t-82.5 -18.5t-71 -19t-34 -35q-4 -22 12.5 -33.5t51.5 -11.5q76 0 87 59z" />
    <glyph glyph-name="uni0434.loclBGR" horiz-adv-x="628" 
d="M487 500h126l-84 -476q-22 -123 -102 -180.5t-188 -57.5q-99 0 -165 54.5t-57 145.5h126q-3 -35 25.5 -60t83.5 -25q61 0 101 32t50 91l7 42q-64 -64 -168 -64q-112 0 -168 80t-38 187q18 103 94.5 174t178.5 71q115 0 165 -86zM280 121q59 0 104 34.5t58 89.5l4 21
q6 58 -28 93t-92 35q-59 0 -105 -36.5t-57 -98.5q-10 -60 22.5 -99t93.5 -39z" />
    <glyph glyph-name="uni0436.loclBGR" horiz-adv-x="746" 
d="M-32 0l230 265l-130 235h129l118 -214l74 414h126l-75 -418l188 218h143l-220 -252l138 -248h-131l-126 229l-41 -229h-126l40 227l-198 -227h-139z" />
    <glyph glyph-name="uni0438.loclBGR" horiz-adv-x="532" 
d="M389 500h129l-88 -500h-129l8 47q-51 -61 -138 -61q-72 0 -112 55t-25 140l56 319h129l-54 -310q-7 -41 11 -62.5t53 -21.5q84 0 107 94z" />
    <glyph glyph-name="uni0439.loclBGR" horiz-adv-x="532" 
d="M490 676l-19 -112h-290l19 112h290zM389 500h129l-88 -500h-129l8 47q-51 -61 -138 -61q-72 0 -112 55t-25 140l56 319h129l-54 -310q-7 -41 11 -62.5t53 -21.5q84 0 107 94z" />
    <glyph glyph-name="uni043A.loclBGR" horiz-adv-x="517" 
d="M550 500l-241 -247l159 -253h-140l-143 235l-41 -235h-129l123 700h129l-72 -411l202 211h153z" />
    <glyph glyph-name="uni043B.loclBGR" horiz-adv-x="500" 
d="M454 0h-133l-51 340l-169 -340h-143l270 500h122h10z" />
    <glyph glyph-name="uni043F.loclBGR" horiz-adv-x="532" 
d="M363 514q72 0 111.5 -54.5t24.5 -139.5l-57 -320h-129l55 310q7 42 -10.5 64t-52.5 22q-85 0 -109 -96l-52 -300h-129l88 500h129l-9 -48q57 62 140 62z" />
    <glyph glyph-name="uni0442.loclBGR" horiz-adv-x="767" 
d="M605 514q69 0 107.5 -49t23.5 -128l-59 -337h-129l58 327q6 35 -9.5 51t-42.5 16q-70 0 -88 -80l-55 -314h-129l57 327q6 35 -9.5 51t-42.5 16q-29 0 -53.5 -18.5t-34.5 -59.5l-55 -316h-129l88 500h129l-7 -41q52 55 129 55q72 0 104 -64q61 64 147 64z" />
    <glyph glyph-name="uni0446.loclBGR" horiz-adv-x="571" 
d="M483 121h43l-46 -265h-126l26 154q-30 12 -45 38q-59 -62 -151 -62q-79 0 -122.5 53t-27.5 142l56 319h129l-54 -310q-7 -41 11 -62.5t53 -21.5q83 0 106 92l54 302h129l-61 -347q-6 -32 26 -32z" />
    <glyph glyph-name="uni0448.loclBGR" horiz-adv-x="768" 
d="M624 500h129l-88 -500h-129l7 41q-52 -55 -130 -55q-73 0 -104 64q-60 -64 -146 -64q-69 0 -107.5 49t-24.5 128l59 337h129l-57 -327q-6 -35 9.5 -51t42.5 -16q31 0 56 20t33 67l54 307h129l-58 -327q-6 -35 10 -51t42 -16q72 0 90 85z" />
    <glyph glyph-name="uni0449.loclBGR" horiz-adv-x="806" 
d="M718 121h43l-46 -265h-126l26 154q-29 12 -45 39q-61 -63 -149 -63q-82 0 -114 67q-61 -67 -144 -67q-72 0 -109.5 47t-22.5 130l59 337h129l-57 -327q-12 -67 52 -67q29 0 53.5 18.5t34.5 61.5l55 314h129l-58 -327q-11 -67 52 -67q29 0 53 17.5t34 56.5l57 320h129
l-61 -347q-6 -32 26 -32z" />
    <glyph glyph-name="uni044C.loclBGR" horiz-adv-x="489" 
d="M283 361q91 0 137.5 -54t31.5 -139q-14 -82 -76.5 -132t-155.5 -50q-96 0 -148 58.5t-37 142.5l55 313h126l-24 -139h91zM327 178q6 30 -11 49.5t-53 19.5h-91l-11 -60q-6 -36 13 -57.5t58 -21.5q38 0 64.5 21t30.5 49z" />
    <glyph glyph-name="uni044A.loclBGR" horiz-adv-x="579" 
d="M374 361q90 0 136.5 -54t31.5 -140q-14 -82 -76.5 -131.5t-155.5 -49.5q-95 0 -147 58t-38 143l34 192h-136l21 121h180h82l-24 -139h92zM418 177q5 31 -11.5 50.5t-53.5 19.5h-91l-11 -60q-6 -36 13.5 -57.5t58.5 -21.5q37 0 63.5 20.5t31.5 48.5z" />
    <glyph glyph-name="uni044E.loclBGR" horiz-adv-x="811" 
d="M557 514q115 0 177 -83.5t42 -193.5q-18 -106 -102 -178.5t-192 -72.5q-101 0 -162 58t-67 146h-76l-33 -190h-129l123 700h129l-69 -389h71q32 90 109 146.5t179 56.5zM650 251q11 62 -21.5 99.5t-89.5 37.5t-102 -37.5t-57 -100.5q-10 -63 22 -100.5t88 -37.5
q57 0 103 38t57 101z" />
    <glyph glyph-name="uni0430.ss01" horiz-adv-x="627" 
d="M483 500h129l-88 -500h-129l8 48q-65 -62 -168 -62q-112 0 -166.5 83t-33.5 193q19 107 96 179.5t184 72.5t156 -83zM277 109q59 0 104.5 38t56.5 99l1 5q11 64 -22.5 102t-92.5 38t-104 -37.5t-56 -102.5q-11 -63 21 -102.5t92 -39.5z" />
    <glyph glyph-name="uni0443.ss01" horiz-adv-x="532" 
d="M389 500h129l-92 -518q-18 -102 -81 -149t-154 -47q-86 0 -139.5 45t-39.5 124h126q-4 -27 13.5 -42t52.5 -15q79 0 93 84l12 65q-53 -61 -138 -61q-72 0 -112 55t-25 140l56 319h129l-54 -310q-7 -41 11 -62.5t53 -21.5q84 0 107 95z" />
    <glyph glyph-name="zero.sinf" horiz-adv-x="409" 
d="M134 -174q-80 0 -122 61t-26 159q18 98 75 153t140 55q79 0 122 -61.5t26 -158.5q-17 -98 -74 -153t-141 -55zM149 -67q34 0 57.5 28t32.5 79q9 52 -4.5 79.5t-48.5 27.5q-34 0 -57.5 -28t-32.5 -79t5 -79t48 -28z" />
    <glyph glyph-name="one.sinf" horiz-adv-x="267" 
d="M110 240h107l-70 -400h-107l50 287l-108 -52l19 111z" />
    <glyph glyph-name="two.sinf" horiz-adv-x="356" 
d="M-42 -160l13 73l177 151q42 34 45 57q3 16 -6 25.5t-27 9.5q-43 0 -50 -44h-108q12 69 59.5 105.5t113.5 36.5q61 0 99 -38t27 -100q-9 -53 -87 -117l-76 -62h136l-16 -97h-300z" />
    <glyph glyph-name="three.sinf" horiz-adv-x="348" 
d="M303 240l-13 -79l-86 -89q38 -14 56.5 -45.5t11.5 -72.5q-11 -64 -56.5 -96t-116.5 -32q-69 0 -107.5 36t-29.5 99h108q-6 -41 41 -41q48 0 54 41q8 40 -40 40h-59l10 61l77 81h-142l17 97h275z" />
    <glyph glyph-name="four.sinf" horiz-adv-x="357" 
d="M296 2l-16 -98h-40l-12 -64h-102l11 64h-186l16 98l167 238h118l-162 -238h64l13 69h102l-12 -69h39z" />
    <glyph glyph-name="five.sinf" horiz-adv-x="335" 
d="M273 143h-147l-14 -54h29q60 0 95 -36.5t23 -101.5q-10 -63 -54.5 -94t-111.5 -31q-63 0 -100.5 34.5t-26.5 98.5h99q-3 -19 7.5 -30t33.5 -11q49 0 56 41q3 19 -7.5 31t-32.5 12h-134l58 238h244z" />
    <glyph glyph-name="six.sinf" horiz-adv-x="342" 
d="M164 110q58 -7 89 -48.5t22 -98.5q-11 -63 -58.5 -100t-118.5 -37q-67 0 -104 43t-26 106q7 45 36 78l149 187h117zM177 -31q4 25 -8.5 38t-38.5 13q-52 0 -63 -51q-5 -25 7.5 -39t37.5 -14q54 0 65 53z" />
    <glyph glyph-name="seven.sinf" horiz-adv-x="296" 
d="M1 240h276l-14 -82l-179 -318h-114l171 303h-157z" />
    <glyph glyph-name="eight.sinf" horiz-adv-x="350" 
d="M294 130q-9 -56 -60 -83q50 -38 41 -102q-9 -56 -54 -87.5t-118 -31.5q-69 0 -106.5 35.5t-27.5 91.5q11 66 77 99q-41 34 -31 87q10 55 53 85t106 30q59 0 94.5 -34.5t25.5 -89.5zM105 125q-4 -19 7.5 -29t34.5 -10q46 0 54 39q3 18 -8 28t-33 10q-49 0 -55 -38z
M177 -36q4 21 -8 33t-36 12q-53 0 -61 -45q-4 -21 7.5 -33.5t36.5 -12.5q53 0 61 46z" />
    <glyph glyph-name="nine.sinf" horiz-adv-x="342" 
d="M170 254q66 0 103.5 -43t26.5 -106q-7 -43 -36 -77l-149 -188h-116l105 130q-58 7 -89.5 48.5t-21.5 98.5q11 63 58.5 100t118.5 37zM91 111q-4 -25 8.5 -38t38.5 -13q52 0 63 51q5 25 -7.5 39t-37.5 14q-54 0 -65 -53z" />
    <glyph glyph-name="zero.tf" 
d="M249 -14q-129 0 -189.5 104.5t-31.5 268.5q29 165 117 260t220 95q129 0 189 -104.5t31 -268.5q-29 -165 -116.5 -260t-219.5 -95zM266 121q70 0 116 58.5t66 170.5q20 111 -5.5 170.5t-95.5 59.5t-116 -59t-66 -171t5.5 -170.5t95.5 -58.5z" />
    <glyph glyph-name="one.tf" 
d="M355 132h183l-23 -132h-320h-210l23 132h210l74 420l-185 -94l24 144l187 98h137z" />
    <glyph glyph-name="two.tf" 
d="M-7 0l19 107l301 231q54 42 84 74.5t36 67.5q8 45 -16 72.5t-72 27.5q-50 0 -85.5 -27.5t-44.5 -75.5h-137q20 113 100 175t181 62q99 0 165 -67t47 -176q-20 -112 -174 -222l-161 -116h285l-24 -133h-504z" />
    <glyph glyph-name="three.tf" 
d="M598 700l-19 -114l-165 -165q70 -24 107 -78.5t24 -131.5q-19 -109 -101.5 -167t-196.5 -58q-113 0 -182.5 63t-50.5 171h137q-8 -46 20.5 -72.5t90.5 -26.5t99.5 26t45.5 73q8 46 -20 72.5t-90 26.5h-75l17 91l159 161h-295l23 129h472z" />
    <glyph glyph-name="four.tf" 
d="M561 247l-22 -128h-77l-21 -119h-139l21 119h-337l22 128l306 453h155l-307 -453h183l29 161h139l-29 -161h77z" />
    <glyph glyph-name="five.tf" 
d="M573 571h-296l-32 -126h86q105 0 167 -65t43 -173t-98.5 -164.5t-192.5 -56.5q-112 0 -179 61.5t-48 168.5h138q-8 -44 18.5 -69.5t86.5 -25.5t95.5 25.5t43.5 69.5q8 43 -18.5 69t-86.5 26h-228l96 389h427z" />
    <glyph glyph-name="six.tf" 
d="M333 480q120 -5 177.5 -79t41.5 -175q-18 -102 -97 -171t-207 -69q-129 0 -190.5 76.5t-42.5 182.5q16 82 71 141l281 314h162zM416 233q10 55 -21.5 86.5t-90.5 31.5q-61 0 -102 -31t-51 -87q-10 -55 21 -86t91 -31q61 0 102 31t51 86z" />
    <glyph glyph-name="seven.tf" 
d="M104 700h520l-20 -117l-360 -583h-153l350 568h-360z" />
    <glyph glyph-name="eight.tf" 
d="M581 505q-17 -95 -107 -144q44 -29 64 -74t11 -97q-17 -97 -96 -150.5t-206 -53.5q-124 0 -189 59t-48 156q20 111 134 166q-72 55 -56 146q17 97 95 149t185 52q105 0 167.5 -56t45.5 -153zM224 502q-6 -38 19 -60.5t75 -22.5q51 0 84.5 22.5t39.5 60.5q7 38 -18.5 60
t-75.5 22q-52 0 -84.5 -22t-39.5 -60zM415 213q8 46 -21.5 71t-93.5 25t-103 -25t-47 -71t22 -71.5t93 -25.5q64 0 103 25.5t47 71.5z" />
    <glyph glyph-name="nine.tf" 
d="M365 714q129 0 190.5 -76.5t42.5 -181.5q-16 -82 -70 -139h1l-283 -317h-162l196 220q-120 5 -177.5 78.5t-41.5 175.5q17 102 96.5 171t207.5 69zM197 467q-10 -55 21 -86t91 -31q61 0 102 30.5t51 86.5q10 55 -21 86t-91 31q-61 0 -102 -31t-51 -86z" />
    <glyph glyph-name="zero.dnom" horiz-adv-x="409" 
d="M162 -14q-80 0 -122 61.5t-25 158.5q17 98 74 153t140 55q79 0 122 -61.5t26 -158.5q-17 -98 -74 -153t-141 -55zM177 93q34 0 57.5 28t32.5 79q9 52 -4.5 79.5t-48.5 27.5q-34 0 -57.5 -28t-32.5 -79t5 -79t48 -28z" />
    <glyph glyph-name="one.dnom" horiz-adv-x="267" 
d="M29 346l109 54l-20 -113l-108 -52zM138 400h107l-70 -400h-107z" />
    <glyph glyph-name="two.dnom" horiz-adv-x="356" 
d="M-14 0l13 74l177 150q42 34 45 57q3 16 -6 25.5t-27 9.5q-43 0 -50 -44h-108q12 69 59.5 105.5t113.5 36.5q61 0 99 -38t27 -100q-9 -53 -87 -117l-76 -61h136l-16 -98h-300z" />
    <glyph glyph-name="three.dnom" horiz-adv-x="348" 
d="M332 400l-14 -79l-85 -88q38 -15 56 -46.5t11 -72.5q-11 -64 -56.5 -96t-116.5 -32q-69 0 -107.5 36t-28.5 99h108q-7 -41 40 -41t54 41q8 40 -39 40h-60l10 61l78 81h-142l16 97h276z" />
    <glyph glyph-name="four.dnom" horiz-adv-x="356" 
d="M324 162l-16 -97h-40l-12 -65h-102l12 65h-187l16 97l167 238h118l-162 -238h65l12 69h102l-12 -69h39z" />
    <glyph glyph-name="five.dnom" horiz-adv-x="335" 
d="M302 303h-148l-14 -54h30q59 0 94 -36.5t23 -101.5q-10 -63 -54 -94t-111 -31q-64 0 -101.5 34.5t-26.5 98.5h99q-3 -18 7.5 -29.5t34.5 -11.5q23 0 37.5 11.5t17.5 29.5q3 20 -7.5 31.5t-32.5 11.5h-133l58 238h243z" />
    <glyph glyph-name="six.dnom" horiz-adv-x="341" 
d="M193 270q58 -7 89 -48.5t21 -98.5q-11 -63 -58 -100t-118 -37q-67 0 -104.5 43t-26.5 106q9 49 41 83l145 182h116zM205 129q4 24 -8.5 37.5t-37.5 13.5q-53 0 -64 -51q-5 -24 7.5 -38t37.5 -14q54 0 65 52z" />
    <glyph glyph-name="seven.dnom" horiz-adv-x="295" 
d="M29 400h276l-14 -82l-179 -318h-114l171 303h-157z" />
    <glyph glyph-name="eight.dnom" horiz-adv-x="349" 
d="M322 290q-9 -54 -59 -83q49 -37 40 -102q-9 -56 -54 -87.5t-118 -31.5q-69 0 -106.5 35.5t-27.5 91.5q11 66 77 99q-40 33 -31 87q10 55 53 85t106 30q59 0 94.5 -34.5t25.5 -89.5zM133 285q-4 -19 7.5 -29t34.5 -10q46 0 54 39q3 18 -8 28t-33 10q-49 0 -55 -38z
M205 124q4 21 -8 33t-36 12q-53 0 -61 -45q-4 -21 7.5 -33.5t36.5 -12.5q53 0 61 46z" />
    <glyph glyph-name="nine.dnom" horiz-adv-x="341" 
d="M198 414q66 0 103.5 -43t26.5 -106q-9 -50 -40 -82l-145 -183h-116l105 130q-58 7 -89.5 48.5t-21.5 98.5q11 63 58.5 100t118.5 37zM119 271q-4 -25 8.5 -38t38.5 -13q52 0 63 51q5 25 -7.5 39t-37.5 14q-54 0 -65 -53z" />
    <glyph glyph-name="zero.numr" horiz-adv-x="409" 
d="M215 287q-80 0 -122 61t-25 158q17 98 74 153t140 55q79 0 122 -61.5t26 -158.5q-17 -98 -74 -152.5t-141 -54.5zM230 393q34 0 57.5 28t32.5 79q9 52 -4.5 79.5t-48.5 27.5q-34 0 -57.5 -28t-32.5 -79t5 -79t48 -28z" />
    <glyph glyph-name="one.numr" horiz-adv-x="267" 
d="M82 646l109 54l-20 -113l-108 -52zM191 700h107l-70 -400h-107z" />
    <glyph glyph-name="two.numr" horiz-adv-x="356" 
d="M39 300l13 74l177 150q42 34 45 57q3 16 -6 25.5t-27 9.5q-43 0 -50 -44h-108q12 69 59.5 105.5t113.5 36.5q61 0 99 -38t27 -100q-9 -53 -87 -117l-76 -61h136l-16 -98h-300z" />
    <glyph glyph-name="three.numr" horiz-adv-x="348" 
d="M384 700l-13 -79l-85 -89q37 -15 55.5 -46t11.5 -72q-11 -64 -56.5 -95.5t-116.5 -31.5q-69 0 -107.5 35.5t-28.5 98.5h107q-3 -19 7.5 -30t33.5 -11q47 0 54 41q8 40 -40 40h-59l10 61l78 81h-143l17 97h275z" />
    <glyph glyph-name="four.numr" horiz-adv-x="356" 
d="M377 462l-16 -97h-40l-12 -65h-102l12 65h-187l17 97l166 238h118l-162 -238h65l12 69h102l-12 -69h39z" />
    <glyph glyph-name="five.numr" horiz-adv-x="335" 
d="M354 603h-147l-14 -54h29q60 0 95 -36.5t23 -101.5q-10 -63 -54 -93.5t-112 -30.5q-63 0 -100.5 34.5t-26.5 97.5h99q-3 -18 7.5 -29.5t33.5 -11.5t38 11.5t18 29.5q3 20 -7.5 31.5t-32.5 11.5h-134l58 238h244z" />
    <glyph glyph-name="six.numr" horiz-adv-x="341" 
d="M245 570q59 -7 90 -48.5t21 -98.5q-11 -63 -58.5 -99.5t-118.5 -36.5q-67 0 -104 42.5t-26 105.5q8 43 31 72l154 193h117zM258 429q4 25 -8.5 38t-38.5 13q-52 0 -63 -51q-5 -24 7.5 -38t37.5 -14t42.5 13.5t22.5 38.5z" />
    <glyph glyph-name="seven.numr" horiz-adv-x="295" 
d="M82 700h276l-14 -82l-179 -318h-114l171 303h-157z" />
    <glyph glyph-name="eight.numr" horiz-adv-x="350" 
d="M375 590q-9 -54 -59 -83q49 -37 40 -102q-9 -56 -54 -87t-118 -31q-70 0 -107 35t-27 91q11 66 77 99q-40 33 -31 87q10 55 53 85t106 30q59 0 94.5 -34.5t25.5 -89.5zM186 585q-4 -19 7.5 -29t34.5 -10q46 0 54 39q3 18 -8 28t-33 10q-49 0 -55 -38zM258 424q4 21 -8 33
t-36 12q-53 0 -61 -45q-4 -21 7.5 -33.5t36.5 -12.5q53 0 61 46z" />
    <glyph glyph-name="nine.numr" horiz-adv-x="341" 
d="M251 714q66 0 103.5 -43t26.5 -106q-9 -50 -40 -82l-145 -183h-116l105 130q-58 7 -89.5 48.5t-21.5 98.5q11 63 58.5 100t118.5 37zM172 571q-4 -25 8.5 -38t38.5 -13q52 0 63 51q5 25 -7.5 39t-37.5 14q-54 0 -65 -53z" />
    <glyph glyph-name="zero.sups" horiz-adv-x="409" 
d="M243 447q-80 0 -122 61t-25 158q17 98 74 153t140 55q79 0 122 -61.5t26 -158.5q-17 -98 -74 -152.5t-141 -54.5zM258 553q34 0 57.5 28t32.5 79q9 52 -4.5 79.5t-48.5 27.5q-34 0 -57.5 -28t-32.5 -79t5 -79t48 -28z" />
    <glyph glyph-name="one.sups" horiz-adv-x="268" 
d="M111 806l108 54l-20 -113l-108 -52zM219 860h107l-70 -400h-107z" />
    <glyph glyph-name="two.sups" horiz-adv-x="356" 
d="M67 460l13 74l177 150q42 34 45 57q3 16 -6 25.5t-27 9.5q-43 0 -50 -44h-108q12 69 59.5 105.5t113.5 36.5q61 0 99 -38t27 -100q-9 -53 -87 -117l-76 -61h136l-16 -98h-300z" />
    <glyph glyph-name="three.sups" horiz-adv-x="349" 
d="M413 860l-13 -79l-85 -89q37 -15 55.5 -46t11.5 -72q-11 -64 -56.5 -95.5t-116.5 -31.5q-69 0 -107.5 35.5t-28.5 98.5h107q-3 -19 7.5 -30t33.5 -11q47 0 54 41q8 40 -40 40h-59l10 61l78 81h-143l17 97h275z" />
    <glyph glyph-name="four.sups" horiz-adv-x="356" 
d="M405 622l-16 -97h-40l-12 -65h-102l12 65h-187l17 97l166 238h118l-162 -238h65l12 69h102l-12 -69h39z" />
    <glyph glyph-name="five.sups" horiz-adv-x="334" 
d="M383 763h-148l-14 -54h30q59 0 94 -36.5t23 -101.5q-10 -63 -53.5 -93.5t-111.5 -30.5q-64 0 -101 34t-26 98h98q-3 -18 7.5 -29.5t34.5 -11.5q23 0 37.5 11.5t17.5 29.5q3 20 -7.5 31.5t-32.5 11.5h-133l58 238h243z" />
    <glyph glyph-name="six.sups" horiz-adv-x="341" 
d="M274 730q58 -7 89 -48.5t21 -98.5q-11 -63 -58 -99.5t-118 -36.5q-67 0 -104.5 42.5t-26.5 105.5q9 49 41 83l145 182h116zM286 589q4 24 -8.5 37.5t-37.5 13.5q-53 0 -64 -51q-5 -24 7.5 -38t37.5 -14q54 0 65 52z" />
    <glyph glyph-name="seven.sups" horiz-adv-x="296" 
d="M111 860h276l-14 -82l-179 -318h-114l171 303h-157z" />
    <glyph glyph-name="eight.sups" horiz-adv-x="349" 
d="M403 750q-9 -54 -59 -83q49 -37 40 -102q-9 -56 -54 -87t-118 -31q-70 0 -107 35t-27 91q11 66 77 99q-40 33 -31 87q10 55 53 85t106 30q59 0 94.5 -34.5t25.5 -89.5zM214 745q-4 -19 7.5 -29t34.5 -10q46 0 54 39q3 18 -8 28t-33 10q-49 0 -55 -38zM286 584q4 21 -8 33
t-36 12q-53 0 -61 -45q-4 -21 7.5 -33.5t36.5 -12.5q53 0 61 46z" />
    <glyph glyph-name="nine.sups" horiz-adv-x="341" 
d="M279 874q66 0 103.5 -43t26.5 -106q-9 -50 -40 -82l-145 -183h-116l105 130q-58 7 -89.5 48.5t-21.5 98.5q11 63 58.5 100t118.5 37zM200 731q-4 -25 8.5 -38t38.5 -13q52 0 63 51q5 25 -7.5 39t-37.5 14q-54 0 -65 -53z" />
    <glyph glyph-name="cent.tf" 
d="M301 214q89 0 124 69h136q-29 -90 -104.5 -143t-171.5 -53q-37 0 -68 9l-47 -96h-60l57 117q-61 35 -90 100.5t-16 142.5q20 112 103.5 183t198.5 71q21 0 48 -5l45 91h60l-53 -107q54 -24 87 -71t34 -104h-135q-8 40 -44 57l-128 -259q14 -2 24 -2zM191 351
q-12 -74 36 -113l123 249q-58 0 -103.5 -38t-55.5 -98z" />
    <glyph glyph-name="dollar.tf" 
d="M572 488h-135q13 73 -56 88l-29 -169q35 -13 60 -24.5t53 -31t44 -41.5t24 -54.5t1 -70.5q-16 -93 -85.5 -143t-171.5 -55l-15 -87h-67l15 89q-97 11 -149 69t-34 158h137q-15 -80 70 -93l30 171q-42 16 -72.5 32.5t-59.5 42.5t-40 63.5t-3 84.5q16 91 85 141t164 55
l16 87h67l-16 -90q85 -14 134 -71t33 -151zM225 508q-6 -44 63 -77l26 147q-80 -8 -89 -70zM397 194q6 45 -70 76l-26 -148q87 9 96 72z" />
    <glyph glyph-name="Euro.tf" 
d="M603 459h-136q2 58 -23 89.5t-69 31.5q-90 0 -135 -129h178l-13 -77h-185q-1 -4 -2.5 -12t-2.5 -12q-2 -10 -2 -15h185l-14 -78h-179q-3 -136 90 -136q46 0 82 33.5t51 94.5h140q-27 -122 -103 -192.5t-186 -70.5q-102 0 -157 73.5t-53 197.5h-62l13 78h55q2 16 4 24
q0 5 2 15h-54l14 77h59q38 125 112 194t179 69q96 0 155 -70t57 -185z" />
    <glyph glyph-name="florin.tf" 
d="M352 545q95 211 283 160l-22 -129q-43 16 -79.5 2t-55.5 -58l-48 -106h122l-23 -124h-154l-148 -331q-94 -211 -284 -160l23 128q42 -16 79 -1.5t56 57.5l137 307h-119l23 124h151z" />
    <glyph glyph-name="uni20BD.tf" 
d="M398 700q93 0 152 -72.5t42 -168.5q-17 -97 -91.5 -156.5t-182.5 -59.5h-97l-9 -55h195l-16 -88h-195l-17 -100h-138l18 100h-75l15 88h75l10 55h-75l21 121h75l59 336h138h96zM456 468q8 44 -15 73.5t-65 29.5h-97l-37 -207h97q42 0 75.5 30t41.5 74z" />
    <glyph glyph-name="sterling.tf" 
d="M379 714q88 0 149 -60.5t43 -160.5l-7 -43h-138l7 43q8 42 -11.5 64.5t-59.5 22.5q-38 0 -66 -22.5t-35 -64.5l-21 -116h197l-22 -120h-196l-22 -124h335l-23 -133h-546l24 133h73l22 124h-61l22 120h60l20 116q20 112 91.5 166.5t164.5 54.5z" />
    <glyph glyph-name="yen.tf" 
d="M655 700l-250 -338h134l-14 -80h-162l-8 -45h162l-14 -81h-162l-27 -156h-138l27 156h-160l14 81h161l8 45h-161l14 80h133l-131 338h149l87 -252l175 252h163z" />
    <glyph glyph-name="brevecy" horiz-adv-x="360" 
d="M91 564l19 112h290l-19 -112h-290z" />
    </font>
</defs>
</svg>
